<?xml version="1.0" encoding="utf-8"?>
<!-- Generator: Adobe Illustrator 16.0.0, SVG Export Plug-In . SVG Version: 6.00 Build 0)  -->
<!DOCTYPE svg PUBLIC "-//W3C//DTD SVG 1.1//EN" "http://www.w3.org/Graphics/SVG/1.1/DTD/svg11.dtd">
<svg version="1.1" id="Layer_1" xmlns="http://www.w3.org/2000/svg" xmlns:xlink="http://www.w3.org/1999/xlink" x="0px" y="0px"
	 width="143.83px" height="26.17px" viewBox="0 0 143.83 26.17" enable-background="new 0 0 143.83 26.17" xml:space="preserve">
<g>
	<g>
		<g>
			<path fill-rule="evenodd" clip-rule="evenodd" fill="#5A5D63" d="M73.27,0.83v2.76c-0.1-0.03-0.17-0.03-0.2,0h-0.05
				c-16.3,0.47-33.25,0.37-50.85-0.28L1.22,3.26l2.9-2.43H73.27z"/>
			<path fill-rule="evenodd" clip-rule="evenodd" fill="#C61C1C" d="M73.27,0.83h66.85c0.03,0.06,0.08,0.14,0.15,0.23l3.05,1.92
				v12.33H73.47L73.42,3.59c-0.07-0.03-0.12-0.03-0.15,0V0.83z"/>
		</g>
		<g>
			<path fill-rule="evenodd" clip-rule="evenodd" fill="#84868B" d="M18.87,3.4h1.6c-0.13,0.19-0.38,0.44-0.75,0.75
				c-0.23,0-0.47-0.11-0.7-0.33C18.85,3.64,18.8,3.5,18.87,3.4z M19.82,10.41c-0.27-0.31-0.25-0.5,0.05-0.56
				c1.6-0.47,1.8-0.17,0.6,0.89C20.23,10.74,20.02,10.63,19.82,10.41z M23.27,7.56c-0.27,0-0.5-0.11-0.7-0.33
				c-0.27-0.31-0.23-0.5,0.1-0.56C24.27,6.21,24.47,6.5,23.27,7.56z M16.97,5.65c1.63-0.47,1.85-0.17,0.65,0.89
				c-0.27,0-0.52-0.11-0.75-0.33C16.63,5.89,16.67,5.71,16.97,5.65z M14.52,10.5c-0.23-0.28-0.22-0.47,0.05-0.56
				c1.63-0.44,1.85-0.13,0.65,0.93C14.95,10.88,14.72,10.75,14.52,10.5z M12.17,8.59c1.67-0.47,1.88-0.17,0.65,0.89
				c-0.23,0-0.47-0.11-0.7-0.33C11.85,8.84,11.87,8.65,12.17,8.59z M6.57,10.55c-0.03-0.47,0.13-0.69,0.5-0.65
				c1.97,0.25,2.13,0.76,0.5,1.54C6.97,11.37,6.63,11.08,6.57,10.55z M5.97,6.35C5.73,6.03,5.75,5.83,6.02,5.74
				C7.65,5.3,7.87,5.61,6.67,6.67C6.4,6.67,6.17,6.56,5.97,6.35z M22.17,13.35c0.43,0.06,0.25,0.44-0.55,1.12
				c-0.23,0-0.45-0.11-0.65-0.33V14.1c0.1,0.09,0.23,0.14,0.4,0.14c0.5-0.06,0.77-0.33,0.8-0.79
				C22.17,13.41,22.17,13.38,22.17,13.35z M58.77,6.44c-0.2-0.19-0.23-0.44-0.1-0.75c0.03-0.06,0.07-0.11,0.1-0.14
				c0-0.06,0.02-0.09,0.05-0.09c0-0.03,0.02-0.06,0.05-0.09c0.17-0.12,0.35-0.19,0.55-0.19c0.33,0,0.58,0.09,0.75,0.28
				c0.1,0.19,0.13,0.36,0.1,0.51c-0.03,0.47-0.32,0.73-0.85,0.79C59.18,6.77,58.97,6.66,58.77,6.44z M54.77,6.48
				c-0.2,0.16-0.4,0.33-0.6,0.51c-0.23,0-0.45-0.11-0.65-0.33c-0.27-0.31-0.25-0.5,0.05-0.56c0.27-0.09,0.5-0.16,0.7-0.19
				c0,0.16,0.07,0.3,0.2,0.42C54.53,6.41,54.63,6.45,54.77,6.48z M60.47,6.02c-0.17-0.28-0.1-0.44,0.2-0.47
				c1.77-0.31,1.93,0.02,0.5,0.98C60.83,6.53,60.6,6.36,60.47,6.02z M45.32,8.87c-0.13-0.03-0.28-0.05-0.45-0.05
				c-0.07,0-0.12,0-0.15,0c-0.17,0-0.28,0-0.35,0c-0.23,0-0.42,0.06-0.55,0.19c-0.1-0.16-0.05-0.26,0.15-0.33
				C45.13,8.37,45.58,8.43,45.32,8.87z M40.37,9.05C41,8.9,41.32,8.91,41.32,9.1c-0.2-0.03-0.4-0.05-0.6-0.05
				c-0.13,0-0.23,0.02-0.3,0.05L40.37,9.05z M51.37,9.05c-0.27-0.31-0.25-0.5,0.05-0.56c1.63-0.47,1.83-0.17,0.6,0.89
				C51.78,9.38,51.57,9.27,51.37,9.05z M51.82,5.32c-0.27,0-0.52-0.12-0.75-0.37c-0.23-0.28-0.22-0.47,0.05-0.56
				C52.78,3.95,53.02,4.26,51.82,5.32z M59.42,16.9c-0.17-0.09-0.37-0.14-0.6-0.14c-0.2,0-0.38,0.05-0.55,0.14
				c-0.03,0.03-0.05,0.08-0.05,0.14c-0.03,0-0.05,0.02-0.05,0.05c-0.1,0.03-0.17,0.08-0.2,0.14c0,0.06,0,0.11,0,0.14
				c-0.23-0.28-0.22-0.45,0.05-0.51C59.12,16.54,59.58,16.56,59.42,16.9z M64.17,16.95c-0.23-0.28-0.22-0.47,0.05-0.56
				c1.67-0.44,1.87-0.13,0.6,0.93C64.58,17.32,64.37,17.2,64.17,16.95z M38.47,6.48c-0.3-0.34-0.28-0.54,0.05-0.61
				c1.63-0.47,1.82-0.17,0.55,0.89C38.83,6.77,38.63,6.67,38.47,6.48z M29.92,6.53c-0.4-0.03-0.68-0.23-0.85-0.61
				C29,5.61,29.08,5.44,29.32,5.41C31.02,5.04,31.22,5.41,29.92,6.53z M26.27,7.84c-0.17-0.19-0.12-0.31,0.15-0.37
				c1.43-0.44,1.73-0.23,0.9,0.61c-0.17-0.19-0.38-0.28-0.65-0.28C26.5,7.79,26.37,7.81,26.27,7.84z M30.67,13.07
				c-0.13,0.16-0.3,0.33-0.5,0.51c-0.23,0-0.45-0.13-0.65-0.37c-0.3-0.28-0.28-0.47,0.05-0.56c0.97-0.25,1.4-0.25,1.3,0v0.09
				c-0.03,0-0.05,0.02-0.05,0.05l-0.05,0.05c-0.03,0.03-0.05,0.06-0.05,0.09C30.68,12.99,30.67,13.04,30.67,13.07z M26.17,12.74
				c-0.03-0.06-0.08-0.11-0.15-0.14c-0.03,0-0.05-0.01-0.05-0.05c-0.03-0.03-0.05-0.08-0.05-0.14c-0.07,0-0.1-0.02-0.1-0.05
				c-0.13-0.37-0.03-0.69,0.3-0.93l0.05-0.09c0,0.16,0.07,0.29,0.2,0.42c0.2,0.22,0.42,0.33,0.65,0.33c0.2-0.03,0.4-0.11,0.6-0.23
				c0.07,0.19-0.02,0.38-0.25,0.56c-0.07,0-0.15,0-0.25,0c-0.3-0.03-0.6,0.03-0.9,0.19C26.18,12.64,26.17,12.68,26.17,12.74z
				 M66.42,11.58c0.03,0.09,0.07,0.16,0.1,0.19c1.27-0.28,1.35,0.06,0.25,1.03c-0.2,0-0.37-0.06-0.5-0.19
				c-0.1,0.16-0.28,0.25-0.55,0.28c-0.23,0-0.45-0.11-0.65-0.33c-0.23-0.19-0.27-0.44-0.1-0.75c0.03-0.06,0.07-0.13,0.1-0.19
				c0-0.03,0.02-0.05,0.05-0.05c0-0.03,0.02-0.06,0.05-0.09c0.17-0.12,0.35-0.19,0.55-0.19C66.02,11.3,66.25,11.39,66.42,11.58z"/>
			<path fill-rule="evenodd" clip-rule="evenodd" fill="#6B6C74" d="M8.27,17.88c0.53-0.09,0.82-0.36,0.85-0.79
				c0.07-0.16,0.03-0.33-0.1-0.51c-0.2-0.19-0.45-0.28-0.75-0.28c-0.2,0-0.38,0.06-0.55,0.19c-0.03,0.03-0.05,0.06-0.05,0.09
				c-0.03,0-0.05,0.02-0.05,0.05c-0.03,0.03-0.07,0.09-0.1,0.19c-0.13,0.28-0.1,0.53,0.1,0.75c0.19,0.21,0.4,0.32,0.63,0.33
				c-2.19,0-4.42,0.03-6.68,0.09c-0.13,0-0.25,0.02-0.35,0.05c-0.07,0.06-0.1,0.11-0.1,0.14v-3.22c0.17,0.37,0.45,0.56,0.85,0.56
				c0.67,0.03,1.03-0.23,1.1-0.79c0.03-0.16,0-0.33-0.1-0.51C2.87,14.16,2.8,14.1,2.77,14c-0.07-0.03-0.13-0.08-0.2-0.14l-0.05-0.05
				c-0.1-0.13-0.25-0.19-0.45-0.19c-0.27-0.09-0.52-0.06-0.75,0.09c-0.03,0.06-0.05,0.11-0.05,0.14c-0.03,0-0.05,0.01-0.05,0.05
				l-0.1,0.05v-3.27h0.1V3.4h15.3c-0.03,0-0.07,0.02-0.1,0.05c-0.03,0.03-0.05,0.06-0.05,0.09c-0.07,0-0.1,0.02-0.1,0.05
				c-0.03,0.06-0.07,0.12-0.1,0.19c-0.13,0.31-0.1,0.56,0.1,0.75c0.2,0.22,0.43,0.33,0.7,0.33c0.5-0.06,0.78-0.33,0.85-0.79
				c0.03-0.16-0.02-0.33-0.15-0.51c-0.03-0.06-0.08-0.11-0.15-0.14h1.35c-0.07,0.09-0.02,0.23,0.15,0.42
				c0.23,0.22,0.47,0.33,0.7,0.33c0.37-0.31,0.62-0.56,0.75-0.75h3.2c-0.03,0-0.07,0.02-0.1,0.05c-0.03,0.03-0.05,0.06-0.05,0.09
				c-0.07,0-0.1,0.02-0.1,0.05l-0.05,0.09c-0.03,0.03-0.05,0.06-0.05,0.09c-0.13,0.31-0.1,0.56,0.1,0.75c0.3,0.25,0.63,0.39,1,0.42
				c1.13-0.19,1.33-0.65,0.6-1.4c-0.03-0.06-0.1-0.11-0.2-0.14h9.95c-0.03,0.13-0.03,0.25,0,0.37c0.03,0.25,0.2,0.44,0.5,0.56
				c0.03,0,0.07,0,0.1,0c0.1,0,0.17,0.02,0.2,0.05c0.73-0.25,1.02-0.58,0.85-0.98h21.55c-0.03,0.03-0.07,0.08-0.1,0.14
				c-0.13,0.31-0.1,0.56,0.1,0.75c0.23,0.22,0.48,0.33,0.75,0.33c0.47-0.06,0.73-0.33,0.8-0.79c0.03-0.16,0-0.3-0.1-0.42h3.9
				c0,0.06,0.03,0.13,0.1,0.19c0.2,0.25,0.43,0.37,0.7,0.37c0.4-0.09,0.68-0.28,0.85-0.56h8.35v22.23H39.67c0-0.03,0-0.09,0-0.19
				c0.03-0.16,0-0.33-0.1-0.51c-0.2-0.19-0.45-0.28-0.75-0.28c-0.2,0-0.38,0.06-0.55,0.19c-0.03,0.03-0.05,0.06-0.05,0.09
				c-0.03,0-0.05,0.03-0.05,0.09c-0.03,0.03-0.08,0.08-0.15,0.14c-0.07,0.16-0.08,0.31-0.05,0.47H24.12c0.07-0.09,0.1-0.19,0.1-0.28
				c0.03-0.13,0-0.28-0.1-0.47c-0.07,0-0.1-0.02-0.1-0.05c-0.07-0.13-0.17-0.2-0.3-0.23c-0.1-0.03-0.22-0.05-0.35-0.05
				c-0.2,0-0.38,0.05-0.55,0.14c-0.03,0.06-0.05,0.11-0.05,0.14c-0.03,0-0.05,0.02-0.05,0.05c-0.03,0.03-0.08,0.09-0.15,0.19
				c-0.1,0.22-0.1,0.4,0,0.56H1.12v-6.4c0.1,0.06,0.18,0.09,0.25,0.09c0,0.19,0.07,0.34,0.2,0.47c0.2,0.22,0.43,0.33,0.7,0.33
				c0.47-0.06,0.73-0.28,0.8-0.65c0.33,0,0.68-0.02,1.05-0.05c-0.07,0.06-0.1,0.11-0.1,0.14c0,0.12,0,0.23,0,0.33
				c0,0.06,0.03,0.12,0.1,0.19c0,0.03,0.02,0.05,0.05,0.05c0,0.06,0.02,0.11,0.05,0.14c0,0.03,0.02,0.05,0.05,0.05
				c0.1,0.06,0.18,0.13,0.25,0.19c0.13,0.06,0.25,0.09,0.35,0.09c0.83-0.31,1.07-0.7,0.7-1.17c1.3,0,2.58-0.05,3.85-0.14
				c0.7-0.03,0.95-0.33,0.75-0.89c0-0.09-0.02-0.17-0.05-0.23l-0.1-0.05c-0.13-0.16-0.33-0.23-0.6-0.23
				C9.02,17.88,8.63,17.88,8.27,17.88z M14.52,10.5c0.2,0.25,0.43,0.37,0.7,0.37c1.2-1.06,0.98-1.37-0.65-0.93
				C14.3,10.03,14.28,10.22,14.52,10.5z M16.97,5.65c-0.3,0.06-0.33,0.25-0.1,0.56c0.23,0.22,0.48,0.33,0.75,0.33
				C18.82,5.47,18.6,5.18,16.97,5.65z M23.27,7.56c1.2-1.06,1-1.35-0.6-0.89c-0.33,0.06-0.37,0.25-0.1,0.56
				C22.77,7.45,23,7.56,23.27,7.56z M19.82,10.41c0.2,0.22,0.42,0.33,0.65,0.33c1.2-1.06,1-1.35-0.6-0.89
				C19.57,9.91,19.55,10.1,19.82,10.41z M21.07,8.21c-0.13,0.28-0.08,0.51,0.15,0.7c0.2,0.25,0.42,0.37,0.65,0.37
				c0.53-0.09,0.82-0.36,0.85-0.79c0.03-0.16-0.02-0.33-0.15-0.51c-0.2-0.19-0.43-0.28-0.7-0.28c-0.2,0-0.38,0.05-0.55,0.14
				c-0.03,0.03-0.05,0.08-0.05,0.14c-0.03,0-0.05,0.02-0.05,0.05C21.15,8.06,21.1,8.12,21.07,8.21z M22.42,9.66
				c-0.03,0.03-0.05,0.06-0.05,0.09c-0.07,0-0.1,0.03-0.1,0.09c-0.03,0.03-0.07,0.08-0.1,0.14c-0.03,0.06-0.05,0.13-0.05,0.19
				c0,0.12,0,0.23,0,0.33c0-0.03,0.02-0.08,0.05-0.14c0.03-0.09,0.07-0.16,0.1-0.19c0-0.03,0.03-0.05,0.1-0.05
				c0-0.03,0.02-0.08,0.05-0.14c0.2-0.09,0.4-0.14,0.6-0.14c0.27,0,0.48,0.09,0.65,0.28l0.05,0.05c-0.07-0.16-0.22-0.33-0.45-0.51
				C23,9.47,22.72,9.47,22.42,9.66z M6.52,3.73c-0.2,0-0.38,0.05-0.55,0.14C5.93,3.93,5.92,3.98,5.92,4.01
				c-0.03,0-0.05,0.02-0.05,0.05L5.82,4.1c-0.07,0.03-0.1,0.08-0.1,0.14c-0.07,0.19-0.07,0.37,0,0.56c0.17,0.34,0.43,0.51,0.8,0.51
				c0.67,0.03,1.03-0.23,1.1-0.79c0.03-0.16,0-0.33-0.1-0.51C7.22,3.79,6.88,3.7,6.52,3.73z M5.97,6.35c0.2,0.22,0.43,0.33,0.7,0.33
				c1.2-1.06,0.98-1.37-0.65-0.93C5.75,5.83,5.73,6.03,5.97,6.35z M6.57,10.55c0.07,0.53,0.4,0.83,1,0.89
				c1.63-0.78,1.47-1.29-0.5-1.54C6.7,9.86,6.53,10.08,6.57,10.55z M12.17,8.59c-0.3,0.06-0.32,0.25-0.05,0.56
				c0.23,0.22,0.47,0.33,0.7,0.33C14.05,8.42,13.83,8.12,12.17,8.59z M12.77,14.71h0.05c0.5-0.06,0.77-0.33,0.8-0.79
				c0.03-0.16,0-0.33-0.1-0.51c-0.17-0.19-0.4-0.28-0.7-0.28c-0.2,0-0.4,0.06-0.6,0.19c-0.03,0.03-0.05,0.06-0.05,0.09
				c-0.03,0-0.05,0.02-0.05,0.05c-0.07,0.03-0.12,0.09-0.15,0.19c-0.07,0.22-0.07,0.4,0,0.56h-0.05c-0.2-0.03-0.38,0-0.55,0.09
				c-0.03,0.06-0.07,0.12-0.1,0.19l-0.05,0.05c-0.07,0.06-0.1,0.11-0.1,0.14c-0.03,0.16-0.05,0.28-0.05,0.37
				c0,0.22,0.02,0.44,0.05,0.65c0,0.03,0.03,0.05,0.1,0.05c0,0.03,0.02,0.06,0.05,0.09c0,0.03,0.02,0.05,0.05,0.05
				c0.13,0.16,0.27,0.23,0.4,0.23c0.1,0.03,0.17,0.05,0.2,0.05c0.57,0,0.88-0.22,0.95-0.65c0.07-0.19,0.05-0.36-0.05-0.51
				C12.82,14.86,12.8,14.77,12.77,14.71z M6.42,16.53l-0.05-0.05v-0.09c-0.07-0.03-0.12-0.08-0.15-0.14
				c-0.07-0.09-0.13-0.16-0.2-0.19c-0.5-0.31-1.05-0.33-1.65-0.05l-0.1,0.05v0.05c-0.03,0-0.05,0.02-0.05,0.05
				c-0.03,0.06-0.07,0.12-0.1,0.19c-0.17,0.53,0.03,0.87,0.6,1.03c0.07,0.03,0.15,0.05,0.25,0.05c0.2,0.22,0.43,0.33,0.7,0.33
				c0.5-0.06,0.77-0.33,0.8-0.79C6.5,16.82,6.48,16.68,6.42,16.53z M14.37,20.5c-0.07-0.12-0.13-0.26-0.2-0.42
				c-0.2-0.19-0.45-0.28-0.75-0.28c-0.2,0-0.38,0.06-0.55,0.19c-0.03,0.03-0.05,0.06-0.05,0.09c-0.03,0-0.05,0.02-0.05,0.05
				c-0.03,0.06-0.07,0.12-0.1,0.19c-0.13,0.31-0.1,0.56,0.1,0.75c0.07,0.06,0.13,0.11,0.2,0.14c0,0.09,0.02,0.17,0.05,0.23
				c0.13,0.28,0.33,0.47,0.6,0.56c0.03,0,0.07,0,0.1,0c0.1,0,0.17,0.02,0.2,0.05C15.05,21.66,15.2,21.15,14.37,20.5z M8.67,12.56
				c-0.2,0-0.38,0.06-0.55,0.19c-0.07,0.03-0.1,0.06-0.1,0.09c-0.03,0-0.05,0.02-0.05,0.05c-0.03,0.03-0.07,0.09-0.1,0.19
				c-0.13,0.28-0.1,0.53,0.1,0.75c0.2,0.22,0.43,0.33,0.7,0.33c0.5-0.09,0.78-0.36,0.85-0.79c0.03-0.16-0.02-0.33-0.15-0.51
				C9.2,12.65,8.97,12.56,8.67,12.56z M7.37,14.1c-0.17,0.03-0.3,0.06-0.4,0.09c-0.07,0.03-0.1,0.06-0.1,0.09
				c-0.03,0-0.05,0.03-0.05,0.09l-0.05,0.05c-0.03,0.03-0.05,0.06-0.05,0.09c-0.03,0.06-0.05,0.12-0.05,0.19s0,0.14,0,0.23
				c0,0.09,0.02,0.19,0.05,0.28c0,0.03,0.02,0.05,0.05,0.05c0,0.03,0.02,0.06,0.05,0.09c0,0.06,0.02,0.09,0.05,0.09
				c0.1,0.06,0.18,0.11,0.25,0.14c0.17,0.09,0.32,0.14,0.45,0.14c0.6,0.03,0.93-0.23,1-0.79c0.07-0.16,0.03-0.33-0.1-0.51
				C8.17,14.14,7.8,14.04,7.37,14.1z M12.87,17.55c-0.03,0.03-0.07,0.08-0.1,0.14c-0.07,0.22-0.07,0.45,0,0.7
				c0.13,0.25,0.33,0.44,0.6,0.56c0.03,0,0.08,0,0.15,0c0.07,0,0.12,0.02,0.15,0.05c1.07-0.37,1.15-0.9,0.25-1.59
				c-0.27-0.22-0.57-0.23-0.9-0.05c-0.03,0.03-0.05,0.06-0.05,0.09C12.9,17.46,12.87,17.49,12.87,17.55z M20.97,14.1v0.05
				c0.2,0.22,0.42,0.33,0.65,0.33c0.8-0.68,0.98-1.06,0.55-1.12c0-0.12-0.05-0.26-0.15-0.42c-0.13-0.19-0.35-0.28-0.65-0.28
				c-0.2,0-0.38,0.06-0.55,0.19c-0.07,0.03-0.1,0.06-0.1,0.09c-0.03,0-0.05,0.03-0.05,0.09c-0.07,0.03-0.12,0.08-0.15,0.14
				c-0.1,0.31-0.05,0.56,0.15,0.75C20.77,13.97,20.87,14.04,20.97,14.1z M21.32,11.16c-0.17-0.19-0.42-0.28-0.75-0.28
				c-0.2,0-0.38,0.05-0.55,0.14c-0.03,0.03-0.05,0.08-0.05,0.14c-0.03,0-0.05,0.02-0.05,0.05c-0.03,0.03-0.07,0.08-0.1,0.14
				c-0.13,0.31-0.1,0.56,0.1,0.75c0.2,0.22,0.42,0.33,0.65,0.33c0.53-0.06,0.82-0.33,0.85-0.79C21.48,11.5,21.45,11.34,21.32,11.16z
				 M19.22,14.52c-0.07,0.06-0.1,0.11-0.1,0.14c-0.07,0-0.1,0.02-0.1,0.05c-0.03,0.03-0.08,0.09-0.15,0.19
				c-0.1,0.28-0.05,0.51,0.15,0.7c0.23,0.25,0.47,0.37,0.7,0.37c0.5-0.09,0.77-0.36,0.8-0.79c0.03-0.16,0-0.33-0.1-0.51
				c-0.17-0.19-0.4-0.28-0.7-0.28C19.52,14.38,19.35,14.42,19.22,14.52z M21.42,16.34c0,0.03,0.03,0.05,0.1,0.05
				c0,0.06,0.02,0.11,0.05,0.14c0,0.03,0.02,0.05,0.05,0.05c0.07,0.06,0.15,0.13,0.25,0.19c0.1,0.06,0.22,0.09,0.35,0.09
				c1-0.37,1.1-0.89,0.3-1.54c-0.27-0.19-0.55-0.19-0.85,0c-0.03,0.03-0.05,0.08-0.05,0.14c-0.03,0-0.05,0.02-0.05,0.05
				c-0.03,0.03-0.08,0.09-0.15,0.19c-0.03,0.03-0.05,0.08-0.05,0.14c0,0.13,0,0.23,0,0.33C21.37,16.21,21.38,16.28,21.42,16.34z
				 M17.22,15.87c-0.07,0-0.1,0.03-0.1,0.09l-0.05,0.05c-0.03,0.03-0.05,0.06-0.05,0.09c-0.03,0.09-0.03,0.16,0,0.19
				c-0.17,0.03-0.33,0.09-0.5,0.19c-0.03,0.03-0.05,0.06-0.05,0.09c-0.03,0-0.05,0.02-0.05,0.05l-0.05,0.05
				c-0.07,0.06-0.1,0.11-0.1,0.14s-0.02,0.05-0.05,0.05c0,0.06,0,0.12,0,0.19c0,0.22,0.08,0.42,0.25,0.61
				c0.2,0.16,0.4,0.23,0.6,0.23c0.1,0.03,0.18,0.05,0.25,0.05c0.37,0.06,0.68,0.08,0.95,0.05c0.2-0.03,0.38-0.11,0.55-0.23
				c0.2-0.06,0.37-0.17,0.5-0.33c0.13-0.19,0.2-0.37,0.2-0.56c0-0.03,0.02-0.11,0.05-0.23c0.03-0.22-0.02-0.42-0.15-0.61
				c-0.4-0.28-0.87-0.44-1.4-0.47c-0.23,0-0.48,0.08-0.75,0.23C17.23,15.81,17.22,15.84,17.22,15.87z M20.67,20.64v0.05
				c0,0.06,0.02,0.09,0.05,0.09c0.1,0.06,0.2,0.11,0.3,0.14c0.13,0.03,0.25,0.08,0.35,0.14c0.2,0,0.38-0.06,0.55-0.19
				c0.13-0.06,0.23-0.13,0.3-0.19c0.5-0.81,0.2-1.2-0.9-1.17c-0.33,0-0.6,0.16-0.8,0.47c-0.17-0.19-0.38-0.28-0.65-0.28
				c-0.2,0-0.38,0.05-0.55,0.14c-0.03,0.03-0.05,0.08-0.05,0.14c-0.03,0-0.05,0.01-0.05,0.05c-0.07,0.03-0.13,0.09-0.2,0.19
				c-0.13,0.28-0.07,0.51,0.2,0.7c0.2,0.25,0.42,0.37,0.65,0.37C20.27,21.2,20.53,20.98,20.67,20.64z M21.67,21.57
				c-0.1,0.28-0.05,0.51,0.15,0.7c0.2,0.25,0.43,0.37,0.7,0.37c0.5-0.09,0.77-0.36,0.8-0.79c0.03-0.16,0-0.33-0.1-0.51
				c-0.17-0.19-0.4-0.28-0.7-0.28c-0.23,0-0.43,0.05-0.6,0.14c-0.03,0.06-0.05,0.11-0.05,0.14c-0.03,0-0.05,0.02-0.05,0.05
				C21.75,21.42,21.7,21.48,21.67,21.57z M2.67,22.97c0,0.12,0,0.23,0,0.33c0,0.03,0.02,0.09,0.05,0.19c0,0.03,0.02,0.05,0.05,0.05
				c0,0.03,0.02,0.06,0.05,0.09c0,0.06,0.02,0.09,0.05,0.09c0.1,0.06,0.18,0.11,0.25,0.14C3.25,23.95,3.38,24,3.52,24
				c1-0.37,1.07-0.89,0.2-1.54c-0.23-0.19-0.48-0.19-0.75,0c-0.07,0.03-0.1,0.06-0.1,0.09c-0.03,0-0.05,0.03-0.05,0.09
				c-0.03,0.03-0.07,0.08-0.1,0.14C2.68,22.82,2.67,22.88,2.67,22.97z M10.12,22.36c-0.3,0.19-0.55,0.39-0.75,0.61
				c-0.17,0-0.35,0.06-0.55,0.19c-0.03,0.03-0.05,0.06-0.05,0.09c-0.03,0-0.05,0.02-0.05,0.05c-0.03,0.03-0.08,0.09-0.15,0.19
				c-0.1,0.28-0.05,0.53,0.15,0.75c0.23,0.22,0.47,0.33,0.7,0.33c0.1,0,0.18-0.02,0.25-0.05c0.03,0.03,0.08,0.05,0.15,0.05
				c0.13,0,0.28-0.05,0.45-0.14c0.1-0.03,0.23-0.08,0.4-0.14c1-0.75,1.05-1.39,0.15-1.92C10.58,22.21,10.35,22.21,10.12,22.36z
				 M58.77,6.44c0.2,0.22,0.42,0.33,0.65,0.33c0.53-0.06,0.82-0.33,0.85-0.79c0.03-0.16,0-0.33-0.1-0.51
				C60,5.27,59.75,5.18,59.42,5.18c-0.2,0-0.38,0.06-0.55,0.19c-0.03,0.03-0.05,0.06-0.05,0.09c-0.03,0-0.05,0.03-0.05,0.09
				c-0.03,0.03-0.07,0.08-0.1,0.14C58.53,6,58.57,6.25,58.77,6.44z M54.27,5.92c-0.2,0.03-0.43,0.09-0.7,0.19
				c-0.3,0.06-0.32,0.25-0.05,0.56C53.72,6.89,53.93,7,54.17,7c0.2-0.19,0.4-0.36,0.6-0.51c0.13,0.13,0.27,0.19,0.4,0.19
				c0.5-0.09,0.77-0.36,0.8-0.79c0.03-0.16,0-0.33-0.1-0.51c-0.17-0.19-0.4-0.28-0.7-0.28c-0.2,0-0.4,0.06-0.6,0.19
				c-0.03,0.03-0.05,0.06-0.05,0.09c-0.03,0-0.05,0.02-0.05,0.05c-0.03,0.03-0.08,0.09-0.15,0.19C54.28,5.69,54.27,5.8,54.27,5.92z
				 M54.87,7.61c-0.03,0.06-0.05,0.11-0.05,0.14c-0.03,0-0.05,0.02-0.05,0.05c-0.07,0.03-0.13,0.09-0.2,0.19
				c-0.1,0.28-0.03,0.51,0.2,0.7c0.2,0.25,0.42,0.37,0.65,0.37c0.5-0.09,0.77-0.36,0.8-0.79c0.03-0.16,0-0.33-0.1-0.51
				c-0.17-0.19-0.4-0.28-0.7-0.28C55.22,7.47,55.03,7.51,54.87,7.61z M60.47,6.02c0.13,0.34,0.37,0.51,0.7,0.51
				c1.43-0.96,1.27-1.29-0.5-0.98C60.37,5.58,60.3,5.74,60.47,6.02z M60.97,10.27c0.5-0.06,0.78-0.33,0.85-0.79
				c0.03-0.13-0.02-0.28-0.15-0.47c-0.2-0.22-0.43-0.33-0.7-0.33c-0.2,0-0.38,0.06-0.55,0.19c-0.07,0.03-0.1,0.08-0.1,0.14
				c-0.03,0-0.05,0.02-0.05,0.05c-0.03,0.03-0.07,0.08-0.1,0.14c-0.13,0.31-0.1,0.56,0.1,0.75C60.47,10.16,60.7,10.27,60.97,10.27z
				 M61.32,10.55c-0.03,0-0.05,0.03-0.05,0.09c-0.07,0.03-0.12,0.08-0.15,0.14c-0.1,0.37,0,0.68,0.3,0.93
				c0.3,0.16,0.57,0.25,0.8,0.28c1.07-0.44,1.13-0.95,0.2-1.54c-0.33-0.19-0.68-0.19-1.05,0C61.33,10.49,61.32,10.52,61.32,10.55z
				 M44.27,4.57c-0.03,0.03-0.05,0.06-0.05,0.09c-0.03,0-0.05,0.03-0.05,0.09c-0.03,0.03-0.08,0.08-0.15,0.14
				c-0.1,0.31-0.05,0.56,0.15,0.75c0.2,0.22,0.43,0.33,0.7,0.33c0.5-0.06,0.77-0.33,0.8-0.79c0.03-0.16,0-0.33-0.1-0.51
				c-0.17-0.19-0.4-0.28-0.7-0.28C44.67,4.38,44.47,4.45,44.27,4.57z M48.72,5.36c-0.13,0.31-0.1,0.56,0.1,0.75
				c0.2,0.22,0.43,0.33,0.7,0.33c0.5-0.06,0.77-0.33,0.8-0.79c0.07-0.16,0.03-0.33-0.1-0.51c-0.17-0.19-0.4-0.28-0.7-0.28
				c-0.23,0-0.42,0.06-0.55,0.19c-0.07,0.03-0.1,0.06-0.1,0.09c-0.03,0-0.05,0.02-0.05,0.05C48.78,5.24,48.75,5.3,48.72,5.36z
				 M34.27,9.29c-0.2,0-0.38,0.05-0.55,0.14c-0.03,0.03-0.05,0.08-0.05,0.14c-0.03,0-0.05,0.02-0.05,0.05
				c-0.03,0.03-0.07,0.08-0.1,0.14c-0.13,0.31-0.1,0.56,0.1,0.75c0.2,0.25,0.42,0.37,0.65,0.37c0.53-0.09,0.82-0.36,0.85-0.79
				c0.03-0.16,0-0.33-0.1-0.51C34.85,9.38,34.6,9.29,34.27,9.29z M40.37,9.05c-0.1-0.12-0.22-0.25-0.35-0.37
				c-0.23-0.22-0.53-0.23-0.9-0.05c-0.03,0.03-0.05,0.08-0.05,0.14c-0.03,0-0.05,0.02-0.05,0.05c-0.03,0.03-0.08,0.09-0.15,0.19
				c-0.03,0.22-0.03,0.44,0,0.65c-0.33-0.13-0.75-0.13-1.25,0c-0.2,0.03-0.4,0.11-0.6,0.23c-0.23,0.12-0.48,0.23-0.75,0.33
				c-0.03,0.03-0.05,0.08-0.05,0.14l-0.05,0.05c-0.03,0.03-0.1,0.08-0.2,0.14c-0.1,0.31-0.03,0.58,0.2,0.79
				c0.13,0.16,0.3,0.23,0.5,0.23c0.07,0.03,0.12,0.05,0.15,0.05c0.93-0.12,1.77-0.42,2.5-0.89c0.2-0.06,0.3-0.19,0.3-0.37
				c0-0.06,0-0.11,0-0.14c0.03,0,0.07,0.02,0.1,0.05c0.1-0.03,0.18-0.06,0.25-0.09v0.05c0.2,0.28,0.45,0.42,0.75,0.42
				c0.6,0,0.92-0.26,0.95-0.79c0.03-0.16,0-0.33-0.1-0.51c-0.1-0.09-0.18-0.17-0.25-0.23C41.32,8.91,41,8.9,40.37,9.05z M45.32,8.87
				c0.27-0.44-0.18-0.5-1.35-0.19c-0.2,0.06-0.25,0.17-0.15,0.33c-0.07,0.03-0.12,0.08-0.15,0.14l-0.05,0.05
				c-0.03,0.06-0.05,0.11-0.05,0.14c-0.1,0.22-0.08,0.44,0.05,0.65c0.03,0.09,0.1,0.16,0.2,0.19c-0.17,0.03-0.33,0.09-0.5,0.19
				c-0.03,0.03-0.05,0.06-0.05,0.09c-0.07,0-0.1,0.02-0.1,0.05l-0.05,0.05c-0.03,0.06-0.05,0.11-0.05,0.14
				c-0.03,0.16-0.03,0.28,0,0.37c0.07,0.44,0.33,0.67,0.8,0.7c0.73,0.12,1.17-0.11,1.3-0.7c0.07-0.22,0.03-0.42-0.1-0.61
				c-0.03-0.03-0.05-0.06-0.05-0.09c0.4-0.09,0.62-0.34,0.65-0.75c0.03-0.16,0-0.33-0.1-0.51C45.47,9.04,45.38,8.96,45.32,8.87z
				 M52.72,10.36c-0.03,0.03-0.05,0.06-0.05,0.09c-0.07,0-0.1,0.02-0.1,0.05l-0.05,0.05c-0.03,0.06-0.05,0.11-0.05,0.14
				c-0.1,0.19-0.1,0.36,0,0.51c0.13,0.37,0.42,0.56,0.85,0.56c0.6,0.06,0.98-0.17,1.15-0.7c0.03-0.22-0.02-0.42-0.15-0.61
				c-0.07-0.12-0.18-0.22-0.35-0.28c0.23-0.31,0.1-0.67-0.4-1.07c-0.27-0.19-0.55-0.19-0.85,0c-0.03,0.03-0.05,0.06-0.05,0.09
				c-0.07,0-0.1,0.03-0.1,0.09c-0.03,0.03-0.07,0.08-0.1,0.14c-0.03,0.03-0.05,0.09-0.05,0.19c0,0.03,0,0.08,0,0.14
				c0-0.03-0.03-0.06-0.1-0.09c-0.2-0.19-0.45-0.28-0.75-0.28c-0.27,0-0.47,0.06-0.6,0.19c-0.07,0.03-0.12,0.08-0.15,0.14
				l-0.05,0.05c-0.03,0.06-0.05,0.11-0.05,0.14c-0.1,0.22-0.08,0.44,0.05,0.65c0.2,0.28,0.47,0.42,0.8,0.42
				c0.57,0,0.87-0.26,0.9-0.79v-0.05c0,0.03,0.02,0.05,0.05,0.05c0,0.03,0.02,0.06,0.05,0.09c0,0.06,0.03,0.09,0.1,0.09H52.72z
				 M51.37,9.05c0.2,0.22,0.42,0.33,0.65,0.33c1.23-1.06,1.03-1.35-0.6-0.89C51.12,8.56,51.1,8.74,51.37,9.05z M51.82,5.32
				c1.2-1.06,0.97-1.37-0.7-0.93c-0.27,0.09-0.28,0.28-0.05,0.56C51.3,5.19,51.55,5.32,51.82,5.32z M49.57,13.91
				c-0.03,0.03-0.08,0.09-0.15,0.19c-0.03,0.22-0.03,0.44,0,0.65c0.07,0.22,0.22,0.37,0.45,0.47c0.03,0.03,0.07,0.06,0.1,0.09
				c0.03,0,0.08,0,0.15,0c0.07,0,0.12,0.01,0.15,0.05c0.13-0.03,0.23-0.08,0.3-0.14c0.73-0.34,0.73-0.81,0-1.4
				c-0.23-0.25-0.52-0.28-0.85-0.09c-0.03,0.06-0.05,0.11-0.05,0.14C49.6,13.87,49.57,13.88,49.57,13.91z M49.57,15.22
				c-0.3-0.19-0.58-0.19-0.85,0c-0.03,0.03-0.05,0.06-0.05,0.09c-0.07,0-0.1,0.01-0.1,0.05c-0.03,0.06-0.07,0.13-0.1,0.19
				c-0.13,0.34-0.07,0.62,0.2,0.84c0.2,0.25,0.43,0.37,0.7,0.37c1.07-0.44,1.17-0.95,0.3-1.54H49.57z M52.17,14.66
				c-0.03,0-0.05,0.02-0.05,0.05c-0.07,0.03-0.12,0.09-0.15,0.19c-0.03,0.13-0.05,0.25-0.05,0.37c0,0.12,0.07,0.23,0.2,0.33
				c0.2,0.25,0.42,0.37,0.65,0.37c0.5-0.09,0.78-0.33,0.85-0.7c0-0.03,0-0.06,0-0.09c0.03-0.16,0-0.33-0.1-0.51
				c-0.17-0.19-0.42-0.28-0.75-0.28c-0.2,0-0.38,0.05-0.55,0.14C52.18,14.58,52.17,14.63,52.17,14.66z M53.42,16.39
				c0,0.19,0.07,0.34,0.2,0.47c0.2,0.22,0.42,0.33,0.65,0.33c0.1,0,0.17-0.02,0.2-0.05c0.4-0.13,0.62-0.38,0.65-0.75
				c0.03-0.16,0-0.33-0.1-0.51c-0.17-0.19-0.42-0.28-0.75-0.28c-0.2,0-0.38,0.06-0.55,0.19c-0.03,0.03-0.05,0.06-0.05,0.09
				c-0.03,0-0.05,0.03-0.05,0.09c-0.03,0.03-0.07,0.08-0.1,0.14C53.45,16.23,53.42,16.32,53.42,16.39z M47.37,11.86
				c0,0.13,0,0.25,0,0.38c0,0.03,0.02,0.08,0.05,0.14c0,0.03,0.03,0.05,0.1,0.05c0,0.06,0.02,0.11,0.05,0.14
				c0,0.03,0.02,0.05,0.05,0.05c0.07,0.09,0.15,0.16,0.25,0.19c0.2,0.06,0.33,0.09,0.4,0.09c1.03-0.37,1.12-0.89,0.25-1.54
				c-0.23-0.19-0.52-0.19-0.85,0c-0.03,0.06-0.05,0.11-0.05,0.14c-0.03,0-0.05,0.02-0.05,0.05c-0.03,0.03-0.08,0.09-0.15,0.19
				C47.38,11.75,47.37,11.79,47.37,11.86z M46.17,14.42c0.1,0,0.18,0.02,0.25,0.05c1.23-0.5,1.35-1.04,0.35-1.63
				c-0.2-0.15-0.45-0.15-0.75,0c-0.7,0.53-0.7,1.06,0,1.59C46.08,14.42,46.13,14.42,46.17,14.42z M44.57,13.16
				c-0.77-0.69-1.62-0.9-2.55-0.65c-0.03,0.03-0.05,0.06-0.05,0.09c-0.03,0-0.05,0.02-0.05,0.05c-0.03,0.06-0.07,0.12-0.1,0.19
				c-0.07,0.75,0.38,1.26,1.35,1.54c0.27,0.03,0.5,0.06,0.7,0.09c0.53-0.06,0.82-0.33,0.85-0.79C44.75,13.52,44.7,13.35,44.57,13.16
				z M48.32,17.93c-0.3-0.25-0.65-0.34-1.05-0.28c-0.33,0.06-0.65,0.16-0.95,0.28c-0.03,0.03-0.05,0.06-0.05,0.09
				c-0.07,0-0.1,0.03-0.1,0.09l-0.05,0.05c-0.07,0.03-0.1,0.06-0.1,0.09c-0.07,0.19-0.07,0.36,0,0.51c0.17,0.37,0.45,0.56,0.85,0.56
				c0.77,0.06,1.28-0.17,1.55-0.7C48.52,18.38,48.48,18.15,48.32,17.93z M49.27,18.21c0,0.19,0.05,0.34,0.15,0.47
				c0.27,0.22,0.52,0.33,0.75,0.33c0.47-0.06,0.73-0.33,0.8-0.79c0.03-0.15-0.02-0.33-0.15-0.51c-0.07-0.06-0.15-0.14-0.25-0.23
				c0.07-0.09,0.03-0.23-0.1-0.42c-0.2-0.19-0.47-0.28-0.8-0.28c-0.23,0-0.43,0.05-0.6,0.14c-0.03,0.03-0.07,0.09-0.1,0.19
				l-0.1,0.05c-0.03,0.03-0.05,0.06-0.05,0.09c-0.07,0.25-0.05,0.48,0.05,0.7C49,18.08,49.13,18.18,49.27,18.21z M47.32,21.94
				c-0.03,0-0.1,0-0.2,0c-0.2,0-0.38,0.06-0.55,0.19c-0.03,0.03-0.05,0.06-0.05,0.09c-0.03,0-0.05,0.02-0.05,0.05
				c-0.03,0.06-0.08,0.12-0.15,0.19c-0.13,0.31-0.08,0.56,0.15,0.75c0.2,0.22,0.42,0.33,0.65,0.33c0.5-0.06,0.78-0.33,0.85-0.79
				c0.03-0.16-0.02-0.33-0.15-0.51l-0.1-0.05c0.07,0,0.12,0,0.15,0c0.53-0.09,0.82-0.36,0.85-0.79c0.03-0.16-0.02-0.33-0.15-0.51
				c-0.17-0.19-0.4-0.28-0.7-0.28c-0.2,0-0.38,0.06-0.55,0.19c-0.03,0.03-0.05,0.06-0.05,0.09c-0.07,0-0.1,0.02-0.1,0.05
				c-0.03,0.03-0.07,0.09-0.1,0.19c-0.13,0.31-0.1,0.56,0.1,0.75C47.23,21.88,47.28,21.91,47.32,21.94z M62.27,13.3
				c-0.1,0.28-0.05,0.51,0.15,0.7c0.2,0.25,0.42,0.37,0.65,0.37c0.53-0.09,0.82-0.36,0.85-0.79c0.03-0.16,0-0.33-0.1-0.51
				c-0.17-0.19-0.42-0.28-0.75-0.28c-0.2,0-0.38,0.05-0.55,0.14c-0.03,0.06-0.05,0.11-0.05,0.14c-0.03,0-0.05,0.02-0.05,0.05
				C62.35,13.15,62.3,13.21,62.27,13.3z M60.17,13.3c-0.03,0.03-0.08,0.08-0.15,0.14l-0.05,0.05c-0.03,0.06-0.05,0.11-0.05,0.14
				c-0.13,0.22-0.12,0.44,0.05,0.65c0.2,0.28,0.45,0.42,0.75,0.42c0.6,0,0.92-0.26,0.95-0.79c0.03-0.16,0-0.33-0.1-0.51
				c-0.27-0.19-0.55-0.28-0.85-0.28C60.52,13.12,60.33,13.18,60.17,13.3z M59.27,13.49c-0.17-0.19-0.4-0.28-0.7-0.28
				c-0.2,0-0.4,0.06-0.6,0.19c-0.03,0.03-0.05,0.06-0.05,0.09c-0.03,0-0.05,0.03-0.05,0.09c-0.03,0.03-0.08,0.08-0.15,0.14
				c-0.1,0.31-0.05,0.56,0.15,0.75c0.23,0.22,0.47,0.33,0.7,0.33c0.5-0.06,0.77-0.33,0.8-0.79C59.4,13.88,59.37,13.71,59.27,13.49z
				 M54.87,13.49c-0.07,0.22-0.07,0.39,0,0.51c0.13,0.41,0.4,0.61,0.8,0.61c0.67,0.06,1.07-0.17,1.2-0.7
				c0.07-0.22,0.03-0.42-0.1-0.61c-0.17-0.19-0.42-0.28-0.75-0.28c-0.3-0.06-0.6-0.02-0.9,0.14c-0.03,0.03-0.05,0.08-0.05,0.14
				c-0.03,0-0.05,0.02-0.05,0.05l-0.05,0.05C54.9,13.43,54.87,13.46,54.87,13.49z M57.97,17.37c-0.07,0.25,0,0.45,0.2,0.61
				c0.2,0.25,0.42,0.38,0.65,0.38c0.5-0.09,0.77-0.36,0.8-0.79c0.03-0.16,0-0.33-0.1-0.51c-0.07-0.06-0.1-0.11-0.1-0.14
				c0.17-0.34-0.3-0.36-1.4-0.05C57.75,16.92,57.73,17.09,57.97,17.37z M55.72,19.84c-0.1,0.38,0,0.69,0.3,0.93
				c0.3,0.13,0.57,0.22,0.8,0.28c1.1-0.5,1.15-1.01,0.15-1.54c-0.33-0.16-0.67-0.16-1,0c-0.03,0.03-0.05,0.06-0.05,0.09
				c-0.03,0-0.05,0.03-0.05,0.09C55.83,19.73,55.78,19.78,55.72,19.84z M59.72,17.69c-0.03,0.03-0.05,0.08-0.05,0.14
				c-0.03,0-0.05,0.02-0.05,0.05c-0.03,0.03-0.07,0.08-0.1,0.14c-0.13,0.31-0.1,0.56,0.1,0.75c0.23,0.22,0.47,0.33,0.7,0.33
				c0.5-0.06,0.77-0.31,0.8-0.75c0.03-0.16,0-0.33-0.1-0.51c-0.17-0.19-0.4-0.28-0.7-0.28C60.12,17.55,59.92,17.6,59.72,17.69z
				 M62.57,21.99c-0.03,0-0.05,0.02-0.05,0.05c-0.03,0.06-0.07,0.12-0.1,0.19c-0.13,0.31-0.1,0.56,0.1,0.75l0.05,0.05h-0.05
				c-0.03,0.03-0.05,0.08-0.05,0.14c-0.03,0-0.05,0.01-0.05,0.05c-0.07,0.03-0.12,0.08-0.15,0.14c-0.1,0.53,0.1,0.86,0.6,0.98
				c0.37,0.06,0.7,0.14,1,0.23c0.47-0.09,0.73-0.36,0.8-0.79c0.03-0.16-0.02-0.33-0.15-0.51c-0.2-0.16-0.4-0.26-0.6-0.33
				c0.07-0.13,0.1-0.27,0.1-0.42c0.07-0.16,0.03-0.33-0.1-0.51c-0.17-0.19-0.38-0.28-0.65-0.28s-0.47,0.06-0.6,0.19
				C62.6,21.93,62.57,21.96,62.57,21.99z M64.17,16.95c0.2,0.25,0.42,0.37,0.65,0.37c1.27-1.06,1.07-1.37-0.6-0.93
				C63.95,16.48,63.93,16.67,64.17,16.95z M36.22,5.74c0.13,0.09,0.25,0.14,0.35,0.14c0.57,0,0.88-0.27,0.95-0.79
				c0.03-0.16-0.02-0.33-0.15-0.51c-0.2-0.19-0.47-0.28-0.8-0.28c-0.2,0-0.4,0.06-0.6,0.19c-0.03,0.03-0.05,0.06-0.05,0.09
				c-0.13-0.03-0.25-0.05-0.35-0.05c-0.33-0.03-0.63,0.02-0.9,0.14c-0.07,0.06-0.1,0.11-0.1,0.14c-0.03,0-0.05,0.02-0.05,0.05
				L34.47,4.9c-0.03,0.03-0.05,0.08-0.05,0.14c-0.13,0.19-0.13,0.36,0,0.51c0.1,0.37,0.35,0.56,0.75,0.56
				C35.63,6.14,35.98,6.02,36.22,5.74z M38.47,6.48c0.17,0.19,0.37,0.28,0.6,0.28c1.27-1.06,1.08-1.35-0.55-0.89
				C38.18,5.94,38.17,6.14,38.47,6.48z M26.27,7.84c-0.07,0.03-0.12,0.08-0.15,0.14c-0.07,0.03-0.1,0.06-0.1,0.09
				c-0.03,0-0.05,0.02-0.05,0.05c-0.03,0.06-0.08,0.13-0.15,0.19c-0.13,0.31-0.08,0.56,0.15,0.75c0.2,0.22,0.43,0.33,0.7,0.33
				c0.47-0.06,0.72-0.33,0.75-0.79c0.07-0.16,0.03-0.33-0.1-0.51c0.83-0.84,0.53-1.04-0.9-0.61C26.15,7.53,26.1,7.65,26.27,7.84z
				 M29.92,6.53c1.3-1.12,1.1-1.49-0.6-1.12c-0.23,0.03-0.32,0.2-0.25,0.51C29.23,6.3,29.52,6.5,29.92,6.53z M25.92,9.99
				c-0.07,0-0.1,0.03-0.1,0.09c-0.07,0.03-0.12,0.08-0.15,0.14c-0.1,0.31-0.05,0.56,0.15,0.75c0.1,0.13,0.22,0.2,0.35,0.23
				c0.13,0.06,0.25,0.09,0.35,0.09c0.5-0.06,0.77-0.33,0.8-0.79c0.03-0.16-0.02-0.33-0.15-0.51c-0.13-0.19-0.35-0.28-0.65-0.28
				c-0.2,0-0.38,0.06-0.55,0.19C25.93,9.93,25.92,9.96,25.92,9.99z M29.17,9.61c-0.03,0.03-0.07,0.08-0.1,0.14
				c-0.13,0.31-0.1,0.56,0.1,0.75c0.27,0.25,0.52,0.37,0.75,0.37c0.5-0.09,0.77-0.36,0.8-0.79c0.03-0.16-0.02-0.33-0.15-0.51
				c0-0.06-0.02-0.09-0.05-0.09c-0.37,0-0.67-0.05-0.9-0.14c-0.07,0.03-0.15,0.06-0.25,0.09c-0.03,0.03-0.05,0.08-0.05,0.14
				C29.22,9.57,29.17,9.58,29.17,9.61z M33.02,13.82c0.43-0.06,0.67-0.33,0.7-0.79c0.07-0.15,0.03-0.33-0.1-0.51
				c-0.2-0.19-0.47-0.28-0.8-0.28c-0.23,0-0.43,0.05-0.6,0.14c-0.43-0.03-0.83,0.05-1.2,0.23l-0.15,0.05c0.1-0.25-0.33-0.25-1.3,0
				c-0.33,0.09-0.35,0.28-0.05,0.56c0.2,0.25,0.42,0.37,0.65,0.37c0.2-0.19,0.37-0.36,0.5-0.51c0,0.03,0,0.06,0,0.09
				c0,0.47,0.23,0.73,0.7,0.79c0.1,0.03,0.17,0.05,0.2,0.05s0.08,0,0.15,0l-0.05,0.09c-0.03,0.03-0.05,0.06-0.05,0.09
				c-0.07,0.22-0.05,0.45,0.05,0.7c0.03,0.03,0.08,0.06,0.15,0.09c0,0.06,0,0.14,0,0.23c-0.07,0.03-0.1,0.06-0.1,0.09
				c-0.07,0.25-0.03,0.48,0.1,0.7c0.2,0.25,0.43,0.37,0.7,0.37c0.6,0,0.93-0.27,1-0.79c0.03-0.09,0.03-0.2,0-0.33
				c0-0.03,0-0.06,0-0.09c0.03-0.16-0.02-0.33-0.15-0.51v-0.05c0-0.06,0-0.11,0-0.14c0.03-0.15,0-0.33-0.1-0.51
				C33.17,13.9,33.08,13.85,33.02,13.82z M27.37,12.42c0.23-0.19,0.32-0.37,0.25-0.56c-0.2,0.13-0.4,0.2-0.6,0.23
				c-0.23,0-0.45-0.11-0.65-0.33c-0.13-0.13-0.2-0.26-0.2-0.42l-0.05,0.09c-0.33,0.25-0.43,0.56-0.3,0.93c0,0.03,0.03,0.05,0.1,0.05
				c0,0.06,0.02,0.11,0.05,0.14c0,0.03,0.02,0.05,0.05,0.05c0.07,0.03,0.12,0.08,0.15,0.14c-0.03,0-0.05,0.02-0.05,0.05l-0.1,0.05
				c-0.03,0.03-0.05,0.06-0.05,0.09c-0.1,0.19-0.1,0.36,0,0.51c0.13,0.37,0.4,0.56,0.8,0.56c0.63,0.09,1.03-0.12,1.2-0.65
				c0.03-0.22,0-0.42-0.1-0.61C27.73,12.59,27.57,12.48,27.37,12.42z M26.47,16.15c-0.13,0.09-0.28,0.17-0.45,0.23
				c-0.13,0-0.27-0.03-0.4-0.09c0,0.03,0.02,0.09,0.05,0.19c0,0.03,0.02,0.05,0.05,0.05c0,0.03,0.03,0.06,0.1,0.09
				c0,0.03,0.03,0.05,0.1,0.05c0.07,0.09,0.15,0.16,0.25,0.19c0.07,0.03,0.15,0.05,0.25,0.05c-0.1,0.03-0.17,0.08-0.2,0.14
				c-0.03,0.03-0.05,0.06-0.05,0.09c-0.03,0-0.05,0.01-0.05,0.05c-0.07,0.03-0.12,0.09-0.15,0.19c-0.17,0.31-0.12,0.56,0.15,0.75
				h0.05l-0.05,0.05c-0.1,0.16-0.13,0.28-0.1,0.37c0.1,0,0.18,0,0.25,0c0.27,0,0.47,0.08,0.6,0.23c0.07,0,0.1,0.02,0.1,0.05
				c0.07,0.13,0.1,0.25,0.1,0.38c0.23-0.09,0.43-0.23,0.6-0.42c0.03-0.09,0.05-0.2,0.05-0.33c0.07-0.16,0.03-0.33-0.1-0.51
				l-0.1-0.05c0.07-0.09,0.1-0.17,0.1-0.23V17.6c0.13,0.03,0.23,0.05,0.3,0.05c0.23-0.03,0.42-0.13,0.55-0.28
				c-0.03,0-0.1-0.05-0.2-0.14c-0.03,0-0.05-0.02-0.05-0.05c-0.03-0.03-0.05-0.06-0.05-0.09c-0.03,0-0.05-0.02-0.05-0.05
				c-0.1-0.25-0.1-0.47,0-0.65c0-0.03,0.02-0.06,0.05-0.09v-0.02c0.04-0.08,0.07-0.14,0.1-0.17c-0.03,0-0.05-0.02-0.05-0.05
				c0-0.03,0-0.06,0-0.09c0.03-0.16,0-0.33-0.1-0.51c-0.2-0.19-0.48-0.28-0.85-0.28c-0.2,0-0.38,0.05-0.55,0.14
				c-0.03,0.03-0.08,0.09-0.15,0.19l-0.05,0.05c-0.03,0.03-0.05,0.08-0.05,0.14C26.4,15.87,26.4,16.03,26.47,16.15z M27.02,16.85
				c-0.1,0-0.17,0-0.2,0c0.1-0.03,0.18-0.09,0.25-0.19C27.03,16.76,27.02,16.82,27.02,16.85z M25.67,19.89
				c0-0.09-0.03-0.22-0.1-0.37c-0.03-0.06-0.1-0.13-0.2-0.19c-0.13-0.06-0.3-0.09-0.5-0.09c-0.2,0-0.37,0.06-0.5,0.19
				c-0.07,0.03-0.1,0.06-0.1,0.09c-0.03,0-0.05,0.02-0.05,0.05c-0.07,0.03-0.13,0.09-0.2,0.19c-0.1,0.31-0.03,0.56,0.2,0.75
				c0.2,0.22,0.42,0.33,0.65,0.33c0.5-0.09,0.77-0.36,0.8-0.79C25.67,20,25.67,19.95,25.67,19.89z M34.22,20.96v0.09
				c-0.03,0.03-0.07,0.08-0.1,0.14c-0.13,0.31-0.1,0.56,0.1,0.75c0.23,0.22,0.48,0.33,0.75,0.33c0.47-0.06,0.72-0.33,0.75-0.79
				c0.07-0.12,0.03-0.29-0.1-0.51c-0.03-0.03-0.07-0.08-0.1-0.14c0.27-0.13,0.42-0.36,0.45-0.7c0.1-0.16,0.07-0.33-0.1-0.51
				c-0.17-0.19-0.4-0.28-0.7-0.28c-0.13,0-0.28,0.05-0.45,0.14c-0.1,0-0.18,0-0.25,0c-0.23,0-0.43,0.05-0.6,0.14
				c-0.03,0.06-0.05,0.11-0.05,0.14c-0.07,0-0.1,0.02-0.1,0.05c-0.03,0.03-0.07,0.09-0.1,0.19c-0.13,0.28-0.1,0.51,0.1,0.7
				C33.88,20.84,34.05,20.93,34.22,20.96z M39.27,14.47c-0.07-0.12-0.15-0.28-0.25-0.47c0.9-0.4,0.92-0.98,0.05-1.73
				c-0.33-0.31-0.68-0.36-1.05-0.14c-0.03,0.06-0.05,0.11-0.05,0.14c-0.03,0-0.05,0.02-0.05,0.05c-0.03,0.03-0.07,0.09-0.1,0.19
				c-0.13,0.34-0.12,0.65,0.05,0.93c0.03,0.09,0.07,0.17,0.1,0.23l-0.05,0.05c-0.03,0.06-0.05,0.11-0.05,0.14
				c-0.03,0-0.05,0.01-0.05,0.05c-0.1,0.03-0.17,0.09-0.2,0.19c-0.03,0.22-0.03,0.44,0,0.65c0,0.09,0.02,0.17,0.05,0.23
				c0.1,0.16,0.2,0.28,0.3,0.37c0.2,0.25,0.45,0.37,0.75,0.37c0.2-0.09,0.38-0.19,0.55-0.28c-0.07,0.16-0.07,0.26,0,0.33
				c0,0.13,0.03,0.22,0.1,0.28c0.23,0.22,0.48,0.33,0.75,0.33c0.23-0.03,0.42-0.13,0.55-0.28c0.07,0.03,0.12,0.05,0.15,0.05
				c0.6-0.28,0.9-0.59,0.9-0.93c0-0.31-0.25-0.64-0.75-0.98c-0.2-0.09-0.43-0.11-0.7-0.05c-0.1,0.03-0.22,0.06-0.35,0.09
				c-0.03,0.06-0.05,0.11-0.05,0.14c-0.03,0-0.05,0.02-0.05,0.05c-0.07,0.03-0.12,0.09-0.15,0.19c-0.03,0.09-0.03,0.19,0,0.28
				l-0.05,0.05C39.58,14.83,39.47,14.66,39.27,14.47z M42.47,18.39c-0.03,0-0.05,0.02-0.05,0.05c-0.03,0.03-0.08,0.09-0.15,0.19
				c-0.1,0.28-0.05,0.51,0.15,0.7c0.2,0.25,0.43,0.37,0.7,0.37c0.5-0.09,0.77-0.36,0.8-0.79c0.03-0.16,0-0.33-0.1-0.51
				c-0.17-0.19-0.4-0.28-0.7-0.28c-0.23,0-0.43,0.05-0.6,0.14C42.48,18.32,42.47,18.36,42.47,18.39z M40.02,23.3
				c0.23,0.22,0.47,0.33,0.7,0.33c0.53-0.06,0.82-0.33,0.85-0.79c0.03-0.12-0.02-0.28-0.15-0.47c-0.17-0.22-0.4-0.33-0.7-0.33
				c-0.2,0-0.38,0.06-0.55,0.19c-0.03,0.03-0.05,0.08-0.05,0.14c-0.07,0-0.1,0.02-0.1,0.05c-0.03,0.03-0.07,0.08-0.1,0.14
				C39.78,22.86,39.82,23.11,40.02,23.3z M37.52,23.58c-0.17-0.19-0.4-0.28-0.7-0.28c-0.2,0-0.38,0.06-0.55,0.19
				c-0.03,0.03-0.05,0.06-0.05,0.09c-0.03,0-0.05,0.02-0.05,0.05c-0.03,0.06-0.1,0.12-0.2,0.19c-0.1,0.31-0.03,0.56,0.2,0.75
				c0.2,0.22,0.42,0.33,0.65,0.33c0.5-0.06,0.77-0.33,0.8-0.79C37.65,23.94,37.62,23.77,37.52,23.58z M31.62,22.55
				c-0.03,0.06-0.05,0.11-0.05,0.14c-0.03,0-0.05,0.02-0.05,0.05c-0.07,0.03-0.12,0.09-0.15,0.19c-0.13,0.28-0.08,0.51,0.15,0.7
				c0.2,0.25,0.42,0.37,0.65,0.37c0.53-0.09,0.82-0.36,0.85-0.79c0.03-0.16-0.02-0.33-0.15-0.51c-0.2-0.19-0.43-0.28-0.7-0.28
				C31.97,22.41,31.78,22.46,31.62,22.55z M58.52,22.79c-0.17-0.19-0.4-0.28-0.7-0.28c-0.2,0-0.38,0.06-0.55,0.19
				c-0.07,0.03-0.1,0.06-0.1,0.09c-0.03,0-0.05,0.02-0.05,0.05c-0.03,0.06-0.07,0.12-0.1,0.19c-0.13,0.31-0.1,0.56,0.1,0.75
				c0.2,0.22,0.43,0.33,0.7,0.33c0.5-0.06,0.78-0.33,0.85-0.79C58.7,23.14,58.65,22.97,58.52,22.79z M54.57,23.53
				c-0.03,0.03-0.07,0.09-0.1,0.19c-0.13,0.28-0.1,0.51,0.1,0.7c0.27,0.25,0.52,0.37,0.75,0.37c0.47-0.09,0.73-0.36,0.8-0.79
				c0.03-0.16-0.02-0.33-0.15-0.51c-0.17-0.19-0.38-0.28-0.65-0.28c-0.2,0-0.38,0.05-0.55,0.14c-0.07,0.06-0.1,0.11-0.1,0.14
				C54.6,23.49,54.57,23.5,54.57,23.53z M76.02,7.23c0.1-0.03,0.18-0.06,0.25-0.09v0.09C76.2,7.23,76.12,7.23,76.02,7.23z
				 M71.97,4.24c-0.17-0.19-0.4-0.28-0.7-0.28c-0.2,0-0.38,0.05-0.55,0.14c-0.03,0.03-0.05,0.08-0.05,0.14
				c-0.07,0-0.1,0.02-0.1,0.05c-0.03,0.03-0.07,0.09-0.1,0.19c-0.13,0.28-0.1,0.51,0.1,0.7c0.2,0.25,0.43,0.37,0.7,0.37
				c0.5-0.09,0.78-0.36,0.85-0.79C72.15,4.6,72.1,4.43,71.97,4.24z M64.97,4.8c-0.1,0.03-0.15,0.06-0.15,0.09
				c-0.03,0-0.05,0.02-0.05,0.05c-0.03,0.06-0.07,0.12-0.1,0.19c-0.13,0.31-0.1,0.56,0.1,0.75C65,6.1,65.25,6.21,65.52,6.21
				c0.47-0.06,0.72-0.33,0.75-0.79c0.03-0.16,0-0.33-0.1-0.51C66,4.71,65.78,4.62,65.52,4.62C65.28,4.62,65.1,4.68,64.97,4.8z
				 M68.47,9.47c0.2,0.25,0.42,0.37,0.65,0.37c0.5-0.09,0.77-0.36,0.8-0.79c0.07-0.16,0.03-0.33-0.1-0.51
				c-0.17-0.19-0.4-0.28-0.7-0.28c-0.2,0-0.38,0.05-0.55,0.14c-0.03,0.06-0.05,0.11-0.05,0.14c-0.03,0-0.05,0.02-0.05,0.05
				c-0.03,0.03-0.08,0.09-0.15,0.19C68.18,9.05,68.23,9.29,68.47,9.47z M70.02,13.02c-0.23,0-0.43,0.05-0.6,0.14
				c-0.03,0.03-0.05,0.08-0.05,0.14c-0.03,0-0.05,0.02-0.05,0.05c-0.03,0.03-0.08,0.08-0.15,0.14c-0.1,0.31-0.05,0.56,0.15,0.75
				c0.2,0.25,0.43,0.38,0.7,0.38c0.5-0.09,0.77-0.36,0.8-0.79c0.03-0.16,0-0.33-0.1-0.51C70.55,13.12,70.32,13.02,70.02,13.02z
				 M66.42,11.58c-0.17-0.19-0.4-0.28-0.7-0.28c-0.2,0-0.38,0.06-0.55,0.19c-0.03,0.03-0.05,0.06-0.05,0.09
				c-0.03,0-0.05,0.02-0.05,0.05c-0.03,0.06-0.07,0.13-0.1,0.19c-0.17,0.31-0.13,0.56,0.1,0.75c0.2,0.22,0.42,0.33,0.65,0.33
				c0.27-0.03,0.45-0.13,0.55-0.28c0.13,0.13,0.3,0.19,0.5,0.19c1.1-0.96,1.02-1.31-0.25-1.03C66.48,11.73,66.45,11.67,66.42,11.58z
				 M68.22,17.32c-0.2,0-0.38,0.05-0.55,0.14c-0.03,0.06-0.05,0.11-0.05,0.14c-0.03,0-0.05,0.02-0.05,0.05
				c-0.07,0.03-0.12,0.09-0.15,0.19c-0.1,0.28-0.05,0.51,0.15,0.7c0.2,0.25,0.42,0.37,0.65,0.37c0.53-0.09,0.82-0.36,0.85-0.79
				c0.03-0.16,0-0.33-0.1-0.51c-0.13-0.16-0.3-0.25-0.5-0.28C68.37,17.32,68.28,17.32,68.22,17.32z M67.17,17.04
				c-0.03-0.09-0.08-0.16-0.15-0.19c-0.13-0.06-0.32-0.09-0.55-0.09c-0.2,0-0.38,0.05-0.55,0.14c-0.03,0.03-0.05,0.08-0.05,0.14
				c-0.03,0-0.05,0.02-0.05,0.05c-0.07,0.03-0.12,0.08-0.15,0.14c-0.1,0.31-0.05,0.56,0.15,0.75c0.2,0.25,0.42,0.38,0.65,0.38
				c0.53-0.09,0.82-0.36,0.85-0.79c0-0.09,0-0.17,0-0.23C67.32,17.23,67.27,17.13,67.17,17.04z M64.52,20.36
				c-0.03,0.03-0.07,0.09-0.1,0.19c-0.13,0.28-0.1,0.53,0.1,0.75c0.2,0.22,0.45,0.33,0.75,0.33c0.47-0.09,0.72-0.36,0.75-0.79
				c0.07-0.16,0.03-0.33-0.1-0.51c-0.17-0.19-0.38-0.28-0.65-0.28c-0.2,0-0.4,0.06-0.6,0.19c-0.07,0.03-0.1,0.06-0.1,0.09
				C64.53,20.31,64.52,20.33,64.52,20.36z M68.72,19.89c-0.03,0.06-0.08,0.12-0.15,0.19c-0.1,0.31-0.05,0.56,0.15,0.75
				c0.2,0.22,0.42,0.33,0.65,0.33c0.53-0.06,0.82-0.33,0.85-0.79c0.03-0.16,0-0.33-0.1-0.51c-0.2-0.19-0.45-0.28-0.75-0.28
				c-0.2,0-0.38,0.06-0.55,0.19c-0.03,0.03-0.05,0.06-0.05,0.09C68.73,19.84,68.72,19.86,68.72,19.89z"/>
			<path fill-rule="evenodd" clip-rule="evenodd" fill="#76787C" d="M23.67,3.4c0.13-0.09,0.28-0.14,0.45-0.14
				c0.3-0.03,0.53,0.02,0.7,0.14c0.1,0.03,0.17,0.08,0.2,0.14c0.73,0.75,0.53,1.21-0.6,1.4c-0.37-0.03-0.7-0.17-1-0.42
				c-0.2-0.19-0.23-0.44-0.1-0.75c0-0.03,0.02-0.06,0.05-0.09l0.05-0.09c0-0.03,0.03-0.05,0.1-0.05c0-0.03,0.02-0.06,0.05-0.09
				C23.6,3.42,23.63,3.4,23.67,3.4z M17.52,3.4c0.07,0.03,0.12,0.08,0.15,0.14c0.13,0.19,0.18,0.36,0.15,0.51
				c-0.07,0.47-0.35,0.73-0.85,0.79c-0.27,0-0.5-0.11-0.7-0.33c-0.2-0.19-0.23-0.44-0.1-0.75c0.03-0.06,0.07-0.13,0.1-0.19
				c0-0.03,0.03-0.05,0.1-0.05c0-0.03,0.02-0.06,0.05-0.09c0.03-0.03,0.07-0.05,0.1-0.05c0.13-0.09,0.28-0.14,0.45-0.14
				C17.13,3.26,17.32,3.31,17.52,3.4z M6.42,16.53c0,0.06-0.02,0.14-0.05,0.23c-0.07,0.44-0.33,0.7-0.8,0.79
				c-0.2-0.06-0.4-0.11-0.6-0.14c-0.1,0-0.18-0.02-0.25-0.05c-0.57-0.16-0.77-0.5-0.6-1.03c0.03-0.06,0.07-0.12,0.1-0.19
				c0-0.03,0.02-0.05,0.05-0.05v-0.05l0.1-0.05c0.6-0.28,1.15-0.26,1.65,0.05c0.07,0.03,0.13,0.09,0.2,0.19
				c0.03,0.06,0.08,0.11,0.15,0.14v0.09L6.42,16.53z M12.77,14.71c0.03,0.06,0.05,0.16,0.05,0.28c0.1,0.16,0.12,0.33,0.05,0.51
				c-0.07,0.44-0.38,0.65-0.95,0.65c-0.03,0-0.1-0.02-0.2-0.05c-0.13,0-0.27-0.08-0.4-0.23c-0.03,0-0.05-0.01-0.05-0.05
				c-0.03-0.03-0.05-0.06-0.05-0.09c-0.07,0-0.1-0.01-0.1-0.05c-0.03-0.22-0.05-0.44-0.05-0.65c0-0.09,0.02-0.22,0.05-0.37
				c0-0.03,0.03-0.08,0.1-0.14l0.05-0.05c0.03-0.06,0.07-0.12,0.1-0.19c0.17-0.09,0.35-0.13,0.55-0.09h0.05
				C12.37,14.22,12.63,14.39,12.77,14.71z M7.37,14.1c0.43-0.06,0.8,0.05,1.1,0.33c0.13,0.19,0.17,0.36,0.1,0.51
				c-0.07,0.56-0.4,0.83-1,0.79c-0.13,0-0.28-0.05-0.45-0.14c-0.07-0.03-0.15-0.08-0.25-0.14c-0.03,0-0.05-0.03-0.05-0.09
				c-0.03-0.03-0.05-0.06-0.05-0.09c-0.03,0-0.05-0.02-0.05-0.05c-0.03-0.09-0.05-0.19-0.05-0.28c0-0.09,0-0.17,0-0.23
				s0.02-0.12,0.05-0.19c0-0.03,0.02-0.06,0.05-0.09l0.05-0.05c0-0.06,0.02-0.09,0.05-0.09c0-0.03,0.03-0.06,0.1-0.09
				C7.07,14.16,7.2,14.13,7.37,14.1z M57.97,3.4h1.45c0.1,0.13,0.13,0.26,0.1,0.42c-0.07,0.47-0.33,0.73-0.8,0.79
				c-0.27,0-0.52-0.11-0.75-0.33c-0.2-0.19-0.23-0.44-0.1-0.75C57.9,3.48,57.93,3.43,57.97,3.4z M4.12,19.42
				c-0.37,0.03-0.72,0.05-1.05,0.05c-0.43,0-0.88,0-1.35,0c-0.1,0-0.22-0.05-0.35-0.14c-0.07,0-0.15-0.03-0.25-0.09v-1.07
				c0-0.03,0.03-0.08,0.1-0.14c0.1-0.03,0.22-0.05,0.35-0.05c2.26-0.06,4.48-0.09,6.68-0.09h0.02c0.37,0,0.75,0,1.15,0
				c0.27,0,0.47,0.08,0.6,0.23l0.1,0.05c0.03,0.06,0.05,0.14,0.05,0.23c0.2,0.56-0.05,0.86-0.75,0.89
				c-1.27,0.09-2.55,0.14-3.85,0.14C5.03,19.42,4.55,19.42,4.12,19.42z M14.37,20.5c-0.07,0.03-0.1,0.06-0.1,0.09
				c-0.03,0.47-0.32,0.73-0.85,0.79c-0.13,0-0.28-0.06-0.45-0.19c-0.07-0.03-0.13-0.08-0.2-0.14c-0.2-0.19-0.23-0.44-0.1-0.75
				c0.03-0.06,0.07-0.12,0.1-0.19c0-0.03,0.02-0.05,0.05-0.05c0-0.03,0.02-0.06,0.05-0.09c0.17-0.13,0.35-0.19,0.55-0.19
				c0.3,0,0.55,0.09,0.75,0.28C14.23,20.23,14.3,20.37,14.37,20.5z M22.17,13.35c0,0.03,0,0.06,0,0.09c-0.03,0.47-0.3,0.73-0.8,0.79
				c-0.17,0-0.3-0.05-0.4-0.14c-0.1-0.06-0.2-0.12-0.3-0.19c-0.2-0.19-0.25-0.44-0.15-0.75c0.03-0.06,0.08-0.11,0.15-0.14
				c0-0.06,0.02-0.09,0.05-0.09c0-0.03,0.03-0.06,0.1-0.09c0.17-0.12,0.35-0.19,0.55-0.19c0.3,0,0.52,0.09,0.65,0.28
				C22.12,13.09,22.17,13.23,22.17,13.35z M17.22,15.87c0-0.03,0.02-0.06,0.05-0.09c0.27-0.16,0.52-0.23,0.75-0.23
				c0.53,0.03,1,0.19,1.4,0.47c0.13,0.19,0.18,0.39,0.15,0.61c-0.03,0.12-0.05,0.2-0.05,0.23c0,0.19-0.07,0.37-0.2,0.56
				c-0.13,0.16-0.3,0.26-0.5,0.33c-0.17,0.13-0.35,0.2-0.55,0.23c-0.27,0.03-0.58,0.02-0.95-0.05c-0.07,0-0.15-0.02-0.25-0.05
				c-0.2,0-0.4-0.08-0.6-0.23c-0.17-0.19-0.25-0.39-0.25-0.61c0-0.06,0-0.12,0-0.19c0.03,0,0.05-0.02,0.05-0.05s0.03-0.08,0.1-0.14
				l0.05-0.05c0-0.03,0.02-0.05,0.05-0.05c0-0.03,0.02-0.06,0.05-0.09c0.17-0.09,0.33-0.16,0.5-0.19c-0.03-0.03-0.03-0.09,0-0.19
				c0-0.03,0.02-0.06,0.05-0.09l0.05-0.05C17.12,15.9,17.15,15.87,17.22,15.87z M20.52,19.98c0.2-0.31,0.47-0.47,0.8-0.47
				c1.1-0.03,1.4,0.36,0.9,1.17c-0.07,0.06-0.17,0.13-0.3,0.19c-0.17,0.12-0.35,0.19-0.55,0.19c-0.1-0.06-0.22-0.11-0.35-0.14
				c-0.1-0.03-0.2-0.08-0.3-0.14c-0.03,0-0.05-0.03-0.05-0.09v-0.05c-0.07,0-0.1-0.02-0.1-0.05c-0.03,0-0.05-0.02-0.05-0.05
				C20.45,20.36,20.45,20.17,20.52,19.98z M1.12,14.94v-0.98l0.1-0.05c0-0.03,0.02-0.05,0.05-0.05c0-0.03,0.02-0.08,0.05-0.14
				c0.23-0.15,0.48-0.19,0.75-0.09c0.2,0,0.35,0.06,0.45,0.19l0.05,0.05c0.07,0.06,0.13,0.11,0.2,0.14c0.03,0.09,0.1,0.16,0.2,0.19
				c0.1,0.19,0.13,0.36,0.1,0.51C3,15.27,2.63,15.53,1.97,15.5C1.57,15.5,1.28,15.31,1.12,14.94z M54.87,7.61
				c0.17-0.09,0.35-0.14,0.55-0.14c0.3,0,0.53,0.09,0.7,0.28c0.1,0.19,0.13,0.36,0.1,0.51c-0.03,0.44-0.3,0.7-0.8,0.79
				c-0.23,0-0.45-0.12-0.65-0.37c-0.23-0.19-0.3-0.42-0.2-0.7c0.07-0.09,0.13-0.16,0.2-0.19c0-0.03,0.02-0.05,0.05-0.05
				C54.82,7.71,54.83,7.67,54.87,7.61z M60.97,10.27c-0.27,0-0.5-0.11-0.7-0.33c-0.2-0.19-0.23-0.44-0.1-0.75
				c0.03-0.06,0.07-0.11,0.1-0.14c0-0.03,0.02-0.05,0.05-0.05c0-0.06,0.03-0.11,0.1-0.14c0.17-0.12,0.35-0.19,0.55-0.19
				c0.27,0,0.5,0.11,0.7,0.33c0.13,0.19,0.18,0.34,0.15,0.47C61.75,9.94,61.47,10.21,60.97,10.27z M45.02,10.36
				c0,0.03,0.02,0.06,0.05,0.09c0.13,0.19,0.17,0.39,0.1,0.61c-0.13,0.59-0.57,0.82-1.3,0.7c-0.47-0.03-0.73-0.26-0.8-0.7
				c-0.03-0.09-0.03-0.22,0-0.37c0-0.03,0.02-0.08,0.05-0.14l0.05-0.05c0-0.03,0.03-0.05,0.1-0.05c0-0.03,0.02-0.06,0.05-0.09
				c0.17-0.09,0.33-0.16,0.5-0.19c0.13-0.03,0.32-0.03,0.55,0C44.63,10.17,44.85,10.24,45.02,10.36z M53.97,10.17
				c-0.1,0.19-0.32,0.34-0.65,0.47c-0.1,0-0.25-0.05-0.45-0.14c-0.07-0.03-0.12-0.08-0.15-0.14h-0.05c-0.07,0-0.1-0.03-0.1-0.09
				c-0.03-0.03-0.05-0.06-0.05-0.09c-0.03,0-0.05-0.02-0.05-0.05v0.05c-0.03,0.53-0.33,0.79-0.9,0.79c-0.33,0-0.6-0.14-0.8-0.42
				c-0.13-0.22-0.15-0.44-0.05-0.65c0-0.03,0.02-0.08,0.05-0.14l0.05-0.05c0.03-0.06,0.08-0.11,0.15-0.14
				c0.13-0.12,0.33-0.19,0.6-0.19c0.3,0,0.55,0.09,0.75,0.28c0.07,0.03,0.1,0.06,0.1,0.09c0-0.06,0-0.11,0-0.14
				c0-0.09,0.02-0.16,0.05-0.19c0.03-0.06,0.07-0.11,0.1-0.14c0-0.06,0.03-0.09,0.1-0.09c0-0.03,0.02-0.06,0.05-0.09
				c0.3-0.19,0.58-0.19,0.85,0C54.07,9.51,54.2,9.86,53.97,10.17z M49.57,13.91c0-0.03,0.03-0.05,0.1-0.05
				c0-0.03,0.02-0.08,0.05-0.14c0.33-0.19,0.62-0.15,0.85,0.09c0.73,0.59,0.73,1.06,0,1.4c-0.07,0.06-0.17,0.11-0.3,0.14
				c-0.03-0.03-0.08-0.05-0.15-0.05c-0.07,0-0.12,0-0.15,0c-0.03-0.03-0.07-0.06-0.1-0.09c-0.23-0.09-0.38-0.25-0.45-0.47
				c-0.03-0.22-0.03-0.44,0-0.65C49.48,14,49.53,13.94,49.57,13.91z M53.42,16.39c0-0.06,0.03-0.16,0.1-0.28
				c0.03-0.06,0.07-0.11,0.1-0.14c0-0.06,0.02-0.09,0.05-0.09c0-0.03,0.02-0.06,0.05-0.09c0.17-0.13,0.35-0.19,0.55-0.19
				c0.33,0,0.58,0.09,0.75,0.28c0.1,0.19,0.13,0.36,0.1,0.51c-0.03,0.37-0.25,0.62-0.65,0.75c-0.03,0.03-0.1,0.05-0.2,0.05
				c-0.23,0-0.45-0.11-0.65-0.33C53.48,16.73,53.42,16.57,53.42,16.39z M48.32,17.93c0.17,0.22,0.2,0.45,0.1,0.7
				c-0.27,0.53-0.78,0.76-1.55,0.7c-0.4,0-0.68-0.19-0.85-0.56c-0.07-0.16-0.07-0.33,0-0.51c0-0.03,0.03-0.06,0.1-0.09l0.05-0.05
				c0-0.06,0.03-0.09,0.1-0.09c0-0.03,0.02-0.06,0.05-0.09c0.3-0.12,0.62-0.22,0.95-0.28C47.67,17.59,48.02,17.68,48.32,17.93z
				 M50.57,17.46c0.1,0.09,0.18,0.17,0.25,0.23c0.13,0.19,0.18,0.36,0.15,0.51c-0.07,0.47-0.33,0.73-0.8,0.79
				c-0.23,0-0.48-0.11-0.75-0.33c-0.1-0.12-0.15-0.28-0.15-0.47c0-0.06,0.02-0.15,0.05-0.28c0.03-0.06,0.07-0.12,0.1-0.19
				c0-0.03,0.03-0.05,0.1-0.05c0-0.03,0.02-0.06,0.05-0.09c0.2-0.12,0.4-0.19,0.6-0.19C50.33,17.41,50.47,17.43,50.57,17.46z
				 M60.17,13.3c0.17-0.12,0.35-0.19,0.55-0.19c0.3,0,0.58,0.09,0.85,0.28c0.1,0.19,0.13,0.36,0.1,0.51
				c-0.03,0.53-0.35,0.79-0.95,0.79c-0.3,0-0.55-0.14-0.75-0.42c-0.17-0.22-0.18-0.44-0.05-0.65c0-0.03,0.02-0.08,0.05-0.14
				l0.05-0.05C60.08,13.38,60.13,13.33,60.17,13.3z M35.92,4.57c0-0.03,0.02-0.06,0.05-0.09c0.2-0.13,0.4-0.19,0.6-0.19
				c0.33,0,0.6,0.09,0.8,0.28c0.13,0.19,0.18,0.36,0.15,0.51c-0.07,0.53-0.38,0.79-0.95,0.79c-0.1,0-0.22-0.05-0.35-0.14
				c-0.17-0.03-0.3-0.13-0.4-0.28c-0.13-0.22-0.17-0.44-0.1-0.65c0-0.03,0.03-0.08,0.1-0.14L35.92,4.57z M40.37,9.05l0.05,0.05
				c0.07-0.03,0.17-0.05,0.3-0.05c0.2,0,0.4,0.02,0.6,0.05c0.07,0.06,0.15,0.14,0.25,0.23c0.1,0.19,0.13,0.36,0.1,0.51
				c-0.03,0.53-0.35,0.79-0.95,0.79c-0.3,0-0.55-0.14-0.75-0.42v-0.05c-0.07,0.03-0.15,0.06-0.25,0.09
				c-0.03-0.03-0.07-0.05-0.1-0.05c0,0.03,0,0.08,0,0.14c0,0.19-0.1,0.31-0.3,0.37c-0.73,0.47-1.57,0.76-2.5,0.89
				c-0.03,0-0.08-0.02-0.15-0.05c-0.2,0-0.37-0.08-0.5-0.23c-0.23-0.22-0.3-0.48-0.2-0.79c0.1-0.06,0.17-0.11,0.2-0.14l0.05-0.05
				c0-0.06,0.02-0.11,0.05-0.14c0.27-0.09,0.52-0.2,0.75-0.33c0.2-0.13,0.4-0.2,0.6-0.23c0.5-0.13,0.92-0.13,1.25,0
				c-0.03-0.22-0.03-0.44,0-0.65c0.07-0.09,0.12-0.16,0.15-0.19c0-0.03,0.02-0.05,0.05-0.05c0-0.06,0.02-0.11,0.05-0.14
				c0.37-0.19,0.67-0.17,0.9,0.05C40.15,8.8,40.27,8.93,40.37,9.05z M34.27,9.29c0.33,0,0.58,0.09,0.75,0.28
				c0.1,0.19,0.13,0.36,0.1,0.51c-0.03,0.43-0.32,0.7-0.85,0.79c-0.23,0-0.45-0.13-0.65-0.37c-0.2-0.19-0.23-0.44-0.1-0.75
				c0.03-0.06,0.07-0.11,0.1-0.14c0-0.03,0.02-0.05,0.05-0.05c0-0.06,0.02-0.11,0.05-0.14C33.88,9.33,34.07,9.29,34.27,9.29z
				 M25.92,9.99c0-0.03,0.02-0.06,0.05-0.09c0.17-0.13,0.35-0.19,0.55-0.19c0.3,0,0.52,0.09,0.65,0.28
				c0.13,0.19,0.18,0.36,0.15,0.51c-0.03,0.47-0.3,0.73-0.8,0.79c-0.1,0-0.22-0.03-0.35-0.09c-0.13-0.03-0.25-0.11-0.35-0.23
				c-0.2-0.19-0.25-0.44-0.15-0.75c0.03-0.06,0.08-0.11,0.15-0.14C25.82,10.02,25.85,9.99,25.92,9.99z M31.82,15.22l0.1-0.14
				c0-0.03,0.02-0.06,0.05-0.09c0.17-0.12,0.35-0.19,0.55-0.19c0.3,0,0.52,0.05,0.65,0.14c0.1,0.06,0.17,0.11,0.2,0.14
				c0.03,0.09,0.08,0.16,0.15,0.19c0.03,0.12,0.03,0.23,0,0.33c-0.07,0.53-0.4,0.79-1,0.79c-0.27,0-0.5-0.13-0.7-0.37
				c-0.13-0.22-0.17-0.45-0.1-0.7C31.72,15.28,31.75,15.25,31.82,15.22z M28.12,16.39c-0.17,0.25-0.45,0.37-0.85,0.37
				c-0.1,0-0.17-0.03-0.2-0.09c-0.2-0.03-0.38-0.14-0.55-0.33c-0.03-0.03-0.05-0.09-0.05-0.19c-0.07-0.13-0.07-0.28,0-0.47
				c0-0.06,0.02-0.11,0.05-0.14l0.05-0.05c0.07-0.09,0.12-0.16,0.15-0.19c0.17-0.09,0.35-0.14,0.55-0.14c0.37,0,0.65,0.09,0.85,0.28
				c0.1,0.19,0.13,0.36,0.1,0.51c0,0.03,0,0.06,0,0.09c0,0.06-0.02,0.13-0.05,0.21v0.02C28.13,16.32,28.12,16.35,28.12,16.39z
				 M39.27,14.47c0.07,0.38-0.2,0.67-0.8,0.89c-0.03-0.03-0.1-0.05-0.2-0.05c-0.03,0-0.07,0-0.1,0c-0.2-0.06-0.37-0.17-0.5-0.33
				c-0.03-0.06-0.05-0.14-0.05-0.23c-0.03-0.22-0.03-0.44,0-0.65c0.03-0.09,0.1-0.16,0.2-0.19c0-0.03,0.02-0.05,0.05-0.05
				c0-0.03,0.02-0.08,0.05-0.14l0.05-0.05c-0.03-0.06-0.07-0.14-0.1-0.23c-0.17-0.28-0.18-0.59-0.05-0.93
				c0.03-0.09,0.07-0.16,0.1-0.19c0-0.03,0.02-0.05,0.05-0.05c0-0.03,0.02-0.08,0.05-0.14c0.37-0.22,0.72-0.17,1.05,0.14
				c0.87,0.75,0.85,1.32-0.05,1.73C39.12,14.19,39.2,14.35,39.27,14.47z M40.67,16.11c-0.07,0-0.13-0.02-0.2-0.05
				c-0.07-0.03-0.15-0.09-0.25-0.19c-0.07-0.09-0.15-0.2-0.25-0.33c-0.07-0.06-0.12-0.16-0.15-0.28c-0.1-0.13-0.15-0.23-0.15-0.33
				c-0.03-0.09-0.03-0.19,0-0.28c0.03-0.09,0.08-0.15,0.15-0.19c0-0.03,0.02-0.05,0.05-0.05c0-0.03,0.02-0.08,0.05-0.14
				c0.13-0.03,0.25-0.06,0.35-0.09c0.27-0.06,0.5-0.05,0.7,0.05c0.5,0.34,0.75,0.67,0.75,0.98c0,0.34-0.3,0.65-0.9,0.93
				C40.78,16.15,40.73,16.14,40.67,16.11z M67.17,17.04c0.1,0.09,0.15,0.19,0.15,0.28c0,0.06,0,0.14,0,0.23
				c-0.03,0.43-0.32,0.7-0.85,0.79c-0.23,0-0.45-0.13-0.65-0.38c-0.2-0.19-0.25-0.43-0.15-0.75c0.03-0.06,0.08-0.11,0.15-0.14
				c0-0.03,0.02-0.05,0.05-0.05c0-0.06,0.02-0.11,0.05-0.14c0.17-0.09,0.35-0.14,0.55-0.14c0.23,0,0.42,0.03,0.55,0.09
				C67.08,16.88,67.13,16.95,67.17,17.04z M68.22,17.32c0.07,0,0.15,0,0.25,0c0.2,0.03,0.37,0.12,0.5,0.28
				c0.1,0.19,0.13,0.36,0.1,0.51c-0.03,0.44-0.32,0.7-0.85,0.79c-0.23,0-0.45-0.12-0.65-0.37c-0.2-0.19-0.25-0.42-0.15-0.7
				c0.03-0.09,0.08-0.16,0.15-0.19c0-0.03,0.02-0.05,0.05-0.05c0-0.03,0.02-0.08,0.05-0.14C67.83,17.37,68.02,17.32,68.22,17.32z"/>
			<path fill-rule="evenodd" clip-rule="evenodd" fill="#5B5C64" d="M21.07,8.21c0.03-0.09,0.08-0.16,0.15-0.19
				c0-0.03,0.02-0.05,0.05-0.05c0-0.06,0.02-0.11,0.05-0.14c0.17-0.09,0.35-0.14,0.55-0.14c0.27,0,0.5,0.09,0.7,0.28
				c0.13,0.19,0.18,0.36,0.15,0.51c-0.03,0.44-0.32,0.7-0.85,0.79c-0.23,0-0.45-0.12-0.65-0.37C20.98,8.73,20.93,8.49,21.07,8.21z
				 M19.22,14.52c0.13-0.09,0.3-0.14,0.5-0.14c0.3,0,0.53,0.09,0.7,0.28c0.1,0.19,0.13,0.36,0.1,0.51c-0.03,0.44-0.3,0.7-0.8,0.79
				c-0.23,0-0.47-0.12-0.7-0.37c-0.2-0.19-0.25-0.42-0.15-0.7c0.07-0.09,0.12-0.16,0.15-0.19c0-0.03,0.03-0.05,0.1-0.05
				C19.12,14.63,19.15,14.58,19.22,14.52z M31.72,14c0.5,0.13,0.92,0.06,1.25-0.19h0.05c0.07,0.03,0.15,0.08,0.25,0.14
				c0.1,0.19,0.13,0.36,0.1,0.51c0,0.03,0,0.08,0,0.14c-0.03,0.12-0.1,0.23-0.2,0.33c-0.13-0.09-0.35-0.14-0.65-0.14
				c-0.2,0-0.38,0.06-0.55,0.19c-0.03,0.03-0.05,0.06-0.05,0.09c-0.03-0.03-0.07-0.06-0.1-0.09c-0.07-0.03-0.12-0.06-0.15-0.09
				c-0.1-0.25-0.12-0.48-0.05-0.7c0-0.03,0.02-0.06,0.05-0.09L31.72,14z M26.17,18.12h-0.05c-0.27-0.19-0.32-0.44-0.15-0.75
				c0.03-0.09,0.08-0.16,0.15-0.19c0-0.03,0.02-0.05,0.05-0.05c0-0.03,0.02-0.06,0.05-0.09c0.03-0.06,0.1-0.11,0.2-0.14
				c0.07-0.03,0.18-0.05,0.35-0.05h0.05c0.03,0,0.1,0,0.2,0c0.17,0.03,0.3,0.12,0.4,0.28c0.17,0.15,0.23,0.31,0.2,0.47v0.05
				c0,0.06-0.03,0.14-0.1,0.23c-0.1,0.31-0.35,0.5-0.75,0.56C26.53,18.44,26.33,18.33,26.17,18.12z M37.67,14.99
				c0.13,0.16,0.3,0.26,0.5,0.33c0.03,0,0.07,0,0.1,0c0.1,0,0.17,0.01,0.2,0.05c0.6-0.22,0.87-0.51,0.8-0.89
				c0.2,0.19,0.32,0.36,0.35,0.51l0.05-0.05c0,0.09,0.05,0.2,0.15,0.33c0.03,0.12,0.08,0.22,0.15,0.28c0.1,0.13,0.18,0.23,0.25,0.33
				c0.1,0.09,0.18,0.16,0.25,0.19c0.07,0.03,0.13,0.05,0.2,0.05c-0.13,0.16-0.32,0.25-0.55,0.28c-0.27,0-0.52-0.11-0.75-0.33
				c-0.07-0.06-0.1-0.16-0.1-0.28c-0.07-0.06-0.07-0.17,0-0.33c-0.17,0.09-0.35,0.19-0.55,0.28c-0.3,0-0.55-0.12-0.75-0.37
				C37.87,15.27,37.77,15.14,37.67,14.99z"/>
			<path fill-rule="evenodd" clip-rule="evenodd" fill="#6B6D73" d="M22.42,9.66c0.3-0.19,0.58-0.19,0.85,0
				c0.23,0.19,0.38,0.36,0.45,0.51l-0.05-0.05c-0.17-0.19-0.38-0.28-0.65-0.28c-0.2,0-0.4,0.05-0.6,0.14
				c-0.03,0.06-0.05,0.11-0.05,0.14c-0.07,0-0.1,0.02-0.1,0.05c-0.03,0.03-0.07,0.09-0.1,0.19c-0.03,0.06-0.05,0.11-0.05,0.14
				c0-0.09,0-0.2,0-0.33c0-0.06,0.02-0.13,0.05-0.19c0.03-0.06,0.07-0.11,0.1-0.14c0-0.06,0.03-0.09,0.1-0.09
				C22.37,9.72,22.38,9.69,22.42,9.66z M12.77,14.71c-0.13-0.31-0.4-0.48-0.8-0.51c-0.07-0.16-0.07-0.34,0-0.56
				c0.03-0.09,0.08-0.16,0.15-0.19c0-0.03,0.02-0.05,0.05-0.05c0-0.03,0.02-0.06,0.05-0.09c0.2-0.12,0.4-0.19,0.6-0.19
				c0.3,0,0.53,0.09,0.7,0.28c0.1,0.19,0.13,0.36,0.1,0.51c-0.03,0.47-0.3,0.73-0.8,0.79H12.77z M12.87,17.55
				c0-0.06,0.03-0.09,0.1-0.09c0-0.03,0.02-0.06,0.05-0.09c0.33-0.19,0.63-0.17,0.9,0.05c0.9,0.69,0.82,1.21-0.25,1.59
				c-0.03-0.03-0.08-0.05-0.15-0.05c-0.07,0-0.12,0-0.15,0c-0.27-0.13-0.47-0.31-0.6-0.56c-0.07-0.25-0.07-0.48,0-0.7
				C12.8,17.63,12.83,17.59,12.87,17.55z M21.32,11.16c0.13,0.19,0.17,0.34,0.1,0.47c-0.03,0.47-0.32,0.73-0.85,0.79
				c-0.23,0-0.45-0.11-0.65-0.33c-0.2-0.19-0.23-0.44-0.1-0.75c0.03-0.06,0.07-0.11,0.1-0.14c0-0.03,0.02-0.05,0.05-0.05
				c0-0.06,0.02-0.11,0.05-0.14c0.17-0.09,0.35-0.14,0.55-0.14C20.9,10.88,21.15,10.97,21.32,11.16z M21.42,16.34
				c-0.03-0.06-0.05-0.12-0.05-0.19c0-0.09,0-0.2,0-0.33c0-0.06,0.02-0.11,0.05-0.14c0.07-0.09,0.12-0.16,0.15-0.19
				c0-0.03,0.02-0.05,0.05-0.05c0-0.06,0.02-0.11,0.05-0.14c0.3-0.19,0.58-0.19,0.85,0c0.8,0.65,0.7,1.17-0.3,1.54
				c-0.13,0-0.25-0.03-0.35-0.09c-0.1-0.06-0.18-0.12-0.25-0.19c-0.03,0-0.05-0.02-0.05-0.05c-0.03-0.03-0.05-0.08-0.05-0.14
				C21.45,16.39,21.42,16.37,21.42,16.34z M26.27,7.84c0.1-0.03,0.23-0.05,0.4-0.05c0.27,0,0.48,0.09,0.65,0.28
				c0.13,0.19,0.17,0.36,0.1,0.51c-0.03,0.47-0.28,0.73-0.75,0.79c-0.27,0-0.5-0.11-0.7-0.33c-0.23-0.19-0.28-0.44-0.15-0.75
				c0.07-0.06,0.12-0.13,0.15-0.19c0-0.03,0.02-0.05,0.05-0.05c0-0.03,0.03-0.06,0.1-0.09C26.15,7.92,26.2,7.87,26.27,7.84z
				 M29.17,9.61c0-0.03,0.05-0.05,0.15-0.05c0-0.06,0.02-0.11,0.05-0.14c0.1-0.03,0.18-0.06,0.25-0.09c0.23,0.09,0.53,0.14,0.9,0.14
				c0.03,0,0.05,0.03,0.05,0.09c0.13,0.19,0.18,0.36,0.15,0.51c-0.03,0.43-0.3,0.7-0.8,0.79c-0.23,0-0.48-0.13-0.75-0.37
				c-0.2-0.19-0.23-0.44-0.1-0.75C29.1,9.69,29.13,9.65,29.17,9.61z M33.37,14.61v0.05c0.13,0.19,0.18,0.36,0.15,0.51
				c0,0.03,0,0.06,0,0.09c-0.07-0.03-0.12-0.09-0.15-0.19c-0.03-0.03-0.1-0.08-0.2-0.14C33.27,14.85,33.33,14.74,33.37,14.61z
				 M31.82,15.22c0-0.09,0-0.17,0-0.23c0.03,0.03,0.07,0.06,0.1,0.09L31.82,15.22z M27.37,12.42c0.2,0.06,0.37,0.17,0.5,0.33
				c0.1,0.19,0.13,0.39,0.1,0.61c-0.17,0.53-0.57,0.75-1.2,0.65c-0.4,0-0.67-0.19-0.8-0.56c-0.1-0.16-0.1-0.33,0-0.51
				c0-0.03,0.02-0.06,0.05-0.09l0.1-0.05c0-0.03,0.02-0.05,0.05-0.05c0-0.06,0.02-0.11,0.05-0.14c0.3-0.15,0.6-0.22,0.9-0.19
				C27.22,12.42,27.3,12.42,27.37,12.42z M26.47,16.15c0,0.09,0.02,0.16,0.05,0.19c0.17,0.19,0.35,0.3,0.55,0.33
				c-0.07,0.09-0.15,0.16-0.25,0.19h-0.05c-0.17,0-0.28,0.02-0.35,0.05c-0.1,0-0.18-0.02-0.25-0.05c-0.1-0.03-0.18-0.09-0.25-0.19
				c-0.07,0-0.1-0.02-0.1-0.05c-0.07-0.03-0.1-0.06-0.1-0.09c-0.03,0-0.05-0.02-0.05-0.05c-0.03-0.09-0.05-0.16-0.05-0.19
				c0.13,0.06,0.27,0.09,0.4,0.09C26.18,16.32,26.33,16.25,26.47,16.15z M27.62,17.6c0.03-0.16-0.03-0.31-0.2-0.47
				c-0.1-0.16-0.23-0.25-0.4-0.28c0-0.03,0.02-0.09,0.05-0.19c0.03,0.06,0.1,0.09,0.2,0.09c0.4,0,0.68-0.12,0.85-0.37
				c-0.1,0.19-0.1,0.4,0,0.65c0,0.03,0.02,0.05,0.05,0.05c0,0.03,0.02,0.06,0.05,0.09c0,0.03,0.02,0.05,0.05,0.05
				c0.1,0.09,0.17,0.14,0.2,0.14c-0.13,0.16-0.32,0.25-0.55,0.28C27.85,17.65,27.75,17.63,27.62,17.6z M28.22,16.06
				c0,0.03,0.02,0.05,0.05,0.05c-0.03,0.03-0.06,0.08-0.1,0.17C28.2,16.19,28.22,16.12,28.22,16.06z M26.17,18.12
				c0.17,0.22,0.37,0.33,0.6,0.33c0.4-0.06,0.65-0.25,0.75-0.56l0.1,0.05c0.13,0.19,0.17,0.36,0.1,0.51c0,0.13-0.02,0.23-0.05,0.33
				c-0.17,0.19-0.37,0.33-0.6,0.42c0-0.13-0.03-0.25-0.1-0.38c0-0.03-0.03-0.05-0.1-0.05c-0.13-0.16-0.33-0.23-0.6-0.23
				c-0.07,0-0.15,0-0.25,0c-0.03-0.09,0-0.22,0.1-0.37L26.17,18.12z M34.72,19.47l-0.05,0.05c-0.07,0.03-0.1,0.06-0.1,0.09
				c-0.03,0-0.05,0.03-0.05,0.09c-0.03,0.03-0.07,0.08-0.1,0.14c-0.17,0.31-0.13,0.56,0.1,0.75c0.03,0.06,0.1,0.09,0.2,0.09
				c-0.13,0.06-0.23,0.13-0.3,0.19c-0.1,0.03-0.15,0.06-0.15,0.09h-0.05c-0.17-0.03-0.33-0.12-0.5-0.28c-0.2-0.19-0.23-0.42-0.1-0.7
				c0.03-0.09,0.07-0.16,0.1-0.19c0-0.03,0.03-0.05,0.1-0.05c0-0.03,0.02-0.08,0.05-0.14c0.17-0.09,0.37-0.14,0.6-0.14
				C34.53,19.47,34.62,19.47,34.72,19.47z"/>
			<path fill-rule="evenodd" clip-rule="evenodd" fill="#7E8089" d="M6.52,3.73c0.37-0.03,0.7,0.06,1,0.28
				c0.1,0.19,0.13,0.36,0.1,0.51c-0.07,0.56-0.43,0.83-1.1,0.79c-0.37,0-0.63-0.17-0.8-0.51c-0.07-0.19-0.07-0.37,0-0.56
				c0-0.06,0.03-0.11,0.1-0.14l0.05-0.05c0-0.03,0.02-0.05,0.05-0.05c0-0.03,0.02-0.08,0.05-0.14C6.13,3.78,6.32,3.73,6.52,3.73z
				 M63.32,3.4h1.65c-0.17,0.28-0.45,0.47-0.85,0.56c-0.27,0-0.5-0.12-0.7-0.37C63.35,3.53,63.32,3.46,63.32,3.4z M34.77,3.4h1.65
				c0.17,0.41-0.12,0.73-0.85,0.98c-0.03-0.03-0.1-0.05-0.2-0.05c-0.03,0-0.07,0-0.1,0c-0.3-0.13-0.47-0.31-0.5-0.56
				C34.73,3.65,34.73,3.53,34.77,3.4z M71.97,4.24c0.13,0.19,0.18,0.36,0.15,0.51c-0.07,0.44-0.35,0.7-0.85,0.79
				c-0.27,0-0.5-0.12-0.7-0.37c-0.2-0.19-0.23-0.42-0.1-0.7c0.03-0.09,0.07-0.16,0.1-0.19c0-0.03,0.03-0.05,0.1-0.05
				c0-0.06,0.02-0.11,0.05-0.14c0.17-0.09,0.35-0.14,0.55-0.14C71.57,3.96,71.8,4.06,71.97,4.24z M68.47,9.47
				c-0.23-0.19-0.28-0.42-0.15-0.7c0.07-0.09,0.12-0.16,0.15-0.19c0-0.03,0.02-0.05,0.05-0.05c0-0.03,0.02-0.08,0.05-0.14
				c0.17-0.09,0.35-0.14,0.55-0.14c0.3,0,0.53,0.09,0.7,0.28c0.13,0.19,0.17,0.36,0.1,0.51c-0.03,0.44-0.3,0.7-0.8,0.79
				C68.88,9.85,68.67,9.72,68.47,9.47z M64.97,4.8c0.13-0.13,0.32-0.19,0.55-0.19c0.27,0,0.48,0.09,0.65,0.28
				c0.1,0.19,0.13,0.36,0.1,0.51c-0.03,0.47-0.28,0.73-0.75,0.79c-0.27,0-0.52-0.11-0.75-0.33c-0.2-0.19-0.23-0.44-0.1-0.75
				c0.03-0.06,0.07-0.12,0.1-0.19c0-0.03,0.02-0.05,0.05-0.05C64.82,4.87,64.87,4.83,64.97,4.8z"/>
			<path fill-rule="evenodd" clip-rule="evenodd" fill="#5A5D63" d="M8.67,12.56c0.3,0,0.53,0.09,0.7,0.28
				c0.13,0.19,0.18,0.36,0.15,0.51c-0.07,0.44-0.35,0.7-0.85,0.79c-0.27,0-0.5-0.11-0.7-0.33c-0.2-0.22-0.23-0.47-0.1-0.75
				c0.03-0.09,0.07-0.16,0.1-0.19c0-0.03,0.02-0.05,0.05-0.05c0-0.03,0.03-0.06,0.1-0.09C8.28,12.62,8.47,12.56,8.67,12.56z
				 M4.12,19.42c0.43,0,0.92,0,1.45,0c0.37,0.47,0.13,0.86-0.7,1.17c-0.1,0-0.22-0.03-0.35-0.09c-0.07-0.06-0.15-0.12-0.25-0.19
				c-0.03,0-0.05-0.02-0.05-0.05c-0.03-0.03-0.05-0.08-0.05-0.14c-0.03,0-0.05-0.02-0.05-0.05c-0.07-0.06-0.1-0.12-0.1-0.19
				c0-0.09,0-0.2,0-0.33C4.02,19.53,4.05,19.48,4.12,19.42z M6.42,16.53c0.07,0.16,0.08,0.3,0.05,0.42c-0.03,0.47-0.3,0.73-0.8,0.79
				c-0.27,0-0.5-0.11-0.7-0.33c0.2,0.03,0.4,0.08,0.6,0.14c0.47-0.09,0.73-0.36,0.8-0.79C6.4,16.67,6.42,16.59,6.42,16.53z
				 M14.37,20.5c0.83,0.65,0.68,1.17-0.45,1.54c-0.03-0.03-0.1-0.05-0.2-0.05c-0.03,0-0.07,0-0.1,0c-0.27-0.09-0.47-0.28-0.6-0.56
				c-0.03-0.06-0.05-0.14-0.05-0.23c0.17,0.12,0.32,0.19,0.45,0.19c0.53-0.06,0.82-0.33,0.85-0.79
				C14.27,20.56,14.3,20.53,14.37,20.5z M21.67,21.57c0.03-0.09,0.08-0.16,0.15-0.19c0-0.03,0.02-0.05,0.05-0.05
				c0-0.03,0.02-0.08,0.05-0.14c0.17-0.09,0.37-0.14,0.6-0.14c0.3,0,0.53,0.09,0.7,0.28c0.1,0.19,0.13,0.36,0.1,0.51
				c-0.03,0.44-0.3,0.7-0.8,0.79c-0.27,0-0.5-0.12-0.7-0.37C21.62,22.08,21.57,21.85,21.67,21.57z M1.37,19.33
				c0.13,0.09,0.25,0.14,0.35,0.14c0.47,0,0.92,0,1.35,0c-0.07,0.37-0.33,0.59-0.8,0.65c-0.27,0-0.5-0.11-0.7-0.33
				C1.43,19.67,1.37,19.52,1.37,19.33z M24.12,25.63h-1.55c-0.1-0.16-0.1-0.34,0-0.56c0.07-0.09,0.12-0.16,0.15-0.19
				c0-0.03,0.02-0.05,0.05-0.05c0-0.03,0.02-0.08,0.05-0.14c0.17-0.09,0.35-0.14,0.55-0.14c0.13,0,0.25,0.01,0.35,0.05
				c0.13,0.03,0.23,0.11,0.3,0.23c0,0.03,0.03,0.05,0.1,0.05c0.1,0.19,0.13,0.34,0.1,0.47C24.22,25.45,24.18,25.54,24.12,25.63z
				 M2.67,22.97c0-0.09,0.02-0.16,0.05-0.19c0.03-0.06,0.07-0.11,0.1-0.14c0-0.06,0.02-0.09,0.05-0.09c0-0.03,0.03-0.06,0.1-0.09
				c0.27-0.19,0.52-0.19,0.75,0c0.87,0.65,0.8,1.17-0.2,1.54c-0.13,0-0.27-0.05-0.4-0.14c-0.07-0.03-0.15-0.08-0.25-0.14
				c-0.03,0-0.05-0.03-0.05-0.09c-0.03-0.03-0.05-0.06-0.05-0.09c-0.03,0-0.05-0.02-0.05-0.05c-0.03-0.09-0.05-0.16-0.05-0.19
				C2.67,23.21,2.67,23.1,2.67,22.97z M10.12,22.36c0.23-0.16,0.47-0.16,0.7,0c0.9,0.53,0.85,1.17-0.15,1.92
				c-0.17,0.06-0.3,0.11-0.4,0.14c-0.17,0.09-0.32,0.14-0.45,0.14c-0.07,0-0.12-0.02-0.15-0.05c-0.07,0.03-0.15,0.05-0.25,0.05
				c-0.23,0-0.47-0.11-0.7-0.33c-0.2-0.22-0.25-0.47-0.15-0.75c0.07-0.09,0.12-0.16,0.15-0.19c0-0.03,0.02-0.05,0.05-0.05
				c0-0.03,0.02-0.06,0.05-0.09c0.2-0.13,0.38-0.19,0.55-0.19C9.57,22.75,9.82,22.55,10.12,22.36z M47.32,21.94
				c-0.03-0.03-0.08-0.06-0.15-0.09c-0.2-0.19-0.23-0.44-0.1-0.75c0.03-0.09,0.07-0.16,0.1-0.19c0-0.03,0.03-0.05,0.1-0.05
				c0-0.03,0.02-0.06,0.05-0.09c0.17-0.12,0.35-0.19,0.55-0.19c0.3,0,0.53,0.09,0.7,0.28c0.13,0.19,0.18,0.36,0.15,0.51
				c-0.03,0.44-0.32,0.7-0.85,0.79c-0.03,0-0.08,0-0.15,0l0.1,0.05c0.13,0.19,0.18,0.36,0.15,0.51c-0.07,0.47-0.35,0.73-0.85,0.79
				c-0.23,0-0.45-0.11-0.65-0.33c-0.23-0.19-0.28-0.44-0.15-0.75c0.07-0.06,0.12-0.13,0.15-0.19c0-0.03,0.02-0.05,0.05-0.05
				c0-0.03,0.02-0.06,0.05-0.09c0.17-0.12,0.35-0.19,0.55-0.19C47.22,21.94,47.28,21.94,47.32,21.94z M62.57,21.99
				c0-0.03,0.03-0.06,0.1-0.09c0.13-0.12,0.33-0.19,0.6-0.19s0.48,0.09,0.65,0.28c0.13,0.19,0.17,0.36,0.1,0.51
				c0,0.16-0.03,0.3-0.1,0.42c0.2,0.06,0.4,0.17,0.6,0.33c0.13,0.19,0.18,0.36,0.15,0.51c-0.07,0.44-0.33,0.7-0.8,0.79
				c-0.3-0.09-0.63-0.17-1-0.23c-0.5-0.13-0.7-0.45-0.6-0.98c0.03-0.06,0.08-0.11,0.15-0.14c0-0.03,0.02-0.05,0.05-0.05
				c0-0.06,0.02-0.11,0.05-0.14h0.05l-0.05-0.05c-0.2-0.19-0.23-0.44-0.1-0.75c0.03-0.06,0.07-0.13,0.1-0.19
				C62.52,22.01,62.53,21.99,62.57,21.99z M59.72,17.69c0.2-0.09,0.4-0.14,0.6-0.14c0.3,0,0.53,0.09,0.7,0.28
				c0.1,0.19,0.13,0.36,0.1,0.51c-0.03,0.44-0.3,0.68-0.8,0.75c-0.23,0-0.47-0.11-0.7-0.33c-0.2-0.19-0.23-0.44-0.1-0.75
				c0.03-0.06,0.07-0.11,0.1-0.14c0-0.03,0.02-0.05,0.05-0.05C59.67,17.77,59.68,17.72,59.72,17.69z M55.72,19.84
				c0.07-0.06,0.12-0.11,0.15-0.14c0-0.06,0.02-0.09,0.05-0.09c0-0.03,0.02-0.06,0.05-0.09c0.33-0.16,0.67-0.16,1,0
				c1,0.53,0.95,1.04-0.15,1.54c-0.23-0.06-0.5-0.16-0.8-0.28C55.72,20.53,55.62,20.22,55.72,19.84z M25.67,19.89
				c0,0.06,0,0.11,0,0.14c-0.03,0.44-0.3,0.7-0.8,0.79c-0.23,0-0.45-0.11-0.65-0.33c-0.23-0.19-0.3-0.44-0.2-0.75
				c0.07-0.09,0.13-0.16,0.2-0.19c0-0.03,0.02-0.05,0.05-0.05c0-0.03,0.03-0.06,0.1-0.09c0.13-0.13,0.3-0.19,0.5-0.19
				c0.2,0,0.37,0.03,0.5,0.09c0.1,0.06,0.17,0.12,0.2,0.19C25.63,19.67,25.67,19.8,25.67,19.89z M34.22,20.96h0.05
				c0-0.03,0.05-0.06,0.15-0.09c0.07-0.06,0.17-0.13,0.3-0.19c-0.1,0-0.17-0.03-0.2-0.09c-0.23-0.19-0.27-0.44-0.1-0.75
				c0.03-0.06,0.07-0.11,0.1-0.14c0-0.06,0.02-0.09,0.05-0.09c0-0.03,0.03-0.06,0.1-0.09l0.05-0.05c0.17-0.09,0.32-0.14,0.45-0.14
				c0.3,0,0.53,0.09,0.7,0.28c0.17,0.19,0.2,0.36,0.1,0.51c-0.03,0.34-0.18,0.58-0.45,0.7c0.03,0.06,0.07,0.11,0.1,0.14
				c0.13,0.22,0.17,0.39,0.1,0.51c-0.03,0.47-0.28,0.73-0.75,0.79c-0.27,0-0.52-0.11-0.75-0.33c-0.2-0.19-0.23-0.44-0.1-0.75
				c0.03-0.06,0.07-0.11,0.1-0.14V20.96z M39.67,25.63h-1.7c-0.03-0.16-0.02-0.31,0.05-0.47c0.07-0.06,0.12-0.11,0.15-0.14
				c0-0.06,0.02-0.09,0.05-0.09c0-0.03,0.02-0.06,0.05-0.09c0.17-0.13,0.35-0.19,0.55-0.19c0.3,0,0.55,0.09,0.75,0.28
				c0.1,0.19,0.13,0.36,0.1,0.51C39.67,25.54,39.67,25.6,39.67,25.63z M40.02,23.3c-0.2-0.19-0.23-0.44-0.1-0.75
				c0.03-0.06,0.07-0.11,0.1-0.14c0-0.03,0.03-0.05,0.1-0.05c0-0.06,0.02-0.11,0.05-0.14c0.17-0.13,0.35-0.19,0.55-0.19
				c0.3,0,0.53,0.11,0.7,0.33c0.13,0.19,0.18,0.34,0.15,0.47c-0.03,0.47-0.32,0.73-0.85,0.79C40.48,23.63,40.25,23.52,40.02,23.3z
				 M31.62,22.55c0.17-0.09,0.35-0.14,0.55-0.14c0.27,0,0.5,0.09,0.7,0.28c0.13,0.19,0.18,0.36,0.15,0.51
				c-0.03,0.44-0.32,0.7-0.85,0.79c-0.23,0-0.45-0.12-0.65-0.37c-0.23-0.19-0.28-0.42-0.15-0.7c0.03-0.09,0.08-0.16,0.15-0.19
				c0-0.03,0.02-0.05,0.05-0.05C31.57,22.66,31.58,22.61,31.62,22.55z M54.57,23.53c0-0.03,0.03-0.05,0.1-0.05
				c0-0.03,0.03-0.08,0.1-0.14c0.17-0.09,0.35-0.14,0.55-0.14c0.27,0,0.48,0.09,0.65,0.28c0.13,0.19,0.18,0.36,0.15,0.51
				c-0.07,0.44-0.33,0.7-0.8,0.79c-0.23,0-0.48-0.12-0.75-0.37c-0.2-0.19-0.23-0.42-0.1-0.7C54.5,23.63,54.53,23.56,54.57,23.53z
				 M58.52,22.79c0.13,0.19,0.18,0.36,0.15,0.51c-0.07,0.47-0.35,0.73-0.85,0.79c-0.27,0-0.5-0.11-0.7-0.33
				c-0.2-0.19-0.23-0.44-0.1-0.75c0.03-0.06,0.07-0.13,0.1-0.19c0-0.03,0.02-0.05,0.05-0.05c0-0.03,0.03-0.06,0.1-0.09
				c0.17-0.13,0.35-0.19,0.55-0.19C58.12,22.5,58.35,22.6,58.52,22.79z M68.72,19.89c0-0.03,0.02-0.05,0.05-0.05
				c0-0.03,0.02-0.06,0.05-0.09c0.17-0.13,0.35-0.19,0.55-0.19c0.3,0,0.55,0.09,0.75,0.28c0.1,0.19,0.13,0.36,0.1,0.51
				c-0.03,0.47-0.32,0.73-0.85,0.79c-0.23,0-0.45-0.11-0.65-0.33c-0.2-0.19-0.25-0.44-0.15-0.75
				C68.63,20.01,68.68,19.95,68.72,19.89z M64.52,20.36c0-0.03,0.02-0.05,0.05-0.05c0-0.03,0.03-0.06,0.1-0.09
				c0.2-0.13,0.4-0.19,0.6-0.19c0.27,0,0.48,0.09,0.65,0.28c0.13,0.19,0.17,0.36,0.1,0.51c-0.03,0.43-0.28,0.7-0.75,0.79
				c-0.3,0-0.55-0.11-0.75-0.33c-0.2-0.22-0.23-0.47-0.1-0.75C64.45,20.45,64.48,20.39,64.52,20.36z"/>
			<path fill-rule="evenodd" clip-rule="evenodd" fill="#54555C" d="M8.27,17.88H8.24c-0.22-0.01-0.43-0.12-0.63-0.33
				c-0.2-0.22-0.23-0.47-0.1-0.75c0.03-0.09,0.07-0.16,0.1-0.19c0-0.03,0.02-0.05,0.05-0.05c0-0.03,0.02-0.06,0.05-0.09
				c0.17-0.13,0.35-0.19,0.55-0.19c0.3,0,0.55,0.09,0.75,0.28c0.13,0.19,0.17,0.36,0.1,0.51C9.08,17.52,8.8,17.79,8.27,17.88z
				 M20.67,20.64c-0.13,0.34-0.4,0.56-0.8,0.65c-0.23,0-0.45-0.13-0.65-0.37c-0.27-0.19-0.33-0.42-0.2-0.7
				c0.07-0.09,0.13-0.16,0.2-0.19c0-0.03,0.02-0.05,0.05-0.05c0-0.06,0.02-0.11,0.05-0.14c0.17-0.09,0.35-0.14,0.55-0.14
				c0.27,0,0.48,0.09,0.65,0.28c-0.07,0.19-0.07,0.37,0,0.56c0,0.03,0.02,0.05,0.05,0.05C20.57,20.62,20.6,20.64,20.67,20.64z
				 M44.57,13.16c0.13,0.19,0.18,0.36,0.15,0.51c-0.03,0.47-0.32,0.73-0.85,0.79c-0.2-0.03-0.43-0.06-0.7-0.09
				c-0.97-0.28-1.42-0.79-1.35-1.54c0.03-0.06,0.07-0.12,0.1-0.19c0-0.03,0.02-0.05,0.05-0.05c0-0.03,0.02-0.06,0.05-0.09
				C42.95,12.26,43.8,12.48,44.57,13.16z M50.57,17.46c-0.1-0.03-0.23-0.05-0.4-0.05c-0.2,0-0.4,0.06-0.6,0.19
				c-0.03,0.03-0.05,0.06-0.05,0.09c-0.07,0-0.1,0.02-0.1,0.05c-0.03,0.06-0.07,0.13-0.1,0.19c-0.03,0.13-0.05,0.22-0.05,0.28
				c-0.13-0.03-0.27-0.12-0.4-0.28c-0.1-0.22-0.12-0.45-0.05-0.7c0-0.03,0.02-0.06,0.05-0.09l0.1-0.05c0.03-0.09,0.07-0.16,0.1-0.19
				c0.17-0.09,0.37-0.14,0.6-0.14c0.33,0,0.6,0.09,0.8,0.28C50.6,17.23,50.63,17.37,50.57,17.46z M54.87,13.49
				c0-0.03,0.03-0.06,0.1-0.09l0.05-0.05c0-0.03,0.02-0.05,0.05-0.05c0-0.06,0.02-0.11,0.05-0.14c0.3-0.16,0.6-0.2,0.9-0.14
				c0.33,0,0.58,0.09,0.75,0.28c0.13,0.19,0.17,0.39,0.1,0.61c-0.13,0.53-0.53,0.76-1.2,0.7c-0.4,0-0.67-0.2-0.8-0.61
				C54.8,13.88,54.8,13.71,54.87,13.49z M59.27,13.49c0.1,0.22,0.13,0.39,0.1,0.51c-0.03,0.47-0.3,0.73-0.8,0.79
				c-0.23,0-0.47-0.11-0.7-0.33c-0.2-0.19-0.25-0.43-0.15-0.75c0.07-0.06,0.12-0.11,0.15-0.14c0-0.06,0.02-0.09,0.05-0.09
				c0-0.03,0.02-0.06,0.05-0.09c0.2-0.13,0.4-0.19,0.6-0.19C58.87,13.21,59.1,13.3,59.27,13.49z M59.42,16.9
				c0,0.03,0.03,0.08,0.1,0.14c0.1,0.19,0.13,0.36,0.1,0.51c-0.03,0.43-0.3,0.7-0.8,0.79c-0.23,0-0.45-0.13-0.65-0.38
				c-0.2-0.16-0.27-0.36-0.2-0.61c0-0.03,0-0.08,0-0.14c0.03-0.06,0.1-0.11,0.2-0.14c0-0.03,0.02-0.05,0.05-0.05
				c0-0.06,0.02-0.11,0.05-0.14c0.17-0.09,0.35-0.14,0.55-0.14C59.05,16.76,59.25,16.81,59.42,16.9z M33.02,13.82h-0.05
				c-0.33,0.25-0.75,0.31-1.25,0.19c-0.07,0-0.12,0-0.15,0s-0.1-0.01-0.2-0.05c-0.47-0.06-0.7-0.33-0.7-0.79c0-0.03,0-0.06,0-0.09
				s0.02-0.08,0.05-0.14c0-0.03,0.02-0.06,0.05-0.09l0.05-0.05c0-0.03,0.02-0.05,0.05-0.05v-0.09l0.15-0.05
				c0.37-0.19,0.77-0.26,1.2-0.23c0.17-0.09,0.37-0.14,0.6-0.14c0.33,0,0.6,0.09,0.8,0.28c0.13,0.19,0.17,0.36,0.1,0.51
				C33.68,13.49,33.45,13.75,33.02,13.82z M42.47,18.39c0-0.03,0.02-0.08,0.05-0.14c0.17-0.09,0.37-0.14,0.6-0.14
				c0.3,0,0.53,0.09,0.7,0.28c0.1,0.19,0.13,0.36,0.1,0.51c-0.03,0.44-0.3,0.7-0.8,0.79c-0.27,0-0.5-0.12-0.7-0.37
				c-0.2-0.19-0.25-0.42-0.15-0.7c0.07-0.09,0.12-0.16,0.15-0.19C42.42,18.41,42.43,18.39,42.47,18.39z M37.52,23.58
				c0.1,0.19,0.13,0.36,0.1,0.51c-0.03,0.47-0.3,0.73-0.8,0.79c-0.23,0-0.45-0.11-0.65-0.33c-0.23-0.19-0.3-0.44-0.2-0.75
				c0.1-0.06,0.17-0.12,0.2-0.19c0-0.03,0.02-0.05,0.05-0.05c0-0.03,0.02-0.06,0.05-0.09c0.17-0.13,0.35-0.19,0.55-0.19
				C37.12,23.3,37.35,23.39,37.52,23.58z"/>
			<path fill-rule="evenodd" clip-rule="evenodd" fill="#818588" d="M54.77,6.48c-0.13-0.03-0.23-0.08-0.3-0.14
				c-0.13-0.12-0.2-0.26-0.2-0.42c0-0.12,0.02-0.23,0.05-0.33c0.07-0.09,0.12-0.16,0.15-0.19c0-0.03,0.02-0.05,0.05-0.05
				c0-0.03,0.02-0.06,0.05-0.09c0.2-0.12,0.4-0.19,0.6-0.19c0.3,0,0.53,0.09,0.7,0.28c0.1,0.19,0.13,0.36,0.1,0.51
				c-0.03,0.43-0.3,0.7-0.8,0.79C55.03,6.67,54.9,6.61,54.77,6.48z M48.72,5.36c0.03-0.06,0.07-0.12,0.1-0.19
				c0-0.03,0.02-0.05,0.05-0.05c0-0.03,0.03-0.06,0.1-0.09c0.13-0.13,0.32-0.19,0.55-0.19c0.3,0,0.53,0.09,0.7,0.28
				c0.13,0.19,0.17,0.36,0.1,0.51c-0.03,0.47-0.3,0.73-0.8,0.79c-0.27,0-0.5-0.11-0.7-0.33C48.62,5.92,48.58,5.68,48.72,5.36z
				 M44.27,4.57c0.2-0.13,0.4-0.19,0.6-0.19c0.3,0,0.53,0.09,0.7,0.28c0.1,0.19,0.13,0.36,0.1,0.51c-0.03,0.47-0.3,0.73-0.8,0.79
				c-0.27,0-0.5-0.11-0.7-0.33c-0.2-0.19-0.25-0.44-0.15-0.75c0.07-0.06,0.12-0.11,0.15-0.14c0-0.06,0.02-0.09,0.05-0.09
				C44.22,4.63,44.23,4.6,44.27,4.57z M45.32,8.87c0.07,0.09,0.15,0.17,0.25,0.23c0.1,0.19,0.13,0.36,0.1,0.51
				c-0.03,0.4-0.25,0.65-0.65,0.75c-0.17-0.13-0.38-0.19-0.65-0.19c-0.23-0.03-0.42-0.03-0.55,0c-0.1-0.03-0.17-0.09-0.2-0.19
				c-0.13-0.22-0.15-0.44-0.05-0.65c0-0.03,0.02-0.08,0.05-0.14l0.05-0.05c0.03-0.06,0.08-0.11,0.15-0.14
				c0.13-0.12,0.32-0.19,0.55-0.19c0.07,0,0.18,0,0.35,0c0.03,0,0.08,0,0.15,0C45.03,8.82,45.18,8.84,45.32,8.87z M49.57,15.22h0.1
				c0.87,0.59,0.77,1.1-0.3,1.54c-0.27,0-0.5-0.12-0.7-0.37c-0.27-0.22-0.33-0.5-0.2-0.84c0.03-0.06,0.07-0.13,0.1-0.19
				c0-0.03,0.03-0.05,0.1-0.05c0-0.03,0.02-0.06,0.05-0.09C48.98,15.03,49.27,15.03,49.57,15.22z M46.17,14.42
				c-0.03,0-0.08,0-0.15,0c-0.7-0.53-0.7-1.06,0-1.59c0.3-0.15,0.55-0.15,0.75,0c1,0.59,0.88,1.14-0.35,1.63
				C46.35,14.44,46.27,14.42,46.17,14.42z M47.37,11.86c0-0.06,0.02-0.11,0.05-0.14c0.07-0.09,0.12-0.16,0.15-0.19
				c0-0.03,0.02-0.05,0.05-0.05c0-0.03,0.02-0.08,0.05-0.14c0.33-0.19,0.62-0.19,0.85,0c0.87,0.65,0.78,1.17-0.25,1.54
				c-0.07,0-0.2-0.03-0.4-0.09c-0.1-0.03-0.18-0.09-0.25-0.19c-0.03,0-0.05-0.01-0.05-0.05c-0.03-0.03-0.05-0.08-0.05-0.14
				c-0.07,0-0.1-0.02-0.1-0.05c-0.03-0.06-0.05-0.11-0.05-0.14C47.37,12.11,47.37,11.98,47.37,11.86z M35.92,4.57l-0.1,0.09
				c-0.07,0.06-0.1,0.11-0.1,0.14c-0.07,0.22-0.03,0.44,0.1,0.65c0.1,0.16,0.23,0.25,0.4,0.28c-0.23,0.28-0.58,0.4-1.05,0.37
				c-0.4,0-0.65-0.19-0.75-0.56c-0.13-0.16-0.13-0.33,0-0.51c0-0.06,0.02-0.11,0.05-0.14l0.05-0.05c0-0.03,0.02-0.05,0.05-0.05
				c0-0.03,0.03-0.08,0.1-0.14c0.27-0.12,0.57-0.17,0.9-0.14C35.67,4.52,35.78,4.54,35.92,4.57z"/>
			<path fill-rule="evenodd" clip-rule="evenodd" fill="#818387" d="M61.32,10.55c0-0.03,0.02-0.06,0.05-0.09
				c0.37-0.19,0.72-0.19,1.05,0c0.93,0.59,0.87,1.11-0.2,1.54c-0.23-0.03-0.5-0.13-0.8-0.28c-0.3-0.25-0.4-0.56-0.3-0.93
				c0.03-0.06,0.08-0.11,0.15-0.14C61.27,10.58,61.28,10.55,61.32,10.55z M53.97,10.17c0.17,0.06,0.28,0.16,0.35,0.28
				c0.13,0.19,0.18,0.39,0.15,0.61c-0.17,0.53-0.55,0.76-1.15,0.7c-0.43,0-0.72-0.19-0.85-0.56c-0.1-0.16-0.1-0.33,0-0.51
				c0-0.03,0.02-0.08,0.05-0.14l0.05-0.05c0-0.03,0.03-0.05,0.1-0.05c0-0.03,0.02-0.06,0.05-0.09c0.03,0.06,0.08,0.11,0.15,0.14
				c0.2,0.09,0.35,0.14,0.45,0.14C53.65,10.52,53.87,10.36,53.97,10.17z M52.17,14.66c0-0.03,0.02-0.08,0.05-0.14
				c0.17-0.09,0.35-0.14,0.55-0.14c0.33,0,0.58,0.09,0.75,0.28c0.1,0.19,0.13,0.36,0.1,0.51c0,0.03,0,0.06,0,0.09
				c-0.07,0.37-0.35,0.61-0.85,0.7c-0.23,0-0.45-0.12-0.65-0.37c-0.13-0.09-0.2-0.2-0.2-0.33c0-0.13,0.02-0.25,0.05-0.37
				c0.03-0.09,0.08-0.16,0.15-0.19C52.12,14.67,52.13,14.66,52.17,14.66z M62.27,13.3c0.03-0.09,0.08-0.16,0.15-0.19
				c0-0.03,0.02-0.05,0.05-0.05c0-0.03,0.02-0.08,0.05-0.14c0.17-0.09,0.35-0.14,0.55-0.14c0.33,0,0.58,0.09,0.75,0.28
				c0.1,0.19,0.13,0.36,0.1,0.51c-0.03,0.43-0.32,0.7-0.85,0.79c-0.23,0-0.45-0.13-0.65-0.37C62.22,13.82,62.17,13.58,62.27,13.3z
				 M70.02,13.02c0.3,0,0.53,0.09,0.7,0.28c0.1,0.19,0.13,0.36,0.1,0.51c-0.03,0.43-0.3,0.7-0.8,0.79c-0.27,0-0.5-0.13-0.7-0.38
				c-0.2-0.19-0.25-0.43-0.15-0.75c0.07-0.06,0.12-0.11,0.15-0.14c0-0.03,0.02-0.05,0.05-0.05c0-0.06,0.02-0.11,0.05-0.14
				C69.58,13.07,69.78,13.02,70.02,13.02z"/>
			<path fill-rule="evenodd" clip-rule="evenodd" fill="#C61C1C" d="M95.12,5.04c2.13-0.34,2.37,0.05,0.7,1.17
				c-0.43-0.03-0.75-0.22-0.95-0.56C94.67,5.3,94.75,5.1,95.12,5.04z M100.57,5.36c1.9-0.4,2.23-0.02,1,1.17
				c-0.47-0.06-0.83-0.28-1.1-0.65C100.27,5.6,100.3,5.43,100.57,5.36z M104.57,7.89c-0.23,0-0.47-0.11-0.7-0.33
				c-0.27-0.28-0.23-0.47,0.1-0.56C105.6,6.56,105.8,6.86,104.57,7.89z M85.47,7.98c0.33-0.06,0.58-0.06,0.75,0
				c0.43,0.06,0.18,0.42-0.75,1.07c-0.27,0-0.48-0.09-0.65-0.28c-0.33-0.44-0.27-0.68,0.2-0.75C85.22,8,85.37,7.98,85.47,7.98z
				 M86.67,5.83c0.13-0.16,0.27-0.33,0.4-0.51c0.07-0.16,0.15-0.28,0.25-0.37c0.6,0.5,0.38,0.81-0.65,0.93V5.83z M84.82,11.86
				c-0.03-0.34,0.08-0.53,0.35-0.56c1.97-0.03,2.23,0.65,0.8,2.05C85.2,13.16,84.82,12.67,84.82,11.86z M88.22,16.81
				c-0.33-0.09-0.6-0.28-0.8-0.56c-0.03-0.06-0.07-0.11-0.1-0.14c0-0.03-0.02-0.06-0.05-0.09c-0.27-0.37-0.22-0.59,0.15-0.65
				c0.73-0.03,1.27,0.03,1.6,0.19c0.2,0.16,0.22,0.36,0.05,0.61c-0.17,0.22-0.42,0.45-0.75,0.7C88.28,16.85,88.25,16.84,88.22,16.81
				z M96.02,14.19c-0.27-0.34-0.23-0.54,0.1-0.61c1.6-0.5,1.77-0.2,0.5,0.89C96.38,14.47,96.18,14.38,96.02,14.19z M102.72,16.53
				c-0.13,0.16-0.32,0.3-0.55,0.42c-0.23,0-0.43-0.09-0.6-0.28c-0.1-0.06-0.15-0.13-0.15-0.19c-0.1-0.22-0.03-0.36,0.2-0.42
				C102.98,15.69,103.35,15.84,102.72,16.53z M103.67,20.12c-0.43-0.03-0.7-0.25-0.8-0.65c-0.07-0.34-0.02-0.53,0.15-0.56
				C104.82,18.44,105.03,18.85,103.67,20.12z M77.67,7.33h-0.05c0.2-0.34,0.42-0.67,0.65-0.98l0.05-0.09
				C78.28,6.56,78.07,6.92,77.67,7.33z M75.82,6.95c-0.17-0.56-0.02-1.11,0.45-1.63l0.05-0.05c0.67,0.44,0.6,0.98-0.2,1.63
				C76.02,6.94,75.92,6.95,75.82,6.95z M79.02,9.71c-0.47-0.59-0.33-1.21,0.4-1.87V7.79c0.47,0.53,0.35,1.15-0.35,1.87
				C79.07,9.69,79.05,9.71,79.02,9.71z M81.72,5.92c0-0.03,0-0.06,0-0.09c-0.3-0.06-0.32-0.23-0.05-0.51
				c0.23-0.25,0.42-0.48,0.55-0.7c0.53,0.19,1,0.36,1.4,0.51v0.05C83.28,6.02,82.65,6.27,81.72,5.92z M80.42,15.97
				c-0.13,0.06-0.27,0.12-0.4,0.19c-0.23-0.03-0.42-0.13-0.55-0.28c-0.3-0.22-0.4-0.58-0.3-1.07c0.1-0.34,0.25-0.48,0.45-0.42
				C81.28,14.41,81.55,14.94,80.42,15.97z M78.87,19.84c-0.77-0.5-0.67-0.75,0.3-0.75c2.43,0,2.98,0.53,1.65,1.59
				C80.08,20.56,79.43,20.28,78.87,19.84z M128.12,4.15c1.6-0.44,1.8-0.12,0.6,0.93c-0.27,0-0.5-0.11-0.7-0.33
				C127.75,4.45,127.78,4.24,128.12,4.15z M135.67,11.72c-0.13-0.31-0.07-0.48,0.2-0.51c1.93-0.34,2.18,0.03,0.75,1.12
				C136.18,12.29,135.87,12.09,135.67,11.72z M121.87,8.35c-0.27-0.31-0.25-0.5,0.05-0.56c1.67-0.44,1.87-0.14,0.6,0.89
				C122.28,8.68,122.07,8.57,121.87,8.35z M122.12,22.97c-0.1-0.34-0.05-0.53,0.15-0.56c1.73-0.53,1.97-0.16,0.7,1.12
				C122.5,23.53,122.22,23.34,122.12,22.97z M106.97,24.89c-0.23,0-0.42-0.08-0.55-0.23c-0.4-0.41-0.35-0.69,0.15-0.84
				C108.5,23.41,108.63,23.77,106.97,24.89z M123.37,18.49c-0.2,0.19-0.48,0.36-0.85,0.51c-0.9-0.31-1.12-0.86-0.65-1.63
				c0.1-0.19,0.22-0.29,0.35-0.33c0.07,0,0.15,0,0.25,0c0.1,0,0.18,0,0.25,0c1,0.25,1.35,0.61,1.05,1.08
				C123.7,18.18,123.57,18.3,123.37,18.49z"/>
			<path fill-rule="evenodd" clip-rule="evenodd" fill="#D82B2B" d="M104.57,7.89c1.23-1.03,1.03-1.32-0.6-0.89
				c-0.33,0.09-0.37,0.28-0.1,0.56C104.1,7.78,104.33,7.89,104.57,7.89z M100.57,5.36c-0.27,0.06-0.3,0.23-0.1,0.51
				c0.27,0.37,0.63,0.59,1.1,0.65C102.8,5.35,102.47,4.96,100.57,5.36z M95.12,5.04c-0.37,0.06-0.45,0.26-0.25,0.61
				c0.2,0.34,0.52,0.53,0.95,0.56C97.48,5.08,97.25,4.7,95.12,5.04z M87.92,3.82c0,0.03-0.03,0.08-0.1,0.14
				c-0.47,0.53-0.58,0.89-0.35,1.07h0.1C88.43,4.54,88.55,4.13,87.92,3.82z M86.67,5.83v0.05c1.03-0.13,1.25-0.44,0.65-0.93
				c-0.1,0.09-0.18,0.22-0.25,0.37C86.93,5.5,86.8,5.68,86.67,5.83z M85.47,7.98c-0.1,0-0.25,0.02-0.45,0.05
				c-0.47,0.06-0.53,0.31-0.2,0.75c0.17,0.19,0.38,0.28,0.65,0.28c0.93-0.65,1.18-1.01,0.75-1.07c-0.13-0.25-0.35-0.53-0.65-0.84
				c-0.1,0-0.18,0-0.25,0c0.07-0.06,0.15-0.09,0.25-0.09c-0.1-0.06-0.18-0.14-0.25-0.23v0.33v0.14c0,0.16-0.08,0.31-0.25,0.47
				C85.23,7.81,85.37,7.89,85.47,7.98z M87.27,9.94c0,0.16-0.07,0.31-0.2,0.47c1.73-0.9,1.83-1.32,0.3-1.26L87.27,9.94z M92.72,4.94
				c-1.03,1.12-0.92,1.98,0.35,2.57c0.23-0.34,0.48-0.7,0.75-1.08c-0.1,0-0.17-0.02-0.2-0.05C93.25,5.89,92.95,5.41,92.72,4.94z
				 M84.82,11.86c0,0.81,0.38,1.31,1.15,1.5c1.43-1.4,1.17-2.09-0.8-2.05C84.9,11.33,84.78,11.51,84.82,11.86z M85.87,11.3
				c1.6,0.12,1.6-0.09,0-0.65V11.3z M87.42,16.25c-0.1,0-0.22,0.02-0.35,0.05c-0.33,0.03-0.42,0.2-0.25,0.51
				c0.17,0.34,0.43,0.51,0.8,0.51c0.23-0.19,0.43-0.36,0.6-0.51c0.03,0.03,0.07,0.05,0.1,0.05c0.33-0.25,0.58-0.48,0.75-0.7v0.09
				c0.5,0.34,1.07,0.54,1.7,0.61c0.23-0.22,0.42-0.42,0.55-0.61c0.53-0.72-0.13-0.96-2-0.75c-0.13,0-0.23,0.01-0.3,0.05
				c-0.33-0.16-0.87-0.22-1.6-0.19c-0.37,0.06-0.42,0.28-0.15,0.65c0.03,0.03,0.05,0.06,0.05,0.09
				C87.35,16.14,87.38,16.18,87.42,16.25z M88.52,21.66c-0.6,0.06-0.97,0.51-1.1,1.35c0.9,2.43,1.77,2.51,2.6,0.23
				c0.3-0.59-0.12-1.11-1.25-1.54L88.52,21.66z M93.47,21.66c0.7,0.93,1.37,0.78,2-0.47c0.3,0.44,0.73,0.65,1.3,0.65
				c2.53-0.65,2.33-1.18-0.6-1.59c-0.1,0-0.18-0.02-0.25-0.05c0-0.09-0.28-0.22-0.85-0.38c-0.23,1-0.73,1.53-1.5,1.59
				C93.5,21.43,93.47,21.51,93.47,21.66z M89.97,10.97c1.07-1.06,0.73-1.42-1-1.07c-0.47,0.06-0.62,0.39-0.45,0.98
				C89.45,10.97,89.93,11,89.97,10.97z M96.02,14.19c0.17,0.19,0.37,0.28,0.6,0.28c1.27-1.09,1.1-1.38-0.5-0.89
				C95.78,13.65,95.75,13.85,96.02,14.19z M95.87,13.12c1.57-1.03,1.95-1.99,1.15-2.9c-0.5-0.56-0.67-0.34-0.5,0.65
				C96.65,11.59,96.43,12.34,95.87,13.12z M103.67,20.12c1.37-1.28,1.15-1.68-0.65-1.21c-0.17,0.03-0.22,0.22-0.15,0.56
				C102.97,19.87,103.23,20.09,103.67,20.12z M102.72,16.53c0.63-0.68,0.27-0.84-1.1-0.47c-0.23,0.06-0.3,0.2-0.2,0.42
				c0,0.06,0.05,0.12,0.15,0.19c0.17,0.19,0.37,0.28,0.6,0.28C102.4,16.82,102.58,16.68,102.72,16.53z M99.67,12.23
				c1.87-0.13,1.97-0.38,0.3-0.75C99.57,11.39,99.47,11.64,99.67,12.23z M77.67,7.33c0.4-0.41,0.62-0.76,0.65-1.07l-0.05,0.09
				c-0.23,0.31-0.45,0.64-0.65,0.98H77.67z M76.02,7.23c0.1,0,0.18,0,0.25,0V7.14C76.2,7.17,76.12,7.2,76.02,7.23z M75.82,6.95
				c0.1,0,0.2-0.02,0.3-0.05c0.8-0.65,0.87-1.2,0.2-1.63l-0.05,0.05C75.8,5.85,75.65,6.39,75.82,6.95z M76.52,9.99l-0.05,0.09
				c-0.4,0.4-0.58,0.86-0.55,1.35c0.03,0,0.07-0.03,0.1-0.09C76.65,10.88,76.82,10.42,76.52,9.99z M81.72,5.92
				c0.93,0.34,1.57,0.09,1.9-0.75V5.13c-0.4-0.16-0.87-0.33-1.4-0.51c-0.13,0.22-0.32,0.45-0.55,0.7c-0.27,0.28-0.25,0.45,0.05,0.51
				C81.72,5.86,81.72,5.89,81.72,5.92z M79.02,9.71c0.03,0,0.05-0.02,0.05-0.05c0.7-0.72,0.82-1.34,0.35-1.87v0.05
				C78.68,8.49,78.55,9.12,79.02,9.71z M134.87,25.63c-0.2-1.74-0.4-1.74-0.6,0h-45.8c-0.57-0.84-1.2-1.12-1.9-0.84
				c0.33,0.16,0.58,0.34,0.75,0.56c0.07,0.06,0.1,0.16,0.1,0.28h-2c-0.3-0.12-0.4-0.22-0.3-0.28c1.07-0.65,1.42-1.37,1.05-2.15
				c-0.23-0.56-0.4-0.81-0.5-0.75c-0.9,1.06-1.5,2.12-1.8,3.17H73.32V3.4h0.1V3.26h69.9v22.37H134.87z M73.42,21.2
				c0.1,0,0.17,0,0.2,0c0-0.16,0-0.3,0-0.42c0-0.16,0-0.31,0-0.47L73.42,21.2z M80.42,15.97c1.13-1.03,0.87-1.56-0.8-1.59
				c-0.2-0.06-0.35,0.08-0.45,0.42c-0.1,0.5,0,0.86,0.3,1.07c0.13,0.16,0.32,0.25,0.55,0.28C80.15,16.09,80.28,16.03,80.42,15.97z
				 M81.37,15.97c-0.17,0.09-0.23,0.28-0.2,0.56c0.13,0.41,0.45,0.62,0.95,0.65c0.57-0.53,0.87-0.92,0.9-1.17
				c0.03-0.31-0.48-0.36-1.55-0.14L81.37,15.97z M75.67,13.82c-0.2,0.28-0.43,0.59-0.7,0.93c0.4,0.34,0.82,0.58,1.25,0.7
				c0.03-0.06,0.07-0.13,0.1-0.19c0.27-0.34,0.5-0.7,0.7-1.07c-0.03,0-0.08-0.02-0.15-0.05c-0.37-0.19-0.75-0.36-1.15-0.51
				C75.72,13.66,75.7,13.72,75.67,13.82z M78.87,19.84c0.57,0.44,1.22,0.72,1.95,0.84c1.33-1.06,0.78-1.59-1.65-1.59
				C78.2,19.1,78.1,19.34,78.87,19.84z M84.12,21.15c1.23-1.09,0.97-1.43-0.8-1.03c-0.3,0.09-0.32,0.31-0.05,0.65
				C83.5,21.03,83.78,21.15,84.12,21.15z M91.92,24c-0.3-1.09-0.78-1.14-1.45-0.14c0.9,0.5,1.47,0.81,1.7,0.93L91.92,24z
				 M128.12,4.15c-0.33,0.09-0.37,0.29-0.1,0.61c0.2,0.22,0.43,0.33,0.7,0.33C129.92,4.03,129.72,3.71,128.12,4.15z M129.32,9.15
				c-0.3,0.09-0.32,0.28-0.05,0.56c0.23,0.25,0.47,0.37,0.7,0.37C131.17,9.02,130.95,8.71,129.32,9.15z M132.42,12.65
				c-0.33,0-0.52,0.17-0.55,0.51c-0.17,0.81,0.12,1.29,0.85,1.45C134.62,13.3,134.52,12.65,132.42,12.65z M135.67,11.72
				c0.2,0.37,0.52,0.58,0.95,0.61c1.43-1.09,1.18-1.46-0.75-1.12C135.6,11.23,135.53,11.4,135.67,11.72z M138.92,21.48
				c0.1,0.31,0.28,0.47,0.55,0.47c2.17-0.78,2.55-1.65,1.15-2.62c-0.33-0.22-0.65-0.17-0.95,0.14
				C139.03,20.09,138.78,20.76,138.92,21.48z M135.87,18.91c-1.53,0-2.1,0.92-1.7,2.76c0.23,1.18,0.65,0.95,1.25-0.7
				c0.03-0.12,0.08-0.31,0.15-0.56L135.87,18.91z M122.32,7c0.27,0.22,0.52,0.33,0.75,0.33c1.2-1.06,0.98-1.35-0.65-0.89
				C122.12,6.5,122.08,6.69,122.32,7z M121.87,8.35c0.2,0.22,0.42,0.33,0.65,0.33c1.27-1.03,1.07-1.32-0.6-0.89
				C121.62,7.86,121.6,8.04,121.87,8.35z M107.07,6.02c0.43,0.47,0.98,0.72,1.65,0.75c1.37-1.25,0.85-1.68-1.55-1.31
				C106.8,5.55,106.77,5.74,107.07,6.02z M109.47,8.59c-0.63-0.16-0.97,0.17-1,0.98C110.4,9.26,110.73,8.93,109.47,8.59z
				 M105.07,9.71c-0.03,0.03-0.05,0.12-0.05,0.28C108.48,9.4,108.5,9.3,105.07,9.71z M109.87,11.2c-0.27-0.87-0.98-0.98-2.15-0.33
				C110.02,13.99,110.73,14.1,109.87,11.2z M109.37,18.25c-1.17-0.44-1.83-0.05-2,1.17c1.47,0.19,2.33-0.13,2.6-0.93L109.37,18.25z
				 M108.12,11.76c-0.77,1.09-1.38,2.29-1.85,3.6c-0.07,0.16-0.1,0.31-0.1,0.47c1.03-0.87,1.65-2.07,1.85-3.6
				C108.08,12.07,108.12,11.92,108.12,11.76z M123.32,13.58c1.23-1.06,1.05-1.37-0.55-0.93c-0.37,0.09-0.38,0.31-0.05,0.65
				C122.88,13.49,123.08,13.58,123.32,13.58z M115.62,19.89c1.2-1.03,1-1.32-0.6-0.89c-0.3,0.06-0.32,0.25-0.05,0.56
				C115.17,19.78,115.38,19.89,115.62,19.89z M123.37,18.49c-0.17,0.19-0.35,0.37-0.55,0.56c-0.07,0.09-0.1,0.22-0.1,0.37
				c1.07-1.18,1.42-1.62,1.05-1.31c0.3-0.47-0.05-0.83-1.05-1.08c-0.07,0-0.15,0-0.25,0c-0.1,0-0.18,0-0.25,0
				c-0.13,0.03-0.25,0.14-0.35,0.33c-0.47,0.78-0.25,1.32,0.65,1.63C122.88,18.85,123.17,18.67,123.37,18.49z M106.97,24.89
				c1.67-1.12,1.53-1.48-0.4-1.07c-0.5,0.16-0.55,0.44-0.15,0.84C106.55,24.81,106.73,24.89,106.97,24.89z M122.12,22.97
				c0.1,0.37,0.38,0.56,0.85,0.56c1.27-1.28,1.03-1.65-0.7-1.12C122.07,22.44,122.02,22.63,122.12,22.97z"/>
			<path fill-rule="evenodd" clip-rule="evenodd" fill="#E43A3A" d="M87.92,3.82c0.63,0.31,0.52,0.72-0.35,1.21h-0.1
				c-0.23-0.19-0.12-0.54,0.35-1.07C87.88,3.9,87.92,3.85,87.92,3.82z M92.72,4.94c0.23,0.47,0.53,0.95,0.9,1.45
				c0.03,0.03,0.1,0.05,0.2,0.05c-0.27,0.37-0.52,0.73-0.75,1.08C91.8,6.92,91.68,6.06,92.72,4.94z M89.07,16.15
				c0.17-0.25,0.15-0.45-0.05-0.61c0.07-0.03,0.17-0.05,0.3-0.05c1.87-0.22,2.53,0.03,2,0.75c-0.13,0.19-0.32,0.39-0.55,0.61
				c-0.63-0.06-1.2-0.26-1.7-0.61V16.15z M87.42,16.25c0.2,0.28,0.47,0.47,0.8,0.56c-0.17,0.16-0.37,0.33-0.6,0.51
				c-0.37,0-0.63-0.17-0.8-0.51c-0.17-0.31-0.08-0.48,0.25-0.51C87.2,16.26,87.32,16.25,87.42,16.25z M93.47,21.66
				c0-0.16,0.03-0.23,0.1-0.23c0.77-0.06,1.27-0.59,1.5-1.59c0.57,0.16,0.85,0.28,0.85,0.38c0.07,0.03,0.15,0.05,0.25,0.05
				c2.93,0.41,3.13,0.93,0.6,1.59c-0.57,0-1-0.22-1.3-0.65C94.83,22.44,94.17,22.6,93.47,21.66z M76.52,9.99
				c0.3,0.44,0.13,0.89-0.5,1.36c-0.03,0.06-0.07,0.09-0.1,0.09c-0.03-0.5,0.15-0.95,0.55-1.35L76.52,9.99z M81.37,15.97l0.1-0.09
				c1.07-0.22,1.58-0.17,1.55,0.14c-0.03,0.25-0.33,0.64-0.9,1.17c-0.5-0.03-0.82-0.25-0.95-0.65
				C81.13,16.25,81.2,16.06,81.37,15.97z M75.67,13.82c0.03-0.09,0.05-0.16,0.05-0.19c0.4,0.15,0.78,0.33,1.15,0.51
				c0.07,0.03,0.12,0.05,0.15,0.05c-0.2,0.37-0.43,0.73-0.7,1.07c-0.03,0.06-0.07,0.12-0.1,0.19c-0.43-0.13-0.85-0.36-1.25-0.7
				C75.23,14.41,75.47,14.1,75.67,13.82z M84.12,21.15c-0.33,0-0.62-0.13-0.85-0.37c-0.27-0.34-0.25-0.56,0.05-0.65
				C85.08,19.72,85.35,20.06,84.12,21.15z M132.42,12.65c2.1,0,2.2,0.65,0.3,1.96c-0.73-0.16-1.02-0.64-0.85-1.45
				C131.9,12.82,132.08,12.65,132.42,12.65z M129.32,9.15c1.63-0.44,1.85-0.13,0.65,0.93c-0.23,0-0.47-0.13-0.7-0.37
				C129,9.43,129.02,9.24,129.32,9.15z M138.92,21.48c-0.13-0.72,0.12-1.38,0.75-2.01c0.3-0.31,0.62-0.36,0.95-0.14
				c1.4,0.96,1.02,1.84-1.15,2.62C139.2,21.94,139.02,21.79,138.92,21.48z M122.32,7c-0.23-0.31-0.2-0.5,0.1-0.56
				c1.63-0.47,1.85-0.17,0.65,0.89C122.83,7.33,122.58,7.22,122.32,7z M107.07,6.02c-0.3-0.28-0.27-0.47,0.1-0.56
				c2.4-0.37,2.92,0.06,1.55,1.31C108.05,6.73,107.5,6.48,107.07,6.02z M115.62,19.89c-0.23,0-0.45-0.11-0.65-0.33
				c-0.27-0.31-0.25-0.5,0.05-0.56C116.62,18.57,116.82,18.86,115.62,19.89z M123.32,13.58c-0.23,0-0.43-0.09-0.6-0.28
				c-0.33-0.34-0.32-0.56,0.05-0.65C124.37,12.21,124.55,12.53,123.32,13.58z"/>
			<path fill-rule="evenodd" clip-rule="evenodd" fill="#E73F3F" d="M86.22,7.98c-0.17-0.06-0.42-0.06-0.75,0
				c-0.1-0.09-0.23-0.17-0.4-0.23c0.17-0.16,0.25-0.31,0.25-0.47V7.14V6.81c0.07,0.09,0.15,0.17,0.25,0.23
				c-0.1,0-0.18,0.03-0.25,0.09c0.07,0,0.15,0,0.25,0C85.87,7.45,86.08,7.73,86.22,7.98z"/>
			<path fill-rule="evenodd" clip-rule="evenodd" fill="#E03B3A" d="M87.27,9.94l0.1-0.79c1.53-0.06,1.43,0.36-0.3,1.26
				C87.2,10.25,87.27,10.1,87.27,9.94z"/>
			<path fill-rule="evenodd" clip-rule="evenodd" fill="#DD3233" d="M85.87,11.3v-0.65C87.47,11.2,87.47,11.42,85.87,11.3z"/>
			<path fill-rule="evenodd" clip-rule="evenodd" fill="#E43234" d="M88.52,21.66l0.25,0.05c1.13,0.44,1.55,0.95,1.25,1.54
				c-0.83,2.27-1.7,2.2-2.6-0.23C87.55,22.18,87.92,21.73,88.52,21.66z"/>
			<path fill-rule="evenodd" clip-rule="evenodd" fill="#E03334" d="M89.97,10.97c-0.03,0.03-0.52,0-1.45-0.09
				c-0.17-0.59-0.02-0.92,0.45-0.98C90.7,9.55,91.03,9.91,89.97,10.97z"/>
			<path fill-rule="evenodd" clip-rule="evenodd" fill="#E33737" d="M95.87,13.12c0.57-0.78,0.78-1.53,0.65-2.24
				c-0.17-1,0-1.21,0.5-0.65C97.82,11.13,97.43,12.09,95.87,13.12z M135.87,18.91l-0.3,1.5c-0.07,0.25-0.12,0.44-0.15,0.56
				c-0.6,1.65-1.02,1.88-1.25,0.7C133.77,19.83,134.33,18.91,135.87,18.91z"/>
			<path fill-rule="evenodd" clip-rule="evenodd" fill="#E13435" d="M99.67,12.23c-0.2-0.59-0.1-0.84,0.3-0.75
				C101.63,11.86,101.53,12.11,99.67,12.23z M109.87,11.2c0.87,2.9,0.15,2.79-2.15-0.33C108.88,10.22,109.6,10.33,109.87,11.2z"/>
			<path fill-rule="evenodd" clip-rule="evenodd" fill="#965056" d="M73.42,21.2l0.2-0.89c0,0.16,0,0.31,0,0.47
				c0,0.13,0,0.27,0,0.42C73.58,21.2,73.52,21.2,73.42,21.2z"/>
			<path fill-rule="evenodd" clip-rule="evenodd" fill="#E23032" d="M91.92,24l0.25,0.79c-0.23-0.12-0.8-0.44-1.7-0.93
				C91.13,22.86,91.62,22.91,91.92,24z"/>
			<path fill-rule="evenodd" clip-rule="evenodd" fill="#E84241" d="M87.42,25.63c0-0.12-0.03-0.22-0.1-0.28
				c-0.17-0.22-0.42-0.41-0.75-0.56c0.7-0.28,1.33,0,1.9,0.84H87.42z"/>
			<path fill-rule="evenodd" clip-rule="evenodd" fill="#DF3333" d="M83.87,25.63c0.3-1.06,0.9-2.12,1.8-3.17
				c0.1-0.06,0.27,0.19,0.5,0.75c0.37,0.78,0.02,1.5-1.05,2.15c-0.1,0.06,0,0.16,0.3,0.28H83.87z"/>
			<path fill-rule="evenodd" clip-rule="evenodd" fill="#E03233" d="M105.07,9.71c3.43-0.41,3.42-0.31-0.05,0.28
				C105.02,9.83,105.03,9.74,105.07,9.71z"/>
			<path fill-rule="evenodd" clip-rule="evenodd" fill="#E43637" d="M109.47,8.59c1.27,0.34,0.93,0.67-1,0.98
				C108.5,8.76,108.83,8.43,109.47,8.59z"/>
			<path fill-rule="evenodd" clip-rule="evenodd" fill="#DF3737" d="M108.12,11.76c0,0.16-0.03,0.31-0.1,0.47
				c-0.2,1.52-0.82,2.72-1.85,3.6c0-0.16,0.03-0.31,0.1-0.47C106.73,14.05,107.35,12.85,108.12,11.76z"/>
			<path fill-rule="evenodd" clip-rule="evenodd" fill="#E13B3B" d="M109.37,18.25l0.6,0.23c-0.27,0.81-1.13,1.12-2.6,0.93
				C107.53,18.21,108.2,17.82,109.37,18.25z"/>
			<path fill-rule="evenodd" clip-rule="evenodd" fill="#E13334" d="M123.37,18.49c0.2-0.19,0.33-0.31,0.4-0.37
				c0.37-0.31,0.02,0.12-1.05,1.31c0-0.16,0.03-0.28,0.1-0.37C123.02,18.86,123.2,18.67,123.37,18.49z"/>
			<path fill-rule="evenodd" clip-rule="evenodd" fill="#E03837" d="M134.27,25.63c0.2-1.74,0.4-1.74,0.6,0H134.27z"/>
		</g>
		<g>
			
				<line fill-rule="evenodd" clip-rule="evenodd" fill="none" stroke="#FFFFFF" stroke-width="0.1" stroke-linecap="round" stroke-linejoin="round" stroke-miterlimit="3" stroke-opacity="0.498" x1="1.27" y1="3.4" x2="143.37" y2="3.4"/>
		</g>
	</g>
</g>
</svg>
