<?xml version="1.0" encoding="utf-8"?>
<!-- Generator: Adobe Illustrator 16.0.0, SVG Export Plug-In . SVG Version: 6.00 Build 0)  -->
<!DOCTYPE svg PUBLIC "-//W3C//DTD SVG 1.1//EN" "http://www.w3.org/Graphics/SVG/1.1/DTD/svg11.dtd">
<svg version="1.1" id="Layer_1" xmlns="http://www.w3.org/2000/svg" xmlns:xlink="http://www.w3.org/1999/xlink" x="0px" y="0px"
	 width="126.75px" height="125.67px" viewBox="0 0 126.75 125.67" enable-background="new 0 0 126.75 125.67" xml:space="preserve">
<g>
	<path fill="#FF2727" d="M61.099,14.334v-8.59h1.688l3.516,5.736V5.745h1.611v8.59h-1.74L62.71,8.733v5.602H61.099z"/>
</g>
<g>
	<path fill="#ECE375" d="M60.642,117.54l1.688-0.164c0.102,0.566,0.308,0.982,0.618,1.248c0.311,0.266,0.73,0.398,1.258,0.398
		c0.558,0,0.979-0.119,1.262-0.355s0.426-0.512,0.426-0.828c0-0.203-0.061-0.377-0.18-0.52s-0.327-0.266-0.623-0.371
		c-0.204-0.07-0.667-0.195-1.389-0.375c-0.93-0.23-1.583-0.514-1.958-0.85c-0.527-0.473-0.791-1.049-0.791-1.729
		c0-0.438,0.124-0.848,0.372-1.229s0.605-0.67,1.072-0.869s1.03-0.299,1.691-0.299c1.078,0,1.889,0.236,2.434,0.709
		s0.831,1.104,0.859,1.893l-1.734,0.076c-0.075-0.441-0.234-0.76-0.479-0.953s-0.61-0.289-1.098-0.289
		c-0.504,0-0.899,0.104-1.184,0.311c-0.184,0.133-0.276,0.311-0.276,0.533c0,0.203,0.086,0.377,0.258,0.521
		c0.218,0.184,0.75,0.375,1.594,0.574s1.467,0.404,1.871,0.617s0.721,0.504,0.949,0.873s0.344,0.826,0.344,1.369
		c0,0.492-0.138,0.953-0.41,1.383c-0.274,0.43-0.661,0.748-1.16,0.957c-0.501,0.209-1.124,0.314-1.869,0.314
		c-1.087,0-1.92-0.252-2.502-0.754S60.755,118.501,60.642,117.54z"/>
</g>
<g>
	<path fill="#ECE375" d="M113.332,67.335v-8.59h6.369v1.453h-4.635v1.904h4.313v1.448h-4.313v2.338h4.799v1.447H113.332z"/>
</g>
<g>
	<path fill="#ECE375" d="M7.55,67.335L5.5,58.745h1.775l1.295,5.901l1.57-5.901h2.063l1.506,6l1.318-6h1.746l-2.086,8.59h-1.84
		l-1.711-6.422l-1.705,6.422H7.55z"/>
</g>
<g>
	<g>
		<path fill="#E1BF93" d="M64.695,40.833c-6.097,0-11.295,2.153-15.601,6.459c-4.307,4.306-6.46,9.496-6.46,15.563
			c0,6.097,2.153,11.295,6.46,15.601c4.306,4.284,9.504,6.422,15.601,6.422c6.065,0,11.257-2.138,15.563-6.422
			c4.283-4.306,6.421-9.504,6.421-15.601c0-6.066-2.138-11.256-6.421-15.563C75.952,42.987,70.761,40.833,64.695,40.833z
			 M48.301,46.5c4.533-4.533,9.995-6.799,16.395-6.799c6.368,0,11.823,2.267,16.355,6.799c4.511,4.533,6.762,9.988,6.762,16.356
			c0,6.399-2.251,11.861-6.762,16.394c-4.532,4.511-9.987,6.762-16.355,6.762c-6.399,0-11.861-2.251-16.395-6.762
			c-4.533-4.532-6.799-9.994-6.799-16.394C41.502,56.487,43.768,51.032,48.301,46.5z M50.303,48.464
			c-3.981,3.951-5.968,8.741-5.968,14.354c0,5.643,1.987,10.449,5.968,14.43c3.981,3.95,8.778,5.93,14.392,5.93
			c5.591,0,10.373-1.979,14.354-5.93c3.981-3.981,5.969-8.787,5.969-14.43c0-5.613-1.987-10.403-5.969-14.354
			c-3.98-3.951-8.763-5.931-14.354-5.931C59.082,42.533,54.285,44.513,50.303,48.464z M50.039,48.199
			c4.057-4.026,8.937-6.043,14.656-6.043c5.688,0,10.562,2.017,14.618,6.043c4.058,4.027,6.082,8.899,6.082,14.619
			c0,5.742-2.024,10.637-6.082,14.694c-4.057,4.027-8.931,6.044-14.618,6.044c-5.719,0-10.6-2.017-14.656-6.044
			c-4.057-4.057-6.082-8.952-6.082-14.694C43.957,57.106,45.982,52.233,50.039,48.199z"/>
	</g>
	<g>
		<g>
			<path fill="#323345" d="M64.544,17.225v45.517l-5.591-5.59l5.553-39.927H64.544z M64.544,62.818v0.038h-0.038L64.544,62.818z"/>
			<polygon fill="#ECE375" points="64.544,17.225 70.172,57.152 64.582,62.78 64.544,62.818 64.544,62.742 			"/>
			
				<line fill="none" stroke="#56510C" stroke-width="0.75" stroke-linecap="round" stroke-linejoin="round" stroke-miterlimit="3" x1="64.544" y1="17.225" x2="70.172" y2="57.152"/>
		</g>
	</g>
	<g>
		<g>
			<polygon fill="#ECE375" points="64.544,62.818 64.544,108.335 58.877,68.408 64.469,62.818 			"/>
			<polygon fill="#323345" points="64.544,62.818 70.097,68.408 64.582,108.335 64.544,108.335 			"/>
			
				<line fill="none" stroke="#56510C" stroke-width="0.75" stroke-linecap="round" stroke-linejoin="round" stroke-miterlimit="3" x1="58.877" y1="68.408" x2="64.544" y2="108.335"/>
		</g>
	</g>
	<g>
		<g>
			<path fill="#323345" d="M110.099,62.78H64.582l5.553-5.591l39.964,5.553V62.78z M64.506,62.78h-0.037v-0.038L64.506,62.78z"/>
			<path fill="#ECE375" d="M110.099,62.78l-39.964,5.666l-5.591-5.628l-0.038-0.038h0.076H110.099z M74.44,50.806
				c-0.324,0.604-0.355,0.62-0.075,0.038C74.365,50.821,74.388,50.806,74.44,50.806z"/>
			
				<line fill="none" stroke="#56510C" stroke-width="0.75" stroke-linecap="round" stroke-linejoin="round" stroke-miterlimit="3" x1="110.099" y1="62.78" x2="70.135" y2="68.446"/>
		</g>
	</g>
	<g>
		<g>
			<polygon fill="#ECE375" points="64.506,62.78 18.951,62.78 58.916,57.114 64.506,62.705 			"/>
			<polygon fill="#323345" points="64.506,62.78 58.916,68.371 18.951,62.818 18.951,62.78 			"/>
			
				<line fill="none" stroke="#56510C" stroke-width="0.75" stroke-linecap="round" stroke-linejoin="round" stroke-miterlimit="3" x1="58.916" y1="57.114" x2="18.951" y2="62.78"/>
		</g>
	</g>
	<g>
		<g>
			<polygon fill="#ECE375" points="87.623,39.738 74.024,57.794 64.657,62.705 			"/>
			<polygon fill="#323345" points="87.623,39.738 64.657,62.705 64.506,62.855 64.506,62.78 69.605,53.337 87.623,39.7 			"/>
			
				<line fill="none" stroke="#56510C" stroke-width="0.75" stroke-linecap="round" stroke-linejoin="round" stroke-miterlimit="3" x1="87.623" y1="39.738" x2="74.024" y2="57.794"/>
		</g>
	</g>
	<g>
		<g>
			<polygon fill="#ECE375" points="41.502,39.738 59.633,53.337 64.544,62.705 			"/>
			<polygon fill="#323345" points="41.502,39.738 64.544,62.705 64.695,62.855 64.619,62.855 55.138,57.718 41.464,39.738 			"/>
			
				<line fill="none" stroke="#56510C" stroke-width="0.75" stroke-linecap="round" stroke-linejoin="round" stroke-miterlimit="3" x1="41.502" y1="39.738" x2="59.633" y2="53.337"/>
		</g>
	</g>
	<g>
		<g>
			<polygon fill="#323345" points="41.351,85.897 64.393,62.894 64.544,62.742 64.544,62.818 59.407,72.299 41.351,85.936 			"/>
			<polygon fill="#ECE375" points="54.987,67.805 64.393,62.894 41.351,85.897 			"/>
			
				<line fill="none" stroke="#56510C" stroke-width="0.75" stroke-linecap="round" stroke-linejoin="round" stroke-miterlimit="3" x1="41.351" y1="85.897" x2="54.987" y2="67.805"/>
		</g>
	</g>
	<g>
		<g>
			<polygon fill="#323345" points="87.737,85.822 64.619,62.894 64.469,62.742 64.544,62.742 74.024,67.841 87.774,85.822 			"/>
			<polygon fill="#ECE375" points="69.568,72.299 64.619,62.894 87.737,85.822 			"/>
			
				<line fill="none" stroke="#56510C" stroke-width="0.75" stroke-linecap="round" stroke-linejoin="round" stroke-miterlimit="3" x1="87.737" y1="85.822" x2="69.568" y2="72.299"/>
		</g>
	</g>
</g>
</svg>
