<?xml version="1.0" encoding="utf-8"?>
<!-- Generator: Adobe Illustrator 16.0.0, SVG Export Plug-In . SVG Version: 6.00 Build 0)  -->
<!DOCTYPE svg PUBLIC "-//W3C//DTD SVG 1.1//EN" "http://www.w3.org/Graphics/SVG/1.1/DTD/svg11.dtd">
<svg version="1.1" id="Layer_1" xmlns="http://www.w3.org/2000/svg" xmlns:xlink="http://www.w3.org/1999/xlink" x="0px" y="0px"
	 width="319.33px" height="327.33px" viewBox="0 0 319.33 327.33" enable-background="new 0 0 319.33 327.33" xml:space="preserve">
<g>
	<g>
		
			<path fill-rule="evenodd" clip-rule="evenodd" fill="none" stroke="#A29A80" stroke-width="0.75" stroke-linecap="round" stroke-linejoin="round" stroke-miterlimit="3" d="
			M85.28,95.6c0.07,1.93,0.17,3.77,0.3,5.5"/>
		<g>
			<path fill-rule="evenodd" clip-rule="evenodd" fill="#EAE8E1" d="M83.33,6.45c-0.73,0.87-1.17,1.37-1.3,1.5
				c-0.43,0.47,0.65,2.82,3.25,7.05c0.2,0.27,0.37,0.57,0.5,0.9c-0.83-0.17-2.13-0.87-3.9-2.1c-1.8-1.2-2.87-1.78-3.2-1.75
				c-0.43,0.07-0.55,1-0.35,2.8c0.17,1.67-2.2,3-7.1,4c-0.37,0.07-0.78,0.13-1.25,0.2c-2.87,2-5.33,3.78-7.4,5.35l-3,2.15
				c0.03-0.13-0.22-0.08-0.75,0.15c-0.53,0.2-1.02,0.47-1.45,0.8c-0.13,0.1-0.27,0.32-0.4,0.65c-0.17,0-0.55,0.5-1.15,1.5
				c-0.63,1.03-1.18,2.85-1.65,5.45c-0.57,2.93-1,4.77-1.3,5.5c-0.7,1.67-1.7,2.4-3,2.2c-0.73-0.13-1.52-0.9-2.35-2.3
				c-0.2-0.43-0.4-0.88-0.6-1.35l0.15-0.5l5.05-12.55c1.4-3.23,3.55-5.38,6.45-6.45l17.15-9.6C78.4,8.48,80.93,7.28,83.33,6.45z"/>
			<path fill-rule="evenodd" clip-rule="evenodd" fill="#BEBBA7" d="M77.93,40.2c-1.43,0.27-2.78,0.45-4.05,0.55
				c-6.13,0.3-10.73-1.42-13.8-5.15c3.07,3.73,7.67,5.45,13.8,5.15c-4.73,9.23-10.37,15.38-16.9,18.45
				c-6.47,3.1-11.28,1.65-14.45-4.35l4.4-15.7c0.2,0.47,0.4,0.92,0.6,1.35c0.83,1.4,1.62,2.17,2.35,2.3c1.3,0.2,2.3-0.53,3-2.2
				c0.3-0.73,0.73-2.57,1.3-5.5c0.47-2.6,1.02-4.42,1.65-5.45c0.6-1,0.98-1.5,1.15-1.5c0.13-0.33,0.27-0.55,0.4-0.65
				c0.43-0.33,0.92-0.6,1.45-0.8c0.53-0.23,0.78-0.28,0.75-0.15l3-2.15c2.07-1.57,4.53-3.35,7.4-5.35c0.47-0.07,0.88-0.13,1.25-0.2
				c4.9-1,7.27-2.33,7.1-4c-0.2-1.8-0.08-2.73,0.35-2.8c0.33-0.03,1.4,0.55,3.2,1.75c1.77,1.23,3.07,1.93,3.9,2.1
				c0.57,1.07,0.93,2.22,1.1,3.45c0.47,2.93-0.25,6.15-2.15,9.65c-0.13,0.27-0.3,0.55-0.5,0.85c-3.37,5.63-5.75,8.43-7.15,8.4
				C77.35,38.92,77.63,39.57,77.93,40.2z M71.23,18.85c-0.17,0.97-0.2,1.9-0.1,2.8c0.07,1.3,0.38,2.32,0.95,3.05
				c0.1,0.13,0.22,0.3,0.35,0.5c0.3,0.3,0.73,0.75,1.3,1.35c0.5,0.5,1.07,1.1,1.7,1.8c-0.63-0.7-1.2-1.3-1.7-1.8
				c-0.57-0.6-1-1.05-1.3-1.35c-0.13-0.2-0.25-0.37-0.35-0.5c-0.57-0.73-0.88-1.75-0.95-3.05C71.03,20.75,71.07,19.82,71.23,18.85z"
				/>
			
				<path fill-rule="evenodd" clip-rule="evenodd" fill="none" stroke="#A29A80" stroke-width="0.75" stroke-linecap="round" stroke-linejoin="round" stroke-miterlimit="3" d="
				M83.33,6.45c-2.4,0.83-4.93,2.03-7.6,3.6l-17.15,9.6c-2.9,1.07-5.05,3.22-6.45,6.45l-5.05,12.55l-0.15,0.5l-4.4,15.7
				c3.17,6,7.98,7.45,14.45,4.35c6.53-3.07,12.17-9.22,16.9-18.45c-6.13,0.3-10.73-1.42-13.8-5.15 M71.23,18.85
				c-0.17,0.97-0.2,1.9-0.1,2.8c0.07,1.3,0.38,2.32,0.95,3.05c0.1,0.13,0.22,0.3,0.35,0.5c0.3,0.3,0.73,0.75,1.3,1.35
				c0.5,0.5,1.07,1.1,1.7,1.8 M73.88,40.75c1.27-0.1,2.62-0.28,4.05-0.55 M85.23,94.65c0,0.27,0,0.58,0,0.95"/>
		</g>
		<g>
			<path fill-rule="evenodd" clip-rule="evenodd" fill="#EAE8E1" d="M259.23,213.4c-4.3,0.7-9.6,2.22-15.9,4.55
				c-3.6,1.3-7.02,2.77-10.25,4.4c-1.8,0.87-3.1,1.27-3.9,1.2l0.4-2.45c1.13-1.3,1.05-2.37-0.25-3.2c-2.27-0.67-5.95,0.17-11.05,2.5
				c-0.33,0.17-0.65,0.33-0.95,0.5c7.07-5.27,14.97-8.78,23.7-10.55c-8.73,1.77-16.63,5.28-23.7,10.55c-1.73,0.83-3.1,1.48-4.1,1.95
				c-1.03,0.5-2.87,0.98-5.5,1.45c-2.63,0.5-4.28-0.52-4.95-3.05c-0.7-2.57-3.03-6.23-7-11c-4-4.77-7.53-9.88-10.6-15.35
				c-3-5.43-6.6-7.87-10.8-7.3c-4.2,0.57-3.72-0.82,1.45-4.15c5.1-3.33,9.88-5.58,14.35-6.75c0.8-0.23,1.68-0.43,2.65-0.6
				c1.33-2.4-0.87-3.1-6.6-2.1c-3.5,0.83-5.9,1.17-7.2,1c-2.2-0.27,0.08-1.75,6.85-4.45c6.67-2.7,10.27-4.17,10.8-4.4
				c1.1-0.63,0.13-1.65-2.9-3.05l-2.45-0.4c-1.9,0.1-6.77,0.67-14.6,1.7c-7.37,1.03-12.58,3.18-15.65,6.45
				c-3.07,3.33-5.3,4.75-6.7,4.25c-1.43-0.43-5.42-2.33-11.95-5.7c-6.5-3.37-16.65-9.17-30.45-17.4c-13.8-8.2-22.1-12.67-24.9-13.4
				c-0.03-0.53-0.05-1.03-0.05-1.5c0-0.93,0.02-1.85,0.05-2.75c0.4-7.47,2.78-15.33,7.15-23.6c0.8-1.43,1.57-2.82,2.3-4.15
				c3.9-7,6.98-11.7,9.25-14.1c2.67-2.93,3.9-5.67,3.7-8.2c-0.17-2.53-0.13-4.6,0.1-6.2c0.77-4.37,1.95-7.97,3.55-10.8
				c1.1-2.03,2.63-3.97,4.6-5.8c2.67-2.47,4.13-3.82,4.4-4.05c1.37-1.67,2.27-3.67,2.7-6c0.37-2.13,0.37-3.83,0-5.1
				c-0.2-1.07-0.78-2.15-1.75-3.25c-1.33-1.4-2.42-2.6-3.25-3.6c-1.17-1.4-2.25-2.93-3.25-4.6h-0.2c-0.77,0-0.68-0.02,0.25-0.05
				c0.93-0.07,3.95-0.17,9.05-0.3c5.13-1,10.1-2.18,14.9-3.55c4.87-1.4,10.23,0.6,16.1,6c5.93,5.33,12.08,7.3,18.45,5.9
				c6.43-1.43,11.42,1.35,14.95,8.35c1.97,2.33,6.12,3.63,12.45,3.9c6.37,0.2,10.2,7.3,11.5,21.3c6,16.53,9.07,31.98,9.2,46.35
				c0.17,14.4,1.03,23.43,2.6,27.1l1.8,12.55l43.8,51.3c-2.83-0.53-5.23-0.78-7.2-0.75C262.7,212.97,261.03,213.1,259.23,213.4
				c-1.67,0-3.48,0.25-5.45,0.75c-1.93,0.43-4.03,1.08-6.3,1.95c2.27-0.87,4.37-1.52,6.3-1.95
				C255.75,213.65,257.57,213.4,259.23,213.4z M221.53,154.3l6.1,8.15L221.53,154.3z M186.38,105.35c0.43,1.17,0.58,2.23,0.45,3.2
				c-0.33,1.47-0.63,2.93-0.9,4.4c-0.13,0.73,0.65,2.7,2.35,5.9c1.7,3.1,2.47,5.22,2.3,6.35l2.1,12.3c-1.5-12.8-2.33-21.87-2.5-27.2
				c-0.17-6.13-0.97-10.68-2.4-13.65c-1.37-3.03-2.05-4.88-2.05-5.55c-0.03-0.6-0.58-1.23-1.65-1.9
				C183.62,94.9,184.38,100.28,186.38,105.35z M142.23,43.85c1.23-0.63,2.57-1.03,4-1.2c1.33-0.17,2.55-0.17,3.65,0
				c0.57,0.1,1.42,0.33,2.55,0.7s2.1,0.72,2.9,1.05c-0.8-0.33-1.77-0.68-2.9-1.05s-1.98-0.6-2.55-0.7c-1.1-0.17-2.32-0.17-3.65,0
				C144.8,42.82,143.47,43.22,142.23,43.85z M98.88,125.1c0.9,0.17,2.53,0.75,4.9,1.75l5.9,2.65l0.3-2.05
				c-0.43-2.07-2.38-3.88-5.85-5.45c-1.43-0.67-3.02-1.23-4.75-1.7C98.98,122.7,98.82,124.3,98.88,125.1z M232.08,202
				c-4.07-4.27-7.48-8.38-10.25-12.35c-6.37-4.47-9.13-7.32-8.3-8.55c0.87-1.23,0.82-2.12-0.15-2.65c-0.97-0.47-2.23-0.82-3.8-1.05
				c0.33,0.7,0.7,1.57,1.1,2.6c1.23,3.13,2.48,5.2,3.75,6.2c-1.23,0.9,0.3,2.72,4.6,5.45c4.07,2.6,6.03,4.3,5.9,5.1
				c0,0.03-0.28,0.4-0.85,1.1c-0.57,0.73-0.85,1.2-0.85,1.4c1.1,0.87,2.65,1.53,4.65,2L232.08,202z M228.23,180.1
				c-1.67-1.73-2.87-3.8-3.6-6.2c-0.5-1.53-1.4-2.75-2.7-3.65c-1.97-1.3-4.07-2.37-6.3-3.2c2.23,0.83,4.33,1.9,6.3,3.2
				c1.3,0.9,2.2,2.12,2.7,3.65C225.37,176.3,226.57,178.37,228.23,180.1z"/>
			<path fill-rule="evenodd" clip-rule="evenodd" fill="#FFFFFF" d="M186.38,105.35c-2-5.07-2.77-10.45-2.3-16.15
				c1.07,0.67,1.62,1.3,1.65,1.9c0,0.67,0.68,2.52,2.05,5.55c1.43,2.97,2.23,7.52,2.4,13.65c0.17,5.33,1,14.4,2.5,27.2l-2.1-12.3
				c0.17-1.13-0.6-3.25-2.3-6.35c-1.7-3.2-2.48-5.17-2.35-5.9c0.27-1.47,0.57-2.93,0.9-4.4
				C186.97,107.58,186.82,106.52,186.38,105.35z M98.88,125.1c-0.07-0.8,0.1-2.4,0.5-4.8c1.73,0.47,3.32,1.03,4.75,1.7
				c3.47,1.57,5.42,3.38,5.85,5.45l-0.3,2.05l-5.9-2.65C101.42,125.85,99.78,125.27,98.88,125.1z M232.08,202l-4.2-0.75
				c-2-0.47-3.55-1.13-4.65-2c0-0.2,0.28-0.67,0.85-1.4c0.57-0.7,0.85-1.07,0.85-1.1c0.13-0.8-1.83-2.5-5.9-5.1
				c-4.3-2.73-5.83-4.55-4.6-5.45c-1.27-1-2.52-3.07-3.75-6.2c-0.4-1.03-0.77-1.9-1.1-2.6c1.57,0.23,2.83,0.58,3.8,1.05
				c0.97,0.53,1.02,1.42,0.15,2.65c-0.83,1.23,1.93,4.08,8.3,8.55C224.6,193.62,228.02,197.73,232.08,202z"/>
			<path fill-rule="evenodd" clip-rule="evenodd" fill="#BEBBA7" d="M88.88,147.95c-11.7-12.23-0.97-1.35-1.8-9.35
				c2.8,0.73,11.1,5.2,24.9,13.4c13.8,8.23,23.95,14.03,30.45,17.4c6.53,3.37,10.52,5.27,11.95,5.7c1.4,0.5,3.63-0.92,6.7-4.25
				c3.07-3.27,8.28-5.42,15.65-6.45c7.83-1.03,12.7-1.6,14.6-1.7l2.45,0.4c3.03,1.4,4,2.42,2.9,3.05c-0.53,0.23-4.13,1.7-10.8,4.4
				c-6.77,2.7-9.05,4.18-6.85,4.45c1.3,0.17,3.7-0.17,7.2-1c5.73-1,7.93-0.3,6.6,2.1c-0.97,0.17-1.85,0.37-2.65,0.6
				c-4.47,1.17-9.25,3.42-14.35,6.75c-5.17,3.33-5.65,4.72-1.45,4.15c4.2-0.57,7.8,1.87,10.8,7.3c3.07,5.47,6.6,10.58,10.6,15.35
				c3.97,4.77,6.3,8.43,7,11c0.67,2.53,2.32,3.55,4.95,3.05c2.63-0.47,4.47-0.95,5.5-1.45c1-0.47,2.37-1.12,4.1-1.95
				c0.3-0.17,0.62-0.33,0.95-0.5c5.1-2.33,8.78-3.17,11.05-2.5c1.3,0.83,1.38,1.9,0.25,3.2l-0.4,2.45c0.8,0.07,2.1-0.33,3.9-1.2
				c3.23-1.63,6.65-3.1,10.25-4.4c6.3-2.33,11.6-3.85,15.9-4.55c1.8-0.3,3.47-0.43,5-0.4c1.97-0.03,4.37,0.22,7.2,0.75l3.05,3.55
				c6.5,2.97,9.58,7.78,9.25,14.45l-2-1.9c0-0.1-0.02-0.17-0.05-0.2c-5.33-8.63-12.82-12.3-22.45-11c-0.27,0.07-0.55,0.12-0.85,0.15
				c-9.5,1.43-20.78,5.48-33.85,12.15c-13.43,6.83-22.78,18.15-28.05,33.95c-0.33,1.1,0.13,2.35,1.4,3.75
				c-1.27-1.4-1.73-2.65-1.4-3.75l5.45,7.75c-4.5,0.37-7.22-2.17-8.15-7.6c-3.4-5.37-5.53-8.98-6.4-10.85
				c-0.83-1.93-3.87-6.2-9.1-12.8c-8.7-12.73-15.78-24.27-21.25-34.6c-4-7.53-7.33-13.32-10-17.35c-7.17-6.4-15.37-11.13-24.6-14.2
				c-1.2-0.43-2.37-0.83-3.5-1.2C115.27,172.62,89.42,158.92,88.88,147.95z M162.43,191.2c4.1-4.93,9.28-8.57,15.55-10.9
				c0.47-0.2,0.97-0.4,1.5-0.6c-0.53,0.2-1.03,0.4-1.5,0.6C171.72,182.63,166.53,186.27,162.43,191.2z M205.93,231.6
				c3.53-4.17,7.33-7.73,11.4-10.7C213.27,223.87,209.47,227.43,205.93,231.6z M212.83,231.1c-6.07,4.13-9.8,8.25-11.2,12.35
				c-1.27,3.67-2.17,6.4-2.7,8.2c-0.03,0.2-0.08,0.42-0.15,0.65c0.07-0.23,0.12-0.45,0.15-0.65c0.53-1.8,1.43-4.53,2.7-8.2
				C203.03,239.35,206.77,235.23,212.83,231.1z M259.23,213.4c2.7-0.03,4.9,0.6,6.6,1.9C264.13,214,261.93,213.37,259.23,213.4z
				 M171.28,173.2c4.67-2.93,11.82-5.1,21.45-6.5C183.1,168.1,175.95,170.27,171.28,173.2z"/>
			<path fill-rule="evenodd" clip-rule="evenodd" fill="#DEA47E" d="M279.98,318.55c-7.1-7.33-14.57-15.58-22.4-24.75
				c-9.23-10.8-15.93-19.17-20.1-25.1c-8.37-11.9-13.18-18.95-14.45-21.15c-0.93-1.57-1.48-2.82-1.65-3.75
				c-0.13-0.63-0.08-1.52,0.15-2.65c0.57-3.5,6.87-7.37,18.9-11.6c3.03-1.07,6.43-2.53,10.2-4.4c3.37-1.7,5.62-2.92,6.75-3.65
				c1.1-0.73,1.43-1.63,1-2.7c0.3-0.03,0.58-0.08,0.85-0.15c9.63-1.3,17.12,2.37,22.45,11c0.03,0.03,0.05,0.1,0.05,0.2l2,1.9
				l33.15,32.95C310.72,291.77,298.42,309.72,279.98,318.55z"/>
			<path fill-rule="evenodd" clip-rule="evenodd" fill="#D8966B" d="M201.93,272.65l-5.45-7.75c5.27-15.8,14.62-27.12,28.05-33.95
				c13.07-6.67,24.35-10.72,33.85-12.15c0.43,1.07,0.1,1.97-1,2.7c-1.13,0.73-3.38,1.95-6.75,3.65c-3.77,1.87-7.17,3.33-10.2,4.4
				c-12.03,4.23-18.33,8.1-18.9,11.6c-0.23,1.13-0.28,2.02-0.15,2.65c0.17,0.93,0.72,2.18,1.65,3.75c1.27,2.2,6.08,9.25,14.45,21.15
				c4.17,5.93,10.87,14.3,20.1,25.1c7.83,9.17,15.3,17.42,22.4,24.75c-13.83,6.57-31.07,8.08-51.7,4.55L201.93,272.65z"/>
			
				<path fill-rule="evenodd" clip-rule="evenodd" fill="none" stroke="#A29A80" stroke-width="0.75" stroke-linecap="round" stroke-linejoin="round" stroke-miterlimit="3" d="
				M116.63,34.85c0.93-0.07,3.95-0.17,9.05-0.3c5.13-1,10.1-2.18,14.9-3.55c4.87-1.4,10.23,0.6,16.1,6
				c5.93,5.33,12.08,7.3,18.45,5.9c6.43-1.43,11.42,1.35,14.95,8.35c1.97,2.33,6.12,3.63,12.45,3.9c6.37,0.2,10.2,7.3,11.5,21.3
				c6,16.53,9.07,31.98,9.2,46.35c0.17,14.4,1.03,23.43,2.6,27.1l1.8,12.55l43.8,51.3l3.05,3.55c6.5,2.97,9.58,7.78,9.25,14.45
				 M201.93,272.65c-4.5,0.37-7.22-2.17-8.15-7.6c-3.4-5.37-5.53-8.98-6.4-10.85c-0.83-1.93-3.87-6.2-9.1-12.8
				c-8.7-12.73-15.78-24.27-21.25-34.6c-4-7.53-7.33-13.32-10-17.35c-7.17-6.4-15.37-11.13-24.6-14.2c-1.2-0.43-2.37-0.83-3.5-1.2
				c-3.67-1.43-30.6-16.38-30.05-26.1c-0.47-0.17-0.88-0.35-1.25-0.55 M217.33,220.9c7.07-5.27,14.97-8.78,23.7-10.55 M221.53,154.3
				l6.1,8.15 M142.23,43.85c1.23-0.63,2.57-1.03,4-1.2c1.33-0.17,2.55-0.17,3.65,0c0.57,0.1,1.42,0.33,2.55,0.7s2.1,0.72,2.9,1.05
				 M162.43,191.2c4.1-4.93,9.28-8.57,15.55-10.9c0.47-0.2,0.97-0.4,1.5-0.6 M258.38,218.8c0.3-0.03,0.58-0.08,0.85-0.15
				c9.63-1.3,17.12,2.37,22.45,11c0.03,0.03,0.05,0.1,0.05,0.2l2,1.9 M259.23,213.4c-1.67,0-3.48,0.25-5.45,0.75
				c-1.93,0.43-4.03,1.08-6.3,1.95 M228.23,180.1c-1.67-1.73-2.87-3.8-3.6-6.2c-0.5-1.53-1.4-2.75-2.7-3.65
				c-1.97-1.3-4.07-2.37-6.3-3.2 M205.93,231.6c3.53-4.17,7.33-7.73,11.4-10.7 M212.83,231.1c-6.07,4.13-9.8,8.25-11.2,12.35
				c-1.27,3.67-2.17,6.4-2.7,8.2c-0.03,0.2-0.08,0.42-0.15,0.65 M196.48,264.9c5.27-15.8,14.62-27.12,28.05-33.95
				c13.07-6.67,24.35-10.72,33.85-12.15 M197.88,268.65c-1.27-1.4-1.73-2.65-1.4-3.75 M259.23,213.4c2.7-0.03,4.9,0.6,6.6,1.9
				 M171.28,173.2c4.67-2.93,11.82-5.1,21.45-6.5"/>
			
				<path fill-rule="evenodd" clip-rule="evenodd" fill="none" stroke="#BA6934" stroke-width="0.75" stroke-linecap="round" stroke-linejoin="round" stroke-miterlimit="3" d="
				M283.73,231.75l33.15,32.95c-6.17,27.07-18.47,45.02-36.9,53.85c-13.83,6.57-31.07,8.08-51.7,4.55l-26.35-50.45 M196.48,264.9
				l5.45,7.75"/>
		</g>
		<g>
			<path fill-rule="evenodd" clip-rule="evenodd" fill="#EAE8E1" d="M74.08,17.35c0-0.27,0.03-0.62,0.1-1.05c0-0.03,0-0.07,0-0.1
				c0.07-0.33,0.13-0.6,0.2-0.8c0.07,0.3,0.05,0.58-0.05,0.85C74.23,16.65,74.15,17.02,74.08,17.35c0.07-0.33,0.15-0.7,0.25-1.1
				c0.1-0.27,0.12-0.55,0.05-0.85c0.07-0.37,0.12-0.7,0.15-1c0-0.33,0.02-0.63,0.05-0.9c0.1-0.17,0.63-0.72,1.6-1.65
				c0.13-0.13,0.27-0.25,0.4-0.35c0.13-0.13,0.27-0.23,0.4-0.3c0.17-0.17,0.35-0.37,0.55-0.6c0.67-0.57,1.48-1.05,2.45-1.45
				c0.93-0.33,1.62-0.73,2.05-1.2c0.13-0.13,0.57-0.63,1.3-1.5c7.23-2.57,13.18-1.88,17.85,2.05l23.8,29.3
				c1.47,1.37,2.95,2.37,4.45,3c-0.27,0.57-0.43,1.03-0.5,1.4c-0.5,3.07,0.02,6.2,1.55,9.4c0.37,0.73,0.97,1.75,1.8,3.05
				c0.87,1.47,2.07,3.25,3.6,5.35c2.57,3.63,4.32,6.7,5.25,9.2c1.43,3.7,1.8,7.57,1.1,11.6c-0.57,3.1-0.95,5-1.15,5.7
				c-0.9,2.37-2.47,4.37-4.7,6c-1.13,0.83-2.13,1.9-3,3.2c-1.07,1.6-1.68,2.48-1.85,2.65c-1.53,1.6-4.98,2.03-10.35,1.3
				c-5.4-0.77-13.25-2.12-23.55-4.05c-0.9-0.2-1.83-0.38-2.8-0.55c-1.67-0.33-3.15-0.53-4.45-0.6c-0.4-0.03-0.78-0.05-1.15-0.05
				c-1-0.03-2.33,0.05-4,0.25c0-1,0-1.98,0-2.95c1.9-0.97,3.97-3.23,6.2-6.8c1.13-1.87,2.18-3.8,3.15-5.8
				c-0.23-3.63-0.05-7.2,0.55-10.7c0.33-1.93,1-3.33,2-4.2c1-0.83,1.63-1.93,1.9-3.3c0.17-0.97-0.73-3.2-2.7-6.7
				c-2.8-4.67-6.45-11.4-10.95-20.2c-0.7-1.4-1.4-2.63-2.1-3.7c-0.97-2.7-1.88-5.45-2.75-8.25c-0.6-2-1.25-3.52-1.95-4.55
				c-2.03-3.07-3.58-2.92-4.65,0.45C73.97,17.75,74.02,17.55,74.08,17.35z M103.03,32c-1-2.5-2.87-6.43-5.6-11.8
				s-3.68-5.58-2.85-0.65c0.57,3.63,2.4,7.35,5.5,11.15c2.37,2.9,4.03,5.05,5,6.45C104.68,36.18,104,34.47,103.03,32z M110.18,37.9
				c1.93,1.4,3.68,3.52,5.25,6.35c0.2,0.23,0.37,0.52,0.5,0.85c1.6,3,2.3,5.13,2.1,6.4c0.2-1.27-0.5-3.4-2.1-6.4
				c-0.13-0.33-0.3-0.62-0.5-0.85C113.87,41.42,112.12,39.3,110.18,37.9z"/>
			<path fill-rule="evenodd" clip-rule="evenodd" fill="#FFFFFF" d="M103.03,32c0.97,2.47,1.65,4.18,2.05,5.15
				c-0.97-1.4-2.63-3.55-5-6.45c-3.1-3.8-4.93-7.52-5.5-11.15c-0.83-4.93,0.12-4.72,2.85,0.65S102.03,29.5,103.03,32z"/>
			<path fill-rule="evenodd" clip-rule="evenodd" fill="#BEBBA7" d="M85.23,91.7c0.1-7,0.87-15.02,2.3-24.05
				c0.43-2.73,0.93-5.6,1.5-8.6c-0.57,3-1.07,5.87-1.5,8.6c-1.97-6.3-3.03-10.52-3.2-12.65c-0.2-2.2-0.38-3.45-0.55-3.75
				c-2.27-3.67-4.22-7.35-5.85-11.05c-2.3-5.17-3.7-9.92-4.2-14.25c-0.13-3.57-0.07-6.23,0.2-8c1.07-3.37,2.62-3.52,4.65-0.45
				c0.7,1.03,1.35,2.55,1.95,4.55c0.87,2.8,1.78,5.55,2.75,8.25c0.7,1.07,1.4,2.3,2.1,3.7c4.5,8.8,8.15,15.53,10.95,20.2
				c1.97,3.5,2.87,5.73,2.7,6.7c-0.27,1.37-0.9,2.47-1.9,3.3c-1,0.87-1.67,2.27-2,4.2c-0.6,3.5-0.78,7.07-0.55,10.7
				c-0.97,2-2.02,3.93-3.15,5.8C89.2,88.47,87.13,90.73,85.23,91.7z"/>
			
				<path fill-rule="evenodd" clip-rule="evenodd" fill="none" stroke="#A29A80" stroke-width="0.75" stroke-linecap="round" stroke-linejoin="round" stroke-miterlimit="3" d="
				M129.43,40.8c-1.5-0.63-2.98-1.63-4.45-3l-23.8-29.3c-4.67-3.93-10.62-4.62-17.85-2.05 M74.38,15.4c0.07,0.3,0.05,0.58-0.05,0.85
				c-0.1,0.4-0.18,0.77-0.25,1.1c-0.07,0.2-0.12,0.4-0.15,0.6c-0.27,1.77-0.33,4.43-0.2,8c0.5,4.33,1.9,9.08,4.2,14.25
				c1.63,3.7,3.58,7.38,5.85,11.05c0.17,0.3,0.35,1.55,0.55,3.75c0.17,2.13,1.23,6.35,3.2,12.65c0.43-2.73,0.93-5.6,1.5-8.6
				 M85.23,91.7c0,0.97,0,1.95,0,2.95 M129.43,40.8c0.5,0.17,0.97,0.32,1.4,0.45 M110.18,37.9c1.93,1.4,3.68,3.52,5.25,6.35
				c0.2,0.23,0.37,0.52,0.5,0.85c1.6,3,2.3,5.13,2.1,6.4 M87.53,67.65c-1.43,9.03-2.2,17.05-2.3,24.05"/>
		</g>
	</g>
	<g>
		<polygon fill-rule="evenodd" clip-rule="evenodd" fill="#4E4F55" points="2.83,17.55 25.58,31.15 25.58,41.55 2.83,25.55 		"/>
		<polygon fill-rule="evenodd" clip-rule="evenodd" fill="#9F1F1F" points="55.03,48.65 55.03,62.1 25.58,41.55 25.58,31.15 
			25.68,31.15 		"/>
		<polygon fill-rule="evenodd" clip-rule="evenodd" fill="#6B6B73" points="25.58,31.15 2.83,17.55 20.48,17.55 48.18,31.15 
			25.68,31.15 		"/>
		<rect x="55.03" y="48.65" fill-rule="evenodd" clip-rule="evenodd" fill="#701717" width="25.95" height="13.45"/>
		<polygon fill-rule="evenodd" clip-rule="evenodd" fill="#D32C2C" points="80.98,48.65 55.03,48.65 25.68,31.15 48.18,31.15 		"/>
	</g>
	<g>
		<path fill-rule="evenodd" clip-rule="evenodd" fill="#82828A" d="M14.83,18.8c0.1,0.03,0.18,0.08,0.25,0.15
			c0.1,0.03,0.17,0.07,0.2,0.1c0,0.07,0.02,0.1,0.05,0.1c0,0.03,0.03,0.07,0.1,0.1c0,0.07,0,0.12,0,0.15c0,0.03,0,0.08,0,0.15
			c0,0.03,0,0.07,0,0.1c-0.07,0.07-0.12,0.12-0.15,0.15c0,0.03-0.02,0.07-0.05,0.1c-0.03,0-0.08,0.03-0.15,0.1l-0.05,0.05
			c-0.1,0-0.17,0-0.2,0c-0.1,0-0.17,0-0.2,0c-0.1,0-0.22-0.02-0.35-0.05c-0.03-0.07-0.07-0.12-0.1-0.15
			c-0.03-0.03-0.08-0.07-0.15-0.1c0-0.07-0.02-0.12-0.05-0.15c0-0.03,0-0.08,0-0.15V19.4c0.03-0.03,0.05-0.08,0.05-0.15
			c0-0.03,0.03-0.07,0.1-0.1c0.03-0.07,0.07-0.12,0.1-0.15c0-0.03,0.02-0.05,0.05-0.05c0.07-0.07,0.12-0.1,0.15-0.1
			c0.03,0,0.1,0,0.2,0V18.8C14.67,18.8,14.73,18.8,14.83,18.8z M14.23,21.7c0-0.03,0-0.08,0-0.15c0-0.03,0.02-0.07,0.05-0.1
			c0.07-0.07,0.12-0.12,0.15-0.15c0.03-0.03,0.08-0.05,0.15-0.05c0-0.07,0.02-0.1,0.05-0.1c0.03,0,0.1,0,0.2,0V21.1
			c0.1,0.03,0.18,0.08,0.25,0.15c0.1,0.03,0.17,0.07,0.2,0.1c0,0.07,0.02,0.1,0.05,0.1c0,0.03,0.03,0.07,0.1,0.1
			c0,0.07,0,0.12,0,0.15c0,0.03,0,0.08,0,0.15c0,0.03,0,0.07,0,0.1c-0.07,0.07-0.12,0.12-0.15,0.15c0,0.03-0.02,0.07-0.05,0.1
			c-0.03,0-0.08,0.03-0.15,0.1l-0.05,0.05c-0.1,0-0.17,0-0.2,0c-0.1,0-0.18-0.02-0.25-0.05c-0.1-0.07-0.17-0.12-0.2-0.15
			c-0.07-0.03-0.12-0.07-0.15-0.1c0-0.07,0-0.12,0-0.15c0-0.03,0-0.08,0-0.15V21.7z M9.03,18.6c0,0.07,0.03,0.12,0.1,0.15
			c0,0.03,0.02,0.05,0.05,0.05c0,0.03,0,0.08,0,0.15c0,0.03,0,0.07,0,0.1c0,0.07,0,0.12,0,0.15c-0.03,0.03-0.08,0.08-0.15,0.15
			c0,0.03-0.02,0.07-0.05,0.1c-0.03,0-0.08,0.03-0.15,0.1L8.78,19.6c-0.1,0-0.17,0-0.2,0c-0.07,0-0.15-0.02-0.25-0.05
			c-0.1-0.07-0.17-0.12-0.2-0.15c-0.03-0.03-0.08-0.08-0.15-0.15c0-0.03,0-0.07,0-0.1v-0.1c0-0.03,0-0.07,0-0.1
			c0-0.07,0-0.12,0-0.15c0-0.03,0.03-0.07,0.1-0.1c0.03-0.07,0.07-0.12,0.1-0.15c0.07-0.03,0.12-0.05,0.15-0.05l0.05-0.1
			c0.07,0,0.13,0,0.2,0c0.1,0,0.18,0.03,0.25,0.1C8.93,18.53,9,18.57,9.03,18.6z M38.93,28.45c0,0.07,0.02,0.12,0.05,0.15
			c0,0.03,0.03,0.05,0.1,0.05c0,0.07,0,0.12,0,0.15c0,0.03,0,0.07,0,0.1c0,0.07,0,0.12,0,0.15c-0.07,0.03-0.12,0.08-0.15,0.15
			c0,0.03-0.02,0.07-0.05,0.1c-0.07,0-0.12,0.03-0.15,0.1l-0.05,0.05c-0.1,0-0.17,0-0.2,0c-0.1,0-0.18-0.02-0.25-0.05
			c-0.1-0.07-0.17-0.12-0.2-0.15c-0.07-0.03-0.12-0.08-0.15-0.15c0-0.03,0-0.07,0-0.1v-0.1c0-0.03,0-0.07,0-0.1
			c0-0.03,0-0.08,0-0.15c0-0.03,0.02-0.07,0.05-0.1c0.07-0.07,0.12-0.12,0.15-0.15c0.03-0.03,0.08-0.05,0.15-0.05l0.05-0.1
			c0.03,0,0.1,0,0.2,0c0.07,0,0.15,0.03,0.25,0.1C38.83,28.38,38.9,28.42,38.93,28.45z M27.03,28.15c0,0.03,0,0.07,0,0.1
			c0,0.07,0,0.12,0,0.15c-0.03,0.03-0.07,0.08-0.1,0.15c0,0.03-0.03,0.07-0.1,0.1c-0.03,0-0.07,0.03-0.1,0.1l-0.1,0.05
			c-0.07,0-0.15,0.02-0.25,0.05c-0.07,0.03-0.15,0.05-0.25,0.05c-0.1,0-0.22-0.02-0.35-0.05c-0.03-0.03-0.07-0.07-0.1-0.1
			c-0.07-0.07-0.12-0.12-0.15-0.15c0-0.03-0.02-0.08-0.05-0.15c0-0.03,0-0.07,0-0.1v-0.1c0-0.03,0-0.07,0-0.1
			c0.03-0.07,0.05-0.12,0.05-0.15s0.02-0.08,0.05-0.15c0.07-0.03,0.12-0.07,0.15-0.1c0-0.07,0.02-0.1,0.05-0.1
			c0.07,0,0.12-0.02,0.15-0.05c0.03,0,0.1,0,0.2,0c0.1,0,0.2,0,0.3,0s0.2,0.02,0.3,0.05c0.03,0.07,0.1,0.12,0.2,0.15
			c0,0.03,0.02,0.08,0.05,0.15c0,0.03,0.02,0.05,0.05,0.05C27.03,28.03,27.03,28.08,27.03,28.15z M31.88,29
			c0.1,0.03,0.2,0.07,0.3,0.1c0.07,0.07,0.13,0.12,0.2,0.15c0,0.03,0.02,0.05,0.05,0.05c0,0.07,0.02,0.12,0.05,0.15
			c0,0.03,0,0.08,0,0.15c0,0.03,0,0.07,0,0.1c0,0.07,0,0.12,0,0.15c-0.03,0.03-0.07,0.07-0.1,0.1c0,0.07-0.03,0.12-0.1,0.15
			c-0.03,0-0.07,0.02-0.1,0.05l-0.1,0.1c-0.07,0-0.13,0-0.2,0c-0.07,0-0.15-0.03-0.25-0.1c-0.07-0.03-0.13-0.07-0.2-0.1
			c-0.03-0.07-0.07-0.12-0.1-0.15c0-0.03,0-0.07,0-0.1c0-0.07,0-0.12,0-0.15V29.6c0-0.07,0-0.12,0-0.15c0-0.03,0.02-0.08,0.05-0.15
			c0.03-0.03,0.08-0.07,0.15-0.1c0.03-0.07,0.07-0.1,0.1-0.1c0-0.03,0.03-0.05,0.1-0.05c0.03,0,0.08,0,0.15,0V29z M34.98,26.7
			c0.07,0,0.12-0.03,0.15-0.1c0.03,0,0.1,0,0.2,0c0.07,0,0.15,0.03,0.25,0.1c0.03,0.03,0.1,0.07,0.2,0.1c0,0.07,0.02,0.12,0.05,0.15
			c0,0.03,0.03,0.05,0.1,0.05c0,0.07,0,0.12,0,0.15c0,0.03,0,0.08,0,0.15c0,0.03,0,0.07,0,0.1c-0.07,0.07-0.12,0.12-0.15,0.15
			c0,0.03-0.02,0.07-0.05,0.1c-0.07,0-0.12,0.03-0.15,0.1l-0.05,0.05c-0.1,0-0.17,0-0.2,0c-0.1,0-0.22-0.02-0.35-0.05
			c-0.03-0.07-0.07-0.12-0.1-0.15c-0.07-0.03-0.12-0.07-0.15-0.1c0-0.07-0.02-0.12-0.05-0.15V27.3c0-0.07,0-0.12,0-0.15
			c0.03-0.03,0.05-0.08,0.05-0.15c0-0.03,0.02-0.07,0.05-0.1c0.07-0.07,0.12-0.12,0.15-0.15C34.93,26.72,34.95,26.7,34.98,26.7z
			 M34.33,25.5c0,0.03,0.02,0.08,0.05,0.15c0,0.03,0.03,0.05,0.1,0.05c0,0.03,0,0.08,0,0.15c0,0.03,0,0.07,0,0.1
			c0,0.07,0,0.12,0,0.15c-0.07,0.03-0.12,0.08-0.15,0.15c0,0.03-0.02,0.07-0.05,0.1c-0.07,0-0.12,0.03-0.15,0.1l-0.05,0.05
			c-0.1,0-0.17,0-0.2,0c-0.1,0-0.18-0.02-0.25-0.05c-0.1-0.07-0.17-0.12-0.2-0.15c-0.07-0.03-0.12-0.08-0.15-0.15
			c0-0.03,0-0.07,0-0.1v-0.1c0-0.03,0-0.07,0-0.1c0-0.07,0-0.12,0-0.15c0-0.03,0.02-0.08,0.05-0.15c0.07-0.03,0.12-0.07,0.15-0.1
			c0.03-0.03,0.08-0.05,0.15-0.05l0.05-0.1c0.03,0,0.1,0,0.2,0c0.1,0,0.18,0.03,0.25,0.1C34.23,25.43,34.3,25.47,34.33,25.5z
			 M23.58,21.45c0,0.03,0.02,0.07,0.05,0.1c0,0.07,0,0.12,0,0.15c0,0.03,0,0.08,0,0.15c0,0.03,0,0.07,0,0.1
			c-0.03,0.07-0.08,0.12-0.15,0.15c0,0.03-0.02,0.07-0.05,0.1c-0.03,0.07-0.08,0.12-0.15,0.15c-0.03,0.03-0.07,0.05-0.1,0.05
			c-0.07,0.07-0.12,0.12-0.15,0.15c-0.07,0-0.13,0-0.2,0c-0.03,0-0.07,0-0.1,0c-0.1,0-0.2-0.02-0.3-0.05
			c-0.07-0.07-0.13-0.12-0.2-0.15c-0.03-0.03-0.07-0.08-0.1-0.15c0-0.03,0-0.07,0-0.1v-0.05c0-0.07,0-0.12,0-0.15
			c0-0.03,0-0.08,0-0.15c0-0.03,0.02-0.07,0.05-0.1c0-0.07,0.02-0.12,0.05-0.15c0.07-0.03,0.1-0.08,0.1-0.15
			c0.03-0.03,0.07-0.07,0.1-0.1c0.07,0,0.13-0.03,0.2-0.1c0.07,0,0.13,0,0.2,0V21.1c0.07,0,0.13,0,0.2,0
			c0.1,0.03,0.18,0.08,0.25,0.15c0.1,0.03,0.17,0.07,0.2,0.1C23.48,21.42,23.52,21.45,23.58,21.45z M18.53,19.25
			c0-0.03,0.02-0.05,0.05-0.05s0.1,0,0.2,0v-0.05c0.07,0.03,0.15,0.07,0.25,0.1c0.1,0.07,0.17,0.12,0.2,0.15
			c0,0.03,0.02,0.05,0.05,0.05c0,0.07,0.03,0.12,0.1,0.15c0,0.03,0,0.08,0,0.15c0,0.03,0,0.07,0,0.1s0,0.08,0,0.15
			c-0.07,0.03-0.12,0.07-0.15,0.1c0,0.07-0.02,0.12-0.05,0.15c-0.07,0-0.12,0.02-0.15,0.05l-0.05,0.1c-0.1,0-0.17,0-0.2,0
			c-0.1,0-0.18-0.03-0.25-0.1c-0.1-0.03-0.17-0.07-0.2-0.1c-0.07-0.07-0.12-0.12-0.15-0.15c0-0.03,0-0.08,0-0.15
			c0-0.03,0-0.07,0-0.1v-0.05c0-0.07,0-0.12,0-0.15s0.02-0.08,0.05-0.15c0.07-0.03,0.12-0.07,0.15-0.1
			C18.42,19.28,18.47,19.25,18.53,19.25z M20.53,23.75c0.1,0.03,0.2,0.07,0.3,0.1c0.03,0.07,0.08,0.12,0.15,0.15
			c0,0.03,0.03,0.05,0.1,0.05c0,0.07,0.02,0.12,0.05,0.15c0,0.03,0,0.08,0,0.15c0,0.03,0,0.07,0,0.1c0,0.03,0,0.08,0,0.15
			c0,0.03,0,0.07,0,0.1c-0.03,0.07-0.05,0.12-0.05,0.15s-0.03,0.08-0.1,0.15c-0.03,0.03-0.07,0.05-0.1,0.05
			c-0.03,0.03-0.08,0.08-0.15,0.15c-0.07,0-0.13,0-0.2,0c-0.07,0-0.17-0.03-0.3-0.1c-0.07-0.03-0.12-0.07-0.15-0.1
			c-0.03-0.07-0.08-0.12-0.15-0.15c0-0.03-0.02-0.08-0.05-0.15v-0.05c0-0.03,0-0.08,0-0.15c0-0.03,0-0.07,0-0.1
			c0-0.03,0-0.08,0-0.15c0.03-0.03,0.05-0.07,0.05-0.1c0.07-0.07,0.1-0.12,0.1-0.15c0.03-0.03,0.07-0.08,0.1-0.15
			c0.07,0,0.13-0.02,0.2-0.05c0.07,0,0.13,0,0.2,0V23.75z"/>
		<path fill-rule="evenodd" clip-rule="evenodd" fill="#5F5F65" d="M12.28,19.05c0,0.07,0,0.12,0,0.15c0,0.03,0,0.08,0,0.15
			c-0.07,0.03-0.12,0.07-0.15,0.1c0,0.07-0.02,0.12-0.05,0.15c-0.07,0-0.12,0.02-0.15,0.05l-0.05,0.1c-0.1,0-0.17,0-0.2,0
			c-0.1,0-0.22-0.03-0.35-0.1c-0.03-0.03-0.07-0.07-0.1-0.1c-0.07-0.07-0.12-0.12-0.15-0.15c0-0.03-0.02-0.08-0.05-0.15
			c0-0.03,0-0.07,0-0.1v-0.1c0.03-0.03,0.05-0.07,0.05-0.1c0-0.07,0.02-0.12,0.05-0.15c0.07-0.03,0.12-0.07,0.15-0.1
			c0-0.07,0.02-0.1,0.05-0.1c0.07-0.03,0.12-0.05,0.15-0.05s0.1,0,0.2,0V18.5c0.1,0.03,0.18,0.07,0.25,0.1
			c0.03,0.07,0.1,0.12,0.2,0.15c0,0.03,0.02,0.05,0.05,0.05c0,0.03,0.03,0.08,0.1,0.15C12.28,18.98,12.28,19.02,12.28,19.05z
			 M16.68,23.2c0-0.03,0.02-0.07,0.05-0.1c0.03-0.07,0.08-0.12,0.15-0.15c0-0.03,0.02-0.05,0.05-0.05c0.03-0.07,0.08-0.1,0.15-0.1
			c0.03,0,0.1,0,0.2,0v-0.05c0.07,0.03,0.15,0.08,0.25,0.15c0.03,0.03,0.1,0.07,0.2,0.1c0,0.07,0.02,0.1,0.05,0.1
			c0,0.03,0.02,0.07,0.05,0.1c0,0.03,0,0.08,0,0.15c0,0.03,0,0.07,0,0.1c0,0.07,0,0.12,0,0.15c-0.03,0.03-0.07,0.08-0.1,0.15
			c0,0.03-0.03,0.07-0.1,0.1c-0.03,0-0.07,0.03-0.1,0.1L17.48,24c-0.1,0-0.17,0-0.2,0c-0.1,0-0.22-0.02-0.35-0.05
			c-0.03-0.07-0.08-0.12-0.15-0.15c-0.03-0.03-0.07-0.08-0.1-0.15c0-0.03-0.03-0.07-0.1-0.1c0-0.07,0-0.12,0-0.15v-0.05
			C16.65,23.28,16.68,23.23,16.68,23.2z M27.33,25c-0.07-0.07-0.12-0.12-0.15-0.15c0-0.03-0.02-0.08-0.05-0.15v-0.05
			c0-0.03,0-0.08,0-0.15c0.03-0.03,0.05-0.07,0.05-0.1c0-0.03,0.02-0.08,0.05-0.15c0.07-0.03,0.12-0.07,0.15-0.1
			c0-0.07,0.02-0.1,0.05-0.1c0.03,0,0.08-0.02,0.15-0.05c0.03,0,0.1,0,0.2,0c0.03,0,0.1,0,0.2,0c0.07,0,0.15,0.02,0.25,0.05
			c0.1,0.07,0.17,0.12,0.2,0.15c0,0.03,0.02,0.08,0.05,0.15c0,0.03,0.03,0.05,0.1,0.05c0,0.03,0,0.07,0,0.1c0,0.07,0,0.12,0,0.15
			c0,0.03,0,0.08,0,0.15c-0.07,0.03-0.12,0.07-0.15,0.1c0,0.07-0.02,0.12-0.05,0.15c-0.07,0-0.12,0.02-0.15,0.05l-0.05,0.1
			c-0.1,0-0.17,0-0.2,0c-0.1,0-0.17,0-0.2,0c-0.1,0-0.22-0.03-0.35-0.1C27.4,25.07,27.37,25.03,27.33,25z M31.83,26.35
			c0.1,0.07,0.17,0.12,0.2,0.15c0,0.03,0.02,0.07,0.05,0.1c0,0.07,0.03,0.1,0.1,0.1c0,0.03,0,0.07,0,0.1c0,0.07,0,0.12,0,0.15
			c0,0.03,0,0.08,0,0.15c0,0.03,0,0.07,0,0.1c0,0.07,0,0.12,0,0.15c-0.07,0.03-0.1,0.08-0.1,0.15c0,0.03-0.02,0.07-0.05,0.1
			c-0.03,0.03-0.08,0.05-0.15,0.05c-0.03,0.07-0.07,0.12-0.1,0.15c-0.1,0-0.17,0-0.2,0c-0.1,0-0.18-0.02-0.25-0.05
			c-0.1-0.07-0.17-0.12-0.2-0.15c-0.07-0.03-0.12-0.07-0.15-0.1c0-0.07,0-0.12,0-0.15V27.3c0-0.07,0-0.12,0-0.15
			c0-0.03,0-0.08,0-0.15c0-0.03,0-0.07,0-0.1c0-0.07,0-0.12,0-0.15s0-0.08,0-0.15c0.03-0.03,0.05-0.07,0.05-0.1
			c0.07-0.03,0.12-0.08,0.15-0.15c0.1,0,0.17-0.02,0.2-0.05c0.03,0,0.1,0,0.2,0S31.77,26.32,31.83,26.35z M33.48,28.35
			c0,0.03,0,0.07,0,0.1c0,0.07,0,0.12,0,0.15s0,0.08,0,0.15c0,0.03,0,0.07,0,0.1c-0.03,0.03-0.08,0.08-0.15,0.15
			c0,0.03-0.02,0.07-0.05,0.1c-0.03,0-0.08,0.03-0.15,0.1l-0.05,0.05c-0.07,0-0.13,0-0.2,0c-0.07,0-0.15-0.02-0.25-0.05
			c-0.1-0.07-0.17-0.12-0.2-0.15c-0.03-0.03-0.08-0.08-0.15-0.15c0-0.03,0-0.07,0-0.1c0-0.03,0-0.08,0-0.15V28.6
			c0-0.03,0-0.08,0-0.15c0-0.03,0-0.07,0-0.1c0-0.07,0.03-0.12,0.1-0.15c0.03-0.03,0.07-0.08,0.1-0.15C32.55,28.02,32.6,28,32.63,28
			l0.05-0.05c0.07,0,0.13,0,0.2,0c0.1,0,0.18,0.02,0.25,0.05c0.1,0.03,0.17,0.08,0.2,0.15c0,0.03,0.03,0.07,0.1,0.1
			C33.43,28.32,33.45,28.35,33.48,28.35z M18.78,21.45c0.27,0,0.53,0,0.8,0c0.07,0.03,0.15,0.07,0.25,0.1
			c0.03,0.07,0.1,0.12,0.2,0.15c0,0.03,0.02,0.05,0.05,0.05c0,0.07,0.02,0.12,0.05,0.15c0,0.03,0,0.08,0,0.15c0,0.03,0,0.07,0,0.1
			c0,0.03,0,0.08,0,0.15c-0.03,0.03-0.07,0.07-0.1,0.1c0,0.07-0.03,0.12-0.1,0.15c-0.03,0-0.07,0.02-0.1,0.05l-0.1,0.1
			c-0.07,0-0.12,0-0.15,0c-0.27,0-0.53,0-0.8,0c-0.1,0-0.18-0.03-0.25-0.1c-0.1-0.03-0.17-0.07-0.2-0.1
			c-0.07-0.07-0.12-0.12-0.15-0.15c0-0.03,0-0.08,0-0.15c0-0.03,0-0.07,0-0.1v-0.05c0-0.07,0-0.12,0-0.15
			c0-0.03,0.02-0.08,0.05-0.15c0.07-0.03,0.12-0.07,0.15-0.1c0.03-0.07,0.08-0.1,0.15-0.1c0-0.03,0.02-0.05,0.05-0.05s0.1,0,0.2,0
			V21.45z M25.48,28.9c0.03,0,0.1,0,0.2,0c0.07,0,0.15,0.03,0.25,0.1c0.1,0.03,0.17,0.07,0.2,0.1c0,0.07,0.02,0.12,0.05,0.15
			c0,0.03,0.03,0.05,0.1,0.05c0,0.07,0,0.12,0,0.15c0,0.03,0,0.08,0,0.15c0,0.03,0,0.07,0,0.1c-0.07,0.07-0.12,0.12-0.15,0.15
			c0,0.03-0.02,0.07-0.05,0.1c-0.07,0-0.12,0.03-0.15,0.1l-0.05,0.05c-0.1,0-0.17,0-0.2,0c-0.1,0-0.2-0.02-0.3-0.05
			c-0.07-0.07-0.12-0.12-0.15-0.15c-0.07-0.03-0.12-0.07-0.15-0.1c0-0.07,0-0.12,0-0.15V29.6c0-0.07,0-0.12,0-0.15
			c0-0.03,0-0.08,0-0.15c0-0.03,0.02-0.07,0.05-0.1c0.07-0.07,0.12-0.12,0.15-0.15c0.03-0.03,0.07-0.05,0.1-0.05L25.48,28.9z"/>
		<path fill-rule="evenodd" clip-rule="evenodd" fill="#414247" d="M7.98,23.65c0-0.03,0-0.07,0-0.1c0-0.07,0.03-0.12,0.1-0.15
			c0.03-0.03,0.07-0.08,0.1-0.15c0.07-0.03,0.12-0.05,0.15-0.05c0-0.03,0.02-0.05,0.05-0.05c0.07,0,0.13,0,0.2,0V23.1
			c0.1,0.03,0.18,0.07,0.25,0.1c0.1,0.03,0.17,0.08,0.2,0.15c0,0.03,0.03,0.05,0.1,0.05c0,0.03,0.02,0.08,0.05,0.15
			c0,0.03,0,0.07,0,0.1c0,0.07,0,0.12,0,0.15c0,0.03,0,0.08,0,0.15c-0.03,0.03-0.08,0.07-0.15,0.1c0,0.07-0.02,0.12-0.05,0.15
			c-0.03,0-0.08,0.02-0.15,0.05l-0.05,0.1c-0.1,0-0.17,0-0.2,0c-0.07,0-0.15-0.03-0.25-0.1c-0.1-0.03-0.17-0.07-0.2-0.1
			C8.1,24.08,8.05,24.03,7.98,24c0-0.03,0-0.08,0-0.15c0-0.03,0-0.07,0-0.1V23.65z M11.23,24.7c0.07,0.07,0.15,0.12,0.25,0.15
			s0.17,0.08,0.2,0.15c0,0.03,0.02,0.05,0.05,0.05c0,0.03,0.03,0.08,0.1,0.15c0,0.03,0,0.07,0,0.1c0,0.07,0,0.12,0,0.15
			c0,0.03,0,0.07,0,0.1c-0.07,0.07-0.12,0.12-0.15,0.15c0,0.03-0.02,0.08-0.05,0.15c-0.07,0-0.12,0.02-0.15,0.05l-0.05,0.05
			c-0.1,0-0.17,0-0.2,0c-0.1,0-0.2-0.02-0.3-0.05c-0.07-0.03-0.12-0.08-0.15-0.15c-0.07-0.03-0.12-0.07-0.15-0.1
			c0-0.07,0-0.12,0-0.15s0-0.07,0-0.1v-0.1c0-0.03,0-0.07,0-0.1c0-0.07,0.02-0.12,0.05-0.15c0.07-0.03,0.12-0.08,0.15-0.15
			c0.03-0.03,0.07-0.05,0.1-0.05c0-0.03,0.03-0.05,0.1-0.05c0.03,0,0.1,0,0.2,0V24.7z M10.08,26.35c0,0.07,0.03,0.12,0.1,0.15
			c0,0.03,0,0.07,0,0.1c0,0.07,0,0.12,0,0.15s0,0.08,0,0.15c-0.07,0.03-0.12,0.07-0.15,0.1c0,0.07-0.02,0.12-0.05,0.15
			c-0.07,0-0.12,0.02-0.15,0.05l-0.05,0.1c-0.1,0-0.17,0-0.2,0c-0.1,0-0.18-0.03-0.25-0.1c-0.1-0.03-0.17-0.07-0.2-0.1
			c-0.07-0.07-0.12-0.12-0.15-0.15c0-0.03,0-0.08,0-0.15c0-0.03,0-0.07,0-0.1v-0.1c0-0.03,0-0.07,0-0.1S9,26.42,9.03,26.35
			c0.07-0.03,0.12-0.07,0.15-0.1c0.03-0.07,0.08-0.1,0.15-0.1c0-0.03,0.02-0.05,0.05-0.05c0.03,0,0.1,0,0.2,0v-0.05
			c0.1,0.03,0.18,0.07,0.25,0.1c0.1,0.07,0.17,0.12,0.2,0.15C10.03,26.33,10.05,26.35,10.08,26.35z M15.93,28.45
			c0.07-0.03,0.12-0.05,0.15-0.05s0.1,0,0.2,0v-0.05c0.07,0.03,0.15,0.07,0.25,0.1c0.03,0.07,0.1,0.12,0.2,0.15
			c0,0.03,0.02,0.05,0.05,0.05c0,0.07,0.03,0.12,0.1,0.15c0,0.03,0,0.07,0,0.1c0,0.07,0,0.12,0,0.15c0,0.03,0,0.08,0,0.15
			c-0.07,0.03-0.12,0.07-0.15,0.1c0,0.07-0.02,0.12-0.05,0.15c-0.07,0-0.12,0.02-0.15,0.05l-0.05,0.1c-0.1,0-0.17,0-0.2,0
			c-0.1,0-0.22-0.03-0.35-0.1c-0.03-0.03-0.07-0.07-0.1-0.1c-0.07-0.07-0.12-0.12-0.15-0.15c0-0.03-0.02-0.08-0.05-0.15
			c0-0.03,0-0.07,0-0.1v-0.1c0.03-0.03,0.05-0.07,0.05-0.1c0-0.03,0.02-0.08,0.05-0.15c0.07-0.03,0.12-0.07,0.15-0.1
			C15.88,28.48,15.9,28.45,15.93,28.45z M3.98,22.15V22.1c0.1,0.03,0.18,0.07,0.25,0.1c0.1,0.07,0.17,0.12,0.2,0.15
			c0,0.03,0.03,0.05,0.1,0.05c0,0.07,0.02,0.12,0.05,0.15c0,0.03,0,0.08,0,0.15c0,0.03,0,0.07,0,0.1c0,0.07,0,0.12,0,0.15
			c-0.03,0.03-0.08,0.08-0.15,0.15c0,0.03-0.02,0.07-0.05,0.1c-0.03,0-0.08,0.02-0.15,0.05l-0.05,0.1c-0.07,0-0.13,0-0.2,0
			c-0.07,0-0.15-0.03-0.25-0.1c-0.1-0.03-0.17-0.07-0.2-0.1C3.5,23.12,3.45,23.07,3.38,23c0-0.03,0-0.07,0-0.1c0-0.07,0-0.12,0-0.15
			V22.7c0-0.07,0-0.12,0-0.15c0-0.03,0.03-0.08,0.1-0.15c0.03-0.03,0.07-0.07,0.1-0.1c0.07-0.07,0.12-0.1,0.15-0.1
			c0-0.03,0.02-0.05,0.05-0.05C3.85,22.15,3.92,22.15,3.98,22.15z M19.18,29.4c0-0.07,0.02-0.1,0.05-0.1s0.08-0.02,0.15-0.05
			c0.03,0,0.1,0,0.2,0c0.03,0,0.08,0,0.15,0c0.1,0,0.2,0.02,0.3,0.05c0.07,0.07,0.13,0.12,0.2,0.15c0,0.03,0.02,0.08,0.05,0.15
			c0,0.03,0.02,0.05,0.05,0.05c0,0.03,0,0.08,0,0.15c0,0.03,0,0.07,0,0.1c0,0.03,0,0.08,0,0.15c-0.03,0.03-0.07,0.07-0.1,0.1
			c0,0.07-0.03,0.12-0.1,0.15c-0.03,0-0.07,0.02-0.1,0.05l-0.1,0.1c-0.07,0-0.13,0-0.2,0c-0.07,0-0.12,0-0.15,0
			c-0.1,0-0.22-0.03-0.35-0.1c-0.03-0.03-0.08-0.07-0.15-0.1c-0.03-0.07-0.07-0.12-0.1-0.15c0-0.03-0.03-0.08-0.1-0.15V29.9
			c0-0.03,0-0.07,0-0.1c0.07-0.07,0.1-0.12,0.1-0.15c0-0.03,0.02-0.08,0.05-0.15C19.07,29.47,19.12,29.43,19.18,29.4z M23.08,35.35
			c0,0.03,0,0.08,0,0.15c0,0.03,0,0.07,0,0.1c0,0.07,0,0.12,0,0.15c-0.03,0.03-0.07,0.08-0.1,0.15c0,0.03-0.02,0.07-0.05,0.1
			c-0.07,0-0.12,0.03-0.15,0.1l-0.05,0.05c-0.1,0-0.17,0-0.2,0c-0.1,0-0.22-0.02-0.35-0.05c-0.03-0.07-0.08-0.12-0.15-0.15
			c-0.03-0.03-0.07-0.08-0.1-0.15c0-0.03-0.02-0.07-0.05-0.1c0-0.07,0-0.12,0-0.15V35.5c0.03-0.07,0.05-0.12,0.05-0.15
			s0.02-0.07,0.05-0.1c0.03-0.07,0.08-0.12,0.15-0.15c0-0.03,0.02-0.05,0.05-0.05c0.03-0.07,0.08-0.1,0.15-0.1c0.03,0,0.1,0,0.2,0
			V34.9c0.07,0.03,0.15,0.08,0.25,0.15c0.03,0.03,0.1,0.07,0.2,0.1c0,0.07,0.02,0.1,0.05,0.1C23.03,35.28,23.05,35.32,23.08,35.35z
			 M20.33,33c0.07-0.03,0.12-0.05,0.15-0.05l0.05-0.1c0.07,0,0.13,0,0.2,0c0.1,0,0.18,0.03,0.25,0.1c0.1,0.03,0.17,0.07,0.2,0.1
			c0,0.07,0.03,0.12,0.1,0.15c0,0.03,0.02,0.05,0.05,0.05c0,0.03,0,0.08,0,0.15c0,0.03,0,0.07,0,0.1c0,0.07,0,0.12,0,0.15
			c0,0.03,0,0.08,0,0.15c-0.03,0.03-0.08,0.07-0.15,0.1c0,0.07-0.02,0.12-0.05,0.15c-0.03,0-0.08,0.02-0.15,0.05l-0.05,0.1
			c-0.07,0-0.13,0-0.2,0c-0.07,0-0.15-0.03-0.25-0.1c-0.1-0.03-0.17-0.07-0.2-0.1c-0.03-0.07-0.08-0.12-0.15-0.15
			c0-0.03,0-0.08,0-0.15c0-0.03,0-0.07,0-0.1v-0.1c0-0.03,0-0.07,0-0.1c0-0.07,0-0.12,0-0.15s0.03-0.07,0.1-0.1
			C20.27,33.08,20.3,33.03,20.33,33z"/>
		<path fill-rule="evenodd" clip-rule="evenodd" fill="#5C5E65" d="M14.98,26.3c0,0.03,0.02,0.05,0.05,0.05
			c0,0.07,0.02,0.12,0.05,0.15c0,0.03,0,0.07,0,0.1c0,0.07,0,0.12,0,0.15s0,0.08,0,0.15c-0.03,0.03-0.07,0.07-0.1,0.1
			c0,0.07-0.03,0.12-0.1,0.15c-0.03,0-0.07,0.02-0.1,0.05l-0.1,0.1c-0.07,0-0.13,0-0.2,0c-0.07,0-0.13,0-0.2,0
			c-0.07,0-0.17-0.03-0.3-0.1c-0.03-0.03-0.08-0.07-0.15-0.1c-0.03-0.07-0.07-0.12-0.1-0.15c0-0.03-0.03-0.08-0.1-0.15
			c0-0.03,0-0.07,0-0.1v-0.1c0.07-0.03,0.1-0.07,0.1-0.1s0.02-0.08,0.05-0.15c0.03-0.03,0.08-0.07,0.15-0.1
			c0-0.07,0.02-0.1,0.05-0.1c0.03-0.03,0.08-0.05,0.15-0.05c0.03,0,0.08,0,0.15,0v-0.05c0.07,0,0.13,0,0.2,0
			c0.1,0.03,0.2,0.07,0.3,0.1C14.85,26.22,14.92,26.27,14.98,26.3z M14.28,29.3v-0.05c0.07-0.03,0.1-0.08,0.1-0.15
			c0-0.03,0.02-0.07,0.05-0.1c0.03-0.07,0.08-0.12,0.15-0.15c0-0.03,0.02-0.05,0.05-0.05c0.03-0.03,0.08-0.05,0.15-0.05
			c0.03,0,0.1,0,0.2,0v-0.1c0.07,0.07,0.15,0.12,0.25,0.15c0.03,0.03,0.1,0.07,0.2,0.1c0,0.07,0.02,0.1,0.05,0.1
			c0,0.03,0.02,0.07,0.05,0.1c0,0.07,0,0.12,0,0.15s0,0.08,0,0.15c0,0.03,0,0.07,0,0.1c-0.03,0.07-0.07,0.12-0.1,0.15
			c0,0.03-0.03,0.08-0.1,0.15c-0.03,0-0.07,0.02-0.1,0.05l-0.05,0.05c-0.1,0-0.17,0-0.2,0c-0.1,0-0.22-0.02-0.35-0.05
			c-0.03-0.03-0.08-0.08-0.15-0.15c-0.03-0.03-0.07-0.07-0.1-0.1c0-0.07-0.03-0.12-0.1-0.15C14.28,29.42,14.28,29.37,14.28,29.3z
			 M22.83,32.55c0,0.03,0.03,0.05,0.1,0.05c0,0.03,0.02,0.08,0.05,0.15c0,0.03,0,0.07,0,0.1c0,0.07,0,0.12,0,0.15s0,0.08,0,0.15
			c0,0.03,0,0.07,0,0.1s0,0.08,0,0.15c-0.03,0.03-0.05,0.07-0.05,0.1c0,0.07-0.03,0.1-0.1,0.1c-0.03,0.03-0.07,0.07-0.1,0.1
			c-0.07,0.07-0.12,0.12-0.15,0.15c-0.1,0-0.17,0-0.2,0c-0.1,0-0.18-0.02-0.25-0.05c-0.1-0.07-0.17-0.12-0.2-0.15
			c-0.03-0.03-0.08-0.08-0.15-0.15c0-0.03,0-0.07,0-0.1c-0.03-0.07-0.07-0.12-0.1-0.15l-0.1-0.05c0-0.03-0.02-0.08-0.05-0.15
			c0-0.03,0-0.07,0-0.1c0-0.07,0-0.12,0-0.15c0.03-0.03,0.05-0.08,0.05-0.15c0.07-0.03,0.1-0.07,0.1-0.1
			c0.03-0.07,0.07-0.12,0.1-0.15c0.07,0,0.13-0.02,0.2-0.05c0.03,0,0.1,0,0.2,0v-0.1c0.03,0,0.1,0,0.2,0
			c0.1,0.07,0.18,0.12,0.25,0.15C22.73,32.43,22.8,32.48,22.83,32.55z M19.48,32.75c0,0.03,0,0.07,0,0.1c0,0.07,0,0.12,0,0.15
			c-0.03,0.03-0.07,0.08-0.1,0.15c0,0.03-0.03,0.07-0.1,0.1c-0.03,0-0.07,0.02-0.1,0.05l-0.1,0.1c-0.07,0-0.13,0-0.2,0
			c-0.07,0-0.17-0.03-0.3-0.1c-0.03-0.03-0.08-0.07-0.15-0.1c-0.03-0.03-0.07-0.08-0.1-0.15c0-0.03-0.03-0.07-0.1-0.1v-0.1
			c0-0.03,0-0.07,0-0.1c0.07-0.07,0.1-0.12,0.1-0.15s0.02-0.08,0.05-0.15c0.03-0.03,0.08-0.07,0.15-0.1c0-0.07,0.02-0.1,0.05-0.1
			s0.07-0.02,0.1-0.05c0.07,0,0.13,0,0.2,0c0.1,0,0.2,0.02,0.3,0.05c0.03,0.07,0.1,0.12,0.2,0.15c0,0.03,0.02,0.08,0.05,0.15
			c0,0.03,0.02,0.05,0.05,0.05C19.48,32.63,19.48,32.68,19.48,32.75z"/>
		<path fill-rule="evenodd" clip-rule="evenodd" fill="#B82727" d="M42.83,35.35h-0.1c-0.07,0-0.15-0.02-0.25-0.05
			c-0.1-0.03-0.17-0.08-0.2-0.15c-0.03-0.03-0.08-0.07-0.15-0.1c0-0.07,0-0.12,0-0.15v-0.05c0-0.07,0-0.12,0-0.15
			c0-0.03,0-0.08,0-0.15c0-0.03,0.03-0.07,0.1-0.1c0.03-0.07,0.07-0.12,0.1-0.15c0.07-0.03,0.12-0.05,0.15-0.05l0.05-0.05
			c0.07,0,0.13,0,0.2,0c0.1,0,0.18,0.02,0.25,0.05c0.1,0.03,0.17,0.07,0.2,0.1c0,0.07,0.03,0.12,0.1,0.15
			c0,0.03,0.02,0.05,0.05,0.05c0,0.07,0,0.12,0,0.15c0,0.03,0,0.08,0,0.15c0,0.03,0,0.07,0,0.1c-0.03,0.07-0.08,0.12-0.15,0.15
			c0,0.03-0.02,0.08-0.05,0.15c-0.03,0-0.08,0.02-0.15,0.05l-0.05,0.05C42.9,35.35,42.87,35.35,42.83,35.35z M46.88,40.15
			c0,0.03,0.02,0.08,0.05,0.15c0,0.03,0,0.07,0,0.1c0,0.07,0,0.12,0,0.15c0,0.03,0,0.08,0,0.15c-0.03,0.03-0.07,0.07-0.1,0.1
			c0,0.07-0.03,0.12-0.1,0.15c-0.03,0-0.07,0.02-0.1,0.05l-0.1,0.05c-0.07,0-0.13,0-0.2,0s-0.15-0.02-0.25-0.05
			c-0.07-0.03-0.13-0.07-0.2-0.1c-0.03-0.07-0.07-0.12-0.1-0.15c0-0.03,0-0.08,0-0.15c0-0.03,0-0.07,0-0.1v-0.1c0-0.03,0-0.07,0-0.1
			c0-0.07,0.02-0.12,0.05-0.15c0.03-0.03,0.08-0.08,0.15-0.15c0.03-0.03,0.07-0.05,0.1-0.05c0-0.03,0.03-0.05,0.1-0.05
			c0.03,0,0.08,0,0.15,0v-0.05c0.1,0.03,0.2,0.07,0.3,0.1c0.07,0.03,0.13,0.08,0.2,0.15C46.83,40.13,46.85,40.15,46.88,40.15z
			 M52.53,34.1c-0.03,0.07-0.08,0.12-0.15,0.15c0,0.03-0.02,0.07-0.05,0.1c-0.03,0-0.08,0.03-0.15,0.1l-0.05,0.05
			c-0.1,0-0.17,0-0.2,0c-0.07,0-0.15-0.02-0.25-0.05c-0.1-0.07-0.17-0.12-0.2-0.15c-0.03-0.03-0.08-0.07-0.15-0.1
			c0-0.07,0-0.12,0-0.15c0-0.03,0-0.08,0-0.15v-0.05c0-0.03,0-0.08,0-0.15c0-0.03,0.03-0.07,0.1-0.1c0.03-0.07,0.07-0.12,0.1-0.15
			c0.07-0.03,0.12-0.05,0.15-0.05c0-0.07,0.02-0.1,0.05-0.1c0.07,0,0.13,0,0.2,0v-0.05c0.1,0.03,0.18,0.08,0.25,0.15
			c0.1,0.03,0.17,0.07,0.2,0.1c0,0.07,0.03,0.1,0.1,0.1c0,0.03,0.02,0.07,0.05,0.1c0,0.07,0,0.12,0,0.15s0,0.08,0,0.15
			C52.53,34.03,52.53,34.07,52.53,34.1z M48.63,34.85c0,0.03,0.03,0.05,0.1,0.05c0,0.03,0,0.08,0,0.15c0,0.03,0,0.07,0,0.1
			c0,0.07,0,0.12,0,0.15c-0.07,0.03-0.12,0.07-0.15,0.1c0,0.07-0.02,0.12-0.05,0.15c-0.03,0-0.08,0.02-0.15,0.05l-0.05,0.1
			c-0.1,0-0.17,0-0.2,0c-0.1,0-0.22-0.03-0.35-0.1c-0.03-0.03-0.07-0.07-0.1-0.1c-0.07-0.07-0.12-0.12-0.15-0.15
			c0-0.03-0.02-0.07-0.05-0.1v-0.1c0-0.03,0-0.07,0-0.1c0.03-0.07,0.05-0.12,0.05-0.15c0-0.03,0.02-0.08,0.05-0.15
			c0.07-0.03,0.12-0.07,0.15-0.1c0-0.07,0.02-0.1,0.05-0.1c0.07,0,0.12-0.02,0.15-0.05c0.03,0,0.1,0,0.2,0
			c0.1,0,0.18,0.02,0.25,0.05c0.07,0.07,0.13,0.12,0.2,0.15C48.58,34.73,48.6,34.78,48.63,34.85z M48.58,37c0,0.03,0,0.08,0,0.15
			c0,0.03,0,0.07,0,0.1c0,0.07,0,0.12,0,0.15c-0.03,0.03-0.07,0.08-0.1,0.15c0,0.03-0.03,0.07-0.1,0.1c-0.03,0-0.07,0.02-0.1,0.05
			l-0.1,0.1c-0.07,0-0.13,0-0.2,0c-0.07,0-0.15-0.03-0.25-0.1c-0.1-0.03-0.17-0.07-0.2-0.1c-0.03-0.03-0.07-0.08-0.1-0.15
			c0-0.03,0-0.07,0-0.1c0-0.07,0-0.12,0-0.15v-0.05c0-0.07,0-0.12,0-0.15s0.02-0.08,0.05-0.15c0.03-0.03,0.07-0.07,0.1-0.1
			c0.07-0.07,0.12-0.1,0.15-0.1c0-0.03,0.02-0.05,0.05-0.05c0.07,0,0.13,0,0.2,0v-0.05c0.1,0.03,0.2,0.07,0.3,0.1
			c0.07,0.07,0.13,0.12,0.2,0.15c0,0.03,0.02,0.05,0.05,0.05C48.53,36.92,48.55,36.97,48.58,37z M52.08,40.3
			c0,0.03,0.02,0.07,0.05,0.1c0,0.07,0.02,0.1,0.05,0.1c0,0.03,0,0.07,0,0.1c0,0.07,0,0.12,0,0.15s0,0.08,0,0.15
			c-0.03,0.03-0.07,0.07-0.1,0.1c0,0.03-0.03,0.08-0.1,0.15c-0.03,0-0.07,0.02-0.1,0.05l-0.05,0.05c-0.1,0-0.17,0-0.2,0
			c-0.1,0-0.2-0.02-0.3-0.05c-0.07-0.03-0.13-0.08-0.2-0.15c-0.03-0.03-0.07-0.07-0.1-0.1c0-0.03,0-0.08,0-0.15v-0.05
			c0-0.03,0-0.08,0-0.15c0-0.03,0-0.07,0-0.1c0-0.07,0.02-0.12,0.05-0.15s0.08-0.08,0.15-0.15c0.03-0.03,0.07-0.05,0.1-0.05
			l0.1-0.05c0.03,0,0.1,0,0.2,0c0.07,0,0.15,0.02,0.25,0.05C51.95,40.18,52.02,40.23,52.08,40.3z M55.18,40.3h-0.1
			c-0.07,0-0.13,0-0.2,0c-0.07,0-0.15-0.03-0.25-0.1c-0.03-0.03-0.08-0.05-0.15-0.05l-0.05-0.05c-0.03-0.07-0.08-0.12-0.15-0.15
			c0-0.03,0-0.07,0-0.1v-0.1c0-0.03,0-0.07,0-0.1c0-0.07,0-0.12,0-0.15s0.03-0.08,0.1-0.15c0.03-0.03,0.07-0.07,0.1-0.1
			c0.07-0.07,0.12-0.1,0.15-0.1l0.05-0.05c0.07,0,0.13,0,0.2,0c0.1,0,0.2,0.02,0.3,0.05c0.07,0.07,0.12,0.12,0.15,0.15
			c0,0.03,0.03,0.08,0.1,0.15c0,0.03,0.02,0.05,0.05,0.05c0,0.03,0,0.08,0,0.15c0,0.03,0,0.07,0,0.1c0,0.07,0,0.12,0,0.15
			c-0.03,0.03-0.08,0.07-0.15,0.1c0,0.07-0.02,0.12-0.05,0.15c-0.03,0-0.07,0.02-0.1,0.05V40.3z M57.13,41.05c0,0.07,0,0.12,0,0.15
			c0,0.03,0,0.08,0,0.15c-0.03,0.03-0.08,0.07-0.15,0.1c0,0.07-0.02,0.12-0.05,0.15c-0.03,0-0.08,0.02-0.15,0.05l-0.05,0.1
			c-0.1,0-0.17,0-0.2,0c-0.1,0-0.17,0-0.2,0c-0.07,0-0.17-0.03-0.3-0.1c-0.07-0.03-0.12-0.07-0.15-0.1
			c-0.03-0.07-0.08-0.12-0.15-0.15c0-0.03-0.02-0.08-0.05-0.15c0-0.03,0-0.07,0-0.1v-0.1c0.03-0.03,0.05-0.07,0.05-0.1
			c0-0.03,0.03-0.08,0.1-0.15c0.03-0.03,0.07-0.07,0.1-0.1c0-0.07,0.03-0.1,0.1-0.1c0.03-0.03,0.07-0.05,0.1-0.05
			c0.07,0,0.13,0,0.2,0V40.5c0.03,0,0.1,0,0.2,0c0.1,0.03,0.18,0.07,0.25,0.1c0.1,0.07,0.17,0.12,0.2,0.15
			c0,0.03,0.03,0.05,0.1,0.05c0,0.07,0.02,0.12,0.05,0.15C57.13,40.98,57.13,41.02,57.13,41.05z M34.33,31.75
			c0,0.03,0.02,0.08,0.05,0.15c0,0.03,0.03,0.05,0.1,0.05c0,0.03,0,0.08,0,0.15c0,0.03,0,0.07,0,0.1c0,0.03,0,0.08,0,0.15
			c-0.07,0.03-0.12,0.07-0.15,0.1c0,0.07-0.02,0.12-0.05,0.15c-0.07,0-0.12,0.02-0.15,0.05l-0.05,0.1c-0.1,0-0.17,0-0.2,0
			c-0.1,0-0.18-0.03-0.25-0.1c-0.1-0.03-0.17-0.07-0.2-0.1c-0.07-0.07-0.12-0.12-0.15-0.15c0-0.03,0-0.08,0-0.15V32.2
			c0-0.03,0-0.07,0-0.1c0-0.07,0-0.12,0-0.15c0-0.03,0.02-0.08,0.05-0.15c0.07-0.03,0.12-0.07,0.15-0.1c0.03-0.07,0.08-0.1,0.15-0.1
			l0.05-0.05c0.03,0,0.1,0,0.2,0c0.1,0,0.18,0.02,0.25,0.05C34.23,31.67,34.3,31.72,34.33,31.75z M58.58,38.2
			c0.03,0.03,0.1,0.07,0.2,0.1c0,0.07,0.02,0.12,0.05,0.15c0,0.03,0.02,0.05,0.05,0.05c0,0.07,0,0.12,0,0.15c0,0.03,0,0.07,0,0.1
			c0,0.07,0,0.12,0,0.15c-0.03,0.03-0.07,0.08-0.1,0.15c0,0.03-0.03,0.07-0.1,0.1c-0.03,0-0.07,0.03-0.1,0.1l-0.1,0.05
			c-0.07,0-0.12,0-0.15,0c-0.1,0-0.22-0.02-0.35-0.05c-0.03-0.07-0.08-0.12-0.15-0.15c-0.03-0.03-0.07-0.08-0.1-0.15
			c0-0.03-0.03-0.07-0.1-0.1v-0.1c0-0.03,0-0.07,0-0.1c0.07-0.03,0.1-0.08,0.1-0.15c0-0.03,0.02-0.07,0.05-0.1
			c0.03-0.07,0.08-0.12,0.15-0.15c0-0.03,0.02-0.05,0.05-0.05c0.03,0,0.08-0.03,0.15-0.1c0.03,0,0.1,0,0.2,0
			C58.4,38.1,58.48,38.13,58.58,38.2z M64.68,41.8c0.1,0.03,0.17,0.08,0.2,0.15c0,0.03,0.02,0.07,0.05,0.1
			c0,0.03,0.03,0.05,0.1,0.05c0,0.07,0,0.12,0,0.15s0,0.08,0,0.15c0,0.03,0,0.07,0,0.1c-0.07,0.07-0.12,0.12-0.15,0.15
			c0,0.03-0.02,0.08-0.05,0.15c-0.07,0-0.12,0.02-0.15,0.05l-0.05,0.05c-0.1,0-0.17,0-0.2,0c-0.1,0-0.2-0.02-0.3-0.05
			c-0.07-0.03-0.12-0.08-0.15-0.15c-0.07-0.03-0.12-0.07-0.15-0.1c0-0.07,0-0.12,0-0.15V42.4c0-0.07,0-0.12,0-0.15s0-0.08,0-0.15
			c0-0.03,0.02-0.07,0.05-0.1c0.07-0.03,0.12-0.08,0.15-0.15c0.03-0.03,0.07-0.05,0.1-0.05l0.1-0.05c0.03,0,0.1,0,0.2,0
			C64.5,41.75,64.58,41.77,64.68,41.8z M68.73,45.4v-0.05c0-0.03,0-0.08,0-0.15c0-0.03,0-0.07,0-0.1c0-0.07,0.03-0.12,0.1-0.15
			c0.03-0.03,0.07-0.08,0.1-0.15c0.07-0.03,0.12-0.05,0.15-0.05l0.05-0.05c0.07,0,0.13,0,0.2,0c0.1,0,0.18,0.02,0.25,0.05
			c0.1,0.03,0.17,0.08,0.2,0.15c0,0.03,0.03,0.07,0.1,0.1c0,0.07,0.02,0.1,0.05,0.1c0,0.03,0,0.07,0,0.1c0,0.07,0,0.12,0,0.15
			s0,0.07,0,0.1c-0.03,0.07-0.08,0.12-0.15,0.15c0,0.03-0.02,0.08-0.05,0.15c-0.03,0-0.08,0.02-0.15,0.05l-0.05,0.05
			c-0.07,0-0.13,0-0.2,0s-0.15-0.02-0.25-0.05c-0.1-0.03-0.17-0.08-0.2-0.15c-0.03-0.03-0.08-0.07-0.15-0.1
			C68.73,45.48,68.73,45.43,68.73,45.4z M59.73,45.55c-0.03,0-0.07,0-0.1,0c-0.1,0-0.22-0.03-0.35-0.1c-0.03-0.03-0.07-0.07-0.1-0.1
			c-0.07-0.03-0.12-0.08-0.15-0.15c0-0.03-0.02-0.07-0.05-0.1V45c0-0.03,0-0.07,0-0.1c0.03-0.07,0.05-0.12,0.05-0.15
			s0.02-0.08,0.05-0.15c0.07-0.03,0.12-0.07,0.15-0.1c0-0.07,0.02-0.1,0.05-0.1c0.07,0,0.12-0.02,0.15-0.05c0.03,0,0.1,0,0.2,0
			c0.07,0,0.15,0.02,0.25,0.05c0.03,0.07,0.1,0.12,0.2,0.15c0,0.03,0.02,0.08,0.05,0.15c0,0.03,0.03,0.05,0.1,0.05
			c0,0.03,0,0.08,0,0.15c0,0.03,0,0.07,0,0.1c0,0.07,0,0.12,0,0.15c-0.07,0.03-0.12,0.08-0.15,0.15c0,0.03-0.02,0.07-0.05,0.1
			c-0.07,0-0.12,0.02-0.15,0.05l-0.05,0.1H59.73z"/>
		<path fill-rule="evenodd" clip-rule="evenodd" fill="#C82B2B" d="M42.13,34.85v0.05c0,0.03,0,0.08,0,0.15
			c0.07,0.03,0.12,0.07,0.15,0.1c0.03,0.07,0.1,0.12,0.2,0.15c0.1,0.03,0.18,0.05,0.25,0.05h0.1c0,0.03,0,0.08,0,0.15
			c0,0.03,0,0.07,0,0.1c-0.07,0.07-0.12,0.12-0.15,0.15c0,0.03-0.02,0.08-0.05,0.15c-0.07,0-0.12,0.02-0.15,0.05L42.43,36
			c-0.1,0-0.17,0-0.2,0c-0.1,0-0.22-0.02-0.35-0.05c-0.03-0.03-0.07-0.08-0.1-0.15c-0.07-0.03-0.12-0.07-0.15-0.1
			c0-0.07-0.02-0.12-0.05-0.15V35.5c0-0.07,0-0.12,0-0.15c0.03-0.03,0.05-0.07,0.05-0.1c0-0.07,0.02-0.12,0.05-0.15
			c0.07-0.03,0.12-0.08,0.15-0.15c0-0.03,0.02-0.05,0.05-0.05c0.03,0,0.08-0.02,0.15-0.05C42.07,34.85,42.1,34.85,42.13,34.85z
			 M60.08,39.25c0.03-0.07,0.08-0.1,0.15-0.1l0.05-0.05c0.03,0,0.1,0,0.2,0s0.18,0.02,0.25,0.05c0.1,0.07,0.17,0.12,0.2,0.15
			c0,0.03,0.02,0.08,0.05,0.15c0,0.03,0.03,0.05,0.1,0.05c0,0.03,0,0.08,0,0.15c0,0.03,0,0.07,0,0.1c0,0.07,0,0.12,0,0.15
			c-0.07,0.03-0.12,0.07-0.15,0.1c0,0.07-0.02,0.12-0.05,0.15c-0.07,0-0.12,0.02-0.15,0.05l-0.05,0.1c-0.1,0-0.17,0-0.2,0
			c-0.1,0-0.18-0.03-0.25-0.1c-0.1-0.03-0.17-0.07-0.2-0.1c-0.07-0.07-0.12-0.12-0.15-0.15c0-0.03,0-0.07,0-0.1v-0.1
			c0-0.03,0-0.07,0-0.1c0-0.07,0-0.12,0-0.15s0.02-0.08,0.05-0.15C60,39.32,60.05,39.28,60.08,39.25z M59.28,45.45
			c0.13,0.07,0.25,0.1,0.35,0.1c0.03,0,0.07,0,0.1,0c0.1,0.03,0.17,0.07,0.2,0.1c0,0.07,0.03,0.1,0.1,0.1c0,0.03,0.02,0.07,0.05,0.1
			c0,0.07,0,0.12,0,0.15s0,0.08,0,0.15c0,0.03,0,0.07,0,0.1c-0.03,0.07-0.08,0.12-0.15,0.15c0,0.03-0.02,0.07-0.05,0.1
			c-0.03,0-0.08,0.03-0.15,0.1l-0.05,0.05c-0.07,0-0.13,0-0.2,0c-0.07,0-0.13,0-0.2,0c-0.07,0-0.17-0.02-0.3-0.05
			c-0.07-0.07-0.12-0.12-0.15-0.15c-0.03-0.03-0.08-0.07-0.15-0.1c0-0.07-0.02-0.12-0.05-0.15c0-0.03,0-0.08,0-0.15V46
			c0.03-0.03,0.05-0.08,0.05-0.15c0-0.03,0.03-0.07,0.1-0.1c0.03-0.07,0.07-0.12,0.1-0.15c0-0.03,0.03-0.05,0.1-0.05
			c0.03-0.07,0.07-0.1,0.1-0.1C59.15,45.45,59.22,45.45,59.28,45.45z"/>
		<path fill-rule="evenodd" clip-rule="evenodd" fill="#DA5050" d="M46.23,33.9c0,0.07,0.02,0.12,0.05,0.15c0,0.03,0,0.08,0,0.15
			c0,0.03,0,0.07,0,0.1c0,0.03,0,0.08,0,0.15c-0.03,0.03-0.07,0.07-0.1,0.1c0,0.07-0.03,0.12-0.1,0.15c-0.03,0-0.07,0.02-0.1,0.05
			l-0.1,0.1c-0.07,0-0.13,0-0.2,0c-0.07,0-0.15-0.03-0.25-0.1c-0.1-0.03-0.17-0.07-0.2-0.1c-0.03-0.07-0.07-0.12-0.1-0.15
			c0-0.03,0-0.08,0-0.15c0-0.03,0-0.07,0-0.1V34.2c0-0.07,0-0.12,0-0.15c0-0.03,0.02-0.08,0.05-0.15c0.03-0.03,0.07-0.07,0.1-0.1
			c0.07-0.07,0.12-0.1,0.15-0.1c0-0.03,0.02-0.05,0.05-0.05c0.07,0,0.13,0,0.2,0V33.6c0.1,0.03,0.2,0.07,0.3,0.1
			c0.07,0.07,0.13,0.12,0.2,0.15C46.18,33.88,46.2,33.9,46.23,33.9z M40.38,33.2c0,0.03,0,0.07,0,0.1
			c-0.03,0.07-0.08,0.12-0.15,0.15c0,0.03-0.02,0.08-0.05,0.15c-0.03,0-0.08,0.02-0.15,0.05l-0.05,0.05c-0.1,0-0.17,0-0.2,0
			c-0.1,0-0.18-0.02-0.25-0.05c-0.1-0.03-0.17-0.08-0.2-0.15c-0.03-0.03-0.08-0.07-0.15-0.1c0-0.07,0-0.12,0-0.15V33.2
			c0-0.03,0-0.08,0-0.15c0-0.03,0-0.07,0-0.1c0-0.07,0.03-0.12,0.1-0.15c0.03-0.03,0.07-0.08,0.1-0.15
			c0.07-0.03,0.12-0.05,0.15-0.05l0.05-0.05c0.03,0,0.1,0,0.2,0c0.1,0,0.18,0.02,0.25,0.05c0.1,0.03,0.17,0.08,0.2,0.15
			c0,0.03,0.03,0.07,0.1,0.1c0,0.07,0.02,0.1,0.05,0.1c0,0.03,0,0.07,0,0.1C40.38,33.12,40.38,33.17,40.38,33.2z M37.88,36.3
			c0,0.03,0,0.07,0,0.1c-0.03,0.07-0.08,0.12-0.15,0.15c0,0.03-0.02,0.07-0.05,0.1c-0.03,0-0.08,0.03-0.15,0.1l-0.05,0.05
			c-0.07,0-0.13,0-0.2,0c-0.13,0-0.23,0-0.3,0c-0.1,0-0.22-0.02-0.35-0.05c-0.03-0.07-0.08-0.12-0.15-0.15
			c-0.03-0.03-0.07-0.07-0.1-0.1c0-0.07-0.02-0.12-0.05-0.15c0-0.03,0-0.08,0-0.15v-0.05c0.03-0.03,0.05-0.08,0.05-0.15
			c0-0.03,0.02-0.07,0.05-0.1c0.03-0.07,0.08-0.12,0.15-0.15c0-0.03,0.02-0.05,0.05-0.05c0.03-0.07,0.08-0.1,0.15-0.1
			c0.03,0,0.1,0,0.2,0v-0.05c0.07,0,0.17,0,0.3,0c0.1,0.03,0.18,0.08,0.25,0.15c0.07,0.03,0.13,0.07,0.2,0.1
			c0,0.07,0.03,0.1,0.1,0.1c0,0.03,0.02,0.07,0.05,0.1c0,0.07,0,0.12,0,0.15C37.88,36.18,37.88,36.23,37.88,36.3z M46.18,37.35
			c0.03,0.03,0.07,0.07,0.1,0.1c0.03,0.07,0.05,0.12,0.05,0.15s0.03,0.07,0.1,0.1c0,0.07,0,0.12,0,0.15s0,0.08,0,0.15
			c-0.07,0.03-0.1,0.07-0.1,0.1c0,0.07-0.02,0.1-0.05,0.1c-0.03,0.03-0.07,0.07-0.1,0.1c-0.07,0.07-0.12,0.12-0.15,0.15
			c-0.1,0-0.17,0-0.2,0c-0.1,0-0.22-0.02-0.35-0.05c-0.03-0.07-0.07-0.12-0.1-0.15c-0.07-0.03-0.12-0.08-0.15-0.15
			c-0.03-0.03-0.07-0.07-0.1-0.1c-0.07-0.07-0.12-0.12-0.15-0.15l-0.05-0.05c0-0.07-0.03-0.12-0.1-0.15c0-0.03,0-0.07,0-0.1
			c0-0.07,0-0.12,0-0.15c0-0.03,0-0.08,0-0.15c0.07-0.03,0.1-0.07,0.1-0.1c0.03-0.07,0.05-0.12,0.05-0.15
			c0.03-0.03,0.08-0.08,0.15-0.15c0.03,0,0.08-0.02,0.15-0.05c0.07,0,0.13,0,0.2,0c0.1,0,0.2,0.02,0.3,0.05
			c0.03,0.07,0.1,0.12,0.2,0.15c0,0.03,0.02,0.08,0.05,0.15c0,0.03,0.02,0.05,0.05,0.05C46.08,37.23,46.12,37.28,46.18,37.35z
			 M50.28,37.55c0,0.03,0.03,0.07,0.1,0.1c0,0.03,0,0.08,0,0.15c0,0.03,0,0.07,0,0.1c0,0.07,0,0.12,0,0.15
			c-0.07,0.03-0.12,0.08-0.15,0.15c0,0.03-0.02,0.07-0.05,0.1c-0.07,0-0.12,0.03-0.15,0.1l-0.05,0.05c-0.1,0-0.17,0-0.2,0
			c-0.1,0-0.22-0.02-0.35-0.05c-0.03-0.07-0.07-0.12-0.1-0.15c-0.07-0.03-0.12-0.08-0.15-0.15c0-0.03-0.02-0.07-0.05-0.1
			c0-0.07,0-0.12,0-0.15V37.8c0.03-0.07,0.05-0.12,0.05-0.15c0-0.03,0.02-0.07,0.05-0.1c0.07-0.07,0.12-0.12,0.15-0.15
			c0-0.03,0.02-0.05,0.05-0.05c0.07-0.07,0.12-0.1,0.15-0.1s0.1,0,0.2,0V37.2c0.07,0.03,0.15,0.08,0.25,0.15
			c0.03,0.03,0.1,0.07,0.2,0.1C50.23,37.52,50.25,37.55,50.28,37.55z M48.48,42.3c0.03-0.03,0.07-0.07,0.1-0.1
			c0.03-0.07,0.08-0.1,0.15-0.1l0.05-0.05c0.03,0,0.1,0,0.2,0c0.03,0,0.08,0,0.15,0c0.07,0,0.15,0.02,0.25,0.05
			c0.03,0.07,0.1,0.12,0.2,0.15c0,0.03,0.02,0.08,0.05,0.15c0,0.03,0.02,0.05,0.05,0.05c0,0.03,0,0.08,0,0.15c0,0.03,0,0.07,0,0.1
			c0,0.07,0,0.12,0,0.15c-0.03,0.03-0.07,0.08-0.1,0.15c0,0.03-0.02,0.07-0.05,0.1c-0.07,0-0.12,0.03-0.15,0.1l-0.05,0.05
			c-0.1,0-0.17,0-0.2,0c-0.07,0-0.12,0-0.15,0c-0.1,0-0.18-0.02-0.25-0.05c-0.1-0.07-0.17-0.12-0.2-0.15
			c-0.03-0.03-0.08-0.08-0.15-0.15c0-0.03,0-0.07,0-0.1v-0.1c0-0.03,0-0.07,0-0.1c0-0.07,0-0.12,0-0.15
			C48.38,42.42,48.42,42.37,48.48,42.3z M54.48,40.15c0.07,0,0.12,0.02,0.15,0.05c0.1,0.07,0.18,0.1,0.25,0.1c0.07,0,0.13,0,0.2,0
			h0.1c0,0.03,0.02,0.07,0.05,0.1c0,0.07,0.02,0.1,0.05,0.1c0,0.03,0,0.07,0,0.1c0,0.07,0,0.12,0,0.15s0,0.08,0,0.15
			c-0.03,0.03-0.07,0.07-0.1,0.1c0,0.03,0,0.08,0,0.15c0,0.03,0,0.07,0,0.1c0,0.07,0,0.12,0,0.15v0.05c-0.07,0.07-0.1,0.12-0.1,0.15
			c-0.03,0.03-0.05,0.08-0.05,0.15c-0.03,0.03-0.1,0.07-0.2,0.1c-0.1,0.07-0.18,0.1-0.25,0.1c-0.1,0-0.2-0.03-0.3-0.1
			c-0.07-0.03-0.13-0.07-0.2-0.1c-0.03-0.07-0.07-0.12-0.1-0.15c0-0.03,0-0.08,0-0.15V41.4c0-0.03,0-0.08,0-0.15
			c0-0.03,0-0.07,0-0.1c0-0.07,0-0.12,0-0.15s0-0.07,0-0.1c0-0.07,0-0.12,0-0.15s0-0.08,0-0.15c0-0.03,0-0.07,0-0.1
			c0.03,0,0.07-0.03,0.1-0.1c0.07-0.03,0.12-0.07,0.15-0.1c0.03-0.07,0.08-0.12,0.15-0.15C54.42,40.15,54.45,40.15,54.48,40.15z
			 M57.13,42.5c0.03,0,0.1,0,0.2,0v-0.05c0.07,0.03,0.15,0.08,0.25,0.15c0.03,0.03,0.1,0.07,0.2,0.1c0,0.07,0.02,0.1,0.05,0.1
			c0,0.03,0.03,0.07,0.1,0.1c0,0.07,0,0.12,0,0.15c0,0.03,0,0.08,0,0.15c0,0.03,0,0.07,0,0.1c-0.07,0.03-0.12,0.08-0.15,0.15
			c0,0.03-0.02,0.07-0.05,0.1c-0.07,0-0.12,0.03-0.15,0.1l-0.05,0.05c-0.1,0-0.17,0-0.2,0c-0.1,0-0.22-0.02-0.35-0.05
			c-0.03-0.07-0.07-0.12-0.1-0.15c-0.07-0.03-0.12-0.08-0.15-0.15c0-0.03-0.02-0.07-0.05-0.1c0-0.03,0-0.08,0-0.15v-0.05
			c0.03-0.03,0.05-0.08,0.05-0.15c0-0.03,0.02-0.07,0.05-0.1c0.07-0.07,0.12-0.12,0.15-0.15c0-0.03,0.02-0.05,0.05-0.05
			C57.05,42.53,57.1,42.5,57.13,42.5z M57.28,46.45c0,0.03,0,0.08,0,0.15c-0.07,0.03-0.12,0.07-0.15,0.1c0,0.07-0.02,0.12-0.05,0.15
			c-0.07,0-0.12,0.02-0.15,0.05L56.88,47c-0.1,0-0.17,0-0.2,0c-0.1,0-0.22-0.03-0.35-0.1c-0.03-0.03-0.07-0.07-0.1-0.1
			c-0.07-0.07-0.12-0.12-0.15-0.15c0-0.03-0.02-0.08-0.05-0.15c0-0.03,0-0.07,0-0.1v-0.05c0.03-0.07,0.05-0.12,0.05-0.15
			c0-0.03,0.02-0.08,0.05-0.15c0.07-0.03,0.12-0.07,0.15-0.1c0-0.07,0.02-0.1,0.05-0.1c0.03-0.03,0.08-0.05,0.15-0.05
			c0.03,0,0.1,0,0.2,0v-0.05c0.07,0.03,0.15,0.07,0.25,0.1c0.03,0.07,0.1,0.12,0.2,0.15c0,0.03,0.02,0.05,0.05,0.05
			c0,0.07,0.03,0.12,0.1,0.15c0,0.03,0,0.08,0,0.15C57.28,46.38,57.28,46.42,57.28,46.45z M71.13,45.65c0.07,0,0.15,0.03,0.25,0.1
			c0.03,0.03,0.1,0.07,0.2,0.1c0,0.07,0.02,0.12,0.05,0.15c0,0.03,0.03,0.05,0.1,0.05c0,0.07,0,0.12,0,0.15c0,0.03,0,0.08,0,0.15
			c0,0.03,0,0.07,0,0.1c-0.07,0.03-0.12,0.08-0.15,0.15c0,0.03-0.02,0.07-0.05,0.1c-0.07,0-0.12,0.03-0.15,0.1l-0.05,0.05
			c-0.1,0-0.17,0-0.2,0c-0.1,0-0.22-0.02-0.35-0.05c-0.03-0.07-0.07-0.12-0.1-0.15c-0.07-0.03-0.12-0.08-0.15-0.15
			c0-0.03-0.02-0.07-0.05-0.1v-0.05c0-0.07,0-0.12,0-0.15c0.03-0.03,0.05-0.08,0.05-0.15c0-0.03,0.02-0.07,0.05-0.1
			c0.07-0.07,0.12-0.12,0.15-0.15c0-0.03,0.02-0.05,0.05-0.05c0.03,0,0.08-0.03,0.15-0.1C70.97,45.65,71.03,45.65,71.13,45.65z
			 M68.28,44.1c0,0.03-0.02,0.08-0.05,0.15c-0.03,0-0.08,0.02-0.15,0.05l-0.05,0.05c-0.1,0-0.17,0-0.2,0c-0.13,0-0.25,0-0.35,0
			c-0.07,0-0.17-0.02-0.3-0.05c-0.03-0.03-0.08-0.08-0.15-0.15c-0.03-0.03-0.07-0.07-0.1-0.1c0-0.07-0.03-0.12-0.1-0.15
			c0-0.03,0-0.08,0-0.15V43.7c0.07-0.03,0.1-0.08,0.1-0.15c0-0.03,0.02-0.07,0.05-0.1c0.03-0.07,0.08-0.12,0.15-0.15
			c0-0.03,0.02-0.05,0.05-0.05c0.03-0.03,0.08-0.05,0.15-0.05c0.03,0,0.08,0,0.15,0v-0.1c0.1,0,0.22,0,0.35,0
			c0.1,0.07,0.18,0.12,0.25,0.15s0.13,0.07,0.2,0.1c0,0.07,0.03,0.1,0.1,0.1c0,0.03,0.02,0.07,0.05,0.1c0,0.07,0,0.12,0,0.15
			c0,0.03,0,0.08,0,0.15c0,0.03,0,0.07,0,0.1C68.4,44.02,68.35,44.07,68.28,44.1z M62.53,43.9c0-0.03,0-0.08,0-0.15
			c0-0.03,0.02-0.07,0.05-0.1c0.03-0.07,0.08-0.12,0.15-0.15c0.03-0.03,0.07-0.05,0.1-0.05l0.1-0.1c0.03,0,0.08,0,0.15,0
			c0.1,0,0.2,0.03,0.3,0.1c0.07,0.03,0.13,0.07,0.2,0.1c0,0.07,0.02,0.12,0.05,0.15c0,0.03,0.02,0.05,0.05,0.05
			c0,0.07,0,0.12,0,0.15c0,0.03,0,0.08,0,0.15c0,0.03,0,0.07,0,0.1c-0.03,0.07-0.07,0.12-0.1,0.15c0,0.03-0.03,0.07-0.1,0.1
			c-0.03,0-0.07,0.03-0.1,0.1l-0.1,0.05c-0.07,0-0.13,0-0.2,0s-0.15-0.02-0.25-0.05c-0.07-0.07-0.13-0.12-0.2-0.15
			c-0.03-0.03-0.07-0.07-0.1-0.1c0-0.07,0-0.12,0-0.15v-0.05C62.53,43.98,62.53,43.93,62.53,43.9z"/>
		<path fill-rule="evenodd" clip-rule="evenodd" fill="#A42020" d="M38.58,42.2c0.07,0,0.12,0.02,0.15,0.05
			c0.1,0.03,0.17,0.08,0.2,0.15c0,0.03,0.02,0.05,0.05,0.05c0,0.03,0.03,0.08,0.1,0.15c0,0.03,0,0.07,0,0.1c0,0.07,0,0.12,0,0.15
			s0,0.08,0,0.15l-0.1,0.05l-0.05,0.05c0,0.07-0.02,0.12-0.05,0.15c-0.07,0-0.12,0.02-0.15,0.05l-0.05,0.05c-0.1,0-0.17,0-0.2,0
			c-0.1,0-0.18-0.02-0.25-0.05c-0.1-0.03-0.17-0.07-0.2-0.1c-0.07-0.07-0.12-0.12-0.15-0.15c0-0.03,0-0.08,0-0.15
			c0-0.03,0-0.07,0-0.1v-0.1c0-0.03,0-0.07,0-0.1c0-0.07,0.02-0.12,0.05-0.15c0.07-0.03,0.12-0.08,0.15-0.15
			c0.03-0.03,0.08-0.05,0.15-0.05c0-0.03,0.02-0.05,0.05-0.05c0.03,0,0.1,0,0.2,0v-0.1C38.52,42.1,38.55,42.13,38.58,42.2z
			 M47.48,48.35c0.03,0.07,0.05,0.12,0.05,0.15c0.03,0.03,0.08,0.08,0.15,0.15c0.03,0.03,0.07,0.07,0.1,0.1
			c0.13,0.03,0.25,0.05,0.35,0.05c0.03,0,0.1,0,0.2,0l0.05-0.05c0.07-0.03,0.12-0.05,0.15-0.05c0.03-0.03,0.05-0.08,0.05-0.15
			c0.03-0.03,0.08-0.07,0.15-0.1c0,0.03,0,0.07,0,0.1c-0.07,0.07-0.12,0.12-0.15,0.15c0,0.03-0.02,0.07-0.05,0.1
			c-0.03,0-0.08,0.03-0.15,0.1l-0.05,0.05c-0.1,0-0.17,0-0.2,0c-0.1,0-0.22-0.02-0.35-0.05c-0.03-0.07-0.07-0.12-0.1-0.15
			c-0.07-0.03-0.12-0.07-0.15-0.1c0-0.07-0.02-0.12-0.05-0.15C47.48,48.47,47.48,48.42,47.48,48.35z M51.03,51.7
			c0-0.03,0.02-0.05,0.05-0.05s0.08-0.02,0.15-0.05c0.03,0,0.1,0,0.2,0c0.07,0,0.15,0.02,0.25,0.05c0.1,0.03,0.17,0.08,0.2,0.15
			c0.07,0.03,0.13,0.07,0.2,0.1c0,0.07,0.02,0.1,0.05,0.1c0,0.03,0.02,0.07,0.05,0.1c0,0.03,0,0.08,0,0.15c0,0.03,0,0.07,0,0.1
			c0,0.07,0,0.12,0,0.15c-0.03,0.03-0.07,0.08-0.1,0.15c0,0.03-0.03,0.07-0.1,0.1c-0.03,0-0.07,0.03-0.1,0.1l-0.05,0.05
			c-0.1,0-0.17,0-0.2,0c-0.1,0-0.17,0-0.2,0c-0.1,0-0.22-0.02-0.35-0.05c-0.03-0.07-0.08-0.12-0.15-0.15
			c-0.03-0.03-0.07-0.08-0.1-0.15c0-0.03-0.03-0.07-0.1-0.1c0-0.07,0-0.12,0-0.15v-0.05c0-0.07,0-0.12,0-0.15
			c0.07-0.03,0.1-0.07,0.1-0.1c0-0.07,0.02-0.12,0.05-0.15C50.92,51.82,50.97,51.77,51.03,51.7z M43.48,50.15c0,0.03,0,0.07,0,0.1
			c0,0.07,0,0.12,0,0.15c-0.07,0.03-0.12,0.08-0.15,0.15c0,0.03-0.02,0.07-0.05,0.1c-0.07,0-0.12,0.03-0.15,0.1l-0.05,0.05
			c-0.1,0-0.17,0-0.2,0c-0.1,0-0.22-0.02-0.35-0.05c-0.03-0.07-0.07-0.12-0.1-0.15c-0.07-0.03-0.12-0.08-0.15-0.15
			c0-0.03-0.02-0.07-0.05-0.1v-0.1c0-0.03,0-0.07,0-0.1c0.03-0.07,0.05-0.12,0.05-0.15s0.02-0.08,0.05-0.15
			c0.07-0.03,0.12-0.07,0.15-0.1c0-0.03,0.02-0.05,0.05-0.05c0.07,0,0.12-0.03,0.15-0.1c0.03,0,0.1,0,0.2,0
			c0.07,0,0.15,0.03,0.25,0.1c0.03,0.03,0.1,0.07,0.2,0.1c0,0.03,0.02,0.08,0.05,0.15c0,0.03,0.03,0.05,0.1,0.05
			C43.48,50.03,43.48,50.08,43.48,50.15z"/>
		<path fill-rule="evenodd" clip-rule="evenodd" fill="#861A1A" d="M38.98,43.05l0.1-0.05c0-0.07,0-0.12,0-0.15s0-0.08,0-0.15
			c0-0.03,0-0.07,0-0.1c-0.07-0.07-0.1-0.12-0.1-0.15c-0.03,0-0.05-0.02-0.05-0.05c-0.03-0.07-0.1-0.12-0.2-0.15
			c-0.03-0.03-0.08-0.05-0.15-0.05v-0.1c0.07-0.03,0.12-0.07,0.15-0.1s0.08-0.05,0.15-0.05c0-0.07,0.02-0.1,0.05-0.1
			c0.03,0,0.1,0,0.2,0V41.8c0.1,0.03,0.18,0.08,0.25,0.15c0.1,0.03,0.17,0.07,0.2,0.1c0,0.03,0.02,0.05,0.05,0.05
			c0,0.07,0.03,0.12,0.1,0.15c0,0.03,0,0.08,0,0.15c0,0.03,0,0.07,0,0.1c0,0.07,0,0.12,0,0.15c-0.07,0.03-0.12,0.08-0.15,0.15
			c0,0.03-0.02,0.07-0.05,0.1c-0.03,0-0.08,0.03-0.15,0.1l-0.05,0.05c-0.1,0-0.17,0-0.2,0C39.1,43.05,39.05,43.05,38.98,43.05z
			 M29.93,37.15c0,0.03,0.02,0.07,0.05,0.1c0,0.07,0,0.12,0,0.15c0,0.03,0,0.08,0,0.15c-0.03,0.03-0.05,0.07-0.05,0.1
			c0,0.03-0.02,0.08-0.05,0.15c-0.07,0.03-0.12,0.05-0.15,0.05c-0.03,0.03-0.07,0.08-0.1,0.15c-0.1,0-0.17,0-0.2,0
			c-0.1,0-0.22-0.03-0.35-0.1c-0.03-0.03-0.08-0.07-0.15-0.1c-0.03-0.07-0.07-0.12-0.1-0.15c-0.07-0.03-0.1-0.07-0.1-0.1
			c-0.03,0-0.05-0.03-0.05-0.1c0-0.03,0-0.07,0-0.1c0-0.07,0-0.12,0-0.15c0-0.03,0-0.08,0-0.15c0-0.03,0-0.07,0-0.1
			c0.03-0.07,0.05-0.12,0.05-0.15c0.07-0.03,0.12-0.08,0.15-0.15c0.1,0,0.17-0.02,0.2-0.05c0.03,0,0.1,0,0.2,0v-0.05
			c0.1,0.03,0.18,0.07,0.25,0.1c0.1,0.07,0.17,0.12,0.2,0.15c0,0.03,0.02,0.05,0.05,0.05c0.07,0.07,0.1,0.12,0.1,0.15
			C29.92,37.03,29.93,37.08,29.93,37.15z M29.43,40.6c0-0.03,0-0.07,0-0.1c0-0.07,0-0.12,0-0.15c0.03-0.03,0.05-0.08,0.05-0.15
			c0.03-0.03,0.05-0.07,0.05-0.1c0.07-0.07,0.12-0.12,0.15-0.15c0.03,0,0.1-0.02,0.2-0.05c0.03,0,0.1,0,0.2,0v-0.05
			c0.07,0.03,0.15,0.07,0.25,0.1c0.03,0.03,0.1,0.08,0.2,0.15c0,0.03,0.02,0.05,0.05,0.05c0,0.03,0.03,0.08,0.1,0.15
			c0,0.03,0,0.07,0,0.1c0,0.07,0,0.12,0,0.15c0,0.03,0,0.08,0,0.15c0,0.03,0,0.07,0,0.1c-0.07,0.07-0.1,0.12-0.1,0.15
			c0,0.03-0.02,0.07-0.05,0.1c-0.03,0.07-0.08,0.1-0.15,0.1c-0.03,0.03-0.07,0.07-0.1,0.1c-0.1,0-0.17,0-0.2,0
			c-0.1,0-0.22-0.02-0.35-0.05c-0.03-0.03-0.07-0.08-0.1-0.15c-0.07-0.03-0.12-0.07-0.15-0.1c0-0.03-0.02-0.08-0.05-0.15v-0.05
			C29.43,40.72,29.43,40.67,29.43,40.6z M32.88,38.2c0.1,0.03,0.18,0.07,0.25,0.1c0.1,0.07,0.17,0.12,0.2,0.15
			c0,0.03,0.03,0.05,0.1,0.05c0,0.07,0.02,0.12,0.05,0.15c0,0.03,0,0.07,0,0.1c0,0.07,0,0.12,0,0.15c0,0.03,0,0.08,0,0.15
			c-0.03,0.03-0.08,0.07-0.15,0.1c0,0.07-0.02,0.12-0.05,0.15c-0.03,0-0.08,0.02-0.15,0.05l-0.05,0.1c-0.07,0-0.13,0-0.2,0
			c-0.07,0-0.15-0.03-0.25-0.1c-0.1-0.03-0.17-0.07-0.2-0.1c-0.03-0.07-0.08-0.12-0.15-0.15c0-0.03,0-0.08,0-0.15
			c0-0.03,0-0.07,0-0.1v-0.1c0-0.03,0-0.07,0-0.1c0-0.03,0.03-0.08,0.1-0.15c0.03-0.03,0.07-0.07,0.1-0.1
			c0.07-0.07,0.12-0.1,0.15-0.1c0-0.03,0.02-0.05,0.05-0.05c0.07,0,0.13,0,0.2,0V38.2z M35.43,43.25c0,0.03,0,0.07,0,0.1
			c0,0.07,0,0.12,0,0.15s0,0.08,0,0.15c-0.03,0.03-0.07,0.07-0.1,0.1c0,0.07-0.03,0.12-0.1,0.15c-0.03,0-0.07,0.02-0.1,0.05
			l-0.05,0.1c-0.1,0-0.17,0-0.2,0c-0.1,0-0.2-0.03-0.3-0.1c-0.07-0.03-0.13-0.07-0.2-0.1c-0.03-0.07-0.07-0.12-0.1-0.15
			c0-0.03,0-0.08,0-0.15c0-0.03,0-0.07,0-0.1v-0.1c0-0.03,0-0.07,0-0.1s0.02-0.08,0.05-0.15c0.03-0.03,0.08-0.07,0.15-0.1
			c0.03-0.07,0.07-0.1,0.1-0.1c0-0.03,0.03-0.05,0.1-0.05c0.03,0,0.1,0,0.2,0V42.8c0.07,0.03,0.15,0.07,0.25,0.1
			c0.07,0.07,0.13,0.12,0.2,0.15c0,0.03,0.02,0.05,0.05,0.05C35.38,43.17,35.4,43.22,35.43,43.25z M48.38,49.5c0,0.03,0,0.07,0,0.1
			c0,0.07,0,0.12,0,0.15s0,0.07,0,0.1c-0.03,0.07-0.07,0.12-0.1,0.15c0,0.03-0.03,0.08-0.1,0.15c-0.03,0-0.07,0.02-0.1,0.05
			l-0.1,0.05c-0.07,0-0.13,0-0.2,0c-0.03,0-0.07,0-0.1,0c-0.1,0-0.18-0.02-0.25-0.05c-0.1-0.03-0.17-0.08-0.2-0.15
			c-0.07-0.03-0.12-0.07-0.15-0.1c0-0.07,0-0.12,0-0.15c0-0.03,0-0.07,0-0.1v-0.1c0-0.03,0-0.07,0-0.1c0-0.07,0.02-0.12,0.05-0.15
			c0.07-0.03,0.12-0.08,0.15-0.15c0.03-0.03,0.08-0.05,0.15-0.05c0-0.03,0.02-0.05,0.05-0.05c0.03,0,0.1,0,0.2,0V49
			c0.03,0,0.07,0,0.1,0c0.1,0.07,0.2,0.12,0.3,0.15c0.03,0.03,0.1,0.08,0.2,0.15c0,0.03,0.02,0.05,0.05,0.05
			C48.33,49.38,48.35,49.43,48.38,49.5z M42.43,44.15V44.1c0.07,0.03,0.15,0.08,0.25,0.15c0.1,0.03,0.17,0.07,0.2,0.1
			c0,0.03,0.02,0.05,0.05,0.05c0,0.07,0.02,0.12,0.05,0.15c0,0.03,0,0.08,0,0.15c0,0.03,0,0.07,0,0.1c0,0.07,0,0.12,0,0.15
			c-0.03,0.03-0.07,0.08-0.1,0.15c0,0.03-0.02,0.07-0.05,0.1c-0.07,0-0.12,0.03-0.15,0.1l-0.05,0.05c-0.1,0-0.17,0-0.2,0
			c-0.1,0-0.2-0.02-0.3-0.05c-0.07-0.07-0.13-0.12-0.2-0.15c-0.03-0.03-0.07-0.08-0.1-0.15c0-0.03,0-0.07,0-0.1
			c0-0.07,0-0.12,0-0.15V44.7c0-0.07,0-0.12,0-0.15c0-0.03,0.02-0.08,0.05-0.15c0.03-0.03,0.08-0.07,0.15-0.1
			c0.03-0.03,0.07-0.05,0.1-0.05c0-0.07,0.03-0.1,0.1-0.1C42.27,44.15,42.33,44.15,42.43,44.15z M44.38,46.35
			c0,0.03,0.02,0.05,0.05,0.05c0,0.03,0,0.07,0,0.1c0,0.07,0,0.12,0,0.15c0,0.03,0,0.08,0,0.15c-0.03,0.03-0.07,0.07-0.1,0.1
			c0,0.07-0.03,0.12-0.1,0.15c-0.03,0-0.07,0.02-0.1,0.05l-0.05,0.1c-0.1,0-0.17,0-0.2,0c-0.1,0-0.22-0.03-0.35-0.1
			c-0.03-0.03-0.08-0.07-0.15-0.1c-0.03-0.07-0.07-0.12-0.1-0.15c0-0.03-0.03-0.08-0.1-0.15v-0.05c0-0.03,0-0.08,0-0.15
			c0.07-0.03,0.1-0.07,0.1-0.1c0-0.03,0.02-0.08,0.05-0.15c0.03-0.03,0.08-0.07,0.15-0.1c0-0.07,0.02-0.1,0.05-0.1
			c0.03,0,0.08-0.02,0.15-0.05c0.03,0,0.1,0,0.2,0c0.07,0,0.15,0.02,0.25,0.05c0.03,0.07,0.1,0.12,0.2,0.15
			C44.33,46.23,44.35,46.28,44.38,46.35z M39.53,46.5c0,0.07,0,0.12,0,0.15c0,0.03,0,0.08,0,0.15c-0.03,0.03-0.08,0.07-0.15,0.1
			c0,0.07-0.02,0.12-0.05,0.15c-0.03,0-0.08,0.02-0.15,0.05l-0.05,0.1c-0.1,0-0.17,0-0.2,0c-0.1,0-0.22-0.03-0.35-0.1
			c-0.03-0.03-0.07-0.07-0.1-0.1c-0.03-0.07-0.08-0.12-0.15-0.15c0-0.03-0.02-0.08-0.05-0.15v-0.05c0-0.03,0-0.08,0-0.15
			c0.03-0.03,0.05-0.07,0.05-0.1c0-0.03,0.03-0.08,0.1-0.15c0.03-0.03,0.07-0.07,0.1-0.1c0-0.07,0.02-0.1,0.05-0.1
			c0.07,0,0.12-0.02,0.15-0.05c0.03,0,0.1,0,0.2,0s0.18,0.02,0.25,0.05c0.07,0.07,0.13,0.12,0.2,0.15c0,0.03,0.03,0.08,0.1,0.15
			c0,0.03,0.02,0.05,0.05,0.05C39.53,46.43,39.53,46.47,39.53,46.5z M52.48,55.5c0,0.07,0.02,0.1,0.05,0.1c0,0.03,0,0.07,0,0.1
			c0,0.07,0,0.12,0,0.15s0,0.08,0,0.15c-0.03,0.03-0.08,0.07-0.15,0.1c0,0.07-0.02,0.12-0.05,0.15c-0.03,0-0.08,0.02-0.15,0.05
			l-0.05,0.1c-0.1,0-0.17,0-0.2,0c-0.07,0-0.15-0.03-0.25-0.1c-0.1-0.03-0.17-0.07-0.2-0.1c-0.03-0.07-0.08-0.12-0.15-0.15
			c0-0.03,0-0.08,0-0.15v-0.05c0-0.03,0-0.08,0-0.15c0-0.03,0-0.07,0-0.1c0-0.07,0.03-0.12,0.1-0.15c0.03-0.03,0.07-0.07,0.1-0.1
			c0.07-0.07,0.12-0.1,0.15-0.1l0.05-0.05c0.07,0,0.13,0,0.2,0c0.1,0,0.18,0.02,0.25,0.05c0.1,0.07,0.17,0.12,0.2,0.15
			C52.38,55.43,52.42,55.47,52.48,55.5z"/>
		<path fill-rule="evenodd" clip-rule="evenodd" fill="#D63F3F" d="M45.63,38.75c0,0.07,0,0.12,0,0.15c0,0.03,0,0.08,0,0.15
			c-0.03,0.03-0.08,0.07-0.15,0.1c0,0.07-0.02,0.12-0.05,0.15c-0.03,0-0.08,0.02-0.15,0.05l-0.05,0.1c-0.07,0-0.13,0-0.2,0
			c-0.07,0-0.15-0.03-0.25-0.1c-0.1-0.03-0.17-0.07-0.2-0.1c-0.03-0.07-0.08-0.12-0.15-0.15c0-0.03,0-0.08,0-0.15
			c0-0.03,0-0.07,0-0.1v-0.1c0-0.03,0-0.07,0-0.1c0-0.03,0.03-0.08,0.1-0.15c0.03-0.03,0.07-0.07,0.1-0.1
			c0.07-0.07,0.12-0.1,0.15-0.1c0-0.03,0.02-0.05,0.05-0.05c0.07,0,0.13,0,0.2,0V38.2c0.1,0.03,0.18,0.07,0.25,0.1
			c0.1,0.07,0.17,0.12,0.2,0.15c0,0.03,0.03,0.05,0.1,0.05c0,0.07,0.02,0.12,0.05,0.15C45.63,38.68,45.63,38.72,45.63,38.75z
			 M55.33,37.9c0.07,0,0.13,0,0.2,0v-0.05c0.07,0,0.12,0,0.15,0c0.1,0.03,0.18,0.08,0.25,0.15c0.07,0.03,0.13,0.07,0.2,0.1
			c0,0.07,0.03,0.1,0.1,0.1c0,0.03,0.02,0.07,0.05,0.1c0,0.07,0,0.12,0,0.15c0,0.03,0,0.08,0,0.15c0,0.03,0,0.07,0,0.1
			c-0.03,0.03-0.08,0.08-0.15,0.15c0,0.03-0.02,0.07-0.05,0.1c-0.03,0-0.08,0.03-0.15,0.1l-0.05,0.05c-0.1,0-0.17,0-0.2,0
			c-0.03,0-0.08,0-0.15,0c-0.07,0-0.15-0.02-0.25-0.05c-0.07-0.07-0.13-0.12-0.2-0.15c-0.03-0.03-0.07-0.08-0.1-0.15
			c0-0.03,0-0.07,0-0.1c0-0.03,0-0.08,0-0.15v-0.05c0-0.03,0-0.08,0-0.15c0-0.03,0.02-0.07,0.05-0.1c0.03-0.07,0.08-0.12,0.15-0.15
			c0.03-0.03,0.07-0.05,0.1-0.05C55.28,37.93,55.3,37.9,55.33,37.9z M52.73,42.5c0.03,0,0.1,0,0.2,0v-0.05
			c0.07,0.03,0.15,0.08,0.25,0.15c0.1,0.03,0.17,0.07,0.2,0.1c0,0.07,0.02,0.1,0.05,0.1c0,0.03,0.03,0.07,0.1,0.1
			c0,0.07,0,0.12,0,0.15c0,0.03,0,0.08,0,0.15c0,0.03,0,0.07,0,0.1c0,0.03,0,0.08,0,0.15c0,0.03,0,0.07,0,0.1
			c-0.07,0.07-0.1,0.12-0.1,0.15c0,0.03-0.02,0.05-0.05,0.05c-0.03,0.07-0.08,0.12-0.15,0.15c-0.03,0.03-0.07,0.08-0.1,0.15
			c-0.1,0-0.17,0-0.2,0c-0.1,0-0.18-0.03-0.25-0.1c-0.1-0.03-0.17-0.07-0.2-0.1c-0.07-0.07-0.12-0.12-0.15-0.15
			c0-0.03,0-0.08,0-0.15c0-0.03,0-0.07,0-0.1v-0.1c0-0.03,0-0.07,0-0.1s0-0.08,0-0.15c0-0.03,0-0.07,0-0.1c0-0.07,0-0.12,0-0.15
			c0.03-0.03,0.05-0.08,0.05-0.15c0.07-0.03,0.12-0.07,0.15-0.1C52.63,42.6,52.7,42.57,52.73,42.5z M61.73,46.65
			c0,0.03,0.02,0.05,0.05,0.05c0,0.07,0.02,0.12,0.05,0.15c0,0.03,0,0.08,0,0.15c0,0.03,0,0.07,0,0.1c0,0.07,0,0.12,0,0.15
			c-0.03,0.03-0.07,0.08-0.1,0.15c0,0.03-0.02,0.07-0.05,0.1c-0.07,0-0.12,0.03-0.15,0.1l-0.05,0.05c-0.1,0-0.17,0-0.2,0
			c-0.07,0-0.12,0-0.15,0c-0.1,0-0.18-0.02-0.25-0.05c-0.1-0.07-0.17-0.12-0.2-0.15c-0.03-0.03-0.08-0.08-0.15-0.15
			c0-0.03,0-0.07,0-0.1c0-0.07,0-0.12,0-0.15V47c0-0.07,0-0.12,0-0.15s0.03-0.08,0.1-0.15c0.03-0.03,0.07-0.07,0.1-0.1
			c0.03-0.07,0.08-0.1,0.15-0.1c0-0.03,0.02-0.05,0.05-0.05c0.03,0,0.1,0,0.2,0V46.4c0.03,0,0.08,0,0.15,0
			c0.07,0.03,0.15,0.07,0.25,0.1C61.57,46.57,61.63,46.62,61.73,46.65z"/>
		<path fill-rule="evenodd" clip-rule="evenodd" fill="#76767E" d="M27.78,24c-0.1,0-0.17,0-0.2,0c-0.07,0.03-0.12,0.05-0.15,0.05
			c-0.03,0-0.05,0.03-0.05,0.1c-0.03,0.03-0.08,0.07-0.15,0.1c-0.03,0.07-0.05,0.12-0.05,0.15c0,0.03-0.02,0.07-0.05,0.1
			c0,0.07,0,0.12,0,0.15v0.05c0.03,0.07,0.05,0.12,0.05,0.15c0.03,0.03,0.08,0.08,0.15,0.15c-0.1,0-0.17,0-0.2,0
			c-0.1,0-0.22-0.03-0.35-0.1c-0.03-0.03-0.08-0.07-0.15-0.1c-0.03-0.07-0.07-0.12-0.1-0.15c0-0.03-0.03-0.08-0.1-0.15
			c0-0.03,0-0.07,0-0.1v-0.05c0.07-0.07,0.1-0.12,0.1-0.15c0-0.03,0.02-0.08,0.05-0.15c0.03-0.03,0.08-0.07,0.15-0.1
			c0-0.07,0.02-0.1,0.05-0.1c0.03-0.03,0.08-0.05,0.15-0.05c0.03,0,0.1,0,0.2,0v-0.05c0.03,0,0.1,0,0.2,0
			c0.07,0.03,0.15,0.07,0.25,0.1C27.65,23.92,27.72,23.97,27.78,24z M22.43,24c0-0.03,0-0.08,0-0.15c0-0.03,0.03-0.07,0.1-0.1
			c0.03-0.07,0.07-0.12,0.1-0.15c0.07-0.03,0.12-0.05,0.15-0.05c0-0.07,0.02-0.1,0.05-0.1c0.07,0,0.13,0,0.2,0V23.4
			c0.03,0,0.08,0,0.15,0c0.07,0.03,0.15,0.08,0.25,0.15c0.03,0.03,0.1,0.07,0.2,0.1c0,0.07,0.02,0.1,0.05,0.1
			c0,0.03,0.03,0.07,0.1,0.1c0,0.07,0,0.12,0,0.15s0,0.08,0,0.15c0,0.03,0,0.07,0,0.1c-0.07,0.07-0.12,0.12-0.15,0.15
			c0,0.03-0.02,0.07-0.05,0.1c-0.07,0-0.12,0.03-0.15,0.1l-0.05,0.05c-0.1,0-0.17,0-0.2,0c-0.07,0-0.12,0-0.15,0
			c-0.07,0-0.15-0.02-0.25-0.05c-0.1-0.07-0.17-0.12-0.2-0.15c-0.03-0.03-0.08-0.07-0.15-0.1c0-0.07,0-0.12,0-0.15
			c0-0.03,0-0.08,0-0.15V24z M24.53,26.6c0,0.07,0.03,0.1,0.1,0.1c0,0.03,0,0.07,0,0.1c0,0.07,0,0.12,0,0.15c0,0.03,0,0.08,0,0.15
			c-0.07,0.03-0.12,0.07-0.15,0.1c0,0.07-0.02,0.12-0.05,0.15c-0.07,0-0.12,0.02-0.15,0.05l-0.05,0.1c-0.1,0-0.17,0-0.2,0
			c-0.1,0-0.18-0.03-0.25-0.1c-0.1-0.03-0.17-0.07-0.2-0.1c-0.07-0.07-0.12-0.12-0.15-0.15c0-0.03,0-0.08,0-0.15v-0.05
			c0-0.03,0-0.08,0-0.15c0-0.03,0-0.07,0-0.1c0-0.07,0.02-0.12,0.05-0.15c0.07-0.03,0.12-0.07,0.15-0.1c0.03-0.07,0.08-0.1,0.15-0.1
			l0.05-0.05c0.03,0,0.1,0,0.2,0c0.07,0,0.15,0.02,0.25,0.05c0.1,0.07,0.17,0.12,0.2,0.15C24.48,26.53,24.5,26.57,24.53,26.6z"/>
		<path fill-rule="evenodd" clip-rule="evenodd" fill="#CB2727" d="M29.43,34.85c0.03,0,0.1,0,0.2,0c0.07,0,0.15,0.02,0.25,0.05
			c0.07,0.03,0.13,0.08,0.2,0.15c0,0.03,0.02,0.07,0.05,0.1c0,0.07,0.02,0.1,0.05,0.1c0,0.03,0,0.07,0,0.1s0,0.08,0,0.15
			c0,0.03,0,0.07,0,0.1c-0.03,0.07-0.07,0.12-0.1,0.15c0,0.03-0.03,0.08-0.1,0.15c-0.03,0-0.07,0.02-0.1,0.05L29.78,36
			c-0.07,0-0.12,0-0.15,0c-0.1,0-0.2-0.02-0.3-0.05c-0.07-0.03-0.13-0.08-0.2-0.15c-0.03-0.03-0.07-0.07-0.1-0.1
			c0-0.07,0-0.12,0-0.15V35.5c0-0.07,0-0.12,0-0.15s0-0.07,0-0.1c0-0.07,0.02-0.12,0.05-0.15s0.08-0.08,0.15-0.15
			c0.03-0.03,0.07-0.05,0.1-0.05L29.43,34.85z M29.73,37.9c0.03,0,0.1,0,0.2,0v-0.05c0.1,0.03,0.18,0.08,0.25,0.15
			c0.1,0.03,0.17,0.07,0.2,0.1c0,0.07,0.03,0.1,0.1,0.1c0,0.03,0.02,0.07,0.05,0.1c0,0.07,0,0.12,0,0.15c0,0.03,0,0.08,0,0.15
			c0,0.03,0,0.07,0,0.1c-0.03,0.03-0.08,0.08-0.15,0.15c0,0.03-0.02,0.07-0.05,0.1c-0.03,0-0.08,0.03-0.15,0.1l-0.05,0.05
			c-0.1,0-0.17,0-0.2,0c-0.1,0-0.18-0.02-0.25-0.05c-0.1-0.07-0.17-0.12-0.2-0.15c-0.03-0.03-0.08-0.08-0.15-0.15
			c0-0.03,0-0.07,0-0.1c0-0.03,0-0.08,0-0.15v-0.05c0-0.03,0-0.08,0-0.15c0-0.03,0.03-0.07,0.1-0.1c0.03-0.07,0.07-0.12,0.1-0.15
			C29.6,38.02,29.65,38,29.68,38C29.68,37.93,29.7,37.9,29.73,37.9z M31.73,40.2c0.03,0,0.08,0,0.15,0v-0.05
			c0.1,0.03,0.2,0.08,0.3,0.15c0.07,0.03,0.13,0.07,0.2,0.1c0,0.07,0.02,0.1,0.05,0.1c0,0.03,0.02,0.07,0.05,0.1
			c0,0.07,0,0.12,0,0.15s0,0.08,0,0.15c0,0.03,0,0.07,0,0.1c-0.03,0.03-0.07,0.08-0.1,0.15c0,0.03-0.03,0.07-0.1,0.1
			c-0.03,0-0.07,0.03-0.1,0.1l-0.1,0.05c-0.07,0-0.13,0-0.2,0c-0.07,0-0.15-0.02-0.25-0.05c-0.07-0.07-0.13-0.12-0.2-0.15
			c-0.03-0.03-0.07-0.08-0.1-0.15c0-0.03,0-0.07,0-0.1c0-0.03,0-0.08,0-0.15v-0.05c0-0.03,0-0.08,0-0.15c0-0.03,0.02-0.07,0.05-0.1
			c0.03-0.07,0.08-0.12,0.15-0.15c0.03-0.03,0.07-0.05,0.1-0.05C31.63,40.23,31.67,40.2,31.73,40.2z M34.58,39.9
			c0-0.03,0.03-0.05,0.1-0.05c0.03,0,0.07-0.03,0.1-0.1c0.07,0,0.13,0,0.2,0c0.1,0,0.18,0.03,0.25,0.1c0.07,0.03,0.13,0.07,0.2,0.1
			c0,0.03,0.03,0.08,0.1,0.15c0,0.03,0.02,0.05,0.05,0.05c0,0.03,0,0.08,0,0.15c0,0.03,0,0.07,0,0.1c0,0.07,0,0.12,0,0.15
			c-0.03,0.03-0.08,0.08-0.15,0.15c0,0.03-0.02,0.07-0.05,0.1c-0.03,0-0.08,0.03-0.15,0.1l-0.05,0.05c-0.07,0-0.13,0-0.2,0
			c-0.07,0-0.17-0.02-0.3-0.05c-0.07-0.07-0.12-0.12-0.15-0.15c-0.03-0.03-0.08-0.08-0.15-0.15c0-0.03-0.02-0.07-0.05-0.1v-0.1
			c0-0.03,0-0.07,0-0.1c0.03-0.07,0.05-0.12,0.05-0.15c0-0.03,0.03-0.08,0.1-0.15C34.52,39.97,34.55,39.93,34.58,39.9z M48.73,48.45
			c-0.07,0.03-0.12,0.07-0.15,0.1c0,0.07-0.02,0.12-0.05,0.15c-0.03,0-0.08,0.02-0.15,0.05l-0.05,0.05c-0.1,0-0.17,0-0.2,0
			c-0.1,0-0.22-0.02-0.35-0.05c-0.03-0.03-0.07-0.07-0.1-0.1c-0.07-0.07-0.12-0.12-0.15-0.15c0-0.03-0.02-0.08-0.05-0.15V48.3
			c0-0.03,0-0.08,0-0.15c0.03-0.03,0.05-0.07,0.05-0.1c0-0.07,0.02-0.12,0.05-0.15c0.07-0.03,0.12-0.08,0.15-0.15
			c0-0.03,0.02-0.05,0.05-0.05c0.07,0,0.12-0.02,0.15-0.05c0.03,0,0.1,0,0.2,0c0.1,0,0.18,0.02,0.25,0.05
			c0.07,0.03,0.13,0.08,0.2,0.15c0,0.03,0.02,0.07,0.05,0.1c0,0.07,0.03,0.1,0.1,0.1c0,0.03,0,0.07,0,0.1c0,0.07,0,0.12,0,0.15
			C48.73,48.33,48.73,48.38,48.73,48.45z M50.23,50.6c0,0.03,0.02,0.05,0.05,0.05c0,0.07,0.03,0.12,0.1,0.15c0,0.03,0,0.08,0,0.15
			c0,0.03,0,0.07,0,0.1c0,0.03,0,0.08,0,0.15c-0.07,0.03-0.12,0.07-0.15,0.1c0,0.07-0.02,0.12-0.05,0.15
			c-0.07,0-0.12,0.02-0.15,0.05l-0.05,0.1c-0.1,0-0.17,0-0.2,0c-0.1,0-0.22-0.03-0.35-0.1c-0.03-0.03-0.07-0.07-0.1-0.1
			c-0.07-0.07-0.12-0.12-0.15-0.15c0-0.03-0.02-0.08-0.05-0.15c0-0.03,0-0.07,0-0.1v-0.05c0.03-0.07,0.05-0.12,0.05-0.15
			c0-0.03,0.02-0.08,0.05-0.15c0.07-0.03,0.12-0.07,0.15-0.1c0-0.07,0.02-0.1,0.05-0.1c0.07-0.03,0.12-0.05,0.15-0.05s0.1,0,0.2,0
			v-0.05c0.07,0.03,0.15,0.07,0.25,0.1C50.07,50.52,50.13,50.57,50.23,50.6z M45.38,50.25c0,0.07,0.02,0.1,0.05,0.1
			c0,0.03,0,0.07,0,0.1c0,0.07,0,0.12,0,0.15s0,0.08,0,0.15c-0.03,0.03-0.08,0.07-0.15,0.1c0,0.07-0.02,0.12-0.05,0.15
			c-0.03,0-0.07,0.02-0.1,0.05l-0.1,0.05c-0.07,0-0.13,0-0.2,0c-0.03,0-0.07,0-0.1,0c-0.1,0-0.2-0.02-0.3-0.05
			c-0.07-0.03-0.13-0.07-0.2-0.1c-0.03-0.07-0.07-0.12-0.1-0.15c0-0.03,0-0.08,0-0.15V50.6c0-0.03,0-0.08,0-0.15
			c0-0.03,0-0.07,0-0.1c0-0.07,0.02-0.12,0.05-0.15c0.03-0.03,0.08-0.08,0.15-0.15c0.03-0.03,0.07-0.05,0.1-0.05l0.1-0.05
			c0.03,0,0.1,0,0.2,0c0.03,0,0.07,0,0.1,0c0.1,0,0.2,0.02,0.3,0.05c0.03,0.03,0.08,0.08,0.15,0.15
			C45.28,50.18,45.32,50.22,45.38,50.25z"/>
	</g>
	<g>
		
			<line fill-rule="evenodd" clip-rule="evenodd" fill="none" stroke="#FFFFFF" stroke-width="0.75" stroke-linecap="round" stroke-linejoin="round" stroke-miterlimit="3" stroke-opacity="0.2745" x1="55.03" y1="48.65" x2="80.78" y2="48.65"/>
		
			<line fill-rule="evenodd" clip-rule="evenodd" fill="none" stroke="#FFFFFF" stroke-width="0.75" stroke-linecap="round" stroke-linejoin="round" stroke-miterlimit="3" stroke-opacity="0.2039" x1="2.83" y1="17.55" x2="55.03" y2="48.65"/>
	</g>
	<g>
		<path fill-rule="evenodd" clip-rule="evenodd" fill="#EAE8E1" d="M48.28,40.9c2.47,0.33,5.27,1.2,8.4,2.6
			c11.6,5.27,18.95,12.93,22.05,23c0.5,1.67,1.48,3.62,2.95,5.85l-5.55-4.3l5.55,4.3L96.33,84.7c1.33,1,3.28,2.48,5.85,4.45
			c3.53,2.77,8.28,6.47,14.25,11.1c10.2,8,15.15,15.17,14.85,21.5c-0.3,6.33,0.55,11.65,2.55,15.95c1.97,4.2-1.58,9.6-10.65,16.2
			c-7.17-3.97-12.77-6.85-16.8-8.65c-1.53-0.67-3.87-1.33-7-2c-3.3-0.73-5.95-1.5-7.95-2.3c-4.83-2-9.63-7.33-14.4-16
			c-4.07-7.5-7.48-16.02-10.25-25.55c-0.67-2.5-1.07-4.95-1.2-7.35c-0.03-1,0-3,0.1-6c0.13-4.47-0.68-8.4-2.45-11.8
			c-1.23-2.27-3.13-4.75-5.7-7.45c-1.5-1.43-3.92-3.62-7.25-6.55c-3-2.57-5.05-4.47-6.15-5.7c-1.7-1.9-2.53-3.5-2.5-4.8
			c0.03-0.67,0.43-1.65,1.2-2.95c0.83-1.33,1.85-2.63,3.05-3.9C46.72,42.17,47.52,41.5,48.28,40.9z M54.63,51.9
			c0.83,0.87,2.15,2.18,3.95,3.95c2.63,2.63,4.13,4.03,4.5,4.2l7.85,7.3C64.97,59.82,61.15,55.37,59.48,54
			c-1.57-1.33-3.07-2.03-4.5-2.1C54.85,51.9,54.73,51.9,54.63,51.9z M88.13,112.8c-0.67-4.2-2.4-7.97-5.2-11.3
			c-1.57-1.97-3.27-3.38-5.1-4.25c0.7,1.2,1.48,2.57,2.35,4.1C83.52,107.22,86.17,111.03,88.13,112.8z"/>
		<path fill-rule="evenodd" clip-rule="evenodd" fill="#BEBBA7" d="M123.18,153.9l-0.4,0.35h-0.1l-0.2,0.1
			c0.2,4.17-0.08,6.72-0.85,7.65c0.17,0.87-0.27,1.77-1.3,2.7c-2.47,2.13-4.28,3.28-5.45,3.45c-0.1,0-0.2,0-0.3,0
			c-1.13-0.87-2.2-1.72-3.2-2.55c-10.23-8.13-18.63-14.08-25.2-17.85c-7.6-4.3-11.48-6.52-11.65-6.65c-0.4-0.3-0.82-0.58-1.25-0.85
			c-0.43-0.3-2.05-1.72-4.85-4.25c-2.87-2.5-5.92-10.9-9.15-25.2l-4.5-20.2l-6.85-19.1L35.18,53.9c0.77-9.87,5.13-14.2,13.1-13
			c-0.77,0.6-1.57,1.27-2.4,2c-1.2,1.27-2.22,2.57-3.05,3.9c-0.77,1.3-1.17,2.28-1.2,2.95c-0.03,1.3,0.8,2.9,2.5,4.8
			c1.1,1.23,3.15,3.13,6.15,5.7c3.33,2.93,5.75,5.12,7.25,6.55c2.57,2.7,4.47,5.18,5.7,7.45c1.77,3.4,2.58,7.33,2.45,11.8
			c-0.1,3-0.13,5-0.1,6c0.13,2.4,0.53,4.85,1.2,7.35c2.77,9.53,6.18,18.05,10.25,25.55c4.77,8.67,9.57,14,14.4,16
			c2,0.8,4.65,1.57,7.95,2.3c3.13,0.67,5.47,1.33,7,2C110.42,147.05,116.02,149.93,123.18,153.9z"/>
		<path fill-rule="evenodd" clip-rule="evenodd" fill="#FFFFFF" d="M88.13,112.8c-1.97-1.77-4.62-5.58-7.95-11.45
			c-0.87-1.53-1.65-2.9-2.35-4.1c1.83,0.87,3.53,2.28,5.1,4.25C85.73,104.83,87.47,108.6,88.13,112.8z M54.63,51.9
			c0.1,0,0.22,0,0.35,0c1.43,0.07,2.93,0.77,4.5,2.1c1.67,1.37,5.48,5.82,11.45,13.35l-7.85-7.3c-0.37-0.17-1.87-1.57-4.5-4.2
			C56.78,54.08,55.47,52.77,54.63,51.9z"/>
		
			<path fill-rule="evenodd" clip-rule="evenodd" fill="none" stroke="#A29A80" stroke-width="0.75" stroke-linecap="round" stroke-linejoin="round" stroke-miterlimit="3" d="
			M102.18,89.15c-2.57-1.97-4.52-3.45-5.85-4.45L81.68,72.35l-5.55-4.3 M114.88,168.15c-0.1,0-0.2,0-0.3,0
			c-1.13-0.87-2.2-1.72-3.2-2.55c-10.23-8.13-18.63-14.08-25.2-17.85c-7.6-4.3-11.48-6.52-11.65-6.65c-0.4-0.3-0.82-0.58-1.25-0.85
			c-0.43-0.3-2.05-1.72-4.85-4.25c-2.87-2.5-5.92-10.9-9.15-25.2l-4.5-20.2l-6.85-19.1L35.18,53.9c0.77-9.87,5.13-14.2,13.1-13
			c2.47,0.33,5.27,1.2,8.4,2.6c11.6,5.27,18.95,12.93,22.05,23c0.5,1.67,1.48,3.62,2.95,5.85"/>
	</g>
</g>
</svg>
