<?xml version="1.0" encoding="utf-8"?>
<!-- Generator: Adobe Illustrator 16.0.0, SVG Export Plug-In . SVG Version: 6.00 Build 0)  -->
<!DOCTYPE svg PUBLIC "-//W3C//DTD SVG 1.1//EN" "http://www.w3.org/Graphics/SVG/1.1/DTD/svg11.dtd">
<svg version="1.1" id="Layer_1" xmlns="http://www.w3.org/2000/svg" xmlns:xlink="http://www.w3.org/1999/xlink" x="0px" y="0px"
	 width="129.33px" height="59.17px" viewBox="0 0 129.33 59.17" enable-background="new 0 0 129.33 59.17" xml:space="preserve">
<g>
	<g>
		<g>
			<path fill-rule="evenodd" clip-rule="evenodd" fill-opacity="0.4706" d="M5.4,52.79c0,0.14,0,0.26,0,0.37H1.28
				C0.81,51.31,1,48.06,1.85,43.4c2.52-1.53,3.83-0.89,3.94,1.93C5.93,48.13,5.8,50.61,5.4,52.79z"/>
		</g>
		<g>
			<path fill-rule="evenodd" clip-rule="evenodd" fill="#616161" d="M5.35,53.54c0,0.28,0,0.57,0,0.86c0.1-0.14,0.23-0.21,0.39-0.21
				h0.01l0.5-0.71l3.33-0.05c-2.2,2.48-3.36,3.75-3.5,3.8c-0.08,0.08-0.16,0.14-0.23,0.2c-0.87,0.59-1.58,0.56-2.14-0.1
				c-0.56-0.4-0.83-1.69-0.81-3.86v-9.21c0-0.3,0.12-0.58,0.37-0.86c0.26-0.23,0.54-0.34,0.83-0.34c0.33,0,0.62,0.11,0.86,0.34
				c0.26,0.28,0.39,0.57,0.39,0.86V53.54z"/>
		</g>
		<g>
			
				<radialGradient id="SVGID_1_" cx="-429.7163" cy="-357.9668" r="9.0125" gradientTransform="matrix(0.5217 0 0 0.5268 227.9063 239.7768)" gradientUnits="userSpaceOnUse">
				<stop  offset="0" style="stop-color:#FFFFFF"/>
				<stop  offset="1" style="stop-color:#F9F9F9;stop-opacity:0"/>
			</radialGradient>
			<path fill-rule="evenodd" clip-rule="evenodd" fill="url(#SVGID_1_)" d="M3.6,46.47c-0.04-0.03-0.04-0.07,0-0.1
				c0.03-0.04,0.07-0.04,0.1,0c0.03-0.04,0.07-0.04,0.1,0c0.04,0.03,0.05,0.07,0.05,0.1v9.5c0,0.04-0.02,0.07-0.05,0.1
				c-0.03,0.04-0.07,0.05-0.1,0.05c-0.04,0-0.07-0.02-0.1-0.05c-0.04-0.04-0.04-0.07,0-0.1V46.47z"/>
			<path fill-rule="evenodd" clip-rule="evenodd" fill="#FFFFFF" d="M4.54,44.86c-0.75-0.03-0.97-0.38-0.68-1.04
				c0.05-0.07,0.1-0.1,0.13-0.1c0.47,0.21,0.67,0.56,0.6,1.04C4.56,44.79,4.54,44.82,4.54,44.86z"/>
		</g>
	</g>
</g>
<g>
	<g>
		<g>
			<path fill-rule="evenodd" clip-rule="evenodd" fill-opacity="0.4706" d="M123.86,45.59c0.1-2.82,1.42-3.46,3.94-1.93
				c0.85,4.66,1.04,7.91,0.57,9.76h-4.12c0-0.1,0-0.23,0-0.37C123.85,50.87,123.72,48.39,123.86,45.59z"/>
		</g>
		<g>
			<path fill-rule="evenodd" clip-rule="evenodd" fill="#616161" d="M127.96,53.73c0.02,2.17-0.25,3.46-0.81,3.86
				c-0.56,0.66-1.27,0.7-2.14,0.1c-0.19-0.14-0.4-0.35-0.63-0.63c-0.11-0.08-0.19-0.17-0.26-0.29l-1.51-2.29
				c-0.05-0.07-0.25-0.44-0.61-1.1h2.83v0.05l0.68,1.06c0-0.24,0-0.47,0-0.69v-9.29c0-0.3,0.13-0.58,0.39-0.86
				c0.24-0.23,0.53-0.34,0.86-0.34c0.3,0,0.57,0.11,0.83,0.34c0.24,0.28,0.37,0.56,0.37,0.86V53.73z"/>
		</g>
		<g>
			
				<radialGradient id="SVGID_2_" cx="-376.2163" cy="-345.8672" r="9.0125" gradientTransform="matrix(-0.5217 0 0 0.5268 -69.1397 233.6634)" gradientUnits="userSpaceOnUse">
				<stop  offset="0" style="stop-color:#FFFFFF"/>
				<stop  offset="1" style="stop-color:#F9F9F9;stop-opacity:0"/>
			</radialGradient>
			<path fill-rule="evenodd" clip-rule="evenodd" fill="url(#SVGID_2_)" d="M127.04,46.63c0.04-0.04,0.07-0.04,0.1,0
				c0.04-0.04,0.07-0.04,0.1,0c0.04,0.03,0.04,0.07,0,0.1v9.5c0.04,0.04,0.04,0.07,0,0.1c-0.04,0.04-0.07,0.05-0.1,0.05
				s-0.07-0.02-0.1-0.05c-0.04-0.03-0.05-0.07-0.05-0.1v-9.5C126.99,46.7,127.01,46.67,127.04,46.63z"/>
			<path fill-rule="evenodd" clip-rule="evenodd" fill="#FFFFFF" d="M126.99,44.07c0.3,0.66,0.07,1.01-0.68,1.04
				c0-0.03-0.02-0.07-0.05-0.1c-0.07-0.49,0.13-0.83,0.6-1.04C126.9,43.97,126.94,44,126.99,44.07z"/>
		</g>
	</g>
</g>
</svg>
