<?xml version="1.0" encoding="utf-8"?>
<!-- Generator: Adobe Illustrator 16.0.0, SVG Export Plug-In . SVG Version: 6.00 Build 0)  -->
<!DOCTYPE svg PUBLIC "-//W3C//DTD SVG 1.1//EN" "http://www.w3.org/Graphics/SVG/1.1/DTD/svg11.dtd">
<svg version="1.1" id="Layer_6" xmlns="http://www.w3.org/2000/svg" xmlns:xlink="http://www.w3.org/1999/xlink" x="0px" y="0px"
	 width="163.67px" height="63.33px" viewBox="0 0 163.67 63.33" enable-background="new 0 0 163.67 63.33" xml:space="preserve">
<g>
	<g>
		<g>
			<path fill-rule="evenodd" clip-rule="evenodd" fill="#616161" d="M90.75,8.65L90.8,8.7c1.2,1.47,2.5,2.22,3.9,2.25h43.55
				c2.63,0.23,4.22,1.98,4.75,5.25c0,0.1,0,0.17,0,0.2v17.5c0,0.27-0.08,0.5-0.25,0.7c-0.2,0.23-0.43,0.38-0.7,0.45
				c-0.27,0.03-0.52,0-0.75-0.1c-0.3-0.1-0.48-0.28-0.55-0.55l-0.2-0.45l-0.4,21.2h-2.4l0.45-26.3c0-0.3,0.1-0.53,0.3-0.7
				c0.17-0.27,0.38-0.42,0.65-0.45c0.23-0.07,0.5-0.05,0.8,0.05c0.2,0.13,0.38,0.32,0.55,0.55l0.1,0.25V16.6
				c-0.3-1.97-1.15-3.05-2.55-3.25H94.7c-2.13,0-4.05-1.05-5.75-3.15L86,6.75c-0.57-0.57-1.08-0.95-1.55-1.15
				c-0.47-0.17-0.87-0.17-1.2,0H83.2c-0.57,0.2-1.12,0.63-1.65,1.3l-2.2,2.65c-1.53,2.53-3.78,3.8-6.75,3.8H25.85
				c-1.4,0.2-2.25,1.28-2.55,3.25v12l0.15-0.25c0.1-0.27,0.28-0.47,0.55-0.6c0.23-0.1,0.48-0.12,0.75-0.05
				c0.27,0.03,0.5,0.18,0.7,0.45c0.17,0.17,0.25,0.4,0.25,0.7l0.3,16h-2.35l-0.2-10.95l-0.25,0.5c-0.13,0.27-0.32,0.45-0.55,0.55
				c-0.27,0.1-0.52,0.13-0.75,0.1c-0.3-0.07-0.52-0.22-0.65-0.45c-0.2-0.2-0.3-0.43-0.3-0.7V16.4c0-0.03,0-0.1,0-0.2
				c0.53-3.27,2.1-5.02,4.7-5.25c0.03,0,0.07,0,0.1,0H72.6c2.1,0,3.67-0.9,4.7-2.7c0.03-0.07,0.08-0.12,0.15-0.15l2.3-2.8
				c0.9-1.03,1.82-1.7,2.75-2c0.83-0.33,1.73-0.33,2.7,0c0.83,0.3,1.7,0.9,2.6,1.8v0.1L90.75,8.65z"/>
		</g>
		<g>
			<line fill-rule="evenodd" clip-rule="evenodd" fill="none" x1="87.7" y1="6.65" x2="91.75" y2="10.95"/>
			<line fill-rule="evenodd" clip-rule="evenodd" fill="none" x1="76.8" y1="10.7" x2="79.5" y2="7.25"/>
			<path fill-rule="evenodd" clip-rule="evenodd" fill="none" d="M71.8,12.5c2.3-0.23,3.83-0.72,4.6-1.45"/>
			<path fill-rule="evenodd" clip-rule="evenodd" fill="none" d="M81.15,5.55c1.83-1.87,3.5-1.92,5-0.15"/>
			<line fill-rule="evenodd" clip-rule="evenodd" fill="none" x1="94.8" y1="12.15" x2="139.55" y2="12.15"/>
			<line fill-rule="evenodd" clip-rule="evenodd" fill="none" x1="141.85" y1="16.3" x2="141.85" y2="28.55"/>
			<line fill-rule="evenodd" clip-rule="evenodd" fill="none" x1="21.9" y1="17.5" x2="21.9" y2="25.9"/>
			<line fill-rule="evenodd" clip-rule="evenodd" fill="none" x1="23.55" y1="12.15" x2="68.35" y2="12.15"/>
		</g>
		<g>
			<path fill-rule="evenodd" clip-rule="evenodd" fill="#FFFFFF" d="M92.65,10.75c0.37,0.1,0.62,0.28,0.75,0.55
				c0,0.03,0,0.08,0,0.15c-0.8,0.37-1.08,0.18-0.85-0.55C92.55,10.8,92.58,10.75,92.65,10.75z M140.7,13.3
				c-0.9-0.27-1.13-0.7-0.7-1.3c0.07,0,0.1-0.03,0.1-0.1c0.6,0.27,0.82,0.7,0.65,1.3C140.72,13.23,140.7,13.27,140.7,13.3z
				 M141.95,17.15c-0.57-0.7-0.57-1.42,0-2.15c0.47,0.6,0.5,1.27,0.1,2C142.02,17.07,141.98,17.12,141.95,17.15z M27.55,12.4
				c-0.47,0.37-0.83,0.27-1.1-0.3c-0.03-0.17,0.03-0.25,0.2-0.25c0.13-0.03,0.25-0.05,0.35-0.05h0.05c0.2-0.13,2.63-0.15,7.3-0.05
				c4.7,0.07,7.23,0.1,7.6,0.1l-8.4,0.25C31.58,13,29.58,13.1,27.55,12.4z"/>
		</g>
	</g>
	<g>
		<polygon fill-rule="evenodd" clip-rule="evenodd" fill="#5A5D63" points="83.95,30.65 4.25,30.65 9.15,28.75 85.1,28.75 		"/>
		<polygon fill-rule="evenodd" clip-rule="evenodd" fill="#C61C1C" points="158.75,30.65 83.95,30.65 85.1,28.75 157.4,28.75 		"/>
		<rect x="83.95" y="30.65" fill-rule="evenodd" clip-rule="evenodd" fill="#D82B2B" width="74.8" height="24.35"/>
		<rect x="4.25" y="30.65" fill-rule="evenodd" clip-rule="evenodd" fill="#6B6C74" width="79.7" height="24.35"/>
	</g>
	<g>
		
			<rect x="4.2" y="30.65" fill-rule="evenodd" clip-rule="evenodd" fill="#FFFFFF" fill-opacity="0.3216" width="154.55" height="0.15"/>
	</g>
	<g>
		<path fill-rule="evenodd" clip-rule="evenodd" fill="#7E8089" d="M74.4,32.75c0.03-0.07,0.07-0.12,0.1-0.15h0.05
			c0-0.03,0.05-0.07,0.15-0.1c0.17-0.07,0.37-0.1,0.6-0.1c0.3,0,0.53,0.07,0.7,0.2c0.1,0.13,0.13,0.25,0.1,0.35
			c-0.07,0.37-0.33,0.57-0.8,0.6c-0.3,0-0.57-0.08-0.8-0.25C74.3,33.17,74.27,32.98,74.4,32.75z M78.45,35.35
			c0-0.03,0.02-0.05,0.05-0.05l0.1-0.1c0.17-0.07,0.35-0.1,0.55-0.1c0.3,0,0.57,0.07,0.8,0.2c0.1,0.13,0.12,0.27,0.05,0.4
			c-0.03,0.33-0.32,0.52-0.85,0.55c-0.23,0-0.47-0.08-0.7-0.25c-0.23-0.13-0.28-0.3-0.15-0.5C78.37,35.44,78.42,35.39,78.45,35.35z
			 M13.5,31.95c-0.07,0.43-0.47,0.63-1.2,0.6c-0.37,0-0.65-0.13-0.85-0.4c-0.03-0.13-0.03-0.27,0-0.4c0-0.03,0.05-0.07,0.15-0.1
			V31.6c0-0.03,0.02-0.05,0.05-0.05l0.1-0.05c0.57-0.13,1.05-0.13,1.45,0c0.07,0,0.13,0.02,0.2,0.05
			C13.5,31.72,13.53,31.85,13.5,31.95z M80.7,32.1h0.1c0-0.03,0.03-0.07,0.1-0.1c0.17-0.07,0.35-0.1,0.55-0.1
			c0.33,0,0.58,0.07,0.75,0.2c0.13,0.1,0.2,0.2,0.2,0.3v0.05c-0.1,0.33-0.42,0.55-0.95,0.65c-0.27,0-0.52-0.1-0.75-0.3
			c-0.2-0.13-0.23-0.32-0.1-0.55C80.63,32.19,80.67,32.14,80.7,32.1z M43.2,32.2c-0.03-0.03-0.1-0.05-0.2-0.05c-0.03,0-0.07,0-0.1,0
			c-0.3-0.07-0.47-0.17-0.5-0.3c0.63-0.4,1.2-0.4,1.7,0C43.97,31.98,43.67,32.1,43.2,32.2z"/>
		<path fill-rule="evenodd" clip-rule="evenodd" fill="#76787C" d="M70.4,35.4c0.3,0,0.55,0.08,0.75,0.25
			c0.17,0.13,0.23,0.25,0.2,0.35c-0.1,0.37-0.42,0.57-0.95,0.6c-0.27,0-0.5-0.08-0.7-0.25c-0.23-0.13-0.28-0.32-0.15-0.55
			c0.07-0.07,0.12-0.1,0.15-0.1v-0.05c0-0.03,0.03-0.07,0.1-0.1C70.03,35.45,70.23,35.4,70.4,35.4z M63.8,34.75V34.7l0.1-0.1
			c0.2-0.07,0.38-0.1,0.55-0.1c0.33,0,0.58,0.07,0.75,0.2c0.13,0.13,0.18,0.27,0.15,0.4c-0.07,0.33-0.37,0.53-0.9,0.6
			c-0.23,0-0.45-0.1-0.65-0.3c-0.27-0.13-0.33-0.3-0.2-0.5C63.67,34.83,63.73,34.78,63.8,34.75z M68.9,31.85
			c-0.1,0.3-0.4,0.48-0.9,0.55c-0.27,0-0.52-0.1-0.75-0.3c-0.17-0.07-0.23-0.15-0.2-0.25C67.58,31.52,68.2,31.52,68.9,31.85z
			 M69.4,39c0.1-0.07,0.15-0.12,0.15-0.15c0.17-0.1,0.37-0.15,0.6-0.15c0.33,0,0.65,0.08,0.95,0.25c0.07,0.13,0.08,0.25,0.05,0.35
			c0,0.4-0.33,0.6-1,0.6c-0.3,0-0.57-0.1-0.8-0.3c-0.17-0.17-0.18-0.33-0.05-0.5c0-0.03,0.02-0.07,0.05-0.1H69.4z M61.55,36.7
			c-0.1,0-0.15-0.03-0.15-0.1l-0.05-0.05c-0.03,0.37-0.37,0.55-1,0.55c-0.37,0-0.65-0.1-0.85-0.3c-0.13-0.17-0.15-0.33-0.05-0.5
			c0-0.03,0.02-0.07,0.05-0.1h0.05c0.03-0.07,0.08-0.12,0.15-0.15c0.17-0.07,0.38-0.1,0.65-0.1c0.33,0,0.6,0.07,0.8,0.2l0.15,0.05
			c0-0.03,0-0.07,0-0.1c0-0.07,0.02-0.1,0.05-0.1c0-0.07,0.02-0.12,0.05-0.15c0-0.03,0.05-0.05,0.15-0.05c0-0.03,0-0.07,0-0.1
			c0.33-0.13,0.65-0.13,0.95,0c0.53,0.33,0.68,0.62,0.45,0.85c-0.13,0.13-0.38,0.25-0.75,0.35c-0.1,0-0.25-0.05-0.45-0.15
			C61.65,36.75,61.58,36.73,61.55,36.7z M62.35,41.15c0-0.03,0.03-0.1,0.1-0.2c0.03-0.03,0.07-0.07,0.1-0.1
			c0-0.03,0.02-0.05,0.05-0.05c0-0.03,0.02-0.07,0.05-0.1c0.2-0.1,0.4-0.15,0.6-0.15c0.37,0,0.62,0.08,0.75,0.25
			c0.17,0.13,0.23,0.25,0.2,0.35c-0.07,0.3-0.32,0.48-0.75,0.55c-0.03,0.03-0.1,0.05-0.2,0.05c-0.27,0-0.5-0.08-0.7-0.25
			C62.42,41.44,62.35,41.32,62.35,41.15z M76.9,41.5c0.07,0.03,0.13,0.08,0.2,0.15c0.07,0.07,0.1,0.15,0.1,0.25
			c0,0.03,0,0.08,0,0.15c-0.03,0.33-0.32,0.53-0.85,0.6c-0.27,0-0.5-0.1-0.7-0.3c-0.23-0.13-0.3-0.32-0.2-0.55
			c0.03-0.07,0.1-0.1,0.2-0.1c0-0.03,0.02-0.05,0.05-0.05c0-0.03,0.02-0.07,0.05-0.1c0.17-0.07,0.37-0.1,0.6-0.1
			C76.55,41.45,76.73,41.47,76.9,41.5z M79,42.1c0.1,0.13,0.15,0.25,0.15,0.35c-0.03,0.23-0.22,0.4-0.55,0.5
			c-0.13,0.03-0.27,0.07-0.4,0.1c-0.1,0-0.23-0.03-0.4-0.1c-0.1-0.03-0.2-0.08-0.3-0.15c-0.23-0.13-0.28-0.32-0.15-0.55
			c0.03-0.07,0.08-0.12,0.15-0.15h0.05c0-0.03,0.02-0.08,0.05-0.15c0.17-0.03,0.37-0.05,0.6-0.05c0.07,0,0.15,0,0.25,0
			C78.68,41.9,78.87,41.97,79,42.1z M6.3,39.35l0.1-0.05c0-0.03,0.02-0.05,0.05-0.05L6.5,39.2c0.23-0.13,0.5-0.17,0.8-0.1
			c0.2,0,0.37,0.05,0.5,0.15h0.05c0.07,0.07,0.13,0.12,0.2,0.15c0.03,0.07,0.1,0.12,0.2,0.15c0.13,0.13,0.18,0.25,0.15,0.35
			c-0.1,0.43-0.5,0.63-1.2,0.6c-0.43,0-0.73-0.13-0.9-0.4V39.35z M17.9,39.55c0.43,0,0.73,0.12,0.9,0.35
			c0.03,0.03,0.05,0.1,0.05,0.2c0.1,0.13,0.12,0.27,0.05,0.4c-0.07,0.33-0.42,0.5-1.05,0.5c-0.03,0-0.1-0.02-0.2-0.05
			c-0.13,0-0.28-0.05-0.45-0.15c-0.03,0-0.05-0.02-0.05-0.05L17.1,40.7c-0.03,0-0.05-0.02-0.05-0.05c-0.07-0.17-0.1-0.33-0.1-0.5
			c0-0.07,0.03-0.17,0.1-0.3l0.05-0.1h0.05c0.03-0.07,0.07-0.12,0.1-0.15c0.2-0.07,0.4-0.08,0.6-0.05H17.9z M11.95,41.3
			c0,0.03,0,0.08,0,0.15c-0.1,0.33-0.4,0.53-0.9,0.6c-0.2-0.07-0.42-0.1-0.65-0.1c-0.1,0-0.18-0.02-0.25-0.05
			c-0.6-0.13-0.8-0.4-0.6-0.8c0-0.03,0.03-0.07,0.1-0.1c0-0.03,0.02-0.05,0.05-0.05V40.9h0.05c0.67-0.23,1.27-0.23,1.8,0
			c0.07,0.03,0.13,0.08,0.2,0.15c0.03,0.03,0.1,0.07,0.2,0.1V41.3z M14.2,39.7c0.13,0.13,0.15,0.27,0.05,0.4
			c-0.03,0.4-0.38,0.6-1.05,0.6c-0.13,0-0.28-0.05-0.45-0.15c-0.1,0-0.2-0.03-0.3-0.1c-0.03,0-0.05-0.02-0.05-0.05l-0.05-0.05
			c-0.03,0-0.05-0.02-0.05-0.05c-0.03-0.07-0.05-0.13-0.05-0.2c0-0.1,0-0.17,0-0.2c0-0.03,0.02-0.08,0.05-0.15l0.1-0.1
			c0-0.03,0.02-0.05,0.05-0.05c0-0.03,0.05-0.05,0.15-0.05c0.1-0.03,0.23-0.07,0.4-0.1C13.47,39.42,13.87,39.5,14.2,39.7z
			 M20.5,44.25c-0.1,0-0.15,0.02-0.15,0.05c0,0.33-0.28,0.53-0.85,0.6c-0.17,0-0.33-0.05-0.5-0.15c-0.07-0.03-0.13-0.07-0.2-0.1
			c-0.23-0.13-0.28-0.32-0.15-0.55c0.03-0.03,0.08-0.08,0.15-0.15c0-0.03,0.02-0.05,0.05-0.05l0.05-0.05
			c0.17-0.1,0.37-0.15,0.6-0.15c0.3,0,0.55,0.07,0.75,0.2C20.32,44.03,20.4,44.15,20.5,44.25z M30.15,32.3
			c-0.13-0.13-0.15-0.28-0.05-0.45c0.7-0.37,1.4-0.37,2.1,0c0.4,0.4,0.08,0.65-0.95,0.75C30.85,32.6,30.48,32.5,30.15,32.3z
			 M24.2,31.85c0,0.03,0,0.07,0,0.1c-0.07,0.33-0.38,0.53-0.95,0.6c-0.27,0-0.52-0.08-0.75-0.25c-0.17-0.13-0.2-0.28-0.1-0.45
			C22.77,31.45,23.37,31.45,24.2,31.85z M28,38.35c0.33,0,0.57,0.07,0.7,0.2c0.1,0.13,0.15,0.25,0.15,0.35c0,0.03,0,0.07,0,0.1
			c-0.03,0.33-0.32,0.52-0.85,0.55c-0.2,0-0.35-0.03-0.45-0.1c-0.1-0.03-0.2-0.08-0.3-0.15c-0.2-0.13-0.27-0.32-0.2-0.55
			c0.07-0.03,0.13-0.07,0.2-0.1v-0.1l0.15-0.05C27.6,38.4,27.8,38.35,28,38.35z M26.05,41.35L26,41.5c0,0.13-0.07,0.28-0.2,0.45
			c-0.17,0.1-0.35,0.17-0.55,0.2c-0.17,0.1-0.37,0.17-0.6,0.2c-0.27,0-0.6-0.02-1-0.05c-0.07,0-0.15,0-0.25,0
			c-0.23,0-0.45-0.07-0.65-0.2c-0.2-0.13-0.3-0.28-0.3-0.45c0-0.03,0-0.08,0-0.15h0.05c0-0.03,0.03-0.07,0.1-0.1l0.05-0.05
			c0-0.03,0.03-0.05,0.1-0.05l0.05-0.05c0.17-0.1,0.35-0.15,0.55-0.15c-0.07-0.03-0.07-0.08,0-0.15c0-0.03,0.02-0.05,0.05-0.05
			l0.05-0.05c0-0.03,0.03-0.05,0.1-0.05c0-0.03,0.02-0.07,0.05-0.1c0.3-0.1,0.57-0.15,0.8-0.15c0.57,0,1.07,0.12,1.5,0.35
			C26.03,41.03,26.08,41.19,26.05,41.35z M27.25,44.35c-0.07,0-0.1-0.02-0.1-0.05c-0.07,0-0.1-0.02-0.1-0.05
			c-0.03-0.13-0.03-0.27,0-0.4c0.23-0.23,0.53-0.35,0.9-0.35c1.17-0.03,1.48,0.27,0.95,0.9c-0.07,0.03-0.17,0.07-0.3,0.1
			c-0.2,0.1-0.4,0.15-0.6,0.15c-0.1-0.03-0.22-0.07-0.35-0.1s-0.27-0.07-0.4-0.1V44.35z M35.35,40.9c0,0.06-0.03,0.13-0.1,0.2
			c-0.03,0-0.05,0.02-0.05,0.05c-0.17,0.2-0.45,0.3-0.85,0.3c-0.13,0-0.22-0.02-0.25-0.05c-0.2-0.03-0.4-0.13-0.6-0.3
			c-0.03,0-0.05-0.03-0.05-0.1c-0.07-0.1-0.07-0.22,0-0.35c0-0.07,0.02-0.1,0.05-0.1l0.05-0.05c0.1-0.07,0.17-0.12,0.2-0.15
			c0.17-0.07,0.37-0.1,0.6-0.1c0.37,0,0.65,0.07,0.85,0.2c0.13,0.17,0.18,0.3,0.15,0.4V40.9z M40.65,40.1
			c0.1,0.03,0.17,0.07,0.2,0.1c0.03,0.07,0.08,0.12,0.15,0.15c0.03,0.07,0.03,0.13,0,0.2c-0.07,0.4-0.43,0.6-1.1,0.6
			c-0.23,0-0.47-0.08-0.7-0.25c-0.13-0.17-0.17-0.35-0.1-0.55l0.1-0.05l0.1-0.1c0-0.03,0-0.07,0-0.1c0.23-0.1,0.43-0.15,0.6-0.15
			C40.23,39.95,40.48,40,40.65,40.1z M33.5,36.2c0.33,0,0.57,0.07,0.7,0.2c0.13,0.13,0.2,0.25,0.2,0.35
			c-0.03,0.37-0.33,0.57-0.9,0.6c-0.1,0-0.22-0.02-0.35-0.05s-0.27-0.1-0.4-0.2c-0.2-0.13-0.25-0.32-0.15-0.55
			c0.03-0.03,0.08-0.05,0.15-0.05c0-0.07,0.03-0.1,0.1-0.1c0-0.03,0.03-0.07,0.1-0.1C33.12,36.23,33.3,36.2,33.5,36.2z M43.6,32.35
			c0-0.03,0-0.07,0-0.1c0.23-0.1,0.45-0.15,0.65-0.15c0.37,0,0.67,0.08,0.9,0.25c0.13,0.13,0.18,0.25,0.15,0.35
			c-0.07,0.4-0.42,0.6-1.05,0.6c-0.1,0-0.22-0.03-0.35-0.1c-0.2-0.03-0.33-0.1-0.4-0.2c-0.17-0.17-0.22-0.33-0.15-0.5
			c0-0.03,0.05-0.07,0.15-0.1L43.6,32.35z M48.35,35.7h0.05c0.07,0,0.18,0,0.35,0c0.2,0,0.4,0,0.6,0c0.1,0.07,0.18,0.13,0.25,0.2
			c0.13,0.13,0.18,0.25,0.15,0.35c-0.03,0.43-0.37,0.65-1,0.65c-0.33,0-0.62-0.12-0.85-0.35c-0.07,0-0.15,0.02-0.25,0.05
			c-0.03-0.03-0.07-0.05-0.1-0.05c0,0.03,0,0.08,0,0.15c0,0.13-0.12,0.22-0.35,0.25c-0.77,0.33-1.65,0.55-2.65,0.65
			c-0.03,0-0.08-0.02-0.15-0.05c-0.23,0-0.42-0.05-0.55-0.15c-0.23-0.17-0.32-0.37-0.25-0.6c0.13-0.03,0.22-0.07,0.25-0.1h0.05
			c0-0.07,0.02-0.12,0.05-0.15c0.3-0.03,0.57-0.12,0.8-0.25c0.2-0.07,0.42-0.12,0.65-0.15c0.53-0.1,0.98-0.1,1.35,0
			c-0.07-0.17-0.07-0.33,0-0.5c0.07-0.07,0.12-0.12,0.15-0.15h0.05c0-0.07,0.03-0.1,0.1-0.1c0.37-0.17,0.67-0.17,0.9,0
			C48.12,35.5,48.25,35.6,48.35,35.7z M42.6,36.05c0.13,0.13,0.18,0.28,0.15,0.45c-0.07,0.3-0.38,0.48-0.95,0.55
			c-0.23,0-0.47-0.1-0.7-0.3c-0.2-0.13-0.23-0.32-0.1-0.55c0.03-0.03,0.07-0.07,0.1-0.1c0-0.03,0.02-0.05,0.05-0.05
			c0-0.03,0.02-0.05,0.05-0.05c0.2-0.1,0.4-0.15,0.6-0.15C42.17,35.85,42.43,35.92,42.6,36.05z M49,39.55
			c0.53,0.27,0.8,0.52,0.8,0.75c0,0.27-0.32,0.5-0.95,0.7c-0.03,0-0.08-0.02-0.15-0.05c-0.1,0-0.18-0.02-0.25-0.05
			c-0.07,0-0.15-0.03-0.25-0.1c-0.07-0.07-0.17-0.15-0.3-0.25c-0.07-0.07-0.12-0.13-0.15-0.2c-0.1-0.1-0.15-0.18-0.15-0.25
			c-0.03-0.1-0.03-0.18,0-0.25c0.03-0.07,0.08-0.1,0.15-0.1c0-0.03,0.02-0.05,0.05-0.05c0-0.03,0.02-0.07,0.05-0.1
			c0.17-0.03,0.3-0.05,0.4-0.05C48.55,39.48,48.8,39.48,49,39.55z M45.7,38.15c0-0.03,0.03-0.05,0.1-0.05c0-0.03,0.02-0.07,0.05-0.1
			c0.4-0.17,0.77-0.13,1.1,0.1c0.93,0.57,0.92,1-0.05,1.3c0.13,0.13,0.22,0.25,0.25,0.35c0.07,0.27-0.2,0.48-0.8,0.65
			c-0.07-0.03-0.15-0.05-0.25-0.05c-0.03,0-0.07,0-0.1,0c-0.23-0.03-0.42-0.12-0.55-0.25c-0.03-0.03-0.05-0.08-0.05-0.15
			c-0.03-0.17-0.03-0.33,0-0.5c0.03-0.07,0.12-0.12,0.25-0.15v-0.05l0.05-0.05l0.1-0.05c-0.07-0.07-0.12-0.12-0.15-0.15
			c-0.17-0.23-0.17-0.47,0-0.7C45.65,38.2,45.67,38.15,45.7,38.15z M59.3,41.95c0.1,0.1,0.18,0.17,0.25,0.2
			c0.13,0.13,0.18,0.27,0.15,0.4c-0.03,0.17-0.13,0.3-0.3,0.4c-0.13,0.1-0.32,0.17-0.55,0.2c-0.17,0-0.37-0.07-0.6-0.2
			c-0.07-0.03-0.13-0.07-0.2-0.1c-0.1-0.07-0.15-0.17-0.15-0.3c0-0.07,0.02-0.15,0.05-0.25c0.03-0.03,0.07-0.08,0.1-0.15h0.1
			c0-0.03,0.02-0.05,0.05-0.05c0.2-0.1,0.42-0.15,0.65-0.15C59.02,41.95,59.17,41.95,59.3,41.95z M52,36.55
			c0.17-0.03,0.37-0.03,0.6,0c0.3,0,0.55,0.05,0.75,0.15l0.05,0.05c0.13,0.13,0.17,0.28,0.1,0.45c-0.13,0.43-0.58,0.62-1.35,0.55
			c-0.53-0.03-0.83-0.22-0.9-0.55c-0.03-0.07-0.03-0.17,0-0.3l0.05-0.1l0.05-0.05h0.1c0-0.03,0.03-0.05,0.1-0.05
			C51.68,36.6,51.83,36.55,52,36.55z M59.3,39.25c0.77,0.43,0.77,0.78,0,1.05c-0.1,0.03-0.22,0.07-0.35,0.1
			c-0.03-0.03-0.08-0.05-0.15-0.05c-0.07,0-0.12,0-0.15,0s-0.08-0.02-0.15-0.05c-0.23-0.07-0.38-0.18-0.45-0.35
			c-0.03-0.17-0.03-0.33,0-0.5c0.07-0.07,0.12-0.12,0.15-0.15c0-0.03,0.03-0.05,0.1-0.05l0.05-0.05
			C58.72,39.07,59.03,39.08,59.3,39.25z M54.6,42.45c0-0.07,0.02-0.1,0.05-0.1l0.1-0.05c0.33-0.1,0.67-0.17,1-0.2
			c0.43-0.03,0.8,0.03,1.1,0.2c0.2,0.2,0.25,0.38,0.15,0.55c-0.03,0.03-0.08,0.07-0.15,0.1c-0.3,0.3-0.82,0.43-1.55,0.4
			c-0.43,0-0.72-0.13-0.85-0.4H54.4c-0.07-0.1-0.07-0.22,0-0.35c0-0.03,0.05-0.07,0.15-0.1L54.6,42.45z M59.8,49.45
			c0.07,0.17,0.07,0.32,0,0.45c0,0.03-0.02,0.05-0.05,0.05h-0.1V50c0,0.03-0.02,0.05-0.05,0.05c-0.13,0.07-0.25,0.1-0.35,0.1
			c-0.13,0.03-0.25,0.08-0.35,0.15c-0.2,0-0.4-0.05-0.6-0.15c-0.13-0.07-0.25-0.12-0.35-0.15c-0.53-0.6-0.2-0.88,1-0.85
			C59.28,49.15,59.57,49.25,59.8,49.45z M67.9,50.4c-0.2,0.07-0.37,0.1-0.5,0.1c-0.57-0.03-0.85-0.22-0.85-0.55
			c0-0.03-0.07-0.07-0.2-0.1c0.13-0.07,0.22-0.17,0.25-0.3c0.2-0.13,0.47-0.2,0.8-0.2c0.23,0,0.43,0.03,0.6,0.1
			c0.03,0.03,0.05,0.07,0.05,0.1c0.03,0,0.05,0.02,0.05,0.05c0.07,0.03,0.1,0.08,0.1,0.15c0.17,0.2,0.13,0.38-0.1,0.55
			C68.03,50.33,67.97,50.37,67.9,50.4z"/>
		<path fill-rule="evenodd" clip-rule="evenodd" fill="#84868B" d="M70.15,33.1c1.87-0.27,2.03-0.03,0.5,0.7
			c-0.33,0-0.58-0.13-0.75-0.4C69.73,33.2,69.82,33.1,70.15,33.1z M63.25,33.35c0,0.13,0.07,0.23,0.2,0.3
			c0.1,0.07,0.22,0.1,0.35,0.1c-0.23,0.13-0.45,0.27-0.65,0.4c-0.27,0-0.5-0.08-0.7-0.25c-0.3-0.23-0.28-0.37,0.05-0.4
			C62.8,33.4,63.05,33.35,63.25,33.35z M61.4,32.2c0,0.13-0.27,0.37-0.8,0.7c-0.27,0-0.53-0.1-0.8-0.3c-0.23-0.2-0.22-0.33,0.05-0.4
			C60.88,32,61.4,32,61.4,32.2z M69.55,33c0.1,0.13,0.15,0.25,0.15,0.35c-0.03,0.37-0.35,0.57-0.95,0.6c-0.23,0-0.47-0.07-0.7-0.2
			c-0.2-0.13-0.23-0.33-0.1-0.6c0.03-0.03,0.07-0.05,0.1-0.05c0-0.07,0.02-0.1,0.05-0.1c0-0.03,0.03-0.05,0.1-0.05
			c0.17-0.1,0.35-0.15,0.55-0.15C69.12,32.8,69.38,32.87,69.55,33z M60.85,35.95c-0.27,0-0.5-0.08-0.7-0.25
			c-0.3-0.23-0.28-0.37,0.05-0.4C61.93,34.94,62.15,35.15,60.85,35.95z M76.4,37.75c1.33-0.23,1.42,0.02,0.25,0.75
			c-0.2,0-0.38-0.05-0.55-0.15c-0.1,0.1-0.3,0.17-0.6,0.2c-0.23,0-0.47-0.08-0.7-0.25c-0.23-0.13-0.27-0.32-0.1-0.55
			c0.03-0.03,0.07-0.08,0.1-0.15c0-0.03,0.02-0.05,0.05-0.05c0-0.03,0.03-0.05,0.1-0.05c0.17-0.1,0.35-0.15,0.55-0.15
			c0.33,0,0.58,0.07,0.75,0.2C76.32,37.65,76.37,37.72,76.4,37.75z M73.85,41.6c-0.23-0.2-0.2-0.35,0.1-0.45
			c1.77-0.3,1.97-0.05,0.6,0.75C74.32,41.9,74.08,41.8,73.85,41.6z M11.5,33.65c-0.27-0.23-0.25-0.38,0.05-0.45
			c1.77-0.33,2-0.1,0.7,0.7C11.95,33.9,11.7,33.82,11.5,33.65z M18.85,36c-0.27,0-0.52-0.08-0.75-0.25c-0.3-0.23-0.3-0.37,0-0.4
			C19.9,34.98,20.15,35.2,18.85,36z M12.15,36.8c-0.03-0.37,0.13-0.53,0.5-0.5c2.13,0.2,2.32,0.58,0.55,1.15
			C12.57,37.42,12.22,37.2,12.15,36.8z M34.4,34.95c-0.2-0.13-0.43-0.2-0.7-0.2c-0.2,0-0.35,0.02-0.45,0.05
			c-0.17-0.17-0.12-0.27,0.15-0.3C34.93,34.17,35.27,34.32,34.4,34.95z M24,33.8c-0.3,0-0.58-0.08-0.85-0.25
			c-0.23-0.23-0.2-0.37,0.1-0.4C25.02,32.78,25.27,33,24,33.8z M37.15,33.8c-0.43-0.03-0.73-0.18-0.9-0.45
			c-0.07-0.23,0.02-0.37,0.25-0.4C38.33,32.69,38.55,32.97,37.15,33.8z M26.25,32.05c-0.23,0-0.48-0.07-0.75-0.2
			c0.37-0.47,0.73-0.47,1.1,0C26.5,31.89,26.38,31.95,26.25,32.05z M29.3,34.35c-0.3-0.27-0.27-0.42,0.1-0.45
			c1.73-0.37,1.95-0.15,0.65,0.65C29.75,34.55,29.5,34.48,29.3,34.35z M27.05,36.95c-0.27,0-0.5-0.08-0.7-0.25
			c-0.3-0.23-0.28-0.38,0.05-0.45C28.1,35.92,28.32,36.15,27.05,36.95z M21.4,37.05c-0.3,0-0.55-0.1-0.75-0.3
			c-0.27-0.17-0.25-0.3,0.05-0.4C22.47,36.02,22.7,36.25,21.4,37.05z M38,38.55c-0.03,0.07-0.05,0.12-0.05,0.15
			c-0.13,0.1-0.3,0.22-0.5,0.35c-0.27,0-0.5-0.1-0.7-0.3c-0.33-0.17-0.32-0.3,0.05-0.4c1.03-0.17,1.48-0.17,1.35,0v0.1
			c-0.03,0-0.05,0.02-0.05,0.05L38,38.55z M33.15,38.45c-0.07-0.07-0.12-0.1-0.15-0.1s-0.05-0.02-0.05-0.05
			c-0.07,0-0.1-0.03-0.1-0.1c-0.07,0-0.1-0.02-0.1-0.05c-0.13-0.27-0.03-0.5,0.3-0.7l0.1-0.05c0,0.1,0.07,0.22,0.2,0.35
			c0.23,0.13,0.45,0.2,0.65,0.2c0.27,0,0.48-0.05,0.65-0.15c0.1,0.13,0.02,0.27-0.25,0.4c-0.03,0-0.12,0-0.25,0
			c-0.3-0.03-0.62,0.02-0.95,0.15C33.17,38.35,33.15,38.39,33.15,38.45z M53.65,35.55c-0.13-0.03-0.3-0.05-0.5-0.05
			c-0.07,0-0.12,0-0.15,0c-0.17,0-0.3,0-0.4,0c-0.23,0-0.43,0.05-0.6,0.15c-0.07-0.1,0-0.18,0.2-0.25
			C53.47,35.17,53.95,35.22,53.65,35.55z M46.4,33.3c1.73-0.33,1.92-0.12,0.55,0.65c-0.23,0-0.43-0.07-0.6-0.2
			C46.02,33.48,46.03,33.33,46.4,33.3z M48.35,35.7c0.67-0.13,1-0.13,1,0c-0.2,0-0.4,0-0.6,0c-0.17,0-0.28,0-0.35,0H48.35z"/>
		<path fill-rule="evenodd" clip-rule="evenodd" fill="#818588" d="M63.25,33.35c0-0.1,0.02-0.18,0.05-0.25
			c0.07-0.07,0.12-0.12,0.15-0.15h0.05c0-0.03,0.03-0.05,0.1-0.05c0.2-0.13,0.42-0.2,0.65-0.2c0.27,0,0.5,0.08,0.7,0.25
			c0.1,0.13,0.13,0.25,0.1,0.35c-0.03,0.33-0.3,0.53-0.8,0.6c-0.17,0-0.32-0.05-0.45-0.15c-0.13,0-0.25-0.03-0.35-0.1
			C63.32,33.58,63.25,33.48,63.25,33.35z M52.45,32.4l0.05-0.05c0.23-0.1,0.45-0.15,0.65-0.15c0.33,0,0.6,0.07,0.8,0.2
			c0.1,0.13,0.13,0.27,0.1,0.4c-0.03,0.33-0.33,0.52-0.9,0.55c-0.27,0-0.52-0.07-0.75-0.2c-0.17-0.13-0.22-0.32-0.15-0.55
			c0.1-0.07,0.15-0.12,0.15-0.15S52.42,32.4,52.45,32.4z M52,35.65c0.17-0.1,0.37-0.15,0.6-0.15c0.1,0,0.23,0,0.4,0
			c0.03,0,0.08,0,0.15,0c0.2,0,0.37,0.02,0.5,0.05c0.07,0.07,0.17,0.12,0.3,0.15c0.1,0.17,0.13,0.3,0.1,0.4
			c-0.03,0.3-0.27,0.5-0.7,0.6c-0.2-0.1-0.45-0.15-0.75-0.15c-0.23-0.03-0.43-0.03-0.6,0c-0.07-0.03-0.12-0.08-0.15-0.15
			c-0.13-0.17-0.17-0.33-0.1-0.5c0-0.03,0.03-0.07,0.1-0.1l0.05-0.05C51.93,35.72,51.97,35.69,52,35.65z M57.4,33.5
			c-0.23-0.13-0.27-0.32-0.1-0.55c0.03-0.03,0.07-0.08,0.1-0.15c0-0.03,0.02-0.05,0.05-0.05c0-0.03,0.03-0.07,0.1-0.1
			c0.13-0.07,0.33-0.1,0.6-0.1c0.33,0,0.58,0.07,0.75,0.2c0.13,0.13,0.17,0.27,0.1,0.4c-0.03,0.33-0.32,0.53-0.85,0.6
			C57.85,33.75,57.6,33.67,57.4,33.5z M43.9,33.2c-0.23,0.23-0.6,0.33-1.1,0.3c-0.43,0-0.72-0.13-0.85-0.4
			c-0.1-0.13-0.1-0.28,0-0.45c0-0.03,0.03-0.05,0.1-0.05l0.05-0.05c0-0.03,0.02-0.05,0.05-0.05c0-0.03,0.03-0.07,0.1-0.1
			c0.27-0.1,0.58-0.13,0.95-0.1c0.1,0,0.23,0.02,0.4,0.05l-0.1,0.05c-0.1,0.03-0.15,0.07-0.15,0.1c-0.07,0.17-0.02,0.33,0.15,0.5
			C43.57,33.1,43.7,33.17,43.9,33.2z M56.1,37.5c0-0.03,0.03-0.07,0.1-0.1c0.33-0.13,0.62-0.13,0.85,0c0.97,0.5,0.88,0.88-0.25,1.15
			c-0.07,0-0.2-0.02-0.4-0.05c-0.1-0.03-0.2-0.08-0.3-0.15c-0.03,0-0.05-0.02-0.05-0.05c-0.03,0-0.05-0.03-0.05-0.1
			c-0.07,0-0.1-0.02-0.1-0.05c-0.03-0.03-0.05-0.07-0.05-0.1c0-0.07,0-0.15,0-0.25c0-0.03,0.02-0.07,0.05-0.1
			c0.07-0.1,0.12-0.17,0.15-0.2H56.1z M57.25,40.35l0.05-0.05c0.27-0.13,0.57-0.13,0.9,0h0.1c0.93,0.43,0.83,0.82-0.3,1.15
			c-0.3,0-0.55-0.1-0.75-0.3c-0.3-0.17-0.37-0.37-0.2-0.6c0-0.07,0.03-0.12,0.1-0.15C57.15,40.37,57.18,40.35,57.25,40.35z
			 M54.6,39.7c-0.03,0-0.1,0-0.2,0c-0.73-0.4-0.73-0.8,0-1.2c0.3-0.1,0.58-0.1,0.85,0c1.03,0.47,0.88,0.88-0.45,1.25
			C54.77,39.72,54.7,39.7,54.6,39.7z"/>
		<path fill-rule="evenodd" clip-rule="evenodd" fill="#54555C" d="M67.5,41.65c0-0.03,0-0.07,0-0.1c0.2-0.07,0.4-0.1,0.6-0.1
			c0.27,0,0.48,0.03,0.65,0.1c0,0.03,0.05,0.07,0.15,0.1c0.1,0.17,0.13,0.3,0.1,0.4c-0.03,0.33-0.33,0.53-0.9,0.6
			c-0.23,0-0.47-0.1-0.7-0.3c-0.2-0.13-0.25-0.28-0.15-0.45v-0.1c0.03-0.07,0.08-0.1,0.15-0.1C67.4,41.67,67.43,41.65,67.5,41.65z
			 M67.15,39l0.1-0.05c0.17-0.13,0.37-0.2,0.6-0.2c0.33,0,0.58,0.08,0.75,0.25c0.1,0.17,0.13,0.3,0.1,0.4
			c-0.03,0.33-0.32,0.52-0.85,0.55c-0.23,0-0.48-0.07-0.75-0.2c-0.2-0.13-0.27-0.32-0.2-0.55c0.1-0.07,0.17-0.12,0.2-0.15
			C67.1,39.02,67.12,39,67.15,39z M65.95,38.85c0.13,0.13,0.17,0.28,0.1,0.45c-0.17,0.4-0.6,0.58-1.3,0.55
			c-0.43,0-0.72-0.15-0.85-0.45c-0.07-0.1-0.07-0.23,0-0.4l0.1-0.05V38.9c0-0.03,0.03-0.05,0.1-0.05c0-0.07,0.03-0.1,0.1-0.1
			c0.27-0.13,0.57-0.17,0.9-0.1C65.47,38.65,65.75,38.72,65.95,38.85z M14.75,41.3c0.17,0.13,0.2,0.27,0.1,0.4
			c-0.03,0.3-0.33,0.5-0.9,0.6c-0.23,0-0.47-0.08-0.7-0.25c-0.2-0.17-0.23-0.35-0.1-0.55c0.03-0.07,0.07-0.12,0.1-0.15
			c0-0.03,0.02-0.05,0.05-0.05l0.05-0.05c0.17-0.1,0.37-0.15,0.6-0.15C14.28,41.1,14.55,41.17,14.75,41.3z M27.25,44.35
			c-0.13,0.23-0.42,0.38-0.85,0.45c-0.27,0-0.5-0.08-0.7-0.25c-0.3-0.13-0.38-0.3-0.25-0.5c0.07-0.1,0.15-0.15,0.25-0.15
			c0-0.03,0.02-0.05,0.05-0.05c0-0.03,0.02-0.07,0.05-0.1c0.17-0.1,0.37-0.15,0.6-0.15c0.27,0,0.48,0.08,0.65,0.25
			c-0.03,0.13-0.03,0.27,0,0.4c0,0.03,0.03,0.05,0.1,0.05C27.15,44.33,27.18,44.35,27.25,44.35z M43.6,46.7
			c0.13-0.03,0.22-0.08,0.25-0.15h0.05c0-0.03,0.02-0.07,0.05-0.1c0.17-0.07,0.37-0.1,0.6-0.1c0.33,0,0.58,0.07,0.75,0.2
			c0.1,0.13,0.13,0.25,0.1,0.35c-0.03,0.37-0.32,0.57-0.85,0.6c-0.23,0-0.47-0.07-0.7-0.2C43.62,47.14,43.53,46.94,43.6,46.7z
			 M59.3,41.95c-0.13,0-0.28,0-0.45,0c-0.23,0-0.45,0.05-0.65,0.15c-0.03,0-0.05,0.02-0.05,0.05h-0.1c-0.03,0.07-0.07,0.12-0.1,0.15
			c-0.03,0.1-0.05,0.18-0.05,0.25c-0.13-0.03-0.28-0.12-0.45-0.25c-0.1-0.13-0.12-0.3-0.05-0.5c0-0.03,0.02-0.07,0.05-0.1h0.1
			c0.07-0.07,0.12-0.12,0.15-0.15c0.17-0.07,0.37-0.1,0.6-0.1c0.37,0,0.65,0.07,0.85,0.2C59.32,41.82,59.37,41.92,59.3,41.95z
			 M51.3,42.45c0.3,0,0.53,0.07,0.7,0.2c0.13,0.13,0.2,0.23,0.2,0.3c0,0.03,0,0.07,0,0.1c-0.03,0.33-0.33,0.52-0.9,0.55
			c-0.3,0-0.55-0.08-0.75-0.25c-0.2-0.1-0.27-0.23-0.2-0.4c0-0.03,0.02-0.07,0.05-0.1c0.07-0.07,0.12-0.12,0.15-0.15
			c0-0.03,0.02-0.05,0.05-0.05l0.05-0.05C50.85,42.5,51.07,42.45,51.3,42.45z M59.65,49.95h0.1c0.03,0,0.05-0.02,0.05-0.05
			c0.07-0.13,0.07-0.28,0-0.45c0.17-0.13,0.4-0.2,0.7-0.2c0.23,0,0.42,0.05,0.55,0.15c0.07,0,0.1,0.02,0.1,0.05
			c0.03,0,0.05,0.02,0.05,0.05c0.07,0.03,0.13,0.08,0.2,0.15c0.13,0.2,0.07,0.37-0.2,0.5c-0.23,0.2-0.47,0.3-0.7,0.3
			C60.07,50.39,59.78,50.22,59.65,49.95z M41.6,52.2c0.17-0.17,0.42-0.25,0.75-0.25c0.2,0,0.38,0.05,0.55,0.15
			c0.07,0.03,0.1,0.07,0.1,0.1h0.05c0,0.03,0.07,0.08,0.2,0.15c0.1,0.23,0.03,0.42-0.2,0.55c-0.23,0.17-0.47,0.25-0.7,0.25
			c-0.53-0.07-0.83-0.27-0.9-0.6C41.45,52.45,41.5,52.33,41.6,52.2z M36.35,49c-0.2,0.17-0.45,0.25-0.75,0.25
			c-0.57-0.07-0.87-0.25-0.9-0.55c0-0.03,0-0.07,0-0.1c0.63-0.9,1.25-0.9,1.85,0C36.58,48.73,36.52,48.87,36.35,49z"/>
		<path fill-rule="evenodd" clip-rule="evenodd" fill="#818387" d="M61.55,36.7c0.03,0.03,0.1,0.05,0.2,0.05
			c0.2,0.1,0.35,0.15,0.45,0.15c0.37-0.1,0.62-0.22,0.75-0.35c0.17,0.03,0.28,0.1,0.35,0.2c0.13,0.13,0.18,0.28,0.15,0.45
			c-0.17,0.4-0.58,0.58-1.25,0.55c-0.43,0-0.72-0.15-0.85-0.45c-0.13-0.13-0.13-0.27,0-0.4v-0.1l0.05-0.05h0.15V36.7z M61.6,39.65
			c0.37,0,0.65,0.07,0.85,0.2c0.1,0.17,0.13,0.3,0.1,0.4c0,0.03,0,0.07,0,0.1c-0.07,0.27-0.38,0.43-0.95,0.5
			c-0.2,0-0.42-0.1-0.65-0.3c-0.13-0.07-0.2-0.13-0.2-0.2c0-0.1,0.02-0.2,0.05-0.3c0.03-0.07,0.08-0.12,0.15-0.15
			c0-0.03,0.02-0.05,0.05-0.05l0.05-0.1C61.25,39.69,61.43,39.65,61.6,39.65z M79.5,38.75c0.17-0.07,0.37-0.1,0.6-0.1
			c0.33,0,0.6,0.07,0.8,0.2c0.1,0.13,0.13,0.27,0.1,0.4c-0.03,0.33-0.33,0.53-0.9,0.6c-0.23,0-0.48-0.1-0.75-0.3
			c-0.2-0.13-0.23-0.32-0.1-0.55c0.03-0.03,0.07-0.07,0.1-0.1c0-0.03,0.02-0.05,0.05-0.05C79.4,38.78,79.43,38.75,79.5,38.75z
			 M72.1,38.55c0.17-0.03,0.35-0.05,0.55-0.05c0.37,0,0.65,0.07,0.85,0.2c0.07,0.13,0.1,0.25,0.1,0.35
			c-0.03,0.33-0.35,0.53-0.95,0.6c-0.23,0-0.47-0.08-0.7-0.25c-0.2-0.13-0.25-0.32-0.15-0.55c0.03-0.07,0.08-0.12,0.15-0.15h0.1
			C72.05,38.67,72.07,38.62,72.1,38.55z M70.8,36.8c0-0.03,0.02-0.05,0.05-0.05c0.4-0.13,0.77-0.13,1.1,0
			c1.03,0.43,0.98,0.82-0.15,1.15c-0.27-0.03-0.57-0.1-0.9-0.2c-0.33-0.2-0.43-0.45-0.3-0.75c0.03-0.03,0.08-0.05,0.15-0.05
			C70.75,36.83,70.77,36.8,70.8,36.8z"/>
		<path fill-rule="evenodd" clip-rule="evenodd" fill="#5A5D63" d="M66.2,46.15c0.03-0.07,0.07-0.13,0.1-0.2h0.05
			c0-0.03,0.03-0.07,0.1-0.1c0.2-0.07,0.4-0.1,0.6-0.1c0.3,0,0.55,0.07,0.75,0.2c0.13,0.13,0.18,0.27,0.15,0.4
			c-0.07,0.33-0.37,0.52-0.9,0.55c-0.27,0-0.52-0.07-0.75-0.2C66.1,46.53,66.07,46.35,66.2,46.15z M69.05,42.25
			c0-0.07,0.02-0.1,0.05-0.1c0.2-0.07,0.4-0.1,0.6-0.1c0.33,0,0.6,0.07,0.8,0.2c0.1,0.13,0.13,0.27,0.1,0.4
			c0,0.13-0.07,0.23-0.2,0.3c-0.13,0.13-0.37,0.22-0.7,0.25c-0.23,0-0.47-0.08-0.7-0.25c-0.23-0.13-0.27-0.33-0.1-0.6
			c0.03-0.03,0.07-0.05,0.1-0.05C69,42.27,69.02,42.25,69.05,42.25z M63.7,46.45l0.1-0.1c0.13-0.07,0.33-0.1,0.6-0.1
			c0.3,0,0.52,0.07,0.65,0.2c0.13,0.17,0.18,0.3,0.15,0.4c-0.07,0.33-0.33,0.53-0.8,0.6c-0.27,0-0.53-0.1-0.8-0.3
			c-0.23-0.13-0.28-0.3-0.15-0.5c0.03-0.07,0.08-0.12,0.15-0.15C63.6,46.47,63.63,46.45,63.7,46.45z M64.85,43.75
			c0.03-0.03,0.07-0.08,0.1-0.15c0-0.03,0.02-0.05,0.05-0.05l0.05-0.05c0.37-0.1,0.73-0.1,1.1,0c1.07,0.4,1.02,0.78-0.15,1.15
			c-0.27-0.03-0.57-0.1-0.9-0.2C64.77,44.25,64.68,44.02,64.85,43.75z M72.1,45.35h0.05c0-0.03,0.03-0.05,0.1-0.05
			c0.13-0.1,0.35-0.15,0.65-0.15c0.27,0,0.5,0.07,0.7,0.2c0.13,0.13,0.17,0.27,0.1,0.4c0,0.1-0.03,0.2-0.1,0.3
			c0.23,0.07,0.43,0.15,0.6,0.25c0.17,0.13,0.23,0.27,0.2,0.4c-0.1,0.3-0.38,0.5-0.85,0.6c-0.33-0.1-0.7-0.17-1.1-0.2
			c-0.53-0.1-0.75-0.35-0.65-0.75c0.03-0.03,0.08-0.07,0.15-0.1c0-0.03,0.03-0.05,0.1-0.05c0-0.03,0.02-0.05,0.05-0.05h0.05
			L72.1,46.1c-0.2-0.17-0.25-0.35-0.15-0.55C72.02,45.48,72.07,45.42,72.1,45.35z M74.2,44.8c-0.17-0.13-0.2-0.32-0.1-0.55
			c0.07-0.07,0.1-0.12,0.1-0.15h0.05c0-0.03,0.05-0.05,0.15-0.05c0.2-0.1,0.4-0.15,0.6-0.15c0.3,0,0.55,0.07,0.75,0.2
			c0.13,0.13,0.17,0.25,0.1,0.35C75.82,44.78,75.53,45,75,45.1C74.7,45.1,74.43,45,74.2,44.8z M78.75,43.8
			c0-0.03,0.02-0.05,0.05-0.05c0-0.03,0.02-0.05,0.05-0.05c0.2-0.1,0.38-0.15,0.55-0.15c0.37,0,0.65,0.07,0.85,0.2
			c0.1,0.13,0.13,0.25,0.1,0.35c-0.03,0.37-0.35,0.57-0.95,0.6c-0.23,0-0.45-0.08-0.65-0.25c-0.23-0.13-0.28-0.32-0.15-0.55
			C78.67,43.87,78.72,43.83,78.75,43.8z M8.25,45.7c0.3-0.13,0.58-0.13,0.85,0c0.9,0.5,0.82,0.88-0.25,1.15
			c-0.13,0-0.27-0.03-0.4-0.1c-0.1-0.03-0.2-0.07-0.3-0.1c-0.03,0-0.05-0.03-0.05-0.1c-0.03,0-0.05-0.02-0.05-0.05
			C8.02,46.5,8,46.48,8,46.45l-0.05-0.1c0-0.1,0-0.18,0-0.25c0-0.1,0.02-0.15,0.05-0.15c0.03-0.07,0.07-0.1,0.1-0.1
			c0-0.07,0.02-0.1,0.05-0.1L8.25,45.7z M7.05,42.95c0.1-0.07,0.18-0.12,0.25-0.15c0.17-0.27,0.42-0.22,0.75,0.15
			c0.1,0.13,0.22,0.3,0.35,0.5c-0.1,0.3-0.4,0.47-0.9,0.5c-0.3,0-0.53-0.08-0.7-0.25c-0.17-0.1-0.25-0.22-0.25-0.35
			C6.68,43.32,6.85,43.19,7.05,42.95z M15.15,38.5c0.13,0.13,0.18,0.27,0.15,0.4c-0.07,0.33-0.37,0.53-0.9,0.6
			c-0.3,0-0.57-0.08-0.8-0.25c-0.2-0.17-0.23-0.35-0.1-0.55l0.1-0.15c0-0.03,0.03-0.05,0.1-0.05l0.1-0.05
			c0.17-0.1,0.37-0.15,0.6-0.15C14.7,38.3,14.95,38.37,15.15,38.5z M13.6,46.05c0.07-0.07,0.12-0.12,0.15-0.15
			c0-0.03,0.03-0.05,0.1-0.05l0.1-0.1c0.17-0.07,0.37-0.1,0.6-0.1c0.3,0,0.52,0.07,0.65,0.2c0.17,0.17,0.23,0.3,0.2,0.4
			c-0.07,0.33-0.35,0.53-0.85,0.6c-0.23,0-0.5-0.1-0.8-0.3C13.52,46.42,13.47,46.25,13.6,46.05z M9.4,43.8c0-0.07,0-0.15,0-0.25
			c0-0.03,0.05-0.08,0.15-0.15c0.43,0,0.93,0,1.5,0c0.4,0.37,0.17,0.67-0.7,0.9c-0.13,0-0.28-0.02-0.45-0.05
			c-0.03-0.07-0.1-0.12-0.2-0.15c-0.03,0-0.05-0.02-0.05-0.05c-0.07,0-0.1-0.03-0.1-0.1V43.9C9.45,43.87,9.4,43.83,9.4,43.8z
			 M11.95,41.3c0.1,0.1,0.13,0.2,0.1,0.3c-0.07,0.33-0.37,0.52-0.9,0.55c-0.27,0-0.52-0.07-0.75-0.2c0.23,0,0.45,0.03,0.65,0.1
			c0.5-0.07,0.8-0.27,0.9-0.6C11.95,41.39,11.95,41.33,11.95,41.3z M16.55,45.35c0-0.03,0.02-0.05,0.05-0.05
			c0.2-0.1,0.4-0.15,0.6-0.15c0.33,0,0.58,0.07,0.75,0.2c0.17,0.13,0.22,0.27,0.15,0.4c-0.03,0.33-0.33,0.53-0.9,0.6
			c-0.27,0-0.52-0.08-0.75-0.25c-0.2-0.17-0.23-0.35-0.1-0.55c0.07-0.07,0.1-0.13,0.1-0.2H16.55z M20.5,44.25
			c0.9,0.47,0.73,0.83-0.5,1.1c-0.03,0-0.1,0-0.2,0c-0.03,0-0.07,0-0.1,0c-0.3-0.07-0.52-0.2-0.65-0.4c-0.03-0.03-0.05-0.1-0.05-0.2
			c0.17,0.1,0.33,0.15,0.5,0.15c0.57-0.07,0.85-0.27,0.85-0.6C20.35,44.27,20.4,44.25,20.5,44.25z M28.6,44.75
			c0.17-0.07,0.37-0.1,0.6-0.1c0.33,0,0.58,0.08,0.75,0.25c0.1,0.13,0.15,0.25,0.15,0.35c-0.03,0.33-0.33,0.53-0.9,0.6
			c-0.27,0-0.5-0.1-0.7-0.3c-0.23-0.13-0.3-0.3-0.2-0.5c0.03-0.07,0.1-0.12,0.2-0.15C28.5,44.83,28.53,44.78,28.6,44.75z
			 M29.45,47.5h0.05c0-0.03,0.02-0.07,0.05-0.1c0.17-0.07,0.35-0.1,0.55-0.1c0.17,0,0.32,0,0.45,0c0.13,0.03,0.23,0.1,0.3,0.2h0.1
			c0.1,0.13,0.13,0.25,0.1,0.35c0,0.1-0.03,0.17-0.1,0.2H29.3c-0.13-0.1-0.13-0.23,0-0.4C29.37,47.58,29.42,47.53,29.45,47.5z
			 M38.9,46.55c-0.27-0.13-0.33-0.3-0.2-0.5c0.03-0.07,0.1-0.12,0.2-0.15c0-0.03,0.02-0.05,0.05-0.05l0.05-0.1
			c0.17-0.07,0.35-0.1,0.55-0.1c0.3,0,0.57,0.07,0.8,0.2c0.1,0.17,0.13,0.3,0.1,0.4c-0.03,0.33-0.33,0.53-0.9,0.6
			C39.32,46.85,39.1,46.75,38.9,46.55z M32.5,43.5c0.07,0.13,0.1,0.23,0.1,0.3c0,0.03,0,0.07,0,0.1c-0.03,0.33-0.32,0.52-0.85,0.55
			c-0.27,0-0.5-0.07-0.7-0.2c-0.27-0.13-0.33-0.32-0.2-0.55c0.07-0.1,0.13-0.15,0.2-0.15c0-0.03,0.02-0.05,0.05-0.05
			c0-0.03,0.03-0.07,0.1-0.1c0.17-0.07,0.35-0.1,0.55-0.1s0.37,0.02,0.5,0.05C32.38,43.39,32.47,43.44,32.5,43.5z M41.8,44.6
			c0-0.03,0.05-0.07,0.15-0.1c0.1-0.03,0.22-0.07,0.35-0.1c-0.1,0-0.17-0.03-0.2-0.1c-0.27-0.13-0.32-0.32-0.15-0.55
			c0.07-0.03,0.12-0.08,0.15-0.15c0-0.03,0.02-0.05,0.05-0.05l0.1-0.05l0.05-0.05c0.2-0.07,0.37-0.1,0.5-0.1
			c0.3,0,0.55,0.07,0.75,0.2c0.17,0.17,0.18,0.3,0.05,0.4c0,0.27-0.15,0.43-0.45,0.5c0.03,0.07,0.07,0.12,0.1,0.15
			c0.17,0.13,0.2,0.25,0.1,0.35c-0.03,0.37-0.28,0.57-0.75,0.6c-0.3,0-0.57-0.08-0.8-0.25c-0.23-0.13-0.28-0.32-0.15-0.55
			c0.03-0.07,0.08-0.1,0.15-0.1V44.6z M48.75,45.35c0.33,0,0.58,0.1,0.75,0.3c0.13,0.13,0.17,0.23,0.1,0.3
			c-0.03,0.37-0.32,0.57-0.85,0.6c-0.27,0-0.53-0.07-0.8-0.2c-0.2-0.13-0.23-0.33-0.1-0.6c0.03-0.03,0.07-0.07,0.1-0.1h0.15
			c0-0.07,0.02-0.1,0.05-0.1C48.32,45.42,48.52,45.35,48.75,45.35z M46,47.6c0-0.03,0.02-0.05,0.05-0.05c0-0.03,0.02-0.05,0.05-0.05
			c0.2-0.1,0.38-0.15,0.55-0.15c0.33,0,0.62,0.07,0.85,0.2c0.1,0.13,0.13,0.27,0.1,0.4v0.1h-1.8c-0.07-0.1-0.05-0.22,0.05-0.35
			C45.92,47.67,45.97,47.64,46,47.6z M54.85,46.25c-0.2-0.13-0.23-0.32-0.1-0.55c0.03-0.03,0.07-0.08,0.1-0.15h0.1
			c0-0.03,0.02-0.07,0.05-0.1c0.17-0.1,0.37-0.15,0.6-0.15c0.1,0,0.16,0,0.2,0c-0.04,0-0.09-0.02-0.15-0.05
			c-0.23-0.13-0.27-0.33-0.1-0.6c0.03-0.03,0.07-0.07,0.1-0.1c0-0.03,0.03-0.05,0.1-0.05c0-0.03,0.02-0.05,0.05-0.05
			c0.17-0.1,0.37-0.15,0.6-0.15c0.3,0,0.55,0.07,0.75,0.2c0.13,0.13,0.18,0.27,0.15,0.4c-0.03,0.3-0.33,0.5-0.9,0.6
			c-0.03,0-0.08,0-0.15,0l0.1,0.05c0.13,0.13,0.18,0.25,0.15,0.35c-0.07,0.37-0.37,0.57-0.9,0.6C55.37,46.5,55.12,46.42,54.85,46.25
			z M58.4,50.5c0.07,0.03,0.13,0.08,0.2,0.15c0.1,0.23,0.03,0.42-0.2,0.55c-0.2,0.2-0.45,0.3-0.75,0.3c-0.53-0.1-0.82-0.3-0.85-0.6
			c-0.03-0.13,0.02-0.27,0.15-0.4s0.37-0.2,0.7-0.2c0.23,0,0.45,0.03,0.65,0.1c0.03,0.03,0.05,0.07,0.05,0.1H58.4z M55.85,49.85
			c-0.2,0.17-0.43,0.25-0.7,0.25c-0.57-0.07-0.85-0.27-0.85-0.6c0-0.03,0-0.07,0-0.1c0-0.07,0.03-0.15,0.1-0.25
			c0.03-0.07,0.1-0.12,0.2-0.15c0.13-0.07,0.32-0.1,0.55-0.1c0.2,0,0.38,0.05,0.55,0.15c0.07,0.03,0.1,0.07,0.1,0.1h0.05
			c0.07,0.03,0.13,0.08,0.2,0.15C56.15,49.53,56.08,49.72,55.85,49.85z M57.4,53.1c0.03,0,0.05,0.02,0.05,0.05
			c0.03,0,0.08,0.05,0.15,0.15c0.1,0.13,0.1,0.27,0,0.4c-0.7,0.33-1.25,0.33-1.65,0c-0.07-0.07-0.1-0.13-0.1-0.2
			c-0.03-0.1,0-0.22,0.1-0.35c0.07,0,0.1-0.02,0.1-0.05c0.07-0.1,0.17-0.15,0.3-0.15c0.13-0.03,0.27-0.05,0.4-0.05
			c0.2,0,0.4,0.03,0.6,0.1C57.38,53.03,57.4,53.07,57.4,53.1z M45.1,50.2v0.1c0.07,0,0.12,0.03,0.15,0.1
			c0.13,0.2,0.08,0.38-0.15,0.55c-0.23,0.17-0.5,0.25-0.8,0.25c-0.5-0.03-0.77-0.23-0.8-0.6c-0.07-0.1-0.03-0.23,0.1-0.4
			c0.07-0.03,0.12-0.07,0.15-0.1c-0.3-0.1-0.47-0.27-0.5-0.5c-0.13-0.13-0.1-0.27,0.1-0.4c0.17-0.13,0.42-0.2,0.75-0.2
			c0.13,0,0.28,0.03,0.45,0.1l0.1,0.05c0.07,0,0.1,0.02,0.1,0.05c0.03,0,0.05,0.02,0.05,0.05c0.03,0.03,0.08,0.08,0.15,0.15
			c0.17,0.23,0.12,0.42-0.15,0.55C44.77,49.98,44.68,50,44.55,50c0.17,0.03,0.3,0.08,0.4,0.15c0.07,0,0.1,0.02,0.1,0.05H45.1z
			 M46.55,51.5c0.23-0.13,0.5-0.2,0.8-0.2c0.2,0,0.38,0.03,0.55,0.1l0.05,0.1c0.03,0,0.05,0.02,0.05,0.05c0.1,0,0.17,0.05,0.2,0.15
			c0.1,0.17,0.03,0.33-0.2,0.5c-0.2,0.17-0.42,0.25-0.65,0.25c-0.6-0.03-0.92-0.22-0.95-0.55C46.37,51.77,46.42,51.64,46.55,51.5z
			 M40.65,53.1l0.05,0.05c0.03,0,0.05,0.03,0.05,0.1c0.07,0.03,0.12,0.07,0.15,0.1c0.1,0.1,0.12,0.22,0.05,0.35
			c-0.57,0.43-1.17,0.43-1.8,0c0-0.03,0-0.08,0-0.15c-0.03-0.1,0-0.23,0.1-0.4c0.23-0.13,0.52-0.2,0.85-0.2
			C40.3,52.95,40.48,53,40.65,53.1z M38.95,51.95c-0.27,0.17-0.53,0.25-0.8,0.25c-0.57-0.03-0.87-0.23-0.9-0.6
			c-0.03-0.07,0.02-0.18,0.15-0.35c0.17-0.17,0.42-0.25,0.75-0.25c0.23,0,0.43,0.05,0.6,0.15c0,0.03,0,0.07,0,0.1
			c0.13,0,0.2,0.02,0.2,0.05c0.03,0.03,0.05,0.07,0.05,0.1C39.13,51.64,39.12,51.82,38.95,51.95z M30.5,49.95
			c0.23,0,0.42,0.03,0.55,0.1c0.07,0.03,0.1,0.07,0.1,0.1h0.1c0.03,0.03,0.07,0.08,0.1,0.15c0.13,0.23,0.1,0.43-0.1,0.6
			c-0.06,0.03-0.13,0.05-0.2,0.05c0.07,0,0.16,0,0.25,0c0.2,0,0.38,0.05,0.55,0.15l0.1,0.05c0.03,0,0.05,0.02,0.05,0.05
			c0.03,0.03,0.08,0.08,0.15,0.15c0.13,0.23,0.08,0.42-0.15,0.55c-0.23,0.17-0.47,0.25-0.7,0.25c-0.53-0.07-0.83-0.27-0.9-0.6
			c-0.03-0.13,0.02-0.27,0.15-0.4H30.5c-0.6-0.1-0.9-0.32-0.9-0.65c-0.03-0.1,0.02-0.22,0.15-0.35
			C29.95,50.02,30.2,49.95,30.5,49.95z M20.75,49.15c0.33-0.13,0.7-0.13,1.1,0v0.05c0.03,0,0.05,0.02,0.05,0.05
			c0.03,0.03,0.08,0.08,0.15,0.15c0.13,0.27,0.03,0.48-0.3,0.65c-0.33,0.1-0.62,0.18-0.85,0.25C19.73,49.94,19.68,49.55,20.75,49.15
			z M20.45,51.5l0.1,0.05c0.03,0,0.05,0.02,0.05,0.05c0.03,0.07,0.07,0.12,0.1,0.15c0.13,0.23,0.1,0.42-0.1,0.55
			c-0.23,0.17-0.5,0.25-0.8,0.25c-0.53-0.07-0.82-0.27-0.85-0.6c-0.07-0.13-0.03-0.27,0.1-0.4c0.2-0.13,0.45-0.2,0.75-0.2
			C20.03,51.35,20.25,51.4,20.45,51.5z M21.85,52.1c0.13-0.13,0.35-0.2,0.65-0.2c0.23,0,0.43,0.02,0.6,0.05
			c0.07,0.07,0.1,0.12,0.1,0.15c0.07,0,0.1,0.02,0.1,0.05c0.07,0.03,0.12,0.07,0.15,0.1c0.13,0.23,0.08,0.42-0.15,0.55
			c-0.27,0.17-0.53,0.25-0.8,0.25c-0.5-0.07-0.78-0.27-0.85-0.6C21.65,52.35,21.72,52.23,21.85,52.1z M17.5,48.35
			c0.17,0.23,0.13,0.42-0.1,0.55c-0.3,0.17-0.57,0.25-0.8,0.25c-0.5-0.03-0.8-0.22-0.9-0.55c0-0.13,0.07-0.27,0.2-0.4
			c0.17-0.13,0.4-0.2,0.7-0.2c0.2,0,0.38,0.03,0.55,0.1c0.1,0.03,0.15,0.07,0.15,0.1c0.07,0,0.1,0.02,0.1,0.05
			C17.43,48.25,17.47,48.28,17.5,48.35z M14.8,51c0.03,0.07,0.08,0.12,0.15,0.15c0.1,0.23,0.05,0.42-0.15,0.55l-0.05,0.05h0.05
			c0.03,0,0.05,0.03,0.05,0.1c0.07,0,0.1,0.02,0.1,0.05c0.03,0,0.07,0.02,0.1,0.05c0.1,0.43-0.1,0.7-0.6,0.8
			c-0.4,0.03-0.77,0.08-1.1,0.15c-0.5-0.07-0.78-0.27-0.85-0.6c-0.03-0.1,0.02-0.23,0.15-0.4c0.23-0.1,0.45-0.17,0.65-0.2
			c-0.07-0.1-0.1-0.22-0.1-0.35c-0.1-0.1-0.07-0.22,0.1-0.35c0.17-0.17,0.4-0.25,0.7-0.25s0.52,0.07,0.65,0.2
			c0.07,0,0.1,0.02,0.1,0.05H14.8z M12.65,49.75c0.03,0.03,0.07,0.08,0.1,0.15c0.17,0.2,0.13,0.38-0.1,0.55
			c-0.23,0.17-0.5,0.25-0.8,0.25c-0.5-0.07-0.77-0.27-0.8-0.6c-0.07-0.1-0.03-0.22,0.1-0.35c0.2-0.17,0.43-0.25,0.7-0.25
			c0.2,0,0.42,0.05,0.65,0.15c0.07,0.03,0.1,0.07,0.1,0.1H12.65z M8.15,50.1c-0.2,0.17-0.43,0.25-0.7,0.25
			c-0.57-0.03-0.87-0.23-0.9-0.6c-0.03-0.1,0-0.22,0.1-0.35c0.2-0.17,0.47-0.25,0.8-0.25c0.2,0,0.4,0.05,0.6,0.15
			c0.03,0.03,0.05,0.07,0.05,0.1h0.05c0.03,0.03,0.08,0.08,0.15,0.15C8.43,49.78,8.38,49.97,8.15,50.1z M79.35,49.6
			c-0.5-0.07-0.78-0.23-0.85-0.5c0.13-0.2,0.25-0.37,0.35-0.5h0.95c0.23,0.2,0.42,0.33,0.55,0.4c0,0.13-0.08,0.25-0.25,0.35
			C79.9,49.52,79.65,49.6,79.35,49.6z M77.5,49.15c0,0.1,0,0.18,0,0.25c0,0.03-0.03,0.08-0.1,0.15c0,0.03-0.02,0.05-0.05,0.05
			c0,0.03-0.03,0.07-0.1,0.1c0,0.03-0.02,0.05-0.05,0.05c-0.1,0.03-0.18,0.07-0.25,0.1c-0.13,0.07-0.27,0.1-0.4,0.1
			c-0.87-0.23-1.12-0.53-0.75-0.9c0.5-0.43,1.03-0.43,1.6,0L77.5,49.15z M78.8,51.5l0.05,0.05c0.03,0.03,0.05,0.08,0.05,0.15
			c0,0.1,0,0.18,0,0.25l-0.05,0.15c0,0.03-0.02,0.05-0.05,0.05v0.05c0,0.03-0.02,0.05-0.05,0.05c-0.1,0.07-0.22,0.12-0.35,0.15
			c-0.13,0.03-0.25,0.05-0.35,0.05c-1.1-0.27-1.18-0.63-0.25-1.1c0.27-0.13,0.53-0.13,0.8,0c0.1,0,0.15,0.02,0.15,0.05
			C78.78,51.4,78.8,51.44,78.8,51.5z M72.6,52.1c0.13,0.2,0.08,0.38-0.15,0.55c-0.27,0.17-0.52,0.25-0.75,0.25
			c-0.1,0-0.18-0.02-0.25-0.05c-0.03,0.03-0.1,0.05-0.2,0.05c-0.13,0-0.28-0.03-0.45-0.1c-0.1-0.03-0.25-0.07-0.45-0.1
			c-1.07-0.57-1.12-1.05-0.15-1.45c0.27-0.1,0.52-0.1,0.75,0c0.33,0.17,0.6,0.32,0.8,0.45c0.2,0,0.4,0.05,0.6,0.15l0.05,0.05
			c0.03,0,0.05,0.02,0.05,0.05C72.48,51.95,72.53,52,72.6,52.1z M66.35,49.85c0.13,0.03,0.2,0.07,0.2,0.1
			c0,0.33,0.28,0.52,0.85,0.55c0.13,0,0.3-0.03,0.5-0.1c0,0.07-0.02,0.12-0.05,0.15c-0.17,0.23-0.38,0.38-0.65,0.45
			c-0.03,0-0.07,0-0.1,0c-0.13,0-0.22,0-0.25,0C65.65,50.73,65.48,50.35,66.35,49.85z"/>
		<path fill-rule="evenodd" clip-rule="evenodd" fill="#6B6D73" d="M17.9,39.55c-0.07-0.13-0.07-0.28,0-0.45
			c0.03-0.07,0.1-0.1,0.2-0.1v-0.05c0-0.03,0.03-0.07,0.1-0.1c0.2-0.1,0.42-0.15,0.65-0.15c0.33,0,0.57,0.08,0.7,0.25
			c0.13,0.13,0.18,0.25,0.15,0.35c-0.07,0.37-0.35,0.57-0.85,0.6H18.8C18.63,39.67,18.33,39.55,17.9,39.55z M18.8,42.15
			c0.03-0.03,0.07-0.07,0.1-0.1c0-0.07,0.03-0.1,0.1-0.1l0.05-0.05c0.33-0.13,0.65-0.12,0.95,0.05c0.8,0.43,0.87,0.77,0.2,1
			c-0.1,0.07-0.25,0.13-0.45,0.2c-0.03-0.03-0.1-0.05-0.2-0.05c-0.03,0-0.07,0-0.1,0c-0.13-0.03-0.23-0.08-0.3-0.15
			c-0.13-0.07-0.25-0.17-0.35-0.3C18.7,42.45,18.7,42.28,18.8,42.15z M34.4,34.95c0.13,0.13,0.15,0.27,0.05,0.4
			c-0.03,0.33-0.28,0.53-0.75,0.6c-0.3,0-0.55-0.08-0.75-0.25c-0.27-0.13-0.33-0.33-0.2-0.6c0.07-0.03,0.13-0.07,0.2-0.1
			c0-0.03,0.02-0.05,0.05-0.05c0-0.03,0.02-0.05,0.05-0.05c0.07-0.07,0.13-0.1,0.2-0.1c0.1-0.03,0.25-0.05,0.45-0.05
			C33.97,34.75,34.2,34.82,34.4,34.95z M27.15,37.05c0.37,0,0.63,0.07,0.8,0.2c0.13,0.13,0.17,0.25,0.1,0.35
			c-0.03,0.37-0.33,0.57-0.9,0.6c-0.27,0-0.5-0.08-0.7-0.25c-0.23-0.13-0.27-0.32-0.1-0.55c0.03-0.07,0.07-0.1,0.1-0.1
			c0-0.03,0.02-0.05,0.05-0.05c0-0.03,0.02-0.07,0.05-0.1C26.72,37.08,26.92,37.05,27.15,37.05z M28,40.75
			c0-0.03,0.02-0.07,0.05-0.1c0.07-0.07,0.12-0.12,0.15-0.15c0-0.03,0.02-0.05,0.05-0.05c0-0.03,0.02-0.07,0.05-0.1
			c0.33-0.13,0.63-0.13,0.9,0c0.9,0.5,0.8,0.88-0.3,1.15c-0.13,0-0.27-0.02-0.4-0.05c-0.1-0.03-0.18-0.08-0.25-0.15H28.2
			c-0.03-0.03-0.05-0.08-0.05-0.15c-0.07,0-0.1-0.02-0.1-0.05C28.02,41.07,28,41.03,28,41C28,40.94,28,40.85,28,40.75z M37.8,36
			c0.03,0,0.05,0.02,0.05,0.05c0.13,0.13,0.18,0.28,0.15,0.45c-0.03,0.3-0.32,0.48-0.85,0.55c-0.23,0-0.5-0.1-0.8-0.3
			c-0.2-0.13-0.23-0.32-0.1-0.55c0.03-0.03,0.07-0.07,0.1-0.1c0-0.03,0.05-0.05,0.15-0.05c0-0.03,0.03-0.05,0.1-0.05
			c0.1-0.03,0.18-0.07,0.25-0.1C37.12,35.97,37.43,36,37.8,36z M34.65,42.1c0.07-0.13,0-0.27-0.2-0.4c-0.07-0.1-0.22-0.17-0.45-0.2
			l0.1-0.1c-0.07,0.06-0.14,0.1-0.23,0.1H33.8c-0.2,0-0.33,0.02-0.4,0.05c-0.1,0-0.18-0.02-0.25-0.05c-0.1,0-0.2-0.03-0.3-0.1
			c-0.07,0-0.1-0.02-0.1-0.05l-0.1-0.05c-0.03,0-0.05-0.02-0.05-0.05l-0.05-0.15c0.13,0.03,0.28,0.05,0.45,0.05
			c0.17-0.03,0.32-0.08,0.45-0.15c0,0.07,0.02,0.1,0.05,0.1c0.2,0.17,0.4,0.27,0.6,0.3c0.03,0.03,0.12,0.05,0.25,0.05
			c0.4,0,0.68-0.1,0.85-0.3c-0.1,0.17-0.1,0.33,0,0.5c0,0.03,0.02,0.05,0.05,0.05l0.1,0.05c0,0.03,0.02,0.05,0.05,0.05
			c0.1,0.07,0.17,0.1,0.2,0.1c-0.13,0.13-0.32,0.2-0.55,0.2C34.95,42.1,34.82,42.1,34.65,42.1z M35.35,40.9
			c0,0.03,0.02,0.05,0.05,0.05c-0.03,0.03-0.08,0.08-0.15,0.15C35.32,41.03,35.35,40.96,35.35,40.9z M39.3,40.2l-0.1,0.1
			c0-0.07,0-0.13,0-0.2C39.23,40.14,39.27,40.17,39.3,40.2z M40.85,39.85c0.13,0.17,0.18,0.3,0.15,0.4c0,0.03,0,0.07,0,0.1
			c-0.07-0.03-0.12-0.08-0.15-0.15c-0.03-0.03-0.1-0.07-0.2-0.1C40.75,40,40.82,39.92,40.85,39.85z M33.15,38.45
			c0-0.07,0.02-0.1,0.05-0.1c0.33-0.13,0.65-0.18,0.95-0.15c0.13,0,0.22,0,0.25,0c0.23,0.07,0.42,0.15,0.55,0.25
			c0.1,0.13,0.13,0.28,0.1,0.45c-0.17,0.4-0.58,0.57-1.25,0.5c-0.43,0-0.72-0.13-0.85-0.4c-0.13-0.17-0.13-0.32,0-0.45L33,38.5h0.05
			C33.05,38.47,33.08,38.45,33.15,38.45z M34.6,42.3h0.05c0.17,0.17,0.22,0.3,0.15,0.4c0,0.1-0.02,0.18-0.05,0.25H34.7
			c-0.17,0.13-0.37,0.23-0.6,0.3c0-0.07-0.03-0.15-0.1-0.25v-0.05c-0.03,0-0.07,0-0.1,0c-0.13-0.1-0.35-0.15-0.65-0.15
			c-0.07,0-0.15,0-0.25,0c-0.03-0.1-0.02-0.2,0.05-0.3l0.1-0.05c0.17,0.17,0.38,0.25,0.65,0.25C34.2,42.67,34.47,42.53,34.6,42.3z
			 M42.3,43.45l-0.05,0.05l-0.1,0.05c-0.03,0-0.05,0.02-0.05,0.05c-0.03,0.07-0.08,0.12-0.15,0.15c-0.17,0.23-0.12,0.42,0.15,0.55
			c0.03,0.07,0.1,0.1,0.2,0.1c-0.13,0.03-0.25,0.07-0.35,0.1c-0.1,0.03-0.15,0.07-0.15,0.1c-0.2-0.03-0.4-0.1-0.6-0.2
			c-0.2-0.17-0.23-0.35-0.1-0.55c0.03-0.07,0.07-0.12,0.1-0.15h0.15c0-0.07,0.02-0.12,0.05-0.15c0.17-0.07,0.38-0.1,0.65-0.1
			C42.12,43.45,42.2,43.45,42.3,43.45z M45.1,50.2h-0.05c0-0.03-0.03-0.05-0.1-0.05c-0.1-0.07-0.23-0.12-0.4-0.15
			c0.13,0,0.22-0.02,0.25-0.05c0.27-0.13,0.32-0.32,0.15-0.55c-0.07-0.07-0.12-0.12-0.15-0.15c0-0.03-0.02-0.05-0.05-0.05
			c0-0.03-0.03-0.05-0.1-0.05l-0.1-0.05c0.13,0,0.23,0,0.3,0c0.27,0,0.48,0.03,0.65,0.1c0.03,0.03,0.05,0.07,0.05,0.1
			c0.07,0,0.1,0.02,0.1,0.05c0.03,0.03,0.07,0.07,0.1,0.1c0.13,0.23,0.1,0.42-0.1,0.55C45.48,50.1,45.3,50.17,45.1,50.2z"/>
		<path fill-rule="evenodd" clip-rule="evenodd" fill="#5B5C64" d="M27.95,34.8c0.17-0.07,0.35-0.1,0.55-0.1
			c0.3,0,0.57,0.07,0.8,0.2c0.13,0.13,0.18,0.27,0.15,0.4c-0.03,0.3-0.35,0.48-0.95,0.55c-0.23,0-0.45-0.08-0.65-0.25
			c-0.27-0.13-0.32-0.32-0.15-0.55c0-0.07,0.05-0.12,0.15-0.15h0.05C27.9,34.83,27.92,34.8,27.95,34.8z M27,39.85
			c0.1,0.17,0.12,0.3,0.05,0.4c0,0.33-0.27,0.53-0.8,0.6c-0.27,0-0.53-0.1-0.8-0.3c-0.2-0.13-0.25-0.3-0.15-0.5
			c0.1-0.07,0.15-0.12,0.15-0.15c0-0.03,0.03-0.05,0.1-0.05l0.15-0.1c0.13-0.07,0.32-0.1,0.55-0.1C26.55,39.65,26.8,39.72,27,39.85z
			 M40.85,39.85c-0.03,0.07-0.1,0.15-0.2,0.25c-0.17-0.1-0.42-0.15-0.75-0.15c-0.17,0-0.37,0.05-0.6,0.15c0,0.03,0,0.07,0,0.1
			c-0.03-0.03-0.07-0.07-0.1-0.1c-0.07,0-0.12-0.02-0.15-0.05c-0.1-0.2-0.12-0.37-0.05-0.5c0-0.03,0.02-0.07,0.05-0.1l0.05-0.05
			c0.53-0.47,0.97-0.52,1.3-0.15h0.05c0.1,0,0.2,0.03,0.3,0.1c0.1,0.13,0.13,0.27,0.1,0.4V39.85z M33.88,41.5c0.02,0,0.07,0,0.13,0
			c0.23,0.03,0.38,0.1,0.45,0.2c0.2,0.13,0.27,0.27,0.2,0.4c0,0.03-0.02,0.1-0.05,0.2c-0.13,0.23-0.4,0.37-0.8,0.4
			c-0.27,0-0.48-0.08-0.65-0.25h-0.1c-0.27-0.13-0.3-0.32-0.1-0.55c0.03-0.07,0.07-0.12,0.1-0.15c0-0.03,0.03-0.05,0.1-0.05
			l0.05-0.05c0.03-0.03,0.1-0.07,0.2-0.1c0.07-0.03,0.2-0.05,0.4-0.05H33.88z"/>
		<path fill-rule="evenodd" clip-rule="evenodd" fill="#6B6C74" d="M34.1,41.4L34,41.5c-0.06,0-0.1,0-0.13,0
			C33.96,41.5,34.03,41.47,34.1,41.4z"/>
	</g>
	<g>
		<path fill-rule="evenodd" clip-rule="evenodd" fill="#C61C1C" d="M92.45,32.65c0.23-0.17,0.43-0.33,0.6-0.5
			c0.57,0.17,1.07,0.3,1.5,0.4c-0.37,0.63-1.05,0.82-2.05,0.55v-0.05C92.17,33.02,92.15,32.89,92.45,32.65z M97.85,33.05
			c0.13-0.1,0.27-0.23,0.4-0.4c0.07-0.1,0.17-0.18,0.3-0.25c0.67,0.37,0.43,0.6-0.7,0.7V33.05z M96.55,34.6
			c0.33-0.07,0.6-0.07,0.8,0c0.47,0.03,0.2,0.28-0.8,0.75c-0.3,0-0.53-0.07-0.7-0.2c-0.37-0.3-0.3-0.48,0.2-0.55
			C96.25,34.6,96.42,34.6,96.55,34.6z M86.6,32.65c0.77,0.3,0.72,0.68-0.15,1.15c-0.13,0.03-0.27,0.05-0.4,0.05
			C85.88,33.45,86.07,33.05,86.6,32.65z M88.75,33.4l0.05-0.1c-0.03,0.23-0.27,0.52-0.7,0.85h-0.05
			C88.28,33.89,88.52,33.64,88.75,33.4z M89.4,43.1c-0.83-0.33-0.73-0.5,0.3-0.5c2.67,0,3.27,0.37,1.8,1.1
			C90.7,43.6,90,43.4,89.4,43.1z M90.05,40.25c-0.3-0.17-0.42-0.42-0.35-0.75c0.13-0.23,0.3-0.33,0.5-0.3c1.8,0,2.08,0.38,0.85,1.15
			c-0.13,0.03-0.27,0.07-0.4,0.1C90.38,40.42,90.18,40.35,90.05,40.25z M95.85,37.35c-0.03-0.23,0.08-0.37,0.35-0.4
			c2.13,0,2.42,0.5,0.85,1.5C96.25,38.28,95.85,37.92,95.85,37.35z M100.4,40c0.2,0.13,0.22,0.28,0.05,0.45
			c-0.17,0.17-0.43,0.33-0.8,0.5h-0.1c-0.37-0.07-0.67-0.22-0.9-0.45c-0.03-0.03-0.07-0.07-0.1-0.1l-0.05-0.05
			c-0.3-0.27-0.25-0.42,0.15-0.45C99.45,39.87,100.03,39.9,100.4,40z M89.6,35.8c-0.53-0.4-0.4-0.85,0.4-1.35
			C90.47,34.82,90.33,35.27,89.6,35.8z M112.8,33.1c-0.23-0.23-0.2-0.37,0.1-0.4c2.07-0.3,2.42-0.02,1.05,0.85
			C113.45,33.52,113.07,33.37,112.8,33.1z M117.25,34.5c-0.3,0-0.57-0.07-0.8-0.2c-0.27-0.23-0.22-0.38,0.15-0.45
			C118.33,33.55,118.55,33.77,117.25,34.5z M107.75,33.3c-0.5-0.03-0.85-0.17-1.05-0.4s-0.12-0.38,0.25-0.45
			C109.32,32.22,109.58,32.5,107.75,33.3z M108.65,39.25c-0.3,0-0.52-0.07-0.65-0.2c-0.33-0.27-0.3-0.42,0.1-0.45
			C109.8,38.23,109.98,38.45,108.65,39.25z M119.2,46.55c-0.4-0.27-0.33-0.47,0.2-0.6c2.1-0.27,2.23-0.02,0.4,0.75
			C119.57,46.7,119.37,46.65,119.2,46.55z M115.4,42.85c-0.07-0.23-0.02-0.38,0.15-0.45c1.93-0.3,2.17,0,0.7,0.9
			C115.78,43.3,115.5,43.15,115.4,42.85z M113.8,40.7c-0.1-0.17-0.02-0.27,0.25-0.3c1.47-0.3,1.87-0.2,1.2,0.3
			c-0.17,0.13-0.38,0.23-0.65,0.3c-0.23,0-0.45-0.05-0.65-0.15C113.85,40.78,113.8,40.73,113.8,40.7z M136.65,35.05
			c-0.23,0-0.47-0.07-0.7-0.2c-0.3-0.23-0.28-0.37,0.05-0.4C137.8,34.12,138.02,34.32,136.65,35.05z M128.2,47.45
			c0.27,0.07,0.33,0.17,0.2,0.3c0,0.03-0.05,0.08-0.15,0.15c-0.17,0.13-0.38,0.2-0.65,0.2c-0.27-0.07-0.47-0.17-0.6-0.3
			C126.3,47.3,126.7,47.19,128.2,47.45z M138,41.85c-0.07,0.07-0.2,0.17-0.4,0.3c-0.23,0.1-0.55,0.22-0.95,0.35
			c-0.97-0.23-1.2-0.62-0.7-1.15c0.13-0.17,0.27-0.25,0.4-0.25c0.07,0,0.15,0,0.25,0c0.1,0,0.2,0,0.3,0
			C137.93,41.3,138.3,41.55,138,41.85z M137.15,45.75c-0.5,0-0.82-0.13-0.95-0.4c-0.1-0.23-0.03-0.37,0.2-0.4
			C138.27,44.58,138.52,44.85,137.15,45.75z M150.9,37.25c-0.13-0.2-0.07-0.32,0.2-0.35c2.1-0.23,2.37,0.03,0.8,0.8
			C151.43,37.67,151.1,37.52,150.9,37.25z M142.6,32.25c-0.27-0.2-0.22-0.33,0.15-0.4c1.7-0.33,1.92-0.12,0.65,0.65
			C143.1,32.5,142.83,32.42,142.6,32.25z M141.85,47.1c0.33-0.13,0.9-0.17,1.7-0.1c0.4,0.03,0.45,0.18,0.15,0.45v0.05
			c-0.03,0.03-0.08,0.07-0.15,0.1c-0.23,0.2-0.53,0.33-0.9,0.4c0,0.03-0.03,0.05-0.1,0.05c-0.37-0.2-0.62-0.37-0.75-0.5
			C141.63,47.39,141.65,47.23,141.85,47.1z M151.15,47.4c-1.2-0.73-0.92-1.12,0.85-1.15c0.23-0.03,0.4,0.07,0.5,0.3
			c0.1,0.37-0.02,0.63-0.35,0.8c-0.1,0.1-0.3,0.17-0.6,0.2C151.42,47.48,151.28,47.44,151.15,47.4z M152.8,50.15
			c-0.6,0.33-1.3,0.53-2.1,0.6c-1.43-0.73-0.83-1.1,1.8-1.1C153.53,49.65,153.63,49.82,152.8,50.15z M126.85,49.95
			c-0.13,0.27-0.43,0.42-0.9,0.45c-1.47-0.93-1.23-1.23,0.7-0.9C126.82,49.53,126.88,49.69,126.85,49.95z M122.8,53
			c0.53,0.13,0.6,0.35,0.2,0.65c-0.13,0.1-0.33,0.15-0.6,0.15C120.6,53,120.73,52.73,122.8,53z M104.65,49.2
			c-0.2-0.13-0.35-0.22-0.45-0.25c-0.3-0.33,0.08-0.58,1.15-0.75c0.07,0,0.17,0,0.3,0c0.07,0,0.15,0,0.25,0
			c0.1,0,0.22,0.07,0.35,0.2c0.5,0.57,0.27,0.97-0.7,1.2C105.18,49.47,104.88,49.33,104.65,49.2z M106,52.45
			c-0.1,0.27-0.42,0.4-0.95,0.4c-1.37-0.93-1.1-1.22,0.8-0.85C106.08,52.07,106.13,52.22,106,52.45z"/>
		<path fill-rule="evenodd" clip-rule="evenodd" fill="#E43A3A" d="M98.7,32.45c-0.23-0.13-0.1-0.38,0.4-0.75l0.1-0.1
			c0.67,0.23,0.53,0.52-0.4,0.85H98.7z M86.2,37.1c-0.07-0.37,0.13-0.7,0.6-1l0.05-0.05c0.3,0.3,0.12,0.62-0.55,0.95
			C86.27,37.07,86.23,37.1,86.2,37.1z M86,38.65c0.4,0.1,0.82,0.22,1.25,0.35c0.03,0.03,0.08,0.05,0.15,0.05
			c-0.2,0.27-0.47,0.52-0.8,0.75c0,0.07-0.02,0.12-0.05,0.15c-0.5-0.1-0.97-0.27-1.4-0.5c0.3-0.23,0.57-0.47,0.8-0.7L86,38.65z
			 M100.45,40.45c0.17-0.17,0.15-0.32-0.05-0.45c0.07-0.03,0.17-0.05,0.3-0.05c2.03-0.13,2.75,0.05,2.15,0.55
			c-0.13,0.13-0.32,0.28-0.55,0.45c-0.7-0.03-1.32-0.18-1.85-0.45V40.45z M98.65,40.5c0.23,0.23,0.53,0.38,0.9,0.45
			c-0.2,0.1-0.43,0.22-0.7,0.35c-0.4,0-0.68-0.12-0.85-0.35s-0.08-0.37,0.25-0.4C98.42,40.52,98.55,40.5,98.65,40.5z M91.9,40.7
			c-0.03-0.2,0.03-0.32,0.2-0.35l0.1-0.1c1.17-0.17,1.73-0.13,1.7,0.1c-0.03,0.17-0.37,0.43-1,0.8C92.37,41.15,92.03,41,91.9,40.7z
			 M93.25,45.7h2.25c0,0.4-0.33,0.65-1,0.75C93.9,46.15,93.48,45.9,93.25,45.7z M94.2,43.75c-0.33-0.23-0.32-0.38,0.05-0.45
			c1.87-0.3,2.15-0.05,0.85,0.75C94.73,44.05,94.43,43.95,94.2,43.75z M119.9,33.15c-0.3-0.17-0.25-0.3,0.15-0.4
			c2.57-0.23,3.13,0.08,1.7,0.95C121.02,33.67,120.4,33.48,119.9,33.15z M105.35,33.45c0.03,0.03,0.12,0.05,0.25,0.05
			c-0.3,0.23-0.58,0.48-0.85,0.75c-1.37-0.43-1.48-1.05-0.35-1.85C104.63,32.73,104.95,33.08,105.35,33.45z M105.2,44.4
			c0-0.1,0.03-0.15,0.1-0.15c0.83-0.07,1.38-0.45,1.65-1.15c0.6,0.13,0.9,0.22,0.9,0.25c0.1,0.03,0.2,0.05,0.3,0.05
			c3.17,0.3,3.38,0.68,0.65,1.15c-0.63,0-1.1-0.17-1.4-0.5C106.67,44.95,105.93,45.07,105.2,44.4z M137.25,34.15
			c-0.23,0-0.5-0.1-0.8-0.3c-0.27-0.2-0.25-0.32,0.05-0.35C138.3,33.17,138.55,33.39,137.25,34.15z M136.9,38.4
			c-0.37-0.23-0.35-0.38,0.05-0.45c1.7-0.33,1.88-0.12,0.55,0.65C137.27,38.6,137.07,38.53,136.9,38.4z M128.55,42.5
			c1.73-0.3,1.95-0.08,0.65,0.65c-0.27,0-0.5-0.08-0.7-0.25C128.2,42.7,128.22,42.57,128.55,42.5z M144.7,36.1
			c-0.23,0-0.48-0.1-0.75-0.3c-0.3-0.2-0.28-0.33,0.05-0.4C145.77,35.1,146,35.33,144.7,36.1z M147.7,39.35
			c-0.8-0.1-1.1-0.45-0.9-1.05c0-0.23,0.18-0.35,0.55-0.35C149.65,37.95,149.77,38.42,147.7,39.35z M143.55,47.6
			c0.1,0,0.23,0.02,0.4,0.05c0.33,0.03,0.42,0.15,0.25,0.35c-0.17,0.23-0.43,0.35-0.8,0.35c-0.3-0.1-0.55-0.22-0.75-0.35
			C143.02,47.94,143.32,47.8,143.55,47.6z M141.85,47.1c-0.2,0.13-0.22,0.28-0.05,0.45v0.05c-0.53,0.27-1.15,0.42-1.85,0.45
			c-0.27-0.17-0.47-0.32-0.6-0.45c-0.6-0.5,0.13-0.68,2.2-0.55C141.65,47.05,141.75,47.07,141.85,47.1z M149.63,47.3
			c0.12,0.01,0.24,0.03,0.38,0.05l0.15,0.05c0.17,0.07,0.22,0.2,0.15,0.4c-0.1,0.3-0.42,0.45-0.95,0.45c-0.63-0.37-0.97-0.63-1-0.8
			c-0.03-0.19,0.32-0.25,1.05-0.17v0.02H149.63z M155,44.6c-0.3,0-0.5-0.1-0.6-0.3c-0.13-0.53,0.13-1.02,0.8-1.45
			c0.33-0.23,0.68-0.27,1.05-0.1C157.78,43.42,157.37,44.03,155,44.6z M154.8,46.15c0.07,0,0.13-0.02,0.2-0.05
			c0.4-0.13,0.82-0.25,1.25-0.35l0.05,0.1c0.23,0.2,0.48,0.43,0.75,0.7c-0.43,0.23-0.88,0.4-1.35,0.5c-0.03-0.03-0.07-0.08-0.1-0.15
			C155.3,46.67,155.03,46.42,154.8,46.15z M148.05,50.85c-0.23,0.2-0.53,0.3-0.9,0.3c-1.33-0.8-1.05-1.05,0.85-0.75
			C148.33,50.47,148.35,50.62,148.05,50.85z M137,51.5c-0.73,0.67-1.45,0.55-2.15-0.35c-0.33,0.33-0.82,0.5-1.45,0.5
			c-2.73-0.47-2.52-0.85,0.65-1.15c0.13,0,0.23-0.02,0.3-0.05c0-0.07,0.3-0.17,0.9-0.3c0.3,0.73,0.85,1.12,1.65,1.15
			C136.97,51.3,137,51.37,137,51.5z M113,50.2c-1.27-0.73-1.05-0.93,0.65-0.6c0.37,0.03,0.38,0.17,0.05,0.4
			C113.5,50.14,113.27,50.2,113,50.2z M86,49.85c0.33-0.17,0.67-0.13,1,0.1c0.67,0.43,0.93,0.9,0.8,1.4c-0.1,0.23-0.3,0.35-0.6,0.35
			C84.83,51.14,84.43,50.52,86,49.85z"/>
		<path fill-rule="evenodd" clip-rule="evenodd" fill="#E73F3F" d="M97.35,34.6c-0.2-0.07-0.47-0.07-0.8,0
			c-0.13-0.1-0.28-0.17-0.45-0.2c0.17-0.1,0.25-0.2,0.25-0.3v-0.15v-0.2c0.1,0.07,0.2,0.12,0.3,0.15c-0.1,0-0.2,0.02-0.3,0.05
			c0.1,0,0.2,0,0.3,0C96.98,34.19,97.22,34.4,97.35,34.6z"/>
		<path fill-rule="evenodd" clip-rule="evenodd" fill="#6B6C74" d="M86.6,34.05c-0.07,0-0.17,0-0.3,0c0.13-0.03,0.23-0.07,0.3-0.1
			V34.05z"/>
		<path fill-rule="evenodd" clip-rule="evenodd" fill="#E03B3A" d="M98.25,36.3c0.17-0.1,0.25-0.2,0.25-0.3l0.1-0.6
			C100.27,35.37,100.15,35.67,98.25,36.3z"/>
		<path fill-rule="evenodd" clip-rule="evenodd" fill="#E03334" d="M99.85,36.65c-0.2-0.4-0.03-0.63,0.5-0.7
			c1.87-0.23,2.22,0.03,1.05,0.8C101.37,36.75,100.85,36.72,99.85,36.65z"/>
		<path fill-rule="evenodd" clip-rule="evenodd" fill="#DD3233" d="M97,36.95V36.5C98.7,36.9,98.7,37.05,97,36.95z"/>
		<path fill-rule="evenodd" clip-rule="evenodd" fill="#E43234" d="M99.85,44.4l0.3,0.05c1.2,0.3,1.63,0.67,1.3,1.1
			c-0.87,1.63-1.8,1.57-2.8-0.2C98.78,44.75,99.18,44.44,99.85,44.4z M142.35,51.5c0.7,0.03,1.1,0.35,1.2,0.95
			c-0.93,1.77-1.87,1.83-2.8,0.2c-0.33-0.47,0.13-0.83,1.4-1.1L142.35,51.5z"/>
		<path fill-rule="evenodd" clip-rule="evenodd" fill="#DF3333" d="M96.15,47.05c-0.07,0.03,0.05,0.12,0.35,0.25h-1.65
			c0.3-0.77,0.93-1.53,1.9-2.3c0.1-0.07,0.28,0.12,0.55,0.55C97.7,46.08,97.32,46.58,96.15,47.05z M144.9,52.6
			c0.27-0.43,0.47-0.6,0.6-0.5c0.97,0.73,1.6,1.48,1.9,2.25h-1.65c0.3-0.1,0.4-0.17,0.3-0.2C144.92,53.69,144.53,53.17,144.9,52.6z"
			/>
		<path fill-rule="evenodd" clip-rule="evenodd" fill="#E84241" d="M98.55,47.05c-0.2-0.13-0.47-0.27-0.8-0.4
			c0.73-0.2,1.42,0.02,2.05,0.65h-1.15C98.65,47.17,98.62,47.08,98.55,47.05z M144.45,53.75c-0.33,0.13-0.58,0.27-0.75,0.4
			c-0.1,0.03-0.15,0.1-0.15,0.2h-1.1C143.08,53.75,143.75,53.55,144.45,53.75z"/>
		<path fill-rule="evenodd" clip-rule="evenodd" fill="#E33737" d="M108.45,36.65c-0.17-0.7,0.03-0.85,0.6-0.45
			c0.87,0.67,0.45,1.37-1.25,2.1C108.4,37.73,108.62,37.19,108.45,36.65z M150.8,43.5c-0.07,0.17-0.13,0.3-0.2,0.4
			c-0.63,1.2-1.08,1.37-1.35,0.5c-0.43-1.33,0.18-2,1.85-2L150.8,43.5z M91.15,49.5c1.67,0,2.28,0.67,1.85,2
			c-0.3,0.87-0.77,0.7-1.4-0.5c-0.03-0.1-0.08-0.23-0.15-0.4L91.15,49.5z"/>
		<path fill-rule="evenodd" clip-rule="evenodd" fill="#E23032" d="M101.95,46c0.7-0.73,1.22-0.7,1.55,0.1l0.3,0.55
			C103.53,46.55,102.92,46.33,101.95,46z M138.7,53.15c0.33-0.8,0.85-0.83,1.55-0.1c-0.97,0.37-1.58,0.6-1.85,0.7L138.7,53.15z"/>
		<path fill-rule="evenodd" clip-rule="evenodd" fill="#E03233" d="M117.7,36.05c0-0.13,0.02-0.22,0.05-0.25
			C121.48,35.53,121.47,35.62,117.7,36.05z"/>
		<path fill-rule="evenodd" clip-rule="evenodd" fill="#DF3737" d="M118.95,40.25c0-0.13,0.05-0.25,0.15-0.35
			c0.47-0.97,1.12-1.83,1.95-2.6c0,0.1-0.03,0.22-0.1,0.35C120.75,38.72,120.08,39.58,118.95,40.25z"/>
		<path fill-rule="evenodd" clip-rule="evenodd" fill="#E13435" d="M112.25,37.1c1.77,0.27,1.65,0.45-0.35,0.55
			C111.7,37.22,111.82,37.03,112.25,37.1z M120.65,36.65c1.27-0.47,2.03-0.38,2.3,0.25C123.92,38.97,123.15,38.89,120.65,36.65z"/>
		<path fill-rule="evenodd" clip-rule="evenodd" fill="#E13B3B" d="M122.4,41.95l0.7,0.2c-0.33,0.57-1.3,0.78-2.9,0.65
			C120.43,41.94,121.17,41.65,122.4,41.95z M119.8,49c1.23-0.27,1.97,0.03,2.2,0.9c-1.6,0.1-2.55-0.13-2.85-0.7L119.8,49z"/>
		<path fill-rule="evenodd" clip-rule="evenodd" fill="#E13334" d="M138,41.85c0.4-0.23,0.03,0.08-1.1,0.95
			c0-0.1,0.03-0.18,0.1-0.25c0.23-0.17,0.43-0.3,0.6-0.4C137.8,42.02,137.93,41.92,138,41.85z M104.2,48.95
			c0.1,0.03,0.25,0.12,0.45,0.25c0.2,0.13,0.4,0.27,0.6,0.4c0.07,0.1,0.1,0.2,0.1,0.3C104.18,49.03,103.8,48.72,104.2,48.95z"/>
		<path fill-rule="evenodd" clip-rule="evenodd" fill="#E43637" d="M121.4,35.7c0.07-0.57,0.45-0.8,1.15-0.7
			C123.92,35.27,123.53,35.5,121.4,35.7z"/>
		<path fill-rule="evenodd" clip-rule="evenodd" fill="#E03837" d="M149.4,47.28c0.2-1.28,0.4-1.27,0.6,0.02h-0.38h-0.22V47.28z
			 M92.8,54.35h-0.6C92.4,53.08,92.6,53.08,92.8,54.35z"/>
	</g>
	<g>
		<linearGradient id="SVGID_1_" gradientUnits="userSpaceOnUse" x1="-75.2749" y1="42.8267" x2="67.0751" y2="42.8267">
			<stop  offset="0" style="stop-color:#000000;stop-opacity:0.498"/>
			<stop  offset="1" style="stop-color:#000000;stop-opacity:0"/>
		</linearGradient>
		<rect x="4.55" y="30.65" fill-rule="evenodd" clip-rule="evenodd" fill="url(#SVGID_1_)" width="153.95" height="24.35"/>
	</g>
	<g>
		<g>
			<g>
				<path fill-rule="evenodd" clip-rule="evenodd" fill-opacity="0.4706" d="M143.2,45.4c0.77,4.67,0.93,7.93,0.5,9.8h-3.65
					c0-0.13,0-0.27,0-0.4c-0.37-2.17-0.48-4.65-0.35-7.45C139.8,44.55,140.97,43.9,143.2,45.4z"/>
			</g>
			<g>
				<path fill-rule="evenodd" clip-rule="evenodd" fill="#616161" d="M141.55,45.4c0.2-0.2,0.45-0.3,0.75-0.3
					c0.23,0,0.47,0.1,0.7,0.3c0.23,0.3,0.35,0.6,0.35,0.9v9.2c0.03,2.17-0.22,3.45-0.75,3.85c-0.4,0.53-0.9,0.65-1.5,0.35
					c-0.1-0.07-0.23-0.15-0.4-0.25c-0.13-0.13-0.32-0.33-0.55-0.6c-0.07-0.1-0.13-0.2-0.2-0.3l-1.35-2.3
					c-0.03-0.07-0.22-0.43-0.55-1.1h2.5v0.05l0.6,1.1c0-0.27,0-0.52,0-0.75V46.3C141.15,46,141.28,45.7,141.55,45.4z"/>
			</g>
			<g>
				<path fill-rule="evenodd" clip-rule="evenodd" fill="#FFFFFF" d="M142.5,45.85c0.27,0.67,0.07,1.02-0.6,1.05
					c0-0.03-0.02-0.07-0.05-0.1c-0.07-0.5,0.1-0.85,0.5-1.05C142.38,45.75,142.43,45.78,142.5,45.85z"/>
				
					<radialGradient id="SVGID_2_" cx="-680.6001" cy="-690.1987" r="4.175" gradientTransform="matrix(-1 0 0 1.1377 -538 838.4578)" gradientUnits="userSpaceOnUse">
					<stop  offset="0" style="stop-color:#FFFFFF"/>
					<stop  offset="1" style="stop-color:#F9F9F9;stop-opacity:0"/>
				</radialGradient>
				<path fill-rule="evenodd" clip-rule="evenodd" fill="url(#SVGID_2_)" d="M142.75,48.5V58c0.03,0.03,0.03,0.07,0,0.1
					c-0.07,0.03-0.12,0.05-0.15,0.05c-0.03,0-0.05-0.02-0.05-0.05c-0.03-0.03-0.05-0.07-0.05-0.1v-9.5c0-0.03,0.02-0.07,0.05-0.1
					c0-0.03,0.02-0.03,0.05,0c0.03-0.03,0.08-0.03,0.15,0C142.78,48.44,142.78,48.47,142.75,48.5z"/>
			</g>
		</g>
	</g>
	<g>
		<g>
			<g>
				<path fill-rule="evenodd" clip-rule="evenodd" fill-opacity="0.4706" d="M17.4,45.15c2.5-1.53,3.8-0.88,3.9,1.95
					c0.17,2.8,0.05,5.28-0.35,7.45c0,0.13,0,0.25,0,0.35H16.8C16.33,53.07,16.53,49.82,17.4,45.15z"/>
			</g>
			<g>
				<path fill-rule="evenodd" clip-rule="evenodd" fill="#616161" d="M18.4,46c0-0.27,0.13-0.55,0.4-0.85
					c0.27-0.23,0.53-0.35,0.8-0.35c0.33,0,0.63,0.12,0.9,0.35c0.23,0.3,0.35,0.58,0.35,0.85v9.3c0,0.3,0,0.58,0,0.85
					c0.13-0.13,0.27-0.2,0.4-0.2h0.05l0.5-0.7l3.3-0.05c-2.2,2.5-3.37,3.77-3.5,3.8c-0.1,0.07-0.18,0.13-0.25,0.2
					c-0.87,0.6-1.57,0.57-2.1-0.1c-0.57-0.4-0.85-1.68-0.85-3.85V46z"/>
			</g>
			<g>
				<path fill-rule="evenodd" clip-rule="evenodd" fill="#FFFFFF" d="M20.05,46.6c-0.73-0.03-0.95-0.37-0.65-1
					c0.03-0.07,0.07-0.1,0.1-0.1c0.47,0.2,0.67,0.53,0.6,1C20.07,46.53,20.05,46.57,20.05,46.6z"/>
				
					<radialGradient id="SVGID_3_" cx="19.25" cy="52.9517" r="4.7" gradientTransform="matrix(1 0 0 1.0106 0 -0.5633)" gradientUnits="userSpaceOnUse">
					<stop  offset="0" style="stop-color:#FFFFFF"/>
					<stop  offset="1" style="stop-color:#F9F9F9;stop-opacity:0"/>
				</radialGradient>
				<path fill-rule="evenodd" clip-rule="evenodd" fill="url(#SVGID_3_)" d="M19.15,48.15c0.03-0.03,0.07-0.03,0.1,0
					c0.03-0.03,0.07-0.03,0.1,0c0.03,0.03,0.05,0.07,0.05,0.1v9.5c0,0.03-0.02,0.07-0.05,0.1c-0.03,0.03-0.07,0.05-0.1,0.05
					s-0.07-0.02-0.1-0.05c-0.07-0.03-0.07-0.07,0-0.1v-9.5C19.08,48.22,19.08,48.19,19.15,48.15z"/>
			</g>
		</g>
	</g>
</g>
</svg>
