<?xml version="1.0" encoding="utf-8"?>
<!-- Generator: Adobe Illustrator 16.0.0, SVG Export Plug-In . SVG Version: 6.00 Build 0)  -->
<!DOCTYPE svg PUBLIC "-//W3C//DTD SVG 1.1//EN" "http://www.w3.org/Graphics/SVG/1.1/DTD/svg11.dtd">
<svg version="1.1" id="Layer_1" xmlns="http://www.w3.org/2000/svg" xmlns:xlink="http://www.w3.org/1999/xlink" x="0px" y="0px"
	 width="129.67px" height="17.83px" viewBox="0 0 129.67 17.83" enable-background="new 0 0 129.67 17.83" xml:space="preserve">
<g>
	<g>
		<path fill-rule="evenodd" clip-rule="evenodd" fill-opacity="0.4706" d="M1.58,11.78c-0.47-1.83-0.27-5.07,0.6-9.7
			c2.53-1.53,3.85-0.9,3.95,1.9c0.13,2.8,0,5.28-0.4,7.45c0,0.13,0,0.25,0,0.35H1.58z"/>
		<path fill-rule="evenodd" clip-rule="evenodd" fill-opacity="0.4627" d="M128.73,3.73c0,2.63-0.27,4.98-0.8,7.05
			c-0.07,0.23-0.1,0.48-0.1,0.75h-3.55c0.1-1.9,0.27-5.08,0.5-9.55C127.42,0.58,128.73,1.17,128.73,3.73z"/>
	</g>
	<g>
		<path fill-rule="evenodd" clip-rule="evenodd" fill="#616161" d="M128.43,2.08c0.23,0.27,0.35,0.55,0.35,0.85v9.15
			c0.07,2.17-0.17,3.45-0.7,3.85c-0.6,0.67-1.33,0.7-2.2,0.1c-0.37-0.23-0.77-0.7-1.2-1.4c-0.17-0.27-0.2-0.57-0.1-0.9
			c0.03-0.33,0.18-0.6,0.45-0.8c0.3-0.17,0.6-0.2,0.9-0.1c0.17,0,0.32,0.07,0.45,0.2c0-0.3,0-0.58,0-0.85V2.93
			c0-0.3,0.12-0.58,0.35-0.85c0.23-0.23,0.52-0.35,0.85-0.35S128.2,1.85,128.43,2.08z M5.28,2.08c0.27,0.27,0.4,0.55,0.4,0.85v9.25
			c0,0.27,0,0.55,0,0.85c0.1-0.13,0.23-0.2,0.4-0.2c0.33-0.1,0.63-0.07,0.9,0.1c0.3,0.2,0.48,0.47,0.55,0.8
			c0.03,0.33-0.02,0.63-0.15,0.9c-0.47,0.7-0.87,1.17-1.2,1.4c-0.87,0.6-1.58,0.57-2.15-0.1c-0.57-0.4-0.83-1.68-0.8-3.85V2.93
			c0-0.3,0.12-0.58,0.35-0.85c0.27-0.23,0.55-0.35,0.85-0.35C4.77,1.73,5.05,1.85,5.28,2.08z"/>
	</g>
	<g>
		<radialGradient id="SVGID_1_" cx="4.0332" cy="9.833" r="4.725" gradientUnits="userSpaceOnUse">
			<stop  offset="0" style="stop-color:#FFFFFF"/>
			<stop  offset="1" style="stop-color:#F9F9F9;stop-opacity:0"/>
		</radialGradient>
		<path fill-rule="evenodd" clip-rule="evenodd" fill="url(#SVGID_1_)" d="M3.88,4.98c0.03-0.07,0.08-0.1,0.15-0.1
			c0.07,0,0.13,0.03,0.2,0.1c0.03,0.03,0.05,0.08,0.05,0.15v9.45c0,0.07-0.02,0.13-0.05,0.2c-0.07,0.03-0.13,0.05-0.2,0.05
			c-0.07,0-0.12-0.02-0.15-0.05c-0.07-0.07-0.1-0.13-0.1-0.2V5.13C3.78,5.07,3.82,5.02,3.88,4.98z"/>
		<radialGradient id="SVGID_2_" cx="127.4326" cy="9.0332" r="5.8125" gradientUnits="userSpaceOnUse">
			<stop  offset="0" style="stop-color:#FFFFFF"/>
			<stop  offset="1" style="stop-color:#F9F9F9;stop-opacity:0"/>
		</radialGradient>
		<path fill-rule="evenodd" clip-rule="evenodd" fill="url(#SVGID_2_)" d="M127.28,3.03c0.03-0.07,0.08-0.1,0.15-0.1
			c0.07,0,0.13,0.03,0.2,0.1c0.03,0.03,0.05,0.08,0.05,0.15v11.65c0,0.07-0.02,0.13-0.05,0.2c-0.07,0.03-0.13,0.05-0.2,0.05
			c-0.07,0-0.12-0.02-0.15-0.05c-0.07-0.07-0.1-0.13-0.1-0.2V3.18C127.18,3.12,127.22,3.07,127.28,3.03z"/>
	</g>
	<g>
		<path fill-rule="evenodd" clip-rule="evenodd" fill="#FFFFFF" d="M4.88,4.08c-0.77-0.03-1-0.38-0.7-1.05
			c0.07-0.07,0.12-0.1,0.15-0.1C4.8,3.13,5,3.48,4.93,3.98C4.9,4.02,4.88,4.05,4.88,4.08z M127.33,3.03l0.1-0.1
			c0.43,0.37,0.47,0.82,0.1,1.35c-0.03,0.03-0.07,0.08-0.1,0.15C126.87,3.93,126.83,3.47,127.33,3.03z"/>
	</g>
</g>
</svg>
