<?xml version="1.0" encoding="utf-8"?>
<!-- Generator: Adobe Illustrator 16.0.0, SVG Export Plug-In . SVG Version: 6.00 Build 0)  -->
<!DOCTYPE svg PUBLIC "-//W3C//DTD SVG 1.1//EN" "http://www.w3.org/Graphics/SVG/1.1/DTD/svg11.dtd">
<svg version="1.1" id="Layer_2" xmlns="http://www.w3.org/2000/svg" xmlns:xlink="http://www.w3.org/1999/xlink" x="0px" y="0px"
	 width="35.67px" height="50.17px" viewBox="0 0 35.67 50.17" enable-background="new 0 0 35.67 50.17" xml:space="preserve">
<g>
	<g>
		<g>
			<linearGradient id="SVGID_1_" gradientUnits="userSpaceOnUse" x1="24.2534" y1="40.6753" x2="25.9284" y2="40.6753">
				<stop  offset="0" style="stop-color:#000000;stop-opacity:0.502"/>
				<stop  offset="1" style="stop-color:#000000;stop-opacity:0"/>
			</linearGradient>
			<polygon fill-rule="evenodd" clip-rule="evenodd" fill="url(#SVGID_1_)" points="26.89,48.68 24.59,46.52 11.79,46.52 
				11.79,34.77 11.99,34.77 24.59,34.77 26.89,32.68 			"/>
			<linearGradient id="SVGID_2_" gradientUnits="userSpaceOnUse" x1="18.3911" y1="46.2251" x2="18.3911" y2="48.0251">
				<stop  offset="0" style="stop-color:#000000;stop-opacity:0.502"/>
				<stop  offset="1" style="stop-color:#000000;stop-opacity:0"/>
			</linearGradient>
			<polygon fill-rule="evenodd" clip-rule="evenodd" fill="url(#SVGID_2_)" points="26.89,48.68 9.89,48.68 11.79,46.52 
				24.59,46.52 			"/>
			<linearGradient id="SVGID_3_" gradientUnits="userSpaceOnUse" x1="18.3159" y1="34.6753" x2="18.3159" y2="33.1753">
				<stop  offset="0" style="stop-color:#000000;stop-opacity:0.502"/>
				<stop  offset="1" style="stop-color:#000000;stop-opacity:0"/>
			</linearGradient>
			<polygon fill-rule="evenodd" clip-rule="evenodd" fill="url(#SVGID_3_)" points="11.99,34.77 9.74,32.93 9.74,32.72 26.89,32.68 
				24.59,34.77 			"/>
			<linearGradient id="SVGID_4_" gradientUnits="userSpaceOnUse" x1="11.6421" y1="40.8999" x2="10.0421" y2="40.8999">
				<stop  offset="0" style="stop-color:#000000;stop-opacity:0.502"/>
				<stop  offset="1" style="stop-color:#000000;stop-opacity:0"/>
			</linearGradient>
			<polygon fill-rule="evenodd" clip-rule="evenodd" fill="url(#SVGID_4_)" points="9.74,32.93 11.99,34.77 11.79,34.77 
				11.79,46.52 9.89,48.68 9.79,48.87 			"/>
		</g>
	</g>
	<g>
		<g>
			<polygon fill-rule="evenodd" clip-rule="evenodd" fill="#585757" points="1.94,22.42 2.09,1.67 32.14,1.67 33.79,22.42 
				31.29,22.42 			"/>
			<polygon fill-rule="evenodd" clip-rule="evenodd" fill="#585757" points="1.94,22.42 2.09,1.67 32.14,1.67 33.79,22.42 
				31.29,22.42 			"/>
			<polygon fill-rule="evenodd" clip-rule="evenodd" fill="#484343" points="33.79,22.42 30.39,31.32 5.64,31.32 1.94,22.42 
				31.29,22.42 			"/>
			<polygon fill-rule="evenodd" clip-rule="evenodd" fill="#484343" points="33.79,22.42 30.39,31.32 5.64,31.32 1.94,22.42 
				31.29,22.42 			"/>
			<polygon fill-rule="evenodd" clip-rule="evenodd" fill="#941F1F" points="5.64,31.32 30.39,31.32 24.19,46.43 11.94,46.43 			"/>
			<polygon fill-rule="evenodd" clip-rule="evenodd" fill="#941F1F" points="5.64,31.32 30.39,31.32 24.19,46.43 11.94,46.43 			"/>
		</g>
	</g>
	<g>
		<path fill-rule="evenodd" clip-rule="evenodd" fill="#FFFFFF" fill-opacity="0.502" d="M33.79,22.02c0.03-0.03,0.07-0.03,0.1,0
			c0.04,0.03,0.05,0.07,0.05,0.1s-0.02,0.07-0.05,0.1c-0.03,0.03-0.07,0.05-0.1,0.05L1.94,22.32c-0.03,0-0.07-0.02-0.1-0.05
			s-0.03-0.07,0-0.1c-0.03-0.03-0.03-0.07,0-0.1c0.03-0.03,0.07-0.03,0.1,0L33.79,22.02z"/>
	</g>
	<g>
		<g>
			<path fill-rule="evenodd" clip-rule="evenodd" fill="#464646" d="M29.94,4.02l-0.1,0.5c0,0.13-0.22,0.2-0.65,0.2
				c-0.23,0-0.4-0.03-0.5-0.1c-0.07-0.1-0.13-0.18-0.2-0.25v0.05c-0.03-0.03-0.05-0.18-0.05-0.45c0-0.5,0.47-0.65,1.4-0.45
				C29.91,3.42,29.94,3.59,29.94,4.02z M29.44,10.47c-0.23,0-0.4-0.03-0.5-0.1c-0.07-0.1-0.13-0.18-0.2-0.25
				c-0.03,0.17-0.05,0.03-0.05-0.4c0-0.5,0.47-0.65,1.4-0.45c0.07-0.1,0.1,0.07,0.1,0.5c0,0.4-0.03,0.57-0.1,0.5
				C30.09,10.41,29.87,10.47,29.44,10.47z M28.69,11.37c0,0.17-0.07,0.35-0.2,0.55l-0.4,0.2c-0.27-0.07-0.47-0.18-0.6-0.35
				c-0.03,0.2-0.05,0.08-0.05-0.35c0-0.27,0.08-0.43,0.25-0.5c0.07-0.03,0.2-0.05,0.4-0.05C28.43,11.07,28.62,11.24,28.69,11.37z
				 M22.89,4.82c0.07-0.03,0.13-0.07,0.2-0.1c0.27-0.07,0.6-0.05,1,0.05c0.03-0.1,0.05,0.07,0.05,0.5l-0.05,0.5
				c0,0.13-0.22,0.2-0.65,0.2c-0.27,0-0.43-0.03-0.5-0.1c0-0.03-0.02-0.05-0.05-0.05c0.1-0.1,0.17-0.2,0.2-0.3l0.05,0.1V5.27
				c0-0.27-0.02-0.4-0.05-0.4C22.99,4.84,22.93,4.82,22.89,4.82z M26.09,5.02h0.75c0.07-0.1,0.1,0.07,0.1,0.5l-0.1,0.5l-0.5,0.2
				l-0.6-0.35v0.05c-0.03-0.03-0.05-0.18-0.05-0.45S25.82,5.06,26.09,5.02z M18.59,5.47c-0.37-0.3-0.6-0.62-0.7-0.95
				c0.23-0.17,0.55-0.25,0.95-0.25c0.03,0.03,0.12,0.07,0.25,0.1c0.03,0,0.05,0.13,0.05,0.4v0.35l-0.05-0.1
				C19.02,5.22,18.86,5.37,18.59,5.47z M23.59,9.27c-0.4,0-0.72,0.08-0.95,0.25c0.1,0.33,0.32,0.63,0.65,0.9
				c-0.13,0.03-0.28,0.05-0.45,0.05c-0.33,0-0.62-0.12-0.85-0.35c-0.07,0.17-0.1,0.03-0.1-0.4C21.89,9.22,22.46,9.07,23.59,9.27z
				 M26.74,14.52c-0.03,0.2-0.05,0.08-0.05-0.35c0-0.27,0.08-0.43,0.25-0.5c0.07-0.03,0.2-0.05,0.4-0.05c0.33,0.2,0.53,0.37,0.6,0.5
				c0,0.17-0.07,0.35-0.2,0.55l-0.4,0.2C27.07,14.81,26.87,14.69,26.74,14.52z M23.64,12.92c0,0.43-0.02,0.6-0.05,0.5l-0.5,0.2
				c-0.47-0.4-0.7-0.63-0.7-0.7c0-0.43,0.4-0.57,1.2-0.4C23.62,12.39,23.64,12.52,23.64,12.92z M19.59,13.42
				c-0.1,0.13-0.35,0.2-0.75,0.2c-0.43,0-0.67-0.03-0.7-0.1c-0.1-0.07-0.17-0.12-0.2-0.15s-0.05-0.18-0.05-0.45
				c0-0.57,0.57-0.7,1.7-0.4c0.03-0.13,0.05,0,0.05,0.4C19.64,13.36,19.62,13.52,19.59,13.42z M19.84,17.52
				c0,0.1,0.02,0.23,0.05,0.4c0,0.43-0.02,0.6-0.05,0.5l-0.5,0.2c-0.47-0.4-0.7-0.63-0.7-0.7C18.64,17.49,19.04,17.36,19.84,17.52z
				 M15.99,4.27l-0.15,0.6c-0.07,0-0.4,0.12-1,0.35c-0.4-0.43-0.6-0.72-0.6-0.85c0-0.3,0.1-0.48,0.3-0.55
				c0.2-0.07,0.63-0.08,1.3-0.05C15.94,4.07,15.99,4.24,15.99,4.27z M9.49,4.87c0.13-0.1,0.32-0.15,0.55-0.15
				c0.47,0,0.87,0.25,1.2,0.75c-0.07,0.1-0.18,0.27-0.35,0.5c-0.13,0.17-0.27,0.25-0.4,0.25c-0.2,0-0.43-0.08-0.7-0.25
				c-0.03-0.07-0.07-0.13-0.1-0.2H9.54c-0.17-0.13-0.27-0.23-0.3-0.3c0-0.07,0.02-0.12,0.05-0.15l0.05-0.05L9.49,4.87z M10.49,8.92
				c-0.37-0.27-0.7-0.28-1-0.05C9.46,8.81,9.41,8.72,9.34,8.62c-0.07,0.17-0.1,0.03-0.1-0.4c0-0.53,0.45-0.68,1.35-0.45
				c0.1-0.1,0.15,0.07,0.15,0.5c0,0.4-0.02,0.57-0.05,0.5c-0.03,0-0.08,0.03-0.15,0.1C10.51,8.87,10.49,8.89,10.49,8.92z
				 M7.94,11.42c0.2,0,0.33-0.02,0.4-0.05c0.27,0.13,0.48,0.3,0.65,0.5c0,0.23-0.05,0.42-0.15,0.55l-0.5,0.2
				c-0.23-0.07-0.4-0.18-0.5-0.35c-0.07,0.2-0.1,0.08-0.1-0.35C7.74,11.66,7.81,11.49,7.94,11.42z M12.44,11.02
				c0.33,0.17,0.52,0.42,0.55,0.75c0,0.07-0.03,0.18-0.1,0.35c-0.1,0.17-0.28,0.25-0.55,0.25c-0.57,0-0.85-0.3-0.85-0.9v-0.35
				c0.03,0,0.07-0.03,0.1-0.1C11.82,10.89,12.11,10.89,12.44,11.02z M16.54,6.82v0.1l0.05-0.05l0.5,0.35l0.5-0.2v-0.1l0.05,0.1
				l-0.05,0.5l-0.5,0.2l-0.5-0.35l-0.05,0.05c-0.03-0.03-0.05-0.18-0.05-0.45C16.49,6.91,16.51,6.86,16.54,6.82z M15.44,8.02
				c-0.03,0-0.08,0.03-0.15,0.1c-0.13,0.07-0.32,0.1-0.55,0.1c-0.27,0-0.43-0.03-0.5-0.1c-0.03-0.07-0.08-0.15-0.15-0.25
				c-0.07,0.17-0.1,0.03-0.1-0.4c0-0.53,0.45-0.68,1.35-0.45c0.1-0.1,0.15,0.07,0.15,0.5C15.49,7.92,15.47,8.09,15.44,8.02z
				 M15.19,8.52c0.2,0.33,0.3,0.53,0.3,0.6l-0.15,0.4l-0.5,0.2l-0.5-0.35c-0.07,0.17-0.1,0.03-0.1-0.4c0-0.27,0.12-0.42,0.35-0.45
				H15.19z M15.64,10.52l-0.3-0.15c-0.07,0.13-0.1,0-0.1-0.4c0-0.27,0.12-0.42,0.35-0.45h0.6c0.2,0.33,0.3,0.53,0.3,0.6l-0.15,0.4
				l-0.5,0.1L15.64,10.52z M4.84,5.02l-0.5,0.2l-0.5-0.35L3.79,4.92C3.76,4.89,3.74,4.74,3.74,4.47s0.12-0.42,0.35-0.45h0.6
				c0.2,0.33,0.3,0.53,0.3,0.6L4.84,5.02z M6.69,10.22l-0.6,0.25c-0.4-0.43-0.6-0.72-0.6-0.85c0-0.5,0.37-0.7,1.1-0.6
				c0.1-0.03,0.15,0.17,0.15,0.6C6.74,10.02,6.72,10.22,6.69,10.22z M3.59,13.17l-0.5,0.2c-0.23-0.07-0.4-0.18-0.5-0.35
				c-0.07,0.2-0.1,0.08-0.1-0.35c0-0.27,0.07-0.43,0.2-0.5c0.2,0,0.33-0.02,0.4-0.05c0.27,0.13,0.48,0.3,0.65,0.5
				C3.74,12.86,3.69,13.04,3.59,13.17z M3.74,15.27c0.37-0.1,0.98-0.1,1.85,0l0.1,0.05c0.03,0,0.05,0.12,0.05,0.35
				c0,0.43-0.02,0.6-0.05,0.5c-0.07,0-0.38,0.07-0.95,0.2c-0.47,0-0.77-0.12-0.9-0.35C3.78,15.92,3.74,15.67,3.74,15.27z
				 M13.99,15.12c0,0.23-0.05,0.42-0.15,0.55l-0.5,0.2c-0.23-0.07-0.4-0.18-0.5-0.35c-0.07,0.2-0.1,0.08-0.1-0.35
				c0-0.27,0.07-0.43,0.2-0.5c0.2,0,0.33-0.02,0.4-0.05C13.61,14.76,13.82,14.92,13.99,15.12z"/>
			<path fill-rule="evenodd" clip-rule="evenodd" fill="#747373" d="M29.49,5.67c-0.03-0.03-0.05-0.18-0.05-0.45s0.13-0.42,0.4-0.45
				h0.75c0.07-0.1,0.1,0.07,0.1,0.5l-0.1,0.5l-0.5,0.2l-0.6-0.35V5.67z M30.09,7.27c0.07-0.1,0.1,0.07,0.1,0.5
				c0,0.4-0.03,0.57-0.1,0.5c0,0.13-0.22,0.2-0.65,0.2c-0.23,0-0.4-0.03-0.5-0.1c-0.07-0.1-0.13-0.18-0.2-0.25
				c-0.03,0.17-0.05,0.03-0.05-0.4C28.69,7.22,29.16,7.07,30.09,7.27z M22.89,4.82c0.04,0,0.1,0.02,0.2,0.05
				c0.03,0,0.05,0.13,0.05,0.4v0.35l-0.05-0.1c-0.03,0.1-0.1,0.2-0.2,0.3c-0.07,0.07-0.17,0.12-0.3,0.15
				c-0.37-0.3-0.6-0.62-0.7-0.95c0.23-0.17,0.55-0.25,0.95-0.25L22.89,4.82z M21.39,8.37c0,0.4-0.02,0.6-0.05,0.6l-0.5,0.25
				l-0.95-0.7c-0.03-0.37,0.1-0.6,0.4-0.7c0.17-0.07,0.52-0.08,1.05-0.05C21.37,7.74,21.39,7.94,21.39,8.37z M19.39,8.27
				c0,0.4-0.02,0.48-0.05,0.25c-0.07,0.2-0.23,0.35-0.5,0.45c-0.37-0.3-0.6-0.62-0.7-0.95c0.23-0.17,0.55-0.25,0.95-0.25
				c0.03,0.03,0.12,0.07,0.25,0.1C19.37,7.87,19.39,8.01,19.39,8.27z M23.29,10.42c-0.33-0.27-0.55-0.57-0.65-0.9
				c0.23-0.17,0.55-0.25,0.95-0.25l0.05,0.05c0.04,0,0.1,0.02,0.2,0.05c0.03,0,0.05,0.13,0.05,0.4c0,0.4-0.02,0.48-0.05,0.25
				c-0.07,0.2-0.23,0.35-0.5,0.45L23.29,10.42z M25.69,8.77c0,0.43-0.28,0.75-0.85,0.95l-0.55-0.55c-0.1-0.1-0.15-0.2-0.15-0.3
				c0-0.5,0.48-0.7,1.45-0.6C25.66,8.17,25.69,8.34,25.69,8.77z M26.44,6.77l-0.1,0.5c0,0.13-0.22,0.2-0.65,0.2
				c-0.23,0-0.4-0.03-0.5-0.1c-0.07-0.1-0.13-0.18-0.2-0.25v0.05c-0.03-0.03-0.05-0.18-0.05-0.45c0-0.5,0.47-0.65,1.4-0.45
				C26.41,6.17,26.44,6.34,26.44,6.77z M18.14,14.42c0-0.43,0.4-0.57,1.2-0.4c0,0.1,0.02,0.23,0.05,0.4c0,0.43-0.02,0.6-0.05,0.5
				l-0.5,0.2L18.14,14.42z M9.79,5.97c0.13,0.2,0.2,0.33,0.2,0.4l-0.15,0.4l-0.5,0.2l-0.5-0.35L8.79,6.67
				C8.76,6.64,8.74,6.49,8.74,6.22s0.12-0.42,0.35-0.45h0.45h0.15C9.72,5.84,9.76,5.91,9.79,5.97z M9.49,4.87l-0.15,0.4L9.29,5.32
				L8.84,5.47l-0.5-0.35L8.29,5.17C8.26,5.14,8.24,4.99,8.24,4.72s0.12-0.42,0.35-0.45h0.6C9.39,4.61,9.49,4.81,9.49,4.87z
				 M9.49,8.87c0.3-0.23,0.63-0.22,1,0.05c0.33,0.27,0.5,0.6,0.5,1c0,0.4-0.02,0.6-0.05,0.6l-0.6,0.1
				C9.71,10.36,9.42,9.77,9.49,8.87z M17.59,6.92v0.1l-0.5,0.2l-0.5-0.35l-0.05,0.05v-0.1c-0.03-0.07-0.05-0.18-0.05-0.35
				c0-0.27,0.12-0.42,0.35-0.45h0.6l0.2,0.5L17.59,6.92z M15.64,10.52l0.2,0.1l0.5-0.1c0.1-0.1,0.15,0.03,0.15,0.4
				c0,0.43-0.02,0.55-0.05,0.35c-0.07,0.1-0.27,0.22-0.6,0.35c-0.27-0.07-0.42-0.12-0.45-0.15c-0.1-0.07-0.15-0.25-0.15-0.55
				c0-0.23,0.12-0.37,0.35-0.4H15.64z M5.29,5.17C5.26,5.14,5.24,4.99,5.24,4.72s0.12-0.42,0.35-0.45h0.6c0.2,0.33,0.3,0.53,0.3,0.6
				l-0.15,0.4l-0.5,0.2l-0.5-0.35L5.29,5.17z M5.59,8.72c-0.4-0.43-0.6-0.72-0.6-0.85c0-0.5,0.37-0.7,1.1-0.6
				c0.1-0.03,0.15,0.17,0.15,0.6c0,0.4-0.02,0.6-0.05,0.6L5.59,8.72z M11.74,13.62c-0.47,0-0.77-0.12-0.9-0.35
				c-0.07-0.1-0.1-0.35-0.1-0.75c0.37-0.1,0.98-0.1,1.85,0l0.1,0.05c0.03,0,0.05,0.12,0.05,0.35c0,0.43-0.02,0.6-0.05,0.5
				C12.63,13.42,12.31,13.49,11.74,13.62z"/>
			<path fill-rule="evenodd" clip-rule="evenodd" fill="#3C3C3C" d="M28.84,26.12c-0.27-0.07-0.47-0.18-0.6-0.35
				c-0.03,0.2-0.05,0.08-0.05-0.35c0-0.27,0.08-0.43,0.25-0.5c0.07-0.03,0.2-0.05,0.4-0.05c0.33,0.2,0.53,0.37,0.6,0.5
				c0,0.17-0.07,0.35-0.2,0.55L28.84,26.12z M24.69,28.68c0-0.27,0.08-0.43,0.25-0.5c0.07-0.03,0.2-0.05,0.4-0.05
				c0.33,0.2,0.53,0.37,0.6,0.5c0,0.17-0.07,0.35-0.2,0.55l-0.4,0.2c-0.27-0.07-0.47-0.18-0.6-0.35
				C24.71,29.22,24.69,29.11,24.69,28.68z M23.09,29.37c-0.47-0.4-0.7-0.63-0.7-0.7c0-0.43,0.4-0.57,1.2-0.4
				c0,0.1,0.02,0.23,0.05,0.4c0,0.43-0.02,0.6-0.05,0.5L23.09,29.37z M20.44,29.87c-0.03-0.03-0.05-0.18-0.05-0.45
				c0-0.57,0.57-0.7,1.7-0.4c0,0.1,0.02,0.23,0.05,0.4c0,0.43-0.02,0.6-0.05,0.5c-0.1,0.13-0.35,0.2-0.75,0.2l-0.7-0.1
				C20.54,29.96,20.47,29.91,20.44,29.87z M19.04,42.27c-0.17-0.07-0.32-0.1-0.45-0.1c0.07-0.03,0.15-0.05,0.25-0.05
				C18.91,42.16,18.97,42.21,19.04,42.27z M13.84,27.68l-0.5,0.2c-0.23-0.07-0.4-0.18-0.5-0.35c-0.07,0.2-0.1,0.08-0.1-0.35
				c0-0.27,0.07-0.43,0.2-0.5c0.2,0,0.33-0.02,0.4-0.05c0.27,0.13,0.48,0.3,0.65,0.5C13.99,27.36,13.94,27.54,13.84,27.68z
				 M8.59,27.52c0.83,0,1.3,0.37,1.4,1.1c-0.03,0.07-0.08,0.17-0.15,0.3c-0.07,0.13-0.23,0.2-0.5,0.2c-0.57,0-0.85-0.32-0.85-0.95
				C8.49,27.97,8.53,27.76,8.59,27.52z"/>
			<path fill-rule="evenodd" clip-rule="evenodd" fill="#595959" d="M26.19,27.37c0,0.17-0.07,0.35-0.2,0.55l-0.4,0.2
				c-0.27-0.07-0.47-0.18-0.6-0.35c-0.03,0.2-0.05,0.08-0.05-0.35c0-0.27,0.08-0.43,0.25-0.5c0.07-0.03,0.2-0.05,0.4-0.05
				C25.93,27.07,26.12,27.24,26.19,27.37z M23.84,26.37c-0.47-0.4-0.7-0.63-0.7-0.7c0-0.43,0.4-0.57,1.2-0.4
				c0,0.1,0.03,0.23,0.1,0.4c0,0.43-0.03,0.6-0.1,0.5L23.84,26.37z M19.59,25.42l-0.5,0.2c-0.47-0.4-0.7-0.63-0.7-0.7
				c0-0.43,0.4-0.57,1.2-0.4c0,0.1,0.02,0.23,0.05,0.4C19.64,25.36,19.62,25.52,19.59,25.42z M19.09,28.68l-0.5,0.2
				c-0.47-0.4-0.7-0.63-0.7-0.7c0-0.43,0.4-0.57,1.2-0.4c0,0.1,0.02,0.23,0.05,0.4C19.14,28.61,19.12,28.77,19.09,28.68z
				 M11.84,28.37c-0.07,0-0.32,0.08-0.75,0.25c-0.4-0.4-0.6-0.67-0.6-0.8c0-0.53,0.45-0.71,1.35-0.55c0,0.1,0.05,0.23,0.15,0.4
				L11.84,28.37z"/>
			<path fill-rule="evenodd" clip-rule="evenodd" fill="#7E1B1B" d="M19.89,34.18c0.1-0.03,0.25-0.05,0.45-0.05
				c0.33,0.2,0.52,0.37,0.55,0.5c0,0.23-0.05,0.42-0.15,0.55c0.13,0.13,0,0.2-0.4,0.2c-0.27,0-0.43-0.02-0.5-0.05
				c0-0.1-0.03-0.18-0.1-0.25c-0.07,0.17-0.1,0.04-0.1-0.4C19.64,34.41,19.72,34.24,19.89,34.18z M25.94,36.12
				c0,0.3-0.2,0.55-0.6,0.75c-0.27-0.07-0.47-0.17-0.6-0.3l-0.05-0.4c0-0.07,0.08-0.17,0.25-0.3c0.13-0.13,0.27-0.22,0.4-0.25
				C25.68,35.82,25.87,35.99,25.94,36.12z M23.39,40.72c-0.07-0.07-0.12-0.12-0.15-0.15c-0.07,0.17-0.1,0.04-0.1-0.4
				c0-0.27,0.08-0.43,0.25-0.5c0.1-0.03,0.25-0.05,0.45-0.05c0.33,0.2,0.53,0.37,0.6,0.5c0,0.3-0.2,0.55-0.6,0.75
				c-0.1-0.03-0.18-0.05-0.25-0.05v-0.05C23.52,40.74,23.46,40.72,23.39,40.72z M21.09,38.12c-0.27,0-0.43-0.02-0.5-0.05
				c0-0.1-0.03-0.18-0.1-0.25c-0.07,0.17-0.1,0.04-0.1-0.4c0-0.27,0.08-0.43,0.25-0.5c0.1-0.03,0.25-0.05,0.45-0.05
				c0.33,0.2,0.52,0.37,0.55,0.5c0,0.23-0.05,0.42-0.15,0.55C21.62,38.06,21.49,38.12,21.09,38.12z M18.64,43.37
				c0.3-0.03,0.45-0.1,0.45-0.2c0.03,0.1,0.05-0.05,0.05-0.45c-0.03-0.2-0.05-0.35-0.05-0.45c0.17,0.13,0.27,0.25,0.3,0.35
				c0,0.23-0.05,0.42-0.15,0.55c0.13,0.13,0,0.2-0.4,0.2C18.77,43.37,18.71,43.37,18.64,43.37z M20.64,43.37c0.07,0,0.13,0,0.2,0
				c0.4,0,0.53-0.07,0.4-0.2c0.07-0.07,0.12-0.15,0.15-0.25c0.3,0.17,0.47,0.32,0.5,0.45c0,0.23-0.05,0.42-0.15,0.55
				c0.13,0.13,0,0.2-0.4,0.2c-0.27,0-0.43-0.02-0.5-0.05c0-0.1-0.03-0.18-0.1-0.25c-0.07,0.17-0.1,0.04-0.1-0.4V43.37z M11.69,36.18
				c0.2,0,0.33-0.02,0.4-0.05c0.27,0.13,0.48,0.3,0.65,0.5c0,0.23-0.05,0.42-0.15,0.55l-0.5,0.2c-0.27-0.07-0.43-0.12-0.5-0.15
				c-0.07-0.07-0.1-0.25-0.1-0.55C11.49,36.41,11.56,36.24,11.69,36.18z M15.74,38.57c0-0.57,0.37-0.75,1.1-0.55l0.1,0.1
				c0.03,0.03,0.05,0.18,0.05,0.45c0,0.4-0.02,0.58-0.05,0.55l-0.6,0.25C15.94,38.97,15.74,38.71,15.74,38.57z M13.69,41.62
				l-0.6,0.25c-0.4-0.37-0.6-0.63-0.6-0.8c0-0.57,0.37-0.75,1.1-0.55l0.1,0.1c0.03,0.03,0.05,0.18,0.05,0.45
				C13.74,41.47,13.72,41.66,13.69,41.62z M15.84,43.12c0.27,0.13,0.48,0.3,0.65,0.5c0,0.23-0.05,0.42-0.15,0.55l-0.5,0.2
				c-0.27-0.07-0.43-0.12-0.5-0.15c-0.07-0.07-0.1-0.25-0.1-0.55c0-0.27,0.07-0.43,0.2-0.5C15.64,43.18,15.78,43.16,15.84,43.12z"/>
			<path fill-rule="evenodd" clip-rule="evenodd" fill="#AF2525" d="M23.39,40.72c0.07,0,0.13,0.02,0.2,0.05v0.05
				c0,0.1,0.02,0.23,0.05,0.4c0,0.4-0.02,0.55-0.05,0.45c0,0.07-0.07,0.12-0.2,0.15c0.13,0.1,0.22,0.2,0.25,0.3
				c0,0.23-0.05,0.42-0.15,0.55c0.13,0.13,0,0.2-0.4,0.2c-0.27,0-0.43-0.02-0.5-0.05c0-0.1-0.03-0.18-0.1-0.25
				c-0.07,0.17-0.1,0.04-0.1-0.4c0-0.13,0.04-0.25,0.1-0.35h-0.05c-0.03-0.03-0.1-0.12-0.2-0.25c-0.07,0.17-0.1,0.04-0.1-0.4
				c0-0.2,0.15-0.35,0.45-0.45C22.82,40.62,23.09,40.62,23.39,40.72z M21.59,39.37c0.33,0.2,0.52,0.37,0.55,0.5
				c0,0.23-0.05,0.42-0.15,0.55c0.13,0.13,0,0.2-0.4,0.2c-0.27,0-0.43-0.02-0.5-0.05c0-0.1-0.03-0.18-0.1-0.25
				c-0.07,0.17-0.1,0.04-0.1-0.4c0-0.27,0.08-0.43,0.25-0.5C21.24,39.39,21.39,39.37,21.59,39.37z M18.89,38.18
				c0-0.27,0.08-0.43,0.25-0.5c0.1-0.03,0.25-0.05,0.45-0.05c0.33,0.2,0.52,0.37,0.55,0.5c0,0.23-0.05,0.42-0.15,0.55
				c0.13,0.13,0,0.2-0.4,0.2c-0.27,0-0.43-0.02-0.5-0.05c0-0.1-0.03-0.18-0.1-0.25C18.93,38.74,18.89,38.61,18.89,38.18z
				 M18.64,43.37c-0.07,0-0.13,0-0.2,0c-0.27,0-0.43-0.02-0.5-0.05c-0.03-0.03-0.1-0.12-0.2-0.25c-0.07,0.17-0.1,0.04-0.1-0.4
				c0-0.2,0.15-0.35,0.45-0.45c0.17-0.07,0.33-0.08,0.5-0.05c0.13,0,0.28,0.03,0.45,0.1h0.05c0,0.1,0.02,0.25,0.05,0.45
				c0,0.4-0.02,0.55-0.05,0.45C19.09,43.27,18.94,43.34,18.64,43.37z M21.39,42.93c-0.03,0.1-0.08,0.18-0.15,0.25
				c0.13,0.13,0,0.2-0.4,0.2c-0.07,0-0.13,0-0.2,0c-0.17,0-0.27-0.02-0.3-0.05c0-0.1-0.03-0.18-0.1-0.25
				c-0.07,0.17-0.1,0.04-0.1-0.4c0-0.27,0.08-0.43,0.25-0.5c0.1-0.03,0.25-0.05,0.45-0.05c0.33,0.2,0.52,0.37,0.55,0.5
				C21.39,42.72,21.39,42.82,21.39,42.93z M19.39,43.43c0.1-0.03,0.25-0.05,0.45-0.05c0.33,0.2,0.52,0.37,0.55,0.5
				c0,0.23-0.05,0.42-0.15,0.55c0.13,0.13,0,0.2-0.4,0.2c-0.27,0-0.43-0.02-0.5-0.05c0-0.1-0.03-0.18-0.1-0.25
				c-0.07,0.17-0.1,0.04-0.1-0.4C19.14,43.66,19.22,43.49,19.39,43.43z M17.34,35.37c-0.27-0.07-0.43-0.12-0.5-0.15
				c-0.07-0.07-0.1-0.25-0.1-0.55c0-0.27,0.07-0.43,0.2-0.5c0.2,0,0.33-0.02,0.4-0.05c0.33,0.2,0.52,0.37,0.55,0.5
				c0,0.23-0.05,0.42-0.15,0.55C17.64,35.27,17.51,35.34,17.34,35.37z M14.94,36.18c0.2,0,0.33-0.02,0.4-0.05
				c0.27,0.13,0.48,0.3,0.65,0.5c0,0.23-0.05,0.42-0.15,0.55l-0.5,0.2c-0.27-0.07-0.43-0.12-0.5-0.15c-0.07-0.07-0.1-0.25-0.1-0.55
				C14.74,36.41,14.81,36.24,14.94,36.18z M15.84,41.12c-0.27-0.07-0.43-0.12-0.5-0.15c-0.07-0.07-0.1-0.25-0.1-0.55
				c0-0.27,0.07-0.43,0.2-0.5c0.2,0,0.33-0.02,0.4-0.05c0.27,0.13,0.48,0.3,0.65,0.5c0,0.23-0.05,0.42-0.15,0.55L15.84,41.12z
				 M15.99,41.93c0.17-0.6,0.62-0.73,1.35-0.4l0.1,0.05c0.03,0,0.05,0.13,0.05,0.4c0,0.4-0.02,0.55-0.05,0.45
				c-0.07,0.13-0.3,0.2-0.7,0.2c-0.43,0-0.65-0.03-0.65-0.1L15.99,41.93z"/>
		</g>
	</g>
</g>
</svg>
