<?xml version="1.0" encoding="utf-8"?>
<!-- Generator: Adobe Illustrator 16.0.0, SVG Export Plug-In . SVG Version: 6.00 Build 0)  -->
<!DOCTYPE svg PUBLIC "-//W3C//DTD SVG 1.1//EN" "http://www.w3.org/Graphics/SVG/1.1/DTD/svg11.dtd">
<svg version="1.1" id="Layer_5" xmlns="http://www.w3.org/2000/svg" xmlns:xlink="http://www.w3.org/1999/xlink" x="0px" y="0px"
	 width="35.67px" height="50.17px" viewBox="0 0 35.67 50.17" enable-background="new 0 0 35.67 50.17" xml:space="preserve">
<g>
	<g>
		<g>
			<linearGradient id="SVGID_1_" gradientUnits="userSpaceOnUse" x1="24.2456" y1="40.6831" x2="25.9206" y2="40.6831">
				<stop  offset="0" style="stop-color:#000000;stop-opacity:0.502"/>
				<stop  offset="1" style="stop-color:#000000;stop-opacity:0"/>
			</linearGradient>
			<polygon fill-rule="evenodd" clip-rule="evenodd" fill="url(#SVGID_1_)" points="26.88,32.68 26.88,48.68 24.58,46.53 
				11.78,46.53 11.78,34.78 11.98,34.78 24.58,34.78 			"/>
			<linearGradient id="SVGID_2_" gradientUnits="userSpaceOnUse" x1="18.3833" y1="46.2339" x2="18.3833" y2="48.0339">
				<stop  offset="0" style="stop-color:#000000;stop-opacity:0.502"/>
				<stop  offset="1" style="stop-color:#000000;stop-opacity:0"/>
			</linearGradient>
			<polygon fill-rule="evenodd" clip-rule="evenodd" fill="url(#SVGID_2_)" points="26.88,48.68 9.88,48.68 11.78,46.53 
				24.58,46.53 			"/>
			<linearGradient id="SVGID_3_" gradientUnits="userSpaceOnUse" x1="18.3081" y1="34.6831" x2="18.3081" y2="33.1831">
				<stop  offset="0" style="stop-color:#000000;stop-opacity:0.502"/>
				<stop  offset="1" style="stop-color:#000000;stop-opacity:0"/>
			</linearGradient>
			<polygon fill-rule="evenodd" clip-rule="evenodd" fill="url(#SVGID_3_)" points="9.73,32.93 9.73,32.73 26.88,32.68 24.58,34.78 
				11.98,34.78 			"/>
			<linearGradient id="SVGID_4_" gradientUnits="userSpaceOnUse" x1="11.6333" y1="40.9087" x2="10.0333" y2="40.9087">
				<stop  offset="0" style="stop-color:#000000;stop-opacity:0.502"/>
				<stop  offset="1" style="stop-color:#000000;stop-opacity:0"/>
			</linearGradient>
			<polygon fill-rule="evenodd" clip-rule="evenodd" fill="url(#SVGID_4_)" points="11.78,46.53 9.88,48.68 9.78,48.88 9.73,32.93 
				11.98,34.78 11.78,34.78 			"/>
		</g>
	</g>
	<g>
		<g>
			<linearGradient id="SVGID_5_" gradientUnits="userSpaceOnUse" x1="17.8589" y1="1.7583" x2="17.8589" y2="30.0083">
				<stop  offset="0" style="stop-color:#D52B2B"/>
				<stop  offset="1" style="stop-color:#A82424"/>
			</linearGradient>
			<polygon fill-rule="evenodd" clip-rule="evenodd" fill="url(#SVGID_5_)" points="33.78,22.43 31.28,22.43 1.93,22.43 2.08,1.68 
				32.13,1.68 			"/>
			<linearGradient id="SVGID_6_" gradientUnits="userSpaceOnUse" x1="17.8589" y1="1.7583" x2="17.8589" y2="30.0083">
				<stop  offset="0" style="stop-color:#D52B2B"/>
				<stop  offset="1" style="stop-color:#A82424"/>
			</linearGradient>
			<polygon fill-rule="evenodd" clip-rule="evenodd" fill="url(#SVGID_6_)" points="33.78,22.43 31.28,22.43 1.93,22.43 2.08,1.68 
				32.13,1.68 			"/>
			<polygon fill-rule="evenodd" clip-rule="evenodd" fill="#941F1F" points="30.38,31.33 5.63,31.33 1.93,22.43 31.28,22.43 
				33.78,22.43 			"/>
			<polygon fill-rule="evenodd" clip-rule="evenodd" fill="#941F1F" points="30.38,31.33 5.63,31.33 1.93,22.43 31.28,22.43 
				33.78,22.43 			"/>
			<polygon fill-rule="evenodd" clip-rule="evenodd" fill="#4A4949" points="5.63,31.33 30.38,31.33 24.18,46.43 11.93,46.43 			"/>
			<polygon fill-rule="evenodd" clip-rule="evenodd" fill="#4A4949" points="5.63,31.33 30.38,31.33 24.18,46.43 11.93,46.43 			"/>
		</g>
	</g>
	<g>
		<path fill-rule="evenodd" clip-rule="evenodd" fill="#FFFFFF" fill-opacity="0.502" d="M33.93,22.13c0,0.03-0.02,0.07-0.05,0.1
			s-0.07,0.05-0.1,0.05L1.93,22.33c-0.03,0-0.07-0.02-0.1-0.05c-0.03-0.03-0.03-0.07,0-0.1c-0.03-0.03-0.03-0.07,0-0.1
			s0.07-0.03,0.1,0l31.85-0.05c0.03-0.03,0.07-0.03,0.1,0C33.92,22.07,33.93,22.1,33.93,22.13z"/>
	</g>
	<g>
		<g>
			<path fill-rule="evenodd" clip-rule="evenodd" fill="#AF2525" d="M29.93,4.03l-0.1,0.5c0,0.13-0.22,0.2-0.65,0.2
				c-0.23,0-0.4-0.03-0.5-0.1c-0.07-0.1-0.13-0.18-0.2-0.25v0.05c-0.03-0.03-0.05-0.18-0.05-0.45c0-0.5,0.47-0.65,1.4-0.45
				C29.9,3.43,29.93,3.6,29.93,4.03z M30.08,10.28c0,0.13-0.22,0.2-0.65,0.2c-0.23,0-0.4-0.03-0.5-0.1c-0.07-0.1-0.13-0.18-0.2-0.25
				c-0.03,0.17-0.05,0.03-0.05-0.4c0-0.5,0.47-0.65,1.4-0.45c0.07-0.1,0.1,0.07,0.1,0.5C30.18,10.18,30.15,10.35,30.08,10.28z
				 M28.48,11.93l-0.4,0.2c-0.27-0.07-0.47-0.18-0.6-0.35c-0.03,0.2-0.05,0.08-0.05-0.35c0-0.27,0.08-0.43,0.25-0.5
				c0.07-0.03,0.2-0.05,0.4-0.05c0.33,0.2,0.53,0.37,0.6,0.5C28.68,11.55,28.62,11.73,28.48,11.93z M22.88,5.83
				c0.1-0.1,0.17-0.2,0.2-0.3l0.05,0.1V5.28c0-0.27-0.02-0.4-0.05-0.4c-0.1-0.03-0.17-0.05-0.2-0.05c0.07-0.03,0.13-0.07,0.2-0.1
				c0.27-0.07,0.6-0.05,1,0.05c0.03-0.1,0.05,0.07,0.05,0.5l-0.05,0.5c0,0.13-0.22,0.2-0.65,0.2c-0.27,0-0.43-0.03-0.5-0.1
				C22.93,5.85,22.92,5.83,22.88,5.83z M26.83,5.03c0.07-0.1,0.1,0.07,0.1,0.5l-0.1,0.5l-0.5,0.2l-0.6-0.35v0.05
				c-0.03-0.03-0.05-0.18-0.05-0.45s0.13-0.42,0.4-0.45H26.83z M19.13,4.78v0.35l-0.05-0.1c-0.07,0.2-0.23,0.35-0.5,0.45
				c-0.37-0.3-0.6-0.62-0.7-0.95c0.23-0.17,0.55-0.25,0.95-0.25c0.03,0.03,0.12,0.07,0.25,0.1C19.12,4.38,19.13,4.52,19.13,4.78z
				 M23.58,9.28c-0.4,0-0.72,0.08-0.95,0.25c0.1,0.33,0.32,0.63,0.65,0.9c-0.13,0.03-0.28,0.05-0.45,0.05
				c-0.33,0-0.62-0.12-0.85-0.35c-0.07,0.17-0.1,0.03-0.1-0.4C21.88,9.23,22.45,9.08,23.58,9.28z M23.63,12.93
				c0,0.43-0.02,0.6-0.05,0.5l-0.5,0.2c-0.47-0.4-0.7-0.63-0.7-0.7c0-0.43,0.4-0.57,1.2-0.4C23.62,12.4,23.63,12.53,23.63,12.93z
				 M19.83,17.53c0,0.1,0.02,0.23,0.05,0.4c0,0.43-0.02,0.6-0.05,0.5l-0.5,0.2c-0.47-0.4-0.7-0.63-0.7-0.7
				C18.63,17.5,19.03,17.37,19.83,17.53z M26.18,27.38c0,0.17-0.07,0.35-0.2,0.55l-0.4,0.2c-0.27-0.07-0.47-0.18-0.6-0.35
				c-0.03,0.2-0.05,0.08-0.05-0.35c0-0.27,0.08-0.43,0.25-0.5c0.07-0.03,0.2-0.05,0.4-0.05C25.92,27.08,26.12,27.25,26.18,27.38z
				 M24.33,26.18l-0.5,0.2c-0.47-0.4-0.7-0.63-0.7-0.7c0-0.43,0.4-0.57,1.2-0.4c0,0.1,0.03,0.23,0.1,0.4
				C24.43,26.12,24.4,26.28,24.33,26.18z M18.38,24.93c0-0.43,0.4-0.57,1.2-0.4c0,0.1,0.02,0.23,0.05,0.4c0,0.43-0.02,0.6-0.05,0.5
				l-0.5,0.2C18.62,25.23,18.38,25,18.38,24.93z M19.08,28.68l-0.5,0.2c-0.47-0.4-0.7-0.63-0.7-0.7c0-0.43,0.4-0.57,1.2-0.4
				c0,0.1,0.02,0.23,0.05,0.4C19.13,28.62,19.12,28.78,19.08,28.68z M14.83,5.23c-0.4-0.43-0.6-0.72-0.6-0.85
				c0-0.3,0.1-0.48,0.3-0.55c0.2-0.07,0.63-0.08,1.3-0.05c0.1,0.3,0.15,0.47,0.15,0.5l-0.15,0.6C15.77,4.88,15.43,5,14.83,5.23z
				 M9.78,5.98c-0.03-0.07-0.07-0.13-0.1-0.2H9.53c-0.17-0.13-0.27-0.23-0.3-0.3c0-0.07,0.02-0.12,0.05-0.15l0.05-0.05l0.15-0.4
				c0.13-0.1,0.32-0.15,0.55-0.15c0.47,0,0.87,0.25,1.2,0.75c-0.07,0.1-0.18,0.27-0.35,0.5c-0.13,0.17-0.27,0.25-0.4,0.25
				C10.28,6.23,10.05,6.15,9.78,5.98z M10.48,8.93c-0.37-0.27-0.7-0.28-1-0.05C9.45,8.82,9.4,8.73,9.33,8.63
				c-0.07,0.17-0.1,0.03-0.1-0.4c0-0.53,0.45-0.68,1.35-0.45c0.1-0.1,0.15,0.07,0.15,0.5c0,0.4-0.02,0.57-0.05,0.5
				c-0.03,0-0.08,0.03-0.15,0.1C10.5,8.88,10.48,8.9,10.48,8.93z M8.33,11.38c0.27,0.13,0.48,0.3,0.65,0.5
				c0,0.23-0.05,0.42-0.15,0.55l-0.5,0.2c-0.23-0.07-0.4-0.18-0.5-0.35c-0.07,0.2-0.1,0.08-0.1-0.35c0-0.27,0.07-0.43,0.2-0.5
				C8.13,11.43,8.27,11.42,8.33,11.38z M16.53,6.83v0.1l0.05-0.05l0.5,0.35l0.5-0.2v-0.1l0.05,0.1l-0.05,0.5l-0.5,0.2l-0.5-0.35
				l-0.05,0.05c-0.03-0.03-0.05-0.18-0.05-0.45C16.48,6.92,16.5,6.87,16.53,6.83z M15.18,8.53c0.2,0.33,0.3,0.53,0.3,0.6l-0.15,0.4
				l-0.5,0.2l-0.5-0.35c-0.07,0.17-0.1,0.03-0.1-0.4c0-0.27,0.12-0.42,0.35-0.45H15.18z M3.83,4.88L3.78,4.93
				C3.75,4.9,3.73,4.75,3.73,4.48s0.12-0.42,0.35-0.45h0.6c0.2,0.33,0.3,0.53,0.3,0.6l-0.15,0.4l-0.5,0.2L3.83,4.88z M6.68,10.23
				l-0.6,0.25c-0.4-0.43-0.6-0.72-0.6-0.85c0-0.5,0.37-0.7,1.1-0.6C6.68,9,6.73,9.2,6.73,9.63C6.73,10.03,6.72,10.23,6.68,10.23z
				 M10.48,27.83c0-0.53,0.45-0.72,1.35-0.55c0,0.1,0.05,0.23,0.15,0.4l-0.15,0.7c-0.07,0-0.32,0.08-0.75,0.25
				C10.68,28.23,10.48,27.97,10.48,27.83z"/>
			<path fill-rule="evenodd" clip-rule="evenodd" fill="#D63A3A" d="M29.48,5.68c-0.03-0.03-0.05-0.18-0.05-0.45s0.13-0.42,0.4-0.45
				h0.75c0.07-0.1,0.1,0.07,0.1,0.5l-0.1,0.5l-0.5,0.2l-0.6-0.35V5.68z M28.93,8.38c-0.07-0.1-0.13-0.18-0.2-0.25
				c-0.03,0.17-0.05,0.03-0.05-0.4c0-0.5,0.47-0.65,1.4-0.45c0.07-0.1,0.1,0.07,0.1,0.5c0,0.4-0.03,0.57-0.1,0.5
				c0,0.13-0.22,0.2-0.65,0.2C29.2,8.48,29.03,8.45,28.93,8.38z M22.88,4.83c0.03,0,0.1,0.02,0.2,0.05c0.03,0,0.05,0.13,0.05,0.4
				v0.35l-0.05-0.1c-0.03,0.1-0.1,0.2-0.2,0.3c-0.07,0.07-0.17,0.12-0.3,0.15c-0.37-0.3-0.6-0.62-0.7-0.95
				c0.23-0.17,0.55-0.25,0.95-0.25L22.88,4.83z M21.38,8.38c0,0.4-0.02,0.6-0.05,0.6l-0.5,0.25l-0.95-0.7
				c-0.03-0.37,0.1-0.6,0.4-0.7c0.17-0.07,0.52-0.08,1.05-0.05C21.37,7.75,21.38,7.95,21.38,8.38z M19.38,8.28
				c0,0.4-0.02,0.48-0.05,0.25c-0.07,0.2-0.23,0.35-0.5,0.45c-0.37-0.3-0.6-0.62-0.7-0.95c0.23-0.17,0.55-0.25,0.95-0.25
				c0.03,0.03,0.12,0.07,0.25,0.1C19.37,7.88,19.38,8.02,19.38,8.28z M23.28,10.43c-0.33-0.27-0.55-0.57-0.65-0.9
				c0.23-0.17,0.55-0.25,0.95-0.25l0.05,0.05c0.03,0,0.1,0.02,0.2,0.05c0.03,0,0.05,0.13,0.05,0.4c0,0.4-0.02,0.48-0.05,0.25
				c-0.07,0.2-0.23,0.35-0.5,0.45L23.28,10.43z M26.43,6.78l-0.1,0.5c0,0.13-0.22,0.2-0.65,0.2c-0.23,0-0.4-0.03-0.5-0.1
				c-0.07-0.1-0.13-0.18-0.2-0.25v0.05C24.95,7.15,24.93,7,24.93,6.73c0-0.5,0.47-0.65,1.4-0.45C26.4,6.18,26.43,6.35,26.43,6.78z
				 M25.68,8.78c0,0.43-0.28,0.75-0.85,0.95l-0.55-0.55c-0.1-0.1-0.15-0.2-0.15-0.3c0-0.5,0.48-0.7,1.45-0.6
				C25.65,8.18,25.68,8.35,25.68,8.78z M9.28,5.33L8.83,5.48l-0.5-0.35L8.28,5.18C8.25,5.15,8.23,5,8.23,4.73s0.12-0.42,0.35-0.45
				h0.6c0.2,0.33,0.3,0.53,0.3,0.6l-0.15,0.4L9.28,5.33z M9.53,5.78h0.15c0.03,0.07,0.07,0.13,0.1,0.2c0.13,0.2,0.2,0.33,0.2,0.4
				l-0.15,0.4l-0.5,0.2l-0.5-0.35L8.78,6.68C8.75,6.65,8.73,6.5,8.73,6.23s0.12-0.42,0.35-0.45H9.53z M9.48,8.88
				c0.3-0.23,0.63-0.22,1,0.05c0.33,0.27,0.5,0.6,0.5,1s-0.02,0.6-0.05,0.6l-0.6,0.1C9.7,10.37,9.42,9.78,9.48,8.88z M17.58,6.93
				v0.1l-0.5,0.2l-0.5-0.35l-0.05,0.05v-0.1c-0.03-0.07-0.05-0.18-0.05-0.35c0-0.27,0.12-0.42,0.35-0.45h0.6l0.2,0.5L17.58,6.93z
				 M15.63,10.53l0.2,0.1l0.5-0.1c0.1-0.1,0.15,0.03,0.15,0.4c0,0.43-0.02,0.55-0.05,0.35c-0.07,0.1-0.27,0.22-0.6,0.35
				c-0.27-0.07-0.42-0.12-0.45-0.15c-0.1-0.07-0.15-0.25-0.15-0.55c0-0.23,0.12-0.37,0.35-0.4H15.63z M5.33,5.13L5.28,5.18
				C5.25,5.15,5.23,5,5.23,4.73s0.12-0.42,0.35-0.45h0.6c0.2,0.33,0.3,0.53,0.3,0.6l-0.15,0.4l-0.5,0.2L5.33,5.13z M5.58,8.73
				c-0.4-0.43-0.6-0.72-0.6-0.85c0-0.5,0.37-0.7,1.1-0.6c0.1-0.03,0.15,0.17,0.15,0.6c0,0.4-0.02,0.6-0.05,0.6L5.58,8.73z"/>
			<path fill-rule="evenodd" clip-rule="evenodd" fill="#C52929" d="M27.73,14.68l-0.4,0.2c-0.27-0.07-0.47-0.18-0.6-0.35
				c-0.03,0.2-0.05,0.08-0.05-0.35c0-0.27,0.08-0.43,0.25-0.5c0.07-0.03,0.2-0.05,0.4-0.05c0.33,0.2,0.53,0.37,0.6,0.5
				C27.93,14.3,27.87,14.48,27.73,14.68z M19.58,13.43c-0.1,0.13-0.35,0.2-0.75,0.2c-0.43,0-0.67-0.03-0.7-0.1
				c-0.1-0.07-0.17-0.12-0.2-0.15c-0.03-0.03-0.05-0.18-0.05-0.45c0-0.57,0.57-0.7,1.7-0.4c0.03-0.13,0.05,0,0.05,0.4
				C19.63,13.37,19.62,13.53,19.58,13.43z M18.13,14.43c0-0.43,0.4-0.57,1.2-0.4c0,0.1,0.02,0.23,0.05,0.4c0,0.43-0.02,0.6-0.05,0.5
				l-0.5,0.2L18.13,14.43z M11.48,11.13c0.03,0,0.07-0.03,0.1-0.1c0.23-0.13,0.52-0.13,0.85,0c0.33,0.17,0.52,0.42,0.55,0.75
				c0,0.07-0.03,0.18-0.1,0.35c-0.1,0.17-0.28,0.25-0.55,0.25c-0.57,0-0.85-0.3-0.85-0.9V11.13z M15.43,8.03
				c-0.03,0-0.08,0.03-0.15,0.1c-0.13,0.07-0.32,0.1-0.55,0.1c-0.27,0-0.43-0.03-0.5-0.1c-0.03-0.07-0.08-0.15-0.15-0.25
				c-0.07,0.17-0.1,0.03-0.1-0.4c0-0.53,0.45-0.68,1.35-0.45c0.1-0.1,0.15,0.07,0.15,0.5C15.48,7.93,15.47,8.1,15.43,8.03z
				 M16.33,10.53l-0.5,0.1l-0.2-0.1l-0.3-0.15c-0.07,0.13-0.1,0-0.1-0.4c0-0.27,0.12-0.42,0.35-0.45h0.6c0.2,0.33,0.3,0.53,0.3,0.6
				L16.33,10.53z M3.08,13.38c-0.23-0.07-0.4-0.18-0.5-0.35c-0.07,0.2-0.1,0.08-0.1-0.35c0-0.27,0.07-0.43,0.2-0.5
				c0.2,0,0.33-0.02,0.4-0.05c0.27,0.13,0.48,0.3,0.65,0.5c0,0.23-0.05,0.42-0.15,0.55L3.08,13.38z M3.73,15.28
				c0.37-0.1,0.98-0.1,1.85,0l0.1,0.05c0.03,0,0.05,0.12,0.05,0.35c0,0.43-0.02,0.6-0.05,0.5c-0.07,0-0.38,0.07-0.95,0.2
				c-0.47,0-0.77-0.12-0.9-0.35C3.77,15.93,3.73,15.68,3.73,15.28z M13.83,15.68l-0.5,0.2c-0.23-0.07-0.4-0.18-0.5-0.35
				c-0.07,0.2-0.1,0.08-0.1-0.35c0-0.27,0.07-0.43,0.2-0.5c0.2,0,0.33-0.02,0.4-0.05c0.27,0.13,0.48,0.3,0.65,0.5
				C13.98,15.37,13.93,15.55,13.83,15.68z M10.83,13.28c-0.07-0.1-0.1-0.35-0.1-0.75c0.37-0.1,0.98-0.1,1.85,0l0.1,0.05
				c0.03,0,0.05,0.12,0.05,0.35c0,0.43-0.02,0.6-0.05,0.5c-0.07,0-0.38,0.07-0.95,0.2C11.27,13.63,10.97,13.52,10.83,13.28z"/>
			<path fill-rule="evenodd" clip-rule="evenodd" fill="#7E1B1B" d="M29.23,25.93l-0.4,0.2c-0.27-0.07-0.47-0.18-0.6-0.35
				c-0.03,0.2-0.05,0.08-0.05-0.35c0-0.27,0.08-0.43,0.25-0.5c0.07-0.03,0.2-0.05,0.4-0.05c0.33,0.2,0.53,0.37,0.6,0.5
				C29.43,25.55,29.37,25.73,29.23,25.93z M24.73,29.03c-0.03,0.2-0.05,0.08-0.05-0.35c0-0.27,0.08-0.43,0.25-0.5
				c0.07-0.03,0.2-0.05,0.4-0.05c0.33,0.2,0.53,0.37,0.6,0.5c0,0.17-0.07,0.35-0.2,0.55l-0.4,0.2
				C25.07,29.32,24.87,29.2,24.73,29.03z M23.58,29.18l-0.5,0.2c-0.47-0.4-0.7-0.63-0.7-0.7c0-0.43,0.4-0.57,1.2-0.4
				c0,0.1,0.02,0.23,0.05,0.4C23.63,29.12,23.62,29.28,23.58,29.18z M20.63,30.03c-0.1-0.07-0.17-0.12-0.2-0.15
				c-0.03-0.03-0.05-0.18-0.05-0.45c0-0.57,0.57-0.7,1.7-0.4c0,0.1,0.02,0.23,0.05,0.4c0,0.43-0.02,0.6-0.05,0.5
				c-0.1,0.13-0.35,0.2-0.75,0.2L20.63,30.03z M12.83,27.53c-0.07,0.2-0.1,0.08-0.1-0.35c0-0.27,0.07-0.43,0.2-0.5
				c0.2,0,0.33-0.02,0.4-0.05c0.27,0.13,0.48,0.3,0.65,0.5c0,0.23-0.05,0.42-0.15,0.55l-0.5,0.2C13.1,27.82,12.93,27.7,12.83,27.53z
				 M9.83,28.93c-0.07,0.13-0.23,0.2-0.5,0.2c-0.57,0-0.85-0.32-0.85-0.95c0-0.2,0.03-0.42,0.1-0.65c0.83,0,1.3,0.37,1.4,1.1
				C9.95,28.7,9.9,28.8,9.83,28.93z"/>
			<path fill-rule="evenodd" clip-rule="evenodd" fill="#3C3C3C" d="M19.63,34.68c0-0.27,0.08-0.43,0.25-0.5
				c0.1-0.03,0.25-0.05,0.45-0.05c0.33,0.2,0.52,0.37,0.55,0.5c0,0.23-0.05,0.42-0.15,0.55c0.13,0.13,0,0.2-0.4,0.2
				c-0.27,0-0.43-0.02-0.5-0.05c0-0.1-0.03-0.18-0.1-0.25C19.67,35.25,19.63,35.12,19.63,34.68z M25.33,35.63
				c0.33,0.2,0.53,0.37,0.6,0.5c0,0.3-0.2,0.55-0.6,0.75c-0.27-0.07-0.47-0.17-0.6-0.3l-0.05-0.4c0-0.07,0.08-0.17,0.25-0.3
				C25.07,35.75,25.2,35.67,25.33,35.63z M23.38,40.73c-0.07-0.07-0.12-0.12-0.15-0.15c-0.07,0.17-0.1,0.03-0.1-0.4
				c0-0.27,0.08-0.43,0.25-0.5c0.1-0.03,0.25-0.05,0.45-0.05c0.33,0.2,0.53,0.37,0.6,0.5c0,0.3-0.2,0.55-0.6,0.75
				c-0.1-0.03-0.18-0.05-0.25-0.05v-0.05C23.52,40.75,23.45,40.73,23.38,40.73z M20.63,36.93c0.1-0.03,0.25-0.05,0.45-0.05
				c0.33,0.2,0.52,0.37,0.55,0.5c0,0.23-0.05,0.42-0.15,0.55c0.13,0.13,0,0.2-0.4,0.2c-0.27,0-0.43-0.02-0.5-0.05
				c0-0.1-0.03-0.18-0.1-0.25c-0.07,0.17-0.1,0.03-0.1-0.4C20.38,37.17,20.47,37,20.63,36.93z M18.58,42.18
				c0.07-0.03,0.15-0.05,0.25-0.05c0.07,0.03,0.13,0.08,0.2,0.15C18.87,42.22,18.72,42.18,18.58,42.18z M18.63,43.38
				c0.3-0.03,0.45-0.1,0.45-0.2c0.03,0.1,0.05-0.05,0.05-0.45c-0.03-0.2-0.05-0.35-0.05-0.45c0.17,0.13,0.27,0.25,0.3,0.35
				c0,0.23-0.05,0.42-0.15,0.55c0.13,0.13,0,0.2-0.4,0.2C18.77,43.38,18.7,43.38,18.63,43.38z M20.63,43.38c0.07,0,0.13,0,0.2,0
				c0.4,0,0.53-0.07,0.4-0.2c0.07-0.07,0.12-0.15,0.15-0.25c0.3,0.17,0.47,0.32,0.5,0.45c0,0.23-0.05,0.42-0.15,0.55
				c0.13,0.13,0,0.2-0.4,0.2c-0.27,0-0.43-0.02-0.5-0.05c0-0.1-0.03-0.18-0.1-0.25c-0.07,0.17-0.1,0.03-0.1-0.4V43.38z M12.73,36.63
				c0,0.23-0.05,0.42-0.15,0.55l-0.5,0.2c-0.27-0.07-0.43-0.12-0.5-0.15c-0.07-0.07-0.1-0.25-0.1-0.55c0-0.27,0.07-0.43,0.2-0.5
				c0.2,0,0.33-0.02,0.4-0.05C12.35,36.27,12.57,36.43,12.73,36.63z M16.33,39.38c-0.4-0.4-0.6-0.67-0.6-0.8
				c0-0.57,0.37-0.75,1.1-0.55l0.1,0.1c0.03,0.03,0.05,0.18,0.05,0.45c0,0.4-0.02,0.58-0.05,0.55L16.33,39.38z M13.73,41.08
				c0,0.4-0.02,0.58-0.05,0.55l-0.6,0.25c-0.4-0.37-0.6-0.63-0.6-0.8c0-0.57,0.37-0.75,1.1-0.55l0.1,0.1
				C13.72,40.67,13.73,40.82,13.73,41.08z M15.43,43.18c0.2,0,0.33-0.02,0.4-0.05c0.27,0.13,0.48,0.3,0.65,0.5
				c0,0.23-0.05,0.42-0.15,0.55l-0.5,0.2c-0.27-0.07-0.43-0.12-0.5-0.15c-0.07-0.07-0.1-0.25-0.1-0.55
				C15.23,43.42,15.3,43.25,15.43,43.18z"/>
			<path fill-rule="evenodd" clip-rule="evenodd" fill="#848484" d="M23.38,41.83c-0.1,0.03-0.25,0.05-0.45,0.05
				c-0.23,0-0.38-0.02-0.45-0.05h-0.05c-0.03-0.03-0.1-0.12-0.2-0.25c-0.07,0.17-0.1,0.03-0.1-0.4c0-0.2,0.15-0.35,0.45-0.45
				c0.23-0.1,0.5-0.1,0.8,0c0.07,0,0.13,0.02,0.2,0.05v0.05c0,0.1,0.02,0.23,0.05,0.4c0,0.4-0.02,0.55-0.05,0.45
				C23.58,41.75,23.52,41.8,23.38,41.83z M19.38,43.43c0.1-0.03,0.25-0.05,0.45-0.05c0.33,0.2,0.52,0.37,0.55,0.5
				c0,0.23-0.05,0.42-0.15,0.55c0.13,0.13,0,0.2-0.4,0.2c-0.27,0-0.43-0.02-0.5-0.05c0-0.1-0.03-0.18-0.1-0.25
				c-0.07,0.17-0.1,0.03-0.1-0.4C19.13,43.67,19.22,43.5,19.38,43.43z"/>
			<path fill-rule="evenodd" clip-rule="evenodd" fill="#595959" d="M22.48,41.83c0.07,0.03,0.22,0.05,0.45,0.05
				c0.2,0,0.35-0.02,0.45-0.05c0.13,0.1,0.22,0.2,0.25,0.3c0,0.23-0.05,0.42-0.15,0.55c0.13,0.13,0,0.2-0.4,0.2
				c-0.27,0-0.43-0.02-0.5-0.05c0-0.1-0.03-0.18-0.1-0.25c-0.07,0.17-0.1,0.03-0.1-0.4C22.38,42.05,22.42,41.93,22.48,41.83z
				 M21.58,39.38c0.33,0.2,0.52,0.37,0.55,0.5c0,0.23-0.05,0.42-0.15,0.55c0.13,0.13,0,0.2-0.4,0.2c-0.27,0-0.43-0.02-0.5-0.05
				c0-0.1-0.03-0.18-0.1-0.25c-0.07,0.17-0.1,0.03-0.1-0.4c0-0.27,0.08-0.43,0.25-0.5C21.23,39.4,21.38,39.38,21.58,39.38z
				 M18.98,38.58c-0.07,0.17-0.1,0.03-0.1-0.4c0-0.27,0.08-0.43,0.25-0.5c0.1-0.03,0.25-0.05,0.45-0.05c0.33,0.2,0.52,0.37,0.55,0.5
				c0,0.23-0.05,0.42-0.15,0.55c0.13,0.13,0,0.2-0.4,0.2c-0.27,0-0.43-0.02-0.5-0.05C19.08,38.73,19.05,38.65,18.98,38.58z
				 M18.63,43.38c-0.07,0-0.13,0-0.2,0c-0.27,0-0.43-0.02-0.5-0.05c-0.03-0.03-0.1-0.12-0.2-0.25c-0.07,0.17-0.1,0.03-0.1-0.4
				c0-0.2,0.15-0.35,0.45-0.45c0.17-0.07,0.33-0.08,0.5-0.05c0.13,0,0.28,0.03,0.45,0.1h0.05c0,0.1,0.02,0.25,0.05,0.45
				c0,0.4-0.02,0.55-0.05,0.45C19.08,43.28,18.93,43.35,18.63,43.38z M21.38,42.93c-0.03,0.1-0.08,0.18-0.15,0.25
				c0.13,0.13,0,0.2-0.4,0.2c-0.07,0-0.13,0-0.2,0c-0.17,0-0.27-0.02-0.3-0.05c0-0.1-0.03-0.18-0.1-0.25
				c-0.07,0.17-0.1,0.03-0.1-0.4c0-0.27,0.08-0.43,0.25-0.5c0.1-0.03,0.25-0.05,0.45-0.05c0.33,0.2,0.52,0.37,0.55,0.5
				C21.38,42.73,21.38,42.83,21.38,42.93z M17.33,34.13c0.33,0.2,0.52,0.37,0.55,0.5c0,0.23-0.05,0.42-0.15,0.55
				c-0.1,0.1-0.23,0.17-0.4,0.2c-0.27-0.07-0.43-0.12-0.5-0.15c-0.07-0.07-0.1-0.25-0.1-0.55c0-0.27,0.07-0.43,0.2-0.5
				C17.13,34.18,17.27,34.17,17.33,34.13z M15.98,36.63c0,0.23-0.05,0.42-0.15,0.55l-0.5,0.2c-0.27-0.07-0.43-0.12-0.5-0.15
				c-0.07-0.07-0.1-0.25-0.1-0.55c0-0.27,0.07-0.43,0.2-0.5c0.2,0,0.33-0.02,0.4-0.05C15.6,36.27,15.82,36.43,15.98,36.63z
				 M15.83,41.13c-0.27-0.07-0.43-0.12-0.5-0.15c-0.07-0.07-0.1-0.25-0.1-0.55c0-0.27,0.07-0.43,0.2-0.5c0.2,0,0.33-0.02,0.4-0.05
				c0.27,0.13,0.48,0.3,0.65,0.5c0,0.23-0.05,0.42-0.15,0.55L15.83,41.13z M15.98,41.93c0.17-0.6,0.62-0.73,1.35-0.4l0.1,0.05
				c0.03,0,0.05,0.13,0.05,0.4c0,0.4-0.02,0.55-0.05,0.45c-0.07,0.13-0.3,0.2-0.7,0.2c-0.43,0-0.65-0.03-0.65-0.1L15.98,41.93z"/>
		</g>
	</g>
</g>
</svg>
