<?xml version="1.0" encoding="utf-8"?>
<!-- Generator: Adobe Illustrator 16.0.0, SVG Export Plug-In . SVG Version: 6.00 Build 0)  -->
<!DOCTYPE svg PUBLIC "-//W3C//DTD SVG 1.1//EN" "http://www.w3.org/Graphics/SVG/1.1/DTD/svg11.dtd">
<svg version="1.1" id="Layer_2" xmlns="http://www.w3.org/2000/svg" xmlns:xlink="http://www.w3.org/1999/xlink" x="0px" y="0px"
	 width="163.67px" height="63.33px" viewBox="0 0 163.67 63.33" enable-background="new 0 0 163.67 63.33" xml:space="preserve">
<g>
	<g>
		<g>
			<path fill-rule="evenodd" clip-rule="evenodd" fill="#616161" d="M78.8,3.3c0.83-0.33,1.7-0.33,2.6,0c0.8,0.3,1.62,0.9,2.45,1.8
				v0.1l2.85,3.45l0.05,0.05c1.17,1.47,2.42,2.22,3.75,2.25h41.7c0.03,0,0.07,0,0.1,0c2.5,0.23,4,1.98,4.5,5.25c0,0.1,0,0.17,0,0.2
				v17.5c0,0.27-0.08,0.5-0.25,0.7c-0.17,0.23-0.37,0.38-0.6,0.45c-0.27,0.03-0.52,0-0.75-0.1c-0.3-0.1-0.48-0.28-0.55-0.55
				l-0.2-0.45l-0.35,21.2h-2.3l0.45-26.3c0-0.3,0.1-0.53,0.3-0.7c0.13-0.27,0.33-0.42,0.6-0.45c0.2-0.07,0.45-0.05,0.75,0.05
				c0.2,0.13,0.37,0.32,0.5,0.55l0.1,0.25V16.6c-0.27-1.97-1.08-3.05-2.45-3.25H90.5c-2.03,0-3.87-1.05-5.5-3.15l-2.85-3.45
				C81.62,6.18,81.13,5.8,80.7,5.6c-0.43-0.17-0.83-0.17-1.2,0h-0.05c-0.53,0.2-1.07,0.63-1.6,1.3l-2.1,2.65
				c-1.47,2.53-3.62,3.8-6.45,3.8H24.5c-1.33,0.2-2.15,1.28-2.45,3.25v12l0.15-0.25c0.1-0.27,0.27-0.47,0.5-0.6
				c0.23-0.1,0.47-0.12,0.7-0.05c0.27,0.03,0.52,0.18,0.75,0.45c0.13,0.17,0.2,0.4,0.2,0.7l0.3,16H22.4L22.2,33.9l-0.25,0.5
				c-0.13,0.27-0.32,0.45-0.55,0.55c-0.27,0.1-0.5,0.13-0.7,0.1c-0.27-0.07-0.47-0.22-0.6-0.45c-0.2-0.2-0.3-0.43-0.3-0.7V16.4
				c0-0.03,0-0.1,0-0.2c0.5-3.27,2-5.02,4.5-5.25c0.03,0,0.07,0,0.1,0h44.9c2.03,0,3.55-0.9,4.55-2.7C73.88,8.18,73.93,8.13,74,8.1
				l2.2-2.8C77.03,4.27,77.9,3.6,78.8,3.3z"/>
		</g>
		<g>
			<line fill-rule="evenodd" clip-rule="evenodd" fill="none" x1="83.8" y1="6.65" x2="87.7" y2="10.95"/>
			<line fill-rule="evenodd" clip-rule="evenodd" fill="none" x1="73.3" y1="10.7" x2="75.95" y2="7.25"/>
			<path fill-rule="evenodd" clip-rule="evenodd" fill="none" d="M68.55,12.5c2.2-0.23,3.67-0.72,4.4-1.45"/>
			<path fill-rule="evenodd" clip-rule="evenodd" fill="none" d="M77.55,5.55c1.73-1.87,3.32-1.92,4.75-0.15"/>
			<line fill-rule="evenodd" clip-rule="evenodd" fill="none" x1="135.7" y1="16.3" x2="135.7" y2="28.55"/>
			<line fill-rule="evenodd" clip-rule="evenodd" fill="none" x1="90.6" y1="12.15" x2="133.55" y2="12.15"/>
			<line fill-rule="evenodd" clip-rule="evenodd" fill="none" x1="20.7" y1="17.5" x2="20.7" y2="25.9"/>
			<line fill-rule="evenodd" clip-rule="evenodd" fill="none" x1="22.25" y1="12.15" x2="65.2" y2="12.15"/>
		</g>
		<g>
			<path fill-rule="evenodd" clip-rule="evenodd" fill="#FFFFFF" d="M89.25,11.3c0,0.03,0,0.08,0,0.15
				c-0.77,0.37-1.03,0.18-0.8-0.55c0-0.1,0.03-0.15,0.1-0.15C88.92,10.85,89.15,11.03,89.25,11.3z M134.65,13.2c0,0.03,0,0.07,0,0.1
				c-0.87-0.27-1.1-0.7-0.7-1.3c0.07,0,0.1-0.03,0.1-0.1C134.65,12.17,134.85,12.6,134.65,13.2z M135.8,15
				c0.47,0.6,0.52,1.27,0.15,2c-0.07,0.07-0.12,0.12-0.15,0.15C135.27,16.45,135.27,15.73,135.8,15z M26.1,12.4
				c-0.43,0.37-0.78,0.27-1.05-0.3c-0.03-0.17,0.05-0.25,0.25-0.25c0.1-0.03,0.18-0.05,0.25-0.05h0.1c0.2-0.13,2.53-0.15,7-0.05
				c4.47,0.07,6.9,0.1,7.3,0.1l-8.1,0.25C29.95,13,28.03,13.1,26.1,12.4z"/>
		</g>
	</g>
	<g>
		<polygon fill-rule="evenodd" clip-rule="evenodd" fill="#5A5D63" points="84.85,30.65 9.2,30.65 7.4,28.75 81.6,28.75 		"/>
		<polygon fill-rule="evenodd" clip-rule="evenodd" fill="#C61C1C" points="155.55,30.65 84.85,30.65 81.6,28.75 149.3,28.75 		"/>
		<rect x="84.85" y="30.65" fill-rule="evenodd" clip-rule="evenodd" fill="#D82B2B" width="70.7" height="24.35"/>
		<polygon fill-rule="evenodd" clip-rule="evenodd" fill="#3C3D41" points="9.2,30.65 9.2,54.9 7.25,52.6 7.25,28.75 7.4,28.75 		
			"/>
		<polygon fill-rule="evenodd" clip-rule="evenodd" fill="#6B6C74" points="9.2,54.9 9.2,30.65 84.85,30.65 84.85,55 9.2,55 		"/>
	</g>
	<g>
		<polygon fill-rule="evenodd" clip-rule="evenodd" fill="#FFFFFF" fill-opacity="0.3255" points="9.45,30.8 9.2,30.8 9.2,30.65 
			53,30.65 155.55,30.65 155.55,30.8 53,30.8 		"/>
		<polygon fill-rule="evenodd" clip-rule="evenodd" fill="#FFFFFF" fill-opacity="0.3216" points="9.45,30.8 9.45,53.6 9.45,55 
			9.2,55 9.2,53.6 9.2,30.8 		"/>
	</g>
	<g>
		<path fill-rule="evenodd" clip-rule="evenodd" fill="#76787C" d="M70.5,31.85c-0.07,0.3-0.33,0.48-0.8,0.55
			c-0.3,0-0.55-0.1-0.75-0.3c-0.17-0.07-0.23-0.15-0.2-0.25C69.28,31.52,69.87,31.52,70.5,31.85z M67,34.7
			c0.13,0.13,0.17,0.27,0.1,0.4c-0.03,0.33-0.3,0.53-0.8,0.6c-0.23,0-0.45-0.1-0.65-0.3c-0.27-0.13-0.33-0.3-0.2-0.5
			c0.07-0.07,0.13-0.12,0.2-0.15V34.7l0.1-0.1c0.17-0.07,0.35-0.1,0.55-0.1C66.6,34.5,66.83,34.57,67,34.7z M71.35,35.65
			c0-0.03,0.03-0.07,0.1-0.1c0.17-0.1,0.35-0.15,0.55-0.15c0.27,0,0.5,0.08,0.7,0.25c0.13,0.13,0.18,0.25,0.15,0.35
			c-0.07,0.37-0.35,0.57-0.85,0.6c-0.27,0-0.5-0.08-0.7-0.25c-0.23-0.13-0.28-0.32-0.15-0.55c0.07-0.07,0.12-0.1,0.15-0.1
			C71.3,35.67,71.32,35.65,71.35,35.65z M63.45,36.7c-0.07,0-0.1-0.03-0.1-0.1l-0.05-0.05c-0.03,0-0.05-0.02-0.05-0.05v0.05
			c-0.03,0.37-0.33,0.55-0.9,0.55c-0.33,0-0.6-0.1-0.8-0.3c-0.13-0.17-0.15-0.33-0.05-0.5c0-0.03,0.02-0.07,0.05-0.1
			c0.07-0.07,0.13-0.12,0.2-0.15c0.13-0.07,0.33-0.1,0.6-0.1c0.3,0,0.55,0.07,0.75,0.2l0.1,0.05c0-0.03,0-0.07,0-0.1
			c0-0.07,0.02-0.1,0.05-0.1c0.03-0.07,0.07-0.12,0.1-0.15c0-0.03,0.03-0.05,0.1-0.05c0-0.03,0.02-0.07,0.05-0.1
			c0.33-0.13,0.63-0.13,0.9,0c0.5,0.33,0.65,0.62,0.45,0.85c-0.13,0.13-0.37,0.25-0.7,0.35c-0.1,0-0.25-0.05-0.45-0.15
			c-0.07,0-0.13-0.02-0.2-0.05H63.45z M64.3,41.15c0-0.03,0.02-0.1,0.05-0.2c0.03-0.03,0.07-0.07,0.1-0.1
			c0-0.03,0.02-0.05,0.05-0.05c0-0.03,0.02-0.07,0.05-0.1c0.2-0.1,0.38-0.15,0.55-0.15c0.37,0,0.62,0.08,0.75,0.25
			c0.13,0.13,0.18,0.25,0.15,0.35c-0.03,0.3-0.25,0.48-0.65,0.55c-0.07,0.03-0.15,0.05-0.25,0.05c-0.2,0-0.42-0.08-0.65-0.25
			C64.35,41.44,64.3,41.32,64.3,41.15z M60.3,39.3c0-0.03,0.03-0.05,0.1-0.05l0.05-0.05c0.37-0.13,0.67-0.12,0.9,0.05
			c0.73,0.43,0.73,0.78,0,1.05c-0.07,0.03-0.18,0.07-0.35,0.1c0-0.03-0.05-0.05-0.15-0.05c-0.03,0-0.07,0-0.1,0
			s-0.08-0.02-0.15-0.05c-0.23-0.07-0.38-0.18-0.45-0.35c-0.03-0.17-0.03-0.33,0-0.5C60.22,39.39,60.27,39.33,60.3,39.3z
			 M59.1,42.85c-0.03,0.03-0.07,0.07-0.1,0.1c-0.3,0.3-0.78,0.43-1.45,0.4c-0.4,0-0.68-0.13-0.85-0.4c-0.1-0.1-0.1-0.22,0-0.35
			c0-0.03,0.02-0.07,0.05-0.1l0.1-0.05c0-0.07,0.03-0.1,0.1-0.1L57,42.3c0.3-0.1,0.62-0.17,0.95-0.2c0.4-0.03,0.75,0.03,1.05,0.2
			C59.17,42.5,59.2,42.69,59.1,42.85z M61.35,41.95c0.1,0.1,0.17,0.17,0.2,0.2c0.17,0.13,0.23,0.27,0.2,0.4
			c-0.03,0.17-0.13,0.3-0.3,0.4c-0.13,0.1-0.3,0.17-0.5,0.2c-0.17,0-0.37-0.07-0.6-0.2c-0.07-0.03-0.13-0.07-0.2-0.1
			c-0.1-0.07-0.15-0.17-0.15-0.3c0-0.07,0.02-0.15,0.05-0.25c0.03-0.03,0.07-0.08,0.1-0.15h0.1c0-0.03,0.02-0.05,0.05-0.05
			c0.2-0.1,0.42-0.15,0.65-0.15C61.12,41.95,61.25,41.95,61.35,41.95z M72.7,39.3c0,0.4-0.32,0.6-0.95,0.6c-0.3,0-0.57-0.1-0.8-0.3
			c-0.17-0.17-0.17-0.33,0-0.5c0-0.03,0-0.07,0-0.1h0.1c0.07-0.07,0.1-0.12,0.1-0.15c0.2-0.1,0.4-0.15,0.6-0.15
			c0.3,0,0.58,0.08,0.85,0.25C72.7,39.08,72.73,39.2,72.7,39.3z M79.8,42.95c-0.1,0.03-0.22,0.07-0.35,0.1
			c-0.13,0-0.27-0.03-0.4-0.1c-0.1-0.03-0.2-0.08-0.3-0.15c-0.2-0.13-0.25-0.32-0.15-0.55c0.03-0.07,0.08-0.12,0.15-0.15h0.05
			c0-0.03,0.02-0.08,0.05-0.15c0.2-0.03,0.4-0.05,0.6-0.05c0.03,0,0.12,0,0.25,0c0.2,0,0.37,0.07,0.5,0.2
			c0.1,0.13,0.13,0.25,0.1,0.35C80.27,42.69,80.1,42.85,79.8,42.95z M78.2,41.5c0.07,0.03,0.12,0.08,0.15,0.15
			c0.13,0.07,0.2,0.15,0.2,0.25c0,0.03,0,0.08,0,0.15c-0.07,0.33-0.38,0.53-0.95,0.6c-0.23,0-0.45-0.1-0.65-0.3
			c-0.2-0.13-0.25-0.32-0.15-0.55c0.03-0.07,0.08-0.1,0.15-0.1c0-0.03,0.02-0.05,0.05-0.05c0-0.03,0.02-0.07,0.05-0.1
			c0.2-0.07,0.38-0.1,0.55-0.1C77.87,41.45,78.07,41.47,78.2,41.5z M16.05,41.3c0,0.03-0.02,0.08-0.05,0.15
			c-0.07,0.33-0.33,0.53-0.8,0.6c-0.2-0.07-0.4-0.1-0.6-0.1c-0.1,0-0.2-0.02-0.3-0.05c-0.57-0.13-0.75-0.4-0.55-0.8
			c0-0.03,0.02-0.07,0.05-0.1c0-0.03,0.03-0.05,0.1-0.05V40.9h0.05c0.63-0.23,1.2-0.23,1.7,0c0.07,0.03,0.13,0.08,0.2,0.15
			c0.03,0.03,0.08,0.07,0.15,0.1v0.1L16.05,41.3z M12.05,39.25h0.05c0.07,0.07,0.13,0.12,0.2,0.15c0.03,0.07,0.12,0.12,0.25,0.15
			c0.1,0.13,0.13,0.25,0.1,0.35c-0.07,0.43-0.45,0.63-1.15,0.6c-0.4,0-0.7-0.13-0.9-0.4v-0.75l0.15-0.05c0-0.03,0.02-0.05,0.05-0.05
			l0.05-0.05c0.2-0.13,0.45-0.17,0.75-0.1C11.8,39.1,11.95,39.15,12.05,39.25z M27.8,31.85c0,0.03,0,0.07,0,0.1
			c-0.1,0.33-0.42,0.53-0.95,0.6c-0.27,0-0.5-0.08-0.7-0.25c-0.17-0.13-0.2-0.28-0.1-0.45C26.38,31.45,26.97,31.45,27.8,31.85z
			 M33.45,32.3c-0.13-0.13-0.15-0.28-0.05-0.45c0.67-0.37,1.35-0.37,2.05,0c0.37,0.4,0.07,0.65-0.9,0.75
			C34.15,32.6,33.78,32.5,33.45,32.3z M21.75,39.55c0.4,0,0.67,0.12,0.8,0.35c0.03,0.03,0.05,0.1,0.05,0.2
			c0.13,0.13,0.15,0.27,0.05,0.4c-0.07,0.33-0.38,0.5-0.95,0.5c-0.03,0-0.1-0.02-0.2-0.05c-0.13,0-0.27-0.05-0.4-0.15
			c-0.03,0-0.05-0.02-0.05-0.05L21,40.7c-0.07,0-0.1-0.02-0.1-0.05c-0.03-0.17-0.05-0.33-0.05-0.5c0-0.07,0.02-0.17,0.05-0.3
			l0.1-0.1h0.05c0.03-0.07,0.07-0.12,0.1-0.15c0.17-0.07,0.35-0.08,0.55-0.05H21.75z M18.2,39.7c0.1,0.13,0.12,0.27,0.05,0.4
			c-0.03,0.4-0.37,0.6-1,0.6c-0.13,0-0.28-0.05-0.45-0.15c-0.1,0-0.18-0.03-0.25-0.1c-0.07,0-0.1-0.02-0.1-0.05v-0.05
			c-0.03,0-0.05-0.02-0.05-0.05c-0.03-0.07-0.05-0.13-0.05-0.2c0-0.1,0-0.17,0-0.2c0-0.03,0.02-0.08,0.05-0.15l0.05-0.05v-0.05
			c0-0.03,0.03-0.05,0.1-0.05c0-0.03,0.03-0.05,0.1-0.05c0.1-0.03,0.23-0.07,0.4-0.1C17.48,39.42,17.87,39.5,18.2,39.7z
			 M24.25,44.25c-0.1,0-0.15,0.02-0.15,0.05c0,0.33-0.28,0.53-0.85,0.6c-0.13,0-0.28-0.05-0.45-0.15c-0.1-0.03-0.18-0.07-0.25-0.1
			c-0.17-0.13-0.2-0.32-0.1-0.55c0.03-0.03,0.07-0.08,0.1-0.15c0-0.03,0.02-0.05,0.05-0.05l0.05-0.05c0.17-0.1,0.37-0.15,0.6-0.15
			c0.3,0,0.57,0.07,0.8,0.2C24.08,44.03,24.15,44.15,24.25,44.25z M31.4,38.35c0.33,0,0.55,0.07,0.65,0.2
			c0.1,0.13,0.15,0.25,0.15,0.35c0,0.03,0,0.07,0,0.1c-0.03,0.33-0.3,0.52-0.8,0.55c-0.17,0-0.3-0.03-0.4-0.1
			c-0.1-0.03-0.2-0.08-0.3-0.15c-0.23-0.13-0.3-0.32-0.2-0.55c0.03-0.03,0.1-0.07,0.2-0.1v-0.1l0.15-0.05
			C31.02,38.4,31.2,38.35,31.4,38.35z M36,37.1c-0.23-0.13-0.3-0.32-0.2-0.55c0.03-0.03,0.1-0.05,0.2-0.05c0-0.07,0.02-0.1,0.05-0.1
			c0-0.03,0.02-0.07,0.05-0.1c0.17-0.07,0.37-0.1,0.6-0.1c0.3,0,0.52,0.07,0.65,0.2c0.1,0.13,0.15,0.25,0.15,0.35
			c-0.03,0.37-0.3,0.57-0.8,0.6c-0.1,0-0.23-0.02-0.4-0.05C36.17,37.27,36.07,37.2,36,37.1z M38.4,41.1c-0.03,0-0.05,0.02-0.05,0.05
			c-0.2,0.2-0.5,0.3-0.9,0.3c-0.1,0-0.17-0.02-0.2-0.05c-0.2-0.03-0.38-0.13-0.55-0.3c-0.07,0-0.1-0.03-0.1-0.1
			c-0.03-0.1-0.03-0.22,0-0.35c0-0.07,0.03-0.1,0.1-0.1l0.05-0.05c0.03-0.07,0.07-0.12,0.1-0.15c0.2-0.07,0.4-0.1,0.6-0.1
			c0.37,0,0.67,0.07,0.9,0.2c0.1,0.17,0.13,0.3,0.1,0.4v0.05C38.45,40.97,38.43,41.03,38.4,41.1z M26.95,40.95
			c0-0.03,0.02-0.05,0.05-0.05v-0.05c0-0.03,0.05-0.05,0.15-0.05c0-0.03,0.02-0.07,0.05-0.1c0.27-0.1,0.52-0.15,0.75-0.15
			c0.57,0,1.05,0.12,1.45,0.35c0.13,0.13,0.18,0.28,0.15,0.45L29.5,41.5c0,0.13-0.07,0.28-0.2,0.45c-0.13,0.1-0.3,0.17-0.5,0.2
			c-0.17,0.1-0.37,0.17-0.6,0.2c-0.27,0-0.58-0.02-0.95-0.05c-0.07,0-0.15,0-0.25,0c-0.23,0-0.43-0.07-0.6-0.2
			c-0.2-0.13-0.3-0.28-0.3-0.45c0-0.03,0-0.08,0-0.15h0.05c0-0.03,0.03-0.07,0.1-0.1l0.05-0.05c0-0.03,0.03-0.05,0.1-0.05v-0.05
			c0.17-0.1,0.35-0.15,0.55-0.15C26.88,41.07,26.88,41.02,26.95,40.95z M30.5,43.85c0.23-0.23,0.52-0.35,0.85-0.35
			c1.13-0.03,1.43,0.27,0.9,0.9c-0.07,0.03-0.17,0.07-0.3,0.1c-0.17,0.1-0.35,0.15-0.55,0.15c-0.1-0.03-0.22-0.07-0.35-0.1
			c-0.1-0.03-0.22-0.07-0.35-0.1v-0.1c-0.1,0-0.15-0.02-0.15-0.05c-0.03,0-0.05-0.02-0.05-0.05C30.43,44.12,30.43,43.98,30.5,43.85z
			 M46.6,33.2c-0.17-0.03-0.3-0.1-0.4-0.2c-0.13-0.17-0.15-0.33-0.05-0.5c0-0.03,0.02-0.07,0.05-0.1l0.15-0.05c0-0.03,0-0.07,0-0.1
			c0.2-0.1,0.4-0.15,0.6-0.15c0.37,0,0.65,0.08,0.85,0.25c0.13,0.13,0.18,0.25,0.15,0.35c-0.07,0.4-0.4,0.6-1,0.6
			C46.88,33.3,46.77,33.27,46.6,33.2z M50.85,35.7h0.1c0.03,0,0.12,0,0.25,0c0.23,0,0.45,0,0.65,0c0.07,0.07,0.15,0.13,0.25,0.2
			c0.1,0.13,0.13,0.25,0.1,0.35c-0.03,0.43-0.37,0.65-1,0.65c-0.3,0-0.55-0.12-0.75-0.35c-0.03,0-0.12,0.02-0.25,0.05
			c-0.03-0.03-0.07-0.05-0.1-0.05c0,0.03,0,0.08,0,0.15c0,0.13-0.1,0.22-0.3,0.25c-0.73,0.33-1.58,0.55-2.55,0.65
			c-0.07,0-0.12-0.02-0.15-0.05c-0.2,0-0.38-0.05-0.55-0.15c-0.23-0.17-0.3-0.37-0.2-0.6c0.13-0.03,0.2-0.07,0.2-0.1h0.05
			c0-0.07,0.02-0.12,0.05-0.15c0.3-0.03,0.57-0.12,0.8-0.25c0.2-0.07,0.4-0.12,0.6-0.15c0.5-0.1,0.93-0.1,1.3,0
			c-0.03-0.17-0.03-0.33,0-0.5c0.07-0.07,0.12-0.12,0.15-0.15h0.05c0-0.07,0.02-0.1,0.05-0.1c0.37-0.17,0.67-0.17,0.9,0
			C50.63,35.5,50.75,35.6,50.85,35.7z M45.35,36.05c0.17,0.13,0.22,0.28,0.15,0.45c-0.03,0.3-0.33,0.48-0.9,0.55
			c-0.23,0-0.45-0.1-0.65-0.3c-0.2-0.13-0.23-0.32-0.1-0.55c0.03-0.03,0.07-0.07,0.1-0.1c0-0.03,0.02-0.05,0.05-0.05
			c0-0.03,0.02-0.05,0.05-0.05c0.17-0.1,0.35-0.15,0.55-0.15C44.97,35.85,45.22,35.92,45.35,36.05z M43.85,40.35
			c0.03,0.07,0.03,0.13,0,0.2c-0.07,0.4-0.42,0.6-1.05,0.6c-0.23,0-0.47-0.08-0.7-0.25c-0.13-0.17-0.15-0.35-0.05-0.55l0.05-0.05
			l0.15-0.1c0-0.03,0-0.07,0-0.1c0.2-0.1,0.38-0.15,0.55-0.15c0.33,0,0.57,0.05,0.7,0.15c0.1,0.03,0.17,0.07,0.2,0.1
			C43.73,40.27,43.78,40.32,43.85,40.35z M54.4,36.55c0.13-0.03,0.32-0.03,0.55,0c0.27,0,0.5,0.05,0.7,0.15l0.05,0.05
			c0.13,0.13,0.17,0.28,0.1,0.45c-0.17,0.43-0.62,0.62-1.35,0.55c-0.47-0.03-0.73-0.22-0.8-0.55c-0.03-0.07-0.03-0.17,0-0.3
			l0.1-0.15h0.1c0-0.03,0.02-0.05,0.05-0.05C54.07,36.6,54.23,36.55,54.4,36.55z M48.25,38.3c0.03-0.1,0.07-0.15,0.1-0.15
			c0-0.03,0.02-0.05,0.05-0.05c0-0.03,0.02-0.07,0.05-0.1c0.4-0.17,0.77-0.13,1.1,0.1c0.87,0.57,0.85,1-0.05,1.3
			c0.1,0.13,0.18,0.25,0.25,0.35c0.07,0.27-0.22,0.48-0.85,0.65c-0.03-0.03-0.1-0.05-0.2-0.05h-0.1c-0.2-0.03-0.37-0.12-0.5-0.25
			c-0.03-0.03-0.05-0.08-0.05-0.15c-0.03-0.17-0.03-0.33,0-0.5c0.03-0.07,0.1-0.12,0.2-0.15c0-0.03,0.02-0.05,0.05-0.05l0.1-0.1
			c-0.03-0.07-0.07-0.12-0.1-0.15C48.13,38.77,48.12,38.53,48.25,38.3z M52.25,40.3c0,0.27-0.3,0.5-0.9,0.7
			c-0.07,0-0.12-0.02-0.15-0.05c-0.07,0-0.13-0.02-0.2-0.05c-0.1,0-0.2-0.03-0.3-0.1c-0.03-0.07-0.12-0.15-0.25-0.25
			c-0.03-0.07-0.08-0.13-0.15-0.2c-0.1-0.1-0.15-0.18-0.15-0.25c-0.03-0.1-0.03-0.18,0-0.25c0.03-0.07,0.08-0.1,0.15-0.1
			c0-0.03,0.03-0.05,0.1-0.05c0-0.03,0.02-0.07,0.05-0.1c0.13-0.03,0.23-0.05,0.3-0.05c0.3-0.07,0.53-0.07,0.7,0
			C51.98,39.82,52.25,40.07,52.25,40.3z M69.6,50.4c-0.2,0.07-0.37,0.1-0.5,0.1c-0.57-0.03-0.85-0.22-0.85-0.55
			c0-0.03-0.03-0.07-0.1-0.1c0.07-0.07,0.13-0.17,0.2-0.3c0.2-0.13,0.45-0.2,0.75-0.2c0.2,0,0.38,0.03,0.55,0.1
			c0.03,0.03,0.05,0.07,0.05,0.1c0.03,0,0.05,0.02,0.05,0.05c0.07,0.03,0.1,0.08,0.1,0.15c0.13,0.2,0.1,0.38-0.1,0.55
			C69.68,50.33,69.63,50.37,69.6,50.4z M61.85,49.45c0.07,0.17,0.07,0.32,0,0.45c0,0.03-0.02,0.05-0.05,0.05h-0.15v0.1
			c-0.13,0.07-0.25,0.1-0.35,0.1c-0.13,0.03-0.25,0.08-0.35,0.15c-0.17,0-0.35-0.05-0.55-0.15c-0.13-0.07-0.23-0.12-0.3-0.15
			c-0.53-0.6-0.23-0.88,0.9-0.85C61.33,49.15,61.62,49.25,61.85,49.45z"/>
		<path fill-rule="evenodd" clip-rule="evenodd" fill="#818588" d="M65.65,33.75c-0.13,0-0.23-0.03-0.3-0.1
			c-0.17-0.07-0.25-0.17-0.25-0.3c0-0.1,0.02-0.18,0.05-0.25c0.07-0.07,0.13-0.12,0.2-0.15h0.05c0-0.03,0.02-0.05,0.05-0.05
			c0.2-0.13,0.4-0.2,0.6-0.2c0.3,0,0.53,0.08,0.7,0.25c0.1,0.13,0.13,0.25,0.1,0.35c-0.03,0.33-0.3,0.53-0.8,0.6
			C65.92,33.9,65.78,33.85,65.65,33.75z M61,32.75c0.13,0.13,0.15,0.27,0.05,0.4c-0.03,0.33-0.3,0.53-0.8,0.6
			c-0.3,0-0.53-0.08-0.7-0.25c-0.23-0.13-0.28-0.32-0.15-0.55c0.07-0.03,0.12-0.08,0.15-0.15c0-0.03,0.02-0.05,0.05-0.05
			c0-0.03,0.02-0.07,0.05-0.1c0.13-0.07,0.33-0.1,0.6-0.1C60.58,32.55,60.83,32.62,61,32.75z M56.7,38.5c0.3-0.1,0.55-0.1,0.75,0
			c1,0.47,0.88,0.88-0.35,1.25c-0.07-0.03-0.15-0.05-0.25-0.05c-0.07,0-0.12,0-0.15,0C55.93,39.3,55.93,38.9,56.7,38.5z M59.2,37.4
			c0.93,0.5,0.85,0.88-0.25,1.15c-0.07,0-0.2-0.02-0.4-0.05c-0.1-0.03-0.18-0.08-0.25-0.15c-0.03,0-0.05-0.02-0.05-0.05
			c-0.03,0-0.05-0.03-0.05-0.1c-0.07,0-0.1-0.02-0.1-0.05c-0.03-0.03-0.05-0.07-0.05-0.1c0-0.07,0-0.15,0-0.25
			c0-0.03,0.02-0.07,0.05-0.1c0.07-0.1,0.12-0.17,0.15-0.2h0.05c0-0.03,0.02-0.07,0.05-0.1C58.68,37.27,58.97,37.27,59.2,37.4z
			 M60.3,40.3h0.1c0.9,0.43,0.8,0.82-0.3,1.15c-0.3,0-0.53-0.1-0.7-0.3c-0.3-0.17-0.38-0.37-0.25-0.6c0.03-0.07,0.07-0.12,0.1-0.15
			c0-0.03,0.05-0.05,0.15-0.05V40.3C59.67,40.17,59.97,40.17,60.3,40.3z M46.6,33.2c-0.2,0.23-0.53,0.33-1,0.3
			c-0.43,0-0.72-0.13-0.85-0.4c-0.13-0.13-0.13-0.28,0-0.45c0-0.03,0.02-0.05,0.05-0.05l0.05-0.05c0-0.03,0.03-0.05,0.1-0.05
			c0-0.03,0.02-0.07,0.05-0.1c0.3-0.1,0.62-0.13,0.95-0.1c0.13,0,0.27,0.02,0.4,0.05L46.2,32.4c-0.03,0.03-0.05,0.07-0.05,0.1
			c-0.1,0.17-0.08,0.33,0.05,0.5C46.3,33.1,46.43,33.17,46.6,33.2z M55.5,32.2c0.3,0,0.53,0.07,0.7,0.2
			c0.13,0.13,0.15,0.27,0.05,0.4c0,0.33-0.25,0.52-0.75,0.55c-0.3,0-0.55-0.07-0.75-0.2c-0.2-0.13-0.25-0.32-0.15-0.55
			c0.1-0.07,0.15-0.12,0.15-0.15s0.02-0.05,0.05-0.05l0.05-0.05C55.08,32.25,55.3,32.2,55.5,32.2z M54.4,35.65
			c0.13-0.1,0.32-0.15,0.55-0.15c0.07,0,0.18,0,0.35,0c0.03,0,0.1,0,0.2,0c0.17,0,0.32,0.02,0.45,0.05
			c0.07,0.07,0.15,0.12,0.25,0.15c0.13,0.17,0.15,0.3,0.05,0.4c0,0.3-0.2,0.5-0.6,0.6c-0.2-0.1-0.43-0.15-0.7-0.15
			c-0.23-0.03-0.42-0.03-0.55,0c-0.1-0.03-0.17-0.08-0.2-0.15c-0.13-0.17-0.15-0.33-0.05-0.5c0-0.03,0.02-0.07,0.05-0.1l0.05-0.05
			C54.28,35.72,54.33,35.69,54.4,35.65z"/>
		<path fill-rule="evenodd" clip-rule="evenodd" fill="#84868B" d="M65.1,33.35c0,0.13,0.08,0.23,0.25,0.3
			c0.07,0.07,0.17,0.1,0.3,0.1c-0.2,0.13-0.4,0.27-0.6,0.4c-0.27,0-0.5-0.08-0.7-0.25c-0.27-0.23-0.25-0.37,0.05-0.4
			C64.7,33.4,64.93,33.35,65.1,33.35z M61.9,32.2c0.97-0.2,1.45-0.2,1.45,0c0,0.13-0.25,0.37-0.75,0.7c-0.27,0-0.52-0.1-0.75-0.3
			C61.62,32.4,61.63,32.27,61.9,32.2z M70.4,32.8c0.37,0,0.62,0.07,0.75,0.2s0.18,0.25,0.15,0.35c-0.03,0.37-0.33,0.57-0.9,0.6
			c-0.23,0-0.45-0.07-0.65-0.2c-0.23-0.13-0.27-0.33-0.1-0.6c0.03-0.03,0.07-0.05,0.1-0.05V33c0-0.03,0.03-0.05,0.1-0.05
			C70.02,32.85,70.2,32.8,70.4,32.8z M71.7,33.1c1.8-0.27,1.97-0.03,0.5,0.7c-0.33,0-0.57-0.13-0.7-0.4
			C71.33,33.2,71.4,33.1,71.7,33.1z M62.8,35.95c-0.23,0-0.45-0.08-0.65-0.25c-0.27-0.23-0.25-0.37,0.05-0.4
			C63.87,34.94,64.07,35.15,62.8,35.95z M76.25,37.55c0-0.03,0.02-0.05,0.05-0.05c0.17-0.1,0.35-0.15,0.55-0.15
			c0.33,0,0.57,0.07,0.7,0.2c0.03,0.1,0.07,0.17,0.1,0.2c1.33-0.23,1.43,0.02,0.3,0.75c-0.23,0-0.42-0.05-0.55-0.15
			c-0.1,0.1-0.28,0.17-0.55,0.2c-0.23,0-0.45-0.08-0.65-0.25c-0.23-0.13-0.27-0.32-0.1-0.55c0.03-0.03,0.07-0.08,0.1-0.15
			C76.2,37.57,76.22,37.55,76.25,37.55z M75.25,41.6c-0.2-0.2-0.17-0.35,0.1-0.45c1.67-0.3,1.87-0.05,0.6,0.75
			C75.72,41.9,75.48,41.8,75.25,41.6z M15.6,33.65c-0.23-0.23-0.22-0.38,0.05-0.45c1.7-0.33,1.93-0.1,0.7,0.7
			C16.05,33.9,15.8,33.82,15.6,33.65z M29.05,31.85c0.33-0.47,0.67-0.47,1,0c-0.1,0.03-0.22,0.1-0.35,0.2
			C29.5,32.05,29.28,31.98,29.05,31.85z M26.75,33.55c-0.23-0.23-0.2-0.37,0.1-0.4c1.7-0.37,1.95-0.15,0.75,0.65
			C27.3,33.8,27.02,33.72,26.75,33.55z M33.35,34.55c-0.27,0-0.5-0.07-0.7-0.2c-0.3-0.27-0.28-0.42,0.05-0.45
			C34.37,33.53,34.58,33.75,33.35,34.55z M39.3,33.35c-0.07-0.23,0.02-0.37,0.25-0.4c1.77-0.27,1.97,0.02,0.6,0.85
			C39.75,33.77,39.47,33.62,39.3,33.35z M36.4,34.8c-0.13-0.17-0.08-0.27,0.15-0.3c1.47-0.33,1.78-0.18,0.95,0.45
			c-0.17-0.13-0.4-0.2-0.7-0.2C36.63,34.75,36.5,34.77,36.4,34.8z M22.6,36c-0.2,0-0.43-0.08-0.7-0.25
			c-0.27-0.23-0.25-0.37,0.05-0.4C23.68,34.98,23.9,35.2,22.6,36z M24.45,36.35c1.67-0.33,1.87-0.1,0.6,0.7
			c-0.23,0-0.47-0.1-0.7-0.3C24.15,36.58,24.18,36.45,24.45,36.35z M16.2,36.8c-0.03-0.37,0.15-0.53,0.55-0.5
			c2,0.2,2.17,0.58,0.5,1.15C16.65,37.42,16.3,37.2,16.2,36.8z M37.5,38.2c-0.03,0-0.1,0-0.2,0c-0.33-0.03-0.65,0.02-0.95,0.15
			c-0.03,0-0.05,0.03-0.05,0.1c-0.03-0.07-0.07-0.1-0.1-0.1c-0.07,0-0.1-0.02-0.1-0.05c-0.03,0-0.05-0.03-0.05-0.1
			c-0.03,0-0.05-0.02-0.05-0.05c-0.17-0.27-0.08-0.5,0.25-0.7l0.05-0.05c0,0.1,0.08,0.22,0.25,0.35c0.17,0.13,0.38,0.2,0.65,0.2
			c0.2,0,0.4-0.05,0.6-0.15C37.87,37.94,37.77,38.07,37.5,38.2z M30.45,36.95c-0.23,0-0.45-0.08-0.65-0.25
			c-0.27-0.23-0.25-0.38,0.05-0.45C31.48,35.92,31.68,36.15,30.45,36.95z M49.55,33.95c-0.23,0-0.45-0.07-0.65-0.2
			c-0.3-0.27-0.28-0.42,0.05-0.45C50.62,32.97,50.82,33.19,49.55,33.95z M50.85,35.7c0.67-0.13,1-0.13,1,0c-0.2,0-0.42,0-0.65,0
			c-0.13,0-0.22,0-0.25,0H50.85z M55.95,35.55c-0.13-0.03-0.28-0.05-0.45-0.05c-0.1,0-0.17,0-0.2,0c-0.17,0-0.28,0-0.35,0
			c-0.23,0-0.42,0.05-0.55,0.15c-0.1-0.1-0.05-0.18,0.15-0.25C55.78,35.17,56.25,35.22,55.95,35.55z M39.8,38.35
			c0.97-0.17,1.4-0.17,1.3,0v0.1c-0.03,0-0.05,0.02-0.05,0.05L41,38.55c-0.07,0.07-0.1,0.12-0.1,0.15c-0.13,0.1-0.3,0.22-0.5,0.35
			c-0.23,0-0.45-0.1-0.65-0.3C39.45,38.58,39.47,38.45,39.8,38.35z"/>
		<path fill-rule="evenodd" clip-rule="evenodd" fill="#7E8089" d="M75.9,33.3c-0.2-0.13-0.23-0.32-0.1-0.55
			c0.03-0.07,0.07-0.12,0.1-0.15h0.05c0-0.03,0.05-0.07,0.15-0.1c0.13-0.07,0.32-0.1,0.55-0.1c0.27,0,0.5,0.07,0.7,0.2
			c0.07,0.13,0.08,0.25,0.05,0.35c-0.03,0.37-0.28,0.57-0.75,0.6C76.38,33.55,76.13,33.47,75.9,33.3z M81.95,32.1
			c0-0.03,0.02-0.07,0.05-0.1c0.17-0.07,0.35-0.1,0.55-0.1c0.33,0,0.57,0.07,0.7,0.2c0.13,0.1,0.2,0.2,0.2,0.3v0.05
			c-0.07,0.33-0.37,0.55-0.9,0.65c-0.27,0-0.5-0.1-0.7-0.3c-0.23-0.13-0.28-0.32-0.15-0.55c0.03-0.07,0.08-0.12,0.15-0.15H81.95z
			 M79.8,35.2c0.17-0.07,0.35-0.1,0.55-0.1c0.3,0,0.53,0.07,0.7,0.2c0.13,0.13,0.17,0.27,0.1,0.4c-0.03,0.33-0.3,0.52-0.8,0.55
			c-0.23,0-0.45-0.08-0.65-0.25c-0.23-0.13-0.3-0.3-0.2-0.5c0.1-0.07,0.17-0.12,0.2-0.15c0-0.03,0.02-0.05,0.05-0.05L79.8,35.2z
			 M15.7,31.65V31.6c0-0.03,0.03-0.05,0.1-0.05l0.05-0.05c0.53-0.13,1-0.13,1.4,0c0.07,0,0.13,0.02,0.2,0.05
			c0.1,0.17,0.13,0.3,0.1,0.4c-0.07,0.43-0.45,0.63-1.15,0.6c-0.37,0-0.63-0.13-0.8-0.4c-0.1-0.13-0.1-0.27,0-0.4
			C15.6,31.72,15.63,31.69,15.7,31.65z M45.75,32.15c-0.03,0-0.07,0-0.1,0c-0.3-0.07-0.47-0.17-0.5-0.3c0.67-0.4,1.23-0.4,1.7,0
			c-0.17,0.13-0.47,0.25-0.9,0.35C45.92,32.17,45.85,32.15,45.75,32.15z"/>
		<path fill-rule="evenodd" clip-rule="evenodd" fill="#818387" d="M63.45,36.7h0.05c0.07,0.03,0.13,0.05,0.2,0.05
			c0.2,0.1,0.35,0.15,0.45,0.15c0.33-0.1,0.57-0.22,0.7-0.35c0.17,0.03,0.27,0.1,0.3,0.2c0.17,0.13,0.23,0.28,0.2,0.45
			c-0.17,0.4-0.57,0.58-1.2,0.55c-0.47,0-0.77-0.15-0.9-0.45c-0.1-0.13-0.1-0.27,0-0.4l0.05-0.1l0.05-0.05h0.1V36.7z M62.7,40.35
			c0-0.1,0.02-0.2,0.05-0.3c0.03-0.07,0.1-0.12,0.2-0.15v-0.05l0.05-0.1c0.17-0.07,0.37-0.1,0.6-0.1c0.33,0,0.58,0.07,0.75,0.2
			c0.1,0.17,0.13,0.3,0.1,0.4c0,0.03,0,0.07,0,0.1c-0.07,0.27-0.35,0.43-0.85,0.5c-0.27,0-0.48-0.1-0.65-0.3
			C62.78,40.48,62.7,40.42,62.7,40.35z M72.3,36.9c0-0.07,0.02-0.1,0.05-0.1c0-0.03,0.02-0.05,0.05-0.05c0.37-0.13,0.72-0.13,1.05,0
			c1,0.43,0.95,0.82-0.15,1.15c-0.27-0.03-0.55-0.1-0.85-0.2c-0.3-0.2-0.4-0.45-0.3-0.75C72.18,36.92,72.23,36.9,72.3,36.9z
			 M74.15,38.5c0.33,0,0.6,0.07,0.8,0.2c0.1,0.13,0.13,0.25,0.1,0.35c-0.03,0.33-0.33,0.53-0.9,0.6c-0.23,0-0.47-0.08-0.7-0.25
			c-0.17-0.13-0.22-0.32-0.15-0.55c0.03-0.07,0.08-0.12,0.15-0.15h0.05c0-0.03,0.02-0.08,0.05-0.15
			C73.75,38.52,73.95,38.5,74.15,38.5z M82,38.85c0.1,0.13,0.13,0.27,0.1,0.4c-0.03,0.33-0.32,0.53-0.85,0.6
			c-0.27,0-0.5-0.1-0.7-0.3c-0.2-0.13-0.25-0.32-0.15-0.55c0.07-0.03,0.12-0.07,0.15-0.1c0-0.03,0.02-0.05,0.05-0.05
			c0-0.07,0.02-0.1,0.05-0.1c0.17-0.07,0.37-0.1,0.6-0.1C81.55,38.65,81.8,38.72,82,38.85z"/>
		<path fill-rule="evenodd" clip-rule="evenodd" fill="#54555C" d="M65.75,39l0.1-0.05V38.9c0-0.03,0.03-0.05,0.1-0.05
			c0-0.07,0.02-0.1,0.05-0.1c0.3-0.13,0.6-0.17,0.9-0.1c0.37,0,0.63,0.07,0.8,0.2c0.13,0.13,0.17,0.28,0.1,0.45
			c-0.13,0.4-0.55,0.58-1.25,0.55c-0.4,0-0.67-0.15-0.8-0.45C65.68,39.3,65.68,39.17,65.75,39z M61.35,41.95c-0.1,0-0.23,0-0.4,0
			c-0.23,0-0.45,0.05-0.65,0.15c-0.03,0-0.05,0.02-0.05,0.05h-0.1c-0.03,0.07-0.07,0.12-0.1,0.15C60.02,42.4,60,42.48,60,42.55
			c-0.13-0.03-0.27-0.12-0.4-0.25c-0.13-0.13-0.15-0.3-0.05-0.5c0-0.03,0.02-0.07,0.05-0.1h0.05c0.07-0.07,0.12-0.12,0.15-0.15
			c0.17-0.07,0.37-0.1,0.6-0.1c0.37,0,0.65,0.07,0.85,0.2C61.38,41.82,61.42,41.92,61.35,41.95z M68.85,39l0.1-0.05
			c0.17-0.13,0.37-0.2,0.6-0.2c0.27,0,0.5,0.08,0.7,0.25c0.1,0.17,0.13,0.3,0.1,0.4c-0.03,0.33-0.3,0.52-0.8,0.55
			c-0.23,0-0.48-0.07-0.75-0.2c-0.2-0.13-0.25-0.32-0.15-0.55c0.07-0.07,0.12-0.12,0.15-0.15C68.8,39.02,68.82,39,68.85,39z
			 M69.2,41.65c0-0.03,0-0.07,0-0.1c0.17-0.07,0.35-0.1,0.55-0.1c0.27,0,0.48,0.03,0.65,0.1c0,0.03,0.03,0.07,0.1,0.1
			c0.1,0.17,0.13,0.3,0.1,0.4c-0.03,0.33-0.32,0.53-0.85,0.6c-0.23,0-0.43-0.1-0.6-0.3c-0.23-0.13-0.3-0.28-0.2-0.45v-0.1
			c0.03-0.07,0.1-0.1,0.2-0.1C69.15,41.67,69.17,41.65,69.2,41.65z M17.2,41.5c0.03-0.07,0.07-0.12,0.1-0.15
			c0-0.03,0.02-0.05,0.05-0.05l0.05-0.05c0.17-0.1,0.37-0.15,0.6-0.15c0.27,0,0.52,0.07,0.75,0.2c0.13,0.13,0.15,0.27,0.05,0.4
			c0,0.3-0.27,0.5-0.8,0.6c-0.27,0-0.5-0.08-0.7-0.25C17.1,41.89,17.07,41.7,17.2,41.5z M30.5,43.85c-0.07,0.13-0.07,0.27,0,0.4
			c0,0.03,0.02,0.05,0.05,0.05c0,0.03,0.05,0.05,0.15,0.05c-0.17,0.23-0.45,0.38-0.85,0.45c-0.23,0-0.47-0.08-0.7-0.25
			c-0.23-0.13-0.28-0.3-0.15-0.5c0.07-0.1,0.12-0.15,0.15-0.15c0-0.03,0.03-0.05,0.1-0.05c0-0.03,0.02-0.07,0.05-0.1
			c0.17-0.1,0.35-0.15,0.55-0.15C30.12,43.6,30.33,43.69,30.5,43.85z M46.65,46.45c0.17-0.07,0.37-0.1,0.6-0.1
			c0.3,0,0.53,0.07,0.7,0.2c0.1,0.13,0.13,0.25,0.1,0.35c-0.03,0.37-0.3,0.57-0.8,0.6c-0.23,0-0.47-0.07-0.7-0.2
			c-0.23-0.17-0.3-0.37-0.2-0.6c0.13-0.03,0.2-0.08,0.2-0.15h0.05C46.6,46.52,46.62,46.48,46.65,46.45z M54.55,42.95
			c0,0.03,0,0.07,0,0.1c-0.07,0.33-0.35,0.52-0.85,0.55c-0.27,0-0.52-0.08-0.75-0.25c-0.13-0.1-0.18-0.23-0.15-0.4
			c0-0.03,0.02-0.07,0.05-0.1c0.07-0.07,0.1-0.12,0.1-0.15s0.03-0.05,0.1-0.05l0.05-0.05c0.17-0.1,0.37-0.15,0.6-0.15
			c0.3,0,0.53,0.07,0.7,0.2C54.5,42.78,54.55,42.89,54.55,42.95z M45.7,52.1c0.03,0.03,0.05,0.07,0.05,0.1h0.05
			c0.03,0.03,0.1,0.08,0.2,0.15c0.1,0.23,0.03,0.42-0.2,0.55c-0.23,0.17-0.47,0.25-0.7,0.25c-0.5-0.07-0.78-0.27-0.85-0.6
			c0-0.1,0.05-0.22,0.15-0.35c0.17-0.17,0.4-0.25,0.7-0.25C45.33,51.95,45.53,52,45.7,52.1z M39.4,49c-0.2,0.17-0.45,0.25-0.75,0.25
			c-0.5-0.07-0.78-0.25-0.85-0.55c0-0.03,0-0.07,0-0.1c0.6-0.9,1.2-0.9,1.8,0C39.63,48.73,39.57,48.87,39.4,49z M61.65,49.95h0.15
			c0.03,0,0.05-0.02,0.05-0.05c0.07-0.13,0.07-0.28,0-0.45c0.13-0.13,0.35-0.2,0.65-0.2c0.2,0,0.38,0.05,0.55,0.15
			c0.03,0,0.05,0.02,0.05,0.05c0.03,0,0.05,0.02,0.05,0.05c0.07,0.03,0.13,0.08,0.2,0.15c0.17,0.2,0.1,0.37-0.2,0.5
			c-0.2,0.2-0.42,0.3-0.65,0.3C62.1,50.39,61.82,50.22,61.65,49.95z"/>
		<path fill-rule="evenodd" clip-rule="evenodd" fill="#5A5D63" d="M65.65,46.35c0.13-0.07,0.32-0.1,0.55-0.1
			c0.27,0,0.48,0.07,0.65,0.2c0.13,0.17,0.18,0.3,0.15,0.4c-0.07,0.33-0.33,0.53-0.8,0.6c-0.23,0-0.48-0.1-0.75-0.3
			c-0.23-0.13-0.27-0.3-0.1-0.5c0.03-0.07,0.07-0.12,0.1-0.15c0-0.03,0.03-0.05,0.1-0.05L65.65,46.35z M59.25,44.5
			c0.17,0.13,0.22,0.27,0.15,0.4c0,0.3-0.28,0.5-0.85,0.6c-0.03,0-0.08,0-0.15,0l0.1,0.05c0.13,0.13,0.18,0.25,0.15,0.35
			c-0.07,0.37-0.35,0.57-0.85,0.6c-0.23,0-0.45-0.08-0.65-0.25c-0.27-0.13-0.32-0.32-0.15-0.55c0.07-0.03,0.12-0.08,0.15-0.15h0.05
			c0-0.03,0.02-0.07,0.05-0.1c0.13-0.1,0.32-0.15,0.55-0.15c0.1,0,0.16,0,0.2,0c-0.04,0-0.09-0.02-0.15-0.05
			c-0.2-0.13-0.23-0.33-0.1-0.6c0.03-0.03,0.07-0.07,0.1-0.1c0-0.03,0.03-0.05,0.1-0.05c0-0.03,0.02-0.05,0.05-0.05
			c0.17-0.1,0.35-0.15,0.55-0.15C58.85,44.3,59.08,44.37,59.25,44.5z M73.65,45.35c0-0.03,0.03-0.05,0.1-0.05
			c0.13-0.1,0.33-0.15,0.6-0.15s0.5,0.07,0.7,0.2c0.13,0.13,0.17,0.27,0.1,0.4c0,0.1-0.03,0.2-0.1,0.3c0.2,0.07,0.4,0.15,0.6,0.25
			c0.13,0.13,0.18,0.27,0.15,0.4c-0.07,0.3-0.33,0.5-0.8,0.6c-0.33-0.1-0.68-0.17-1.05-0.2c-0.5-0.1-0.72-0.35-0.65-0.75
			c0.03-0.03,0.08-0.07,0.15-0.1c0-0.03,0.02-0.05,0.05-0.05c0-0.03,0.02-0.05,0.05-0.05h0.1l-0.1-0.05
			c-0.17-0.17-0.2-0.35-0.1-0.55c0.03-0.07,0.07-0.13,0.1-0.2H73.65z M75.65,44.8c-0.2-0.13-0.23-0.32-0.1-0.55
			c0.03-0.07,0.07-0.12,0.1-0.15h0.05c0-0.03,0.03-0.05,0.1-0.05c0.2-0.1,0.4-0.15,0.6-0.15c0.27,0,0.48,0.07,0.65,0.2
			c0.13,0.13,0.17,0.25,0.1,0.35c-0.03,0.33-0.28,0.55-0.75,0.65C76.1,45.1,75.85,45,75.65,44.8z M68.2,45.85
			c0.17-0.07,0.35-0.1,0.55-0.1c0.3,0,0.53,0.07,0.7,0.2c0.17,0.13,0.23,0.27,0.2,0.4c-0.07,0.33-0.37,0.52-0.9,0.55
			c-0.23,0-0.47-0.07-0.7-0.2c-0.2-0.17-0.23-0.35-0.1-0.55c0.03-0.07,0.07-0.13,0.1-0.2h0.05C68.1,45.92,68.13,45.89,68.2,45.85z
			 M66.85,43.5c0.37-0.1,0.72-0.1,1.05,0c1,0.4,0.95,0.78-0.15,1.15c-0.23-0.03-0.52-0.1-0.85-0.2c-0.3-0.2-0.4-0.43-0.3-0.7
			c0.07-0.03,0.12-0.08,0.15-0.15c0-0.03,0.02-0.05,0.05-0.05L66.85,43.5z M70.5,42.35c0.03-0.03,0.07-0.05,0.1-0.05
			c0-0.03,0.02-0.05,0.05-0.05c0-0.07,0.02-0.1,0.05-0.1c0.23-0.07,0.45-0.1,0.65-0.1c0.3,0,0.53,0.07,0.7,0.2
			c0.1,0.13,0.13,0.27,0.1,0.4c0,0.13-0.05,0.23-0.15,0.3c-0.13,0.13-0.35,0.22-0.65,0.25c-0.27,0-0.52-0.08-0.75-0.25
			C70.4,42.82,70.37,42.62,70.5,42.35z M80,43.75c0-0.03,0.02-0.05,0.05-0.05c0.17-0.1,0.35-0.15,0.55-0.15
			c0.3,0,0.55,0.07,0.75,0.2c0.1,0.13,0.13,0.25,0.1,0.35c-0.03,0.37-0.32,0.57-0.85,0.6c-0.23,0-0.45-0.08-0.65-0.25
			c-0.2-0.13-0.25-0.32-0.15-0.55c0.07-0.03,0.12-0.07,0.15-0.1C79.95,43.77,79.97,43.75,80,43.75z M14.6,41.95
			c0.2,0,0.4,0.03,0.6,0.1c0.47-0.07,0.73-0.27,0.8-0.6c0.03-0.07,0.05-0.12,0.05-0.15c0.07,0.1,0.08,0.2,0.05,0.3
			c-0.03,0.33-0.32,0.52-0.85,0.55C15.02,42.15,14.8,42.08,14.6,41.95z M12.3,46.5c-0.03,0-0.05-0.02-0.05-0.05l-0.05-0.1
			c0-0.1,0-0.18,0-0.25c0-0.1,0.02-0.15,0.05-0.15c0.03-0.07,0.07-0.1,0.1-0.1c0-0.07,0.02-0.1,0.05-0.1l0.15-0.05
			c0.27-0.13,0.52-0.13,0.75,0c0.9,0.5,0.83,0.88-0.2,1.15c-0.13,0-0.27-0.03-0.4-0.1c-0.1-0.03-0.2-0.07-0.3-0.1
			c-0.03,0-0.05-0.03-0.05-0.1C12.32,46.55,12.3,46.53,12.3,46.5z M11.8,43.95c-0.27,0-0.5-0.08-0.7-0.25
			c-0.13-0.1-0.2-0.22-0.2-0.35c0.1-0.03,0.27-0.17,0.5-0.4c0.07-0.07,0.12-0.12,0.15-0.15c0.2-0.27,0.45-0.22,0.75,0.15
			c0.1,0.13,0.22,0.3,0.35,0.5C12.58,43.75,12.3,43.92,11.8,43.95z M13.75,43.95V43.9c-0.1-0.03-0.15-0.07-0.15-0.1
			c0-0.07,0-0.15,0-0.25c0-0.03,0.05-0.08,0.15-0.15c0.43,0,0.92,0,1.45,0c0.37,0.37,0.13,0.67-0.7,0.9c-0.13,0-0.27-0.02-0.4-0.05
			c-0.07-0.07-0.13-0.12-0.2-0.15c-0.07,0-0.1-0.02-0.1-0.05C13.77,44.05,13.75,44.02,13.75,43.95z M17.65,38.55
			c0-0.03,0.02-0.05,0.05-0.05l0.1-0.05c0.17-0.1,0.35-0.15,0.55-0.15c0.3,0,0.53,0.07,0.7,0.2c0.17,0.13,0.23,0.27,0.2,0.4
			c-0.07,0.33-0.37,0.53-0.9,0.6c-0.23,0-0.47-0.08-0.7-0.25c-0.2-0.17-0.23-0.35-0.1-0.55C17.58,38.6,17.62,38.55,17.65,38.55z
			 M20.4,46.1c-0.23-0.17-0.28-0.35-0.15-0.55c0.07-0.07,0.12-0.13,0.15-0.2h0.05c0-0.03,0.02-0.05,0.05-0.05
			c0.17-0.1,0.37-0.15,0.6-0.15c0.3,0,0.53,0.07,0.7,0.2c0.13,0.13,0.18,0.27,0.15,0.4c-0.07,0.33-0.35,0.53-0.85,0.6
			C20.83,46.35,20.6,46.27,20.4,46.1z M17.75,45.9c0-0.03,0.03-0.05,0.1-0.05l0.15-0.1c0.13-0.07,0.32-0.1,0.55-0.1
			c0.27,0,0.48,0.07,0.65,0.2c0.13,0.17,0.18,0.3,0.15,0.4c-0.07,0.33-0.33,0.53-0.8,0.6c-0.23,0-0.5-0.1-0.8-0.3
			c-0.2-0.13-0.23-0.3-0.1-0.5C17.68,45.98,17.72,45.94,17.75,45.9z M24.25,44.25c0.83,0.47,0.67,0.83-0.5,1.1c-0.03,0-0.1,0-0.2,0
			c-0.03,0-0.07,0-0.1,0c-0.27-0.07-0.47-0.2-0.6-0.4c-0.03-0.03-0.05-0.1-0.05-0.2c0.17,0.1,0.32,0.15,0.45,0.15
			c0.57-0.07,0.85-0.27,0.85-0.6C24.1,44.27,24.15,44.25,24.25,44.25z M32.75,47.5h0.1c0-0.03,0-0.07,0-0.1
			c0.2-0.07,0.38-0.1,0.55-0.1s0.3,0,0.4,0c0.13,0.03,0.23,0.1,0.3,0.2h0.1c0.1,0.13,0.13,0.25,0.1,0.35c0,0.1-0.03,0.17-0.1,0.2
			h-1.55c-0.13-0.1-0.13-0.23,0-0.4C32.68,47.58,32.72,47.53,32.75,47.5z M32.6,44.65c0.3,0,0.52,0.08,0.65,0.25
			c0.1,0.13,0.15,0.25,0.15,0.35c-0.03,0.33-0.3,0.53-0.8,0.6c-0.3,0-0.53-0.1-0.7-0.3c-0.23-0.13-0.3-0.3-0.2-0.5
			c0.03-0.07,0.1-0.12,0.2-0.15c0-0.07,0.02-0.12,0.05-0.15C32.12,44.69,32.33,44.65,32.6,44.65z M35,43.3c0.2,0,0.37,0.02,0.5,0.05
			c0.1,0.03,0.17,0.08,0.2,0.15c0.07,0.13,0.1,0.23,0.1,0.3c0,0.03,0,0.07,0,0.1c-0.03,0.33-0.3,0.52-0.8,0.55
			c-0.27,0-0.5-0.07-0.7-0.2c-0.23-0.13-0.3-0.32-0.2-0.55c0.07-0.1,0.13-0.15,0.2-0.15c0-0.03,0.02-0.05,0.05-0.05
			c0-0.03,0.03-0.07,0.1-0.1C34.58,43.33,34.77,43.3,35,43.3z M45.1,43.45c0.17-0.07,0.33-0.1,0.5-0.1c0.27,0,0.5,0.07,0.7,0.2
			c0.17,0.17,0.18,0.3,0.05,0.4c0,0.27-0.15,0.43-0.45,0.5c0.03,0.07,0.07,0.12,0.1,0.15c0.13,0.13,0.18,0.25,0.15,0.35
			c-0.07,0.37-0.33,0.57-0.8,0.6c-0.27,0-0.53-0.08-0.8-0.25c-0.2-0.13-0.23-0.32-0.1-0.55c0.03-0.07,0.07-0.1,0.1-0.1V44.6h0.05
			c0-0.03,0.05-0.07,0.15-0.1c0.07-0.03,0.18-0.07,0.35-0.1c-0.1,0-0.18-0.03-0.25-0.1c-0.23-0.13-0.27-0.32-0.1-0.55
			c0.03-0.03,0.07-0.08,0.1-0.15c0-0.03,0.03-0.05,0.1-0.05L45,43.5L45.1,43.45z M43.2,45.85c0.13,0.17,0.18,0.3,0.15,0.4
			c-0.03,0.33-0.33,0.53-0.9,0.6c-0.23,0-0.45-0.1-0.65-0.3c-0.23-0.13-0.3-0.3-0.2-0.5c0.03-0.07,0.1-0.12,0.2-0.15
			c0-0.03,0.02-0.05,0.05-0.05l0.05-0.1c0.2-0.07,0.38-0.1,0.55-0.1C42.72,45.65,42.97,45.72,43.2,45.85z M50.65,45.65v-0.1
			c0.2-0.13,0.38-0.2,0.55-0.2c0.33,0,0.58,0.1,0.75,0.3c0.13,0.13,0.18,0.23,0.15,0.3c-0.03,0.37-0.33,0.57-0.9,0.6
			c-0.23,0-0.47-0.07-0.7-0.2c-0.2-0.13-0.22-0.33-0.05-0.6c0-0.03,0.02-0.07,0.05-0.1H50.65z M48.6,47.6c0-0.03,0.03-0.05,0.1-0.05
			V47.5c0.17-0.1,0.37-0.15,0.6-0.15c0.3,0,0.55,0.07,0.75,0.2c0.1,0.13,0.13,0.27,0.1,0.4v0.1H48.4c-0.03-0.1-0.02-0.22,0.05-0.35
			C48.52,47.67,48.57,47.64,48.6,47.6z M47.75,50.2v0.1c0.03,0,0.07,0.03,0.1,0.1c0.17,0.2,0.13,0.38-0.1,0.55
			c-0.23,0.17-0.48,0.25-0.75,0.25c-0.47-0.03-0.72-0.23-0.75-0.6c-0.07-0.1-0.03-0.23,0.1-0.4c0.03-0.03,0.07-0.07,0.1-0.1
			c-0.27-0.1-0.42-0.27-0.45-0.5c-0.1-0.13-0.07-0.27,0.1-0.4c0.17-0.13,0.4-0.2,0.7-0.2c0.13,0,0.28,0.03,0.45,0.1l0.1,0.05
			c0.03,0,0.05,0.02,0.05,0.05c0.07,0,0.1,0.02,0.1,0.05c0.03,0.03,0.07,0.08,0.1,0.15c0.13,0.23,0.1,0.42-0.1,0.55
			C47.43,49.98,47.35,50,47.25,50c0.17,0.03,0.28,0.08,0.35,0.15C47.7,50.15,47.75,50.17,47.75,50.2z M50.5,51.5
			c0.03,0,0.05,0.02,0.05,0.05c0.07,0,0.12,0.05,0.15,0.15c0.13,0.17,0.08,0.33-0.15,0.5c-0.2,0.17-0.42,0.25-0.65,0.25
			c-0.57-0.03-0.87-0.22-0.9-0.55c-0.03-0.13,0.03-0.27,0.2-0.4c0.2-0.13,0.43-0.2,0.7-0.2c0.2,0,0.38,0.03,0.55,0.1L50.5,51.5z
			 M41.95,51.4c0.13,0.23,0.1,0.42-0.1,0.55c-0.23,0.17-0.48,0.25-0.75,0.25c-0.53-0.03-0.82-0.23-0.85-0.6
			c-0.03-0.07,0.02-0.18,0.15-0.35c0.17-0.17,0.4-0.25,0.7-0.25c0.2,0,0.38,0.05,0.55,0.15c0.03,0.03,0.05,0.07,0.05,0.1
			c0.1,0,0.15,0.02,0.15,0.05C41.88,51.33,41.92,51.37,41.95,51.4z M42.2,53.15c0.2-0.13,0.45-0.2,0.75-0.2
			c0.2,0,0.38,0.05,0.55,0.15l0.05,0.05c0.03,0,0.05,0.03,0.05,0.1c0.03,0.03,0.08,0.07,0.15,0.1c0.1,0.1,0.12,0.22,0.05,0.35
			c-0.57,0.43-1.13,0.43-1.7,0c0-0.03,0-0.08,0-0.15C42.07,53.45,42.1,53.32,42.2,53.15z M34.55,50.95c0.23,0,0.42,0.05,0.55,0.15
			l0.05,0.05c0.07,0,0.1,0.02,0.1,0.05c0.03,0.03,0.08,0.08,0.15,0.15c0.13,0.23,0.08,0.42-0.15,0.55c-0.23,0.17-0.47,0.25-0.7,0.25
			c-0.5-0.07-0.78-0.27-0.85-0.6c-0.03-0.13,0.02-0.27,0.15-0.4H33.8c-0.57-0.1-0.85-0.32-0.85-0.65c-0.07-0.1-0.02-0.22,0.15-0.35
			c0.17-0.13,0.4-0.2,0.7-0.2c0.2,0,0.38,0.03,0.55,0.1c0.03,0.03,0.05,0.07,0.05,0.1h0.1c0.03,0.03,0.07,0.08,0.1,0.15
			c0.17,0.23,0.13,0.43-0.1,0.6c-0.06,0.03-0.11,0.05-0.15,0.05C34.39,50.95,34.45,50.95,34.55,50.95z M26.15,53.05
			c-0.47-0.07-0.75-0.27-0.85-0.6c0-0.1,0.07-0.22,0.2-0.35c0.17-0.13,0.38-0.2,0.65-0.2c0.2,0,0.38,0.02,0.55,0.05
			c0.07,0.07,0.1,0.12,0.1,0.15c0.07,0,0.1,0.02,0.1,0.05c0.03,0.03,0.07,0.07,0.1,0.1c0.17,0.23,0.13,0.42-0.1,0.55
			C26.63,52.97,26.38,53.05,26.15,53.05z M24.6,50.3c-1.13-0.37-1.18-0.75-0.15-1.15c0.33-0.13,0.68-0.13,1.05,0v0.05
			c0.03,0,0.05,0.02,0.05,0.05c0.07,0.03,0.13,0.08,0.2,0.15c0.1,0.27,0,0.48-0.3,0.65C25.12,50.15,24.83,50.23,24.6,50.3z
			 M21.15,48.2c0.07,0,0.1,0.02,0.1,0.05c0.03,0,0.07,0.03,0.1,0.1c0.17,0.23,0.13,0.42-0.1,0.55c-0.27,0.17-0.52,0.25-0.75,0.25
			c-0.5-0.03-0.78-0.22-0.85-0.55c-0.03-0.13,0.02-0.27,0.15-0.4c0.17-0.13,0.4-0.2,0.7-0.2c0.2,0,0.38,0.03,0.55,0.1
			C21.12,48.14,21.15,48.17,21.15,48.2z M22.85,51.55c0.17-0.13,0.42-0.2,0.75-0.2c0.2,0,0.4,0.05,0.6,0.15l0.05,0.05
			c0.03,0,0.05,0.02,0.05,0.05c0.03,0.07,0.07,0.12,0.1,0.15c0.13,0.23,0.1,0.42-0.1,0.55c-0.2,0.17-0.43,0.25-0.7,0.25
			c-0.53-0.07-0.83-0.27-0.9-0.6C22.67,51.82,22.72,51.69,22.85,51.55z M18.7,51h0.05c0.03,0.07,0.07,0.12,0.1,0.15
			c0.13,0.23,0.1,0.42-0.1,0.55l-0.05,0.05h0.05c0.03,0,0.05,0.03,0.05,0.1c0.03,0,0.05,0.02,0.05,0.05c0.07,0,0.12,0.02,0.15,0.05
			c0.13,0.43-0.07,0.7-0.6,0.8c-0.37,0.03-0.7,0.08-1,0.15c-0.5-0.07-0.78-0.27-0.85-0.6c0-0.1,0.07-0.23,0.2-0.4
			c0.2-0.1,0.4-0.17,0.6-0.2c-0.07-0.1-0.1-0.22-0.1-0.35c-0.1-0.1-0.07-0.22,0.1-0.35c0.17-0.17,0.38-0.25,0.65-0.25
			s0.47,0.07,0.6,0.2C18.67,50.95,18.7,50.97,18.7,51z M16.85,49.9c0.13,0.2,0.1,0.38-0.1,0.55c-0.23,0.17-0.5,0.25-0.8,0.25
			c-0.5-0.07-0.77-0.27-0.8-0.6c-0.03-0.1,0-0.22,0.1-0.35c0.2-0.17,0.43-0.25,0.7-0.25c0.2,0,0.4,0.05,0.6,0.15
			c0.07,0.03,0.1,0.07,0.1,0.1h0.1C16.78,49.78,16.82,49.83,16.85,49.9z M12.55,49.55c0.13,0.23,0.08,0.42-0.15,0.55
			c-0.2,0.17-0.42,0.25-0.65,0.25c-0.57-0.03-0.85-0.23-0.85-0.6c-0.03-0.1,0-0.22,0.1-0.35c0.17-0.17,0.42-0.25,0.75-0.25
			c0.2,0,0.38,0.05,0.55,0.15c0.03,0.03,0.05,0.07,0.05,0.1h0.05C12.43,49.44,12.48,49.48,12.55,49.55z M80.95,48.6
			c0.23,0.2,0.4,0.33,0.5,0.4c0,0.13-0.07,0.25-0.2,0.35c-0.2,0.17-0.43,0.25-0.7,0.25c-0.5-0.07-0.77-0.23-0.8-0.5
			c0.1-0.2,0.2-0.37,0.3-0.5H80.95z M78.75,49.15c0,0.1,0,0.18,0,0.25c0,0.03-0.03,0.08-0.1,0.15c0,0.03-0.02,0.05-0.05,0.05
			c0,0.03-0.02,0.07-0.05,0.1c0,0.03-0.02,0.05-0.05,0.05c-0.1,0.03-0.18,0.07-0.25,0.1c-0.13,0.07-0.27,0.1-0.4,0.1
			c-0.83-0.23-1.07-0.53-0.7-0.9c0.47-0.43,0.97-0.43,1.5,0L78.75,49.15z M80,51.5l0.05,0.05c0.07,0.03,0.1,0.08,0.1,0.15
			c0,0.1,0,0.18,0,0.25l-0.1,0.15c0,0.03-0.02,0.05-0.05,0.05v0.05c0,0.03-0.02,0.05-0.05,0.05c-0.1,0.07-0.2,0.12-0.3,0.15
			c-0.13,0.03-0.27,0.05-0.4,0.05c-1.03-0.27-1.1-0.63-0.2-1.1c0.27-0.13,0.52-0.13,0.75,0c0.1,0,0.15,0.02,0.15,0.05
			C79.98,51.4,80,51.44,80,51.5z M73.9,51.9c0.03,0,0.05,0.02,0.05,0.05l0.1,0.15c0.1,0.2,0.07,0.38-0.1,0.55
			c-0.27,0.17-0.52,0.25-0.75,0.25c-0.1,0-0.18-0.02-0.25-0.05c-0.03,0.03-0.08,0.05-0.15,0.05c-0.13,0-0.28-0.03-0.45-0.1
			c-0.1-0.03-0.23-0.07-0.4-0.1c-1.03-0.57-1.08-1.05-0.15-1.45c0.23-0.1,0.47-0.1,0.7,0c0.3,0.17,0.55,0.32,0.75,0.45
			c0.17,0,0.35,0.05,0.55,0.15L73.9,51.9z M68.15,49.85c0.07,0.03,0.1,0.07,0.1,0.1c0,0.33,0.28,0.52,0.85,0.55
			c0.13,0,0.3-0.03,0.5-0.1c0,0.07-0.03,0.12-0.1,0.15c-0.13,0.23-0.33,0.38-0.6,0.45c-0.03,0-0.07,0-0.1,0c-0.1,0-0.17,0-0.2,0
			C67.43,50.73,67.28,50.35,68.15,49.85z M59.05,50.5c0.17-0.13,0.4-0.2,0.7-0.2c0.27,0,0.48,0.03,0.65,0.1
			c0.03,0.03,0.05,0.07,0.05,0.1h0.05c0.07,0.03,0.13,0.08,0.2,0.15c0.07,0.23,0,0.42-0.2,0.55c-0.2,0.2-0.45,0.3-0.75,0.3
			c-0.5-0.1-0.77-0.3-0.8-0.6C58.92,50.77,58.95,50.64,59.05,50.5z M57.95,49.15h0.1c0.07,0.03,0.13,0.08,0.2,0.15
			c0.1,0.23,0.03,0.42-0.2,0.55c-0.2,0.17-0.43,0.25-0.7,0.25c-0.5-0.07-0.77-0.27-0.8-0.6c0-0.03,0-0.07,0-0.1
			c0-0.07,0.03-0.15,0.1-0.25c0.03-0.07,0.1-0.12,0.2-0.15c0.17-0.07,0.33-0.1,0.5-0.1c0.23,0,0.42,0.05,0.55,0.15
			C57.93,49.08,57.95,49.12,57.95,49.15z M58.55,52.95c0.1-0.03,0.22-0.05,0.35-0.05c0.2,0,0.4,0.03,0.6,0.1c0,0.03,0,0.07,0,0.1
			c0.03,0,0.05,0.02,0.05,0.05c0.03,0,0.08,0.05,0.15,0.15c0.1,0.13,0.1,0.27,0,0.4c-0.67,0.33-1.18,0.33-1.55,0
			c-0.07-0.07-0.1-0.13-0.1-0.2c-0.07-0.1-0.03-0.22,0.1-0.35c0.07,0,0.1-0.02,0.1-0.05C58.32,53,58.42,52.95,58.55,52.95z"/>
		<path fill-rule="evenodd" clip-rule="evenodd" fill="#5B5C64" d="M31.25,34.9h0.05c0-0.07,0.02-0.1,0.05-0.1
			c0.17-0.07,0.35-0.1,0.55-0.1c0.27,0,0.52,0.07,0.75,0.2c0.13,0.13,0.17,0.27,0.1,0.4c-0.03,0.3-0.32,0.48-0.85,0.55
			c-0.23,0-0.45-0.08-0.65-0.25c-0.23-0.13-0.28-0.32-0.15-0.55C31.13,34.98,31.18,34.94,31.25,34.9z M36.98,41.5
			c0.03,0,0.11,0,0.23,0c0.17,0.03,0.28,0.1,0.35,0.2c0.2,0.13,0.28,0.27,0.25,0.4c0,0.03-0.03,0.1-0.1,0.2
			c-0.13,0.23-0.38,0.37-0.75,0.4c-0.27,0-0.48-0.08-0.65-0.25h-0.05c-0.27-0.13-0.32-0.32-0.15-0.55c0.07-0.07,0.12-0.12,0.15-0.15
			c0-0.03,0.02-0.05,0.05-0.05l0.05-0.05c0.03-0.03,0.1-0.07,0.2-0.1c0.1-0.03,0.23-0.05,0.4-0.05H36.98z M30.4,39.85
			c0.1,0.17,0.13,0.3,0.1,0.4c-0.03,0.33-0.3,0.53-0.8,0.6c-0.23,0-0.47-0.1-0.7-0.3c-0.23-0.13-0.28-0.3-0.15-0.5
			c0.07-0.07,0.12-0.12,0.15-0.15c0-0.03,0.03-0.05,0.1-0.05l0.05-0.1c0.17-0.07,0.35-0.1,0.55-0.1C30,39.65,30.23,39.72,30.4,39.85
			z M43.5,40.1c-0.13-0.1-0.37-0.15-0.7-0.15c-0.17,0-0.35,0.05-0.55,0.15c0,0.03,0,0.07,0,0.1c-0.03-0.03-0.08-0.07-0.15-0.1
			c-0.03,0-0.07-0.02-0.1-0.05c-0.13-0.2-0.17-0.37-0.1-0.5c0-0.03,0.03-0.07,0.1-0.1l0.05-0.05c0.5-0.47,0.92-0.52,1.25-0.15h0.05
			c0.07,0,0.15,0.03,0.25,0.1c0.1,0.13,0.13,0.27,0.1,0.4v0.1C43.67,39.92,43.6,40,43.5,40.1z"/>
		<path fill-rule="evenodd" clip-rule="evenodd" fill="#6B6D73" d="M36.4,34.8c0.1-0.03,0.23-0.05,0.4-0.05c0.3,0,0.53,0.07,0.7,0.2
			c0.13,0.13,0.15,0.27,0.05,0.4c-0.03,0.33-0.28,0.53-0.75,0.6c-0.27,0-0.5-0.08-0.7-0.25c-0.23-0.13-0.27-0.33-0.1-0.6
			c0.03-0.03,0.07-0.07,0.1-0.1c0-0.03,0.03-0.05,0.1-0.05c0-0.03,0.02-0.05,0.05-0.05C36.28,34.83,36.33,34.8,36.4,34.8z
			 M21.75,39.55c-0.07-0.13-0.07-0.28,0-0.45c0.03-0.07,0.08-0.1,0.15-0.1c0-0.03,0.02-0.05,0.05-0.05c0-0.03,0.02-0.07,0.05-0.1
			c0.2-0.1,0.4-0.15,0.6-0.15c0.33,0,0.58,0.08,0.75,0.25c0.1,0.13,0.13,0.25,0.1,0.35c-0.03,0.37-0.32,0.57-0.85,0.6h-0.05
			C22.42,39.67,22.15,39.55,21.75,39.55z M23.75,41.95c0.77,0.43,0.85,0.77,0.25,1c-0.13,0.07-0.3,0.13-0.5,0.2
			c-0.03-0.03-0.08-0.05-0.15-0.05c-0.07,0-0.13,0-0.2,0c-0.07-0.03-0.15-0.08-0.25-0.15c-0.13-0.07-0.25-0.17-0.35-0.3
			c-0.07-0.2-0.07-0.37,0-0.5c0.03-0.03,0.07-0.07,0.1-0.1c0-0.07,0.05-0.1,0.15-0.1l0.05-0.05C23.18,41.77,23.48,41.78,23.75,41.95
			z M36.3,38.45c0-0.07,0.02-0.1,0.05-0.1c0.3-0.13,0.62-0.18,0.95-0.15c0.1,0,0.17,0,0.2,0c0.23,0.07,0.42,0.15,0.55,0.25
			c0.1,0.13,0.13,0.28,0.1,0.45c-0.17,0.4-0.57,0.57-1.2,0.5c-0.43,0-0.72-0.13-0.85-0.4c-0.07-0.17-0.07-0.32,0-0.45l0.1-0.05h0.05
			C36.25,38.47,36.27,38.45,36.3,38.45z M36.6,41c0,0.07,0.03,0.1,0.1,0.1c0.17,0.17,0.35,0.27,0.55,0.3
			c-0.06,0.06-0.16,0.1-0.27,0.1h-0.02c-0.17,0-0.3,0.02-0.4,0.05c-0.1,0-0.18-0.02-0.25-0.05c-0.07,0-0.15-0.03-0.25-0.1
			c-0.03,0-0.05-0.02-0.05-0.05l-0.15-0.05c-0.03,0-0.05-0.02-0.05-0.05l-0.05-0.15c0.17,0.03,0.32,0.05,0.45,0.05
			C36.33,41.12,36.47,41.07,36.6,41z M31.6,40.5c0-0.03,0.02-0.05,0.05-0.05c0-0.03,0.02-0.07,0.05-0.1c0.3-0.13,0.6-0.13,0.9,0
			c0.8,0.5,0.68,0.88-0.35,1.15c-0.13,0-0.25-0.02-0.35-0.05s-0.18-0.08-0.25-0.15H31.6c-0.03-0.03-0.05-0.08-0.05-0.15
			c-0.07,0-0.1-0.02-0.1-0.05c-0.03-0.03-0.05-0.07-0.05-0.1c0-0.07,0-0.15,0-0.25c0-0.03,0.02-0.07,0.05-0.1
			C31.52,40.58,31.57,40.53,31.6,40.5z M31.35,37.25c0.13,0.13,0.17,0.25,0.1,0.35c-0.03,0.37-0.33,0.57-0.9,0.6
			c-0.23,0-0.45-0.08-0.65-0.25c-0.2-0.13-0.23-0.32-0.1-0.55c0.03-0.07,0.07-0.1,0.1-0.1c0-0.03,0.02-0.05,0.05-0.05
			c0-0.03,0.02-0.07,0.05-0.1c0.17-0.07,0.35-0.1,0.55-0.1C30.92,37.05,31.18,37.12,31.35,37.25z M41,36.5
			c-0.07,0.3-0.35,0.48-0.85,0.55c-0.23,0-0.48-0.1-0.75-0.3c-0.2-0.13-0.23-0.32-0.1-0.55c0.03-0.03,0.07-0.07,0.1-0.1
			c0-0.03,0.05-0.05,0.15-0.05c0-0.03,0.02-0.05,0.05-0.05c0.1-0.03,0.18-0.07,0.25-0.1c0.23,0.07,0.55,0.1,0.95,0.1
			c0.03,0,0.05,0.02,0.05,0.05C40.98,36.19,41.03,36.33,41,36.5z M43.7,39.85c0.13,0.17,0.18,0.3,0.15,0.4c0,0.03,0,0.07,0,0.1
			c-0.07-0.03-0.12-0.08-0.15-0.15c-0.03-0.03-0.1-0.07-0.2-0.1C43.6,40,43.67,39.92,43.7,39.85z M42.1,40.3c0-0.07,0-0.13,0-0.2
			c0.07,0.03,0.12,0.07,0.15,0.1L42.1,40.3z M37.7,42.3h0.1c0.13,0.17,0.17,0.3,0.1,0.4c0,0.1-0.02,0.18-0.05,0.25H37.8
			c-0.17,0.13-0.35,0.23-0.55,0.3c0-0.07-0.03-0.15-0.1-0.25v-0.05c-0.03,0-0.08,0-0.15,0c-0.13-0.1-0.33-0.15-0.6-0.15
			c-0.07,0-0.13,0-0.2,0c-0.07-0.1-0.05-0.2,0.05-0.3l0.05-0.05c0.17,0.17,0.38,0.25,0.65,0.25C37.32,42.67,37.57,42.53,37.7,42.3z
			 M37.25,41.4c0.03,0.03,0.1,0.05,0.2,0.05c0.4,0,0.7-0.1,0.9-0.3c-0.13,0.17-0.13,0.33,0,0.5c0,0.03,0.02,0.05,0.05,0.05
			l0.05,0.05c0,0.03,0.02,0.05,0.05,0.05c0.1,0.07,0.17,0.1,0.2,0.1c-0.13,0.13-0.32,0.2-0.55,0.2c-0.1,0-0.22,0-0.35,0
			c0.03-0.13-0.05-0.27-0.25-0.4c-0.07-0.1-0.18-0.17-0.35-0.2L37.25,41.4z M38.4,41.1c0.03-0.07,0.05-0.13,0.05-0.2
			c0,0.03,0.02,0.05,0.05,0.05C38.47,40.98,38.43,41.03,38.4,41.1z M44.55,44.6c-0.17-0.03-0.33-0.1-0.5-0.2
			c-0.2-0.17-0.23-0.35-0.1-0.55c0.03-0.07,0.07-0.12,0.1-0.15h0.1c0-0.07,0.02-0.12,0.05-0.15c0.17-0.07,0.37-0.1,0.6-0.1
			c0.1,0,0.2,0,0.3,0L45,43.5l-0.05,0.05c-0.07,0-0.1,0.02-0.1,0.05c-0.03,0.07-0.07,0.12-0.1,0.15c-0.17,0.23-0.13,0.42,0.1,0.55
			c0.07,0.07,0.15,0.1,0.25,0.1c-0.17,0.03-0.28,0.07-0.35,0.1c-0.1,0.03-0.15,0.07-0.15,0.1H44.55z M47.75,50.2
			c0-0.03-0.05-0.05-0.15-0.05c-0.07-0.07-0.18-0.12-0.35-0.15c0.1,0,0.18-0.02,0.25-0.05c0.2-0.13,0.23-0.32,0.1-0.55
			c-0.03-0.07-0.07-0.12-0.1-0.15c0-0.03-0.03-0.05-0.1-0.05c0-0.03-0.02-0.05-0.05-0.05l-0.1-0.05c0.1,0,0.2,0,0.3,0
			c0.2,0,0.4,0.03,0.6,0.1c0,0.03,0,0.07,0,0.1c0.1,0,0.15,0.02,0.15,0.05c0.03,0.03,0.05,0.07,0.05,0.1
			c0.17,0.23,0.15,0.42-0.05,0.55C48.13,50.1,47.95,50.17,47.75,50.2z"/>
		<path fill-rule="evenodd" clip-rule="evenodd" fill="#6B6C74" d="M37.25,41.4l-0.05,0.1c-0.12,0-0.19,0-0.23,0
			C37.09,41.5,37.19,41.47,37.25,41.4z"/>
	</g>
	<g>
		<path fill-rule="evenodd" clip-rule="evenodd" fill="#6B6C74" d="M87.4,34.25v0.05c-0.06,0-0.14,0-0.23,0
			C87.26,34.3,87.34,34.28,87.4,34.25z"/>
		<path fill-rule="evenodd" clip-rule="evenodd" fill="#C61C1C" d="M86.95,34.15c-0.17-0.4-0.02-0.8,0.45-1.2h0.05
			c0.67,0.3,0.6,0.68-0.2,1.15C87.18,34.14,87.08,34.15,86.95,34.15z M89.45,33.65c-0.03,0.2-0.25,0.45-0.65,0.75
			c0.2-0.27,0.4-0.5,0.6-0.7L89.45,33.65z M92.9,33.3c-0.3-0.03-0.33-0.15-0.1-0.35c0.27-0.17,0.47-0.33,0.6-0.5
			c0.53,0.13,1,0.27,1.4,0.4v0.05c-0.33,0.57-0.97,0.73-1.9,0.5C92.9,33.37,92.9,33.33,92.9,33.3z M96.6,34.85
			c0.37-0.03,0.63-0.03,0.8,0c0.43,0.03,0.17,0.28-0.8,0.75c-0.23,0-0.43-0.07-0.6-0.2c-0.33-0.3-0.28-0.47,0.15-0.5
			C96.35,34.87,96.5,34.85,96.6,34.85z M96,37.6c-0.03-0.23,0.07-0.37,0.3-0.4c2,0,2.28,0.48,0.85,1.45
			C96.38,38.52,96,38.17,96,37.6z M90.15,36.1c-0.47-0.43-0.32-0.88,0.45-1.35c0.43,0.37,0.3,0.8-0.4,1.3
			C90.2,36.08,90.18,36.1,90.15,36.1z M90.05,43.25c-0.8-0.37-0.7-0.55,0.3-0.55c2.4,0,2.95,0.38,1.65,1.15
			C91.23,43.75,90.58,43.55,90.05,43.25z M91.2,40.65c-0.27-0.03-0.45-0.1-0.55-0.2c-0.33-0.13-0.43-0.38-0.3-0.75
			c0.1-0.23,0.25-0.33,0.45-0.3c1.63,0,1.88,0.37,0.75,1.1C91.42,40.53,91.3,40.58,91.2,40.65z M111.75,33
			c1.93-0.27,2.27,0.02,1,0.85c-0.43-0.07-0.78-0.23-1.05-0.5C111.47,33.15,111.48,33.03,111.75,33z M115.2,34.15
			c1.63-0.3,1.83-0.08,0.6,0.65c-0.23,0-0.48-0.08-0.75-0.25C114.82,34.35,114.87,34.22,115.2,34.15z M98.5,32.7
			c0.6,0.37,0.38,0.58-0.65,0.65V33.3c0.13-0.1,0.27-0.22,0.4-0.35C98.32,32.85,98.4,32.77,98.5,32.7z M106.05,33.2
			c-0.2-0.23-0.12-0.38,0.25-0.45c2.17-0.23,2.42,0.05,0.75,0.85C106.58,33.6,106.25,33.47,106.05,33.2z M100.25,40.65
			c-0.17,0.17-0.42,0.33-0.75,0.5c-0.03,0-0.07-0.02-0.1-0.05c-0.33-0.07-0.6-0.2-0.8-0.4c-0.03-0.03-0.07-0.07-0.1-0.1
			c0-0.03-0.02-0.05-0.05-0.05c-0.27-0.27-0.22-0.42,0.15-0.45c0.73-0.03,1.27,0.02,1.6,0.15C100.4,40.35,100.42,40.48,100.25,40.65
			z M113.4,41.2c-0.23,0-0.45-0.07-0.65-0.2c-0.1-0.03-0.15-0.07-0.15-0.1c-0.1-0.17-0.02-0.28,0.25-0.35
			c1.37-0.23,1.73-0.12,1.1,0.35C113.82,41.03,113.63,41.14,113.4,41.2z M107.35,38.8c1.6-0.33,1.75-0.12,0.45,0.65
			c-0.23,0-0.43-0.07-0.6-0.2C106.93,39.02,106.98,38.87,107.35,38.8z M133.8,35.35c-0.23,0-0.45-0.08-0.65-0.25
			c-0.27-0.2-0.27-0.32,0-0.35C134.85,34.42,135.07,34.62,133.8,35.35z M114.9,43.45c-0.43-0.03-0.7-0.18-0.8-0.45
			c-0.07-0.23-0.02-0.37,0.15-0.4C116.05,42.27,116.27,42.55,114.9,43.45z M117.65,46.7c-0.4-0.3-0.35-0.5,0.15-0.6
			c1.93-0.3,2.07-0.05,0.4,0.75C117.97,46.85,117.78,46.8,117.65,46.7z M125.95,47.55c0.23,0.07,0.3,0.18,0.2,0.35
			c0,0.03-0.05,0.07-0.15,0.1c-0.2,0.13-0.4,0.2-0.6,0.2c-0.23-0.1-0.42-0.2-0.55-0.3C124.22,47.4,124.58,47.28,125.95,47.55z
			 M135,42.05c-0.03,0.03-0.15,0.12-0.35,0.25c-0.2,0.13-0.48,0.25-0.85,0.35c-0.93-0.2-1.15-0.58-0.65-1.15
			c0.1-0.13,0.22-0.2,0.35-0.2c0.03,0,0.12,0,0.25,0c0.1,0,0.18,0,0.25,0C134.97,41.47,135.3,41.72,135,42.05z M134.25,45.85
			c-0.5,0-0.8-0.12-0.9-0.35c-0.07-0.27-0.02-0.4,0.15-0.4C135.27,44.7,135.52,44.95,134.25,45.85z M147,37.5
			c-0.17-0.2-0.12-0.32,0.15-0.35c1.93-0.27,2.18,0,0.75,0.8C147.47,37.92,147.17,37.77,147,37.5z M139.4,32.15
			c1.6-0.3,1.8-0.08,0.6,0.65c-0.27,0-0.5-0.07-0.7-0.2C139,32.37,139.03,32.22,139.4,32.15z M140.15,47.7
			c-0.2,0.2-0.47,0.33-0.8,0.4h-0.05c-0.37-0.13-0.62-0.28-0.75-0.45c-0.17-0.2-0.15-0.35,0.05-0.45c0.3-0.1,0.82-0.15,1.55-0.15
			c0.4,0.03,0.47,0.2,0.2,0.5c-0.03,0-0.05,0.02-0.05,0.05C140.23,47.64,140.18,47.67,140.15,47.7z M147.6,47.65
			c-0.13-0.07-0.27-0.12-0.4-0.15c-1.13-0.73-0.87-1.12,0.8-1.15c0.2-0.03,0.35,0.08,0.45,0.35c0.1,0.33,0,0.58-0.3,0.75
			C148.02,47.55,147.83,47.62,147.6,47.65z M148.75,50.2c-0.57,0.33-1.22,0.55-1.95,0.65c-1.33-0.73-0.78-1.1,1.65-1.1
			C149.42,49.75,149.52,49.9,148.75,50.2z M123.9,50.45c-1.37-0.9-1.17-1.18,0.6-0.85c0.17,0,0.22,0.13,0.15,0.4
			C124.55,50.3,124.3,50.45,123.9,50.45z M121.15,53.65c-0.13,0.1-0.32,0.15-0.55,0.15c-1.7-0.8-1.58-1.05,0.35-0.75
			C121.48,53.15,121.55,53.35,121.15,53.65z M104.15,49.3c-0.2-0.13-0.33-0.23-0.4-0.3c-0.3-0.3,0.05-0.55,1.05-0.75
			c0.07,0,0.15,0,0.25,0c0.1,0,0.17,0,0.2,0c0.13,0.03,0.27,0.12,0.4,0.25c0.47,0.53,0.25,0.92-0.65,1.15
			C104.63,49.55,104.35,49.44,104.15,49.3z M105.4,52.45c-0.1,0.27-0.38,0.4-0.85,0.4c-1.27-0.9-1.03-1.17,0.7-0.8
			C105.45,52.08,105.5,52.22,105.4,52.45z"/>
		<path fill-rule="evenodd" clip-rule="evenodd" fill="#E73F3F" d="M97.4,34.85c-0.17-0.03-0.43-0.03-0.8,0
			c-0.1-0.07-0.22-0.12-0.35-0.15c0.13-0.13,0.2-0.25,0.2-0.35v-0.1V34c0.1,0.1,0.2,0.17,0.3,0.2c-0.1,0-0.2,0.02-0.3,0.05
			c0.1,0,0.2,0,0.3,0C97.05,34.48,97.27,34.69,97.4,34.85z"/>
		<path fill-rule="evenodd" clip-rule="evenodd" fill="#E43A3A" d="M92.5,40.5l0.15-0.05c1.07-0.13,1.58-0.1,1.55,0.1
			c-0.03,0.17-0.35,0.45-0.95,0.85c-0.5-0.03-0.8-0.2-0.9-0.5C92.28,40.7,92.33,40.57,92.5,40.5z M87.05,37.3
			c-0.03-0.37,0.15-0.68,0.55-0.95l0.1-0.1c0.3,0.33,0.12,0.67-0.55,1C87.15,37.28,87.12,37.3,87.05,37.3z M88.2,39.25
			c-0.2,0.27-0.45,0.52-0.75,0.75c-0.03,0.07-0.07,0.12-0.1,0.15c-0.43-0.1-0.85-0.27-1.25-0.5c0.27-0.23,0.5-0.45,0.7-0.65
			c0.03-0.07,0.05-0.12,0.05-0.15c0.4,0.1,0.78,0.22,1.15,0.35C88.1,39.23,88.17,39.25,88.2,39.25z M95.25,44.15
			c-0.3,0-0.57-0.08-0.8-0.25c-0.3-0.23-0.28-0.38,0.05-0.45C96.27,43.15,96.52,43.39,95.25,44.15z M94.8,46.55
			c-0.6-0.27-1-0.5-1.2-0.7h2.05C95.65,46.22,95.37,46.45,94.8,46.55z M98.75,32.75h-0.1C98.42,32.65,98.53,32.4,99,32
			c0.03-0.03,0.05-0.07,0.05-0.1C99.68,32.14,99.58,32.42,98.75,32.75z M105,33.75c-0.23,0.27-0.48,0.52-0.75,0.75
			c-1.27-0.4-1.38-1-0.35-1.8c0.23,0.33,0.53,0.68,0.9,1.05C104.83,33.75,104.9,33.75,105,33.75z M99.4,41.1
			c-0.17,0.13-0.38,0.25-0.65,0.35c-0.33,0-0.58-0.12-0.75-0.35c-0.17-0.2-0.08-0.32,0.25-0.35c0.13-0.03,0.25-0.05,0.35-0.05
			C98.8,40.9,99.07,41.03,99.4,41.1z M100.25,40.65c0.17-0.17,0.15-0.3-0.05-0.4c0.07-0.03,0.17-0.05,0.3-0.05
			c1.87-0.17,2.53,0,2,0.5c-0.13,0.13-0.3,0.28-0.5,0.45c-0.67-0.03-1.25-0.18-1.75-0.45V40.65z M104.65,44.55
			c0-0.1,0.03-0.15,0.1-0.15c0.77-0.03,1.27-0.42,1.5-1.15c0.57,0.1,0.85,0.18,0.85,0.25c0.07,0.03,0.17,0.05,0.3,0.05
			c2.9,0.3,3.1,0.67,0.6,1.1c-0.6,0-1.05-0.15-1.35-0.45C106.02,45.1,105.35,45.22,104.65,44.55z M118.25,33.45
			c-0.27-0.2-0.22-0.33,0.15-0.4c2.4-0.27,2.92,0.05,1.55,0.95C119.28,33.97,118.72,33.78,118.25,33.45z M134.35,34.4
			c-0.23,0-0.5-0.08-0.8-0.25c-0.2-0.2-0.17-0.33,0.1-0.4C135.32,33.42,135.55,33.64,134.35,34.4z M134,38.65
			c-0.33-0.23-0.32-0.4,0.05-0.5c1.6-0.3,1.77-0.08,0.5,0.65C134.35,38.8,134.17,38.75,134,38.65z M126.25,43.05
			c-0.3-0.23-0.28-0.37,0.05-0.4c1.57-0.3,1.75-0.08,0.55,0.65C126.65,43.3,126.45,43.22,126.25,43.05z M140.55,36.1
			c-0.3-0.23-0.28-0.37,0.05-0.4c1.63-0.33,1.85-0.12,0.65,0.65C141.02,36.35,140.78,36.27,140.55,36.1z M143.15,38.55
			c0.03-0.27,0.22-0.4,0.55-0.4c2.1,0,2.2,0.47,0.3,1.4C143.27,39.45,142.98,39.12,143.15,38.55z M139.35,48.1
			c0.33-0.07,0.6-0.2,0.8-0.4c0.13,0,0.27,0.02,0.4,0.05c0.33,0,0.4,0.12,0.2,0.35c-0.13,0.23-0.38,0.35-0.75,0.35
			C139.73,48.32,139.52,48.2,139.35,48.1z M138.6,47.2c-0.2,0.1-0.22,0.25-0.05,0.45v0.05c-0.5,0.23-1.07,0.37-1.7,0.4
			c-0.27-0.13-0.47-0.27-0.6-0.4c-0.53-0.5,0.15-0.68,2.05-0.55C138.4,47.15,138.5,47.17,138.6,47.2z M146.25,47.5
			c0.17,0.07,0.23,0.2,0.2,0.4c-0.13,0.27-0.45,0.42-0.95,0.45c-0.57-0.37-0.87-0.63-0.9-0.8c-0.03-0.23,0.47-0.27,1.5-0.1
			L146.25,47.5z M150.2,44.4c-0.1-0.5,0.17-0.97,0.8-1.4c0.3-0.23,0.62-0.27,0.95-0.1c1.37,0.67,0.98,1.28-1.15,1.85
			C150.5,44.75,150.3,44.64,150.2,44.4z M151.95,45.85L152,46c0.17,0.2,0.38,0.42,0.65,0.65c-0.4,0.23-0.82,0.38-1.25,0.45
			c-0.03-0.03-0.07-0.07-0.1-0.1c-0.27-0.23-0.5-0.48-0.7-0.75c0.03,0,0.08-0.02,0.15-0.05C151.12,46.07,151.52,45.95,151.95,45.85z
			 M144.3,50.45c0.3,0.07,0.32,0.22,0.05,0.45c-0.27,0.17-0.55,0.25-0.85,0.25C142.27,50.39,142.53,50.15,144.3,50.45z M134,51.35
			c0.07,0,0.1,0.07,0.1,0.2c-0.7,0.67-1.37,0.55-2-0.35c-0.3,0.33-0.73,0.5-1.3,0.5c-2.53-0.47-2.33-0.85,0.6-1.15
			c0.1,0,0.18-0.02,0.25-0.05c0-0.03,0.28-0.13,0.85-0.3C132.73,50.94,133.23,51.32,134,51.35z M112.5,49.65
			c0.3,0.07,0.32,0.2,0.05,0.4c-0.2,0.17-0.42,0.25-0.65,0.25C110.7,49.57,110.9,49.35,112.5,49.65z M87.8,50
			c0.63,0.43,0.88,0.9,0.75,1.4c-0.1,0.23-0.28,0.35-0.55,0.35c-2.17-0.57-2.55-1.18-1.15-1.85C87.18,49.73,87.5,49.77,87.8,50z"/>
		<path fill-rule="evenodd" clip-rule="evenodd" fill="#DF3333" d="M96.85,45.1c0.1-0.03,0.27,0.15,0.5,0.55
			c0.33,0.53-0.02,1.03-1.05,1.5c-0.1,0.03,0,0.1,0.3,0.2h-1.55C95.35,46.62,95.95,45.87,96.85,45.1z M142.45,54.15
			c-1.03-0.47-1.38-0.98-1.05-1.55c0.27-0.4,0.45-0.57,0.55-0.5c0.9,0.73,1.48,1.48,1.75,2.25h-1.5
			C142.47,54.25,142.55,54.19,142.45,54.15z"/>
		<path fill-rule="evenodd" clip-rule="evenodd" fill="#E03334" d="M99.7,36.9c-0.17-0.43-0.02-0.67,0.45-0.7
			c1.73-0.23,2.07,0.02,1,0.75C101.12,36.98,100.63,36.97,99.7,36.9z"/>
		<path fill-rule="evenodd" clip-rule="evenodd" fill="#E03B3A" d="M98.45,36.25l0.1-0.55c1.53-0.07,1.43,0.23-0.3,0.9
			C98.38,36.47,98.45,36.35,98.45,36.25z"/>
		<path fill-rule="evenodd" clip-rule="evenodd" fill="#DD3233" d="M97.05,36.75c1.6,0.4,1.6,0.55,0,0.45V36.75z"/>
		<path fill-rule="evenodd" clip-rule="evenodd" fill="#E43234" d="M99.95,44.6c1.13,0.3,1.55,0.67,1.25,1.1
			c-0.83,1.6-1.7,1.53-2.6-0.2c0.1-0.6,0.47-0.92,1.1-0.95L99.95,44.6z M139.05,51.55c0.63,0.03,1,0.35,1.1,0.95
			c-0.9,1.73-1.77,1.8-2.6,0.2c-0.3-0.47,0.12-0.83,1.25-1.1L139.05,51.55z"/>
		<path fill-rule="evenodd" clip-rule="evenodd" fill="#E84241" d="M98.5,47.15c-0.17-0.13-0.42-0.25-0.75-0.35
			c0.67-0.23,1.3-0.05,1.9,0.55H98.6C98.6,47.25,98.57,47.19,98.5,47.15z M141.05,53.75c-0.33,0.13-0.58,0.27-0.75,0.4
			c-0.1,0.03-0.15,0.1-0.15,0.2h-1C139.72,53.75,140.35,53.55,141.05,53.75z"/>
		<path fill-rule="evenodd" clip-rule="evenodd" fill="#E23032" d="M103.1,46.2l0.25,0.6c-0.23-0.1-0.8-0.33-1.7-0.7
			C102.32,45.4,102.8,45.44,103.1,46.2z M135.7,53.2c0.3-0.8,0.77-0.83,1.4-0.1c-0.9,0.33-1.47,0.55-1.7,0.65L135.7,53.2z"/>
		<path fill-rule="evenodd" clip-rule="evenodd" fill="#E03233" d="M116.25,36.25c0-0.1,0.02-0.15,0.05-0.15
			C119.73,35.8,119.72,35.85,116.25,36.25z"/>
		<path fill-rule="evenodd" clip-rule="evenodd" fill="#E33737" d="M108.25,36.45c0.77,0.63,0.38,1.32-1.15,2.05
			c0.53-0.57,0.73-1.1,0.6-1.6C107.53,36.2,107.72,36.05,108.25,36.45z M145.45,44.55c-0.4-1.3,0.17-1.95,1.7-1.95l-0.3,1.05
			c-0.07,0.17-0.12,0.3-0.15,0.4C146.1,45.22,145.68,45.39,145.45,44.55z M92.05,51.05c-0.03-0.1-0.07-0.23-0.1-0.4L91.6,49.6
			c1.53,0,2.12,0.65,1.75,1.95C93.12,52.39,92.68,52.22,92.05,51.05z"/>
		<path fill-rule="evenodd" clip-rule="evenodd" fill="#E13435" d="M110.9,37.85c-0.23-0.4-0.13-0.57,0.3-0.5
			C112.83,37.62,112.73,37.78,110.9,37.85z M121.1,37.15c0.9,2.07,0.18,1.98-2.15-0.25C120.12,36.44,120.83,36.52,121.1,37.15z"/>
		<path fill-rule="evenodd" clip-rule="evenodd" fill="#DF3737" d="M117.4,40.4c0-0.1,0.03-0.2,0.1-0.3
			c0.47-0.93,1.08-1.78,1.85-2.55c0,0.1-0.05,0.2-0.15,0.3C119.03,38.95,118.43,39.8,117.4,40.4z"/>
		<path fill-rule="evenodd" clip-rule="evenodd" fill="#E13B3B" d="M120.6,42.15l0.65,0.15c-0.3,0.57-1.18,0.78-2.65,0.65
			C118.77,42.08,119.43,41.82,120.6,42.15z M117.55,49.3l0.65-0.2c1.17-0.27,1.83,0.02,2,0.85C118.7,50.08,117.82,49.87,117.55,49.3
			z"/>
		<path fill-rule="evenodd" clip-rule="evenodd" fill="#E13334" d="M135,42.05c0.4-0.23,0.07,0.07-1,0.9c0-0.1,0.03-0.18,0.1-0.25
			c0.2-0.13,0.38-0.27,0.55-0.4C134.85,42.17,134.97,42.08,135,42.05z M103.75,49c0.07,0.07,0.2,0.17,0.4,0.3
			c0.17,0.13,0.35,0.27,0.55,0.4c0.07,0.07,0.1,0.15,0.1,0.25C103.73,49.12,103.38,48.8,103.75,49z"/>
		<path fill-rule="evenodd" clip-rule="evenodd" fill="#E43637" d="M119.65,36c0.07-0.6,0.42-0.83,1.05-0.7
			C121.97,35.53,121.62,35.77,119.65,36z"/>
		<path fill-rule="evenodd" clip-rule="evenodd" fill="#E03837" d="M145.55,47.35c0.2-1.23,0.4-1.23,0.6,0H145.55z M93.2,54.35h-0.6
			C92.83,53.12,93.03,53.12,93.2,54.35z"/>
	</g>
	<g>
		<linearGradient id="SVGID_1_" gradientUnits="userSpaceOnUse" x1="-7.9751" y1="42.8267" x2="129.8749" y2="42.8267">
			<stop  offset="0" style="stop-color:#000000;stop-opacity:0.498"/>
			<stop  offset="1" style="stop-color:#000000;stop-opacity:0"/>
		</linearGradient>
		<rect x="8.95" y="30.65" fill-rule="evenodd" clip-rule="evenodd" fill="url(#SVGID_1_)" width="146.7" height="24.35"/>
	</g>
	<g>
		<g>
			<g>
				<path fill-rule="evenodd" clip-rule="evenodd" fill-opacity="0.4706" d="M145.55,44.65c0.83,4.67,1.02,7.92,0.55,9.75H142
					c0-0.1,0-0.22,0-0.35c-0.4-2.17-0.53-4.65-0.4-7.45C141.7,43.77,143.02,43.12,145.55,44.65z"/>
			</g>
			<g>
				<path fill-rule="evenodd" clip-rule="evenodd" fill="#616161" d="M143.3,44.35c0.3,0,0.58,0.1,0.85,0.3
					c0.23,0.3,0.35,0.6,0.35,0.9v9.2c0.03,2.17-0.23,3.45-0.8,3.85c-0.57,0.67-1.28,0.7-2.15,0.1c-0.07-0.07-0.15-0.13-0.25-0.2
					c-0.13-0.03-1.3-1.3-3.5-3.8l3.35,0.05l0.5,0.7c0.17,0,0.3,0.08,0.4,0.25c0-0.3,0-0.6,0-0.9v-9.25c0-0.3,0.13-0.6,0.4-0.9
					C142.68,44.45,142.97,44.35,143.3,44.35z"/>
			</g>
			<g>
				
					<radialGradient id="SVGID_2_" cx="-681.7002" cy="-689.4487" r="4.7" gradientTransform="matrix(-1 0 0 1.0106 -538 749.235)" gradientUnits="userSpaceOnUse">
					<stop  offset="0" style="stop-color:#FFFFFF"/>
					<stop  offset="1" style="stop-color:#F9F9F9;stop-opacity:0"/>
				</radialGradient>
				<path fill-rule="evenodd" clip-rule="evenodd" fill="url(#SVGID_2_)" d="M143.6,47.65c0.03-0.03,0.07-0.03,0.1,0
					c0.03-0.03,0.07-0.03,0.1,0c0.03,0.03,0.03,0.07,0,0.1v9.5c0.03,0.03,0.03,0.07,0,0.1c-0.03,0.03-0.07,0.05-0.1,0.05
					s-0.07-0.02-0.1-0.05c-0.03-0.03-0.05-0.07-0.05-0.1v-9.5C143.55,47.72,143.57,47.69,143.6,47.65z"/>
				<path fill-rule="evenodd" clip-rule="evenodd" fill="#FFFFFF" d="M143.55,45.1c0.3,0.67,0.07,1.02-0.7,1.05
					c0-0.03-0.02-0.08-0.05-0.15c-0.07-0.47,0.13-0.8,0.6-1C143.43,45,143.48,45.03,143.55,45.1z"/>
			</g>
		</g>
	</g>
	<g>
		<g>
			<g>
				<path fill-rule="evenodd" clip-rule="evenodd" fill-opacity="0.4706" d="M24.2,45.4c2.23-1.5,3.4-0.85,3.5,1.95
					c0.1,2.8-0.03,5.28-0.4,7.45c0,0.13,0,0.27,0,0.4h-3.65C23.25,53.33,23.43,50.07,24.2,45.4z"/>
			</g>
			<g>
				<path fill-rule="evenodd" clip-rule="evenodd" fill="#616161" d="M24.55,46.3c0-0.3,0.12-0.6,0.35-0.9
					c0.23-0.2,0.47-0.3,0.7-0.3c0.3,0,0.57,0.1,0.8,0.3c0.23,0.3,0.35,0.6,0.35,0.9v9.25c0.03,0.3,0.1,0.92,0.2,1.85
					c0.1,0.97,0.12,1.7,0.05,2.2c-0.7,0.43-1.27,0.35-1.7-0.25c-0.5-0.4-0.75-1.68-0.75-3.85V46.3z"/>
			</g>
			<g>
				<path fill-rule="evenodd" clip-rule="evenodd" fill="#FFFFFF" d="M25,45.75c0.43,0.2,0.62,0.55,0.55,1.05
					c-0.03,0.03-0.05,0.07-0.05,0.1c-0.67-0.03-0.87-0.38-0.6-1.05C24.93,45.78,24.97,45.75,25,45.75z"/>
				
					<radialGradient id="SVGID_3_" cx="24.75" cy="53.2017" r="4.175" gradientTransform="matrix(1 0 0 1.1377 0 -7.3272)" gradientUnits="userSpaceOnUse">
					<stop  offset="0" style="stop-color:#FFFFFF"/>
					<stop  offset="1" style="stop-color:#F9F9F9;stop-opacity:0"/>
				</radialGradient>
				<path fill-rule="evenodd" clip-rule="evenodd" fill="url(#SVGID_3_)" d="M24.85,48.4c0.03,0.03,0.05,0.07,0.05,0.1V58
					c0,0.03-0.02,0.07-0.05,0.1c-0.03,0.03-0.07,0.05-0.1,0.05s-0.07-0.02-0.1-0.05c-0.03-0.03-0.03-0.07,0-0.1v-9.5
					c-0.03-0.03-0.03-0.07,0-0.1c0.03-0.03,0.07-0.03,0.1,0C24.78,48.37,24.82,48.37,24.85,48.4z"/>
			</g>
		</g>
	</g>
</g>
</svg>
