<?xml version="1.0" encoding="utf-8"?>
<!-- Generator: Adobe Illustrator 16.0.0, SVG Export Plug-In . SVG Version: 6.00 Build 0)  -->
<!DOCTYPE svg PUBLIC "-//W3C//DTD SVG 1.1//EN" "http://www.w3.org/Graphics/SVG/1.1/DTD/svg11.dtd">
<svg version="1.1" id="Layer_4" xmlns="http://www.w3.org/2000/svg" xmlns:xlink="http://www.w3.org/1999/xlink" x="0px" y="0px"
	 width="163.67px" height="63.33px" viewBox="0 0 163.67 63.33" enable-background="new 0 0 163.67 63.33" xml:space="preserve">
<g>
	<g>
		<g>
			<path fill-rule="evenodd" clip-rule="evenodd" fill="#616161" d="M86.15,8.65L86.2,8.7c1.2,1.47,2.5,2.22,3.9,2.25h43.55
				c2.63,0.23,4.22,1.98,4.75,5.25c0,0.1,0,0.17,0,0.2v17.5c0,0.27-0.08,0.5-0.25,0.7c-0.2,0.23-0.43,0.38-0.7,0.45
				c-0.27,0.03-0.52,0-0.75-0.1c-0.3-0.1-0.48-0.28-0.55-0.55l-0.2-0.45l-0.4,21.2h-2.4l0.45-26.3c0-0.3,0.1-0.53,0.3-0.7
				c0.17-0.27,0.38-0.42,0.65-0.45c0.23-0.07,0.5-0.05,0.8,0.05c0.2,0.13,0.38,0.32,0.55,0.55l0.1,0.25V16.6
				c-0.3-1.97-1.15-3.05-2.55-3.25H90.1c-2.13,0-4.05-1.05-5.75-3.15L81.4,6.75c-0.57-0.57-1.08-0.95-1.55-1.15
				c-0.47-0.17-0.87-0.17-1.2,0H78.6c-0.57,0.2-1.12,0.63-1.65,1.3l-2.2,2.65c-1.53,2.53-3.78,3.8-6.75,3.8H21.25
				c-1.4,0.2-2.25,1.28-2.55,3.25v12l0.15-0.25c0.1-0.27,0.28-0.47,0.55-0.6c0.23-0.1,0.48-0.12,0.75-0.05
				c0.27,0.03,0.5,0.18,0.7,0.45c0.17,0.17,0.25,0.4,0.25,0.7l0.3,16h-2.35l-0.2-10.95l-0.25,0.5c-0.13,0.27-0.32,0.45-0.55,0.55
				c-0.27,0.1-0.52,0.13-0.75,0.1c-0.3-0.07-0.52-0.22-0.65-0.45c-0.2-0.2-0.3-0.43-0.3-0.7V16.4c0-0.03,0-0.1,0-0.2
				c0.53-3.27,2.1-5.02,4.7-5.25c0.03,0,0.07,0,0.1,0H68c2.1,0,3.67-0.9,4.7-2.7c0.03-0.07,0.08-0.12,0.15-0.15l2.3-2.8
				c0.9-1.03,1.82-1.7,2.75-2c0.83-0.33,1.73-0.33,2.7,0c0.83,0.3,1.7,0.9,2.6,1.8v0.1L86.15,8.65z"/>
		</g>
		<g>
			<line fill-rule="evenodd" clip-rule="evenodd" fill="none" x1="83.1" y1="6.65" x2="87.15" y2="10.95"/>
			<line fill-rule="evenodd" clip-rule="evenodd" fill="none" x1="72.2" y1="10.7" x2="74.9" y2="7.25"/>
			<path fill-rule="evenodd" clip-rule="evenodd" fill="none" d="M67.2,12.5c2.3-0.23,3.83-0.72,4.6-1.45"/>
			<path fill-rule="evenodd" clip-rule="evenodd" fill="none" d="M76.55,5.55c1.83-1.87,3.5-1.92,5-0.15"/>
			<line fill-rule="evenodd" clip-rule="evenodd" fill="none" x1="90.2" y1="12.15" x2="134.95" y2="12.15"/>
			<line fill-rule="evenodd" clip-rule="evenodd" fill="none" x1="137.25" y1="16.3" x2="137.25" y2="28.55"/>
			<line fill-rule="evenodd" clip-rule="evenodd" fill="none" x1="17.3" y1="17.5" x2="17.3" y2="25.9"/>
			<line fill-rule="evenodd" clip-rule="evenodd" fill="none" x1="18.95" y1="12.15" x2="63.75" y2="12.15"/>
		</g>
		<g>
			<path fill-rule="evenodd" clip-rule="evenodd" fill="#FFFFFF" d="M88.8,11.3c0,0.03,0,0.08,0,0.15c-0.8,0.37-1.08,0.18-0.85-0.55
				c0-0.1,0.03-0.15,0.1-0.15C88.42,10.85,88.67,11.03,88.8,11.3z M135.4,12c0.07,0,0.1-0.03,0.1-0.1c0.6,0.27,0.82,0.7,0.65,1.3
				c-0.03,0.03-0.05,0.07-0.05,0.1C135.2,13.03,134.97,12.6,135.4,12z M137.35,15c0.47,0.6,0.5,1.27,0.1,2
				c-0.03,0.07-0.07,0.12-0.1,0.15C136.78,16.45,136.78,15.73,137.35,15z M22.95,12.4c-0.47,0.37-0.83,0.27-1.1-0.3
				c-0.03-0.17,0.03-0.25,0.2-0.25c0.13-0.03,0.25-0.05,0.35-0.05h0.05c0.2-0.13,2.63-0.15,7.3-0.05c4.7,0.07,7.23,0.1,7.6,0.1
				l-8.4,0.25C26.98,13,24.98,13.1,22.95,12.4z"/>
		</g>
	</g>
	<g>
		<polygon fill-rule="evenodd" clip-rule="evenodd" fill="#5A5D63" points="83.95,30.65 4.2,30.65 6.5,28.75 83.25,28.75 		"/>
		<polygon fill-rule="evenodd" clip-rule="evenodd" fill="#C61C1C" points="158.75,30.65 83.95,30.65 83.25,28.75 154.75,28.75 		
			"/>
		<rect x="83.95" y="30.65" fill-rule="evenodd" clip-rule="evenodd" fill="#D82B2B" width="74.8" height="24.35"/>
		<rect x="4.2" y="30.65" fill-rule="evenodd" clip-rule="evenodd" fill="#6B6C74" width="79.75" height="24.35"/>
	</g>
	<g>
		
			<rect x="4.2" y="30.65" fill-rule="evenodd" clip-rule="evenodd" fill="#FFFFFF" fill-opacity="0.3255" width="154.55" height="0.15"/>
	</g>
	<g>
		<path fill-rule="evenodd" clip-rule="evenodd" fill="#76787C" d="M65.8,34.7c0.07,0.13,0.08,0.27,0.05,0.4
			c-0.03,0.33-0.32,0.53-0.85,0.6c-0.23,0-0.43-0.1-0.6-0.3c-0.3-0.13-0.38-0.3-0.25-0.5c0.07-0.07,0.15-0.12,0.25-0.15V34.7
			l0.05-0.1c0.17-0.07,0.35-0.1,0.55-0.1C65.33,34.5,65.6,34.57,65.8,34.7z M69.35,31.85c-0.07,0.3-0.35,0.48-0.85,0.55
			c-0.3,0-0.57-0.1-0.8-0.3c-0.13-0.07-0.18-0.15-0.15-0.25C68.08,31.52,68.68,31.52,69.35,31.85z M70.15,35.65
			c0-0.03,0.03-0.07,0.1-0.1c0.2-0.1,0.4-0.15,0.6-0.15c0.27,0,0.52,0.08,0.75,0.25c0.13,0.13,0.18,0.25,0.15,0.35
			c-0.07,0.37-0.37,0.57-0.9,0.6c-0.27,0-0.52-0.08-0.75-0.25c-0.2-0.13-0.23-0.32-0.1-0.55c0.03-0.07,0.07-0.1,0.1-0.1
			C70.1,35.67,70.12,35.65,70.15,35.65z M62.2,36.7c-0.1,0-0.15-0.03-0.15-0.1L62,36.55c-0.03,0-0.05-0.02-0.05-0.05v0.05
			c-0.07,0.37-0.38,0.55-0.95,0.55c-0.37,0-0.63-0.1-0.8-0.3c-0.17-0.17-0.18-0.33-0.05-0.5c0-0.03,0.02-0.07,0.05-0.1
			c0.07-0.07,0.13-0.12,0.2-0.15c0.13-0.07,0.33-0.1,0.6-0.1c0.33,0,0.58,0.07,0.75,0.2l0.1,0.05c0-0.03,0-0.07,0-0.1
			c0-0.07,0.03-0.1,0.1-0.1c0.03-0.07,0.07-0.12,0.1-0.15c0-0.03,0.05-0.05,0.15-0.05c0-0.03,0-0.07,0-0.1
			c0.33-0.13,0.63-0.13,0.9,0c0.53,0.33,0.67,0.62,0.4,0.85c-0.07,0.13-0.3,0.25-0.7,0.35c-0.07,0-0.22-0.05-0.45-0.15
			C62.28,36.75,62.23,36.73,62.2,36.7z M63.2,40.8c0-0.03,0.02-0.07,0.05-0.1c0.17-0.1,0.35-0.15,0.55-0.15
			c0.4,0,0.67,0.08,0.8,0.25c0.1,0.13,0.13,0.25,0.1,0.35c-0.03,0.3-0.27,0.48-0.7,0.55c-0.03,0.03-0.1,0.05-0.2,0.05
			c-0.23,0-0.43-0.08-0.6-0.25c-0.17-0.07-0.25-0.18-0.25-0.35c0-0.03,0.03-0.1,0.1-0.2c0.03-0.03,0.08-0.07,0.15-0.1V40.8z
			 M58.75,39.95c-0.03-0.17-0.03-0.33,0-0.5c0.07-0.07,0.13-0.12,0.2-0.15c0-0.03,0.02-0.05,0.05-0.05l0.1-0.05
			c0.33-0.13,0.62-0.12,0.85,0.05c0.77,0.43,0.77,0.78,0,1.05c-0.07,0.03-0.17,0.07-0.3,0.1c-0.03-0.03-0.1-0.05-0.2-0.05
			c-0.03,0-0.07,0-0.1,0c-0.07,0-0.12-0.02-0.15-0.05C58.97,40.23,58.82,40.12,58.75,39.95z M57.7,42.85
			c-0.03,0.03-0.08,0.07-0.15,0.1c-0.27,0.3-0.75,0.43-1.45,0.4c-0.43,0-0.72-0.13-0.85-0.4H55.2c-0.07-0.1-0.07-0.22,0-0.35
			c0-0.03,0.03-0.07,0.1-0.1l0.05-0.05c0-0.07,0.03-0.1,0.1-0.1l0.05-0.05c0.33-0.1,0.67-0.17,1-0.2c0.43-0.03,0.78,0.03,1.05,0.2
			C57.75,42.5,57.8,42.69,57.7,42.85z M59.95,41.95c0.13,0.1,0.22,0.17,0.25,0.2c0.13,0.13,0.2,0.27,0.2,0.4
			c-0.03,0.17-0.13,0.3-0.3,0.4c-0.17,0.1-0.35,0.17-0.55,0.2c-0.2,0-0.4-0.07-0.6-0.2c-0.07-0.03-0.13-0.07-0.2-0.1
			c-0.1-0.07-0.15-0.17-0.15-0.3c0-0.07,0.02-0.15,0.05-0.25c0.03-0.03,0.07-0.08,0.1-0.15h0.1c0-0.03,0.03-0.05,0.1-0.05
			c0.17-0.1,0.37-0.15,0.6-0.15C59.72,41.95,59.85,41.95,59.95,41.95z M71.6,39.3c-0.03,0.4-0.37,0.6-1,0.6c-0.33,0-0.6-0.1-0.8-0.3
			c-0.17-0.17-0.18-0.33-0.05-0.5c0-0.03,0.02-0.07,0.05-0.1h0.05c0.07-0.07,0.12-0.12,0.15-0.15c0.17-0.1,0.37-0.15,0.6-0.15
			c0.3,0,0.58,0.08,0.85,0.25C71.58,39.08,71.63,39.2,71.6,39.3z M78.85,42.95c-0.13,0.03-0.27,0.07-0.4,0.1
			c-0.13,0-0.27-0.03-0.4-0.1c-0.1-0.03-0.2-0.08-0.3-0.15c-0.2-0.13-0.25-0.32-0.15-0.55c0.03-0.07,0.08-0.12,0.15-0.15h0.05
			c0-0.03,0.02-0.08,0.05-0.15c0.2-0.03,0.4-0.05,0.6-0.05c0.07,0,0.15,0,0.25,0c0.2,0,0.37,0.07,0.5,0.2
			c0.1,0.13,0.15,0.25,0.15,0.35C79.32,42.69,79.15,42.85,78.85,42.95z M77.15,41.5c0.07,0.03,0.13,0.08,0.2,0.15
			c0.1,0.07,0.15,0.15,0.15,0.25c0,0.03,0,0.08,0,0.15c-0.03,0.33-0.33,0.53-0.9,0.6c-0.27,0-0.48-0.1-0.65-0.3
			c-0.23-0.13-0.3-0.32-0.2-0.55c0.03-0.07,0.1-0.1,0.2-0.1v-0.05c0-0.03,0.02-0.07,0.05-0.1c0.17-0.07,0.37-0.1,0.6-0.1
			S77.02,41.47,77.15,41.5z M13.7,41.3c0,0.03,0,0.08,0,0.15c-0.1,0.33-0.38,0.53-0.85,0.6c-0.2-0.07-0.42-0.1-0.65-0.1
			c-0.1,0-0.18-0.02-0.25-0.05c-0.57-0.13-0.77-0.4-0.6-0.8c0-0.03,0.02-0.07,0.05-0.1c0-0.03,0.02-0.05,0.05-0.05V40.9h0.15
			c0.63-0.23,1.22-0.23,1.75,0c0.03,0.03,0.1,0.08,0.2,0.15c0,0.03,0.05,0.07,0.15,0.1V41.3z M14.05,39.75l0.1-0.1
			c0-0.03,0.02-0.05,0.05-0.05c0-0.03,0.03-0.05,0.1-0.05c0.1-0.03,0.23-0.07,0.4-0.1c0.47-0.03,0.87,0.05,1.2,0.25
			c0.13,0.13,0.17,0.27,0.1,0.4c-0.07,0.4-0.42,0.6-1.05,0.6c-0.17,0-0.33-0.05-0.5-0.15c-0.07,0-0.15-0.03-0.25-0.1
			c-0.03,0-0.05-0.02-0.05-0.05l-0.05-0.05c-0.03,0-0.05-0.02-0.05-0.05C14.02,40.23,14,40.17,14,40.1c0-0.1,0-0.17,0-0.2
			C14,39.87,14.02,39.82,14.05,39.75z M10.15,39.55c0.07,0.13,0.08,0.25,0.05,0.35c-0.03,0.43-0.42,0.63-1.15,0.6
			c-0.4,0-0.68-0.13-0.85-0.4v-0.75l0.1-0.05c0-0.03,0.02-0.05,0.05-0.05L8.4,39.2c0.23-0.13,0.5-0.17,0.8-0.1
			c0.2,0,0.35,0.05,0.45,0.15h0.1c0.03,0.07,0.1,0.12,0.2,0.15C9.95,39.47,10.02,39.52,10.15,39.55z M25.7,31.85
			c0,0.03,0,0.07,0,0.1c-0.1,0.33-0.4,0.53-0.9,0.6c-0.3,0-0.55-0.08-0.75-0.25c-0.17-0.13-0.22-0.28-0.15-0.45
			C24.27,31.45,24.87,31.45,25.7,31.85z M31.55,32.3c-0.17-0.13-0.2-0.28-0.1-0.45c0.7-0.37,1.38-0.37,2.05,0
			c0.4,0.4,0.1,0.65-0.9,0.75C32.2,32.6,31.85,32.5,31.55,32.3z M19.55,39.55c0.43,0,0.7,0.12,0.8,0.35c0.07,0.03,0.1,0.1,0.1,0.2
			c0.1,0.13,0.12,0.27,0.05,0.4c-0.1,0.33-0.43,0.5-1,0.5c-0.03,0-0.1-0.02-0.2-0.05c-0.13,0-0.27-0.05-0.4-0.15
			c-0.07,0-0.1-0.02-0.1-0.05l-0.05-0.05c-0.07,0-0.1-0.02-0.1-0.05c-0.03-0.17-0.05-0.33-0.05-0.5c0-0.07,0.02-0.17,0.05-0.3
			l0.1-0.1h0.05c0.07-0.07,0.1-0.12,0.1-0.15c0.17-0.07,0.37-0.08,0.6-0.05H19.55z M24.85,40.95c0-0.03,0.02-0.05,0.05-0.05v-0.05
			c0-0.03,0.05-0.05,0.15-0.05c0-0.03,0.02-0.07,0.05-0.1c0.27-0.1,0.52-0.15,0.75-0.15c0.57,0,1.07,0.12,1.5,0.35
			c0.13,0.13,0.18,0.28,0.15,0.45l-0.05,0.15c0,0.13-0.07,0.28-0.2,0.45c-0.17,0.1-0.35,0.17-0.55,0.2c-0.17,0.1-0.35,0.17-0.55,0.2
			c-0.3,0-0.63-0.02-1-0.05c-0.07,0-0.15,0-0.25,0c-0.23,0-0.43-0.07-0.6-0.2c-0.23-0.13-0.35-0.28-0.35-0.45c0-0.03,0-0.08,0-0.15
			h0.1c0-0.03,0.03-0.07,0.1-0.1l0.05-0.05c0-0.03,0.03-0.05,0.1-0.05v-0.05c0.17-0.1,0.35-0.15,0.55-0.15
			C24.82,41.07,24.82,41.02,24.85,40.95z M20.6,44.75c-0.07-0.03-0.15-0.07-0.25-0.1c-0.17-0.13-0.18-0.32-0.05-0.55
			c0-0.03,0.02-0.08,0.05-0.15c0-0.03,0.03-0.05,0.1-0.05l0.05-0.05c0.17-0.1,0.35-0.15,0.55-0.15c0.3,0,0.57,0.07,0.8,0.2
			c0.07,0.13,0.15,0.25,0.25,0.35c-0.1,0-0.15,0.02-0.15,0.05c-0.03,0.33-0.33,0.53-0.9,0.6C20.92,44.9,20.77,44.85,20.6,44.75z
			 M34.15,36.4c0-0.03,0.02-0.07,0.05-0.1c0.2-0.07,0.38-0.1,0.55-0.1c0.33,0,0.57,0.07,0.7,0.2c0.13,0.13,0.2,0.25,0.2,0.35
			c-0.03,0.37-0.33,0.57-0.9,0.6c-0.07,0-0.17-0.02-0.3-0.05c-0.17-0.03-0.3-0.1-0.4-0.2c-0.2-0.13-0.25-0.32-0.15-0.55
			c0.03-0.03,0.08-0.05,0.15-0.05C34.05,36.44,34.08,36.4,34.15,36.4z M36.55,40.9c0,0.06-0.02,0.13-0.05,0.2v0.05
			c-0.2,0.2-0.5,0.3-0.9,0.3c-0.13,0-0.22-0.02-0.25-0.05c-0.2-0.03-0.4-0.13-0.6-0.3c-0.03,0-0.05-0.03-0.05-0.1
			c-0.03-0.1-0.03-0.22,0-0.35c0-0.07,0.02-0.1,0.05-0.1l0.1-0.05c0.07-0.07,0.12-0.12,0.15-0.15c0.17-0.07,0.37-0.1,0.6-0.1
			c0.37,0,0.67,0.07,0.9,0.2c0.07,0.17,0.08,0.3,0.05,0.4V40.9z M30.25,38.9c0,0.03,0,0.07,0,0.1c-0.03,0.33-0.32,0.52-0.85,0.55
			c-0.2,0-0.35-0.03-0.45-0.1c-0.1-0.03-0.2-0.08-0.3-0.15c-0.2-0.13-0.25-0.32-0.15-0.55c0.03-0.03,0.08-0.07,0.15-0.1
			c0-0.07,0.02-0.1,0.05-0.1l0.1-0.05c0.2-0.1,0.4-0.15,0.6-0.15c0.3,0,0.52,0.07,0.65,0.2C30.18,38.69,30.25,38.8,30.25,38.9z
			 M28.5,43.85c0.2-0.23,0.48-0.35,0.85-0.35c1.13-0.03,1.45,0.27,0.95,0.9c-0.07,0.03-0.18,0.07-0.35,0.1
			c-0.17,0.1-0.35,0.15-0.55,0.15c-0.1-0.03-0.23-0.07-0.4-0.1c-0.1-0.03-0.2-0.07-0.3-0.1c-0.03,0-0.05-0.02-0.05-0.05v-0.05
			c-0.07,0-0.1-0.02-0.1-0.05c-0.03,0-0.05-0.02-0.05-0.05C28.43,44.12,28.43,43.98,28.5,43.85z M44.95,33.2
			c-0.17-0.03-0.32-0.1-0.45-0.2c-0.13-0.17-0.17-0.33-0.1-0.5c0-0.03,0.03-0.07,0.1-0.1l0.15-0.05c0-0.03,0.02-0.07,0.05-0.1
			c0.2-0.1,0.4-0.15,0.6-0.15c0.37,0,0.65,0.08,0.85,0.25c0.13,0.13,0.17,0.25,0.1,0.35c-0.03,0.4-0.35,0.6-0.95,0.6
			C45.2,33.3,45.08,33.27,44.95,33.2z M49.25,35.7h0.1c0.03,0,0.12,0,0.25,0c0.27,0,0.48,0,0.65,0c0.07,0.07,0.17,0.13,0.3,0.2
			c0.1,0.13,0.12,0.25,0.05,0.35c0,0.43-0.33,0.65-1,0.65c-0.3,0-0.55-0.12-0.75-0.35c-0.03,0-0.12,0.02-0.25,0.05
			c-0.03-0.03-0.08-0.05-0.15-0.05c0,0.03,0,0.08,0,0.15c0,0.13-0.08,0.22-0.25,0.25c-0.77,0.33-1.65,0.55-2.65,0.65
			c-0.03,0-0.08-0.02-0.15-0.05c-0.23,0-0.42-0.05-0.55-0.15c-0.23-0.17-0.28-0.37-0.15-0.6c0.1-0.03,0.15-0.07,0.15-0.1h0.1
			c0-0.07,0.02-0.12,0.05-0.15c0.27-0.03,0.53-0.12,0.8-0.25c0.17-0.07,0.37-0.12,0.6-0.15c0.53-0.1,0.97-0.1,1.3,0
			c-0.03-0.17-0.03-0.33,0-0.5c0.1-0.07,0.15-0.12,0.15-0.15h0.05c0-0.07,0.02-0.1,0.05-0.1c0.4-0.17,0.72-0.17,0.95,0
			C49.03,35.5,49.15,35.6,49.25,35.7z M49.15,39.55c0.3-0.07,0.55-0.07,0.75,0c0.53,0.27,0.8,0.52,0.8,0.75
			c0,0.27-0.32,0.5-0.95,0.7c-0.03,0-0.08-0.02-0.15-0.05c-0.07,0-0.13-0.02-0.2-0.05c-0.1,0-0.2-0.03-0.3-0.1
			c-0.03-0.07-0.12-0.15-0.25-0.25c-0.03-0.07-0.08-0.13-0.15-0.2c-0.1-0.1-0.15-0.18-0.15-0.25c-0.07-0.1-0.07-0.18,0-0.25
			c0.03-0.07,0.08-0.1,0.15-0.1c0-0.03,0.03-0.05,0.1-0.05c0-0.03,0.02-0.07,0.05-0.1C48.98,39.57,49.08,39.55,49.15,39.55z
			 M46.7,38.15c0-0.03,0.02-0.05,0.05-0.05c0-0.03,0.03-0.07,0.1-0.1c0.37-0.17,0.72-0.13,1.05,0.1c0.9,0.57,0.88,1-0.05,1.3
			c0.13,0.13,0.23,0.25,0.3,0.35c0.03,0.27-0.27,0.48-0.9,0.65c-0.03-0.03-0.08-0.05-0.15-0.05c-0.03,0-0.07,0-0.1,0
			c-0.23-0.03-0.42-0.12-0.55-0.25c-0.03-0.03-0.05-0.08-0.05-0.15c-0.03-0.17-0.03-0.33,0-0.5c0.03-0.07,0.12-0.12,0.25-0.15v-0.05
			l0.1-0.1c-0.03-0.07-0.07-0.12-0.1-0.15c-0.17-0.23-0.17-0.47,0-0.7C46.65,38.2,46.67,38.15,46.7,38.15z M54.15,36.7l0.05,0.05
			c0.13,0.13,0.17,0.28,0.1,0.45c-0.13,0.43-0.58,0.62-1.35,0.55c-0.5-0.03-0.78-0.22-0.85-0.55c-0.03-0.07-0.03-0.17,0-0.3
			l0.05-0.1l0.05-0.05h0.1c0-0.03,0.03-0.05,0.1-0.05c0.13-0.1,0.3-0.15,0.5-0.15c0.13-0.03,0.32-0.03,0.55,0
			C53.75,36.55,53.98,36.6,54.15,36.7z M43.65,36.05c0.13,0.13,0.18,0.28,0.15,0.45c-0.03,0.3-0.33,0.48-0.9,0.55
			c-0.23,0-0.47-0.1-0.7-0.3c-0.2-0.13-0.23-0.32-0.1-0.55c0.03-0.03,0.07-0.07,0.1-0.1c0-0.03,0.02-0.05,0.05-0.05
			c0-0.03,0.02-0.05,0.05-0.05c0.2-0.1,0.4-0.15,0.6-0.15C43.23,35.85,43.48,35.92,43.65,36.05z M42.1,40.35
			c0.03,0.07,0.03,0.13,0,0.2c-0.07,0.4-0.42,0.6-1.05,0.6c-0.27,0-0.52-0.08-0.75-0.25c-0.13-0.17-0.17-0.35-0.1-0.55l0.1-0.05
			l0.15-0.1c0-0.03,0.02-0.07,0.05-0.1c0.17-0.1,0.35-0.15,0.55-0.15c0.33,0,0.57,0.05,0.7,0.15c0.1,0.03,0.17,0.07,0.2,0.1
			C41.98,40.27,42.03,40.32,42.1,40.35z M68.35,50.4c-0.17,0.07-0.33,0.1-0.5,0.1c-0.53-0.03-0.82-0.22-0.85-0.55
			c0-0.03-0.03-0.07-0.1-0.1c0.07-0.07,0.13-0.17,0.2-0.3c0.23-0.13,0.48-0.2,0.75-0.2s0.47,0.03,0.6,0.1
			c0.07,0.03,0.1,0.07,0.1,0.1c0.03,0,0.05,0.02,0.05,0.05c0.03,0.03,0.07,0.08,0.1,0.15c0.1,0.2,0.07,0.38-0.1,0.55
			C68.5,50.33,68.42,50.37,68.35,50.4z M60.45,49.45c0.07,0.17,0.07,0.32,0,0.45c0,0.03-0.02,0.05-0.05,0.05h-0.1v0.1
			c-0.13,0.07-0.27,0.1-0.4,0.1c-0.13,0.03-0.23,0.08-0.3,0.15c-0.23,0-0.43-0.05-0.6-0.15c-0.17-0.07-0.28-0.12-0.35-0.15
			c-0.5-0.6-0.17-0.88,1-0.85C59.98,49.15,60.25,49.25,60.45,49.45z"/>
		<path fill-rule="evenodd" clip-rule="evenodd" fill="#84868B" d="M70,33c0.1,0.13,0.13,0.25,0.1,0.35
			c-0.03,0.37-0.32,0.57-0.85,0.6c-0.27,0-0.5-0.07-0.7-0.2c-0.2-0.13-0.23-0.33-0.1-0.6c0.03-0.03,0.07-0.05,0.1-0.05
			c0-0.07,0.02-0.1,0.05-0.1c0-0.03,0.02-0.05,0.05-0.05c0.17-0.1,0.37-0.15,0.6-0.15C69.58,32.8,69.83,32.87,70,33z M70.35,33.4
			c-0.2-0.2-0.13-0.3,0.2-0.3c1.87-0.27,2.03-0.03,0.5,0.7C70.72,33.8,70.48,33.67,70.35,33.4z M60.55,32.2c1-0.2,1.5-0.2,1.5,0
			c0,0.13-0.27,0.37-0.8,0.7c-0.27,0-0.53-0.1-0.8-0.3C60.25,32.4,60.28,32.27,60.55,32.2z M64.4,33.75
			c-0.27,0.13-0.48,0.27-0.65,0.4c-0.23,0-0.47-0.08-0.7-0.25c-0.3-0.23-0.28-0.37,0.05-0.4c0.27-0.1,0.5-0.15,0.7-0.15
			c0,0.13,0.07,0.23,0.2,0.3C64.1,33.72,64.23,33.75,64.4,33.75z M61.5,35.95c-0.27,0-0.5-0.08-0.7-0.25
			c-0.27-0.23-0.25-0.37,0.05-0.4C62.55,34.94,62.77,35.15,61.5,35.95z M75,37.75c0.03-0.03,0.08-0.08,0.15-0.15
			c0-0.03,0.02-0.05,0.05-0.05c0-0.03,0.02-0.05,0.05-0.05c0.17-0.1,0.35-0.15,0.55-0.15c0.3,0,0.55,0.07,0.75,0.2
			c0.03,0.1,0.07,0.17,0.1,0.2c1.33-0.23,1.43,0.02,0.3,0.75c-0.23,0-0.42-0.05-0.55-0.15c-0.13,0.1-0.33,0.17-0.6,0.2
			c-0.23,0-0.45-0.08-0.65-0.25C74.88,38.17,74.83,37.98,75,37.75z M74.2,41.6c-0.27-0.2-0.25-0.35,0.05-0.45
			c1.73-0.3,1.93-0.05,0.6,0.75C74.65,41.9,74.43,41.8,74.2,41.6z M13.95,36.8c-0.07-0.37,0.08-0.53,0.45-0.5
			c2.1,0.2,2.28,0.58,0.55,1.15C14.32,37.42,13.98,37.2,13.95,36.8z M13.35,33.2c1.7-0.33,1.92-0.1,0.65,0.7
			c-0.3,0-0.55-0.08-0.75-0.25C13.02,33.42,13.05,33.27,13.35,33.2z M28,31.85c-0.07,0.03-0.18,0.1-0.35,0.2
			c-0.2,0-0.43-0.07-0.7-0.2C27.32,31.38,27.67,31.38,28,31.85z M31.4,34.55c-0.3,0-0.55-0.07-0.75-0.2
			c-0.27-0.27-0.23-0.42,0.1-0.45C32.45,33.53,32.67,33.75,31.4,34.55z M22.2,36.75c-0.23-0.17-0.22-0.3,0.05-0.4
			c1.73-0.33,1.97-0.1,0.7,0.7C22.65,37.05,22.4,36.95,22.2,36.75z M24.65,33.55c-0.23-0.23-0.18-0.37,0.15-0.4
			c1.7-0.37,1.93-0.15,0.7,0.65C25.2,33.8,24.92,33.72,24.65,33.55z M34.5,34.8c-0.17-0.17-0.12-0.27,0.15-0.3
			c1.5-0.33,1.83-0.18,1,0.45c-0.2-0.13-0.43-0.2-0.7-0.2C34.75,34.75,34.6,34.77,34.5,34.8z M20.45,36c-0.23,0-0.48-0.08-0.75-0.25
			c-0.27-0.23-0.25-0.37,0.05-0.4C21.52,34.98,21.75,35.2,20.45,36z M35.65,38.2c-0.03,0-0.12,0-0.25,0c-0.3-0.03-0.6,0.02-0.9,0.15
			c-0.03,0-0.05,0.03-0.05,0.1c-0.03-0.07-0.1-0.1-0.2-0.1c-0.03,0-0.05-0.02-0.05-0.05c-0.03,0-0.05-0.03-0.05-0.1
			c-0.07,0-0.1-0.02-0.1-0.05c-0.13-0.27-0.02-0.5,0.35-0.7l0.05-0.05c0,0.1,0.07,0.22,0.2,0.35c0.2,0.13,0.42,0.2,0.65,0.2
			s0.43-0.05,0.6-0.15C36,37.94,35.92,38.07,35.65,38.2z M28.45,36.95c-0.23,0-0.47-0.08-0.7-0.25c-0.27-0.23-0.25-0.38,0.05-0.45
			C29.5,35.92,29.72,36.15,28.45,36.95z M47.25,33.75c-0.27-0.27-0.23-0.42,0.1-0.45c1.7-0.33,1.88-0.12,0.55,0.65
			C47.67,33.95,47.45,33.89,47.25,33.75z M49.25,35.7c0.67-0.13,1-0.13,1,0c-0.17,0-0.38,0-0.65,0c-0.13,0-0.22,0-0.25,0H49.25z
			 M37.7,32.95c1.8-0.27,2,0.02,0.6,0.85c-0.4-0.03-0.67-0.18-0.8-0.45C37.4,33.12,37.47,32.98,37.7,32.95z M52.9,35.65
			c-0.13-0.1-0.08-0.18,0.15-0.25c1.23-0.23,1.7-0.18,1.4,0.15c-0.13-0.03-0.28-0.05-0.45-0.05c-0.07,0-0.12,0-0.15,0
			c-0.17,0-0.3,0-0.4,0C53.22,35.5,53.03,35.55,52.9,35.65z M38,38.35c1-0.17,1.43-0.17,1.3,0v0.1c-0.03,0-0.05,0.02-0.05,0.05
			l-0.05,0.05c-0.07,0.07-0.1,0.12-0.1,0.15c-0.13,0.1-0.3,0.22-0.5,0.35c-0.23,0-0.47-0.1-0.7-0.3
			C37.63,38.58,37.67,38.45,38,38.35z"/>
		<path fill-rule="evenodd" clip-rule="evenodd" fill="#7E8089" d="M74.8,33.3c-0.17-0.13-0.18-0.32-0.05-0.55
			c0-0.07,0.02-0.12,0.05-0.15h0.05c0-0.03,0.05-0.07,0.15-0.1c0.17-0.07,0.37-0.1,0.6-0.1c0.27,0,0.48,0.07,0.65,0.2
			c0.13,0.13,0.18,0.25,0.15,0.35c-0.07,0.37-0.33,0.57-0.8,0.6C75.33,33.55,75.07,33.47,74.8,33.3z M81.05,32
			c0.17-0.07,0.37-0.1,0.6-0.1c0.3,0,0.53,0.07,0.7,0.2c0.13,0.1,0.2,0.2,0.2,0.3v0.05c-0.1,0.33-0.4,0.55-0.9,0.65
			c-0.3,0-0.55-0.1-0.75-0.3c-0.2-0.13-0.23-0.32-0.1-0.55c0.03-0.07,0.07-0.12,0.1-0.15H81C81,32.07,81.02,32.03,81.05,32z
			 M78.8,35.2c0.17-0.07,0.35-0.1,0.55-0.1c0.33,0,0.58,0.07,0.75,0.2c0.13,0.13,0.17,0.27,0.1,0.4c-0.03,0.33-0.32,0.52-0.85,0.55
			c-0.23,0-0.45-0.08-0.65-0.25c-0.23-0.13-0.28-0.3-0.15-0.5c0.07-0.07,0.12-0.12,0.15-0.15c0-0.03,0.02-0.05,0.05-0.05L78.8,35.2z
			 M13.45,31.55l0.05-0.05c0.53-0.13,1.02-0.13,1.45,0c0.03,0,0.1,0.02,0.2,0.05c0.1,0.17,0.13,0.3,0.1,0.4
			c-0.07,0.43-0.45,0.63-1.15,0.6c-0.4,0-0.68-0.13-0.85-0.4c-0.07-0.13-0.07-0.27,0-0.4c0-0.03,0.03-0.07,0.1-0.1l0.05-0.05
			C13.4,31.57,13.42,31.55,13.45,31.55z M43.95,32.15c-0.27-0.07-0.43-0.17-0.5-0.3c0.63-0.4,1.2-0.4,1.7,0
			c-0.13,0.13-0.43,0.25-0.9,0.35c-0.03-0.03-0.1-0.05-0.2-0.05C44.02,32.15,43.98,32.15,43.95,32.15z"/>
		<path fill-rule="evenodd" clip-rule="evenodd" fill="#818588" d="M59.6,32.75c0.13,0.13,0.17,0.27,0.1,0.4
			c-0.03,0.33-0.32,0.53-0.85,0.6c-0.27,0-0.5-0.08-0.7-0.25c-0.23-0.13-0.28-0.32-0.15-0.55c0.03-0.03,0.08-0.08,0.15-0.15
			c0-0.03,0.02-0.05,0.05-0.05c0-0.03,0.02-0.07,0.05-0.1c0.17-0.07,0.37-0.1,0.6-0.1C59.18,32.55,59.43,32.62,59.6,32.75z
			 M64.4,33.75c-0.17,0-0.3-0.03-0.4-0.1c-0.13-0.07-0.2-0.17-0.2-0.3c0-0.1,0.03-0.18,0.1-0.25c0.03-0.07,0.07-0.12,0.1-0.15h0.1
			c0-0.03,0.02-0.05,0.05-0.05c0.2-0.13,0.4-0.2,0.6-0.2c0.33,0,0.58,0.08,0.75,0.25c0.1,0.13,0.13,0.25,0.1,0.35
			c0,0.33-0.28,0.53-0.85,0.6C64.65,33.9,64.53,33.85,64.4,33.75z M57.75,40.55c0.03-0.07,0.07-0.12,0.1-0.15
			c0-0.03,0.05-0.05,0.15-0.05V40.3c0.3-0.13,0.62-0.13,0.95,0H59c0.93,0.43,0.83,0.82-0.3,1.15c-0.3,0-0.53-0.1-0.7-0.3
			C57.7,40.98,57.62,40.78,57.75,40.55z M56.65,38.15c-0.03-0.03-0.05-0.07-0.05-0.1c0-0.07,0-0.15,0-0.25
			c0-0.03,0.02-0.07,0.05-0.1c0.07-0.1,0.12-0.17,0.15-0.2h0.05c0-0.03,0.03-0.07,0.1-0.1c0.33-0.13,0.62-0.13,0.85,0
			c0.93,0.5,0.85,0.88-0.25,1.15c-0.07,0-0.2-0.02-0.4-0.05c-0.1-0.03-0.2-0.08-0.3-0.15c-0.03,0-0.05-0.02-0.05-0.05
			c-0.03,0-0.05-0.03-0.05-0.1C56.68,38.2,56.65,38.19,56.65,38.15z M56,38.5c1.03,0.47,0.9,0.88-0.4,1.25
			c-0.07-0.03-0.15-0.05-0.25-0.05c-0.03,0-0.08,0-0.15,0c-0.73-0.4-0.73-0.8,0-1.2C55.5,38.4,55.77,38.4,56,38.5z M44.95,33.2
			c-0.23,0.23-0.6,0.33-1.1,0.3c-0.43,0-0.7-0.13-0.8-0.4c-0.13-0.13-0.13-0.28,0-0.45c0-0.03,0.02-0.05,0.05-0.05l0.05-0.05
			c0-0.03,0.02-0.05,0.05-0.05c0-0.03,0.03-0.07,0.1-0.1c0.3-0.1,0.62-0.13,0.95-0.1c0.1,0,0.23,0.02,0.4,0.05L44.5,32.4
			c-0.07,0.03-0.1,0.07-0.1,0.1c-0.07,0.17-0.03,0.33,0.1,0.5C44.63,33.1,44.78,33.17,44.95,33.2z M53.35,32.35
			c0.2-0.1,0.42-0.15,0.65-0.15c0.3,0,0.53,0.07,0.7,0.2c0.13,0.13,0.18,0.27,0.15,0.4c-0.03,0.33-0.32,0.52-0.85,0.55
			c-0.27,0-0.52-0.07-0.75-0.2c-0.2-0.13-0.25-0.32-0.15-0.55c0.07-0.07,0.12-0.12,0.15-0.15c0-0.03,0.02-0.05,0.05-0.05
			L53.35,32.35z M54.45,35.55c0.07,0.07,0.15,0.12,0.25,0.15c0.13,0.17,0.18,0.3,0.15,0.4c-0.03,0.3-0.27,0.5-0.7,0.6
			c-0.17-0.1-0.4-0.15-0.7-0.15c-0.23-0.03-0.42-0.03-0.55,0c-0.13-0.03-0.22-0.08-0.25-0.15c-0.13-0.17-0.15-0.33-0.05-0.5
			c0-0.03,0.02-0.07,0.05-0.1l0.05-0.05c0.07-0.03,0.13-0.07,0.2-0.1c0.13-0.1,0.32-0.15,0.55-0.15c0.1,0,0.23,0,0.4,0
			c0.03,0,0.08,0,0.15,0C54.17,35.5,54.32,35.52,54.45,35.55z"/>
		<path fill-rule="evenodd" clip-rule="evenodd" fill="#818387" d="M62.2,36.7c0.03,0.03,0.08,0.05,0.15,0.05
			c0.23,0.1,0.38,0.15,0.45,0.15c0.4-0.1,0.63-0.22,0.7-0.35c0.2,0.03,0.33,0.1,0.4,0.2c0.13,0.13,0.17,0.28,0.1,0.45
			c-0.13,0.4-0.53,0.58-1.2,0.55c-0.4,0-0.68-0.15-0.85-0.45c-0.13-0.13-0.13-0.27,0-0.4L62,36.8l0.05-0.05h0.15V36.7z M61.65,39.75
			c0.2-0.07,0.4-0.1,0.6-0.1c0.33,0,0.6,0.07,0.8,0.2c0.1,0.17,0.15,0.3,0.15,0.4c0,0.03,0,0.07,0,0.1c-0.1,0.27-0.42,0.43-0.95,0.5
			c-0.27,0-0.48-0.1-0.65-0.3c-0.13-0.07-0.2-0.13-0.2-0.2c0-0.1,0-0.2,0-0.3c0.07-0.07,0.13-0.12,0.2-0.15v-0.05L61.65,39.75z
			 M72.45,38.55c0.2-0.03,0.4-0.05,0.6-0.05c0.33,0,0.58,0.07,0.75,0.2c0.13,0.13,0.18,0.25,0.15,0.35c-0.07,0.33-0.37,0.53-0.9,0.6
			c-0.27,0-0.5-0.08-0.7-0.25c-0.2-0.13-0.25-0.32-0.15-0.55c0.07-0.07,0.12-0.12,0.15-0.15h0.05
			C72.4,38.67,72.42,38.62,72.45,38.55z M71.2,36.8c0-0.03,0.02-0.05,0.05-0.05c0.4-0.13,0.77-0.13,1.1,0
			c0.97,0.43,0.9,0.82-0.2,1.15c-0.23-0.03-0.5-0.1-0.8-0.2c-0.33-0.2-0.45-0.45-0.35-0.75c0.03-0.03,0.08-0.05,0.15-0.05
			C71.15,36.83,71.17,36.8,71.2,36.8z M81.05,38.85c0.1,0.13,0.13,0.27,0.1,0.4c-0.03,0.33-0.32,0.53-0.85,0.6
			c-0.27,0-0.5-0.1-0.7-0.3c-0.23-0.13-0.3-0.32-0.2-0.55c0.1-0.03,0.17-0.07,0.2-0.1c0-0.03,0.02-0.05,0.05-0.05
			c0-0.07,0.02-0.1,0.05-0.1c0.17-0.07,0.37-0.1,0.6-0.1C80.63,38.65,80.88,38.72,81.05,38.85z"/>
		<path fill-rule="evenodd" clip-rule="evenodd" fill="#54555C" d="M64.45,39.4c-0.03-0.1-0.03-0.23,0-0.4l0.15-0.05V38.9
			c0-0.03,0.02-0.05,0.05-0.05c0-0.07,0.02-0.1,0.05-0.1c0.33-0.13,0.65-0.17,0.95-0.1c0.37,0,0.63,0.07,0.8,0.2
			c0.13,0.13,0.17,0.28,0.1,0.45c-0.13,0.4-0.55,0.58-1.25,0.55C64.87,39.85,64.58,39.7,64.45,39.4z M59.95,41.95
			c-0.1,0-0.23,0-0.4,0c-0.23,0-0.43,0.05-0.6,0.15c-0.07,0-0.1,0.02-0.1,0.05h-0.1c-0.03,0.07-0.07,0.12-0.1,0.15
			c-0.03,0.1-0.05,0.18-0.05,0.25c-0.13-0.03-0.27-0.12-0.4-0.25c-0.13-0.13-0.15-0.3-0.05-0.5c0-0.03,0.02-0.07,0.05-0.1h0.05
			c0.07-0.07,0.12-0.12,0.15-0.15c0.17-0.07,0.37-0.1,0.6-0.1c0.37,0,0.65,0.07,0.85,0.2C59.98,41.82,60.02,41.92,59.95,41.95z
			 M68,41.65c0-0.03,0-0.07,0-0.1c0.2-0.07,0.4-0.1,0.6-0.1c0.23,0,0.45,0.03,0.65,0.1c0,0.03,0.03,0.07,0.1,0.1
			c0.1,0.17,0.13,0.3,0.1,0.4c-0.03,0.33-0.32,0.53-0.85,0.6c-0.23,0-0.47-0.1-0.7-0.3c-0.2-0.13-0.27-0.28-0.2-0.45v-0.1
			c0.03-0.07,0.1-0.1,0.2-0.1C67.9,41.67,67.93,41.65,68,41.65z M67.65,39l0.05-0.05c0.2-0.13,0.42-0.2,0.65-0.2
			c0.3,0,0.53,0.08,0.7,0.25c0.13,0.17,0.17,0.3,0.1,0.4c-0.03,0.33-0.3,0.52-0.8,0.55c-0.23,0-0.48-0.07-0.75-0.2
			c-0.2-0.13-0.25-0.32-0.15-0.55c0.07-0.07,0.12-0.12,0.15-0.15C67.6,39.02,67.62,39,67.65,39z M15.05,41.3l0.1-0.05
			c0.13-0.1,0.3-0.15,0.5-0.15c0.33,0,0.6,0.07,0.8,0.2c0.13,0.13,0.17,0.27,0.1,0.4c-0.03,0.3-0.33,0.5-0.9,0.6
			c-0.23,0-0.45-0.08-0.65-0.25c-0.2-0.17-0.23-0.35-0.1-0.55c0.03-0.07,0.07-0.12,0.1-0.15C15,41.32,15.02,41.3,15.05,41.3z
			 M28.65,44.35c-0.13,0.23-0.42,0.38-0.85,0.45c-0.23,0-0.45-0.08-0.65-0.25c-0.3-0.13-0.38-0.3-0.25-0.5
			c0.07-0.1,0.15-0.15,0.25-0.15c0-0.03,0.02-0.05,0.05-0.05c0-0.03,0.02-0.07,0.05-0.1c0.17-0.1,0.35-0.15,0.55-0.15
			c0.3,0,0.53,0.08,0.7,0.25c-0.07,0.13-0.07,0.27,0,0.4c0,0.03,0.02,0.05,0.05,0.05C28.55,44.33,28.58,44.35,28.65,44.35z
			 M44.85,46.55h0.1c0-0.03,0.02-0.07,0.05-0.1c0.17-0.07,0.35-0.1,0.55-0.1c0.33,0,0.57,0.07,0.7,0.2
			c0.13,0.13,0.18,0.25,0.15,0.35c-0.03,0.37-0.32,0.57-0.85,0.6c-0.23,0-0.47-0.07-0.7-0.2c-0.23-0.17-0.28-0.37-0.15-0.6
			C44.8,46.67,44.85,46.62,44.85,46.55z M52.9,42.65c0.07,0.13,0.1,0.23,0.1,0.3c0,0.03,0,0.07,0,0.1
			c-0.03,0.33-0.32,0.52-0.85,0.55c-0.27,0-0.52-0.08-0.75-0.25c-0.13-0.1-0.18-0.23-0.15-0.4c0-0.03,0-0.07,0-0.1
			c0.1-0.07,0.15-0.12,0.15-0.15s0.02-0.05,0.05-0.05l0.05-0.05c0.2-0.1,0.42-0.15,0.65-0.15C52.45,42.45,52.7,42.52,52.9,42.65z
			 M42.65,52.2c0.17-0.17,0.42-0.25,0.75-0.25c0.23,0,0.43,0.05,0.6,0.15c0.03,0.03,0.05,0.07,0.05,0.1h0.05
			c0,0.03,0.07,0.08,0.2,0.15c0.1,0.23,0.03,0.42-0.2,0.55c-0.23,0.17-0.47,0.25-0.7,0.25c-0.53-0.07-0.82-0.27-0.85-0.6
			C42.55,52.45,42.58,52.33,42.65,52.2z M35.95,48.6c0.6-0.9,1.2-0.9,1.8,0c0.03,0.13-0.03,0.27-0.2,0.4
			c-0.23,0.17-0.48,0.25-0.75,0.25c-0.53-0.07-0.82-0.25-0.85-0.55C35.95,48.67,35.95,48.64,35.95,48.6z M60.3,49.95h0.1
			c0.03,0,0.05-0.02,0.05-0.05c0.07-0.13,0.07-0.28,0-0.45c0.17-0.13,0.4-0.2,0.7-0.2c0.23,0,0.42,0.05,0.55,0.15
			c0.03,0,0.05,0.02,0.05,0.05c0.03,0,0.05,0.02,0.05,0.05c0.07,0.03,0.15,0.08,0.25,0.15c0.13,0.2,0.05,0.37-0.25,0.5
			c-0.2,0.2-0.42,0.3-0.65,0.3C60.72,50.39,60.43,50.22,60.3,49.95z"/>
		<path fill-rule="evenodd" clip-rule="evenodd" fill="#5A5D63" d="M65.35,43.75c0.07-0.03,0.12-0.08,0.15-0.15
			c0-0.03,0.03-0.05,0.1-0.05V43.5c0.37-0.1,0.72-0.1,1.05,0c1.07,0.4,1.02,0.78-0.15,1.15c-0.23-0.03-0.52-0.1-0.85-0.2
			C65.35,44.25,65.25,44.02,65.35,43.75z M64.95,47.45c-0.23,0-0.5-0.1-0.8-0.3c-0.23-0.13-0.28-0.3-0.15-0.5
			c0.07-0.07,0.12-0.12,0.15-0.15c0-0.03,0.03-0.05,0.1-0.05l0.15-0.1c0.13-0.07,0.32-0.1,0.55-0.1c0.27,0,0.48,0.07,0.65,0.2
			c0.13,0.17,0.2,0.3,0.2,0.4C65.7,47.19,65.42,47.39,64.95,47.45z M56.5,44.5c0-0.03,0.02-0.05,0.05-0.05
			c0.17-0.1,0.37-0.15,0.6-0.15c0.27,0,0.5,0.07,0.7,0.2c0.13,0.13,0.18,0.27,0.15,0.4c0,0.3-0.28,0.5-0.85,0.6
			c-0.07,0-0.12,0-0.15,0l0.05,0.05c0.17,0.13,0.23,0.25,0.2,0.35c-0.07,0.37-0.37,0.57-0.9,0.6c-0.23,0-0.47-0.08-0.7-0.25
			c-0.23-0.13-0.28-0.32-0.15-0.55c0.07-0.03,0.12-0.08,0.15-0.15h0.05c0-0.03,0.02-0.07,0.05-0.1c0.2-0.1,0.4-0.15,0.6-0.15
			c0.1,0,0.16,0,0.2,0c-0.04,0-0.09-0.02-0.15-0.05c-0.2-0.13-0.23-0.33-0.1-0.6c0.03-0.03,0.07-0.07,0.1-0.1
			C56.4,44.52,56.43,44.5,56.5,44.5z M72.55,45.35c0-0.03,0.02-0.05,0.05-0.05c0.17-0.1,0.38-0.15,0.65-0.15s0.5,0.07,0.7,0.2
			c0.13,0.13,0.17,0.27,0.1,0.4c0,0.1-0.03,0.2-0.1,0.3c0.2,0.07,0.4,0.15,0.6,0.25c0.13,0.13,0.2,0.27,0.2,0.4
			c-0.1,0.3-0.4,0.5-0.9,0.6c-0.3-0.1-0.63-0.17-1-0.2c-0.53-0.1-0.75-0.35-0.65-0.75c0.07-0.03,0.12-0.07,0.15-0.1
			c0-0.03,0.02-0.05,0.05-0.05c0-0.03,0.02-0.05,0.05-0.05h0.1l-0.1-0.05c-0.2-0.17-0.23-0.35-0.1-0.55c0.03-0.07,0.07-0.13,0.1-0.2
			H72.55z M74.55,44.8c-0.2-0.13-0.23-0.32-0.1-0.55c0.07-0.07,0.1-0.12,0.1-0.15h0.05c0-0.03,0.05-0.05,0.15-0.05
			c0.17-0.1,0.35-0.15,0.55-0.15c0.3,0,0.53,0.07,0.7,0.2c0.13,0.13,0.18,0.25,0.15,0.35C76.08,44.78,75.8,45,75.3,45.1
			C75,45.1,74.75,45,74.55,44.8z M66.8,45.95h0.05c0-0.03,0.03-0.07,0.1-0.1c0.2-0.07,0.4-0.1,0.6-0.1c0.3,0,0.55,0.07,0.75,0.2
			c0.13,0.13,0.18,0.27,0.15,0.4c-0.07,0.33-0.37,0.52-0.9,0.55c-0.27,0-0.52-0.07-0.75-0.2c-0.2-0.17-0.23-0.35-0.1-0.55
			C66.77,46.08,66.8,46.02,66.8,45.95z M69.55,42.15c0.2-0.07,0.4-0.1,0.6-0.1c0.33,0,0.58,0.07,0.75,0.2
			c0.1,0.13,0.13,0.27,0.1,0.4c0,0.13-0.05,0.23-0.15,0.3c-0.13,0.13-0.37,0.22-0.7,0.25c-0.23,0-0.47-0.08-0.7-0.25
			c-0.23-0.13-0.27-0.33-0.1-0.6c0.03-0.03,0.07-0.05,0.1-0.05c0-0.03,0.02-0.05,0.05-0.05C69.5,42.19,69.52,42.15,69.55,42.15z
			 M79,43.75c0-0.03,0.02-0.05,0.05-0.05c0.2-0.1,0.4-0.15,0.6-0.15c0.3,0,0.55,0.07,0.75,0.2c0.13,0.13,0.18,0.25,0.15,0.35
			c-0.03,0.37-0.33,0.57-0.9,0.6c-0.27,0-0.5-0.08-0.7-0.25c-0.2-0.13-0.25-0.32-0.15-0.55c0.07-0.03,0.12-0.07,0.15-0.1
			C78.95,43.77,78.97,43.75,79,43.75z M11.45,44.1c-0.03,0-0.05-0.02-0.05-0.05c-0.03,0-0.05-0.03-0.05-0.1V43.9
			c-0.1-0.03-0.15-0.07-0.15-0.1c0-0.07,0-0.15,0-0.25c0-0.03,0.05-0.08,0.15-0.15c0.43,0,0.93,0,1.5,0c0.37,0.37,0.13,0.67-0.7,0.9
			c-0.13,0-0.27-0.02-0.4-0.05C11.68,44.19,11.58,44.14,11.45,44.1z M9.8,46.35c0-0.1,0-0.18,0-0.25c0-0.1,0.03-0.15,0.1-0.15
			l0.05-0.1c0-0.07,0.02-0.1,0.05-0.1l0.15-0.05c0.23-0.13,0.5-0.13,0.8,0c0.9,0.5,0.82,0.88-0.25,1.15c-0.13,0-0.28-0.03-0.45-0.1
			c-0.07-0.03-0.15-0.07-0.25-0.1c-0.03,0-0.05-0.03-0.05-0.1V46.5c-0.03,0-0.05-0.02-0.05-0.05L9.8,46.35z M8.45,43.35
			c0.1-0.03,0.27-0.17,0.5-0.4c0.07-0.07,0.13-0.12,0.2-0.15c0.2-0.27,0.45-0.22,0.75,0.15c0.1,0.13,0.2,0.3,0.3,0.5
			c-0.03,0.3-0.3,0.47-0.8,0.5c-0.3,0-0.53-0.08-0.7-0.25C8.53,43.6,8.45,43.48,8.45,43.35z M13.7,41.3c0.1,0.1,0.13,0.2,0.1,0.3
			c-0.07,0.33-0.35,0.52-0.85,0.55c-0.27,0-0.52-0.07-0.75-0.2c0.23,0,0.45,0.03,0.65,0.1c0.47-0.07,0.75-0.27,0.85-0.6
			C13.7,41.39,13.7,41.33,13.7,41.3z M15.25,38.7c0.03-0.1,0.07-0.15,0.1-0.15c0-0.03,0.02-0.05,0.05-0.05l0.1-0.05
			c0.17-0.1,0.37-0.15,0.6-0.15c0.3,0,0.55,0.07,0.75,0.2c0.13,0.13,0.18,0.27,0.15,0.4c-0.07,0.33-0.37,0.53-0.9,0.6
			c-0.3,0-0.55-0.08-0.75-0.25C15.15,39.08,15.12,38.9,15.25,38.7z M18.9,45.15c0.3,0,0.53,0.07,0.7,0.2
			c0.13,0.13,0.18,0.27,0.15,0.4c-0.07,0.33-0.35,0.53-0.85,0.6c-0.3,0-0.55-0.08-0.75-0.25c-0.23-0.17-0.27-0.35-0.1-0.55
			c0.03-0.07,0.07-0.13,0.1-0.2h0.05c0-0.03,0.03-0.05,0.1-0.05C18.47,45.2,18.67,45.15,18.9,45.15z M16.25,45.65
			c0.27,0,0.5,0.07,0.7,0.2c0.13,0.17,0.18,0.3,0.15,0.4c-0.07,0.33-0.35,0.53-0.85,0.6c-0.23,0-0.5-0.1-0.8-0.3
			c-0.2-0.13-0.23-0.3-0.1-0.5c0.03-0.07,0.07-0.12,0.1-0.15c0-0.03,0.03-0.05,0.1-0.05l0.1-0.1
			C15.85,45.69,16.05,45.65,16.25,45.65z M22.1,44.25c0.83,0.47,0.65,0.83-0.55,1.1c-0.03,0-0.08,0-0.15,0h-0.1
			c-0.3-0.07-0.52-0.2-0.65-0.4c-0.03-0.03-0.05-0.1-0.05-0.2c0.17,0.1,0.32,0.15,0.45,0.15c0.57-0.07,0.87-0.27,0.9-0.6
			C21.95,44.27,22,44.25,22.1,44.25z M29.85,44.9h0.05c0-0.07,0.02-0.12,0.05-0.15c0.2-0.07,0.42-0.1,0.65-0.1
			c0.3,0,0.55,0.08,0.75,0.25c0.1,0.13,0.13,0.25,0.1,0.35c-0.03,0.33-0.32,0.53-0.85,0.6c-0.27,0-0.52-0.1-0.75-0.3
			c-0.2-0.13-0.25-0.3-0.15-0.5C29.73,44.98,29.78,44.94,29.85,44.9z M30.85,47.5c0-0.03,0.02-0.07,0.05-0.1
			c0.17-0.07,0.37-0.1,0.6-0.1c0.13,0,0.25,0,0.35,0c0.13,0.03,0.23,0.1,0.3,0.2h0.15c0.1,0.13,0.12,0.25,0.05,0.35
			c0,0.1-0.02,0.17-0.05,0.2h-1.65c-0.1-0.1-0.1-0.23,0-0.4c0.07-0.07,0.12-0.12,0.15-0.15H30.85z M33.05,43.3
			c0.23,0,0.4,0.02,0.5,0.05c0.13,0.03,0.22,0.08,0.25,0.15c0.07,0.13,0.1,0.23,0.1,0.3c0,0.03,0,0.07,0,0.1
			c-0.03,0.33-0.32,0.52-0.85,0.55c-0.23,0-0.47-0.07-0.7-0.2s-0.3-0.32-0.2-0.55c0.1-0.1,0.17-0.15,0.2-0.15
			c0-0.03,0.03-0.05,0.1-0.05c0-0.03,0.03-0.07,0.1-0.1C32.68,43.33,32.85,43.3,33.05,43.3z M39.85,46.05
			c0.03-0.07,0.08-0.12,0.15-0.15c0-0.03,0.02-0.05,0.05-0.05l0.05-0.1c0.2-0.07,0.4-0.1,0.6-0.1c0.27,0,0.5,0.07,0.7,0.2
			c0.17,0.17,0.23,0.3,0.2,0.4c-0.03,0.33-0.33,0.53-0.9,0.6c-0.27,0-0.5-0.1-0.7-0.3C39.77,46.42,39.72,46.25,39.85,46.05z
			 M43.35,43.45c0.2-0.07,0.37-0.1,0.5-0.1c0.3,0,0.55,0.07,0.75,0.2c0.17,0.17,0.2,0.3,0.1,0.4c-0.03,0.27-0.2,0.43-0.5,0.5
			c0.03,0.07,0.07,0.12,0.1,0.15c0.13,0.13,0.17,0.25,0.1,0.35c-0.03,0.37-0.28,0.57-0.75,0.6c-0.3,0-0.57-0.08-0.8-0.25
			c-0.2-0.13-0.23-0.32-0.1-0.55c0.03-0.07,0.07-0.1,0.1-0.1V44.6h0.05c0-0.03,0.05-0.07,0.15-0.1c0.07-0.03,0.17-0.07,0.3-0.1
			c-0.1,0-0.17-0.03-0.2-0.1c-0.23-0.13-0.27-0.32-0.1-0.55c0.03-0.03,0.07-0.08,0.1-0.15c0-0.03,0.02-0.05,0.05-0.05l0.1-0.05
			L43.35,43.45z M49.05,45.55c0.2-0.13,0.38-0.2,0.55-0.2c0.33,0,0.58,0.1,0.75,0.3c0.17,0.13,0.23,0.23,0.2,0.3
			c-0.07,0.37-0.38,0.57-0.95,0.6c-0.23,0-0.47-0.07-0.7-0.2c-0.2-0.13-0.22-0.33-0.05-0.6c0-0.03,0.02-0.07,0.05-0.1h0.15V45.55z
			 M47.1,47.5c0.17-0.1,0.35-0.15,0.55-0.15c0.33,0,0.58,0.07,0.75,0.2c0.13,0.13,0.18,0.27,0.15,0.4v0.1h-1.8
			c-0.03-0.1,0-0.22,0.1-0.35c0.07-0.03,0.12-0.07,0.15-0.1c0-0.03,0.02-0.05,0.05-0.05C47.05,47.52,47.07,47.5,47.1,47.5z
			 M55.15,49.15c0.07-0.07,0.15-0.12,0.25-0.15c0.13-0.07,0.3-0.1,0.5-0.1c0.23,0,0.42,0.05,0.55,0.15c0.07,0.03,0.1,0.07,0.1,0.1
			h0.05c0.07,0.03,0.13,0.08,0.2,0.15c0.1,0.23,0.03,0.42-0.2,0.55c-0.2,0.17-0.43,0.25-0.7,0.25c-0.53-0.07-0.8-0.27-0.8-0.6
			c0-0.03,0-0.07,0-0.1C55.1,49.33,55.12,49.25,55.15,49.15z M46.1,50.2v0.1c0.03,0,0.07,0.03,0.1,0.1c0.17,0.2,0.13,0.38-0.1,0.55
			c-0.23,0.17-0.5,0.25-0.8,0.25c-0.47-0.03-0.72-0.23-0.75-0.6c-0.07-0.1-0.02-0.23,0.15-0.4c0.03-0.03,0.05-0.07,0.05-0.1
			c-0.3-0.1-0.45-0.27-0.45-0.5c-0.13-0.13-0.12-0.27,0.05-0.4c0.23-0.13,0.48-0.2,0.75-0.2c0.13,0,0.3,0.03,0.5,0.1l0.05,0.05
			c0.07,0,0.1,0.02,0.1,0.05c0.03,0,0.05,0.02,0.05,0.05c0.07,0.03,0.12,0.08,0.15,0.15c0.13,0.23,0.08,0.42-0.15,0.55
			C45.77,49.98,45.7,50,45.6,50c0.13,0.03,0.25,0.08,0.35,0.15c0.07,0,0.1,0.02,0.1,0.05H46.1z M47.5,51.5
			c0.23-0.13,0.5-0.2,0.8-0.2c0.17,0,0.35,0.03,0.55,0.1l0.05,0.1c0.03,0,0.05,0.02,0.05,0.05c0.07,0,0.12,0.05,0.15,0.15
			c0.13,0.17,0.08,0.33-0.15,0.5c-0.23,0.17-0.45,0.25-0.65,0.25c-0.6-0.03-0.92-0.22-0.95-0.55C47.32,51.77,47.37,51.64,47.5,51.5z
			 M41.2,52.95c0.2,0,0.4,0.05,0.6,0.15v0.05c0.03,0,0.05,0.03,0.05,0.1c0.03,0.03,0.08,0.07,0.15,0.1c0.1,0.1,0.12,0.22,0.05,0.35
			c-0.57,0.43-1.17,0.43-1.8,0c0-0.03,0-0.08,0-0.15c-0.03-0.1,0.02-0.23,0.15-0.4C40.6,53.02,40.87,52.95,41.2,52.95z M38.45,51.6
			c-0.07-0.07-0.02-0.18,0.15-0.35C38.77,51.08,39,51,39.3,51c0.23,0,0.43,0.05,0.6,0.15c0.03,0.03,0.05,0.07,0.05,0.1
			c0.07,0,0.1,0.02,0.1,0.05c0.03,0.03,0.07,0.07,0.1,0.1c0.13,0.23,0.1,0.42-0.1,0.55c-0.23,0.17-0.48,0.25-0.75,0.25
			C38.77,52.17,38.48,51.97,38.45,51.6z M32.6,50.95c0.23,0,0.43,0.05,0.6,0.15l0.05,0.05c0.03,0,0.05,0.02,0.05,0.05
			c0.07,0.03,0.12,0.08,0.15,0.15c0.13,0.23,0.08,0.42-0.15,0.55c-0.23,0.17-0.47,0.25-0.7,0.25c-0.53-0.07-0.82-0.27-0.85-0.6
			c-0.03-0.13,0-0.27,0.1-0.4H31.8c-0.53-0.1-0.82-0.32-0.85-0.65c-0.03-0.1,0.02-0.22,0.15-0.35c0.2-0.13,0.43-0.2,0.7-0.2
			c0.23,0,0.43,0.03,0.6,0.1c0.03,0.03,0.05,0.07,0.05,0.1h0.1c0.03,0.03,0.08,0.08,0.15,0.15c0.13,0.23,0.08,0.43-0.15,0.6
			c-0.06,0.03-0.11,0.05-0.15,0.05C32.44,50.95,32.5,50.95,32.6,50.95z M23.3,50.05c-0.33,0.1-0.62,0.18-0.85,0.25
			c-1.13-0.37-1.17-0.75-0.1-1.15c0.3-0.13,0.63-0.13,1,0c0.03,0,0.05,0.02,0.05,0.05c0.03,0,0.05,0.02,0.05,0.05
			c0.07,0.03,0.12,0.08,0.15,0.15C23.73,49.67,23.63,49.89,23.3,50.05z M22,51.5l0.1,0.05c0.03,0,0.05,0.02,0.05,0.05
			c0.03,0.07,0.07,0.12,0.1,0.15c0.13,0.23,0.1,0.42-0.1,0.55c-0.23,0.17-0.48,0.25-0.75,0.25c-0.53-0.07-0.82-0.27-0.85-0.6
			c-0.07-0.13-0.02-0.27,0.15-0.4c0.17-0.13,0.4-0.2,0.7-0.2C21.63,51.35,21.83,51.4,22,51.5z M24.8,52.15
			c0.03,0.03,0.07,0.07,0.1,0.1c0.17,0.23,0.13,0.42-0.1,0.55c-0.27,0.17-0.52,0.25-0.75,0.25c-0.5-0.07-0.78-0.27-0.85-0.6
			c-0.03-0.1,0.02-0.22,0.15-0.35c0.17-0.13,0.4-0.2,0.7-0.2c0.2,0,0.38,0.02,0.55,0.05c0.1,0.07,0.15,0.12,0.15,0.15
			C24.78,52.1,24.8,52.12,24.8,52.15z M18.25,49.15c-0.47-0.03-0.75-0.22-0.85-0.55c-0.03-0.13,0.03-0.27,0.2-0.4
			c0.13-0.13,0.35-0.2,0.65-0.2c0.2,0,0.38,0.03,0.55,0.1c0.1,0.03,0.15,0.07,0.15,0.1c0.07,0,0.1,0.02,0.1,0.05
			c0.03,0,0.07,0.03,0.1,0.1c0.13,0.23,0.1,0.42-0.1,0.55C18.75,49.07,18.48,49.15,18.25,49.15z M16.5,51
			c0.03,0.07,0.07,0.12,0.1,0.15c0.1,0.23,0.07,0.42-0.1,0.55l-0.05,0.05h0.05c0.03,0,0.05,0.03,0.05,0.1
			c0.03,0,0.05,0.02,0.05,0.05c0.07,0,0.12,0.02,0.15,0.05c0.13,0.43-0.07,0.7-0.6,0.8c-0.4,0.03-0.77,0.08-1.1,0.15
			c-0.47-0.07-0.73-0.27-0.8-0.6c-0.03-0.1,0.02-0.23,0.15-0.4c0.2-0.1,0.4-0.17,0.6-0.2c-0.03-0.1-0.05-0.22-0.05-0.35
			c-0.1-0.1-0.08-0.22,0.05-0.35c0.2-0.17,0.43-0.25,0.7-0.25c0.3,0,0.52,0.07,0.65,0.2c0.07,0,0.1,0.02,0.1,0.05H16.5z M12.85,50.1
			c-0.07-0.1-0.03-0.22,0.1-0.35c0.17-0.17,0.38-0.25,0.65-0.25c0.23,0,0.45,0.05,0.65,0.15c0.07,0.03,0.1,0.07,0.1,0.1h0.05
			c0.03,0.03,0.07,0.08,0.1,0.15c0.13,0.2,0.1,0.38-0.1,0.55c-0.2,0.17-0.47,0.25-0.8,0.25C13.13,50.64,12.88,50.44,12.85,50.1z
			 M10,49.4c0.03,0.03,0.08,0.08,0.15,0.15c0.13,0.23,0.08,0.42-0.15,0.55c-0.2,0.17-0.43,0.25-0.7,0.25
			c-0.57-0.03-0.85-0.23-0.85-0.6c-0.03-0.1,0-0.22,0.1-0.35c0.2-0.17,0.45-0.25,0.75-0.25c0.2,0,0.4,0.05,0.6,0.15
			c0.03,0.03,0.05,0.07,0.05,0.1H10z M80,48.6c0.23,0.2,0.42,0.33,0.55,0.4c0,0.13-0.08,0.25-0.25,0.35
			c-0.2,0.17-0.43,0.25-0.7,0.25c-0.5-0.07-0.78-0.23-0.85-0.5c0.1-0.2,0.2-0.37,0.3-0.5H80z M77.75,49.15c0,0.1,0,0.18,0,0.25
			c0,0.03-0.03,0.08-0.1,0.15c0,0.03-0.02,0.05-0.05,0.05c0,0.03-0.02,0.07-0.05,0.1c0,0.03-0.03,0.05-0.1,0.05
			c-0.1,0.03-0.18,0.07-0.25,0.1c-0.13,0.07-0.25,0.1-0.35,0.1c-0.87-0.23-1.12-0.53-0.75-0.9c0.5-0.43,1.02-0.43,1.55,0
			L77.75,49.15z M79,51.5c0.03,0,0.07,0.02,0.1,0.05c0.03,0.03,0.05,0.08,0.05,0.15c0,0.1,0,0.18,0,0.25L79.1,52.1
			c0,0.03-0.02,0.05-0.05,0.05c0,0.03-0.02,0.05-0.05,0.05c0,0.03-0.02,0.05-0.05,0.05c-0.1,0.07-0.2,0.12-0.3,0.15
			c-0.13,0.03-0.27,0.05-0.4,0.05c-1.03-0.27-1.1-0.63-0.2-1.1c0.27-0.13,0.53-0.13,0.8,0c0.07,0,0.1,0.02,0.1,0.05
			C78.98,51.4,79,51.44,79,51.5z M72.85,51.95L73,52.1c0.07,0.2,0.02,0.38-0.15,0.55c-0.27,0.17-0.53,0.25-0.8,0.25
			c-0.1,0-0.17-0.02-0.2-0.05c-0.03,0.03-0.1,0.05-0.2,0.05c-0.13,0-0.28-0.03-0.45-0.1c-0.1-0.03-0.25-0.07-0.45-0.1
			c-1-0.57-1.03-1.05-0.1-1.45c0.23-0.1,0.47-0.1,0.7,0c0.33,0.17,0.6,0.32,0.8,0.45c0.17,0,0.35,0.05,0.55,0.15l0.1,0.05
			C72.83,51.9,72.85,51.92,72.85,51.95z M66.9,49.85c0.07,0.03,0.1,0.07,0.1,0.1c0.03,0.33,0.32,0.52,0.85,0.55
			c0.17,0,0.33-0.03,0.5-0.1c0,0.07-0.02,0.12-0.05,0.15c-0.13,0.23-0.35,0.38-0.65,0.45H67.6c-0.1,0-0.17,0-0.2,0
			C66.2,50.73,66.03,50.35,66.9,49.85z M59,50.4c0.07,0.03,0.1,0.07,0.1,0.1c0.07,0.03,0.12,0.08,0.15,0.15
			c0.1,0.23,0.05,0.42-0.15,0.55c-0.23,0.2-0.47,0.3-0.7,0.3c-0.57-0.1-0.87-0.3-0.9-0.6c0-0.13,0.05-0.27,0.15-0.4
			c0.17-0.13,0.42-0.2,0.75-0.2C58.6,50.3,58.8,50.33,59,50.4z M57.1,52.95c0.13-0.03,0.27-0.05,0.4-0.05c0.2,0,0.38,0.03,0.55,0.1
			c0.03,0.03,0.05,0.07,0.05,0.1c0.03,0,0.05,0.02,0.05,0.05c0.03,0,0.08,0.05,0.15,0.15c0.13,0.13,0.13,0.27,0,0.4
			c-0.67,0.33-1.2,0.33-1.6,0c-0.07-0.07-0.1-0.13-0.1-0.2c-0.03-0.1,0-0.22,0.1-0.35c0.07,0,0.1-0.02,0.1-0.05
			C56.87,53,56.97,52.95,57.1,52.95z"/>
		<path fill-rule="evenodd" clip-rule="evenodd" fill="#5B5C64" d="M29.25,34.9h0.05c0-0.07,0.02-0.1,0.05-0.1
			c0.17-0.07,0.35-0.1,0.55-0.1c0.3,0,0.55,0.07,0.75,0.2c0.13,0.13,0.18,0.27,0.15,0.4c-0.03,0.3-0.33,0.48-0.9,0.55
			c-0.23,0-0.45-0.08-0.65-0.25c-0.27-0.13-0.32-0.32-0.15-0.55C29.1,34.98,29.15,34.94,29.25,34.9z M34.65,41.55
			c0.07-0.03,0.2-0.05,0.4-0.05h0.05c0.04,0,0.11,0,0.2,0c0.2,0.03,0.33,0.1,0.4,0.2c0.17,0.13,0.23,0.27,0.2,0.4
			c0,0.03-0.02,0.1-0.05,0.2c-0.13,0.23-0.4,0.37-0.8,0.4c-0.27,0-0.47-0.08-0.6-0.25H34.4c-0.3-0.13-0.37-0.32-0.2-0.55
			c0.03-0.07,0.1-0.12,0.2-0.15c0-0.03,0.02-0.05,0.05-0.05l0.05-0.05C34.5,41.62,34.55,41.58,34.65,41.55z M27,39.85l0.15-0.1
			c0.13-0.07,0.3-0.1,0.5-0.1c0.33,0,0.58,0.07,0.75,0.2c0.1,0.17,0.13,0.3,0.1,0.4c-0.03,0.33-0.32,0.53-0.85,0.6
			c-0.23,0-0.48-0.1-0.75-0.3c-0.2-0.13-0.25-0.3-0.15-0.5c0.1-0.07,0.15-0.12,0.15-0.15C26.9,39.87,26.93,39.85,27,39.85z
			 M41.75,40.1c-0.13-0.1-0.37-0.15-0.7-0.15c-0.2,0-0.38,0.05-0.55,0.15c-0.03,0.03-0.05,0.07-0.05,0.1
			c-0.03-0.03-0.08-0.07-0.15-0.1c-0.07,0-0.12-0.02-0.15-0.05c-0.1-0.2-0.12-0.37-0.05-0.5c0-0.03,0.02-0.07,0.05-0.1l0.05-0.05
			c0.53-0.47,0.98-0.52,1.35-0.15h0.05c0.07,0,0.15,0.03,0.25,0.1c0.1,0.13,0.13,0.27,0.1,0.4v0.1C41.92,39.92,41.85,40,41.75,40.1z
			"/>
		<path fill-rule="evenodd" clip-rule="evenodd" fill="#6B6D73" d="M35.65,34.95c0.13,0.13,0.15,0.27,0.05,0.4
			c-0.03,0.33-0.28,0.53-0.75,0.6c-0.3,0-0.55-0.08-0.75-0.25c-0.23-0.13-0.28-0.33-0.15-0.6c0.07-0.03,0.12-0.07,0.15-0.1
			c0-0.03,0.02-0.05,0.05-0.05c0-0.03,0.05-0.05,0.15-0.05c0.03-0.07,0.07-0.1,0.1-0.1c0.1-0.03,0.25-0.05,0.45-0.05
			C35.22,34.75,35.45,34.82,35.65,34.95z M19.55,39.55c-0.07-0.13-0.07-0.28,0-0.45c0.03-0.07,0.08-0.1,0.15-0.1
			c0-0.03,0.02-0.05,0.05-0.05c0-0.03,0.02-0.07,0.05-0.1c0.2-0.1,0.42-0.15,0.65-0.15c0.33,0,0.58,0.08,0.75,0.25
			c0.07,0.13,0.1,0.25,0.1,0.35c-0.03,0.37-0.32,0.57-0.85,0.6h-0.1C20.25,39.67,19.98,39.55,19.55,39.55z M21.55,41.95
			c0.8,0.43,0.88,0.77,0.25,1c-0.13,0.07-0.3,0.13-0.5,0.2c0-0.03-0.03-0.05-0.1-0.05c-0.1,0-0.17,0-0.2,0
			c-0.1-0.03-0.18-0.08-0.25-0.15c-0.13-0.07-0.27-0.17-0.4-0.3c-0.03-0.2-0.03-0.37,0-0.5c0.07-0.03,0.12-0.07,0.15-0.1
			c0-0.07,0.03-0.1,0.1-0.1l0.05-0.05C21.02,41.77,21.32,41.78,21.55,41.95z M34.45,38.45c0-0.07,0.02-0.1,0.05-0.1
			c0.3-0.13,0.6-0.18,0.9-0.15c0.13,0,0.22,0,0.25,0c0.2,0.07,0.38,0.15,0.55,0.25c0.1,0.13,0.13,0.28,0.1,0.45
			c-0.17,0.4-0.58,0.57-1.25,0.5c-0.4,0-0.68-0.13-0.85-0.4c-0.1-0.17-0.1-0.32,0-0.45l0.05-0.05h0.15
			C34.4,38.47,34.42,38.45,34.45,38.45z M30.6,40.35c0.83,0.5,0.73,0.88-0.3,1.15c-0.17,0-0.3-0.02-0.4-0.05s-0.18-0.08-0.25-0.15
			H29.6c-0.03-0.03-0.05-0.08-0.05-0.15c-0.07,0-0.1-0.02-0.1-0.05c-0.03-0.03-0.05-0.07-0.05-0.1c0-0.07,0-0.15,0-0.25
			c0-0.03,0.02-0.07,0.05-0.1c0.07-0.07,0.12-0.12,0.15-0.15c0-0.03,0.02-0.05,0.05-0.05c0-0.03,0.02-0.07,0.05-0.1
			C30.03,40.22,30.33,40.22,30.6,40.35z M35.9,42.1c0.03-0.13-0.03-0.27-0.2-0.4c-0.07-0.1-0.2-0.17-0.4-0.2l0.05-0.1
			c-0.06,0.06-0.15,0.1-0.25,0.1h-0.05c-0.2,0-0.33,0.02-0.4,0.05c-0.1,0-0.17-0.02-0.2-0.05c-0.13,0-0.23-0.03-0.3-0.1
			c-0.07,0-0.1-0.02-0.1-0.05l-0.1-0.05c-0.03,0-0.05-0.02-0.05-0.05l-0.05-0.15c0.13,0.03,0.27,0.05,0.4,0.05
			c0.17-0.03,0.32-0.08,0.45-0.15c0,0.07,0.02,0.1,0.05,0.1c0.2,0.17,0.4,0.27,0.6,0.3c0.03,0.03,0.12,0.05,0.25,0.05
			c0.4,0,0.7-0.1,0.9-0.3c-0.13,0.17-0.13,0.33,0,0.5v0.05l0.05,0.05c0,0.03,0.02,0.05,0.05,0.05c0.13,0.07,0.22,0.1,0.25,0.1
			c-0.17,0.13-0.37,0.2-0.6,0.2C36.18,42.1,36.07,42.1,35.9,42.1z M36.55,40.9c0,0.03,0.02,0.05,0.05,0.05
			c-0.03,0.03-0.07,0.08-0.1,0.15C36.53,41.03,36.55,40.97,36.55,40.9z M35.85,42.3h0.05c0.17,0.17,0.22,0.3,0.15,0.4
			c0,0.1-0.03,0.18-0.1,0.25c-0.17,0.13-0.37,0.23-0.6,0.3c0-0.07-0.03-0.15-0.1-0.25v-0.05c-0.03,0-0.07,0-0.1,0
			c-0.13-0.1-0.35-0.15-0.65-0.15c-0.03,0-0.12,0-0.25,0c-0.03-0.1,0.02-0.2,0.15-0.3l0.05-0.05c0.13,0.17,0.33,0.25,0.6,0.25
			C35.45,42.67,35.72,42.53,35.85,42.3z M27.95,37.15c0.2-0.07,0.4-0.1,0.6-0.1c0.37,0,0.63,0.07,0.8,0.2
			c0.13,0.13,0.17,0.25,0.1,0.35c-0.03,0.37-0.33,0.57-0.9,0.6c-0.23,0-0.45-0.08-0.65-0.25c-0.23-0.13-0.28-0.32-0.15-0.55
			c0.03-0.07,0.08-0.1,0.15-0.1v-0.05C27.9,37.22,27.92,37.19,27.95,37.15z M42.1,40.35c-0.07-0.03-0.12-0.08-0.15-0.15
			c-0.03-0.03-0.1-0.07-0.2-0.1c0.1-0.1,0.17-0.18,0.2-0.25c0.13,0.17,0.18,0.3,0.15,0.4C42.1,40.28,42.1,40.32,42.1,40.35z
			 M40.45,40.2l-0.15,0.1c0-0.07,0-0.13,0-0.2C40.37,40.14,40.42,40.17,40.45,40.2z M39,36.05c0.17,0.13,0.23,0.28,0.2,0.45
			c-0.07,0.3-0.37,0.48-0.9,0.55c-0.2,0-0.45-0.1-0.75-0.3c-0.2-0.13-0.22-0.32-0.05-0.55c0-0.03,0.02-0.07,0.05-0.1
			c0-0.03,0.05-0.05,0.15-0.05c0-0.03,0.02-0.05,0.05-0.05c0.1-0.03,0.2-0.07,0.3-0.1c0.23,0.07,0.53,0.1,0.9,0.1
			C38.98,36,39,36.02,39,36.05z M42.85,44.6c-0.17-0.03-0.35-0.1-0.55-0.2c-0.2-0.17-0.23-0.35-0.1-0.55
			c0.03-0.07,0.07-0.12,0.1-0.15h0.1c0-0.07,0.02-0.12,0.05-0.15c0.2-0.07,0.42-0.1,0.65-0.1c0.07,0,0.15,0,0.25,0L43.3,43.5
			l-0.1,0.05c-0.03,0-0.05,0.02-0.05,0.05c-0.03,0.07-0.07,0.12-0.1,0.15c-0.17,0.23-0.13,0.42,0.1,0.55c0.03,0.07,0.1,0.1,0.2,0.1
			c-0.13,0.03-0.23,0.07-0.3,0.1c-0.1,0.03-0.15,0.07-0.15,0.1H42.85z M46.1,50.2h-0.05c0-0.03-0.03-0.05-0.1-0.05
			c-0.1-0.07-0.22-0.12-0.35-0.15c0.1,0,0.17-0.02,0.2-0.05c0.23-0.13,0.28-0.32,0.15-0.55c-0.03-0.07-0.08-0.12-0.15-0.15
			c0-0.03-0.02-0.05-0.05-0.05c0-0.03-0.03-0.05-0.1-0.05L45.6,49.1c0.1,0,0.2,0,0.3,0c0.2,0,0.4,0.03,0.6,0.1c0,0.03,0,0.07,0,0.1
			c0.1,0,0.15,0.02,0.15,0.05c0.03,0.03,0.07,0.07,0.1,0.1c0.13,0.23,0.1,0.42-0.1,0.55C46.48,50.1,46.3,50.17,46.1,50.2z"/>
		<path fill-rule="evenodd" clip-rule="evenodd" fill="#6B6C74" d="M35.1,41.5c0.1,0,0.19-0.04,0.25-0.1l-0.05,0.1
			C35.21,41.5,35.14,41.5,35.1,41.5z"/>
	</g>
	<g>
		<path fill-rule="evenodd" clip-rule="evenodd" fill="#C61C1C" d="M86.65,32.65h0.05c0.7,0.3,0.62,0.68-0.25,1.15
			c-0.1,0.03-0.22,0.05-0.35,0.05C85.93,33.45,86.12,33.05,86.65,32.65z M88.05,34.15c0.23-0.27,0.47-0.52,0.7-0.75l0.05-0.1
			c-0.03,0.23-0.27,0.52-0.7,0.85H88.05z M92.45,33.1v-0.05c-0.3-0.03-0.32-0.17-0.05-0.4c0.27-0.17,0.47-0.33,0.6-0.5
			c0.6,0.17,1.12,0.3,1.55,0.4C94.18,33.19,93.48,33.37,92.45,33.1z M89.6,35.8c-0.53-0.4-0.4-0.85,0.4-1.35
			c0.5,0.37,0.38,0.82-0.35,1.35H89.6z M89.4,43.1c-0.83-0.33-0.72-0.5,0.35-0.5c2.6,0,3.18,0.37,1.75,1.1
			C90.73,43.6,90.03,43.4,89.4,43.1z M90.05,40.25c-0.3-0.17-0.4-0.42-0.3-0.75c0.1-0.23,0.27-0.33,0.5-0.3
			c1.77,0,2.03,0.38,0.8,1.15c-0.1,0.03-0.23,0.07-0.4,0.1C90.42,40.42,90.22,40.35,90.05,40.25z M107.65,33.3
			c-0.47-0.03-0.8-0.17-1-0.4c-0.23-0.23-0.15-0.38,0.25-0.45C109.2,32.22,109.45,32.5,107.65,33.3z M112.75,32.7
			c2.03-0.3,2.4-0.02,1.1,0.85c-0.53-0.03-0.93-0.18-1.2-0.45C112.42,32.87,112.45,32.73,112.75,32.7z M97.8,33.05
			c0.13-0.1,0.28-0.23,0.45-0.4c0.03-0.1,0.12-0.18,0.25-0.25c0.67,0.37,0.43,0.6-0.7,0.7V33.05z M96.5,34.6
			c0.37-0.07,0.65-0.07,0.85,0c0.43,0.03,0.15,0.28-0.85,0.75c-0.3,0-0.52-0.07-0.65-0.2c-0.4-0.3-0.35-0.48,0.15-0.55
			C96.23,34.6,96.4,34.6,96.5,34.6z M100.3,40c0.23,0.13,0.27,0.28,0.1,0.45c-0.17,0.17-0.45,0.33-0.85,0.5H99.5
			c-0.37-0.07-0.67-0.22-0.9-0.45c-0.03-0.03-0.07-0.07-0.1-0.1l-0.05-0.05c-0.3-0.27-0.25-0.42,0.15-0.45
			C99.4,39.87,99.97,39.9,100.3,40z M96.2,36.95c2.1,0,2.38,0.5,0.85,1.5c-0.8-0.17-1.2-0.53-1.2-1.1
			C95.78,37.12,95.9,36.98,96.2,36.95z M113.65,40.7c-0.1-0.17-0.02-0.27,0.25-0.3c1.47-0.3,1.87-0.2,1.2,0.3
			c-0.17,0.13-0.38,0.23-0.65,0.3c-0.2,0-0.4-0.05-0.6-0.15C113.72,40.78,113.65,40.73,113.65,40.7z M116.1,43.3
			c-0.47,0-0.75-0.15-0.85-0.45c-0.07-0.23-0.02-0.38,0.15-0.45C117.3,42.1,117.53,42.4,116.1,43.3z M107.9,39.05
			c-0.33-0.27-0.32-0.42,0.05-0.45c1.73-0.37,1.93-0.15,0.6,0.65C108.28,39.25,108.07,39.19,107.9,39.05z M135.7,34.85
			c-0.3-0.23-0.28-0.37,0.05-0.4c1.77-0.33,1.98-0.13,0.65,0.6C136.13,35.05,135.9,34.98,135.7,34.85z M117.05,34.5
			c-0.23,0-0.48-0.07-0.75-0.2c-0.3-0.23-0.25-0.38,0.15-0.45C118.18,33.55,118.38,33.77,117.05,34.5z M119.2,45.95
			c2.1-0.27,2.25-0.02,0.45,0.75c-0.27,0-0.47-0.05-0.6-0.15C118.65,46.28,118.7,46.08,119.2,45.95z M137.7,41.85
			c-0.03,0.07-0.17,0.17-0.4,0.3c-0.2,0.1-0.5,0.22-0.9,0.35c-1-0.23-1.23-0.62-0.7-1.15c0.1-0.17,0.22-0.25,0.35-0.25
			c0.07,0,0.17,0,0.3,0c0.1,0,0.17,0,0.2,0C137.65,41.3,138.03,41.55,137.7,41.85z M128.05,47.9c-0.2,0.13-0.42,0.2-0.65,0.2
			c-0.27-0.07-0.47-0.17-0.6-0.3c-0.7-0.5-0.3-0.62,1.2-0.35c0.23,0.07,0.3,0.17,0.2,0.3C128.2,47.78,128.15,47.83,128.05,47.9z
			 M135.95,45.35c-0.1-0.23-0.05-0.37,0.15-0.4c1.87-0.37,2.12-0.1,0.75,0.8C136.35,45.75,136.05,45.62,135.95,45.35z M143.05,32.5
			c-0.27,0-0.52-0.08-0.75-0.25c-0.3-0.2-0.27-0.33,0.1-0.4C144.1,31.52,144.32,31.73,143.05,32.5z M143.25,47.6
			c-0.2,0.2-0.48,0.33-0.85,0.4c-0.03,0.03-0.08,0.05-0.15,0.05c-0.33-0.2-0.6-0.37-0.8-0.5c-0.13-0.17-0.1-0.32,0.1-0.45
			c0.33-0.13,0.9-0.17,1.7-0.1c0.4,0.03,0.45,0.18,0.15,0.45c-0.03,0-0.05,0.02-0.05,0.05C143.32,47.53,143.28,47.57,143.25,47.6z
			 M150.55,37.25c-0.17-0.2-0.1-0.32,0.2-0.35c2.07-0.23,2.33,0.03,0.8,0.8C151.08,37.67,150.75,37.52,150.55,37.25z M150.8,47.4
			c-1.23-0.73-0.97-1.12,0.8-1.15c0.23-0.03,0.4,0.07,0.5,0.3c0.1,0.37,0,0.63-0.3,0.8c-0.13,0.1-0.33,0.17-0.6,0.2
			C151.03,47.48,150.9,47.44,150.8,47.4z M152.1,49.65c1.07,0,1.17,0.17,0.3,0.5c-0.57,0.33-1.25,0.53-2.05,0.6
			C148.92,50.02,149.5,49.65,152.1,49.65z M126.6,49.95c-0.1,0.27-0.38,0.42-0.85,0.45c-1.47-0.93-1.23-1.23,0.7-0.9
			C126.62,49.53,126.67,49.69,126.6,49.95z M122.8,53.65c-0.13,0.1-0.33,0.15-0.6,0.15c-1.8-0.8-1.65-1.07,0.45-0.8
			C123.18,53.14,123.23,53.35,122.8,53.65z M104.55,49.2c-0.2-0.13-0.33-0.22-0.4-0.25c-0.33-0.33,0.05-0.58,1.15-0.75
			c0.03,0,0.1,0,0.2,0c0.13,0,0.23,0,0.3,0c0.13,0,0.25,0.07,0.35,0.2c0.53,0.57,0.3,0.97-0.7,1.2
			C105.05,49.47,104.75,49.33,104.55,49.2z M105,52.85c-1.37-0.93-1.12-1.22,0.75-0.85c0.2,0.07,0.27,0.22,0.2,0.45
			C105.82,52.72,105.5,52.85,105,52.85z"/>
		<path fill-rule="evenodd" clip-rule="evenodd" fill="#6B6C74" d="M86.65,33.95v0.1c-0.1,0-0.2,0-0.3,0
			C86.45,34.02,86.55,33.98,86.65,33.95z"/>
		<path fill-rule="evenodd" clip-rule="evenodd" fill="#E43A3A" d="M91.9,40.7c-0.07-0.2,0-0.32,0.2-0.35l0.15-0.1
			c1.13-0.17,1.68-0.13,1.65,0.1c-0.03,0.17-0.37,0.43-1,0.8C92.37,41.15,92.03,41,91.9,40.7z M86.05,38.65
			c0.43,0.1,0.83,0.22,1.2,0.35c0.07,0.03,0.13,0.05,0.2,0.05c-0.23,0.27-0.48,0.52-0.75,0.75c-0.03,0.07-0.08,0.12-0.15,0.15
			c-0.47-0.1-0.92-0.27-1.35-0.5c0.27-0.23,0.52-0.47,0.75-0.7L86.05,38.65z M86.25,37.1c-0.07-0.37,0.12-0.7,0.55-1l0.05-0.05
			c0.33,0.3,0.17,0.62-0.5,0.95C86.32,37.07,86.28,37.1,86.25,37.1z M94.2,43.3c1.9-0.3,2.18-0.05,0.85,0.75
			c-0.33,0-0.63-0.1-0.9-0.3C93.85,43.52,93.87,43.37,94.2,43.3z M93.25,45.7h2.2c0,0.4-0.32,0.65-0.95,0.75
			C93.87,46.15,93.45,45.9,93.25,45.7z M98.8,32.45h-0.15c-0.23-0.13-0.1-0.38,0.4-0.75l0.1-0.1C99.82,31.83,99.7,32.12,98.8,32.45z
			 M105.5,33.5c-0.3,0.23-0.57,0.48-0.8,0.75c-1.37-0.43-1.5-1.05-0.4-1.85c0.27,0.33,0.6,0.68,1,1.05
			C105.33,33.48,105.4,33.5,105.5,33.5z M100.3,40c0.1-0.03,0.22-0.05,0.35-0.05c2-0.13,2.72,0.05,2.15,0.55
			c-0.13,0.13-0.33,0.28-0.6,0.45c-0.67-0.03-1.27-0.18-1.8-0.45v-0.05C100.57,40.28,100.53,40.14,100.3,40z M98.6,40.5
			c0.23,0.23,0.53,0.38,0.9,0.45c-0.2,0.1-0.43,0.22-0.7,0.35c-0.37,0-0.63-0.12-0.8-0.35c-0.23-0.23-0.15-0.37,0.25-0.4
			C98.38,40.52,98.5,40.5,98.6,40.5z M105.1,44.4c0-0.1,0.05-0.15,0.15-0.15c0.8-0.07,1.33-0.45,1.6-1.15
			c0.6,0.13,0.9,0.22,0.9,0.25c0.1,0.03,0.2,0.05,0.3,0.05c3.13,0.3,3.33,0.68,0.6,1.15c-0.6,0-1.07-0.17-1.4-0.5
			C106.58,44.95,105.87,45.07,105.1,44.4z M136.15,33.85c-0.23-0.2-0.2-0.32,0.1-0.35c1.77-0.33,2.02-0.12,0.75,0.65
			C136.7,34.15,136.42,34.05,136.15,33.85z M121.55,33.7c-0.73-0.03-1.33-0.22-1.8-0.55c-0.33-0.17-0.3-0.3,0.1-0.4
			C122.45,32.52,123.02,32.83,121.55,33.7z M128.95,43.15c-0.23,0-0.47-0.08-0.7-0.25c-0.3-0.2-0.28-0.33,0.05-0.4
			C130.03,42.2,130.25,42.42,128.95,43.15z M137.2,38.6c-0.23,0-0.45-0.07-0.65-0.2c-0.33-0.23-0.3-0.38,0.1-0.45
			C138.35,37.62,138.53,37.83,137.2,38.6z M144.4,36.1c-0.27,0-0.52-0.1-0.75-0.3c-0.3-0.2-0.28-0.33,0.05-0.4
			C145.43,35.1,145.67,35.33,144.4,36.1z M141.45,47.55v0.05c-0.53,0.27-1.13,0.42-1.8,0.45c-0.27-0.17-0.47-0.32-0.6-0.45
			c-0.57-0.5,0.17-0.68,2.2-0.55c0.1,0,0.2,0.02,0.3,0.05C141.35,47.23,141.32,47.39,141.45,47.55z M142.4,48
			c0.37-0.07,0.65-0.2,0.85-0.4c0.1,0,0.23,0.02,0.4,0.05c0.37,0.03,0.45,0.15,0.25,0.35c-0.17,0.23-0.45,0.35-0.85,0.35
			C142.78,48.25,142.57,48.14,142.4,48z M147,37.95c2.27,0,2.38,0.47,0.35,1.4c-0.8-0.1-1.1-0.45-0.9-1.05
			C146.48,38.07,146.67,37.95,147,37.95z M149.28,47.3c0.12,0.01,0.24,0.03,0.38,0.05l0.1,0.05c0.17,0.07,0.23,0.2,0.2,0.4
			c-0.13,0.3-0.47,0.45-1,0.45c-0.63-0.37-0.95-0.63-0.95-0.8c-0.03-0.18,0.31-0.24,1-0.17v0.02H149.28z M154.45,46.15
			c0.03,0,0.08-0.02,0.15-0.05c0.4-0.13,0.82-0.25,1.25-0.35l0.05,0.1c0.23,0.2,0.48,0.43,0.75,0.7c-0.43,0.23-0.88,0.4-1.35,0.5
			c-0.07-0.03-0.1-0.08-0.1-0.15C154.9,46.67,154.65,46.42,154.45,46.15z M154.8,42.85c0.33-0.23,0.68-0.27,1.05-0.1
			c1.5,0.67,1.1,1.28-1.2,1.85c-0.33,0-0.55-0.1-0.65-0.3C153.87,43.77,154.13,43.28,154.8,42.85z M146.8,51.15
			c-1.3-0.8-1.03-1.05,0.8-0.75c0.37,0.07,0.4,0.22,0.1,0.45C147.43,51.05,147.13,51.15,146.8,51.15z M136.75,51.5
			c-0.77,0.67-1.48,0.55-2.15-0.35c-0.33,0.33-0.82,0.5-1.45,0.5c-2.73-0.47-2.52-0.85,0.65-1.15c0.13,0,0.23-0.02,0.3-0.05
			c0-0.07,0.3-0.17,0.9-0.3c0.27,0.73,0.82,1.12,1.65,1.15C136.72,51.3,136.75,51.37,136.75,51.5z M113.55,49.6
			c0.33,0.03,0.35,0.17,0.05,0.4c-0.23,0.13-0.47,0.2-0.7,0.2C111.6,49.47,111.82,49.27,113.55,49.6z M87,49.95
			c0.7,0.43,0.98,0.9,0.85,1.4c-0.1,0.23-0.3,0.35-0.6,0.35c-2.33-0.57-2.73-1.18-1.2-1.85C86.38,49.69,86.7,49.72,87,49.95z"/>
		<path fill-rule="evenodd" clip-rule="evenodd" fill="#E73F3F" d="M97.35,34.6c-0.2-0.07-0.48-0.07-0.85,0
			c-0.1-0.1-0.25-0.17-0.45-0.2c0.2-0.1,0.3-0.2,0.3-0.3v-0.15v-0.2c0.07,0.07,0.15,0.12,0.25,0.15c-0.1,0-0.18,0.02-0.25,0.05
			c0.07,0,0.15,0,0.25,0C96.93,34.19,97.18,34.4,97.35,34.6z"/>
		<path fill-rule="evenodd" clip-rule="evenodd" fill="#E03334" d="M99.8,36.65c-0.2-0.4-0.05-0.63,0.45-0.7
			c1.9-0.23,2.27,0.03,1.1,0.8C101.28,36.75,100.77,36.72,99.8,36.65z"/>
		<path fill-rule="evenodd" clip-rule="evenodd" fill="#DD3233" d="M96.95,36.5c1.7,0.4,1.7,0.55,0,0.45V36.5z"/>
		<path fill-rule="evenodd" clip-rule="evenodd" fill="#E03B3A" d="M98.25,36.3c0.13-0.1,0.2-0.2,0.2-0.3l0.1-0.6
			C100.22,35.37,100.12,35.67,98.25,36.3z"/>
		<path fill-rule="evenodd" clip-rule="evenodd" fill="#E43234" d="M99.8,44.4l0.25,0.05c1.23,0.3,1.68,0.67,1.35,1.1
			c-0.9,1.63-1.83,1.57-2.8-0.2C98.73,44.75,99.13,44.44,99.8,44.4z M142.05,51.5c0.67,0.03,1.07,0.35,1.2,0.95
			c-0.97,1.77-1.92,1.83-2.85,0.2c-0.27-0.47,0.2-0.83,1.4-1.1L142.05,51.5z"/>
		<path fill-rule="evenodd" clip-rule="evenodd" fill="#DF3333" d="M96.45,47.3H94.8c0.3-0.77,0.93-1.53,1.9-2.3
			c0.13-0.07,0.32,0.12,0.55,0.55c0.4,0.53,0.03,1.03-1.1,1.5C96.02,47.08,96.12,47.17,96.45,47.3z M144.6,52.6
			c0.23-0.43,0.42-0.6,0.55-0.5c0.97,0.73,1.6,1.48,1.9,2.25h-1.65c0.3-0.1,0.4-0.17,0.3-0.2C144.57,53.69,144.2,53.17,144.6,52.6z"
			/>
		<path fill-rule="evenodd" clip-rule="evenodd" fill="#E84241" d="M98.6,47.3c0-0.13-0.03-0.22-0.1-0.25
			c-0.17-0.13-0.45-0.27-0.85-0.4c0.77-0.2,1.47,0.02,2.1,0.65H98.6z M144.2,53.75c-0.37,0.13-0.65,0.27-0.85,0.4
			c-0.07,0.03-0.1,0.1-0.1,0.2h-1.15C142.73,53.75,143.43,53.55,144.2,53.75z"/>
		<path fill-rule="evenodd" clip-rule="evenodd" fill="#E23032" d="M101.9,46c0.7-0.73,1.22-0.7,1.55,0.1l0.3,0.55
			C103.48,46.55,102.87,46.33,101.9,46z M138.4,53.15c0.33-0.8,0.87-0.83,1.6-0.1c-1,0.37-1.62,0.6-1.85,0.7L138.4,53.15z"/>
		<path fill-rule="evenodd" clip-rule="evenodd" fill="#E13435" d="M111.8,37.65c-0.2-0.43-0.08-0.62,0.35-0.55
			C113.92,37.37,113.8,37.55,111.8,37.65z M120.45,36.65c1.27-0.47,2.03-0.38,2.3,0.25C123.68,38.97,122.92,38.89,120.45,36.65z"/>
		<path fill-rule="evenodd" clip-rule="evenodd" fill="#E33737" d="M107.7,38.3c0.6-0.57,0.83-1.12,0.7-1.65
			c-0.17-0.7,0.02-0.85,0.55-0.45C109.82,36.87,109.4,37.57,107.7,38.3z M150.75,42.4l-0.35,1.1c-0.07,0.17-0.12,0.3-0.15,0.4
			c-0.67,1.2-1.12,1.37-1.35,0.5C148.47,43.07,149.08,42.4,150.75,42.4z M91.1,49.5c1.67,0,2.28,0.67,1.85,2
			c-0.23,0.87-0.68,0.7-1.35-0.5c-0.03-0.1-0.08-0.23-0.15-0.4L91.1,49.5z"/>
		<path fill-rule="evenodd" clip-rule="evenodd" fill="#E03233" d="M117.55,36.05c0-0.13,0.02-0.22,0.05-0.25
			C121.3,35.53,121.28,35.62,117.55,36.05z"/>
		<path fill-rule="evenodd" clip-rule="evenodd" fill="#DF3737" d="M120.9,37.3c0,0.1-0.03,0.22-0.1,0.35
			c-0.23,1.07-0.92,1.93-2.05,2.6c0-0.13,0.05-0.25,0.15-0.35C119.4,38.94,120.07,38.07,120.9,37.3z"/>
		<path fill-rule="evenodd" clip-rule="evenodd" fill="#E13B3B" d="M122.2,41.95l0.7,0.2c-0.33,0.57-1.28,0.78-2.85,0.65
			C120.25,41.94,120.97,41.65,122.2,41.95z M119,49.2l0.65-0.2c1.23-0.27,1.95,0.03,2.15,0.9C120.2,50,119.27,49.77,119,49.2z"/>
		<path fill-rule="evenodd" clip-rule="evenodd" fill="#E43637" d="M122.35,35c1.37,0.27,0.98,0.5-1.15,0.7
			C121.3,35.14,121.68,34.9,122.35,35z"/>
		<path fill-rule="evenodd" clip-rule="evenodd" fill="#E13334" d="M137.7,41.85c0.43-0.23,0.05,0.08-1.15,0.95
			c0-0.1,0.05-0.18,0.15-0.25c0.23-0.17,0.43-0.3,0.6-0.4C137.53,42.02,137.67,41.92,137.7,41.85z M104.15,48.95
			c0.07,0.03,0.2,0.12,0.4,0.25c0.17,0.13,0.37,0.27,0.6,0.4c0.1,0.1,0.15,0.2,0.15,0.3C104.13,49.03,103.75,48.72,104.15,48.95z"/>
		<path fill-rule="evenodd" clip-rule="evenodd" fill="#E03837" d="M149,47.28c0.24-1.27,0.45-1.27,0.65,0.02h-0.38H149V47.28z
			 M92.85,54.35H92.2C92.43,53.08,92.65,53.08,92.85,54.35z"/>
	</g>
	<g>
		<linearGradient id="SVGID_1_" gradientUnits="userSpaceOnUse" x1="-60.0249" y1="42.8267" x2="61.7251" y2="42.8267">
			<stop  offset="0" style="stop-color:#000000;stop-opacity:0.498"/>
			<stop  offset="1" style="stop-color:#000000;stop-opacity:0"/>
		</linearGradient>
		<rect x="4.35" y="30.65" fill-rule="evenodd" clip-rule="evenodd" fill="url(#SVGID_1_)" width="154.4" height="24.35"/>
	</g>
	<g>
		<g>
			<g>
				<path fill-rule="evenodd" clip-rule="evenodd" fill-opacity="0.4706" d="M143.1,45.4c0.77,4.67,0.95,7.93,0.55,9.8H140
					c0-0.13,0-0.27,0-0.4c-0.37-2.17-0.5-4.65-0.4-7.45C139.7,44.55,140.87,43.9,143.1,45.4z"/>
			</g>
			<g>
				<path fill-rule="evenodd" clip-rule="evenodd" fill="#616161" d="M141.45,45.4c0.2-0.2,0.45-0.3,0.75-0.3
					c0.27,0,0.52,0.1,0.75,0.3c0.2,0.3,0.3,0.6,0.3,0.9v9.2c0.03,2.17-0.2,3.45-0.7,3.85c-0.4,0.53-0.92,0.65-1.55,0.35
					c-0.1-0.07-0.22-0.15-0.35-0.25c-0.17-0.13-0.35-0.33-0.55-0.6c-0.1-0.1-0.18-0.2-0.25-0.3l-1.35-2.3
					c-0.03-0.07-0.22-0.43-0.55-1.1h2.5v0.05l0.6,1.1c0-0.27,0-0.52,0-0.75V46.3C141.05,46,141.18,45.7,141.45,45.4z"/>
			</g>
			<g>
				<path fill-rule="evenodd" clip-rule="evenodd" fill="#FFFFFF" d="M142.25,45.75c0.07,0,0.12,0.03,0.15,0.1
					c0.27,0.67,0.07,1.02-0.6,1.05c0-0.03-0.02-0.07-0.05-0.1C141.68,46.3,141.85,45.95,142.25,45.75z"/>
				
					<radialGradient id="SVGID_2_" cx="-680.5498" cy="-690.1987" r="4.175" gradientTransform="matrix(-1 0 0 1.1377 -538 838.4578)" gradientUnits="userSpaceOnUse">
					<stop  offset="0" style="stop-color:#FFFFFF"/>
					<stop  offset="1" style="stop-color:#F9F9F9;stop-opacity:0"/>
				</radialGradient>
				<path fill-rule="evenodd" clip-rule="evenodd" fill="url(#SVGID_2_)" d="M142.45,48.4c0.03-0.03,0.07-0.03,0.1,0
					c0.03-0.03,0.07-0.03,0.1,0c0.03,0.03,0.03,0.07,0,0.1V58c0.03,0.03,0.03,0.07,0,0.1c-0.03,0.03-0.07,0.05-0.1,0.05
					s-0.07-0.02-0.1-0.05c-0.03-0.03-0.05-0.07-0.05-0.1v-9.5C142.4,48.47,142.42,48.44,142.45,48.4z"/>
			</g>
		</g>
	</g>
	<g>
		<g>
			<g>
				<path fill-rule="evenodd" clip-rule="evenodd" fill-opacity="0.4706" d="M17.3,45.15c2.5-1.53,3.82-0.88,3.95,1.95
					c0.13,2.8,0,5.28-0.4,7.45c0,0.13,0,0.25,0,0.35H16.7C16.23,53.07,16.43,49.82,17.3,45.15z"/>
			</g>
			<g>
				<path fill-rule="evenodd" clip-rule="evenodd" fill="#616161" d="M20.4,45.15c0.27,0.3,0.4,0.58,0.4,0.85v9.3
					c0,0.3,0,0.58,0,0.85c0.1-0.13,0.23-0.2,0.4-0.2l0.5-0.7L25,55.2c-2.17,2.5-3.33,3.77-3.5,3.8c-0.07,0.07-0.13,0.13-0.2,0.2
					c-0.87,0.6-1.58,0.57-2.15-0.1c-0.57-0.4-0.83-1.68-0.8-3.85V46c0-0.27,0.12-0.55,0.35-0.85c0.27-0.23,0.55-0.35,0.85-0.35
					C19.88,44.8,20.17,44.92,20.4,45.15z"/>
			</g>
			<g>
				<path fill-rule="evenodd" clip-rule="evenodd" fill="#FFFFFF" d="M19.3,45.6c0.07-0.07,0.12-0.1,0.15-0.1
					c0.47,0.2,0.67,0.53,0.6,1C20.02,46.53,20,46.57,20,46.6C19.23,46.57,19,46.23,19.3,45.6z"/>
				
					<radialGradient id="SVGID_3_" cx="19.1499" cy="52.9517" r="4.7" gradientTransform="matrix(1 0 0 1.0106 0 -0.5633)" gradientUnits="userSpaceOnUse">
					<stop  offset="0" style="stop-color:#FFFFFF"/>
					<stop  offset="1" style="stop-color:#F9F9F9;stop-opacity:0"/>
				</radialGradient>
				<path fill-rule="evenodd" clip-rule="evenodd" fill="url(#SVGID_3_)" d="M19.05,48.25c-0.03-0.03-0.03-0.07,0-0.1
					c0.03-0.03,0.07-0.03,0.1,0c0.03-0.03,0.07-0.03,0.1,0c0.03,0.03,0.05,0.07,0.05,0.1v9.5c0,0.03-0.02,0.07-0.05,0.1
					c-0.03,0.03-0.07,0.05-0.1,0.05s-0.07-0.02-0.1-0.05c-0.03-0.03-0.03-0.07,0-0.1V48.25z"/>
			</g>
		</g>
	</g>
</g>
</svg>
