<?xml version="1.0" encoding="utf-8"?>
<!-- Generator: Adobe Illustrator 16.0.0, SVG Export Plug-In . SVG Version: 6.00 Build 0)  -->
<!DOCTYPE svg PUBLIC "-//W3C//DTD SVG 1.1//EN" "http://www.w3.org/Graphics/SVG/1.1/DTD/svg11.dtd">
<svg version="1.1" id="Layer_8" xmlns="http://www.w3.org/2000/svg" xmlns:xlink="http://www.w3.org/1999/xlink" x="0px" y="0px"
	 width="163.67px" height="63.33px" viewBox="0 0 163.67 63.33" enable-background="new 0 0 163.67 63.33" xml:space="preserve">
<g>
	<g>
		<g>
			<path fill-rule="evenodd" clip-rule="evenodd" fill="#616161" d="M84.1,3.3c0.83-0.33,1.7-0.33,2.6,0c0.8,0.3,1.62,0.9,2.45,1.8
				v0.1L92,8.65l0.05,0.05c1.17,1.47,2.42,2.22,3.75,2.25h41.7c0.03,0,0.07,0,0.1,0c2.5,0.23,4,1.98,4.5,5.25c0,0.1,0,0.17,0,0.2
				v17.5c0,0.27-0.08,0.5-0.25,0.7c-0.17,0.23-0.37,0.38-0.6,0.45c-0.27,0.03-0.52,0-0.75-0.1c-0.3-0.1-0.48-0.28-0.55-0.55
				l-0.2-0.45l-0.35,21.2h-2.3l0.45-26.3c0-0.3,0.1-0.53,0.3-0.7c0.13-0.27,0.33-0.42,0.6-0.45c0.2-0.07,0.45-0.05,0.75,0.05
				c0.2,0.13,0.37,0.32,0.5,0.55l0.1,0.25V16.6c-0.27-1.97-1.08-3.05-2.45-3.25H95.8c-2.03,0-3.87-1.05-5.5-3.15l-2.85-3.45
				C86.92,6.18,86.43,5.8,86,5.6c-0.43-0.17-0.83-0.17-1.2,0h-0.05c-0.53,0.2-1.07,0.63-1.6,1.3l-2.1,2.65
				c-1.47,2.53-3.62,3.8-6.45,3.8H29.8c-1.33,0.2-2.15,1.28-2.45,3.25v12l0.15-0.25c0.1-0.27,0.27-0.47,0.5-0.6
				c0.23-0.1,0.47-0.12,0.7-0.05c0.27,0.03,0.52,0.18,0.75,0.45c0.13,0.17,0.2,0.4,0.2,0.7l0.3,16H27.7L27.5,33.9l-0.25,0.5
				c-0.13,0.27-0.32,0.45-0.55,0.55c-0.27,0.1-0.5,0.13-0.7,0.1c-0.27-0.07-0.47-0.22-0.6-0.45c-0.2-0.2-0.3-0.43-0.3-0.7V16.4
				c0-0.03,0-0.1,0-0.2c0.5-3.27,2-5.02,4.5-5.25c0.03,0,0.07,0,0.1,0h44.9c2.03,0,3.55-0.9,4.55-2.7c0.03-0.07,0.08-0.12,0.15-0.15
				l2.2-2.8C82.33,4.27,83.2,3.6,84.1,3.3z"/>
		</g>
		<g>
			<line fill-rule="evenodd" clip-rule="evenodd" fill="none" x1="89.1" y1="6.65" x2="93" y2="10.95"/>
			<line fill-rule="evenodd" clip-rule="evenodd" fill="none" x1="78.6" y1="10.7" x2="81.25" y2="7.25"/>
			<path fill-rule="evenodd" clip-rule="evenodd" fill="none" d="M73.85,12.5c2.2-0.23,3.67-0.72,4.4-1.45"/>
			<path fill-rule="evenodd" clip-rule="evenodd" fill="none" d="M82.85,5.55c1.73-1.87,3.32-1.92,4.75-0.15"/>
			<line fill-rule="evenodd" clip-rule="evenodd" fill="none" x1="141" y1="16.3" x2="141" y2="28.55"/>
			<line fill-rule="evenodd" clip-rule="evenodd" fill="none" x1="95.9" y1="12.15" x2="138.85" y2="12.15"/>
			<line fill-rule="evenodd" clip-rule="evenodd" fill="none" x1="26" y1="17.5" x2="26" y2="25.9"/>
			<line fill-rule="evenodd" clip-rule="evenodd" fill="none" x1="27.55" y1="12.15" x2="70.5" y2="12.15"/>
		</g>
		<g>
			<path fill-rule="evenodd" clip-rule="evenodd" fill="#FFFFFF" d="M93.85,10.75c0.37,0.1,0.6,0.28,0.7,0.55c0,0.03,0,0.08,0,0.15
				c-0.77,0.37-1.03,0.18-0.8-0.55C93.75,10.8,93.78,10.75,93.85,10.75z M139.95,13.2c0,0.03,0,0.07,0,0.1
				c-0.87-0.27-1.1-0.7-0.7-1.3c0.07,0,0.1-0.03,0.1-0.1C139.95,12.17,140.15,12.6,139.95,13.2z M141.1,17.15
				c-0.53-0.7-0.53-1.42,0-2.15c0.47,0.6,0.52,1.27,0.15,2C141.18,17.07,141.13,17.12,141.1,17.15z M31.4,12.4
				c-0.43,0.37-0.78,0.27-1.05-0.3c-0.03-0.17,0.05-0.25,0.25-0.25c0.1-0.03,0.18-0.05,0.25-0.05h0.1c0.2-0.13,2.53-0.15,7-0.05
				c4.47,0.07,6.9,0.1,7.3,0.1l-8.1,0.25C35.25,13,33.33,13.1,31.4,12.4z"/>
		</g>
	</g>
	<g>
		<polygon fill-rule="evenodd" clip-rule="evenodd" fill="#C61C1C" points="86.25,28.75 155.45,28.75 155.45,28.9 153.85,30.65 
			83.1,30.65 		"/>
		<polygon fill-rule="evenodd" clip-rule="evenodd" fill="#5A5D63" points="83.1,30.65 7.5,30.65 13.65,28.75 86.25,28.75 		"/>
		<polygon fill-rule="evenodd" clip-rule="evenodd" fill="#F34747" points="153.85,54.95 153.85,30.65 155.45,28.9 155.45,52.7 		
			"/>
		<polygon fill-rule="evenodd" clip-rule="evenodd" fill="#D82B2B" points="153.85,30.65 153.85,54.95 153.85,55 83.1,55 
			83.1,30.65 		"/>
		<rect x="7.5" y="30.65" fill-rule="evenodd" clip-rule="evenodd" fill="#6B6C74" width="75.6" height="24.35"/>
	</g>
	<g>
		<polygon fill-rule="evenodd" clip-rule="evenodd" fill="#FFFFFF" fill-opacity="0.3216" points="153.85,30.8 153.6,30.8 
			124.2,30.8 107.1,30.8 7.5,30.8 7.5,30.65 107.1,30.65 124.2,30.65 153.85,30.65 		"/>
		<polygon fill-rule="evenodd" clip-rule="evenodd" fill="#FFFFFF" fill-opacity="0.3176" points="153.85,30.8 153.85,42.05 
			153.85,55 153.6,55 153.6,42.05 153.6,30.8 		"/>
	</g>
	<g>
		<path fill-rule="evenodd" clip-rule="evenodd" fill="#7E8089" d="M78.6,35.1c0.3,0,0.53,0.07,0.7,0.2c0.13,0.13,0.17,0.27,0.1,0.4
			c-0.03,0.33-0.3,0.52-0.8,0.55c-0.23,0-0.45-0.08-0.65-0.25c-0.23-0.13-0.3-0.3-0.2-0.5c0.1-0.07,0.17-0.12,0.2-0.15
			c0-0.03,0.02-0.05,0.05-0.05l0.05-0.1C78.22,35.14,78.4,35.1,78.6,35.1z M79.95,32.25c0.03-0.07,0.08-0.12,0.15-0.15h0.05
			c0-0.03,0.03-0.07,0.1-0.1c0.17-0.07,0.35-0.1,0.55-0.1c0.33,0,0.58,0.07,0.75,0.2c0.1,0.1,0.15,0.2,0.15,0.3v0.05
			c-0.07,0.33-0.37,0.55-0.9,0.65c-0.27,0-0.5-0.1-0.7-0.3C79.87,32.67,79.82,32.48,79.95,32.25z M74.15,32.6h0.05
			c0-0.03,0.05-0.07,0.15-0.1c0.13-0.07,0.32-0.1,0.55-0.1c0.27,0,0.5,0.07,0.7,0.2c0.07,0.13,0.08,0.25,0.05,0.35
			c-0.03,0.37-0.28,0.57-0.75,0.6c-0.27,0-0.52-0.08-0.75-0.25c-0.2-0.13-0.23-0.32-0.1-0.55C74.08,32.69,74.12,32.64,74.15,32.6z
			 M14.75,32.55c-0.4,0-0.68-0.13-0.85-0.4c-0.03-0.13-0.03-0.27,0-0.4c0-0.03,0.05-0.07,0.15-0.1V31.6c0-0.03,0.02-0.05,0.05-0.05
			l0.05-0.05c0.57-0.13,1.05-0.13,1.45,0c0.03,0,0.1,0.02,0.2,0.05c0.07,0.17,0.08,0.3,0.05,0.4
			C15.82,32.39,15.45,32.58,14.75,32.55z M45.1,31.85c-0.13,0.13-0.42,0.25-0.85,0.35c-0.03-0.03-0.12-0.05-0.25-0.05h-0.05
			c-0.3-0.07-0.47-0.17-0.5-0.3C44.08,31.45,44.63,31.45,45.1,31.85z"/>
		<path fill-rule="evenodd" clip-rule="evenodd" fill="#818588" d="M63.9,33.75c-0.1,0-0.2-0.03-0.3-0.1
			c-0.13-0.07-0.2-0.17-0.2-0.3c0-0.1,0.02-0.18,0.05-0.25c0.07-0.07,0.12-0.12,0.15-0.15h0.05c0-0.03,0.03-0.05,0.1-0.05
			c0.2-0.13,0.4-0.2,0.6-0.2c0.3,0,0.53,0.08,0.7,0.25c0.1,0.13,0.12,0.25,0.05,0.35c0,0.33-0.25,0.53-0.75,0.6
			C64.22,33.9,64.07,33.85,63.9,33.75z M53.05,32.45c0-0.03,0.02-0.05,0.05-0.05l0.05-0.05c0.2-0.1,0.4-0.15,0.6-0.15
			c0.3,0,0.55,0.07,0.75,0.2c0.1,0.13,0.13,0.27,0.1,0.4c-0.03,0.33-0.32,0.52-0.85,0.55c-0.27,0-0.5-0.07-0.7-0.2
			c-0.2-0.13-0.25-0.32-0.15-0.55C52.97,32.53,53.02,32.48,53.05,32.45z M54.95,38.5c0.3-0.1,0.57-0.1,0.8,0
			c1,0.47,0.87,0.88-0.4,1.25c-0.07-0.03-0.13-0.05-0.2-0.05c-0.07,0-0.13,0-0.2,0C54.22,39.3,54.22,38.9,54.95,38.5z M54.2,35.55
			c0.07,0.07,0.17,0.12,0.3,0.15c0.1,0.17,0.13,0.3,0.1,0.4c-0.03,0.3-0.25,0.5-0.65,0.6c-0.2-0.1-0.43-0.15-0.7-0.15
			c-0.23-0.03-0.42-0.03-0.55,0c-0.1-0.03-0.17-0.08-0.2-0.15c-0.13-0.17-0.17-0.33-0.1-0.5c0-0.03,0.03-0.07,0.1-0.1l0.05-0.05
			c0.03-0.03,0.08-0.07,0.15-0.1c0.13-0.1,0.32-0.15,0.55-0.15c0.07,0,0.18,0,0.35,0c0.03,0,0.08,0,0.15,0
			C53.92,35.5,54.07,35.52,54.2,35.55z M57.8,33.5c-0.2-0.13-0.23-0.32-0.1-0.55c0.03-0.03,0.07-0.08,0.1-0.15
			c0-0.03,0.02-0.05,0.05-0.05c0-0.03,0.03-0.07,0.1-0.1c0.13-0.07,0.32-0.1,0.55-0.1c0.33,0,0.6,0.07,0.8,0.2
			c0.1,0.13,0.12,0.27,0.05,0.4c-0.03,0.33-0.32,0.53-0.85,0.6C58.23,33.75,58,33.67,57.8,33.5z M44.9,33.2
			c-0.23,0.23-0.58,0.33-1.05,0.3c-0.4,0-0.67-0.13-0.8-0.4c-0.1-0.13-0.1-0.28,0-0.45c0-0.03,0.03-0.05,0.1-0.05l0.05-0.05
			c0-0.03,0.02-0.05,0.05-0.05c0-0.03,0.03-0.07,0.1-0.1c0.27-0.1,0.57-0.13,0.9-0.1c0.1,0,0.22,0.02,0.35,0.05l-0.1,0.05
			c-0.07,0.03-0.1,0.07-0.1,0.1c-0.07,0.17-0.03,0.33,0.1,0.5C44.6,33.1,44.73,33.17,44.9,33.2z M57.5,37.4
			c0.9,0.5,0.82,0.88-0.25,1.15c-0.07,0-0.2-0.02-0.4-0.05c-0.1-0.03-0.18-0.08-0.25-0.15c-0.03,0-0.05-0.02-0.05-0.05
			c-0.03,0-0.05-0.03-0.05-0.1c-0.07,0-0.1-0.02-0.1-0.05c-0.03-0.03-0.05-0.07-0.05-0.1c0-0.07,0-0.15,0-0.25
			c0-0.03,0.02-0.07,0.05-0.1c0.07-0.1,0.12-0.17,0.15-0.2h0.05c0-0.03,0.02-0.07,0.05-0.1C56.98,37.27,57.27,37.27,57.5,37.4z
			 M58.55,40.3h0.1c0.93,0.43,0.83,0.82-0.3,1.15c-0.27,0-0.5-0.1-0.7-0.3c-0.27-0.17-0.33-0.37-0.2-0.6
			c0.03-0.07,0.07-0.12,0.1-0.15c0-0.03,0.03-0.05,0.1-0.05l0.05-0.05C57.97,40.17,58.25,40.17,58.55,40.3z"/>
		<path fill-rule="evenodd" clip-rule="evenodd" fill="#84868B" d="M63.9,33.75c-0.2,0.13-0.4,0.27-0.6,0.4
			c-0.23,0-0.47-0.08-0.7-0.25c-0.27-0.23-0.25-0.37,0.05-0.4c0.3-0.1,0.55-0.15,0.75-0.15c0,0.13,0.07,0.23,0.2,0.3
			C63.7,33.72,63.8,33.75,63.9,33.75z M68.1,32.95c0.2-0.1,0.38-0.15,0.55-0.15c0.37,0,0.63,0.07,0.8,0.2
			c0.1,0.13,0.13,0.25,0.1,0.35c-0.03,0.37-0.33,0.57-0.9,0.6c-0.2,0-0.42-0.07-0.65-0.2c-0.2-0.13-0.23-0.33-0.1-0.6
			c0.03-0.03,0.07-0.05,0.1-0.05c0-0.07,0.02-0.1,0.05-0.1C68.05,32.97,68.07,32.95,68.1,32.95z M70.45,33.8
			c-0.33,0-0.57-0.13-0.7-0.4c-0.17-0.2-0.1-0.3,0.2-0.3C71.78,32.83,71.95,33.07,70.45,33.8z M73.5,41.6
			c-0.2-0.2-0.17-0.35,0.1-0.45c1.7-0.3,1.9-0.05,0.6,0.75C73.97,41.9,73.73,41.8,73.5,41.6z M76.2,38.5
			c-0.23,0-0.42-0.05-0.55-0.15c-0.07,0.1-0.25,0.17-0.55,0.2c-0.23,0-0.45-0.08-0.65-0.25c-0.23-0.13-0.27-0.32-0.1-0.55
			c0.03-0.03,0.07-0.08,0.1-0.15c0-0.03,0.02-0.05,0.05-0.05c0-0.03,0.02-0.05,0.05-0.05c0.2-0.1,0.38-0.15,0.55-0.15
			c0.33,0,0.57,0.07,0.7,0.2c0.03,0.1,0.07,0.17,0.1,0.2C77.23,37.52,77.33,37.77,76.2,38.5z M14,33.2c1.67-0.33,1.88-0.1,0.65,0.7
			c-0.27,0-0.5-0.08-0.7-0.25C13.72,33.42,13.73,33.27,14,33.2z M20.95,36c-0.23,0-0.45-0.08-0.65-0.25c-0.3-0.23-0.3-0.37,0-0.4
			C22,34.98,22.22,35.2,20.95,36z M14.6,36.8c-0.03-0.37,0.13-0.53,0.5-0.5c2,0.2,2.17,0.58,0.5,1.15
			C14.97,37.42,14.63,37.2,14.6,36.8z M35.8,34.95c-0.17-0.13-0.4-0.2-0.7-0.2c-0.17,0-0.28,0.02-0.35,0.05
			c-0.17-0.17-0.13-0.27,0.1-0.3C36.35,34.17,36.67,34.32,35.8,34.95z M25.9,33.8c-0.3,0-0.55-0.08-0.75-0.25
			c-0.27-0.23-0.25-0.37,0.05-0.4C26.9,32.78,27.13,33,25.9,33.8z M38.45,33.8c-0.4-0.03-0.67-0.18-0.8-0.45
			c-0.1-0.23-0.03-0.37,0.2-0.4C39.58,32.69,39.78,32.97,38.45,33.8z M28.4,31.85c-0.1,0.03-0.22,0.1-0.35,0.2
			c-0.2,0-0.43-0.07-0.7-0.2C27.72,31.38,28.07,31.38,28.4,31.85z M30.95,34.35c-0.27-0.27-0.23-0.42,0.1-0.45
			c1.67-0.37,1.87-0.15,0.6,0.65C31.38,34.55,31.15,34.48,30.95,34.35z M28.15,36.7c-0.27-0.23-0.25-0.38,0.05-0.45
			c1.63-0.33,1.83-0.1,0.6,0.7C28.57,36.95,28.35,36.87,28.15,36.7z M23.45,37.05c-0.3,0-0.55-0.1-0.75-0.3
			c-0.23-0.17-0.22-0.3,0.05-0.4C24.42,36.02,24.65,36.25,23.45,37.05z M39.35,38.5l-0.05,0.05c-0.03,0.07-0.05,0.12-0.05,0.15
			c-0.13,0.1-0.32,0.22-0.55,0.35c-0.2,0-0.42-0.1-0.65-0.3c-0.27-0.17-0.25-0.3,0.05-0.4c1-0.17,1.45-0.17,1.35,0v0.1
			C39.38,38.45,39.35,38.47,39.35,38.5z M35.85,38.2c-0.07,0-0.15,0-0.25,0c-0.33-0.03-0.63,0.02-0.9,0.15
			c-0.03,0-0.05,0.03-0.05,0.1c-0.07-0.07-0.12-0.1-0.15-0.1s-0.05-0.02-0.05-0.05c-0.07,0-0.1-0.03-0.1-0.1
			c-0.03,0-0.05-0.02-0.05-0.05c-0.13-0.27-0.05-0.5,0.25-0.7l0.1-0.05c0,0.1,0.07,0.22,0.2,0.35c0.17,0.13,0.38,0.2,0.65,0.2
			c0.2,0,0.4-0.05,0.6-0.15C36.17,37.94,36.08,38.07,35.85,38.2z M54.2,35.55c-0.13-0.03-0.28-0.05-0.45-0.05c-0.07,0-0.12,0-0.15,0
			c-0.17,0-0.28,0-0.35,0c-0.23,0-0.42,0.05-0.55,0.15c-0.1-0.1-0.05-0.18,0.15-0.25C54.05,35.17,54.5,35.22,54.2,35.55z M60.2,32.2
			c0.97-0.2,1.45-0.2,1.45,0c0,0.13-0.25,0.37-0.75,0.7c-0.27,0-0.52-0.1-0.75-0.3C59.88,32.4,59.9,32.27,60.2,32.2z M47.85,33.95
			c-0.23,0-0.43-0.07-0.6-0.2c-0.3-0.27-0.28-0.42,0.05-0.45C48.93,32.97,49.12,33.19,47.85,33.95z M49.15,35.7
			c0.67-0.13,1-0.13,1,0c-0.2,0-0.42,0-0.65,0c-0.13,0-0.23,0-0.3,0H49.15z M61.1,35.95c-0.23,0-0.45-0.08-0.65-0.25
			c-0.27-0.23-0.25-0.37,0.05-0.4C62.13,34.94,62.33,35.15,61.1,35.95z"/>
		<path fill-rule="evenodd" clip-rule="evenodd" fill="#76787C" d="M67.2,32.1c-0.17-0.07-0.22-0.15-0.15-0.25
			c0.53-0.33,1.12-0.33,1.75,0c-0.1,0.3-0.38,0.48-0.85,0.55C67.65,32.4,67.4,32.3,67.2,32.1z M63.95,34.7l0.1-0.1
			c0.17-0.07,0.33-0.1,0.5-0.1c0.33,0,0.58,0.07,0.75,0.2c0.1,0.13,0.13,0.27,0.1,0.4c-0.03,0.33-0.32,0.53-0.85,0.6
			c-0.2,0-0.42-0.1-0.65-0.3c-0.23-0.13-0.28-0.3-0.15-0.5c0.03-0.07,0.08-0.12,0.15-0.15C63.9,34.72,63.92,34.7,63.95,34.7z
			 M69.7,35.55c0.17-0.1,0.35-0.15,0.55-0.15c0.27,0,0.5,0.08,0.7,0.25c0.13,0.13,0.18,0.25,0.15,0.35
			c-0.07,0.37-0.35,0.57-0.85,0.6c-0.27,0-0.5-0.08-0.7-0.25c-0.23-0.13-0.27-0.32-0.1-0.55c0.03-0.07,0.07-0.1,0.1-0.1
			c0-0.03,0.02-0.05,0.05-0.05C69.6,35.62,69.63,35.58,69.7,35.55z M69.2,39.6c-0.13-0.17-0.13-0.33,0-0.5c0-0.03,0-0.07,0-0.1h0.1
			c0.07-0.07,0.12-0.12,0.15-0.15c0.17-0.1,0.35-0.15,0.55-0.15c0.3,0,0.58,0.08,0.85,0.25c0.1,0.13,0.13,0.25,0.1,0.35
			c0,0.4-0.32,0.6-0.95,0.6C69.7,39.9,69.43,39.8,69.2,39.6z M61.75,36.7c-0.07,0-0.1-0.03-0.1-0.1l-0.05-0.05
			c-0.03,0-0.05-0.02-0.05-0.05v0.05c-0.03,0.37-0.33,0.55-0.9,0.55c-0.33,0-0.6-0.1-0.8-0.3c-0.17-0.17-0.2-0.33-0.1-0.5
			c0-0.03,0.03-0.07,0.1-0.1c0.07-0.07,0.13-0.12,0.2-0.15c0.13-0.07,0.33-0.1,0.6-0.1c0.3,0,0.55,0.07,0.75,0.2l0.1,0.05
			c0-0.03,0-0.07,0-0.1c0-0.07,0.02-0.1,0.05-0.1c0.03-0.07,0.07-0.12,0.1-0.15c0-0.03,0.03-0.05,0.1-0.05
			c0-0.03,0.02-0.07,0.05-0.1c0.3-0.13,0.58-0.13,0.85,0c0.53,0.33,0.68,0.62,0.45,0.85c-0.1,0.13-0.33,0.25-0.7,0.35
			c-0.1,0-0.25-0.05-0.45-0.15c-0.07,0-0.12-0.02-0.15-0.05H61.75z M62.75,40.8c0-0.03,0.03-0.07,0.1-0.1
			c0.17-0.1,0.35-0.15,0.55-0.15c0.33,0,0.58,0.08,0.75,0.25c0.13,0.13,0.18,0.25,0.15,0.35c-0.03,0.3-0.27,0.48-0.7,0.55
			c-0.03,0.03-0.1,0.05-0.2,0.05c-0.23,0-0.47-0.08-0.7-0.25c-0.1-0.07-0.15-0.18-0.15-0.35c0-0.03,0.02-0.1,0.05-0.2
			c0.03-0.03,0.07-0.07,0.1-0.1C62.7,40.82,62.72,40.8,62.75,40.8z M75.05,41.8c0.03-0.07,0.08-0.1,0.15-0.1
			c0-0.03,0.02-0.05,0.05-0.05c0-0.03,0.02-0.07,0.05-0.1c0.2-0.07,0.38-0.1,0.55-0.1c0.27,0,0.45,0.02,0.55,0.05
			s0.18,0.08,0.25,0.15c0.1,0.07,0.15,0.15,0.15,0.25c0,0.03,0,0.08,0,0.15c-0.03,0.33-0.35,0.53-0.95,0.6c-0.2,0-0.42-0.1-0.65-0.3
			C75,42.22,74.95,42.03,75.05,41.8z M78.45,42.1c0.1,0.13,0.13,0.25,0.1,0.35c0,0.23-0.17,0.4-0.5,0.5
			c-0.1,0.03-0.22,0.07-0.35,0.1c-0.13,0-0.25-0.03-0.35-0.1c-0.13-0.03-0.25-0.08-0.35-0.15c-0.17-0.13-0.22-0.32-0.15-0.55
			c0.03-0.07,0.08-0.12,0.15-0.15h0.05c0-0.03,0.02-0.08,0.05-0.15c0.2-0.03,0.4-0.05,0.6-0.05c0.03,0,0.12,0,0.25,0
			C78.15,41.9,78.32,41.97,78.45,42.1z M10.45,39.25h0.05c0.03,0.07,0.1,0.12,0.2,0.15c0.03,0.07,0.1,0.12,0.2,0.15
			c0.1,0.13,0.13,0.25,0.1,0.35c-0.07,0.43-0.45,0.63-1.15,0.6c-0.4,0-0.7-0.13-0.9-0.4v-0.75L9.1,39.3c0-0.03,0.02-0.05,0.05-0.05
			V39.2c0.27-0.13,0.53-0.17,0.8-0.1C10.18,39.1,10.35,39.15,10.45,39.25z M16.5,39.7c0.17,0.13,0.2,0.27,0.1,0.4
			c-0.07,0.4-0.4,0.6-1,0.6c-0.17,0-0.32-0.05-0.45-0.15c-0.07,0-0.15-0.03-0.25-0.1c-0.03,0-0.05-0.02-0.05-0.05l-0.05-0.05
			c-0.07,0-0.1-0.02-0.1-0.05c-0.03-0.07-0.05-0.13-0.05-0.2c0-0.1,0-0.17,0-0.2c0-0.03,0.02-0.08,0.05-0.15l0.1-0.05l0.05-0.05
			c0-0.03,0.02-0.05,0.05-0.05c0-0.03,0.03-0.05,0.1-0.05c0.1-0.03,0.22-0.07,0.35-0.1C15.82,39.42,16.2,39.5,16.5,39.7z M20.9,39.9
			c0.03,0.03,0.05,0.1,0.05,0.2c0.1,0.13,0.13,0.27,0.1,0.4c-0.1,0.33-0.43,0.5-1,0.5c-0.03,0-0.1-0.02-0.2-0.05
			c-0.13,0-0.27-0.05-0.4-0.15c-0.03,0-0.05-0.02-0.05-0.05l-0.05-0.05c-0.07,0-0.1-0.02-0.1-0.05c-0.03-0.17-0.05-0.33-0.05-0.5
			c0-0.07,0.02-0.17,0.05-0.3l0.1-0.1h0.05c0.03-0.07,0.05-0.12,0.05-0.15c0.2-0.07,0.4-0.08,0.6-0.05h0.05
			C20.5,39.55,20.77,39.67,20.9,39.9z M14.4,41.3c0,0.03,0,0.08,0,0.15c-0.1,0.33-0.4,0.53-0.9,0.6c-0.17-0.07-0.37-0.1-0.6-0.1
			c-0.1,0-0.18-0.02-0.25-0.05c-0.57-0.13-0.77-0.4-0.6-0.8c0.03-0.03,0.07-0.07,0.1-0.1c0-0.03,0.02-0.05,0.05-0.05V40.9h0.1
			c0.63-0.23,1.2-0.23,1.7,0c0.07,0.03,0.13,0.08,0.2,0.15c0.03,0.03,0.1,0.07,0.2,0.1V41.3z M21.1,44.75
			c-0.03-0.03-0.1-0.07-0.2-0.1c-0.2-0.13-0.22-0.32-0.05-0.55c0-0.03,0.02-0.08,0.05-0.15c0-0.03,0.02-0.05,0.05-0.05l0.1-0.05
			c0.13-0.1,0.32-0.15,0.55-0.15c0.3,0,0.55,0.07,0.75,0.2c0.07,0.13,0.13,0.25,0.2,0.35c-0.07,0-0.1,0.02-0.1,0.05
			c-0.03,0.33-0.32,0.53-0.85,0.6C21.43,44.9,21.27,44.85,21.1,44.75z M31.7,31.85c0.7-0.37,1.38-0.37,2.05,0
			c0.37,0.4,0.07,0.65-0.9,0.75c-0.37,0-0.72-0.1-1.05-0.3C31.63,32.17,31.6,32.02,31.7,31.85z M25.2,32.55
			c-0.27,0-0.5-0.08-0.7-0.25c-0.17-0.13-0.2-0.28-0.1-0.45c0.33-0.4,0.9-0.4,1.7,0c0,0.03,0,0.07,0,0.1
			C26,32.28,25.7,32.48,25.2,32.55z M28.85,38.75c0.03-0.03,0.08-0.07,0.15-0.1c0-0.07,0.02-0.1,0.05-0.1l0.1-0.05
			c0.2-0.1,0.38-0.15,0.55-0.15c0.33,0,0.57,0.07,0.7,0.2c0.1,0.13,0.15,0.25,0.15,0.35c0,0.03,0,0.07,0,0.1
			c-0.03,0.33-0.32,0.52-0.85,0.55c-0.17,0-0.3-0.03-0.4-0.1c-0.1-0.03-0.2-0.08-0.3-0.15C28.8,39.17,28.75,38.98,28.85,38.75z
			 M27.85,41.35v0.15c0,0.13-0.08,0.28-0.25,0.45c-0.13,0.1-0.3,0.17-0.5,0.2c-0.17,0.1-0.35,0.17-0.55,0.2c-0.3,0-0.63-0.02-1-0.05
			c-0.07,0-0.13,0-0.2,0c-0.23,0-0.45-0.07-0.65-0.2c-0.17-0.13-0.25-0.28-0.25-0.45c0-0.03,0-0.08,0-0.15h0.05
			c0-0.03,0.03-0.07,0.1-0.1l0.05-0.05c0-0.03,0.02-0.05,0.05-0.05l0.05-0.05c0.17-0.1,0.33-0.15,0.5-0.15
			c-0.03-0.03-0.03-0.08,0-0.15c0-0.03,0.03-0.05,0.1-0.05v-0.05c0-0.03,0.03-0.05,0.1-0.05c0-0.03,0.02-0.07,0.05-0.1
			c0.27-0.1,0.53-0.15,0.8-0.15c0.53,0,1.02,0.12,1.45,0.35C27.85,41.03,27.88,41.19,27.85,41.35z M29,44.35
			c-0.07,0-0.1-0.02-0.1-0.05c-0.03,0-0.05-0.02-0.05-0.05c-0.07-0.13-0.07-0.27,0-0.4c0.2-0.23,0.47-0.35,0.8-0.35
			c1.13-0.03,1.45,0.27,0.95,0.9c-0.07,0.03-0.18,0.07-0.35,0.1c-0.17,0.1-0.35,0.15-0.55,0.15c-0.1-0.03-0.22-0.07-0.35-0.1
			c-0.07-0.03-0.17-0.07-0.3-0.1c-0.03,0-0.05-0.02-0.05-0.05V44.35z M36.75,40.9c0,0.06-0.02,0.13-0.05,0.2
			c-0.03,0-0.05,0.02-0.05,0.05c-0.2,0.2-0.5,0.3-0.9,0.3c-0.1,0-0.17-0.02-0.2-0.05c-0.2-0.03-0.38-0.13-0.55-0.3
			c-0.03,0-0.05-0.03-0.05-0.1c-0.07-0.1-0.07-0.22,0-0.35c0-0.07,0.02-0.1,0.05-0.1l0.05-0.05c0.03-0.07,0.08-0.12,0.15-0.15
			c0.17-0.07,0.35-0.1,0.55-0.1c0.37,0,0.67,0.07,0.9,0.2c0.1,0.17,0.13,0.3,0.1,0.4V40.9z M41.8,40.1c0.1,0.03,0.17,0.07,0.2,0.1
			c0.03,0.07,0.08,0.12,0.15,0.15c0.03,0.07,0.03,0.13,0,0.2c-0.07,0.4-0.42,0.6-1.05,0.6c-0.23,0-0.47-0.08-0.7-0.25
			c-0.13-0.17-0.17-0.35-0.1-0.55l0.1-0.05l0.1-0.1c0-0.03,0.02-0.07,0.05-0.1c0.17-0.1,0.35-0.15,0.55-0.15
			C41.43,39.95,41.67,40,41.8,40.1z M35.65,36.4c0.13,0.13,0.18,0.25,0.15,0.35c-0.03,0.37-0.3,0.57-0.8,0.6
			c-0.1,0-0.22-0.02-0.35-0.05s-0.25-0.1-0.35-0.2c-0.23-0.13-0.3-0.32-0.2-0.55c0.03-0.03,0.1-0.05,0.2-0.05
			c0-0.07,0.02-0.1,0.05-0.1c0-0.03,0.03-0.07,0.1-0.1c0.17-0.07,0.35-0.1,0.55-0.1C35.3,36.2,35.52,36.27,35.65,36.4z M44.9,33.2
			c-0.17-0.03-0.3-0.1-0.4-0.2c-0.13-0.17-0.17-0.33-0.1-0.5c0-0.03,0.03-0.07,0.1-0.1l0.1-0.05c0-0.03,0.02-0.07,0.05-0.1
			c0.2-0.1,0.4-0.15,0.6-0.15c0.37,0,0.65,0.08,0.85,0.25c0.13,0.13,0.18,0.25,0.15,0.35c-0.07,0.4-0.4,0.6-1,0.6
			C45.15,33.3,45.03,33.27,44.9,33.2z M49.15,35.7h0.05c0.07,0,0.17,0,0.3,0c0.23,0,0.45,0,0.65,0c0.07,0.07,0.15,0.13,0.25,0.2
			c0.1,0.13,0.13,0.25,0.1,0.35c-0.03,0.43-0.37,0.65-1,0.65c-0.3,0-0.55-0.12-0.75-0.35c-0.07,0-0.15,0.02-0.25,0.05
			c-0.03-0.03-0.07-0.05-0.1-0.05c0,0.03,0,0.08,0,0.15c0,0.13-0.1,0.22-0.3,0.25c-0.73,0.33-1.58,0.55-2.55,0.65
			c-0.03,0-0.1-0.02-0.2-0.05c-0.2,0-0.37-0.05-0.5-0.15c-0.23-0.17-0.3-0.37-0.2-0.6c0.13-0.03,0.2-0.07,0.2-0.1h0.05
			c0-0.07,0.02-0.12,0.05-0.15c0.27-0.03,0.53-0.12,0.8-0.25c0.2-0.07,0.4-0.12,0.6-0.15c0.5-0.1,0.92-0.1,1.25,0
			c-0.03-0.17-0.03-0.33,0-0.5c0.1-0.07,0.15-0.12,0.15-0.15h0.1c0-0.07,0.02-0.1,0.05-0.1c0.37-0.17,0.67-0.17,0.9,0
			C48.93,35.5,49.05,35.6,49.15,35.7z M43.8,36.5c-0.03,0.3-0.33,0.48-0.9,0.55c-0.23,0-0.45-0.1-0.65-0.3
			c-0.2-0.13-0.23-0.32-0.1-0.55c0.03-0.03,0.07-0.07,0.1-0.1c0-0.03,0.02-0.05,0.05-0.05c0-0.03,0.02-0.05,0.05-0.05
			c0.2-0.1,0.38-0.15,0.55-0.15c0.37,0,0.63,0.07,0.8,0.2C43.8,36.19,43.83,36.33,43.8,36.5z M48.6,39.75
			c0-0.03,0.02-0.05,0.05-0.05c0-0.03,0.02-0.07,0.05-0.1c0.13-0.03,0.25-0.05,0.35-0.05c0.27-0.07,0.5-0.07,0.7,0
			c0.53,0.27,0.8,0.52,0.8,0.75c0,0.27-0.3,0.5-0.9,0.7c-0.07,0-0.13-0.02-0.2-0.05c-0.07,0-0.13-0.02-0.2-0.05
			c-0.07,0-0.15-0.03-0.25-0.1c-0.07-0.07-0.15-0.15-0.25-0.25c-0.07-0.07-0.12-0.13-0.15-0.2c-0.1-0.1-0.15-0.18-0.15-0.25
			c-0.03-0.1-0.03-0.18,0-0.25C48.48,39.78,48.53,39.75,48.6,39.75z M46.8,38c0.37-0.17,0.72-0.13,1.05,0.1
			c0.87,0.57,0.83,1-0.1,1.3c0.13,0.13,0.23,0.25,0.3,0.35c0.07,0.27-0.2,0.48-0.8,0.65c-0.07-0.03-0.15-0.05-0.25-0.05h-0.05
			c-0.23-0.03-0.42-0.12-0.55-0.25c-0.03-0.03-0.05-0.08-0.05-0.15c-0.03-0.17-0.03-0.33,0-0.5c0.03-0.07,0.1-0.12,0.2-0.15
			c0-0.03,0.02-0.05,0.05-0.05l0.05-0.05l0.1-0.05c-0.07-0.07-0.12-0.12-0.15-0.15c-0.17-0.23-0.18-0.47-0.05-0.7
			c0.03-0.1,0.07-0.15,0.1-0.15c0-0.03,0.03-0.05,0.1-0.05C46.75,38.07,46.77,38.03,46.8,38z M58.4,39.95
			c-0.03-0.17-0.03-0.33,0-0.5c0.07-0.07,0.12-0.12,0.15-0.15c0-0.03,0.03-0.05,0.1-0.05l0.1-0.05c0.37-0.13,0.65-0.12,0.85,0.05
			c0.77,0.43,0.77,0.78,0,1.05c-0.07,0.03-0.17,0.07-0.3,0.1c0-0.03-0.05-0.05-0.15-0.05c-0.07,0-0.12,0-0.15,0s-0.07-0.02-0.1-0.05
			C58.63,40.23,58.47,40.12,58.4,39.95z M59.6,41.95c0.1,0.1,0.18,0.17,0.25,0.2c0.13,0.13,0.2,0.27,0.2,0.4
			c-0.03,0.17-0.13,0.3-0.3,0.4c-0.13,0.1-0.3,0.17-0.5,0.2c-0.2,0-0.42-0.07-0.65-0.2c-0.07-0.03-0.13-0.07-0.2-0.1
			c-0.1-0.07-0.15-0.17-0.15-0.3c0-0.07,0.02-0.15,0.05-0.25c0.03-0.03,0.07-0.08,0.1-0.15h0.1c0-0.03,0.02-0.05,0.05-0.05
			c0.23-0.1,0.47-0.15,0.7-0.15C59.38,41.95,59.5,41.95,59.6,41.95z M52.7,36.55c0.13-0.03,0.32-0.03,0.55,0
			c0.27,0,0.5,0.05,0.7,0.15L54,36.75c0.1,0.13,0.12,0.28,0.05,0.45c-0.13,0.43-0.57,0.62-1.3,0.55c-0.47-0.03-0.75-0.22-0.85-0.55
			c-0.03-0.07-0.03-0.17,0-0.3l0.15-0.15h0.1c0-0.03,0.02-0.05,0.05-0.05C52.33,36.6,52.5,36.55,52.7,36.55z M55,42.95h-0.05
			c-0.07-0.1-0.07-0.22,0-0.35c0-0.03,0.03-0.07,0.1-0.1l0.1-0.05c0-0.07,0.02-0.1,0.05-0.1l0.05-0.05c0.33-0.1,0.67-0.17,1-0.2
			c0.4-0.03,0.75,0.03,1.05,0.2c0.17,0.2,0.2,0.38,0.1,0.55c-0.03,0.03-0.07,0.07-0.1,0.1c-0.3,0.3-0.78,0.43-1.45,0.4
			C55.42,43.35,55.13,43.22,55,42.95z M60.15,49.45c0.03,0.17,0.03,0.32,0,0.45c0,0.03-0.03,0.05-0.1,0.05h-0.1v0.1
			c-0.13,0.07-0.25,0.1-0.35,0.1c-0.13,0.03-0.25,0.08-0.35,0.15c-0.2,0-0.4-0.05-0.6-0.15c-0.13-0.07-0.23-0.12-0.3-0.15
			c-0.5-0.6-0.18-0.88,0.95-0.85C59.63,49.15,59.92,49.25,60.15,49.45z M67.85,50.4c-0.2,0.07-0.37,0.1-0.5,0.1
			c-0.53-0.03-0.82-0.22-0.85-0.55c0-0.03-0.03-0.07-0.1-0.1c0.07-0.07,0.13-0.17,0.2-0.3c0.2-0.13,0.45-0.2,0.75-0.2
			c0.23,0,0.43,0.03,0.6,0.1c0.03,0.03,0.05,0.07,0.05,0.1c0.03,0,0.05,0.02,0.05,0.05c0.03,0.03,0.07,0.08,0.1,0.15
			c0.13,0.2,0.1,0.38-0.1,0.55C67.98,50.33,67.92,50.37,67.85,50.4z"/>
		<path fill-rule="evenodd" clip-rule="evenodd" fill="#818387" d="M71.7,38.7h0.05c0-0.03,0.03-0.08,0.1-0.15
			c0.17-0.03,0.37-0.05,0.6-0.05c0.3,0,0.55,0.07,0.75,0.2c0.1,0.13,0.13,0.25,0.1,0.35c-0.03,0.33-0.32,0.53-0.85,0.6
			c-0.27,0-0.52-0.08-0.75-0.25c-0.17-0.13-0.22-0.32-0.15-0.55C71.58,38.78,71.63,38.73,71.7,38.7z M70.65,36.75
			c0.4-0.13,0.75-0.13,1.05,0c1,0.43,0.95,0.82-0.15,1.15c-0.27-0.03-0.53-0.1-0.8-0.2c-0.33-0.2-0.45-0.45-0.35-0.75
			c0.03-0.03,0.08-0.05,0.15-0.05c0-0.07,0.02-0.1,0.05-0.1C70.6,36.77,70.62,36.75,70.65,36.75z M61.75,36.7h0.05
			c0.03,0.03,0.08,0.05,0.15,0.05c0.2,0.1,0.35,0.15,0.45,0.15c0.37-0.1,0.6-0.22,0.7-0.35c0.17,0.03,0.28,0.1,0.35,0.2
			c0.13,0.13,0.18,0.28,0.15,0.45c-0.17,0.4-0.57,0.58-1.2,0.55c-0.43,0-0.72-0.15-0.85-0.45c-0.1-0.13-0.1-0.27,0-0.4l0.05-0.1
			l0.05-0.05h0.1V36.7z M61.85,39.65c0.33,0,0.58,0.07,0.75,0.2c0.1,0.17,0.13,0.3,0.1,0.4c0,0.03,0,0.07,0,0.1
			c-0.07,0.27-0.35,0.43-0.85,0.5c-0.23,0-0.45-0.1-0.65-0.3c-0.13-0.07-0.2-0.13-0.2-0.2c0-0.1,0.02-0.2,0.05-0.3
			c0.03-0.07,0.08-0.12,0.15-0.15c0-0.03,0.02-0.05,0.05-0.05l0.05-0.1C61.47,39.69,61.65,39.65,61.85,39.65z M78.8,38.9
			c0-0.03,0.02-0.05,0.05-0.05c0-0.07,0.02-0.1,0.05-0.1c0.17-0.07,0.37-0.1,0.6-0.1c0.3,0,0.55,0.07,0.75,0.2
			c0.1,0.13,0.13,0.27,0.1,0.4c-0.03,0.33-0.32,0.53-0.85,0.6c-0.23,0-0.47-0.1-0.7-0.3c-0.2-0.13-0.25-0.32-0.15-0.55
			C78.72,38.97,78.77,38.94,78.8,38.9z"/>
		<path fill-rule="evenodd" clip-rule="evenodd" fill="#54555C" d="M68.55,39c0.07,0.17,0.08,0.3,0.05,0.4
			c0,0.33-0.25,0.52-0.75,0.55c-0.27,0-0.53-0.07-0.8-0.2c-0.2-0.13-0.25-0.32-0.15-0.55c0.1-0.07,0.15-0.12,0.15-0.15
			S67.08,39,67.15,39l0.05-0.05c0.17-0.13,0.38-0.2,0.65-0.2S68.35,38.83,68.55,39z M67.45,41.55c0.2-0.07,0.4-0.1,0.6-0.1
			c0.27,0,0.47,0.03,0.6,0.1c0,0.03,0.05,0.07,0.15,0.1c0.1,0.17,0.13,0.3,0.1,0.4c-0.03,0.33-0.32,0.53-0.85,0.6
			c-0.23,0-0.45-0.1-0.65-0.3c-0.23-0.13-0.3-0.28-0.2-0.45v-0.1c0.03-0.07,0.1-0.1,0.2-0.1c0-0.03,0.02-0.05,0.05-0.05
			C67.45,41.62,67.45,41.58,67.45,41.55z M64.3,38.75c0.3-0.13,0.6-0.17,0.9-0.1c0.33,0,0.58,0.07,0.75,0.2
			c0.13,0.13,0.17,0.28,0.1,0.45c-0.13,0.4-0.53,0.58-1.2,0.55c-0.4,0-0.67-0.15-0.8-0.45c-0.1-0.1-0.1-0.23,0-0.4l0.1-0.05V38.9
			c0-0.03,0.03-0.05,0.1-0.05C64.25,38.78,64.27,38.75,64.3,38.75z M17.05,41.3c0.17,0.13,0.2,0.27,0.1,0.4
			c-0.03,0.3-0.32,0.5-0.85,0.6c-0.23,0-0.45-0.08-0.65-0.25c-0.2-0.17-0.23-0.35-0.1-0.55c0.03-0.07,0.07-0.12,0.1-0.15
			c0-0.03,0.02-0.05,0.05-0.05l0.05-0.05c0.17-0.1,0.35-0.15,0.55-0.15C16.6,41.1,16.85,41.17,17.05,41.3z M29,44.35
			c-0.13,0.23-0.4,0.38-0.8,0.45c-0.23,0-0.47-0.08-0.7-0.25c-0.27-0.13-0.33-0.3-0.2-0.5c0.07-0.1,0.13-0.15,0.2-0.15
			c0-0.03,0.02-0.05,0.05-0.05c0-0.03,0.02-0.07,0.05-0.1c0.17-0.1,0.37-0.15,0.6-0.15c0.27,0,0.48,0.08,0.65,0.25
			c-0.07,0.13-0.07,0.27,0,0.4c0,0.03,0.02,0.05,0.05,0.05C28.9,44.33,28.93,44.35,29,44.35z M51.1,42.95c0-0.03,0-0.07,0-0.1
			c0.07-0.07,0.12-0.12,0.15-0.15c0-0.03,0.02-0.05,0.05-0.05l0.05-0.05c0.2-0.1,0.42-0.15,0.65-0.15c0.27,0,0.5,0.07,0.7,0.2
			c0.07,0.13,0.1,0.23,0.1,0.3c0,0.03,0,0.07,0,0.1c-0.03,0.33-0.3,0.52-0.8,0.55c-0.27,0-0.52-0.08-0.75-0.25
			C51.12,43.25,51.07,43.12,51.1,42.95z M44.65,46.7c0.13-0.03,0.2-0.08,0.2-0.15h0.05c0-0.03,0.02-0.07,0.05-0.1
			c0.17-0.07,0.37-0.1,0.6-0.1c0.33,0,0.57,0.07,0.7,0.2c0.1,0.13,0.13,0.25,0.1,0.35c-0.03,0.37-0.3,0.57-0.8,0.6
			c-0.27,0-0.5-0.07-0.7-0.2C44.62,47.14,44.55,46.94,44.65,46.7z M59.6,41.95c-0.1,0-0.22,0-0.35,0c-0.23,0-0.47,0.05-0.7,0.15
			c-0.03,0-0.05,0.02-0.05,0.05h-0.1c-0.03,0.07-0.07,0.12-0.1,0.15c-0.03,0.1-0.05,0.18-0.05,0.25c-0.1-0.03-0.23-0.12-0.4-0.25
			c-0.1-0.13-0.12-0.3-0.05-0.5c0-0.03,0.02-0.07,0.05-0.1h0.1c0.07-0.07,0.12-0.12,0.15-0.15c0.13-0.07,0.32-0.1,0.55-0.1
			c0.4,0,0.68,0.07,0.85,0.2C59.63,41.82,59.67,41.92,59.6,41.95z M59.95,49.95h0.1c0.07,0,0.1-0.02,0.1-0.05
			c0.03-0.13,0.03-0.28,0-0.45c0.13-0.13,0.33-0.2,0.6-0.2c0.23,0,0.43,0.05,0.6,0.15c0.03,0,0.05,0.02,0.05,0.05
			c0.03,0,0.05,0.02,0.05,0.05c0.03,0.03,0.1,0.08,0.2,0.15c0.13,0.2,0.07,0.37-0.2,0.5c-0.2,0.2-0.43,0.3-0.7,0.3
			C60.35,50.39,60.08,50.22,59.95,49.95z M42.6,52.55c-0.03-0.1,0-0.22,0.1-0.35c0.17-0.17,0.4-0.25,0.7-0.25
			c0.23,0,0.42,0.05,0.55,0.15c0.03,0.03,0.05,0.07,0.05,0.1h0.1c0,0.03,0.07,0.08,0.2,0.15c0.1,0.23,0.03,0.42-0.2,0.55
			c-0.23,0.17-0.47,0.25-0.7,0.25C42.9,53.08,42.63,52.89,42.6,52.55z M37.7,49c-0.2,0.17-0.45,0.25-0.75,0.25
			c-0.5-0.07-0.77-0.25-0.8-0.55c0-0.03,0-0.07,0-0.1c0.6-0.9,1.18-0.9,1.75,0C37.93,48.73,37.87,48.87,37.7,49z"/>
		<path fill-rule="evenodd" clip-rule="evenodd" fill="#5A5D63" d="M71.55,46.35c0.03-0.03,0.08-0.07,0.15-0.1
			c0-0.03,0.02-0.05,0.05-0.05c0-0.03,0.03-0.05,0.1-0.05h0.05l-0.05-0.05c-0.2-0.17-0.25-0.35-0.15-0.55
			c0.03-0.07,0.08-0.13,0.15-0.2h0.05c0-0.03,0.03-0.05,0.1-0.05c0.13-0.1,0.35-0.15,0.65-0.15c0.27,0,0.48,0.07,0.65,0.2
			c0.13,0.13,0.17,0.27,0.1,0.4c0,0.1-0.03,0.2-0.1,0.3c0.2,0.07,0.4,0.15,0.6,0.25c0.13,0.13,0.18,0.27,0.15,0.4
			c-0.07,0.3-0.33,0.5-0.8,0.6c-0.33-0.1-0.68-0.17-1.05-0.2C71.7,47,71.48,46.75,71.55,46.35z M70.4,42.65
			c0,0.13-0.05,0.23-0.15,0.3c-0.13,0.13-0.35,0.22-0.65,0.25c-0.27,0-0.5-0.08-0.7-0.25c-0.2-0.13-0.23-0.33-0.1-0.6
			c0.03-0.03,0.07-0.05,0.1-0.05c0-0.03,0.02-0.05,0.05-0.05c0-0.07,0.02-0.1,0.05-0.1c0.2-0.07,0.4-0.1,0.6-0.1
			c0.3,0,0.53,0.07,0.7,0.2C70.4,42.39,70.43,42.52,70.4,42.65z M66.35,45.95c0-0.03,0.03-0.07,0.1-0.1c0.17-0.07,0.37-0.1,0.6-0.1
			c0.27,0,0.5,0.07,0.7,0.2c0.13,0.13,0.18,0.27,0.15,0.4c-0.03,0.33-0.32,0.52-0.85,0.55c-0.27,0-0.52-0.07-0.75-0.2
			c-0.2-0.17-0.23-0.35-0.1-0.55c0.03-0.07,0.07-0.13,0.1-0.2H66.35z M63.6,46.65c0.03-0.07,0.08-0.12,0.15-0.15
			c0-0.03,0.02-0.05,0.05-0.05l0.1-0.1c0.17-0.07,0.37-0.1,0.6-0.1c0.27,0,0.47,0.07,0.6,0.2c0.17,0.17,0.23,0.3,0.2,0.4
			c-0.07,0.33-0.33,0.53-0.8,0.6c-0.23,0-0.48-0.1-0.75-0.3C63.52,47.02,63.47,46.85,63.6,46.65z M65.05,43.6
			c0-0.03,0.02-0.05,0.05-0.05V43.5c0.37-0.1,0.72-0.1,1.05,0c1.03,0.4,0.98,0.78-0.15,1.15c-0.23-0.03-0.5-0.1-0.8-0.2
			c-0.3-0.2-0.4-0.43-0.3-0.7C64.97,43.72,65.02,43.67,65.05,43.6z M79.65,43.75c0.07,0.13,0.08,0.25,0.05,0.35
			c0,0.37-0.28,0.57-0.85,0.6c-0.23,0-0.45-0.08-0.65-0.25c-0.2-0.13-0.25-0.32-0.15-0.55c0.07-0.03,0.12-0.07,0.15-0.1
			c0-0.03,0.02-0.05,0.05-0.05c0-0.03,0.02-0.05,0.05-0.05c0.17-0.1,0.35-0.15,0.55-0.15C79.15,43.55,79.42,43.62,79.65,43.75z
			 M74.65,43.9c0.27,0,0.48,0.07,0.65,0.2c0.17,0.13,0.22,0.25,0.15,0.35c-0.07,0.33-0.33,0.55-0.8,0.65c-0.3,0-0.55-0.1-0.75-0.3
			c-0.2-0.13-0.23-0.32-0.1-0.55c0.03-0.07,0.07-0.12,0.1-0.15h0.05c0-0.03,0.03-0.05,0.1-0.05C74.25,43.95,74.45,43.9,74.65,43.9z
			 M10.8,45.75l0.1-0.05c0.27-0.13,0.52-0.13,0.75,0c0.87,0.5,0.8,0.88-0.2,1.15c-0.13,0-0.27-0.03-0.4-0.1
			c-0.07-0.03-0.15-0.07-0.25-0.1c-0.03,0-0.05-0.03-0.05-0.1c-0.03,0-0.05-0.02-0.05-0.05c-0.03,0-0.05-0.02-0.05-0.05l-0.1-0.1
			c0-0.1,0-0.18,0-0.25c0-0.1,0.03-0.15,0.1-0.15c0.03-0.07,0.07-0.1,0.1-0.1C10.75,45.78,10.77,45.75,10.8,45.75z M9.75,42.95
			c0.03-0.07,0.08-0.12,0.15-0.15c0.23-0.27,0.5-0.22,0.8,0.15c0.07,0.13,0.17,0.3,0.3,0.5c-0.07,0.3-0.35,0.47-0.85,0.5
			c-0.27,0-0.5-0.08-0.7-0.25c-0.13-0.1-0.2-0.22-0.2-0.35C9.32,43.32,9.48,43.19,9.75,42.95z M16.75,38.3c0.27,0,0.5,0.07,0.7,0.2
			c0.13,0.13,0.17,0.27,0.1,0.4c-0.03,0.33-0.3,0.53-0.8,0.6c-0.3,0-0.55-0.08-0.75-0.25s-0.23-0.35-0.1-0.55
			c0.03-0.1,0.07-0.15,0.1-0.15c0-0.03,0.02-0.05,0.05-0.05l0.1-0.05C16.32,38.35,16.52,38.3,16.75,38.3z M16,46.05
			c0.03-0.07,0.07-0.12,0.1-0.15c0-0.03,0.03-0.05,0.1-0.05l0.1-0.1c0.17-0.07,0.35-0.1,0.55-0.1c0.3,0,0.52,0.07,0.65,0.2
			c0.13,0.17,0.2,0.3,0.2,0.4c-0.1,0.33-0.38,0.53-0.85,0.6c-0.23,0-0.48-0.1-0.75-0.3C15.9,46.42,15.87,46.25,16,46.05z
			 M12.1,43.95c-0.03,0-0.05-0.02-0.05-0.05c-0.07-0.03-0.1-0.07-0.1-0.1c0-0.07,0-0.15,0-0.25c0-0.03,0.03-0.08,0.1-0.15
			c0.43,0,0.92,0,1.45,0c0.4,0.37,0.18,0.67-0.65,0.9c-0.13,0-0.27-0.02-0.4-0.05c-0.07-0.07-0.15-0.12-0.25-0.15
			c-0.03,0-0.05-0.02-0.05-0.05C12.12,44.05,12.1,44.02,12.1,43.95z M14.4,41.3c0.1,0.1,0.12,0.2,0.05,0.3
			c-0.03,0.33-0.3,0.52-0.8,0.55c-0.27,0-0.52-0.07-0.75-0.2c0.23,0,0.43,0.03,0.6,0.1c0.5-0.07,0.8-0.27,0.9-0.6
			C14.4,41.39,14.4,41.33,14.4,41.3z M21.1,44.75c0.17,0.1,0.33,0.15,0.5,0.15c0.53-0.07,0.82-0.27,0.85-0.6
			c0-0.03,0.03-0.05,0.1-0.05c0.87,0.47,0.72,0.83-0.45,1.1c-0.03,0-0.12,0-0.25,0H21.8c-0.3-0.07-0.52-0.2-0.65-0.4
			C21.12,44.92,21.1,44.85,21.1,44.75z M19.45,45.15c0.3,0,0.53,0.07,0.7,0.2c0.13,0.13,0.18,0.27,0.15,0.4
			c-0.07,0.33-0.35,0.53-0.85,0.6c-0.27,0-0.52-0.08-0.75-0.25c-0.2-0.17-0.23-0.35-0.1-0.55c0.03-0.07,0.07-0.13,0.1-0.2h0.05
			c0-0.03,0.03-0.05,0.1-0.05C19.05,45.2,19.25,45.15,19.45,45.15z M30.2,44.9c0-0.07,0.02-0.12,0.05-0.15
			c0.2-0.07,0.42-0.1,0.65-0.1c0.3,0,0.53,0.08,0.7,0.25c0.1,0.13,0.13,0.25,0.1,0.35c-0.03,0.33-0.3,0.53-0.8,0.6
			c-0.27,0-0.5-0.1-0.7-0.3c-0.2-0.13-0.27-0.3-0.2-0.5C30.03,44.98,30.1,44.94,30.2,44.9z M31.1,47.5h0.05
			c0-0.03,0.02-0.07,0.05-0.1c0.17-0.07,0.35-0.1,0.55-0.1c0.13,0,0.27,0,0.4,0c0.13,0.03,0.23,0.1,0.3,0.2h0.1
			c0.1,0.13,0.13,0.25,0.1,0.35c0,0.1-0.03,0.17-0.1,0.2h-1.6c-0.13-0.1-0.13-0.23,0-0.4C31.02,47.58,31.07,47.53,31.1,47.5z
			 M40.1,46.55c-0.23-0.13-0.3-0.3-0.2-0.5c0.07-0.07,0.13-0.12,0.2-0.15c0-0.03,0.02-0.05,0.05-0.05l0.05-0.1
			c0.17-0.07,0.35-0.1,0.55-0.1c0.3,0,0.55,0.07,0.75,0.2c0.13,0.17,0.18,0.3,0.15,0.4c-0.03,0.33-0.33,0.53-0.9,0.6
			C40.52,46.85,40.3,46.75,40.1,46.55z M34.05,43.5c0.03,0.13,0.05,0.23,0.05,0.3c0,0.03,0,0.07,0,0.1c0,0.33-0.27,0.52-0.8,0.55
			c-0.23,0-0.45-0.07-0.65-0.2c-0.23-0.13-0.3-0.32-0.2-0.55c0.07-0.1,0.13-0.15,0.2-0.15c0-0.03,0.02-0.05,0.05-0.05
			c0-0.03,0.03-0.07,0.1-0.1c0.13-0.07,0.3-0.1,0.5-0.1c0.2,0,0.37,0.02,0.5,0.05C33.9,43.39,33.98,43.44,34.05,43.5z M42.9,44.6
			c0-0.03,0.05-0.07,0.15-0.1c0.1-0.03,0.22-0.07,0.35-0.1c-0.1,0-0.17-0.03-0.2-0.1c-0.27-0.13-0.32-0.32-0.15-0.55
			c0.07-0.03,0.12-0.08,0.15-0.15c0-0.03,0.02-0.05,0.05-0.05l0.1-0.05l0.05-0.05c0.17-0.07,0.32-0.1,0.45-0.1
			c0.3,0,0.53,0.07,0.7,0.2c0.2,0.17,0.23,0.3,0.1,0.4c-0.03,0.27-0.18,0.43-0.45,0.5c0.03,0.07,0.07,0.12,0.1,0.15
			c0.13,0.13,0.17,0.25,0.1,0.35c-0.03,0.37-0.28,0.57-0.75,0.6c-0.27,0-0.52-0.08-0.75-0.25c-0.23-0.13-0.28-0.32-0.15-0.55
			c0.03-0.07,0.08-0.1,0.15-0.1V44.6z M47,47.55V47.5c0.2-0.1,0.38-0.15,0.55-0.15c0.33,0,0.58,0.07,0.75,0.2
			c0.13,0.13,0.18,0.27,0.15,0.4v0.1h-1.7c-0.07-0.1-0.05-0.22,0.05-0.35c0.03-0.03,0.08-0.07,0.15-0.1
			C46.95,47.57,46.97,47.55,47,47.55z M48.9,45.65c0-0.07,0.02-0.1,0.05-0.1c0.17-0.13,0.35-0.2,0.55-0.2c0.33,0,0.58,0.1,0.75,0.3
			c0.13,0.13,0.18,0.23,0.15,0.3c-0.03,0.37-0.33,0.57-0.9,0.6c-0.23,0-0.47-0.07-0.7-0.2c-0.2-0.13-0.23-0.33-0.1-0.6
			c0.03-0.03,0.07-0.07,0.1-0.1H48.9z M56.15,44.55c0-0.03,0.03-0.05,0.1-0.05c0-0.03,0.02-0.05,0.05-0.05
			c0.17-0.1,0.35-0.15,0.55-0.15c0.3,0,0.53,0.07,0.7,0.2c0.13,0.13,0.18,0.27,0.15,0.4c-0.03,0.3-0.32,0.5-0.85,0.6
			c-0.03,0-0.08,0-0.15,0l0.1,0.05c0.13,0.13,0.18,0.25,0.15,0.35c-0.07,0.37-0.35,0.57-0.85,0.6c-0.23,0-0.47-0.08-0.7-0.25
			c-0.23-0.13-0.28-0.32-0.15-0.55c0.07-0.03,0.12-0.08,0.15-0.15h0.05c0-0.03,0.02-0.07,0.05-0.1c0.17-0.1,0.37-0.15,0.6-0.15
			c0.1,0,0.16,0,0.2,0c-0.04,0-0.08-0.02-0.15-0.05c-0.2-0.13-0.25-0.33-0.15-0.6C56.07,44.62,56.12,44.58,56.15,44.55z M58.05,50.3
			c0.23,0,0.43,0.03,0.6,0.1c0.07,0.03,0.1,0.07,0.1,0.1c0.1,0.03,0.17,0.08,0.2,0.15c0.1,0.23,0.03,0.42-0.2,0.55
			c-0.2,0.2-0.43,0.3-0.7,0.3c-0.5-0.1-0.78-0.3-0.85-0.6c0-0.13,0.05-0.27,0.15-0.4C57.52,50.37,57.75,50.3,58.05,50.3z M58,53.3
			c0.1,0.13,0.1,0.27,0,0.4c-0.67,0.33-1.2,0.33-1.6,0c-0.03-0.07-0.05-0.13-0.05-0.2c-0.07-0.1-0.05-0.22,0.05-0.35
			c0.1,0,0.15-0.02,0.15-0.05c0.03-0.1,0.13-0.15,0.3-0.15c0.1-0.03,0.22-0.05,0.35-0.05c0.2,0,0.38,0.03,0.55,0.1
			c0.03,0.03,0.05,0.07,0.05,0.1c0.03,0,0.05,0.02,0.05,0.05C57.88,53.15,57.93,53.2,58,53.3z M56.55,49.3
			c0.07,0.23,0,0.42-0.2,0.55c-0.23,0.17-0.47,0.25-0.7,0.25c-0.5-0.07-0.77-0.27-0.8-0.6c0-0.03,0-0.07,0-0.1
			c0-0.07,0.03-0.15,0.1-0.25c0.03-0.07,0.1-0.12,0.2-0.15c0.13-0.07,0.3-0.1,0.5-0.1c0.2,0,0.37,0.05,0.5,0.15
			c0.07,0.03,0.1,0.07,0.1,0.1h0.1C56.38,49.19,56.45,49.23,56.55,49.3z M46.1,50.2v0.1c0.03,0,0.07,0.03,0.1,0.1
			c0.13,0.2,0.1,0.38-0.1,0.55c-0.23,0.17-0.5,0.25-0.8,0.25c-0.47-0.03-0.72-0.23-0.75-0.6c-0.07-0.1-0.03-0.23,0.1-0.4
			c0.03-0.03,0.05-0.07,0.05-0.1c-0.23-0.1-0.37-0.27-0.4-0.5c-0.13-0.13-0.1-0.27,0.1-0.4c0.17-0.13,0.4-0.2,0.7-0.2
			c0.13,0,0.3,0.03,0.5,0.1l0.05,0.05c0.07,0,0.1,0.02,0.1,0.05c0.03,0,0.05,0.02,0.05,0.05c0.03,0.03,0.07,0.08,0.1,0.15
			c0.17,0.23,0.13,0.42-0.1,0.55C45.77,49.98,45.7,50,45.6,50c0.13,0.03,0.23,0.08,0.3,0.15c0.1,0,0.15,0.02,0.15,0.05H46.1z
			 M48.2,51.3c0.2,0,0.38,0.03,0.55,0.1l0.05,0.1v0.05c0.1,0,0.17,0.05,0.2,0.15c0.13,0.17,0.07,0.33-0.2,0.5
			c-0.17,0.17-0.37,0.25-0.6,0.25c-0.57-0.03-0.87-0.22-0.9-0.55c-0.03-0.13,0.02-0.27,0.15-0.4C47.65,51.37,47.9,51.3,48.2,51.3z
			 M42.15,53.7c-0.57,0.43-1.17,0.43-1.8,0c0-0.03,0-0.08,0-0.15c-0.03-0.1,0.02-0.23,0.15-0.4c0.2-0.13,0.47-0.2,0.8-0.2
			c0.17,0,0.35,0.05,0.55,0.15v0.05c0.07,0,0.1,0.03,0.1,0.1c0.03,0.03,0.07,0.07,0.1,0.1C42.15,53.45,42.18,53.57,42.15,53.7z
			 M38.7,51.25c0.17-0.17,0.42-0.25,0.75-0.25c0.2,0,0.38,0.05,0.55,0.15c0.03,0.03,0.05,0.07,0.05,0.1c0.07,0,0.1,0.02,0.1,0.05
			c0.03,0.03,0.07,0.07,0.1,0.1c0.13,0.23,0.1,0.42-0.1,0.55c-0.23,0.17-0.47,0.25-0.7,0.25c-0.57-0.03-0.87-0.23-0.9-0.6
			C38.52,51.53,38.57,51.42,38.7,51.25z M32.1,49.95c0.23,0,0.42,0.03,0.55,0.1c0.03,0.03,0.05,0.07,0.05,0.1h0.15
			c0.03,0.03,0.07,0.08,0.1,0.15c0.13,0.23,0.1,0.43-0.1,0.6c-0.1,0.03-0.16,0.05-0.2,0.05c0.04,0,0.12,0,0.25,0
			c0.2,0,0.38,0.05,0.55,0.15l0.05,0.05c0.03,0,0.05,0.02,0.05,0.05c0.03,0.03,0.08,0.08,0.15,0.15c0.13,0.23,0.08,0.42-0.15,0.55
			c-0.2,0.17-0.42,0.25-0.65,0.25c-0.53-0.07-0.83-0.27-0.9-0.6c-0.03-0.13,0.02-0.27,0.15-0.4H32.1c-0.57-0.1-0.85-0.32-0.85-0.65
			c-0.03-0.1,0.02-0.22,0.15-0.35C31.57,50.02,31.8,49.95,32.1,49.95z M23.75,50.05c-0.3,0.1-0.57,0.18-0.8,0.25
			c-1.13-0.37-1.18-0.75-0.15-1.15c0.33-0.13,0.68-0.13,1.05,0c0.03,0,0.05,0.02,0.05,0.05c0.03,0,0.05,0.02,0.05,0.05
			c0.03,0.03,0.07,0.08,0.1,0.15C24.18,49.67,24.08,49.89,23.75,50.05z M21.9,51.35c0.23,0,0.43,0.05,0.6,0.15l0.05,0.05
			c0.07,0,0.1,0.02,0.1,0.05c0.03,0.07,0.07,0.12,0.1,0.15c0.13,0.23,0.1,0.42-0.1,0.55c-0.23,0.17-0.48,0.25-0.75,0.25
			c-0.5-0.07-0.78-0.27-0.85-0.6c-0.03-0.13,0.02-0.27,0.15-0.4C21.4,51.42,21.63,51.35,21.9,51.35z M24.5,53.05
			c-0.5-0.07-0.78-0.27-0.85-0.6c0-0.1,0.07-0.22,0.2-0.35c0.13-0.13,0.35-0.2,0.65-0.2c0.2,0,0.38,0.02,0.55,0.05
			c0.07,0.07,0.1,0.12,0.1,0.15c0.07,0,0.1,0.02,0.1,0.05c0.03,0.03,0.07,0.07,0.1,0.1c0.13,0.23,0.1,0.42-0.1,0.55
			C24.98,52.97,24.73,53.05,24.5,53.05z M19.7,48.35c0.13,0.23,0.1,0.42-0.1,0.55c-0.27,0.17-0.52,0.25-0.75,0.25
			c-0.5-0.03-0.78-0.22-0.85-0.55c-0.03-0.13,0.02-0.27,0.15-0.4c0.17-0.13,0.4-0.2,0.7-0.2c0.2,0,0.38,0.03,0.55,0.1
			c0.07,0.03,0.1,0.07,0.1,0.1c0.07,0,0.1,0.02,0.1,0.05C19.63,48.25,19.67,48.28,19.7,48.35z M17.05,51h0.05
			c0.03,0.07,0.08,0.12,0.15,0.15c0.1,0.23,0.05,0.42-0.15,0.55l-0.05,0.05h0.05c0.03,0,0.05,0.03,0.05,0.1
			c0.07,0,0.1,0.02,0.1,0.05c0.03,0,0.07,0.02,0.1,0.05c0.1,0.43-0.1,0.7-0.6,0.8c-0.37,0.03-0.7,0.08-1,0.15
			c-0.47-0.07-0.75-0.27-0.85-0.6c0-0.1,0.07-0.23,0.2-0.4c0.17-0.1,0.35-0.17,0.55-0.2c-0.03-0.1-0.05-0.22-0.05-0.35
			c-0.07-0.1-0.05-0.22,0.05-0.35c0.17-0.17,0.4-0.25,0.7-0.25c0.27,0,0.47,0.07,0.6,0.2C17.02,50.95,17.05,50.97,17.05,51z
			 M15.05,49.75h0.05c0,0.03,0.02,0.08,0.05,0.15c0.13,0.2,0.12,0.38-0.05,0.55c-0.23,0.17-0.5,0.25-0.8,0.25
			c-0.5-0.07-0.77-0.27-0.8-0.6c-0.07-0.1-0.02-0.22,0.15-0.35c0.17-0.17,0.38-0.25,0.65-0.25c0.2,0,0.4,0.05,0.6,0.15
			C15,49.69,15.05,49.72,15.05,49.75z M10.7,49.3c0.03,0.03,0.05,0.07,0.05,0.1h0.05c0,0.03,0.05,0.08,0.15,0.15
			c0.07,0.23,0.02,0.42-0.15,0.55c-0.23,0.17-0.47,0.25-0.7,0.25c-0.57-0.03-0.85-0.23-0.85-0.6c-0.07-0.1-0.05-0.22,0.05-0.35
			c0.2-0.17,0.47-0.25,0.8-0.25C10.3,49.15,10.5,49.2,10.7,49.3z M79.5,49.35c-0.2,0.17-0.43,0.25-0.7,0.25
			c-0.5-0.07-0.77-0.23-0.8-0.5c0.1-0.2,0.2-0.37,0.3-0.5h0.9c0.23,0.2,0.4,0.33,0.5,0.4C79.7,49.14,79.63,49.25,79.5,49.35z
			 M77,49.15c0,0.1,0,0.18,0,0.25c0,0.03-0.03,0.08-0.1,0.15c0,0.03-0.02,0.05-0.05,0.05c0,0.03-0.02,0.07-0.05,0.1
			c0,0.03-0.02,0.05-0.05,0.05c-0.13,0.03-0.22,0.07-0.25,0.1c-0.13,0.07-0.27,0.1-0.4,0.1c-0.83-0.23-1.07-0.53-0.7-0.9
			c0.47-0.43,0.97-0.43,1.5,0L77,49.15z M78.2,52.25c-0.1,0.07-0.18,0.12-0.25,0.15c-0.17,0.03-0.32,0.05-0.45,0.05
			c-1.03-0.27-1.1-0.63-0.2-1.1c0.27-0.13,0.52-0.13,0.75,0c0.1,0,0.15,0.02,0.15,0.05c0.03,0,0.05,0.03,0.05,0.1l0.05,0.05
			c0.07,0.03,0.1,0.08,0.1,0.15c0,0.1,0,0.18,0,0.25l-0.1,0.15c0,0.03-0.02,0.05-0.05,0.05v0.05C78.25,52.23,78.23,52.25,78.2,52.25
			z M72.15,51.9c0.03,0,0.05,0.02,0.05,0.05c0.03,0,0.08,0.05,0.15,0.15c0.1,0.2,0.05,0.38-0.15,0.55
			c-0.27,0.17-0.52,0.25-0.75,0.25c-0.1,0-0.17-0.02-0.2-0.05c-0.07,0.03-0.13,0.05-0.2,0.05c-0.13,0-0.28-0.03-0.45-0.1
			c-0.1-0.03-0.23-0.07-0.4-0.1c-1.03-0.57-1.08-1.05-0.15-1.45c0.23-0.1,0.47-0.1,0.7,0c0.33,0.17,0.58,0.32,0.75,0.45
			c0.17,0,0.35,0.05,0.55,0.15L72.15,51.9z M66.4,49.85c0.07,0.03,0.1,0.07,0.1,0.1c0.03,0.33,0.32,0.52,0.85,0.55
			c0.13,0,0.3-0.03,0.5-0.1c0,0.07-0.02,0.12-0.05,0.15c-0.17,0.23-0.38,0.38-0.65,0.45h-0.1c-0.1,0-0.17,0-0.2,0
			C65.68,50.73,65.53,50.35,66.4,49.85z"/>
		<path fill-rule="evenodd" clip-rule="evenodd" fill="#6B6D73" d="M20.9,39.9c-0.13-0.23-0.4-0.35-0.8-0.35
			c-0.07-0.13-0.07-0.28,0-0.45c0.03-0.07,0.1-0.1,0.2-0.1v-0.05c0-0.03,0.02-0.07,0.05-0.1c0.2-0.1,0.4-0.15,0.6-0.15
			c0.33,0,0.57,0.08,0.7,0.25c0.1,0.13,0.15,0.25,0.15,0.35c-0.03,0.37-0.32,0.57-0.85,0.6H20.9z M21.05,42.05
			c0-0.07,0.02-0.1,0.05-0.1l0.05-0.05c0.33-0.13,0.65-0.12,0.95,0.05c0.77,0.43,0.83,0.77,0.2,1c-0.13,0.07-0.3,0.13-0.5,0.2
			c0-0.03-0.05-0.05-0.15-0.05c-0.03,0-0.07,0-0.1,0c-0.13-0.03-0.23-0.08-0.3-0.15c-0.13-0.07-0.25-0.17-0.35-0.3
			c-0.03-0.2-0.03-0.37,0-0.5C20.93,42.12,20.98,42.08,21.05,42.05z M35.8,34.95c0.13,0.13,0.17,0.27,0.1,0.4
			c-0.03,0.33-0.3,0.53-0.8,0.6c-0.23,0-0.45-0.08-0.65-0.25c-0.23-0.13-0.28-0.33-0.15-0.6c0.03-0.03,0.08-0.07,0.15-0.1
			c0-0.03,0.02-0.05,0.05-0.05c0-0.03,0.02-0.05,0.05-0.05c0.07-0.07,0.13-0.1,0.2-0.1c0.07-0.03,0.18-0.05,0.35-0.05
			C35.4,34.75,35.63,34.82,35.8,34.95z M28.9,37.05c0.37,0,0.62,0.07,0.75,0.2c0.17,0.13,0.2,0.25,0.1,0.35
			c-0.03,0.37-0.32,0.57-0.85,0.6c-0.23,0-0.45-0.08-0.65-0.25c-0.23-0.13-0.27-0.32-0.1-0.55c0.03-0.07,0.07-0.1,0.1-0.1
			c0-0.03,0.02-0.05,0.05-0.05c0-0.03,0.02-0.07,0.05-0.1C28.52,37.08,28.7,37.05,28.9,37.05z M29.7,40.75
			c0-0.03,0.02-0.07,0.05-0.1c0.1-0.07,0.17-0.12,0.2-0.15c0-0.03,0.02-0.05,0.05-0.05c0-0.03,0-0.07,0-0.1
			c0.33-0.13,0.63-0.13,0.9,0c0.83,0.5,0.73,0.88-0.3,1.15c-0.13,0-0.27-0.02-0.4-0.05c-0.1-0.03-0.17-0.08-0.2-0.15h-0.05
			c-0.03-0.03-0.05-0.08-0.05-0.15c-0.1,0-0.15-0.02-0.15-0.05c-0.03-0.03-0.05-0.07-0.05-0.1C29.7,40.94,29.7,40.85,29.7,40.75z
			 M39.15,36.05c0.13,0.13,0.18,0.28,0.15,0.45c-0.03,0.3-0.32,0.48-0.85,0.55c-0.23,0-0.48-0.1-0.75-0.3
			c-0.2-0.13-0.22-0.32-0.05-0.55c0-0.03,0.02-0.07,0.05-0.1c0-0.03,0.05-0.05,0.15-0.05c0-0.03,0.02-0.05,0.05-0.05
			c0.1-0.03,0.18-0.07,0.25-0.1c0.27,0.07,0.58,0.1,0.95,0.1C39.13,36,39.15,36.02,39.15,36.05z M36.1,42.1
			c0.03-0.13-0.03-0.27-0.2-0.4c-0.1-0.1-0.23-0.17-0.4-0.2l0.05-0.1c-0.06,0.06-0.15,0.1-0.25,0.1h-0.05c-0.17,0-0.3,0.02-0.4,0.05
			c-0.07,0-0.13-0.02-0.2-0.05c-0.1,0-0.2-0.03-0.3-0.1c-0.03,0-0.05-0.02-0.05-0.05l-0.15-0.05c-0.03,0-0.05-0.02-0.05-0.05V41.1
			c0.13,0.03,0.27,0.05,0.4,0.05c0.17-0.03,0.32-0.08,0.45-0.15c0,0.07,0.02,0.1,0.05,0.1c0.17,0.17,0.35,0.27,0.55,0.3
			c0.03,0.03,0.1,0.05,0.2,0.05c0.4,0,0.7-0.1,0.9-0.3c-0.13,0.17-0.13,0.33,0,0.5c0,0.03,0.02,0.05,0.05,0.05l0.05,0.05
			c0,0.03,0.02,0.05,0.05,0.05c0.1,0.07,0.17,0.1,0.2,0.1c-0.13,0.13-0.32,0.2-0.55,0.2C36.35,42.1,36.23,42.1,36.1,42.1z
			 M36.75,40.9c0,0.03,0.02,0.05,0.05,0.05c-0.03,0.03-0.07,0.08-0.1,0.15C36.73,41.03,36.75,40.97,36.75,40.9z M40.4,40.3
			c0-0.07,0-0.13,0-0.2c0.03,0.03,0.07,0.07,0.1,0.1L40.4,40.3z M42,39.85c0.13,0.17,0.18,0.3,0.15,0.4c0,0.03,0,0.07,0,0.1
			c-0.07-0.03-0.12-0.08-0.15-0.15c-0.03-0.03-0.1-0.07-0.2-0.1C41.9,40,41.97,39.92,42,39.85z M34.65,38.45
			c0-0.07,0.02-0.1,0.05-0.1c0.27-0.13,0.57-0.18,0.9-0.15c0.1,0,0.18,0,0.25,0c0.2,0.07,0.37,0.15,0.5,0.25
			c0.1,0.13,0.13,0.28,0.1,0.45c-0.17,0.4-0.57,0.57-1.2,0.5c-0.4,0-0.67-0.13-0.8-0.4c-0.1-0.17-0.1-0.32,0-0.45l0.05-0.05h0.05
			C34.55,38.47,34.58,38.45,34.65,38.45z M36,42.3h0.1c0.13,0.17,0.17,0.3,0.1,0.4c0,0.1-0.02,0.18-0.05,0.25
			c-0.2,0.13-0.4,0.23-0.6,0.3c0-0.07-0.03-0.15-0.1-0.25v-0.05h-0.1c-0.17-0.1-0.37-0.15-0.6-0.15c-0.07,0-0.15,0-0.25,0
			c-0.03-0.1-0.02-0.2,0.05-0.3l0.1-0.05c0.13,0.17,0.33,0.25,0.6,0.25C35.65,42.67,35.9,42.53,36,42.3z M42.9,44.6
			c-0.17-0.03-0.35-0.1-0.55-0.2c-0.2-0.17-0.23-0.35-0.1-0.55c0.03-0.07,0.07-0.12,0.1-0.15h0.15c0-0.07,0-0.12,0-0.15
			c0.17-0.07,0.38-0.1,0.65-0.1c0.07,0,0.15,0,0.25,0l-0.05,0.05l-0.1,0.05c-0.03,0-0.05,0.02-0.05,0.05
			c-0.03,0.07-0.08,0.12-0.15,0.15c-0.17,0.23-0.12,0.42,0.15,0.55c0.03,0.07,0.1,0.1,0.2,0.1c-0.13,0.03-0.25,0.07-0.35,0.1
			C42.95,44.53,42.9,44.57,42.9,44.6z M46.1,50.2h-0.05c0-0.03-0.05-0.05-0.15-0.05c-0.07-0.07-0.17-0.12-0.3-0.15
			c0.1,0,0.17-0.02,0.2-0.05c0.23-0.13,0.27-0.32,0.1-0.55c-0.03-0.07-0.07-0.12-0.1-0.15c0-0.03-0.02-0.05-0.05-0.05
			c0-0.03-0.03-0.05-0.1-0.05L45.6,49.1c0.1,0,0.18,0,0.25,0c0.23,0,0.43,0.03,0.6,0.1c0.03,0.03,0.05,0.07,0.05,0.1
			c0.07,0,0.1,0.02,0.1,0.05c0.03,0.03,0.07,0.07,0.1,0.1c0.13,0.23,0.1,0.42-0.1,0.55C46.43,50.1,46.27,50.17,46.1,50.2z"/>
		<path fill-rule="evenodd" clip-rule="evenodd" fill="#5B5C64" d="M29.45,35.05c0-0.07,0.03-0.12,0.1-0.15h0.1v-0.1
			c0.2-0.07,0.38-0.1,0.55-0.1c0.3,0,0.55,0.07,0.75,0.2c0.13,0.13,0.18,0.27,0.15,0.4c-0.03,0.3-0.33,0.48-0.9,0.55
			c-0.2,0-0.42-0.08-0.65-0.25C29.35,35.47,29.32,35.28,29.45,35.05z M28.05,39.65c0.3,0,0.53,0.07,0.7,0.2
			c0.1,0.17,0.13,0.3,0.1,0.4c-0.03,0.33-0.3,0.53-0.8,0.6c-0.27,0-0.52-0.1-0.75-0.3c-0.2-0.13-0.25-0.3-0.15-0.5
			c0.07-0.07,0.12-0.12,0.15-0.15c0-0.03,0.03-0.05,0.1-0.05l0.1-0.1C27.67,39.69,27.85,39.65,28.05,39.65z M42,39.85
			c-0.03,0.07-0.1,0.15-0.2,0.25c-0.13-0.1-0.37-0.15-0.7-0.15c-0.2,0-0.38,0.05-0.55,0.15c-0.03,0.03-0.05,0.07-0.05,0.1
			c-0.03-0.03-0.07-0.07-0.1-0.1c-0.07,0-0.12-0.02-0.15-0.05c-0.1-0.2-0.12-0.37-0.05-0.5c0-0.03,0.02-0.07,0.05-0.1l0.05-0.05
			c0.53-0.47,0.97-0.52,1.3-0.15h0.05c0.07,0,0.17,0.03,0.3,0.1c0.07,0.13,0.08,0.27,0.05,0.4V39.85z M35.3,41.5
			c0.04,0,0.11,0,0.2,0c0.17,0.03,0.3,0.1,0.4,0.2c0.17,0.13,0.23,0.27,0.2,0.4c0,0.03-0.03,0.1-0.1,0.2
			c-0.1,0.23-0.35,0.37-0.75,0.4c-0.27,0-0.47-0.08-0.6-0.25h-0.1c-0.27-0.13-0.3-0.32-0.1-0.55c0.03-0.07,0.07-0.12,0.1-0.15
			c0-0.03,0.03-0.05,0.1-0.05l0.05-0.05c0.03-0.03,0.08-0.07,0.15-0.1c0.1-0.03,0.23-0.05,0.4-0.05H35.3z"/>
		<path fill-rule="evenodd" clip-rule="evenodd" fill="#6B6C74" d="M35.55,41.4l-0.05,0.1c-0.09,0-0.16,0-0.2,0
			C35.4,41.5,35.49,41.47,35.55,41.4z"/>
	</g>
	<g>
		<path fill-rule="evenodd" clip-rule="evenodd" fill="#C61C1C" d="M96.3,33.05c0.13-0.1,0.28-0.23,0.45-0.4
			c0.03-0.1,0.1-0.18,0.2-0.25c0.67,0.37,0.45,0.6-0.65,0.7V33.05z M95.05,34.6c0.37-0.07,0.65-0.07,0.85,0
			c0.4,0.03,0.12,0.28-0.85,0.75c-0.23,0-0.45-0.07-0.65-0.2c-0.33-0.3-0.25-0.48,0.25-0.55C94.82,34.6,94.95,34.6,95.05,34.6z
			 M85.75,32.65c0.67,0.3,0.6,0.68-0.2,1.15c-0.1,0.03-0.22,0.05-0.35,0.05c-0.17-0.4,0-0.8,0.5-1.2H85.75z M87.1,34.15
			c0.17-0.27,0.37-0.52,0.6-0.75l0.1-0.1C87.73,33.53,87.5,33.82,87.1,34.15z M91.8,32.15c0.53,0.17,1,0.3,1.4,0.4
			c-0.33,0.63-0.98,0.82-1.95,0.55v-0.05c-0.3-0.03-0.32-0.17-0.05-0.4C91.43,32.48,91.63,32.32,91.8,32.15z M88.5,35.8
			c-0.47-0.4-0.33-0.85,0.4-1.35c0.47,0.37,0.35,0.82-0.35,1.35H88.5z M88.65,39.5c0.1-0.23,0.25-0.33,0.45-0.3
			c1.7,0,1.98,0.38,0.85,1.15c-0.13,0.03-0.28,0.07-0.45,0.1c-0.23-0.03-0.4-0.1-0.5-0.2C88.67,40.08,88.55,39.83,88.65,39.5z
			 M88.65,42.6c2.5,0,3.07,0.37,1.7,1.1c-0.73-0.1-1.4-0.3-2-0.6C87.55,42.77,87.65,42.6,88.65,42.6z M97.95,40.95
			c-0.37-0.07-0.65-0.22-0.85-0.45c-0.03-0.03-0.08-0.07-0.15-0.1v-0.05c-0.3-0.27-0.25-0.42,0.15-0.45c0.77-0.03,1.3,0,1.6,0.1
			c0.23,0.13,0.27,0.28,0.1,0.45c-0.2,0.17-0.47,0.33-0.8,0.5H97.95z M94.8,36.95c2,0,2.27,0.5,0.8,1.5c-0.8-0.17-1.2-0.53-1.2-1.1
			C94.37,37.12,94.5,36.98,94.8,36.95z M113.95,34.3c-0.3-0.23-0.27-0.38,0.1-0.45c1.63-0.3,1.83-0.08,0.6,0.65
			C114.38,34.5,114.15,34.44,113.95,34.3z M111.55,33.55c-0.47-0.03-0.83-0.18-1.1-0.45c-0.23-0.23-0.2-0.37,0.1-0.4
			C112.48,32.4,112.82,32.69,111.55,33.55z M104.95,32.45c2.2-0.23,2.45,0.05,0.75,0.85c-0.43-0.03-0.77-0.17-1-0.4
			C104.5,32.67,104.58,32.52,104.95,32.45z M112.15,41c-0.2,0-0.4-0.05-0.6-0.15c-0.1-0.07-0.15-0.12-0.15-0.15
			c-0.1-0.17-0.03-0.27,0.2-0.3c1.4-0.3,1.78-0.2,1.15,0.3C112.62,40.83,112.42,40.94,112.15,41z M105.9,39.05
			c-0.3-0.27-0.27-0.42,0.1-0.45c1.63-0.37,1.8-0.15,0.5,0.65C106.27,39.25,106.07,39.19,105.9,39.05z M117.1,46.7
			c-0.27,0-0.47-0.05-0.6-0.15c-0.37-0.27-0.3-0.47,0.2-0.6C118.67,45.69,118.8,45.94,117.1,46.7z M113.7,43.3
			c-0.43,0-0.7-0.15-0.8-0.45c-0.07-0.23-0.02-0.38,0.15-0.45C114.88,42.1,115.1,42.4,113.7,43.3z M138.6,32.25
			c-0.27-0.2-0.22-0.33,0.15-0.4c1.6-0.33,1.78-0.12,0.55,0.65C139.07,32.5,138.83,32.42,138.6,32.25z M132.3,34.85
			c-0.23-0.23-0.22-0.37,0.05-0.4c1.73-0.33,1.95-0.13,0.65,0.6C132.77,35.05,132.53,34.98,132.3,34.85z M125,47.45
			c0.23,0.07,0.32,0.17,0.25,0.3c0,0.03-0.07,0.08-0.2,0.15c-0.17,0.13-0.37,0.2-0.6,0.2c-0.23-0.07-0.43-0.17-0.6-0.3
			C123.22,47.3,123.6,47.19,125,47.45z M134.25,41.85c-0.07,0.07-0.18,0.17-0.35,0.3c-0.23,0.1-0.53,0.22-0.9,0.35
			c-0.93-0.23-1.17-0.62-0.7-1.15c0.13-0.17,0.27-0.25,0.4-0.25c0.07,0,0.15,0,0.25,0c0.1,0,0.18,0,0.25,0
			C134.2,41.3,134.55,41.55,134.25,41.85z M137.9,47.1c0.3-0.13,0.83-0.17,1.6-0.1c0.4,0.03,0.47,0.18,0.2,0.45
			c-0.03,0-0.05,0.02-0.05,0.05c-0.07,0.03-0.12,0.07-0.15,0.1c-0.2,0.2-0.47,0.33-0.8,0.4c-0.03,0.03-0.07,0.05-0.1,0.05
			c-0.33-0.2-0.58-0.37-0.75-0.5C137.68,47.39,137.7,47.23,137.9,47.1z M133.45,45.75c-0.47,0-0.75-0.13-0.85-0.4
			c-0.1-0.23-0.05-0.37,0.15-0.4C134.52,44.58,134.75,44.85,133.45,45.75z M146.45,37.25c-0.13-0.2-0.07-0.32,0.2-0.35
			c1.97-0.23,2.22,0.03,0.75,0.8C146.97,37.67,146.65,37.52,146.45,37.25z M146.7,47.4c-1.17-0.73-0.9-1.12,0.8-1.15
			c0.2-0.03,0.35,0.07,0.45,0.3c0.1,0.37,0,0.63-0.3,0.8c-0.13,0.1-0.32,0.17-0.55,0.2C146.97,47.48,146.83,47.44,146.7,47.4z
			 M147.95,49.65c1,0,1.1,0.17,0.3,0.5c-0.57,0.33-1.22,0.53-1.95,0.6C144.93,50.02,145.48,49.65,147.95,49.65z M123.7,49.95
			c-0.07,0.27-0.33,0.42-0.8,0.45c-1.4-0.93-1.17-1.23,0.7-0.9C123.73,49.53,123.77,49.69,123.7,49.95z M119.95,53
			c0.5,0.13,0.55,0.35,0.15,0.65c-0.13,0.1-0.32,0.15-0.55,0.15C117.82,53,117.95,52.73,119.95,53z M102.75,49.2
			c-0.2-0.13-0.33-0.22-0.4-0.25c-0.3-0.33,0.05-0.58,1.05-0.75c0.07,0,0.17,0,0.3,0c0.1,0,0.17,0,0.2,0c0.17,0,0.3,0.07,0.4,0.2
			c0.5,0.57,0.28,0.97-0.65,1.2C103.25,49.47,102.95,49.33,102.75,49.2z M104,52.45c-0.07,0.27-0.35,0.4-0.85,0.4
			c-1.27-0.93-1.02-1.22,0.75-0.85C104.1,52.07,104.13,52.22,104,52.45z"/>
		<path fill-rule="evenodd" clip-rule="evenodd" fill="#E73F3F" d="M95.9,34.6c-0.2-0.07-0.48-0.07-0.85,0
			c-0.1-0.1-0.22-0.17-0.35-0.2c0.13-0.1,0.2-0.2,0.2-0.3v-0.15v-0.2c0.1,0.07,0.22,0.12,0.35,0.15c-0.13,0-0.25,0.02-0.35,0.05
			c0.1,0,0.22,0,0.35,0C95.52,34.19,95.73,34.4,95.9,34.6z"/>
		<path fill-rule="evenodd" clip-rule="evenodd" fill="#E43A3A" d="M97.25,32.45h-0.1c-0.23-0.13-0.12-0.38,0.35-0.75l0.1-0.1
			C98.23,31.83,98.12,32.12,97.25,32.45z M90.9,40.35l0.15-0.1c1.07-0.17,1.58-0.13,1.55,0.1c-0.03,0.17-0.35,0.43-0.95,0.8
			c-0.5,0-0.82-0.15-0.95-0.45C90.67,40.5,90.73,40.39,90.9,40.35z M85.95,36.05c0.3,0.3,0.12,0.62-0.55,0.95
			c0,0.07-0.03,0.1-0.1,0.1c-0.03-0.37,0.17-0.7,0.6-1L85.95,36.05z M85.15,38.65c0.4,0.1,0.8,0.22,1.2,0.35
			c0.03,0.03,0.07,0.05,0.1,0.05c-0.2,0.27-0.43,0.52-0.7,0.75c-0.03,0.07-0.07,0.12-0.1,0.15c-0.47-0.1-0.9-0.27-1.3-0.5
			c0.27-0.23,0.5-0.47,0.7-0.7L85.15,38.65z M98.7,40c0.1-0.03,0.22-0.05,0.35-0.05c1.9-0.13,2.57,0.05,2,0.55
			c-0.1,0.13-0.28,0.28-0.55,0.45c-0.63-0.03-1.2-0.18-1.7-0.45v-0.05C98.97,40.28,98.93,40.14,98.7,40z M97.1,40.5
			c0.2,0.23,0.48,0.38,0.85,0.45c-0.2,0.1-0.42,0.22-0.65,0.35c-0.37,0-0.63-0.12-0.8-0.35c-0.2-0.23-0.12-0.37,0.25-0.4
			C96.88,40.52,97,40.5,97.1,40.5z M92.85,43.75c-0.27-0.23-0.25-0.38,0.05-0.45c1.8-0.3,2.07-0.05,0.8,0.75
			C93.37,44.05,93.08,43.95,92.85,43.75z M93.2,46.45c-0.6-0.3-1-0.55-1.2-0.75h2.1C94.1,46.1,93.8,46.35,93.2,46.45z M118.9,33.7
			c-0.7-0.03-1.28-0.22-1.75-0.55c-0.3-0.17-0.25-0.3,0.15-0.4C119.73,32.52,120.27,32.83,118.9,33.7z M103.4,33.45
			c0.07,0.03,0.15,0.05,0.25,0.05c-0.27,0.23-0.52,0.48-0.75,0.75c-1.33-0.43-1.47-1.05-0.4-1.85
			C102.77,32.73,103.07,33.08,103.4,33.45z M105.8,43.35c0.07,0.03,0.15,0.05,0.25,0.05c3,0.3,3.2,0.68,0.6,1.15
			c-0.57,0-1.02-0.17-1.35-0.5c-0.63,0.9-1.32,1.02-2.05,0.35c0-0.1,0.05-0.15,0.15-0.15c0.77-0.07,1.28-0.45,1.55-1.15
			C105.52,43.23,105.8,43.32,105.8,43.35z M132.8,33.85c-0.23-0.2-0.2-0.32,0.1-0.35c1.67-0.33,1.88-0.12,0.65,0.65
			C133.32,34.15,133.07,34.05,132.8,33.85z M133.8,38.6c-0.23,0-0.43-0.07-0.6-0.2c-0.33-0.23-0.32-0.38,0.05-0.45
			C134.88,37.62,135.07,37.83,133.8,38.6z M140.6,36.1c-0.23,0-0.47-0.1-0.7-0.3c-0.27-0.2-0.25-0.33,0.05-0.4
			C141.62,35.1,141.83,35.33,140.6,36.1z M125.95,43.15c-0.23,0-0.45-0.08-0.65-0.25c-0.3-0.2-0.28-0.33,0.05-0.4
			C126.98,42.2,127.18,42.42,125.95,43.15z M139.5,47.6c0.13,0,0.27,0.02,0.4,0.05c0.33,0.03,0.42,0.15,0.25,0.35
			c-0.17,0.23-0.45,0.35-0.85,0.35c-0.23-0.1-0.43-0.22-0.6-0.35C139.03,47.94,139.3,47.8,139.5,47.6z M137.9,47.1
			c-0.2,0.13-0.22,0.28-0.05,0.45v0.05c-0.53,0.27-1.12,0.42-1.75,0.45c-0.27-0.17-0.45-0.32-0.55-0.45
			c-0.57-0.5,0.12-0.68,2.05-0.55C137.7,47.05,137.8,47.07,137.9,47.1z M143.1,37.95c2.17,0,2.27,0.47,0.3,1.4
			c-0.73-0.1-1.02-0.45-0.85-1.05C142.58,38.07,142.77,37.95,143.1,37.95z M145.28,47.3c0.12,0.01,0.25,0.03,0.38,0.05l0.1,0.05
			c0.13,0.07,0.18,0.2,0.15,0.4c-0.1,0.3-0.42,0.45-0.95,0.45c-0.6-0.37-0.9-0.63-0.9-0.8c-0.03-0.19,0.31-0.25,1-0.17v0.02H145.28z
			 M151.55,45.85c0.23,0.2,0.47,0.43,0.7,0.7c-0.4,0.23-0.83,0.4-1.3,0.5c-0.03-0.03-0.05-0.08-0.05-0.15
			c-0.27-0.23-0.52-0.48-0.75-0.75c0.03,0,0.08-0.02,0.15-0.05c0.4-0.13,0.8-0.25,1.2-0.35L151.55,45.85z M150.55,42.85
			c0.3-0.23,0.62-0.27,0.95-0.1c1.43,0.67,1.03,1.28-1.2,1.85c-0.27,0-0.45-0.1-0.55-0.3C149.62,43.77,149.88,43.28,150.55,42.85z
			 M143.75,50.85c-0.23,0.2-0.52,0.3-0.85,0.3c-1.27-0.8-1-1.05,0.8-0.75C144.03,50.47,144.05,50.62,143.75,50.85z M133.35,51.5
			c-0.73,0.67-1.42,0.55-2.05-0.35c-0.3,0.33-0.75,0.5-1.35,0.5c-2.6-0.47-2.4-0.85,0.6-1.15c0.13,0,0.23-0.02,0.3-0.05
			c0-0.07,0.28-0.17,0.85-0.3c0.23,0.73,0.75,1.12,1.55,1.15C133.32,51.3,133.35,51.37,133.35,51.5z M110.65,50.2
			c-1.23-0.73-1.02-0.93,0.65-0.6c0.33,0.03,0.35,0.17,0.05,0.4C111.15,50.14,110.92,50.2,110.65,50.2z M85.15,49.85
			c0.33-0.17,0.63-0.13,0.9,0.1c0.67,0.43,0.95,0.9,0.85,1.4c-0.13,0.23-0.33,0.35-0.6,0.35C84.07,51.14,83.68,50.52,85.15,49.85z"
			/>
		<path fill-rule="evenodd" clip-rule="evenodd" fill="#6B6C74" d="M85.7,34.05c-0.07,0-0.17,0-0.3,0c0.13-0.03,0.23-0.07,0.3-0.1
			V34.05z"/>
		<path fill-rule="evenodd" clip-rule="evenodd" fill="#E03334" d="M98.25,36.65c-0.2-0.4-0.05-0.63,0.45-0.7
			c1.77-0.23,2.1,0.03,1,0.8C99.67,36.75,99.18,36.72,98.25,36.65z"/>
		<path fill-rule="evenodd" clip-rule="evenodd" fill="#E03B3A" d="M96.75,36.3c0.13-0.1,0.2-0.2,0.2-0.3l0.1-0.6
			C98.62,35.37,98.52,35.67,96.75,36.3z"/>
		<path fill-rule="evenodd" clip-rule="evenodd" fill="#DD3233" d="M95.5,36.5c1.63,0.4,1.63,0.55,0,0.45V36.5z"/>
		<path fill-rule="evenodd" clip-rule="evenodd" fill="#DF3333" d="M95.8,45.55c0.37,0.53,0.02,1.03-1.05,1.5
			c-0.1,0.03,0,0.12,0.3,0.25h-1.6c0.3-0.77,0.92-1.53,1.85-2.3C95.4,44.94,95.57,45.12,95.8,45.55z M141.85,54.15
			c-1.07-0.47-1.4-0.98-1-1.55c0.2-0.43,0.35-0.6,0.45-0.5c0.93,0.73,1.55,1.48,1.85,2.25h-1.55
			C141.9,54.25,141.98,54.19,141.85,54.15z"/>
		<path fill-rule="evenodd" clip-rule="evenodd" fill="#E84241" d="M96.95,47.05c-0.13-0.13-0.38-0.27-0.75-0.4
			c0.73-0.2,1.38,0.02,1.95,0.65H97.1C97.1,47.17,97.05,47.08,96.95,47.05z M140.4,53.75c-0.33,0.13-0.58,0.27-0.75,0.4
			c-0.1,0.03-0.15,0.1-0.15,0.2h-1.05C139.02,53.75,139.67,53.55,140.4,53.75z"/>
		<path fill-rule="evenodd" clip-rule="evenodd" fill="#E43234" d="M98.25,44.4l0.2,0.05c1.2,0.3,1.63,0.67,1.3,1.1
			c-0.87,1.63-1.75,1.57-2.65-0.2C97.23,44.75,97.62,44.44,98.25,44.4z M139.5,52.45c-0.9,1.77-1.78,1.83-2.65,0.2
			c-0.3-0.47,0.13-0.83,1.3-1.1l0.2-0.05C138.98,51.53,139.37,51.85,139.5,52.45z"/>
		<path fill-rule="evenodd" clip-rule="evenodd" fill="#E23032" d="M100.25,46c0.67-0.73,1.15-0.7,1.45,0.1l0.25,0.55
			C101.72,46.55,101.15,46.33,100.25,46z M134.65,53.75l0.3-0.6c0.3-0.8,0.78-0.83,1.45-0.1C135.47,53.42,134.88,53.65,134.65,53.75
			z"/>
		<path fill-rule="evenodd" clip-rule="evenodd" fill="#E13435" d="M109.65,37.65c-0.23-0.43-0.13-0.62,0.3-0.55
			C111.65,37.37,111.55,37.55,109.65,37.65z M117.85,36.65c1.2-0.47,1.93-0.38,2.2,0.25C120.95,38.97,120.22,38.89,117.85,36.65z"/>
		<path fill-rule="evenodd" clip-rule="evenodd" fill="#E33737" d="M106.4,36.65c-0.17-0.7,0-0.85,0.5-0.45
			c0.8,0.67,0.42,1.37-1.15,2.1C106.32,37.73,106.53,37.19,106.4,36.65z M146.65,42.4l-0.3,1.1c-0.07,0.17-0.13,0.3-0.2,0.4
			c-0.6,1.2-1.02,1.37-1.25,0.5C144.5,43.07,145.08,42.4,146.65,42.4z M90,49.5c1.57,0,2.15,0.67,1.75,2c-0.27,0.87-0.7,0.7-1.3-0.5
			c-0.03-0.1-0.1-0.23-0.2-0.4L90,49.5z"/>
		<path fill-rule="evenodd" clip-rule="evenodd" fill="#DF3737" d="M118.3,37.3c0,0.1-0.05,0.22-0.15,0.35
			c-0.2,1.07-0.83,1.93-1.9,2.6c0-0.13,0.05-0.25,0.15-0.35C116.87,38.94,117.5,38.07,118.3,37.3z"/>
		<path fill-rule="evenodd" clip-rule="evenodd" fill="#E03233" d="M115.1,36.05c0-0.13,0.02-0.22,0.05-0.25
			C118.68,35.53,118.67,35.62,115.1,36.05z"/>
		<path fill-rule="evenodd" clip-rule="evenodd" fill="#E13B3B" d="M120.2,42.15c-0.3,0.57-1.2,0.78-2.7,0.65
			c0.17-0.87,0.85-1.15,2.05-0.85L120.2,42.15z M116.45,49.2l0.65-0.2c1.17-0.27,1.83,0.03,2,0.9
			C117.63,50,116.75,49.77,116.45,49.2z"/>
		<path fill-rule="evenodd" clip-rule="evenodd" fill="#E43637" d="M118.6,35.7c0.07-0.57,0.42-0.8,1.05-0.7
			C120.92,35.27,120.57,35.5,118.6,35.7z"/>
		<path fill-rule="evenodd" clip-rule="evenodd" fill="#E13334" d="M134.25,41.85c0.4-0.23,0.05,0.08-1.05,0.95
			c0-0.1,0.03-0.18,0.1-0.25c0.23-0.17,0.43-0.3,0.6-0.4C134.07,42.02,134.18,41.92,134.25,41.85z M102.35,48.95
			c0.07,0.03,0.2,0.12,0.4,0.25c0.17,0.13,0.35,0.27,0.55,0.4c0.07,0.1,0.1,0.2,0.1,0.3C102.3,49.03,101.95,48.72,102.35,48.95z"/>
		<path fill-rule="evenodd" clip-rule="evenodd" fill="#E03837" d="M145.05,47.28c0.17-1.27,0.37-1.27,0.6,0.02h-0.38h-0.23V47.28z
			 M91.6,54.35h-0.65C91.18,53.08,91.4,53.08,91.6,54.35z"/>
	</g>
	<g>
		<linearGradient id="SVGID_1_" gradientUnits="userSpaceOnUse" x1="-36.7749" y1="42.8267" x2="105.5751" y2="42.8267">
			<stop  offset="0" style="stop-color:#000000;stop-opacity:0.498"/>
			<stop  offset="1" style="stop-color:#000000;stop-opacity:0"/>
		</linearGradient>
		<rect x="7.7" y="30.65" fill-rule="evenodd" clip-rule="evenodd" fill="url(#SVGID_1_)" width="145.95" height="24.35"/>
	</g>
	<g>
		<g>
			<g>
				<path fill-rule="evenodd" clip-rule="evenodd" fill-opacity="0.4706" d="M20.05,44.65c2.53-1.53,3.85-0.88,3.95,1.95
					c0.13,2.8,0,5.28-0.4,7.45c0,0.13,0,0.25,0,0.35h-4.1C19.03,52.57,19.22,49.32,20.05,44.65z"/>
			</g>
			<g>
				<path fill-rule="evenodd" clip-rule="evenodd" fill="#616161" d="M21.5,44.65c0.23-0.2,0.5-0.3,0.8-0.3
					c0.33,0,0.62,0.1,0.85,0.3c0.27,0.3,0.4,0.6,0.4,0.9v9.25c0,0.3,0,0.6,0,0.9c0.1-0.17,0.23-0.25,0.4-0.25H24l0.5-0.7l3.3-0.05
					c-2.2,2.5-3.37,3.77-3.5,3.8c-0.1,0.07-0.18,0.13-0.25,0.2c-0.87,0.6-1.58,0.57-2.15-0.1c-0.53-0.4-0.8-1.68-0.8-3.85v-9.2
					C21.1,45.25,21.23,44.95,21.5,44.65z"/>
			</g>
			<g>
				
					<radialGradient id="SVGID_2_" cx="21.8999" cy="52.4517" r="4.7" gradientTransform="matrix(1 0 0 1.0106 0 -0.558)" gradientUnits="userSpaceOnUse">
					<stop  offset="0" style="stop-color:#FFFFFF"/>
					<stop  offset="1" style="stop-color:#F9F9F9;stop-opacity:0"/>
				</radialGradient>
				<path fill-rule="evenodd" clip-rule="evenodd" fill="url(#SVGID_2_)" d="M21.8,47.75c-0.03-0.03-0.03-0.07,0-0.1
					c0.03-0.03,0.07-0.03,0.1,0c0.03-0.03,0.08-0.03,0.15,0c0.03,0.03,0.05,0.07,0.05,0.1v9.5c0,0.03-0.02,0.07-0.05,0.1
					c-0.07,0.03-0.12,0.05-0.15,0.05c-0.03,0-0.07-0.02-0.1-0.05c-0.03-0.03-0.03-0.07,0-0.1V47.75z"/>
				<path fill-rule="evenodd" clip-rule="evenodd" fill="#FFFFFF" d="M22.75,46.15c-0.73-0.03-0.95-0.38-0.65-1.05
					c0.03-0.07,0.07-0.1,0.1-0.1c0.47,0.2,0.67,0.53,0.6,1C22.77,46.07,22.75,46.12,22.75,46.15z"/>
			</g>
		</g>
	</g>
	<g>
		<g>
			<g>
				<path fill-rule="evenodd" clip-rule="evenodd" fill-opacity="0.4706" d="M141.45,45.4c0.73,4.67,0.9,7.93,0.5,9.8h-3.65
					c0-0.13,0-0.27,0-0.4c-0.37-2.17-0.48-4.65-0.35-7.45C138.05,44.55,139.22,43.9,141.45,45.4z"/>
			</g>
			<g>
				<path fill-rule="evenodd" clip-rule="evenodd" fill="#616161" d="M140,45.1c0.27,0,0.5,0.1,0.7,0.3c0.23,0.3,0.35,0.6,0.35,0.9
					v9.2c0.03,2.17-0.2,3.45-0.7,3.85c-0.47,0.6-1.05,0.68-1.75,0.25c-0.03-0.5-0.02-1.23,0.05-2.2c0.1-0.93,0.17-1.55,0.2-1.85
					V46.3c0-0.3,0.13-0.6,0.4-0.9C139.45,45.2,139.7,45.1,140,45.1z"/>
			</g>
			<g>
				<path fill-rule="evenodd" clip-rule="evenodd" fill="#FFFFFF" d="M140.7,45.85c0.27,0.67,0.07,1.02-0.6,1.05
					c0-0.03-0.02-0.07-0.05-0.1c-0.07-0.5,0.12-0.85,0.55-1.05C140.63,45.75,140.67,45.78,140.7,45.85z"/>
				
					<radialGradient id="SVGID_3_" cx="-678.8501" cy="-690.1987" r="4.175" gradientTransform="matrix(-1 0 0 1.1377 -538 838.4578)" gradientUnits="userSpaceOnUse">
					<stop  offset="0" style="stop-color:#FFFFFF"/>
					<stop  offset="1" style="stop-color:#F9F9F9;stop-opacity:0"/>
				</radialGradient>
				<path fill-rule="evenodd" clip-rule="evenodd" fill="url(#SVGID_3_)" d="M140.95,48.5V58c0.03,0.03,0.03,0.07,0,0.1
					c-0.03,0.03-0.07,0.05-0.1,0.05c-0.03,0-0.07-0.02-0.1-0.05c-0.03-0.03-0.05-0.07-0.05-0.1v-9.5c0-0.03,0.02-0.07,0.05-0.1
					c0.03-0.03,0.07-0.03,0.1,0c0.03-0.03,0.07-0.03,0.1,0C140.98,48.44,140.98,48.47,140.95,48.5z"/>
			</g>
		</g>
	</g>
</g>
</svg>
