<?xml version="1.0" encoding="utf-8"?>
<!-- Generator: Adobe Illustrator 16.0.0, SVG Export Plug-In . SVG Version: 6.00 Build 0)  -->
<!DOCTYPE svg PUBLIC "-//W3C//DTD SVG 1.1//EN" "http://www.w3.org/Graphics/SVG/1.1/DTD/svg11.dtd">
<svg version="1.1" id="Layer_9" xmlns="http://www.w3.org/2000/svg" xmlns:xlink="http://www.w3.org/1999/xlink" x="0px" y="0px"
	 width="163.67px" height="63.33px" viewBox="0 0 163.67 63.33" enable-background="new 0 0 163.67 63.33" xml:space="preserve">
<g>
	<g>
		<g>
			<path fill-rule="evenodd" clip-rule="evenodd" fill="#616161" d="M84.75,3.65c0.8-0.33,1.63-0.33,2.5,0
				c0.8,0.3,1.62,0.9,2.45,1.8v0.1L92.45,9l0.05,0.05c1.13,1.47,2.37,2.22,3.7,2.25H137c0.03,0,0.07,0,0.1,0
				c2.43,0.23,3.9,1.98,4.4,5.25c0,0.1,0,0.17,0,0.2v17.5c0,0.27-0.08,0.5-0.25,0.7c-0.17,0.23-0.37,0.38-0.6,0.45
				c-0.27,0.03-0.5,0-0.7-0.1c-0.3-0.1-0.48-0.28-0.55-0.55l-0.2-0.45l-0.35,21.2h-2.25l0.45-26.3c0-0.3,0.08-0.53,0.25-0.7
				c0.17-0.27,0.37-0.42,0.6-0.45c0.23-0.07,0.48-0.05,0.75,0.05c0.2,0.13,0.37,0.32,0.5,0.55l0.1,0.25V16.95
				c-0.27-1.97-1.07-3.05-2.4-3.25H96.2c-2,0-3.8-1.05-5.4-3.15L88,7.1c-0.5-0.57-0.97-0.95-1.4-1.15c-0.43-0.17-0.82-0.17-1.15,0
				H85.4c-0.53,0.2-1.07,0.63-1.6,1.3L81.75,9.9c-1.43,2.53-3.53,3.8-6.3,3.8h-43.9c-1.3,0.2-2.1,1.28-2.4,3.25v12l0.2-0.25
				c0.1-0.27,0.25-0.47,0.45-0.6c0.23-0.1,0.48-0.12,0.75-0.05c0.27,0.03,0.5,0.18,0.7,0.45c0.13,0.17,0.2,0.4,0.2,0.7l0.3,16H29.5
				l-0.15-10.95l-0.25,0.5c-0.13,0.27-0.3,0.45-0.5,0.55c-0.27,0.1-0.52,0.13-0.75,0.1c-0.23-0.07-0.43-0.22-0.6-0.45
				c-0.17-0.2-0.25-0.43-0.25-0.7v-17.5c0-0.03,0-0.1,0-0.2c0.47-3.27,1.93-5.02,4.4-5.25c0.03,0,0.07,0,0.1,0h43.95
				c1.97,0,3.45-0.9,4.45-2.7c0-0.07,0.03-0.12,0.1-0.15l2.2-2.8C83.03,4.62,83.88,3.95,84.75,3.65z"/>
		</g>
		<g>
			<line fill-rule="evenodd" clip-rule="evenodd" fill="none" x1="79.35" y1="11.05" x2="81.95" y2="7.6"/>
			<line fill-rule="evenodd" clip-rule="evenodd" fill="none" x1="89.6" y1="7" x2="93.4" y2="11.3"/>
			<path fill-rule="evenodd" clip-rule="evenodd" fill="none" d="M74.7,12.85c2.17-0.23,3.6-0.72,4.3-1.45"/>
			<path fill-rule="evenodd" clip-rule="evenodd" fill="none" d="M83.5,5.9c1.7-1.87,3.27-1.92,4.7-0.15"/>
			<line fill-rule="evenodd" clip-rule="evenodd" fill="none" x1="140.45" y1="16.65" x2="140.45" y2="28.9"/>
			<line fill-rule="evenodd" clip-rule="evenodd" fill="none" x1="96.25" y1="12.5" x2="138.3" y2="12.5"/>
			<line fill-rule="evenodd" clip-rule="evenodd" fill="none" x1="27.9" y1="17.85" x2="27.9" y2="26.25"/>
			<line fill-rule="evenodd" clip-rule="evenodd" fill="none" x1="29.4" y1="12.5" x2="71.45" y2="12.5"/>
		</g>
		<g>
			<path fill-rule="evenodd" clip-rule="evenodd" fill="#FFFFFF" d="M94.3,11.1c0.33,0.1,0.57,0.28,0.7,0.55c0,0.03,0,0.08,0,0.15
				c-0.77,0.37-1.03,0.18-0.8-0.55C94.2,11.15,94.23,11.1,94.3,11.1z M140.5,15.35c0.47,0.6,0.52,1.27,0.15,2
				c-0.07,0.07-0.12,0.12-0.15,0.15C140,16.8,140,16.08,140.5,15.35z M139.35,13.65c-0.83-0.27-1.05-0.7-0.65-1.3
				c0.07,0,0.1-0.03,0.1-0.1c0.57,0.27,0.77,0.7,0.6,1.3C139.37,13.58,139.35,13.62,139.35,13.65z M33.15,12.75
				c-0.4,0.37-0.73,0.27-1-0.3c-0.03-0.17,0.03-0.25,0.2-0.25c0.13-0.03,0.23-0.05,0.3-0.05h0.05c0.2-0.13,2.5-0.15,6.9-0.05
				c4.37,0.07,6.73,0.1,7.1,0.1l-7.95,0.25C36.95,13.35,35.08,13.45,33.15,12.75z"/>
		</g>
	</g>
	<g>
		<polygon fill-rule="evenodd" clip-rule="evenodd" fill="#C61C1C" points="87.35,29.1 154.2,29.1 154.2,29.15 151,31 82.3,31 		"/>
		<polygon fill-rule="evenodd" clip-rule="evenodd" fill="#5A5D63" points="82.3,31 8.75,31 15.5,29.1 87.35,29.1 		"/>
		<polygon fill-rule="evenodd" clip-rule="evenodd" fill="#F34747" points="151,55.35 151,31 154.2,29.15 154.2,52.55 		"/>
		<rect x="82.3" y="31" fill-rule="evenodd" clip-rule="evenodd" fill="#D82B2B" width="68.7" height="24.35"/>
		<rect x="8.75" y="31" fill-rule="evenodd" clip-rule="evenodd" fill="#6B6C74" width="73.55" height="24.35"/>
	</g>
	<g>
		<polygon fill-rule="evenodd" clip-rule="evenodd" fill="#FFFFFF" fill-opacity="0.3216" points="150.75,31.15 125.05,31.15 
			8.75,31.15 8.75,31 125.05,31 151,31 151,31.15 		"/>
		
			<rect x="150.75" y="31.15" fill-rule="evenodd" clip-rule="evenodd" fill="#FFFFFF" fill-opacity="0.3176" width="0.25" height="24.2"/>
	</g>
	<g>
		<path fill-rule="evenodd" clip-rule="evenodd" fill="#7E8089" d="M80.65,32.75v0.05c-0.07,0.33-0.35,0.55-0.85,0.65
			c-0.27,0-0.48-0.1-0.65-0.3c-0.23-0.13-0.28-0.32-0.15-0.55c0.07-0.07,0.12-0.12,0.15-0.15h0.05c0-0.03,0.03-0.07,0.1-0.1
			c0.17-0.07,0.33-0.1,0.5-0.1c0.33,0,0.57,0.07,0.7,0.2C80.6,32.55,80.65,32.65,80.65,32.75z M77.05,35.7v-0.05l0.1-0.1
			c0.17-0.07,0.33-0.1,0.5-0.1c0.33,0,0.58,0.07,0.75,0.2c0.13,0.13,0.17,0.27,0.1,0.4c-0.07,0.33-0.35,0.52-0.85,0.55
			c-0.2,0-0.4-0.08-0.6-0.25c-0.23-0.13-0.28-0.3-0.15-0.5C76.97,35.78,77.02,35.73,77.05,35.7z M73.55,32.85
			c0.17-0.07,0.35-0.1,0.55-0.1c0.27,0,0.48,0.07,0.65,0.2c0.1,0.13,0.13,0.25,0.1,0.35c-0.03,0.37-0.28,0.57-0.75,0.6
			c-0.27,0-0.52-0.08-0.75-0.25c-0.17-0.13-0.18-0.32-0.05-0.55c0-0.07,0.02-0.12,0.05-0.15h0.05
			C73.4,32.92,73.45,32.89,73.55,32.85z M15.25,31.95c0-0.03,0.02-0.05,0.05-0.05l0.05-0.05c0.53-0.13,0.98-0.13,1.35,0
			c0.07,0,0.13,0.02,0.2,0.05c0.1,0.17,0.13,0.3,0.1,0.4c-0.07,0.43-0.43,0.63-1.1,0.6c-0.37,0-0.63-0.13-0.8-0.4
			c-0.07-0.13-0.07-0.27,0-0.4c0-0.03,0.03-0.07,0.1-0.1L15.25,31.95z M44.15,32.5c-0.27-0.07-0.42-0.17-0.45-0.3
			c0.6-0.4,1.13-0.4,1.6,0c-0.13,0.13-0.42,0.25-0.85,0.35c-0.03-0.03-0.1-0.05-0.2-0.05C44.22,32.5,44.18,32.5,44.15,32.5z"/>
		<path fill-rule="evenodd" clip-rule="evenodd" fill="#76787C" d="M66.65,32.45c-0.13-0.07-0.18-0.15-0.15-0.25
			c0.5-0.33,1.05-0.33,1.65,0c-0.07,0.3-0.32,0.48-0.75,0.55C67.1,32.75,66.85,32.65,66.65,32.45z M63.5,35.05l0.05-0.1
			c0.17-0.07,0.35-0.1,0.55-0.1c0.3,0,0.53,0.07,0.7,0.2c0.1,0.13,0.13,0.27,0.1,0.4c-0.03,0.33-0.3,0.53-0.8,0.6
			c-0.23,0-0.43-0.1-0.6-0.3c-0.27-0.13-0.35-0.3-0.25-0.5c0.07-0.07,0.15-0.12,0.25-0.15V35.05z M69.05,35.9
			c0.17-0.1,0.35-0.15,0.55-0.15c0.27,0,0.5,0.08,0.7,0.25c0.13,0.13,0.18,0.25,0.15,0.35c-0.07,0.37-0.35,0.57-0.85,0.6
			c-0.27,0-0.5-0.08-0.7-0.25c-0.2-0.13-0.23-0.32-0.1-0.55c0.03-0.07,0.07-0.1,0.1-0.1c0-0.03,0.02-0.05,0.05-0.05
			C68.95,35.97,68.98,35.94,69.05,35.9z M68.65,39.35c0.07-0.07,0.12-0.12,0.15-0.15c0.17-0.1,0.35-0.15,0.55-0.15
			c0.3,0,0.58,0.08,0.85,0.25c0.1,0.13,0.13,0.25,0.1,0.35c-0.03,0.4-0.35,0.6-0.95,0.6c-0.3,0-0.55-0.1-0.75-0.3
			c-0.13-0.17-0.13-0.33,0-0.5c0-0.03,0-0.07,0-0.1H68.65z M61.4,37.05c-0.07,0-0.1-0.03-0.1-0.1l-0.1-0.05
			c-0.03,0.37-0.35,0.55-0.95,0.55c-0.3,0-0.55-0.1-0.75-0.3c-0.13-0.17-0.15-0.33-0.05-0.5c0-0.03,0.02-0.07,0.05-0.1h0.05
			c0.03-0.07,0.08-0.12,0.15-0.15c0.17-0.07,0.35-0.1,0.55-0.1c0.33,0,0.6,0.07,0.8,0.2l0.1,0.05c0-0.03,0-0.07,0-0.1
			c0-0.07,0.02-0.1,0.05-0.1c0-0.07,0.03-0.12,0.1-0.15c0-0.03,0.03-0.05,0.1-0.05c0-0.03,0-0.07,0-0.1c0.33-0.13,0.63-0.13,0.9,0
			c0.5,0.33,0.62,0.62,0.35,0.85c-0.07,0.13-0.27,0.25-0.6,0.35c-0.1,0-0.25-0.05-0.45-0.15C61.5,37.1,61.43,37.08,61.4,37.05z
			 M63,42.1c-0.27,0-0.48-0.08-0.65-0.25c-0.17-0.07-0.25-0.18-0.25-0.35c0-0.03,0.03-0.1,0.1-0.2c0.07-0.03,0.12-0.07,0.15-0.1
			v-0.05c0-0.03,0.02-0.07,0.05-0.1c0.17-0.1,0.37-0.15,0.6-0.15c0.33,0,0.57,0.08,0.7,0.25c0.1,0.13,0.13,0.25,0.1,0.35
			c-0.03,0.3-0.25,0.48-0.65,0.55C63.12,42.08,63.07,42.1,63,42.1z M76.8,43.4c-0.13,0-0.25-0.03-0.35-0.1
			c-0.1-0.03-0.2-0.08-0.3-0.15c-0.2-0.13-0.25-0.32-0.15-0.55c0.03-0.07,0.08-0.12,0.15-0.15h0.05c0-0.03,0.02-0.08,0.05-0.15
			c0.17-0.03,0.35-0.05,0.55-0.05c0.07,0,0.15,0,0.25,0c0.2,0,0.35,0.07,0.45,0.2c0.1,0.13,0.15,0.25,0.15,0.35
			c-0.03,0.23-0.2,0.4-0.5,0.5C77.05,43.33,76.93,43.37,76.8,43.4z M74.25,42.15c0.03-0.07,0.08-0.1,0.15-0.1
			c0-0.03,0.02-0.05,0.05-0.05c0-0.03,0.02-0.07,0.05-0.1c0.17-0.07,0.35-0.1,0.55-0.1c0.2,0,0.38,0.02,0.55,0.05
			c0.07,0.03,0.12,0.08,0.15,0.15c0.1,0.07,0.15,0.15,0.15,0.25c0,0.03,0,0.08,0,0.15c-0.03,0.33-0.32,0.53-0.85,0.6
			c-0.23,0-0.45-0.1-0.65-0.3C74.2,42.57,74.15,42.39,74.25,42.15z M11.25,39.45c0.23,0,0.38,0.05,0.45,0.15h0.05
			c0.07,0.07,0.13,0.12,0.2,0.15c0.03,0.07,0.1,0.12,0.2,0.15c0.1,0.13,0.13,0.25,0.1,0.35c-0.07,0.43-0.43,0.63-1.1,0.6
			c-0.4,0-0.68-0.13-0.85-0.4V39.7l0.15-0.05c0-0.03,0.02-0.05,0.05-0.05v-0.05C10.73,39.42,10.98,39.39,11.25,39.45z M17.6,40.05
			c0.13,0.13,0.17,0.27,0.1,0.4c-0.07,0.4-0.4,0.6-1,0.6c-0.13,0-0.28-0.05-0.45-0.15c-0.07,0-0.15-0.03-0.25-0.1
			c-0.03,0-0.05-0.02-0.05-0.05V40.7c-0.03,0-0.05-0.02-0.05-0.05c-0.07-0.07-0.1-0.13-0.1-0.2c0-0.1,0-0.17,0-0.2
			s0.03-0.08,0.1-0.15l0.05-0.05V40c0-0.03,0.02-0.05,0.05-0.05c0-0.03,0.05-0.05,0.15-0.05c0.07-0.03,0.18-0.07,0.35-0.1
			C16.93,39.77,17.3,39.85,17.6,40.05z M21.85,40.25c0.03,0.03,0.05,0.1,0.05,0.2c0.1,0.13,0.12,0.27,0.05,0.4
			c-0.07,0.33-0.37,0.5-0.9,0.5c-0.03,0-0.12-0.02-0.25-0.05c-0.13,0-0.25-0.05-0.35-0.15c-0.03,0-0.05-0.02-0.05-0.05l-0.05-0.05
			c-0.07,0-0.1-0.02-0.1-0.05c-0.07-0.17-0.1-0.33-0.1-0.5c0-0.07,0.03-0.17,0.1-0.3l0.1-0.1h0.05c0.03-0.07,0.05-0.12,0.05-0.15
			c0.17-0.07,0.37-0.08,0.6-0.05C21.45,39.9,21.72,40.02,21.85,40.25z M15.55,41.65c0,0.03,0,0.08,0,0.15
			c-0.1,0.33-0.37,0.53-0.8,0.6c-0.2-0.07-0.42-0.1-0.65-0.1c-0.07,0-0.15-0.02-0.25-0.05c-0.53-0.13-0.72-0.4-0.55-0.8
			c0.03-0.03,0.07-0.07,0.1-0.1c0-0.03,0.02-0.05,0.05-0.05v-0.05h0.1c0.6-0.23,1.15-0.23,1.65,0c0.03,0.03,0.08,0.08,0.15,0.15
			c0.03,0.03,0.1,0.07,0.2,0.1V41.65z M32.35,32.2c0.63-0.37,1.28-0.37,1.95,0c0.33,0.4,0.03,0.65-0.9,0.75c-0.37,0-0.7-0.1-1-0.3
			C32.23,32.52,32.22,32.37,32.35,32.2z M26.9,32.3c-0.1,0.33-0.4,0.53-0.9,0.6c-0.27,0-0.48-0.08-0.65-0.25
			c-0.17-0.13-0.22-0.28-0.15-0.45c0.33-0.4,0.9-0.4,1.7,0C26.9,32.23,26.9,32.27,26.9,32.3z M29.5,39.1
			c0.07-0.03,0.13-0.07,0.2-0.1v-0.1l0.15-0.05c0.17-0.1,0.33-0.15,0.5-0.15c0.33,0,0.57,0.07,0.7,0.2c0.1,0.13,0.15,0.25,0.15,0.35
			c0,0.03,0,0.07,0,0.1c-0.03,0.33-0.32,0.52-0.85,0.55c-0.13,0-0.25-0.03-0.35-0.1c-0.1-0.03-0.2-0.08-0.3-0.15
			C29.5,39.52,29.43,39.33,29.5,39.1z M28.55,41.7v0.15c0,0.13-0.07,0.28-0.2,0.45c-0.13,0.1-0.3,0.17-0.5,0.2
			c-0.17,0.1-0.35,0.17-0.55,0.2c-0.27,0-0.58-0.02-0.95-0.05c-0.03,0-0.12,0-0.25,0c-0.17,0-0.35-0.07-0.55-0.2
			c-0.17-0.13-0.25-0.28-0.25-0.45c0-0.03,0-0.08,0-0.15h0.05c0-0.03,0.02-0.07,0.05-0.1l0.1-0.05c0-0.03,0.02-0.05,0.05-0.05V41.6
			c0.2-0.1,0.37-0.15,0.5-0.15c-0.03-0.03-0.03-0.08,0-0.15c0-0.03,0.02-0.05,0.05-0.05l0.05-0.05c0-0.03,0.05-0.05,0.15-0.05
			c0-0.03,0.02-0.07,0.05-0.1c0.23-0.1,0.47-0.15,0.7-0.15c0.53,0,1,0.12,1.4,0.35C28.58,41.39,28.62,41.53,28.55,41.7z M29.7,44.7
			c-0.07,0-0.1-0.02-0.1-0.05c-0.07,0-0.1-0.02-0.1-0.05c-0.03-0.13-0.03-0.27,0-0.4c0.23-0.23,0.5-0.35,0.8-0.35
			c1.13-0.03,1.45,0.27,0.95,0.9c-0.07,0.03-0.18,0.07-0.35,0.1c-0.17,0.1-0.35,0.15-0.55,0.15c-0.07-0.03-0.17-0.07-0.3-0.1
			c-0.1-0.03-0.22-0.07-0.35-0.1V44.7z M22.05,45.1c-0.07-0.03-0.13-0.07-0.2-0.1c-0.2-0.13-0.23-0.32-0.1-0.55
			c0.03-0.03,0.07-0.08,0.1-0.15c0-0.03,0.02-0.05,0.05-0.05l0.05-0.05c0.17-0.1,0.35-0.15,0.55-0.15c0.3,0,0.55,0.07,0.75,0.2
			c0.07,0.13,0.13,0.25,0.2,0.35c-0.07,0-0.1,0.02-0.1,0.05c-0.03,0.33-0.32,0.53-0.85,0.6C22.37,45.25,22.22,45.2,22.05,45.1z
			 M42.1,40.45c0.07,0.03,0.12,0.07,0.15,0.1c0.07,0.07,0.12,0.12,0.15,0.15c0.03,0.07,0.03,0.13,0,0.2c-0.03,0.4-0.37,0.6-1,0.6
			c-0.23,0-0.45-0.08-0.65-0.25c-0.17-0.17-0.2-0.35-0.1-0.55l0.1-0.05l0.1-0.1c0-0.03,0.02-0.07,0.05-0.1
			c0.17-0.1,0.33-0.15,0.5-0.15C41.73,40.3,41.97,40.35,42.1,40.45z M36.15,36.75c0.1,0.13,0.13,0.25,0.1,0.35
			c-0.03,0.37-0.28,0.57-0.75,0.6c-0.1,0-0.22-0.02-0.35-0.05c-0.13-0.03-0.25-0.1-0.35-0.2c-0.2-0.13-0.25-0.32-0.15-0.55
			c0.03-0.03,0.08-0.05,0.15-0.05c0-0.07,0.03-0.1,0.1-0.1c0-0.03,0.02-0.07,0.05-0.1c0.17-0.07,0.35-0.1,0.55-0.1
			C35.8,36.55,36.02,36.62,36.15,36.75z M43.9,36.4c0.1,0.13,0.13,0.28,0.1,0.45c-0.03,0.3-0.32,0.48-0.85,0.55
			c-0.23,0-0.45-0.1-0.65-0.3c-0.2-0.13-0.23-0.32-0.1-0.55c0.03-0.03,0.07-0.07,0.1-0.1c0-0.03,0.02-0.05,0.05-0.05
			c0-0.03,0.02-0.05,0.05-0.05c0.17-0.1,0.35-0.15,0.55-0.15C43.48,36.2,43.73,36.27,43.9,36.4z M47.9,39.75
			c0.07,0.13,0.13,0.25,0.2,0.35c0.07,0.27-0.2,0.48-0.8,0.65c-0.03-0.03-0.1-0.05-0.2-0.05c-0.03,0-0.07,0-0.1,0
			c-0.17-0.03-0.33-0.12-0.5-0.25c0-0.03,0-0.08,0-0.15c-0.03-0.17-0.03-0.33,0-0.5c0-0.07,0.07-0.12,0.2-0.15
			c0-0.03,0.02-0.05,0.05-0.05v-0.05l0.05-0.05c-0.03-0.07-0.05-0.12-0.05-0.15c-0.17-0.23-0.18-0.47-0.05-0.7l0.05-0.15
			c0-0.03,0.02-0.05,0.05-0.05c0-0.03,0.03-0.07,0.1-0.1c0.37-0.17,0.7-0.13,1,0.1C48.77,39.02,48.77,39.45,47.9,39.75z M48.7,40.05
			c0-0.03,0.03-0.07,0.1-0.1c0.1-0.03,0.2-0.05,0.3-0.05c0.27-0.07,0.5-0.07,0.7,0c0.5,0.27,0.75,0.52,0.75,0.75
			c0,0.27-0.3,0.5-0.9,0.7c-0.03,0-0.08-0.02-0.15-0.05c-0.07,0-0.13-0.02-0.2-0.05c-0.07,0-0.15-0.03-0.25-0.1
			C48.98,41.08,48.9,41,48.8,40.9c-0.07-0.07-0.12-0.13-0.15-0.2c-0.1-0.1-0.15-0.18-0.15-0.25c-0.03-0.1-0.03-0.18,0-0.25
			c0.07-0.07,0.12-0.1,0.15-0.1C48.65,40.07,48.67,40.05,48.7,40.05z M53.8,37.05l0.1,0.05c0.1,0.13,0.12,0.28,0.05,0.45
			c-0.13,0.43-0.55,0.62-1.25,0.55c-0.47-0.03-0.75-0.22-0.85-0.55c-0.03-0.07-0.03-0.17,0-0.3L52,37.1h0.1
			c0-0.03,0.02-0.05,0.05-0.05c0.13-0.1,0.28-0.15,0.45-0.15c0.13-0.03,0.32-0.03,0.55,0C53.42,36.9,53.63,36.95,53.8,37.05z
			 M45.1,33.55c-0.2-0.03-0.35-0.1-0.45-0.2c-0.1-0.17-0.12-0.33-0.05-0.5c0-0.03,0.02-0.07,0.05-0.1l0.15-0.05c0-0.03,0-0.07,0-0.1
			c0.23-0.1,0.45-0.15,0.65-0.15c0.33,0,0.6,0.08,0.8,0.25c0.13,0.13,0.18,0.25,0.15,0.35c-0.07,0.4-0.38,0.6-0.95,0.6
			C45.35,33.65,45.23,33.62,45.1,33.55z M49.2,36.05h0.05c0.07,0,0.17,0,0.3,0c0.2,0,0.38,0,0.55,0c0.1,0.07,0.2,0.13,0.3,0.2
			c0.1,0.13,0.13,0.25,0.1,0.35c-0.03,0.43-0.35,0.65-0.95,0.65c-0.3,0-0.55-0.12-0.75-0.35c-0.07,0-0.13,0.02-0.2,0.05
			c-0.07-0.03-0.12-0.05-0.15-0.05c0,0.03,0,0.08,0,0.15c0,0.13-0.1,0.22-0.3,0.25c-0.73,0.33-1.55,0.55-2.45,0.65
			c-0.03,0-0.08-0.02-0.15-0.05c-0.2,0-0.37-0.05-0.5-0.15c-0.27-0.17-0.35-0.37-0.25-0.6c0.13-0.03,0.22-0.07,0.25-0.1h0.05
			c0-0.07,0.02-0.12,0.05-0.15c0.27-0.03,0.5-0.12,0.7-0.25c0.23-0.07,0.45-0.12,0.65-0.15c0.47-0.1,0.87-0.1,1.2,0
			c-0.03-0.17-0.03-0.33,0-0.5c0.1-0.07,0.17-0.12,0.2-0.15c0-0.07,0.02-0.1,0.05-0.1c0.37-0.17,0.67-0.17,0.9,0
			C48.98,35.85,49.1,35.95,49.2,36.05z M58.2,39.8c0.03-0.07,0.07-0.12,0.1-0.15c0-0.03,0.03-0.05,0.1-0.05l0.05-0.05
			c0.33-0.13,0.62-0.12,0.85,0.05c0.73,0.43,0.73,0.78,0,1.05c-0.07,0.03-0.17,0.07-0.3,0.1c-0.03-0.03-0.08-0.05-0.15-0.05
			c-0.03,0-0.07,0-0.1,0s-0.08-0.02-0.15-0.05c-0.23-0.07-0.37-0.18-0.4-0.35C58.13,40.14,58.13,39.97,58.2,39.8z M59.3,42.3
			c0.1,0.1,0.18,0.17,0.25,0.2c0.13,0.13,0.18,0.27,0.15,0.4c-0.03,0.17-0.12,0.3-0.25,0.4c-0.17,0.1-0.35,0.17-0.55,0.2
			c-0.13,0-0.32-0.07-0.55-0.2c-0.07-0.03-0.12-0.07-0.15-0.1c-0.13-0.07-0.2-0.17-0.2-0.3c0-0.07,0.02-0.15,0.05-0.25
			c0.03-0.03,0.08-0.08,0.15-0.15h0.05c0-0.03,0.02-0.05,0.05-0.05c0.2-0.1,0.4-0.15,0.6-0.15C59.07,42.3,59.2,42.3,59.3,42.3z
			 M57.2,43.2c-0.07,0.03-0.12,0.07-0.15,0.1c-0.27,0.3-0.75,0.43-1.45,0.4c-0.37,0-0.62-0.13-0.75-0.4H54.8
			c-0.07-0.1-0.07-0.22,0-0.35c0-0.03,0.03-0.07,0.1-0.1l0.05-0.05c0-0.07,0.03-0.1,0.1-0.1l0.05-0.05c0.3-0.1,0.62-0.17,0.95-0.2
			c0.4-0.03,0.73,0.03,1,0.2C57.22,42.85,57.27,43.03,57.2,43.2z M59.8,49.8c0.07,0.17,0.07,0.32,0,0.45c0,0.03-0.02,0.05-0.05,0.05
			h-0.1v0.05c0,0.03-0.02,0.05-0.05,0.05c-0.1,0.07-0.2,0.1-0.3,0.1c-0.17,0.03-0.28,0.08-0.35,0.15c-0.17,0-0.35-0.05-0.55-0.15
			c-0.13-0.07-0.23-0.12-0.3-0.15c-0.5-0.6-0.2-0.88,0.9-0.85C59.33,49.5,59.6,49.6,59.8,49.8z M67.3,50.75
			c-0.2,0.07-0.37,0.1-0.5,0.1c-0.53-0.03-0.8-0.22-0.8-0.55c0-0.03-0.03-0.07-0.1-0.1c0.07-0.07,0.13-0.17,0.2-0.3
			c0.2-0.13,0.43-0.2,0.7-0.2c0.23,0,0.42,0.03,0.55,0.1c0.03,0.03,0.05,0.07,0.05,0.1c0.03,0,0.05,0.02,0.05,0.05
			c0.07,0.03,0.1,0.08,0.1,0.15c0.13,0.2,0.1,0.38-0.1,0.55C67.38,50.69,67.33,50.72,67.3,50.75z"/>
		<path fill-rule="evenodd" clip-rule="evenodd" fill="#818588" d="M63.5,34.1c-0.17,0-0.28-0.03-0.35-0.1
			c-0.1-0.07-0.15-0.17-0.15-0.3c0-0.1,0.02-0.18,0.05-0.25c0.03-0.07,0.07-0.12,0.1-0.15h0.1v-0.05c0.2-0.13,0.4-0.2,0.6-0.2
			c0.3,0,0.53,0.08,0.7,0.25c0.1,0.13,0.13,0.25,0.1,0.35c-0.03,0.33-0.3,0.53-0.8,0.6C63.75,34.25,63.63,34.2,63.5,34.1z
			 M53.65,32.55c0.3,0,0.53,0.07,0.7,0.2c0.1,0.13,0.13,0.27,0.1,0.4c-0.03,0.33-0.3,0.52-0.8,0.55c-0.23,0-0.47-0.07-0.7-0.2
			c-0.17-0.13-0.22-0.32-0.15-0.55c0.1-0.07,0.15-0.12,0.15-0.15s0.02-0.05,0.05-0.05l0.05-0.05C53.25,32.6,53.45,32.55,53.65,32.55
			z M54.1,35.9c0.07,0.07,0.15,0.12,0.25,0.15c0.1,0.17,0.13,0.3,0.1,0.4c-0.03,0.3-0.25,0.5-0.65,0.6
			c-0.17-0.1-0.38-0.15-0.65-0.15c-0.23-0.03-0.42-0.03-0.55,0c-0.1-0.03-0.17-0.08-0.2-0.15c-0.1-0.17-0.12-0.33-0.05-0.5
			c0-0.03,0.02-0.07,0.05-0.1l0.05-0.05c0.03-0.03,0.08-0.07,0.15-0.1c0.13-0.1,0.32-0.15,0.55-0.15c0.1,0,0.22,0,0.35,0
			c0.03,0,0.08,0,0.15,0C53.82,35.85,53.97,35.87,54.1,35.9z M58.95,33.1c0.13,0.13,0.17,0.27,0.1,0.4c-0.03,0.33-0.3,0.53-0.8,0.6
			c-0.27,0-0.48-0.08-0.65-0.25c-0.23-0.13-0.27-0.32-0.1-0.55c0.03-0.03,0.07-0.08,0.1-0.15c0-0.03,0.02-0.05,0.05-0.05
			c0-0.03,0.03-0.07,0.1-0.1c0.1-0.07,0.27-0.1,0.5-0.1C58.58,32.9,58.82,32.97,58.95,33.1z M45.1,33.55
			c-0.23,0.23-0.58,0.33-1.05,0.3c-0.4,0-0.65-0.13-0.75-0.4c-0.1-0.13-0.1-0.28,0-0.45c0-0.03,0.02-0.05,0.05-0.05l0.05-0.05
			c0-0.03,0.02-0.05,0.05-0.05c0-0.03,0.03-0.07,0.1-0.1c0.27-0.1,0.57-0.13,0.9-0.1c0.1,0,0.22,0.02,0.35,0.05l-0.15,0.05
			c-0.03,0.03-0.05,0.07-0.05,0.1c-0.07,0.17-0.05,0.33,0.05,0.5C44.75,33.45,44.9,33.52,45.1,33.55z M58.3,40.65h0.1
			c0.87,0.43,0.77,0.82-0.3,1.15c-0.23,0-0.45-0.1-0.65-0.3c-0.27-0.17-0.33-0.37-0.2-0.6c0-0.07,0.02-0.12,0.05-0.15
			c0-0.03,0.05-0.05,0.15-0.05l0.05-0.05C57.73,40.52,58,40.52,58.3,40.65z M56.35,37.85h0.05c0-0.03,0.02-0.07,0.05-0.1
			c0.3-0.13,0.57-0.13,0.8,0c0.87,0.5,0.8,0.88-0.2,1.15c-0.1,0-0.23-0.02-0.4-0.05c-0.1-0.03-0.18-0.08-0.25-0.15
			c-0.03,0-0.05-0.02-0.05-0.05c-0.03,0-0.05-0.03-0.05-0.1c-0.1,0-0.15-0.02-0.15-0.05c-0.03-0.03-0.05-0.07-0.05-0.1
			c0-0.07,0-0.15,0-0.25c0-0.03,0.02-0.07,0.05-0.1C56.25,37.95,56.32,37.89,56.35,37.85z M54.8,38.85c0.3-0.1,0.55-0.1,0.75,0
			c1,0.47,0.88,0.88-0.35,1.25c-0.07-0.03-0.15-0.05-0.25-0.05c-0.03,0-0.08,0-0.15,0C54.1,39.65,54.1,39.25,54.8,38.85z"/>
		<path fill-rule="evenodd" clip-rule="evenodd" fill="#84868B" d="M68.8,33.35c0.1,0.13,0.13,0.25,0.1,0.35
			c-0.03,0.37-0.32,0.57-0.85,0.6c-0.23,0-0.43-0.07-0.6-0.2c-0.2-0.13-0.23-0.33-0.1-0.6c0.03-0.03,0.07-0.05,0.1-0.05v-0.1
			c0-0.03,0.03-0.05,0.1-0.05c0.17-0.1,0.33-0.15,0.5-0.15C68.42,33.15,68.67,33.22,68.8,33.35z M69.1,33.75
			c-0.17-0.2-0.1-0.3,0.2-0.3c1.77-0.27,1.93-0.03,0.5,0.7C69.47,34.15,69.23,34.02,69.1,33.75z M63.5,34.1
			c-0.23,0.13-0.43,0.27-0.6,0.4c-0.23,0-0.47-0.08-0.7-0.25c-0.23-0.23-0.2-0.37,0.1-0.4c0.23-0.1,0.47-0.15,0.7-0.15
			c0,0.13,0.05,0.23,0.15,0.3C63.22,34.07,63.33,34.1,63.5,34.1z M72.75,41.95c-0.23-0.2-0.2-0.35,0.1-0.45
			c1.63-0.3,1.82-0.05,0.55,0.75C73.2,42.25,72.98,42.15,72.75,41.95z M75.1,38.1c1.27-0.23,1.35,0.02,0.25,0.75
			c-0.2,0-0.37-0.05-0.5-0.15c-0.1,0.1-0.28,0.17-0.55,0.2c-0.23,0-0.43-0.08-0.6-0.25c-0.27-0.13-0.32-0.32-0.15-0.55
			c0.03-0.03,0.08-0.08,0.15-0.15V37.9c0-0.03,0.03-0.05,0.1-0.05c0.17-0.1,0.33-0.15,0.5-0.15c0.3,0,0.53,0.07,0.7,0.2
			C75.03,38,75.07,38.07,75.1,38.1z M15.2,33.55c1.6-0.33,1.8-0.1,0.6,0.7c-0.27,0-0.5-0.08-0.7-0.25
			C14.9,33.77,14.93,33.62,15.2,33.55z M15.75,37.15c-0.03-0.37,0.12-0.53,0.45-0.5c1.97,0.2,2.13,0.58,0.5,1.15
			C16.1,37.77,15.78,37.55,15.75,37.15z M21.25,36.1c-0.3-0.23-0.3-0.37,0-0.4c1.63-0.37,1.85-0.15,0.65,0.65
			C21.67,36.35,21.45,36.27,21.25,36.1z M36.25,35.3c-0.17-0.13-0.37-0.2-0.6-0.2c-0.17,0-0.32,0.02-0.45,0.05
			c-0.13-0.17-0.07-0.27,0.2-0.3C36.8,34.52,37.08,34.67,36.25,35.3z M26.7,34.15c-0.27,0-0.53-0.08-0.8-0.25
			c-0.23-0.23-0.2-0.37,0.1-0.4C27.63,33.14,27.87,33.35,26.7,34.15z M38.85,34.15c-0.4-0.03-0.68-0.18-0.85-0.45
			c-0.07-0.23,0.02-0.37,0.25-0.4C39.95,33.03,40.15,33.32,38.85,34.15z M28.1,32.2c0.33-0.47,0.67-0.47,1,0
			c-0.1,0.03-0.22,0.1-0.35,0.2C28.55,32.4,28.33,32.33,28.1,32.2z M31.55,34.7c-0.23-0.27-0.2-0.42,0.1-0.45
			c1.6-0.37,1.82-0.15,0.65,0.65C32,34.9,31.75,34.83,31.55,34.7z M28.85,37.05c-0.27-0.23-0.25-0.38,0.05-0.45
			c1.6-0.33,1.8-0.1,0.6,0.7C29.27,37.3,29.05,37.22,28.85,37.05z M24.3,37.4c-0.27,0-0.5-0.1-0.7-0.3c-0.23-0.17-0.22-0.3,0.05-0.4
			C25.25,36.37,25.47,36.6,24.3,37.4z M39.8,38.8c-0.03,0-0.05,0.02-0.05,0.05l-0.1,0.05c-0.03,0.07-0.05,0.12-0.05,0.15
			c-0.17,0.1-0.33,0.22-0.5,0.35c-0.23,0-0.45-0.1-0.65-0.3c-0.3-0.17-0.28-0.3,0.05-0.4c0.97-0.17,1.4-0.17,1.3,0V38.8z
			 M36.3,38.55c-0.07,0-0.13,0-0.2,0c-0.3-0.03-0.6,0.02-0.9,0.15c-0.03,0-0.05,0.03-0.05,0.1c-0.07-0.07-0.12-0.1-0.15-0.1
			s-0.05-0.02-0.05-0.05c-0.03,0-0.05-0.03-0.05-0.1c-0.07,0-0.1-0.02-0.1-0.05c-0.13-0.27-0.05-0.5,0.25-0.7l0.1-0.05
			c0,0.1,0.07,0.22,0.2,0.35c0.2,0.13,0.4,0.2,0.6,0.2c0.2,0,0.42-0.05,0.65-0.15C36.67,38.28,36.57,38.42,36.3,38.55z M59.9,32.55
			c0.93-0.2,1.4-0.2,1.4,0c0,0.13-0.25,0.37-0.75,0.7c-0.27,0-0.52-0.1-0.75-0.3C59.57,32.75,59.6,32.62,59.9,32.55z M52.6,36
			c-0.1-0.1-0.05-0.18,0.15-0.25c1.17-0.23,1.62-0.18,1.35,0.15c-0.13-0.03-0.28-0.05-0.45-0.05c-0.07,0-0.12,0-0.15,0
			c-0.13,0-0.25,0-0.35,0C52.92,35.85,52.73,35.9,52.6,36z M49.2,36.05c0.6-0.13,0.9-0.13,0.9,0c-0.17,0-0.35,0-0.55,0
			c-0.13,0-0.23,0-0.3,0H49.2z M47.4,33.65c1.6-0.33,1.77-0.12,0.5,0.65c-0.2,0-0.4-0.07-0.6-0.2
			C47.03,33.83,47.07,33.69,47.4,33.65z M60.75,36.3c-0.23,0-0.45-0.08-0.65-0.25c-0.27-0.23-0.25-0.37,0.05-0.4
			C61.75,35.28,61.95,35.5,60.75,36.3z"/>
		<path fill-rule="evenodd" clip-rule="evenodd" fill="#818387" d="M71,37.1c0.93,0.43,0.9,0.82-0.1,1.15
			c-0.27-0.03-0.55-0.1-0.85-0.2c-0.3-0.2-0.4-0.45-0.3-0.75c0.03-0.03,0.07-0.05,0.1-0.05c0-0.07,0.03-0.1,0.1-0.1
			c0-0.03,0.02-0.05,0.05-0.05C70.37,36.97,70.7,36.97,71,37.1z M71.7,38.85c0.3,0,0.53,0.07,0.7,0.2c0.13,0.13,0.18,0.25,0.15,0.35
			c-0.03,0.33-0.32,0.53-0.85,0.6c-0.23,0-0.47-0.08-0.7-0.25c-0.17-0.13-0.2-0.32-0.1-0.55c0.03-0.07,0.07-0.12,0.1-0.15h0.05
			c0-0.03,0.03-0.08,0.1-0.15C71.32,38.87,71.5,38.85,71.7,38.85z M61.4,37.05c0.03,0.03,0.1,0.05,0.2,0.05
			c0.2,0.1,0.35,0.15,0.45,0.15c0.33-0.1,0.53-0.22,0.6-0.35c0.2,0.03,0.33,0.1,0.4,0.2c0.13,0.13,0.17,0.28,0.1,0.45
			c-0.13,0.4-0.5,0.58-1.1,0.55c-0.43,0-0.72-0.15-0.85-0.45c-0.1-0.13-0.1-0.27,0-0.4v-0.1l0.1-0.05h0.1V37.05z M62.35,40.6
			c0,0.03,0,0.07,0,0.1c-0.1,0.27-0.4,0.43-0.9,0.5c-0.2,0-0.4-0.1-0.6-0.3c-0.13-0.07-0.2-0.13-0.2-0.2c0-0.1,0.02-0.2,0.05-0.3
			c0.03-0.07,0.08-0.12,0.15-0.15c0-0.03,0.02-0.05,0.05-0.05l0.05-0.1c0.17-0.07,0.33-0.1,0.5-0.1c0.37,0,0.62,0.07,0.75,0.2
			C62.3,40.37,62.35,40.5,62.35,40.6z M78,39.1c0.13-0.07,0.33-0.1,0.6-0.1s0.5,0.07,0.7,0.2c0.07,0.13,0.08,0.27,0.05,0.4
			c0,0.33-0.25,0.53-0.75,0.6c-0.27,0-0.5-0.1-0.7-0.3c-0.23-0.13-0.3-0.32-0.2-0.55c0.07-0.03,0.13-0.07,0.2-0.1
			c0-0.03,0.02-0.05,0.05-0.05C77.95,39.14,77.97,39.1,78,39.1z"/>
		<path fill-rule="evenodd" clip-rule="evenodd" fill="#54555C" d="M67.9,39.35c0.1,0.17,0.13,0.3,0.1,0.4
			c-0.03,0.33-0.28,0.52-0.75,0.55c-0.23,0-0.48-0.07-0.75-0.2c-0.17-0.13-0.2-0.32-0.1-0.55c0.07-0.07,0.1-0.12,0.1-0.15
			c0-0.03,0.03-0.05,0.1-0.05l0.05-0.05c0.17-0.13,0.37-0.2,0.6-0.2C67.52,39.1,67.73,39.19,67.9,39.35z M68.15,42.7
			c-0.14,0.16-0.37,0.26-0.7,0.3c-0.2,0-0.4-0.1-0.6-0.3c-0.23-0.13-0.3-0.28-0.2-0.45v-0.1c0.03-0.07,0.1-0.1,0.2-0.1
			c0-0.03,0.02-0.05,0.05-0.05c0-0.03,0-0.07,0-0.1c0.2-0.07,0.38-0.1,0.55-0.1c0.27,0,0.47,0.03,0.6,0.1c0,0.03,0.03,0.07,0.1,0.1
			c0.13,0.17,0.18,0.3,0.15,0.4C68.28,42.52,68.23,42.62,68.15,42.7z M63.8,39.1c0.3-0.13,0.6-0.17,0.9-0.1
			c0.33,0,0.58,0.07,0.75,0.2c0.13,0.13,0.17,0.28,0.1,0.45c-0.1,0.4-0.5,0.58-1.2,0.55c-0.4,0-0.67-0.15-0.8-0.45
			c-0.03-0.1-0.03-0.23,0-0.4l0.15-0.05v-0.05c0-0.03,0.02-0.05,0.05-0.05C63.75,39.14,63.77,39.1,63.8,39.1z M17.4,41.45
			c0.3,0,0.55,0.07,0.75,0.2c0.13,0.13,0.17,0.27,0.1,0.4c-0.03,0.3-0.32,0.5-0.85,0.6c-0.2,0-0.42-0.08-0.65-0.25
			c-0.2-0.17-0.22-0.35-0.05-0.55c0-0.07,0.02-0.12,0.05-0.15c0-0.03,0.02-0.05,0.05-0.05l0.1-0.05
			C17.03,41.5,17.2,41.45,17.4,41.45z M29.7,44.7c-0.13,0.23-0.4,0.38-0.8,0.45c-0.23,0-0.45-0.08-0.65-0.25
			c-0.27-0.13-0.33-0.3-0.2-0.5c0.07-0.1,0.13-0.15,0.2-0.15c0-0.03,0.02-0.05,0.05-0.05c0-0.03,0.02-0.07,0.05-0.1
			c0.13-0.1,0.32-0.15,0.55-0.15c0.27,0,0.47,0.08,0.6,0.25c-0.03,0.13-0.03,0.27,0,0.4c0,0.03,0.03,0.05,0.1,0.05
			C29.6,44.69,29.63,44.7,29.7,44.7z M45.15,46.8c0.13-0.07,0.32-0.1,0.55-0.1c0.3,0,0.53,0.07,0.7,0.2c0.07,0.13,0.1,0.25,0.1,0.35
			c-0.03,0.37-0.3,0.57-0.8,0.6c-0.23,0-0.45-0.07-0.65-0.2c-0.27-0.17-0.35-0.37-0.25-0.6c0.13-0.03,0.22-0.08,0.25-0.15h0.05
			C45.1,46.87,45.12,46.83,45.15,46.8z M51.1,43.2c0.07-0.07,0.1-0.12,0.1-0.15S51.22,43,51.25,43l0.05-0.05
			c0.2-0.1,0.42-0.15,0.65-0.15c0.27,0,0.48,0.07,0.65,0.2c0.1,0.13,0.15,0.23,0.15,0.3c0,0.03,0,0.07,0,0.1
			c-0.03,0.33-0.3,0.52-0.8,0.55c-0.27,0-0.52-0.08-0.75-0.25c-0.13-0.1-0.18-0.23-0.15-0.4C51.05,43.27,51.07,43.23,51.1,43.2z
			 M59.3,42.3c-0.1,0-0.23,0-0.4,0c-0.2,0-0.4,0.05-0.6,0.15c-0.03,0-0.05,0.02-0.05,0.05H58.2c-0.07,0.07-0.12,0.12-0.15,0.15
			C58.02,42.75,58,42.83,58,42.9c-0.13-0.03-0.25-0.12-0.35-0.25c-0.1-0.13-0.12-0.3-0.05-0.5c0-0.03,0.02-0.07,0.05-0.1h0.1
			c0-0.07,0.02-0.12,0.05-0.15c0.17-0.07,0.37-0.1,0.6-0.1c0.33,0,0.6,0.07,0.8,0.2C59.33,42.17,59.37,42.27,59.3,42.3z M59.65,50.3
			h0.1c0.03,0,0.05-0.02,0.05-0.05c0.07-0.13,0.07-0.28,0-0.45c0.13-0.13,0.33-0.2,0.6-0.2c0.23,0,0.42,0.05,0.55,0.15
			c0.07,0,0.1,0.02,0.1,0.05c0.03,0,0.05,0.02,0.05,0.05c0.03,0.03,0.1,0.08,0.2,0.15c0.1,0.2,0.03,0.37-0.2,0.5
			c-0.2,0.2-0.43,0.3-0.7,0.3C60.03,50.73,59.78,50.57,59.65,50.3z M44.25,52.55h0.05c0.03,0.03,0.1,0.08,0.2,0.15
			c0.07,0.23,0,0.42-0.2,0.55c-0.2,0.17-0.43,0.25-0.7,0.25c-0.47-0.07-0.72-0.27-0.75-0.6c-0.03-0.1,0-0.22,0.1-0.35
			c0.17-0.17,0.38-0.25,0.65-0.25c0.23,0,0.42,0.05,0.55,0.15C44.22,52.48,44.25,52.52,44.25,52.55z M38.1,49.35
			c-0.2,0.17-0.43,0.25-0.7,0.25c-0.5-0.07-0.77-0.25-0.8-0.55c0-0.03,0-0.07,0-0.1c0.57-0.9,1.13-0.9,1.7,0
			C38.33,49.08,38.27,49.22,38.1,49.35z"/>
		<path fill-rule="evenodd" clip-rule="evenodd" fill="#5A5D63" d="M68.15,42.7c0.03-0.03,0.08-0.05,0.15-0.05
			c0-0.03,0.02-0.05,0.05-0.05c0-0.07,0.02-0.1,0.05-0.1c0.17-0.07,0.35-0.1,0.55-0.1c0.3,0,0.55,0.07,0.75,0.2
			c0.07,0.13,0.08,0.27,0.05,0.4c0,0.13-0.05,0.23-0.15,0.3c-0.13,0.13-0.35,0.22-0.65,0.25c-0.23,0-0.45-0.08-0.65-0.25
			C68.07,43.17,68.02,42.97,68.15,42.7z M71.3,45.65c0.13-0.1,0.33-0.15,0.6-0.15c0.23,0,0.45,0.07,0.65,0.2
			c0.13,0.13,0.17,0.27,0.1,0.4c0,0.1-0.03,0.2-0.1,0.3c0.2,0.07,0.38,0.15,0.55,0.25c0.13,0.13,0.2,0.27,0.2,0.4
			c-0.1,0.3-0.37,0.5-0.8,0.6c-0.33-0.1-0.67-0.17-1-0.2c-0.5-0.1-0.7-0.35-0.6-0.75c0.03-0.03,0.07-0.07,0.1-0.1
			c0-0.03,0.02-0.05,0.05-0.05c0-0.03,0.03-0.05,0.1-0.05h0.05l-0.05-0.05c-0.17-0.17-0.22-0.35-0.15-0.55
			c0.03-0.07,0.08-0.13,0.15-0.2h0.05C71.2,45.67,71.23,45.65,71.3,45.65z M66.5,46.1c0.27,0,0.5,0.07,0.7,0.2
			c0.13,0.13,0.18,0.27,0.15,0.4c-0.07,0.33-0.35,0.52-0.85,0.55c-0.27,0-0.52-0.07-0.75-0.2c-0.17-0.17-0.18-0.35-0.05-0.55
			c0.03-0.07,0.05-0.13,0.05-0.2h0.1c0-0.03,0.03-0.07,0.1-0.1C66.12,46.14,66.3,46.1,66.5,46.1z M64,46.6
			c0.27,0,0.48,0.07,0.65,0.2c0.13,0.17,0.18,0.3,0.15,0.4c-0.07,0.33-0.33,0.53-0.8,0.6c-0.2,0-0.45-0.1-0.75-0.3
			c-0.17-0.13-0.2-0.3-0.1-0.5c0.07-0.07,0.1-0.12,0.1-0.15c0-0.03,0.03-0.05,0.1-0.05l0.15-0.1C63.63,46.64,63.8,46.6,64,46.6z
			 M65.65,43.85c1,0.4,0.95,0.78-0.15,1.15c-0.23-0.03-0.5-0.1-0.8-0.2c-0.3-0.2-0.4-0.43-0.3-0.7c0.07-0.03,0.12-0.08,0.15-0.15
			c0-0.03,0.02-0.05,0.05-0.05l0.05-0.05C64.98,43.75,65.32,43.75,65.65,43.85z M73.85,44.25c0.27,0,0.48,0.07,0.65,0.2
			c0.13,0.13,0.17,0.25,0.1,0.35c-0.03,0.33-0.28,0.55-0.75,0.65c-0.3,0-0.55-0.1-0.75-0.3c-0.17-0.13-0.18-0.32-0.05-0.55
			c0.03-0.07,0.05-0.12,0.05-0.15h0.05c0-0.03,0.05-0.05,0.15-0.05C73.47,44.3,73.65,44.25,73.85,44.25z M77.15,44.25
			c0.07-0.03,0.12-0.07,0.15-0.1c0-0.03,0.02-0.05,0.05-0.05c0-0.03,0.02-0.05,0.05-0.05c0.17-0.1,0.35-0.15,0.55-0.15
			c0.3,0,0.53,0.07,0.7,0.2c0.1,0.13,0.13,0.25,0.1,0.35c-0.03,0.37-0.3,0.57-0.8,0.6c-0.27,0-0.48-0.08-0.65-0.25
			C77.1,44.67,77.05,44.48,77.15,44.25z M17.15,38.85l0.1-0.05c0.17-0.1,0.35-0.15,0.55-0.15c0.3,0,0.53,0.07,0.7,0.2
			c0.13,0.13,0.18,0.27,0.15,0.4c-0.07,0.33-0.35,0.53-0.85,0.6c-0.27,0-0.5-0.08-0.7-0.25c-0.2-0.17-0.23-0.35-0.1-0.55l0.1-0.15
			C17.1,38.87,17.12,38.85,17.15,38.85z M11.05,43.3c0.07-0.07,0.12-0.12,0.15-0.15c0.2-0.27,0.45-0.22,0.75,0.15
			c0.1,0.13,0.2,0.3,0.3,0.5c-0.07,0.3-0.33,0.47-0.8,0.5c-0.27,0-0.5-0.08-0.7-0.25c-0.13-0.1-0.2-0.22-0.2-0.35
			C10.65,43.67,10.82,43.53,11.05,43.3z M21.1,45.7c0.13,0.13,0.18,0.27,0.15,0.4c-0.03,0.33-0.3,0.53-0.8,0.6
			c-0.27,0-0.52-0.08-0.75-0.25c-0.2-0.17-0.23-0.35-0.1-0.55c0.07-0.07,0.1-0.13,0.1-0.2h0.1c0-0.03,0.02-0.05,0.05-0.05
			c0.17-0.1,0.37-0.15,0.6-0.15C20.72,45.5,20.93,45.57,21.1,45.7z M18.6,46.2c0.13,0.17,0.18,0.3,0.15,0.4
			c-0.07,0.33-0.33,0.53-0.8,0.6c-0.23,0-0.48-0.1-0.75-0.3c-0.2-0.13-0.23-0.3-0.1-0.5c0.03-0.07,0.07-0.12,0.1-0.15
			c0-0.03,0.03-0.05,0.1-0.05l0.1-0.1c0.17-0.07,0.35-0.1,0.55-0.1C18.22,46,18.43,46.07,18.6,46.2z M11.85,46.45
			c0-0.1,0.02-0.15,0.05-0.15c0.03-0.07,0.07-0.1,0.1-0.1c0-0.07,0.02-0.1,0.05-0.1l0.1-0.05c0.27-0.13,0.52-0.13,0.75,0
			c0.83,0.5,0.77,0.88-0.2,1.15c-0.1,0-0.23-0.03-0.4-0.1c-0.07-0.03-0.15-0.07-0.25-0.1C12.02,47,12,46.97,12,46.9
			c-0.03,0-0.05-0.02-0.05-0.05c-0.03,0-0.05-0.02-0.05-0.05l-0.05-0.1C11.85,46.6,11.85,46.52,11.85,46.45z M13.4,44.4
			c-0.03,0-0.05-0.03-0.05-0.1c-0.03,0-0.05-0.02-0.05-0.05c-0.07-0.03-0.1-0.07-0.1-0.1c0-0.07,0-0.15,0-0.25
			c0-0.03,0.03-0.08,0.1-0.15c0.4,0,0.88,0,1.45,0c0.33,0.37,0.1,0.67-0.7,0.9c-0.13,0-0.25-0.02-0.35-0.05
			c-0.07-0.07-0.15-0.12-0.25-0.15C13.42,44.45,13.4,44.44,13.4,44.4z M15.55,41.65c0.1,0.1,0.12,0.2,0.05,0.3
			c-0.03,0.33-0.3,0.52-0.8,0.55c-0.23,0-0.47-0.07-0.7-0.2c0.23,0,0.45,0.03,0.65,0.1c0.43-0.07,0.7-0.27,0.8-0.6
			C15.55,41.73,15.55,41.69,15.55,41.65z M22.05,45.1c0.17,0.1,0.32,0.15,0.45,0.15c0.53-0.07,0.82-0.27,0.85-0.6
			c0-0.03,0.03-0.05,0.1-0.05c0.83,0.47,0.68,0.83-0.45,1.1c-0.03,0-0.1,0-0.2,0c-0.03,0-0.07,0-0.1,0c-0.27-0.07-0.47-0.2-0.6-0.4
			C22.07,45.27,22.05,45.2,22.05,45.1z M30.85,45.25c0-0.07,0.02-0.12,0.05-0.15c0.2-0.07,0.4-0.1,0.6-0.1
			c0.33,0,0.57,0.08,0.7,0.25c0.1,0.13,0.15,0.25,0.15,0.35c-0.03,0.33-0.32,0.53-0.85,0.6c-0.23,0-0.45-0.1-0.65-0.3
			c-0.23-0.13-0.3-0.3-0.2-0.5C30.68,45.33,30.75,45.28,30.85,45.25z M31.7,47.85h0.1c0-0.03,0-0.07,0-0.1
			c0.17-0.07,0.35-0.1,0.55-0.1c0.13,0,0.25,0,0.35,0c0.13,0.03,0.23,0.1,0.3,0.2h0.1c0.1,0.13,0.13,0.25,0.1,0.35
			c0,0.1-0.03,0.17-0.1,0.2h-1.55c-0.1-0.1-0.1-0.23,0-0.4C31.62,47.94,31.67,47.89,31.7,47.85z M41.05,46c0.27,0,0.5,0.07,0.7,0.2
			c0.17,0.17,0.23,0.3,0.2,0.4c-0.03,0.33-0.33,0.53-0.9,0.6c-0.2,0-0.4-0.1-0.6-0.3c-0.23-0.13-0.3-0.3-0.2-0.5
			c0.03-0.07,0.1-0.12,0.2-0.15V46.2l0.05-0.1C40.7,46.03,40.88,46,41.05,46z M34.65,44.15c0,0.03,0,0.07,0,0.1
			c-0.03,0.33-0.3,0.52-0.8,0.55c-0.23,0-0.45-0.07-0.65-0.2c-0.23-0.13-0.3-0.32-0.2-0.55c0.07-0.1,0.13-0.15,0.2-0.15
			c0-0.03,0.02-0.05,0.05-0.05c0-0.03,0.03-0.07,0.1-0.1c0.13-0.07,0.3-0.1,0.5-0.1c0.2,0,0.37,0.02,0.5,0.05
			c0.1,0.03,0.17,0.08,0.2,0.15C34.62,43.98,34.65,44.08,34.65,44.15z M43.15,44.95c0-0.03,0.05-0.07,0.15-0.1
			c0.07-0.03,0.17-0.07,0.3-0.1c-0.1,0-0.17-0.03-0.2-0.1c-0.2-0.13-0.23-0.32-0.1-0.55c0.03-0.03,0.07-0.08,0.1-0.15
			c0-0.03,0.02-0.05,0.05-0.05l0.1-0.05l0.05-0.05c0.17-0.07,0.32-0.1,0.45-0.1c0.3,0,0.53,0.07,0.7,0.2
			c0.17,0.17,0.18,0.3,0.05,0.4c0,0.27-0.13,0.43-0.4,0.5c0.03,0.07,0.07,0.12,0.1,0.15c0.1,0.13,0.13,0.25,0.1,0.35
			c-0.03,0.37-0.28,0.57-0.75,0.6c-0.27,0-0.5-0.08-0.7-0.25c-0.23-0.13-0.28-0.32-0.15-0.55c0.07-0.07,0.12-0.1,0.15-0.1V44.95z
			 M47.05,47.9c0-0.03,0.02-0.05,0.05-0.05c0.2-0.1,0.38-0.15,0.55-0.15c0.3,0,0.55,0.07,0.75,0.2c0.13,0.13,0.17,0.27,0.1,0.4v0.1
			h-1.7c-0.03-0.1,0-0.22,0.1-0.35c0.03-0.03,0.07-0.07,0.1-0.1C47,47.92,47.02,47.9,47.05,47.9z M48.85,46.7
			c-0.17-0.13-0.18-0.33-0.05-0.6c0-0.03,0.02-0.07,0.05-0.1h0.1v-0.1c0.2-0.13,0.4-0.2,0.6-0.2c0.3,0,0.53,0.1,0.7,0.3
			c0.13,0.13,0.18,0.23,0.15,0.3c-0.03,0.37-0.32,0.57-0.85,0.6C49.32,46.9,49.08,46.83,48.85,46.7z M55.85,45
			c0.03-0.03,0.07-0.07,0.1-0.1c0-0.03,0.03-0.05,0.1-0.05c0-0.03,0.02-0.05,0.05-0.05c0.17-0.1,0.35-0.15,0.55-0.15
			c0.27,0,0.48,0.07,0.65,0.2c0.17,0.13,0.23,0.27,0.2,0.4c-0.03,0.3-0.32,0.5-0.85,0.6c-0.03,0-0.08,0-0.15,0l0.1,0.05
			c0.1,0.13,0.13,0.25,0.1,0.35c-0.03,0.37-0.3,0.57-0.8,0.6c-0.23,0-0.45-0.08-0.65-0.25c-0.23-0.13-0.28-0.32-0.15-0.55
			c0.07-0.03,0.12-0.08,0.15-0.15h0.05c0-0.03,0.02-0.07,0.05-0.1c0.13-0.1,0.32-0.15,0.55-0.15c0.1,0,0.16,0,0.2,0
			c-0.04,0-0.09-0.02-0.15-0.05C55.72,45.47,55.68,45.27,55.85,45z M58.5,50.85c0.07,0.03,0.13,0.08,0.2,0.15
			c0.07,0.23,0,0.42-0.2,0.55c-0.2,0.2-0.43,0.3-0.7,0.3c-0.5-0.1-0.77-0.3-0.8-0.6c0-0.13,0.03-0.27,0.1-0.4
			c0.17-0.13,0.4-0.2,0.7-0.2c0.23,0,0.43,0.03,0.6,0.1c0.03,0.03,0.05,0.07,0.05,0.1H58.5z M57.6,53.5c0.07,0,0.12,0.05,0.15,0.15
			c0.1,0.13,0.1,0.27,0,0.4c-0.67,0.33-1.18,0.33-1.55,0c-0.07-0.07-0.1-0.13-0.1-0.2c-0.03-0.1,0-0.22,0.1-0.35
			c0.1,0,0.15-0.02,0.15-0.05c0.03-0.1,0.12-0.15,0.25-0.15c0.1-0.03,0.23-0.05,0.4-0.05s0.35,0.03,0.55,0.1c0,0.03,0,0.07,0,0.1
			C57.58,53.45,57.6,53.47,57.6,53.5z M56.35,49.65c0.1,0.23,0.02,0.42-0.25,0.55c-0.17,0.17-0.38,0.25-0.65,0.25
			c-0.5-0.07-0.75-0.27-0.75-0.6c0-0.03,0-0.07,0-0.1c0-0.07,0.03-0.15,0.1-0.25c0.03-0.07,0.08-0.12,0.15-0.15
			c0.17-0.07,0.33-0.1,0.5-0.1c0.23,0,0.42,0.05,0.55,0.15c0.03,0.03,0.05,0.07,0.05,0.1h0.05C56.17,49.53,56.25,49.58,56.35,49.65z
			 M48.85,51.85c0.03,0,0.05,0.02,0.05,0.05c0.03,0,0.08,0.05,0.15,0.15c0.1,0.17,0.05,0.33-0.15,0.5c-0.2,0.17-0.42,0.25-0.65,0.25
			c-0.53-0.03-0.82-0.22-0.85-0.55c-0.03-0.13,0.02-0.27,0.15-0.4c0.23-0.13,0.47-0.2,0.7-0.2c0.2,0,0.38,0.03,0.55,0.1L48.85,51.85
			z M46.2,50.55v0.1c0.03,0,0.07,0.03,0.1,0.1c0.13,0.2,0.1,0.38-0.1,0.55c-0.23,0.17-0.47,0.25-0.7,0.25
			c-0.5-0.03-0.77-0.23-0.8-0.6c-0.07-0.1-0.03-0.23,0.1-0.4c0.07-0.03,0.1-0.07,0.1-0.1c-0.23-0.1-0.37-0.27-0.4-0.5
			c-0.1-0.13-0.08-0.27,0.05-0.4c0.17-0.13,0.4-0.2,0.7-0.2c0.17,0,0.32,0.03,0.45,0.1l0.05,0.05c0.07,0,0.1,0.02,0.1,0.05
			c0.03,0,0.05,0.02,0.05,0.05c0.03,0.03,0.07,0.08,0.1,0.15c0.17,0.23,0.13,0.42-0.1,0.55c-0.03,0.03-0.1,0.05-0.2,0.05
			c0.13,0.03,0.23,0.08,0.3,0.15C46.13,50.5,46.2,50.52,46.2,50.55z M42.2,53.6c0.03,0.03,0.08,0.07,0.15,0.1
			c0.03,0.1,0.05,0.22,0.05,0.35c-0.57,0.43-1.13,0.43-1.7,0c0-0.03,0-0.08,0-0.15c-0.03-0.1,0-0.23,0.1-0.4
			c0.2-0.13,0.45-0.2,0.75-0.2c0.2,0,0.38,0.05,0.55,0.15l0.05,0.05C42.18,53.5,42.2,53.53,42.2,53.6z M39.1,51.6
			c0.13-0.17,0.37-0.25,0.7-0.25c0.2,0,0.37,0.05,0.5,0.15c0.03,0.03,0.05,0.07,0.05,0.1c0.07,0,0.1,0.02,0.1,0.05
			c0.03,0.03,0.07,0.07,0.1,0.1c0.13,0.23,0.1,0.42-0.1,0.55c-0.2,0.17-0.42,0.25-0.65,0.25c-0.53-0.03-0.82-0.23-0.85-0.6
			C38.92,51.89,38.97,51.77,39.1,51.6z M32.65,50.3c0.23,0,0.43,0.03,0.6,0.1c0.03,0.03,0.05,0.07,0.05,0.1h0.05
			c0.07,0.03,0.12,0.08,0.15,0.15c0.13,0.23,0.08,0.43-0.15,0.6c-0.03,0.03-0.07,0.05-0.1,0.05c0.04,0,0.1,0,0.2,0
			c0.2,0,0.37,0.05,0.5,0.15L34,51.5c0.07,0,0.1,0.02,0.1,0.05c0.03,0.03,0.08,0.08,0.15,0.15c0.13,0.23,0.08,0.42-0.15,0.55
			c-0.23,0.17-0.45,0.25-0.65,0.25c-0.53-0.07-0.82-0.27-0.85-0.6c-0.03-0.13,0.02-0.27,0.15-0.4c-0.03,0-0.07,0-0.1,0
			c-0.5-0.1-0.77-0.32-0.8-0.65c-0.03-0.1,0.02-0.22,0.15-0.35C32.2,50.37,32.42,50.3,32.65,50.3z M24.65,50.4
			c-0.33,0.1-0.62,0.18-0.85,0.25c-1.07-0.37-1.1-0.75-0.1-1.15c0.3-0.13,0.63-0.13,1,0v0.05c0.07,0,0.1,0.02,0.1,0.05
			c0.03,0.03,0.07,0.08,0.1,0.15C25.03,50.02,24.95,50.23,24.65,50.4z M23.5,51.9c0.03,0,0.05,0.02,0.05,0.05
			c0.03,0.07,0.07,0.12,0.1,0.15c0.1,0.23,0.07,0.42-0.1,0.55c-0.23,0.17-0.48,0.25-0.75,0.25c-0.47-0.07-0.73-0.27-0.8-0.6
			c-0.03-0.13,0.02-0.27,0.15-0.4c0.17-0.13,0.38-0.2,0.65-0.2c0.23,0,0.43,0.05,0.6,0.15L23.5,51.9z M25.95,52.45
			c0.07,0,0.1,0.02,0.1,0.05c0.03,0.03,0.07,0.07,0.1,0.1c0.13,0.23,0.1,0.42-0.1,0.55c-0.27,0.17-0.52,0.25-0.75,0.25
			c-0.43-0.07-0.7-0.27-0.8-0.6c0-0.1,0.07-0.22,0.2-0.35c0.13-0.13,0.33-0.2,0.6-0.2c0.2,0,0.38,0.02,0.55,0.05
			C25.92,52.37,25.95,52.42,25.95,52.45z M19.85,49.5c-0.47-0.03-0.73-0.22-0.8-0.55c-0.03-0.13,0.02-0.27,0.15-0.4
			c0.13-0.13,0.35-0.2,0.65-0.2c0.2,0,0.38,0.03,0.55,0.1c0.07,0.03,0.1,0.07,0.1,0.1c0.03,0,0.05,0.02,0.05,0.05
			c0.03,0,0.08,0.03,0.15,0.1c0.13,0.23,0.08,0.42-0.15,0.55C20.28,49.42,20.05,49.5,19.85,49.5z M18.05,51.3
			c0.07,0,0.1,0.02,0.1,0.05h0.05c0.03,0.07,0.07,0.12,0.1,0.15c0.1,0.23,0.07,0.42-0.1,0.55l-0.05,0.05h0.05
			c0.03,0,0.05,0.03,0.05,0.1c0.03,0,0.05,0.02,0.05,0.05c0.03,0,0.07,0.02,0.1,0.05c0.13,0.43-0.05,0.7-0.55,0.8
			c-0.37,0.03-0.7,0.08-1,0.15c-0.47-0.07-0.73-0.27-0.8-0.6c-0.03-0.1,0.02-0.23,0.15-0.4c0.2-0.1,0.4-0.17,0.6-0.2
			c-0.07-0.1-0.1-0.22-0.1-0.35c-0.1-0.1-0.07-0.22,0.1-0.35c0.17-0.17,0.38-0.25,0.65-0.25S17.92,51.17,18.05,51.3z M14.8,50.1
			c0.17-0.17,0.4-0.25,0.7-0.25c0.17,0,0.35,0.05,0.55,0.15c0.07,0.03,0.1,0.07,0.1,0.1h0.05c0.03,0.03,0.07,0.08,0.1,0.15
			c0.13,0.2,0.1,0.38-0.1,0.55c-0.2,0.17-0.43,0.25-0.7,0.25c-0.5-0.07-0.77-0.27-0.8-0.6C14.63,50.35,14.67,50.23,14.8,50.1z
			 M12.05,50.45c-0.23,0.17-0.45,0.25-0.65,0.25c-0.57-0.03-0.85-0.23-0.85-0.6c-0.03-0.1,0-0.22,0.1-0.35
			c0.2-0.17,0.45-0.25,0.75-0.25c0.17,0,0.35,0.05,0.55,0.15c0.03,0.03,0.05,0.07,0.05,0.1h0.05c0.03,0.03,0.08,0.08,0.15,0.15
			C12.3,50.14,12.25,50.32,12.05,50.45z M77.9,49.95c-0.5-0.07-0.78-0.23-0.85-0.5c0.13-0.2,0.25-0.37,0.35-0.5h0.85
			c0.23,0.2,0.4,0.33,0.5,0.4c0,0.13-0.05,0.25-0.15,0.35C78.37,49.87,78.13,49.95,77.9,49.95z M76.15,49.75
			c0,0.03-0.05,0.08-0.15,0.15v0.05c0,0.03-0.02,0.07-0.05,0.1c0,0.03-0.03,0.05-0.1,0.05c-0.07,0.03-0.13,0.07-0.2,0.1
			c-0.13,0.07-0.25,0.1-0.35,0.1c-0.83-0.23-1.07-0.53-0.7-0.9c0.47-0.43,0.93-0.43,1.4,0l0.15,0.1
			C76.15,49.6,76.15,49.69,76.15,49.75z M77.35,51.85c0.03,0,0.07,0.02,0.1,0.05c0.03,0.03,0.05,0.08,0.05,0.15c0,0.1,0,0.18,0,0.25
			l-0.05,0.15c0,0.03-0.02,0.05-0.05,0.05c0,0.03-0.02,0.05-0.05,0.05c0,0.03-0.02,0.05-0.05,0.05c-0.1,0.07-0.2,0.12-0.3,0.15
			c-0.13,0.03-0.27,0.05-0.4,0.05c-0.97-0.27-1.03-0.63-0.2-1.1c0.27-0.13,0.52-0.13,0.75,0c0.1,0,0.15,0.02,0.15,0.05
			C77.33,51.75,77.35,51.78,77.35,51.85z M65.9,50.2c0.07,0.03,0.1,0.07,0.1,0.1c0,0.33,0.27,0.52,0.8,0.55c0.13,0,0.3-0.03,0.5-0.1
			c0,0.07-0.03,0.12-0.1,0.15c-0.13,0.23-0.33,0.38-0.6,0.45h-0.1c-0.07,0-0.12,0-0.15,0C65.22,51.08,65.07,50.7,65.9,50.2z
			 M69.4,51.6c0.23-0.1,0.47-0.1,0.7,0c0.3,0.17,0.55,0.32,0.75,0.45c0.13,0,0.32,0.05,0.55,0.15l0.05,0.05
			c0.03,0,0.05,0.02,0.05,0.05l0.15,0.15c0.07,0.2,0.02,0.38-0.15,0.55c-0.27,0.17-0.5,0.25-0.7,0.25c-0.1,0-0.18-0.02-0.25-0.05
			c-0.03,0.03-0.1,0.05-0.2,0.05s-0.23-0.03-0.4-0.1c-0.1-0.03-0.23-0.07-0.4-0.1C68.55,52.48,68.5,52,69.4,51.6z"/>
		<path fill-rule="evenodd" clip-rule="evenodd" fill="#6B6D73" d="M21.85,40.25c-0.13-0.23-0.4-0.35-0.8-0.35
			c-0.03-0.13-0.03-0.28,0-0.45c0.03-0.07,0.1-0.1,0.2-0.1V39.3c0-0.03,0.02-0.07,0.05-0.1c0.2-0.1,0.4-0.15,0.6-0.15
			c0.33,0,0.57,0.08,0.7,0.25c0.1,0.13,0.13,0.25,0.1,0.35c-0.03,0.37-0.3,0.57-0.8,0.6H21.85z M36.25,35.3
			c0.17,0.13,0.2,0.27,0.1,0.4c-0.03,0.33-0.27,0.53-0.7,0.6c-0.3,0-0.53-0.08-0.7-0.25c-0.23-0.13-0.28-0.33-0.15-0.6
			c0.07-0.03,0.12-0.07,0.15-0.1c0-0.03,0.02-0.05,0.05-0.05c0-0.03,0.02-0.05,0.05-0.05c0.07-0.07,0.12-0.1,0.15-0.1
			c0.13-0.03,0.28-0.05,0.45-0.05C35.88,35.1,36.08,35.17,36.25,35.3z M30.4,37.95c-0.03,0.37-0.3,0.57-0.8,0.6
			c-0.27,0-0.48-0.08-0.65-0.25c-0.2-0.13-0.23-0.32-0.1-0.55c0.03-0.07,0.07-0.1,0.1-0.1c0-0.03,0.02-0.05,0.05-0.05
			c0-0.03,0.02-0.07,0.05-0.1c0.17-0.07,0.35-0.1,0.55-0.1c0.33,0,0.57,0.07,0.7,0.2C30.43,37.73,30.47,37.85,30.4,37.95z
			 M30.35,41.1c0-0.03,0.02-0.07,0.05-0.1c0.07-0.07,0.13-0.12,0.2-0.15c0-0.03,0.02-0.05,0.05-0.05c0-0.03,0-0.07,0-0.1
			c0.33-0.13,0.62-0.13,0.85,0c0.8,0.5,0.72,0.88-0.25,1.15c-0.13,0-0.27-0.02-0.4-0.05c-0.1-0.03-0.17-0.08-0.2-0.15H30.6
			c-0.07-0.03-0.1-0.08-0.1-0.15c-0.07,0-0.1-0.02-0.1-0.05c-0.03-0.03-0.05-0.07-0.05-0.1C30.35,41.28,30.35,41.2,30.35,41.1z
			 M21.95,42.4c0-0.07,0.03-0.1,0.1-0.1l0.05-0.05c0.33-0.13,0.63-0.12,0.9,0.05c0.73,0.43,0.8,0.77,0.2,1
			c-0.13,0.07-0.28,0.13-0.45,0.2c-0.03-0.03-0.08-0.05-0.15-0.05c-0.07,0-0.12,0-0.15,0c-0.1-0.03-0.18-0.08-0.25-0.15
			c-0.13-0.07-0.25-0.17-0.35-0.3c-0.07-0.2-0.07-0.37,0-0.5C21.88,42.47,21.92,42.44,21.95,42.4z M37.15,41.25
			c0,0.03,0.02,0.05,0.05,0.05c-0.03,0.03-0.07,0.08-0.1,0.15C37.13,41.38,37.15,41.32,37.15,41.25z M39.45,36.35
			c0.03,0,0.05,0.02,0.05,0.05c0.13,0.13,0.18,0.28,0.15,0.45c-0.03,0.3-0.3,0.48-0.8,0.55c-0.23,0-0.48-0.1-0.75-0.3
			c-0.17-0.13-0.2-0.32-0.1-0.55c0.03-0.03,0.07-0.07,0.1-0.1c0-0.03,0.05-0.05,0.15-0.05c0-0.03,0.02-0.05,0.05-0.05
			c0.1-0.03,0.18-0.07,0.25-0.1C38.78,36.32,39.08,36.35,39.45,36.35z M42.25,40.2c0.13,0.17,0.18,0.3,0.15,0.4c0,0.03,0,0.07,0,0.1
			c-0.03-0.03-0.08-0.08-0.15-0.15c-0.03-0.03-0.08-0.07-0.15-0.1C42.17,40.35,42.22,40.27,42.25,40.2z M40.85,40.55l-0.1,0.1
			c0-0.07,0-0.13,0-0.2C40.78,40.48,40.82,40.52,40.85,40.55z M35.15,38.8c0-0.07,0.02-0.1,0.05-0.1c0.3-0.13,0.6-0.18,0.9-0.15
			c0.07,0,0.13,0,0.2,0c0.23,0.07,0.42,0.15,0.55,0.25c0.07,0.13,0.08,0.28,0.05,0.45c-0.13,0.4-0.52,0.57-1.15,0.5
			c-0.4,0-0.67-0.13-0.8-0.4c-0.1-0.17-0.1-0.32,0-0.45L35,38.85h0.05C35.05,38.82,35.08,38.8,35.15,38.8z M36,41.75
			c-0.03,0.06-0.11,0.1-0.23,0.1h-0.02c-0.17,0-0.28,0.02-0.35,0.05c-0.13,0-0.22-0.02-0.25-0.05c-0.1,0-0.18-0.03-0.25-0.1
			c-0.07,0-0.1-0.02-0.1-0.05l-0.1-0.05c-0.03,0-0.05-0.02-0.05-0.05l-0.05-0.15c0.13,0.03,0.27,0.05,0.4,0.05
			c0.13-0.03,0.28-0.08,0.45-0.15c0,0.07,0.02,0.1,0.05,0.1C35.67,41.62,35.83,41.72,36,41.75z M36.5,42.65h0.1
			c0.13,0.17,0.17,0.3,0.1,0.4c0,0.1-0.02,0.18-0.05,0.25H36.6c-0.17,0.13-0.37,0.23-0.6,0.3c0-0.07-0.02-0.15-0.05-0.25V43.3
			c-0.03,0-0.08,0-0.15,0c-0.1-0.1-0.3-0.15-0.6-0.15c-0.03,0-0.1,0-0.2,0c-0.03-0.1-0.02-0.2,0.05-0.3l0.1-0.05
			c0.17,0.17,0.37,0.25,0.6,0.25C36.12,43.02,36.37,42.89,36.5,42.65z M43.6,43.8l-0.05,0.05l-0.1,0.05c-0.03,0-0.05,0.02-0.05,0.05
			c-0.03,0.07-0.07,0.12-0.1,0.15c-0.13,0.23-0.1,0.42,0.1,0.55c0.03,0.07,0.1,0.1,0.2,0.1c-0.13,0.03-0.23,0.07-0.3,0.1
			c-0.1,0.03-0.15,0.07-0.15,0.1c-0.2-0.03-0.38-0.1-0.55-0.2c-0.17-0.17-0.2-0.35-0.1-0.55c0.03-0.07,0.07-0.12,0.1-0.15h0.1
			c0-0.07,0.02-0.12,0.05-0.15c0.17-0.07,0.37-0.1,0.6-0.1C43.42,43.8,43.5,43.8,43.6,43.8z M46.2,50.55c0-0.03-0.07-0.05-0.2-0.05
			c-0.07-0.07-0.17-0.12-0.3-0.15c0.1,0,0.17-0.02,0.2-0.05c0.23-0.13,0.27-0.32,0.1-0.55c-0.03-0.07-0.07-0.12-0.1-0.15
			c0-0.03-0.02-0.05-0.05-0.05c0-0.03-0.03-0.05-0.1-0.05l-0.05-0.05c0.1,0,0.18,0,0.25,0c0.23,0,0.43,0.03,0.6,0.1
			c0.03,0.03,0.05,0.07,0.05,0.1c0.1,0,0.15,0.02,0.15,0.05s0.02,0.07,0.05,0.1c0.13,0.23,0.12,0.42-0.05,0.55
			C46.55,50.45,46.37,50.52,46.2,50.55z"/>
		<path fill-rule="evenodd" clip-rule="evenodd" fill="#5B5C64" d="M30.3,35.25v-0.1c0.2-0.07,0.38-0.1,0.55-0.1
			c0.3,0,0.53,0.07,0.7,0.2c0.17,0.13,0.22,0.27,0.15,0.4c-0.03,0.3-0.32,0.48-0.85,0.55c-0.23,0-0.43-0.08-0.6-0.25
			c-0.23-0.13-0.28-0.32-0.15-0.55c0.03-0.07,0.08-0.12,0.15-0.15H30.3z M28.25,40.1c0.13-0.07,0.3-0.1,0.5-0.1
			c0.3,0,0.53,0.07,0.7,0.2c0.1,0.17,0.12,0.3,0.05,0.4c0,0.33-0.25,0.53-0.75,0.6c-0.23,0-0.47-0.1-0.7-0.3
			c-0.2-0.13-0.25-0.3-0.15-0.5c0.07-0.07,0.12-0.12,0.15-0.15c0-0.03,0.03-0.05,0.1-0.05L28.25,40.1z M40.85,40.55
			c-0.03-0.03-0.07-0.07-0.1-0.1c-0.07,0-0.13-0.02-0.2-0.05c-0.07-0.2-0.08-0.37-0.05-0.5c0-0.03,0.02-0.07,0.05-0.1l0.1-0.05
			c0.5-0.47,0.92-0.52,1.25-0.15h0.05c0.03,0,0.12,0.03,0.25,0.1c0.1,0.13,0.12,0.27,0.05,0.4v0.1c-0.03,0.07-0.08,0.15-0.15,0.25
			c-0.13-0.1-0.37-0.15-0.7-0.15c-0.17,0-0.33,0.05-0.5,0.15C40.87,40.48,40.85,40.52,40.85,40.55z M35.77,41.85
			c0.03,0,0.09,0,0.18,0c0.17,0.03,0.3,0.1,0.4,0.2c0.2,0.13,0.28,0.27,0.25,0.4c0,0.03-0.03,0.1-0.1,0.2
			c-0.13,0.23-0.38,0.37-0.75,0.4c-0.23,0-0.43-0.08-0.6-0.25h-0.1c-0.23-0.13-0.27-0.32-0.1-0.55c0.03-0.07,0.07-0.12,0.1-0.15
			c0-0.03,0.03-0.05,0.1-0.05L35.2,42c0-0.03,0.07-0.07,0.2-0.1c0.07-0.03,0.18-0.05,0.35-0.05H35.77z"/>
		<path fill-rule="evenodd" clip-rule="evenodd" fill="#6B6C74" d="M36,41.75l-0.05,0.1c-0.09,0-0.15,0-0.18,0
			C35.89,41.85,35.97,41.82,36,41.75z"/>
	</g>
	<g>
		<path fill-rule="evenodd" clip-rule="evenodd" fill="#E43A3A" d="M96.15,32.05l0.05-0.1c0.63,0.23,0.53,0.52-0.3,0.85h-0.15
			C95.55,32.67,95.68,32.42,96.15,32.05z M102,33.85c-0.23,0.23-0.47,0.48-0.7,0.75c-1.27-0.43-1.38-1.05-0.35-1.85
			c0.23,0.33,0.52,0.68,0.85,1.05C101.87,33.83,101.93,33.85,102,33.85z M89.65,41.05c-0.03-0.2,0.03-0.32,0.2-0.35l0.1-0.1
			c1-0.17,1.48-0.13,1.45,0.1c0,0.17-0.27,0.43-0.8,0.8C90.1,41.5,89.78,41.35,89.65,41.05z M85.1,36.4c0.3,0.3,0.13,0.62-0.5,0.95
			c0,0.07-0.03,0.1-0.1,0.1c-0.03-0.37,0.15-0.7,0.55-1L85.1,36.4z M84.3,39c0.4,0.1,0.78,0.22,1.15,0.35
			c0.07,0.03,0.12,0.05,0.15,0.05c-0.2,0.27-0.43,0.52-0.7,0.75c-0.03,0.07-0.07,0.12-0.1,0.15c-0.43-0.1-0.85-0.27-1.25-0.5
			c0.27-0.23,0.5-0.47,0.7-0.7L84.3,39z M90.9,46.05h2c0,0.4-0.3,0.65-0.9,0.75C91.43,46.5,91.07,46.25,90.9,46.05z M92.5,44.4
			c-0.3,0-0.57-0.1-0.8-0.3c-0.27-0.23-0.25-0.38,0.05-0.45C93.45,43.35,93.7,43.6,92.5,44.4z M97.35,40.8
			c0.17-0.17,0.15-0.32-0.05-0.45c0.07-0.03,0.17-0.05,0.3-0.05c1.83-0.13,2.48,0.05,1.95,0.55c-0.13,0.13-0.3,0.28-0.5,0.45
			c-0.63-0.03-1.2-0.18-1.7-0.45V40.8z M95.75,40.85c0.2,0.23,0.47,0.38,0.8,0.45c-0.2,0.1-0.4,0.22-0.6,0.35
			c-0.37,0-0.63-0.12-0.8-0.35c-0.17-0.23-0.08-0.37,0.25-0.4C95.53,40.87,95.65,40.85,95.75,40.85z M116.6,34.05
			c-0.67-0.03-1.22-0.22-1.65-0.55c-0.3-0.17-0.25-0.3,0.15-0.4C117.4,32.87,117.9,33.19,116.6,34.05z M101.65,44.75
			c0-0.1,0.03-0.15,0.1-0.15c0.77-0.07,1.27-0.45,1.5-1.15c0.53,0.13,0.8,0.22,0.8,0.25c0.07,0.03,0.15,0.05,0.25,0.05
			c2.87,0.3,3.07,0.68,0.6,1.15c-0.57,0-1-0.17-1.3-0.5C103,45.3,102.35,45.42,101.65,44.75z M122.65,43.25
			c-0.23-0.2-0.2-0.33,0.1-0.4c1.53-0.3,1.72-0.08,0.55,0.65C123.1,43.5,122.88,43.42,122.65,43.25z M129.95,33.85
			c1.6-0.33,1.82-0.12,0.65,0.65c-0.23,0-0.48-0.1-0.75-0.3C129.65,34,129.68,33.89,129.95,33.85z M130.85,38.95
			c-0.23,0-0.43-0.07-0.6-0.2c-0.3-0.23-0.28-0.38,0.05-0.45C131.87,37.97,132.05,38.19,130.85,38.95z M139.2,38.65
			c0.03-0.23,0.22-0.35,0.55-0.35c2.03,0,2.13,0.47,0.3,1.4C139.32,39.6,139.03,39.25,139.2,38.65z M137.35,36.45
			c-0.23,0-0.48-0.1-0.75-0.3c-0.23-0.2-0.2-0.33,0.1-0.4C138.3,35.45,138.52,35.69,137.35,36.45z M134.65,47.9v0.05
			c-0.47,0.27-1.02,0.42-1.65,0.45c-0.23-0.17-0.4-0.32-0.5-0.45c-0.53-0.5,0.12-0.68,1.95-0.55c0.1,0,0.2,0.02,0.3,0.05
			C134.55,47.58,134.52,47.73,134.65,47.9z M135.5,48.35c0.33-0.07,0.6-0.2,0.8-0.4c0.1,0,0.2,0.02,0.3,0.05
			c0.37,0.03,0.45,0.15,0.25,0.35c-0.17,0.23-0.42,0.35-0.75,0.35C135.87,48.6,135.67,48.48,135.5,48.35z M141.55,47.63v0.03h0.2
			c0.11,0.01,0.23,0.03,0.35,0.05l0.15,0.05c0.13,0.07,0.18,0.2,0.15,0.4c-0.1,0.3-0.4,0.45-0.9,0.45c-0.57-0.37-0.87-0.63-0.9-0.8
			C140.57,47.61,140.89,47.56,141.55,47.63z M146.6,44.95c-0.27,0-0.45-0.1-0.55-0.3c-0.1-0.53,0.15-1.02,0.75-1.45
			c0.3-0.23,0.62-0.27,0.95-0.1C149.12,43.77,148.73,44.39,146.6,44.95z M146.6,46.45c0.37-0.13,0.75-0.25,1.15-0.35l0.05,0.1
			c0.2,0.2,0.42,0.43,0.65,0.7c-0.4,0.23-0.8,0.4-1.2,0.5c-0.07-0.03-0.1-0.08-0.1-0.15c-0.3-0.23-0.53-0.48-0.7-0.75
			C146.48,46.5,146.53,46.48,146.6,46.45z M139.55,51.5c-1.23-0.8-0.98-1.05,0.75-0.75c0.3,0.07,0.32,0.22,0.05,0.45
			C140.12,51.4,139.85,51.5,139.55,51.5z M130.3,51.65c0.07,0,0.1,0.07,0.1,0.2c-0.7,0.67-1.35,0.55-1.95-0.35
			c-0.3,0.33-0.73,0.5-1.3,0.5c-2.5-0.47-2.3-0.85,0.6-1.15c0.1,0,0.18-0.02,0.25-0.05c0-0.07,0.27-0.17,0.8-0.3
			C129.03,51.23,129.53,51.62,130.3,51.65z M109.35,50.35c-0.17,0.13-0.38,0.2-0.65,0.2c-1.17-0.73-0.97-0.93,0.6-0.6
			C109.63,49.98,109.65,50.12,109.35,50.35z M84.3,50.2c0.3-0.17,0.6-0.13,0.9,0.1c0.63,0.43,0.88,0.9,0.75,1.4
			c-0.07,0.23-0.25,0.35-0.55,0.35C83.3,51.48,82.93,50.87,84.3,50.2z"/>
		<path fill-rule="evenodd" clip-rule="evenodd" fill="#C61C1C" d="M95,33.4c0.13-0.1,0.27-0.23,0.4-0.4
			c0.07-0.1,0.15-0.18,0.25-0.25c0.6,0.37,0.38,0.6-0.65,0.7V33.4z M93.8,34.95c0.33-0.07,0.58-0.07,0.75,0
			c0.43,0.03,0.18,0.28-0.75,0.75c-0.23,0-0.43-0.07-0.6-0.2c-0.33-0.3-0.28-0.48,0.15-0.55C93.58,34.95,93.73,34.95,93.8,34.95z
			 M84.85,33h0.05c0.67,0.3,0.6,0.68-0.2,1.15c-0.07,0.03-0.17,0.05-0.3,0.05C84.23,33.8,84.38,33.4,84.85,33z M86.2,34.5h-0.05
			c0.23-0.27,0.45-0.52,0.65-0.75l0.05-0.1C86.82,33.89,86.6,34.17,86.2,34.5z M90.15,33c0.23-0.17,0.42-0.33,0.55-0.5
			c0.47,0.17,0.92,0.3,1.35,0.4c-0.33,0.63-0.95,0.82-1.85,0.55V33.4C89.9,33.37,89.88,33.23,90.15,33z M88.5,40.8
			c-0.2-0.03-0.37-0.1-0.5-0.2c-0.3-0.17-0.4-0.42-0.3-0.75c0.1-0.23,0.25-0.33,0.45-0.3c1.63,0,1.88,0.38,0.75,1.15
			C88.8,40.73,88.67,40.77,88.5,40.8z M87.55,36.15c-0.47-0.4-0.33-0.85,0.4-1.35c0.43,0.37,0.32,0.82-0.35,1.35H87.55z M87.7,42.95
			c2.37,0,2.9,0.37,1.6,1.1c-0.7-0.1-1.33-0.3-1.9-0.6C86.67,43.12,86.77,42.95,87.7,42.95z M96.55,41.3
			c-0.33-0.07-0.6-0.22-0.8-0.45c-0.03-0.03-0.07-0.07-0.1-0.1L95.6,40.7c-0.27-0.27-0.22-0.42,0.15-0.45c0.73-0.03,1.25,0,1.55,0.1
			c0.2,0.13,0.22,0.28,0.05,0.45c-0.13,0.17-0.37,0.33-0.7,0.5C96.62,41.3,96.58,41.3,96.55,41.3z M93.2,37.7
			c-0.03-0.23,0.08-0.37,0.35-0.4c1.9,0,2.15,0.5,0.75,1.5C93.57,38.64,93.2,38.27,93.2,37.7z M104.3,38.95
			c1.5-0.37,1.65-0.15,0.45,0.65c-0.23,0-0.43-0.07-0.6-0.2C103.92,39.14,103.97,38.98,104.3,38.95z M110.7,41.05
			c-0.13,0.13-0.32,0.23-0.55,0.3c-0.2,0-0.4-0.05-0.6-0.15c-0.1-0.07-0.15-0.12-0.15-0.15c-0.1-0.17-0.03-0.27,0.2-0.3
			C110.97,40.45,111.33,40.55,110.7,41.05z M111.8,34.65c-0.27-0.23-0.22-0.38,0.15-0.45c1.6-0.3,1.78-0.08,0.55,0.65
			C112.3,34.85,112.07,34.78,111.8,34.65z M103.25,32.8c2.1-0.23,2.33,0.05,0.7,0.85c-0.4-0.03-0.7-0.17-0.9-0.4
			S102.92,32.87,103.25,32.8z M108.6,33.05c1.83-0.3,2.15-0.02,0.95,0.85c-0.43-0.03-0.78-0.18-1.05-0.45
			C108.3,33.22,108.33,33.08,108.6,33.05z M111.65,43.65c-0.43,0-0.7-0.15-0.8-0.45c-0.07-0.23-0.02-0.38,0.15-0.45
			C112.77,42.45,112.98,42.75,111.65,43.65z M114.85,47.05c-0.23,0-0.4-0.05-0.5-0.15c-0.4-0.27-0.35-0.47,0.15-0.6
			C116.37,46.03,116.48,46.28,114.85,47.05z M122.45,48.25c-0.17,0.13-0.35,0.2-0.55,0.2c-0.23-0.07-0.42-0.17-0.55-0.3
			c-0.63-0.5-0.28-0.62,1.05-0.35c0.23,0.07,0.3,0.17,0.2,0.3C122.6,48.14,122.55,48.19,122.45,48.25z M135.4,32.6
			c-0.23-0.2-0.18-0.33,0.15-0.4c1.57-0.33,1.75-0.12,0.55,0.65C135.87,32.85,135.63,32.77,135.4,32.6z M129.4,35.2
			c-0.23-0.23-0.2-0.37,0.1-0.4c1.6-0.33,1.8-0.13,0.6,0.6C129.87,35.4,129.63,35.33,129.4,35.2z M131.25,42.2
			c-0.07,0.07-0.18,0.17-0.35,0.3c-0.2,0.1-0.47,0.22-0.8,0.35c-0.9-0.23-1.13-0.62-0.7-1.15c0.13-0.17,0.27-0.25,0.4-0.25
			c0.03,0,0.1,0,0.2,0s0.18,0,0.25,0C131.22,41.65,131.55,41.9,131.25,42.2z M129.65,45.7c-0.07-0.23-0.02-0.37,0.15-0.4
			c1.7-0.37,1.93-0.1,0.7,0.8C130.03,46.1,129.75,45.97,129.65,45.7z M142.95,37.6c-0.13-0.2-0.08-0.32,0.15-0.35
			c1.87-0.23,2.1,0.03,0.7,0.8C143.4,38.02,143.12,37.87,142.95,37.6z M134.65,47.9c-0.13-0.17-0.1-0.32,0.1-0.45
			c0.3-0.13,0.82-0.17,1.55-0.1c0.37,0.03,0.42,0.18,0.15,0.45c-0.03,0-0.05,0.02-0.05,0.05c-0.03,0.03-0.07,0.07-0.1,0.1
			c-0.2,0.2-0.47,0.33-0.8,0.4c0,0.03-0.03,0.05-0.1,0.05C135.07,48.2,134.82,48.03,134.65,47.9z M144.35,46.9
			c0.1,0.37,0,0.63-0.3,0.8c-0.1,0.1-0.27,0.17-0.5,0.2c-0.13-0.07-0.27-0.12-0.4-0.15c-1.1-0.73-0.83-1.12,0.8-1.15
			C144.12,46.57,144.25,46.67,144.35,46.9z M144.65,50.5c-0.57,0.33-1.2,0.53-1.9,0.6c-1.3-0.73-0.77-1.1,1.6-1.1
			C145.28,50,145.38,50.17,144.65,50.5z M121.2,50.3c-0.13,0.27-0.4,0.42-0.8,0.45c-1.33-0.93-1.13-1.23,0.6-0.9
			C121.17,49.89,121.23,50.03,121.2,50.3z M117.2,54.15c-1.63-0.8-1.5-1.07,0.4-0.8c0.47,0.13,0.5,0.35,0.1,0.65
			C117.6,54.1,117.43,54.15,117.2,54.15z M101.15,49.55c-0.2-0.13-0.32-0.22-0.35-0.25c-0.3-0.33,0.03-0.58,1-0.75
			c0.07,0,0.15,0,0.25,0c0.1,0,0.17,0,0.2,0c0.17,0,0.3,0.07,0.4,0.2c0.47,0.57,0.25,0.97-0.65,1.2
			C101.63,49.82,101.35,49.69,101.15,49.55z M101.55,53.2c-1.23-0.93-1-1.22,0.7-0.85c0.2,0.07,0.25,0.22,0.15,0.45
			C102.3,53.07,102.02,53.2,101.55,53.2z"/>
		<path fill-rule="evenodd" clip-rule="evenodd" fill="#E73F3F" d="M94.55,34.95c-0.17-0.07-0.42-0.07-0.75,0
			c-0.07-0.1-0.18-0.17-0.35-0.2c0.17-0.1,0.25-0.2,0.25-0.3V34.3v-0.2c0.07,0.07,0.15,0.12,0.25,0.15c-0.1,0-0.18,0.02-0.25,0.05
			c0.07,0,0.15,0,0.25,0C94.22,34.53,94.42,34.75,94.55,34.95z"/>
		<path fill-rule="evenodd" clip-rule="evenodd" fill="#6B6C74" d="M84.85,34.4c-0.07,0-0.15,0-0.25,0c0.1-0.03,0.18-0.07,0.25-0.1
			V34.4z"/>
		<path fill-rule="evenodd" clip-rule="evenodd" fill="#E03334" d="M96.85,37c-0.17-0.4-0.03-0.63,0.4-0.7c1.7-0.23,2.03,0.03,1,0.8
			C98.18,37.1,97.72,37.07,96.85,37z"/>
		<path fill-rule="evenodd" clip-rule="evenodd" fill="#E03B3A" d="M95.4,36.65c0.13-0.1,0.2-0.2,0.2-0.3l0.1-0.6
			C97.2,35.72,97.1,36.02,95.4,36.65z"/>
		<path fill-rule="evenodd" clip-rule="evenodd" fill="#DD3233" d="M94.25,37.3v-0.45C95.82,37.25,95.82,37.4,94.25,37.3z"/>
		<path fill-rule="evenodd" clip-rule="evenodd" fill="#E43234" d="M96.85,44.75l0.25,0.05c1.1,0.3,1.5,0.67,1.2,1.1
			c-0.8,1.63-1.65,1.57-2.55-0.2C95.88,45.1,96.25,44.78,96.85,44.75z M134.95,51.9l0.25-0.05c0.6,0.03,0.97,0.35,1.1,0.95
			c-0.9,1.77-1.75,1.83-2.55,0.2C133.45,52.53,133.85,52.17,134.95,51.9z"/>
		<path fill-rule="evenodd" clip-rule="evenodd" fill="#DF3333" d="M93.5,47.4c-0.1,0.03,0,0.12,0.3,0.25h-1.5
			c0.27-0.77,0.83-1.53,1.7-2.3c0.13-0.07,0.3,0.12,0.5,0.55C94.87,46.44,94.53,46.94,93.5,47.4z M137.5,52.95
			c0.27-0.43,0.43-0.6,0.5-0.5c0.9,0.73,1.48,1.48,1.75,2.25h-1.5c0.3-0.1,0.4-0.17,0.3-0.2C137.52,54.03,137.17,53.52,137.5,52.95z
			"/>
		<path fill-rule="evenodd" clip-rule="evenodd" fill="#E84241" d="M95.65,47.4c-0.17-0.13-0.42-0.27-0.75-0.4
			c0.7-0.2,1.32,0.02,1.85,0.65h-1C95.75,47.52,95.72,47.44,95.65,47.4z M137.15,54.1c-0.37,0.13-0.62,0.27-0.75,0.4
			c-0.07,0.03-0.1,0.1-0.1,0.2h-1.05C135.82,54.1,136.45,53.9,137.15,54.1z"/>
		<path fill-rule="evenodd" clip-rule="evenodd" fill="#E23032" d="M100.4,47c-0.23-0.1-0.78-0.32-1.65-0.65
			c0.63-0.73,1.1-0.7,1.4,0.1L100.4,47z M131.9,53.5c0.3-0.8,0.77-0.83,1.4-0.1c-0.87,0.37-1.42,0.6-1.65,0.7L131.9,53.5z"/>
		<path fill-rule="evenodd" clip-rule="evenodd" fill="#E33737" d="M104.6,37c-0.13-0.7,0.03-0.85,0.5-0.45
			c0.8,0.67,0.45,1.37-1.05,2.1C104.55,38.08,104.73,37.53,104.6,37z M142.8,43.85c-0.03,0.17-0.07,0.3-0.1,0.4
			c-0.6,1.2-1.03,1.37-1.3,0.5c-0.37-1.33,0.2-2,1.7-2L142.8,43.85z M88.95,49.85c1.5,0,2.07,0.67,1.7,2
			c-0.27,0.87-0.68,0.7-1.25-0.5c-0.03-0.1-0.08-0.23-0.15-0.4L88.95,49.85z"/>
		<path fill-rule="evenodd" clip-rule="evenodd" fill="#E13435" d="M108,37.45c1.63,0.27,1.53,0.45-0.3,0.55
			C107.53,37.57,107.63,37.39,108,37.45z M117.65,37.25c0.87,2.07,0.18,1.98-2.05-0.25C116.73,36.53,117.42,36.62,117.65,37.25z"/>
		<path fill-rule="evenodd" clip-rule="evenodd" fill="#DF3737" d="M114.2,40.25c0.43-0.97,1.03-1.83,1.8-2.6
			c0,0.1-0.03,0.22-0.1,0.35c-0.2,1.07-0.82,1.93-1.85,2.6C114.05,40.47,114.1,40.35,114.2,40.25z"/>
		<path fill-rule="evenodd" clip-rule="evenodd" fill="#E13B3B" d="M117.8,42.5c-0.27,0.57-1.12,0.78-2.55,0.65
			c0.17-0.87,0.82-1.15,1.95-0.85L117.8,42.5z M114.85,49.35c1.13-0.27,1.78,0.03,1.95,0.9c-1.43,0.1-2.28-0.13-2.55-0.7
			L114.85,49.35z"/>
		<path fill-rule="evenodd" clip-rule="evenodd" fill="#E43637" d="M117.3,35.35c1.23,0.27,0.92,0.5-0.95,0.7
			C116.38,35.48,116.7,35.25,117.3,35.35z"/>
		<path fill-rule="evenodd" clip-rule="evenodd" fill="#E03233" d="M113,36.15c3.33-0.27,3.32-0.18-0.05,0.25
			C112.95,36.27,112.97,36.19,113,36.15z"/>
		<path fill-rule="evenodd" clip-rule="evenodd" fill="#E13334" d="M131.25,42.2c0.37-0.23,0.03,0.08-1,0.95
			c0-0.1,0.03-0.18,0.1-0.25c0.23-0.17,0.42-0.3,0.55-0.4C131.07,42.37,131.18,42.27,131.25,42.2z M100.8,49.3
			c0.03,0.03,0.15,0.12,0.35,0.25c0.17,0.13,0.35,0.27,0.55,0.4c0.07,0.1,0.1,0.2,0.1,0.3C100.77,49.39,100.43,49.07,100.8,49.3z"/>
		<path fill-rule="evenodd" clip-rule="evenodd" fill="#E03837" d="M141.75,47.65h-0.2v-0.03c0.2-1.27,0.4-1.27,0.6,0.03H141.75z
			 M90.5,54.7h-0.55C90.12,53.44,90.3,53.44,90.5,54.7z"/>
	</g>
	<g>
		<linearGradient id="SVGID_1_" gradientUnits="userSpaceOnUse" x1="-31.9248" y1="43.1763" x2="110.4252" y2="43.1763">
			<stop  offset="0" style="stop-color:#000000;stop-opacity:0.498"/>
			<stop  offset="1" style="stop-color:#000000;stop-opacity:0"/>
		</linearGradient>
		<rect x="9" y="31" fill-rule="evenodd" clip-rule="evenodd" fill="url(#SVGID_1_)" width="141.75" height="24.35"/>
	</g>
	<g>
		<g>
			<g>
				<path fill-rule="evenodd" clip-rule="evenodd" fill-opacity="0.4706" d="M19.75,45c2.5-1.53,3.8-0.88,3.9,1.95
					c0.17,2.8,0.05,5.28-0.35,7.45c0,0.13,0,0.25,0,0.35h-4.15C18.68,52.92,18.88,49.67,19.75,45z"/>
			</g>
			<g>
				<path fill-rule="evenodd" clip-rule="evenodd" fill="#616161" d="M20.75,45.9c0-0.3,0.13-0.6,0.4-0.9c0.27-0.2,0.53-0.3,0.8-0.3
					c0.33,0,0.63,0.1,0.9,0.3c0.23,0.3,0.35,0.6,0.35,0.9v9.25c0,0.3,0,0.6,0,0.9c0.13-0.17,0.27-0.25,0.4-0.25h0.05l0.5-0.7
					l3.3-0.05c-2.2,2.5-3.37,3.77-3.5,3.8c-0.1,0.07-0.18,0.13-0.25,0.2c-0.87,0.6-1.57,0.57-2.1-0.1c-0.57-0.4-0.85-1.68-0.85-3.85
					V45.9z"/>
			</g>
			<g>
				
					<radialGradient id="SVGID_2_" cx="21.6001" cy="52.8013" r="4.7" gradientTransform="matrix(1 0 0 1.0106 0 -0.5617)" gradientUnits="userSpaceOnUse">
					<stop  offset="0" style="stop-color:#FFFFFF"/>
					<stop  offset="1" style="stop-color:#F9F9F9;stop-opacity:0"/>
				</radialGradient>
				<path fill-rule="evenodd" clip-rule="evenodd" fill="url(#SVGID_2_)" d="M21.5,48.1c-0.07-0.03-0.07-0.07,0-0.1
					c0.03-0.03,0.07-0.03,0.1,0c0.03-0.03,0.07-0.03,0.1,0c0.03,0.03,0.05,0.07,0.05,0.1v9.5c0,0.03-0.02,0.07-0.05,0.1
					c-0.03,0.03-0.07,0.05-0.1,0.05s-0.07-0.02-0.1-0.05c-0.07-0.03-0.07-0.07,0-0.1V48.1z"/>
				<path fill-rule="evenodd" clip-rule="evenodd" fill="#FFFFFF" d="M22.4,46.5c-0.73-0.03-0.95-0.38-0.65-1.05
					c0.03-0.07,0.07-0.1,0.1-0.1c0.47,0.2,0.67,0.53,0.6,1C22.42,46.42,22.4,46.47,22.4,46.5z"/>
			</g>
		</g>
	</g>
	<g>
		<g>
			<g>
				<path fill-rule="evenodd" clip-rule="evenodd" fill-opacity="0.4706" d="M133.95,45c2.5-1.53,3.82-0.88,3.95,1.95
					c0.13,2.8,0,5.28-0.4,7.45c0,0.13,0,0.25,0,0.35h-4.15C132.88,52.92,133.08,49.67,133.95,45z"/>
			</g>
			<g>
				<path fill-rule="evenodd" clip-rule="evenodd" fill="#616161" d="M135,45.9c0-0.3,0.12-0.6,0.35-0.9c0.27-0.2,0.55-0.3,0.85-0.3
					c0.33,0,0.62,0.1,0.85,0.3c0.27,0.3,0.4,0.6,0.4,0.9v9.25c0,0.3,0,0.6,0,0.9c0.1-0.17,0.22-0.25,0.35-0.25h0.05l0.5-0.7
					l3.3-0.05c-2.2,2.5-3.37,3.77-3.5,3.8c-0.07,0.07-0.13,0.13-0.2,0.2c-0.9,0.6-1.62,0.57-2.15-0.1c-0.57-0.4-0.83-1.68-0.8-3.85
					V45.9z"/>
			</g>
			<g>
				<path fill-rule="evenodd" clip-rule="evenodd" fill="#FFFFFF" d="M135.95,45.45c0.03-0.07,0.08-0.1,0.15-0.1
					c0.47,0.2,0.67,0.53,0.6,1c-0.07,0.07-0.1,0.12-0.1,0.15C135.87,46.47,135.65,46.12,135.95,45.45z"/>
				
					<radialGradient id="SVGID_3_" cx="135.7998" cy="52.8013" r="4.7" gradientTransform="matrix(1 0 0 1.0106 0 -0.5617)" gradientUnits="userSpaceOnUse">
					<stop  offset="0" style="stop-color:#FFFFFF"/>
					<stop  offset="1" style="stop-color:#F9F9F9;stop-opacity:0"/>
				</radialGradient>
				<path fill-rule="evenodd" clip-rule="evenodd" fill="url(#SVGID_3_)" d="M135.9,48c0.03,0.03,0.05,0.07,0.05,0.1v9.5
					c0,0.03-0.02,0.07-0.05,0.1c-0.03,0.03-0.07,0.05-0.1,0.05s-0.07-0.02-0.1-0.05s-0.03-0.07,0-0.1v-9.5
					c-0.03-0.03-0.03-0.07,0-0.1s0.07-0.03,0.1,0C135.83,47.97,135.87,47.97,135.9,48z"/>
			</g>
		</g>
	</g>
</g>
</svg>
