<?xml version="1.0" encoding="utf-8"?>
<!-- Generator: Adobe Illustrator 16.0.0, SVG Export Plug-In . SVG Version: 6.00 Build 0)  -->
<!DOCTYPE svg PUBLIC "-//W3C//DTD SVG 1.1//EN" "http://www.w3.org/Graphics/SVG/1.1/DTD/svg11.dtd">
<svg version="1.1" id="Layer_1" xmlns="http://www.w3.org/2000/svg" xmlns:xlink="http://www.w3.org/1999/xlink" x="0px" y="0px"
	 width="129.33px" height="59.17px" viewBox="0 0 129.33 59.17" enable-background="new 0 0 129.33 59.17" xml:space="preserve">
<g>
	<g>
		<path fill-rule="evenodd" clip-rule="evenodd" fill="#616161" d="M122.82,9.2c0.03,0,0.07,0,0.1,0c2.66,0.21,4.26,1.95,4.8,5.22
			c0,0.1,0,0.17,0,0.21v17.5c0,0.26-0.09,0.5-0.26,0.73c-0.19,0.21-0.41,0.36-0.65,0.44c-0.3,0.04-0.56-0.01-0.78-0.13
			c-0.31-0.1-0.51-0.29-0.6-0.55l-0.21-0.42l-0.39,21.18h-2.44l0.48-26.3c0-0.3,0.1-0.54,0.29-0.73c0.17-0.24,0.39-0.38,0.65-0.42
			c0.24-0.09,0.51-0.07,0.81,0.05c0.23,0.14,0.41,0.32,0.55,0.55l0.1,0.26V14.83c-0.28-1.96-1.15-3.04-2.61-3.23H78.44
			c-2.16,0-4.1-1.06-5.84-3.18l-3.05-3.44c-0.56-0.56-1.07-0.93-1.54-1.12c-0.47-0.17-0.89-0.17-1.25,0H66.7
			c-0.57,0.19-1.14,0.62-1.7,1.28l-2.24,2.63c-1.56,2.56-3.85,3.83-6.86,3.83H8.19c-1.43,0.19-2.3,1.27-2.61,3.23v12.03l0.16-0.26
			c0.1-0.26,0.29-0.46,0.55-0.6c0.24-0.12,0.5-0.14,0.76-0.05c0.3,0.04,0.55,0.17,0.76,0.42c0.16,0.19,0.23,0.43,0.23,0.73
			l0.3,15.99h-2.4l-0.2-10.93l-0.26,0.47c-0.12,0.26-0.3,0.44-0.55,0.55c-0.3,0.12-0.56,0.17-0.78,0.13
			c-0.28-0.09-0.5-0.23-0.65-0.44c-0.21-0.23-0.31-0.47-0.31-0.73v-17.5c0-0.04,0-0.1,0-0.21c0.54-3.27,2.14-5.01,4.8-5.22
			c0.04,0,0.07,0,0.1,0H55.9c2.14,0,3.74-0.9,4.8-2.71c0.03-0.07,0.09-0.12,0.16-0.16l2.35-2.79c0.9-1.03,1.83-1.69,2.79-1.98
			c0.87-0.33,1.78-0.33,2.74,0c0.87,0.3,1.76,0.9,2.66,1.8v0.08l3,3.44l0.05,0.05c1.24,1.46,2.57,2.22,3.99,2.27H122.82z"/>
	</g>
	<g>
		<line fill-rule="evenodd" clip-rule="evenodd" fill="none" x1="4.17" y1="15.72" x2="4.17" y2="24.14"/>
		<line fill-rule="evenodd" clip-rule="evenodd" fill="none" x1="71.3" y1="4.87" x2="75.44" y2="9.2"/>
		<line fill-rule="evenodd" clip-rule="evenodd" fill="none" x1="60.16" y1="8.93" x2="62.95" y2="5.46"/>
		<path fill-rule="evenodd" clip-rule="evenodd" fill="none" d="M55.1,10.73c2.33-0.23,3.9-0.7,4.7-1.43"/>
		<line fill-rule="evenodd" clip-rule="evenodd" fill="none" x1="5.82" y1="10.4" x2="51.55" y2="10.4"/>
		<path fill-rule="evenodd" clip-rule="evenodd" fill="none" d="M64.64,3.77c1.86-1.84,3.56-1.89,5.09-0.13"/>
		<line fill-rule="evenodd" clip-rule="evenodd" fill="none" x1="126.55" y1="14.52" x2="126.55" y2="26.78"/>
		<line fill-rule="evenodd" clip-rule="evenodd" fill="none" x1="78.52" y1="10.4" x2="124.25" y2="10.4"/>
	</g>
	<g>
		<path fill-rule="evenodd" clip-rule="evenodd" fill="#FFFFFF" d="M125.4,11.54c-0.92-0.28-1.16-0.71-0.7-1.3
			c0.07,0,0.1-0.04,0.1-0.1c0.61,0.26,0.83,0.7,0.65,1.3C125.42,11.47,125.4,11.51,125.4,11.54z M126.65,13.21
			c0.5,0.61,0.56,1.29,0.16,2.04c-0.07,0.07-0.12,0.12-0.16,0.16C126.08,14.67,126.08,13.94,126.65,13.21z M24.63,10.08l-8.61,0.26
			c-2,0.89-4.04,0.98-6.13,0.29C9.45,11,9.1,10.9,8.82,10.34c-0.05-0.17,0.02-0.26,0.21-0.26c0.14-0.03,0.24-0.05,0.31-0.05h0.08
			c0.21-0.12,2.7-0.14,7.46-0.05C21.64,10.05,24.23,10.08,24.63,10.08z M76.38,8.99c0.37,0.1,0.62,0.29,0.76,0.55
			c0,0.03,0,0.09,0,0.16c-0.83,0.37-1.12,0.18-0.86-0.55C76.28,9.04,76.31,8.99,76.38,8.99z"/>
	</g>
</g>
</svg>
