<?xml version="1.0" encoding="utf-8"?>
<!-- Generator: Adobe Illustrator 16.0.0, SVG Export Plug-In . SVG Version: 6.00 Build 0)  -->
<!DOCTYPE svg PUBLIC "-//W3C//DTD SVG 1.1//EN" "http://www.w3.org/Graphics/SVG/1.1/DTD/svg11.dtd">
<svg version="1.1" id="Layer_5" xmlns="http://www.w3.org/2000/svg" xmlns:xlink="http://www.w3.org/1999/xlink" x="0px" y="0px"
	 width="163.67px" height="63.33px" viewBox="0 0 163.67 63.33" enable-background="new 0 0 163.67 63.33" xml:space="preserve">
<g>
	<g>
		<g>
			<path fill-rule="evenodd" clip-rule="evenodd" fill="#616161" d="M90.85,8.65L90.9,8.7c1.23,1.47,2.57,2.22,4,2.25h44.4
				c0.03,0,0.07,0,0.1,0c2.67,0.23,4.27,1.98,4.8,5.25c0,0.1,0,0.17,0,0.2v17.5c0,0.27-0.08,0.5-0.25,0.7
				c-0.2,0.23-0.42,0.38-0.65,0.45c-0.3,0.03-0.57,0-0.8-0.1c-0.33-0.1-0.53-0.28-0.6-0.55l-0.2-0.45l-0.4,21.2h-2.45l0.5-26.3
				c0-0.3,0.08-0.53,0.25-0.7c0.2-0.27,0.43-0.42,0.7-0.45c0.23-0.07,0.5-0.05,0.8,0.05c0.2,0.13,0.38,0.32,0.55,0.55l0.1,0.25V16.6
				c-0.3-1.97-1.17-3.05-2.6-3.25H94.9c-2.13,0-4.08-1.05-5.85-3.15L86,6.75c-0.53-0.57-1.03-0.95-1.5-1.15
				c-0.5-0.17-0.93-0.17-1.3,0h-0.05c-0.57,0.2-1.12,0.63-1.65,1.3l-2.25,2.65c-1.57,2.53-3.87,3.8-6.9,3.8h-47.7
				c-1.43,0.2-2.3,1.28-2.6,3.25v12l0.15-0.25c0.1-0.27,0.28-0.47,0.55-0.6c0.23-0.1,0.48-0.12,0.75-0.05
				c0.3,0.03,0.55,0.18,0.75,0.45c0.17,0.17,0.25,0.4,0.25,0.7l0.3,16h-2.4L22.2,33.9l-0.25,0.5c-0.13,0.27-0.32,0.45-0.55,0.55
				c-0.3,0.1-0.57,0.13-0.8,0.1c-0.27-0.07-0.48-0.22-0.65-0.45c-0.2-0.2-0.3-0.43-0.3-0.7V16.4c0-0.03,0-0.1,0-0.2
				c0.53-3.27,2.13-5.02,4.8-5.25c0.03,0,0.07,0,0.1,0h47.8c2.17,0,3.77-0.9,4.8-2.7c0.03-0.07,0.1-0.12,0.2-0.15l2.35-2.8
				c0.9-1.03,1.82-1.7,2.75-2c0.87-0.33,1.78-0.33,2.75,0c0.87,0.3,1.75,0.9,2.65,1.8v0.1L90.85,8.65z"/>
		</g>
		<g>
			<line fill-rule="evenodd" clip-rule="evenodd" fill="none" x1="87.75" y1="6.65" x2="91.9" y2="10.95"/>
			<line fill-rule="evenodd" clip-rule="evenodd" fill="none" x1="76.6" y1="10.7" x2="79.4" y2="7.25"/>
			<path fill-rule="evenodd" clip-rule="evenodd" fill="none" d="M71.55,12.5c2.33-0.23,3.9-0.72,4.7-1.45"/>
			<path fill-rule="evenodd" clip-rule="evenodd" fill="none" d="M81.1,5.55c1.87-1.87,3.57-1.92,5.1-0.15"/>
			<line fill-rule="evenodd" clip-rule="evenodd" fill="none" x1="95" y1="12.15" x2="140.7" y2="12.15"/>
			<line fill-rule="evenodd" clip-rule="evenodd" fill="none" x1="143" y1="16.3" x2="143" y2="28.55"/>
			<line fill-rule="evenodd" clip-rule="evenodd" fill="none" x1="20.65" y1="17.5" x2="20.65" y2="25.9"/>
			<line fill-rule="evenodd" clip-rule="evenodd" fill="none" x1="22.3" y1="12.15" x2="68" y2="12.15"/>
		</g>
		<g>
			<path fill-rule="evenodd" clip-rule="evenodd" fill="#FFFFFF" d="M92.75,10.9c0-0.1,0.03-0.15,0.1-0.15
				c0.37,0.1,0.62,0.28,0.75,0.55c0,0.03,0,0.08,0,0.15C92.77,11.82,92.48,11.63,92.75,10.9z M143.1,15c0.53,0.6,0.6,1.27,0.2,2
				c-0.1,0.07-0.17,0.12-0.2,0.15C142.53,16.45,142.53,15.73,143.1,15z M141.9,13.2c-0.03,0.03-0.05,0.07-0.05,0.1
				c-0.9-0.27-1.13-0.7-0.7-1.3c0.07,0,0.1-0.03,0.1-0.1C141.88,12.17,142.1,12.6,141.9,13.2z M26.35,12.4
				c-0.43,0.37-0.78,0.27-1.05-0.3c-0.07-0.17,0-0.25,0.2-0.25c0.13-0.03,0.23-0.05,0.3-0.05h0.1c0.2-0.13,2.68-0.15,7.45-0.05
				c4.77,0.07,7.35,0.1,7.75,0.1l-8.6,0.25C30.5,13,28.45,13.1,26.35,12.4z"/>
		</g>
	</g>
	<g>
		<polygon fill-rule="evenodd" clip-rule="evenodd" fill="#5A5D63" points="83.9,30.65 2.15,30.65 6.4,28.75 83.9,28.75 		"/>
		<polygon fill-rule="evenodd" clip-rule="evenodd" fill="#C61C1C" points="160.75,30.65 83.9,30.65 83.9,28.75 157.85,28.75 		"/>
		<rect x="83.9" y="30.65" fill-rule="evenodd" clip-rule="evenodd" fill="#D82B2B" width="76.85" height="24.35"/>
		<rect x="2.15" y="30.65" fill-rule="evenodd" clip-rule="evenodd" fill="#6B6C74" width="81.75" height="24.35"/>
	</g>
	<g>
		
			<rect x="2.15" y="30.65" fill-rule="evenodd" clip-rule="evenodd" fill="#FFFFFF" fill-opacity="0.3255" width="158.6" height="0.15"/>
	</g>
	<g>
		<path fill-rule="evenodd" clip-rule="evenodd" fill="#7E8089" d="M74.4,32.6c0-0.03,0.05-0.07,0.15-0.1
			c0.13-0.07,0.33-0.1,0.6-0.1c0.3,0,0.55,0.07,0.75,0.2c0.13,0.13,0.15,0.25,0.05,0.35c-0.03,0.37-0.3,0.57-0.8,0.6
			c-0.3,0-0.57-0.08-0.8-0.25c-0.23-0.13-0.27-0.32-0.1-0.55c0.03-0.07,0.07-0.12,0.1-0.15H74.4z M79.15,35.1
			c0.33,0,0.6,0.07,0.8,0.2c0.13,0.13,0.15,0.27,0.05,0.4c-0.03,0.33-0.32,0.52-0.85,0.55c-0.27,0-0.5-0.08-0.7-0.25
			c-0.27-0.13-0.33-0.3-0.2-0.5c0.07-0.07,0.13-0.12,0.2-0.15c0-0.03,0.02-0.05,0.05-0.05l0.05-0.1
			C78.72,35.14,78.92,35.1,79.15,35.1z M9.7,31.55l0.05-0.05c0.57-0.13,1.07-0.13,1.5,0c0.07,0,0.15,0.02,0.25,0.05
			c0.07,0.17,0.08,0.3,0.05,0.4c-0.03,0.43-0.43,0.63-1.2,0.6c-0.4,0-0.68-0.13-0.85-0.4c-0.1-0.13-0.1-0.27,0-0.4
			c0-0.03,0.03-0.07,0.1-0.1l0.05-0.05C9.65,31.57,9.67,31.55,9.7,31.55z M80.75,32.1h0.1c0-0.03,0.03-0.07,0.1-0.1
			c0.17-0.07,0.35-0.1,0.55-0.1c0.37,0,0.63,0.07,0.8,0.2c0.1,0.1,0.15,0.2,0.15,0.3v0.05c-0.07,0.33-0.38,0.55-0.95,0.65
			c-0.27,0-0.52-0.1-0.75-0.3c-0.23-0.13-0.27-0.32-0.1-0.55C80.68,32.19,80.72,32.14,80.75,32.1z M41.8,32.15
			c-0.3-0.07-0.47-0.17-0.5-0.3c0.67-0.4,1.27-0.4,1.8,0c-0.17,0.13-0.5,0.25-1,0.35c0-0.03-0.07-0.05-0.2-0.05H41.8z"/>
		<path fill-rule="evenodd" clip-rule="evenodd" fill="#76787C" d="M70.15,35.4c0.3,0,0.55,0.08,0.75,0.25
			c0.17,0.13,0.23,0.25,0.2,0.35c-0.1,0.37-0.42,0.57-0.95,0.6c-0.3,0-0.55-0.08-0.75-0.25c-0.23-0.13-0.28-0.32-0.15-0.55
			c0.07-0.07,0.12-0.1,0.15-0.1v-0.05c0-0.03,0.05-0.07,0.15-0.1C69.75,35.45,69.95,35.4,70.15,35.4z M63.35,34.7l0.05-0.1
			c0.2-0.07,0.42-0.1,0.65-0.1c0.33,0,0.6,0.07,0.8,0.2c0.07,0.13,0.08,0.27,0.05,0.4c-0.03,0.33-0.32,0.53-0.85,0.6
			c-0.27,0-0.5-0.1-0.7-0.3c-0.27-0.13-0.35-0.3-0.25-0.5c0.07-0.07,0.15-0.12,0.25-0.15V34.7z M68.55,31.85
			c-0.07,0.3-0.35,0.48-0.85,0.55c-0.3,0-0.58-0.1-0.85-0.3c-0.13-0.07-0.18-0.15-0.15-0.25C67.23,31.52,67.85,31.52,68.55,31.85z
			 M69.85,39.9c-0.3,0-0.57-0.1-0.8-0.3c-0.2-0.17-0.22-0.33-0.05-0.5c0-0.03,0.02-0.07,0.05-0.1h0.05
			c0.07-0.07,0.12-0.12,0.15-0.15c0.2-0.1,0.4-0.15,0.6-0.15c0.37,0,0.7,0.08,1,0.25c0.07,0.13,0.08,0.25,0.05,0.35
			C70.9,39.7,70.55,39.9,69.85,39.9z M61,36.7c-0.1,0-0.15-0.03-0.15-0.1l-0.05-0.05c-0.03,0.37-0.38,0.55-1.05,0.55
			c-0.33,0-0.62-0.1-0.85-0.3c-0.13-0.17-0.15-0.33-0.05-0.5c0-0.03,0.02-0.07,0.05-0.1h0.05c0.03-0.07,0.1-0.12,0.2-0.15
			c0.13-0.07,0.33-0.1,0.6-0.1c0.37,0,0.65,0.07,0.85,0.2l0.15,0.05c0-0.03,0-0.07,0-0.1c0-0.07,0.02-0.1,0.05-0.1
			c0-0.07,0.02-0.12,0.05-0.15c0-0.03,0.05-0.05,0.15-0.05c0-0.03,0.02-0.07,0.05-0.1c0.33-0.13,0.65-0.13,0.95,0
			c0.53,0.33,0.68,0.62,0.45,0.85c-0.1,0.13-0.35,0.25-0.75,0.35c-0.1,0-0.25-0.05-0.45-0.15c-0.1,0-0.17-0.02-0.2-0.05H61z
			 M62.1,40.8c0-0.03,0.02-0.07,0.05-0.1c0.2-0.1,0.4-0.15,0.6-0.15c0.4,0,0.68,0.08,0.85,0.25c0.1,0.13,0.13,0.25,0.1,0.35
			c-0.03,0.3-0.27,0.48-0.7,0.55c-0.03,0.03-0.12,0.05-0.25,0.05c-0.23,0-0.47-0.08-0.7-0.25c-0.13-0.07-0.2-0.18-0.2-0.35
			c0-0.03,0.03-0.1,0.1-0.2c0.03-0.03,0.07-0.07,0.1-0.1C62.05,40.82,62.07,40.8,62.1,40.8z M76.85,41.5
			c0.07,0.03,0.12,0.08,0.15,0.15c0.1,0.07,0.15,0.15,0.15,0.25c0,0.03,0,0.08,0,0.15c-0.03,0.33-0.35,0.53-0.95,0.6
			c-0.23,0-0.47-0.1-0.7-0.3c-0.23-0.13-0.28-0.32-0.15-0.55c0.03-0.07,0.08-0.1,0.15-0.1c0-0.03,0.02-0.05,0.05-0.05
			c0-0.03,0.02-0.07,0.05-0.1c0.2-0.07,0.4-0.1,0.6-0.1C76.47,41.45,76.68,41.47,76.85,41.5z M78.95,42.1
			c0.13,0.13,0.18,0.25,0.15,0.35c0,0.23-0.18,0.4-0.55,0.5c-0.13,0.03-0.27,0.07-0.4,0.1c-0.1,0-0.23-0.03-0.4-0.1
			c-0.1-0.03-0.22-0.08-0.35-0.15c-0.2-0.13-0.23-0.32-0.1-0.55c0.03-0.07,0.07-0.12,0.1-0.15h0.1c0-0.03,0.02-0.08,0.05-0.15
			c0.17-0.03,0.37-0.05,0.6-0.05c0.07,0,0.17,0,0.3,0C78.65,41.9,78.82,41.97,78.95,42.1z M9.95,41.3c0,0.03,0,0.08,0,0.15
			c-0.07,0.33-0.37,0.53-0.9,0.6c-0.2-0.07-0.42-0.1-0.65-0.1c-0.13,0-0.23-0.02-0.3-0.05c-0.6-0.13-0.82-0.4-0.65-0.8
			c0.03-0.03,0.07-0.07,0.1-0.1c0-0.03,0.03-0.05,0.1-0.05V40.9h0.1c0.67-0.23,1.28-0.23,1.85,0c0.03,0.03,0.1,0.08,0.2,0.15
			c0.03,0.03,0.08,0.07,0.15,0.1V41.3z M6.2,39.55c0.1,0.13,0.13,0.25,0.1,0.35c-0.07,0.43-0.47,0.63-1.2,0.6
			c-0.47,0-0.78-0.13-0.95-0.4v-0.75L4.3,39.3c0-0.03,0.02-0.05,0.05-0.05V39.2c0.27-0.13,0.53-0.17,0.8-0.1
			c0.27,0,0.45,0.05,0.55,0.15h0.05C5.82,39.32,5.9,39.37,6,39.4C6,39.47,6.07,39.52,6.2,39.55z M17,39.9
			c0.03,0.03,0.05,0.1,0.05,0.2c0.1,0.13,0.12,0.27,0.05,0.4c-0.07,0.33-0.4,0.5-1,0.5c-0.07,0-0.15-0.02-0.25-0.05
			c-0.13,0-0.28-0.05-0.45-0.15c-0.03,0-0.05-0.02-0.05-0.05L15.3,40.7c-0.07,0-0.1-0.02-0.1-0.05c-0.03-0.17-0.05-0.33-0.05-0.5
			c0-0.07,0.02-0.17,0.05-0.3l0.1-0.1h0.05c0.03-0.07,0.05-0.12,0.05-0.15c0.2-0.07,0.43-0.08,0.7-0.05
			C16.57,39.55,16.87,39.67,17,39.9z M10.6,39.55c0.13-0.03,0.28-0.07,0.45-0.1c0.47-0.03,0.87,0.05,1.2,0.25
			c0.17,0.13,0.2,0.27,0.1,0.4c-0.07,0.4-0.43,0.6-1.1,0.6c-0.13,0-0.28-0.05-0.45-0.15c-0.1,0-0.2-0.03-0.3-0.1
			c-0.07,0-0.1-0.02-0.1-0.05v-0.05c-0.03,0-0.05-0.02-0.05-0.05c-0.03-0.07-0.05-0.13-0.05-0.2c0-0.1,0-0.17,0-0.2
			c0-0.03,0.02-0.08,0.05-0.15l0.05-0.05v-0.05c0-0.03,0.03-0.05,0.1-0.05C10.5,39.57,10.53,39.55,10.6,39.55z M17.2,44.75
			c-0.07-0.03-0.13-0.07-0.2-0.1c-0.2-0.13-0.23-0.32-0.1-0.55c0-0.03,0.03-0.08,0.1-0.15c0-0.03,0.02-0.05,0.05-0.05l0.05-0.05
			c0.2-0.1,0.42-0.15,0.65-0.15c0.3,0,0.57,0.07,0.8,0.2c0.07,0.13,0.13,0.25,0.2,0.35c-0.07,0-0.1,0.02-0.1,0.05
			c-0.03,0.33-0.33,0.53-0.9,0.6C17.58,44.9,17.4,44.85,17.2,44.75z M30.8,31.85c0.43,0.4,0.12,0.65-0.95,0.75
			c-0.4,0-0.77-0.1-1.1-0.3c-0.2-0.13-0.23-0.28-0.1-0.45C29.38,31.48,30.1,31.48,30.8,31.85z M22.55,31.85c0,0.03,0,0.07,0,0.1
			c-0.07,0.33-0.37,0.53-0.9,0.6c-0.3,0-0.55-0.08-0.75-0.25c-0.2-0.13-0.25-0.28-0.15-0.45C21.08,31.45,21.68,31.45,22.55,31.85z
			 M25.75,38.65v-0.1l0.15-0.05c0.17-0.1,0.37-0.15,0.6-0.15c0.33,0,0.57,0.07,0.7,0.2c0.1,0.13,0.15,0.25,0.15,0.35
			c0,0.03,0,0.07,0,0.1c-0.03,0.33-0.32,0.52-0.85,0.55c-0.2,0-0.35-0.03-0.45-0.1c-0.1-0.03-0.2-0.08-0.3-0.15
			c-0.23-0.13-0.32-0.32-0.25-0.55C25.53,38.72,25.62,38.69,25.75,38.65z M21.9,40.8c0-0.03,0.02-0.07,0.05-0.1
			c0.3-0.1,0.58-0.15,0.85-0.15c0.57,0,1.07,0.12,1.5,0.35c0.17,0.13,0.23,0.28,0.2,0.45l-0.05,0.15c0,0.13-0.07,0.28-0.2,0.45
			c-0.17,0.1-0.37,0.17-0.6,0.2c-0.17,0.1-0.37,0.17-0.6,0.2c-0.3,0-0.65-0.02-1.05-0.05c-0.07,0-0.15,0-0.25,0
			c-0.23,0-0.45-0.07-0.65-0.2c-0.2-0.13-0.3-0.28-0.3-0.45c0-0.03,0-0.08,0-0.15h0.1c0-0.03,0.02-0.07,0.05-0.1L21,41.35
			c0-0.03,0.03-0.05,0.1-0.05l0.05-0.05c0.17-0.1,0.35-0.15,0.55-0.15c-0.03-0.03-0.03-0.08,0-0.15c0-0.03,0.02-0.05,0.05-0.05
			l0.05-0.05C21.8,40.82,21.83,40.8,21.9,40.8z M25.5,43.85c0.27-0.23,0.58-0.35,0.95-0.35c1.23-0.03,1.55,0.27,0.95,0.9
			c-0.07,0.03-0.17,0.07-0.3,0.1c-0.2,0.1-0.4,0.15-0.6,0.15c-0.13-0.03-0.27-0.07-0.4-0.1c-0.1-0.03-0.22-0.07-0.35-0.1v-0.1
			c-0.13,0-0.2-0.02-0.2-0.05c-0.03,0-0.05-0.02-0.05-0.05C25.47,44.12,25.47,43.98,25.5,43.85z M39.5,40.1
			c0.1,0.03,0.17,0.07,0.2,0.1c0.07,0.07,0.12,0.12,0.15,0.15c0.07,0.07,0.07,0.13,0,0.2c-0.03,0.4-0.4,0.6-1.1,0.6
			c-0.27,0-0.52-0.08-0.75-0.25c-0.13-0.17-0.17-0.35-0.1-0.55L38,40.3l0.15-0.1c0-0.03,0-0.07,0-0.1c0.2-0.1,0.4-0.15,0.6-0.15
			C39.08,39.95,39.33,40,39.5,40.1z M32.9,36.4c0.13,0.13,0.18,0.25,0.15,0.35c-0.03,0.37-0.33,0.57-0.9,0.6
			c-0.1,0-0.22-0.02-0.35-0.05c-0.17-0.03-0.3-0.1-0.4-0.2c-0.23-0.13-0.3-0.32-0.2-0.55c0.07-0.03,0.13-0.05,0.2-0.05
			c0-0.07,0.03-0.1,0.1-0.1c0-0.03,0.02-0.07,0.05-0.1c0.2-0.07,0.4-0.1,0.6-0.1C32.48,36.2,32.73,36.27,32.9,36.4z M34.05,40.9
			c0,0.06-0.02,0.13-0.05,0.2h-0.05v0.05c-0.2,0.2-0.52,0.3-0.95,0.3c-0.1,0-0.18-0.02-0.25-0.05c-0.2-0.03-0.4-0.13-0.6-0.3
			c-0.03,0-0.05-0.03-0.05-0.1c-0.07-0.1-0.07-0.22,0-0.35c0-0.07,0.02-0.1,0.05-0.1l0.05-0.05c0.07-0.07,0.13-0.12,0.2-0.15
			c0.17-0.07,0.37-0.1,0.6-0.1c0.4,0,0.72,0.07,0.95,0.2c0.1,0.17,0.13,0.3,0.1,0.4V40.9z M42.85,33.2c-0.17-0.03-0.32-0.1-0.45-0.2
			c-0.13-0.17-0.17-0.33-0.1-0.5c0-0.03,0.03-0.07,0.1-0.1l0.15-0.05c0-0.03,0.02-0.07,0.05-0.1c0.23-0.1,0.45-0.15,0.65-0.15
			c0.37,0,0.67,0.08,0.9,0.25c0.13,0.13,0.18,0.25,0.15,0.35c-0.07,0.4-0.42,0.6-1.05,0.6C43.15,33.3,43.02,33.27,42.85,33.2z
			 M47.45,35.7h0.05c0.07,0,0.17,0,0.3,0c0.23,0,0.47,0,0.7,0c0.07,0.07,0.15,0.13,0.25,0.2c0.1,0.13,0.13,0.25,0.1,0.35
			c-0.03,0.43-0.38,0.65-1.05,0.65c-0.3,0-0.57-0.12-0.8-0.35c-0.07,0-0.15,0.02-0.25,0.05c-0.07-0.03-0.12-0.05-0.15-0.05
			c0,0.03,0,0.08,0,0.15c0,0.13-0.1,0.22-0.3,0.25c-0.8,0.33-1.73,0.55-2.8,0.65c-0.03,0-0.07-0.02-0.1-0.05
			c-0.27,0-0.47-0.05-0.6-0.15c-0.27-0.17-0.33-0.37-0.2-0.6c0.1-0.03,0.17-0.07,0.2-0.1h0.05c0-0.07,0.03-0.12,0.1-0.15
			c0.3-0.03,0.57-0.12,0.8-0.25c0.2-0.07,0.42-0.12,0.65-0.15c0.57-0.1,1.03-0.1,1.4,0c-0.07-0.17-0.07-0.33,0-0.5
			c0.07-0.07,0.12-0.12,0.15-0.15H46c0-0.07,0.03-0.1,0.1-0.1c0.37-0.17,0.68-0.17,0.95,0C47.22,35.5,47.35,35.6,47.45,35.7z
			 M41.55,36.05c0.1,0.13,0.13,0.28,0.1,0.45c-0.03,0.3-0.35,0.48-0.95,0.55c-0.23,0-0.47-0.1-0.7-0.3
			c-0.23-0.13-0.28-0.32-0.15-0.55c0.07-0.03,0.12-0.07,0.15-0.1c0-0.03,0.02-0.05,0.05-0.05c0-0.03,0.02-0.05,0.05-0.05
			c0.2-0.1,0.4-0.15,0.6-0.15C41.1,35.85,41.38,35.92,41.55,36.05z M46.65,40.1c-0.03-0.1-0.03-0.18,0-0.25
			c0.07-0.07,0.13-0.1,0.2-0.1c0-0.03,0.02-0.05,0.05-0.05c0-0.03,0.02-0.07,0.05-0.1c0.13-0.03,0.27-0.05,0.4-0.05
			c0.27-0.07,0.52-0.07,0.75,0c0.53,0.27,0.8,0.52,0.8,0.75c0,0.27-0.32,0.5-0.95,0.7c-0.03,0-0.1-0.02-0.2-0.05
			c-0.07,0-0.13-0.02-0.2-0.05c-0.07,0-0.15-0.03-0.25-0.1c-0.1-0.07-0.2-0.15-0.3-0.25c-0.07-0.07-0.12-0.13-0.15-0.2
			C46.72,40.25,46.65,40.17,46.65,40.1z M44.9,38c0.37-0.17,0.73-0.13,1.1,0.1c0.97,0.57,0.95,1-0.05,1.3
			c0.13,0.13,0.22,0.25,0.25,0.35c0.1,0.27-0.18,0.48-0.85,0.65c-0.07-0.03-0.15-0.05-0.25-0.05H45c-0.23-0.03-0.42-0.12-0.55-0.25
			c-0.03-0.03-0.05-0.08-0.05-0.15c-0.03-0.17-0.03-0.33,0-0.5c0.03-0.07,0.12-0.12,0.25-0.15v-0.05l0.05-0.05l0.1-0.05
			c-0.07-0.07-0.12-0.12-0.15-0.15c-0.17-0.23-0.17-0.47,0-0.7c0-0.1,0.02-0.15,0.05-0.15c0-0.03,0.03-0.05,0.1-0.05
			C44.8,38.07,44.83,38.03,44.9,38z M57.4,39.95c-0.03-0.17-0.03-0.33,0-0.5c0.07-0.07,0.13-0.12,0.2-0.15
			c0-0.03,0.03-0.05,0.1-0.05l0.05-0.05c0.37-0.13,0.68-0.12,0.95,0.05c0.8,0.43,0.8,0.78,0,1.05c-0.1,0.03-0.22,0.07-0.35,0.1
			c-0.03-0.03-0.08-0.05-0.15-0.05c-0.07,0-0.12,0-0.15,0c-0.07,0-0.12-0.02-0.15-0.05C57.63,40.23,57.47,40.12,57.4,39.95z
			 M58.7,41.95c0.1,0.1,0.18,0.17,0.25,0.2c0.13,0.13,0.2,0.27,0.2,0.4c-0.07,0.17-0.17,0.3-0.3,0.4c-0.17,0.1-0.37,0.17-0.6,0.2
			c-0.2,0-0.4-0.07-0.6-0.2c-0.1-0.03-0.18-0.07-0.25-0.1c-0.1-0.07-0.15-0.17-0.15-0.3c0-0.07,0.02-0.15,0.05-0.25
			c0.03-0.03,0.07-0.08,0.1-0.15h0.1c0-0.03,0.03-0.05,0.1-0.05c0.2-0.1,0.42-0.15,0.65-0.15C58.42,41.95,58.57,41.95,58.7,41.95z
			 M51.25,36.55c0.13-0.03,0.33-0.03,0.6,0c0.3,0,0.53,0.05,0.7,0.15l0.05,0.05c0.17,0.13,0.22,0.28,0.15,0.45
			c-0.17,0.43-0.65,0.62-1.45,0.55c-0.5-0.03-0.8-0.22-0.9-0.55c-0.03-0.07-0.03-0.17,0-0.3l0.15-0.15h0.1
			c0-0.03,0.02-0.05,0.05-0.05C50.87,36.6,51.05,36.55,51.25,36.55z M53.7,42.95h-0.05c-0.07-0.1-0.07-0.22,0-0.35
			c0-0.03,0.03-0.07,0.1-0.1l0.1-0.05c0-0.07,0.03-0.1,0.1-0.1L54,42.3c0.33-0.1,0.68-0.17,1.05-0.2c0.47-0.03,0.85,0.03,1.15,0.2
			c0.2,0.2,0.23,0.38,0.1,0.55c-0.03,0.03-0.07,0.07-0.1,0.1c-0.3,0.3-0.83,0.43-1.6,0.4C54.17,43.35,53.87,43.22,53.7,42.95z
			 M59.25,49.45c0.07,0.17,0.07,0.32,0,0.45c0,0.03-0.03,0.05-0.1,0.05h-0.1V50c0,0.03-0.02,0.05-0.05,0.05
			c-0.1,0.07-0.22,0.1-0.35,0.1c-0.13,0.03-0.25,0.08-0.35,0.15c-0.23,0-0.43-0.05-0.6-0.15c-0.17-0.07-0.28-0.12-0.35-0.15
			c-0.57-0.6-0.23-0.88,1-0.85C58.72,49.15,59.02,49.25,59.25,49.45z M67.55,50.4c-0.2,0.07-0.37,0.1-0.5,0.1
			c-0.6-0.03-0.92-0.22-0.95-0.55c0-0.03-0.03-0.07-0.1-0.1c0.07-0.07,0.13-0.17,0.2-0.3c0.23-0.13,0.52-0.2,0.85-0.2
			c0.23,0,0.43,0.03,0.6,0.1c0.03,0.03,0.05,0.07,0.05,0.1c0.07,0,0.1,0.02,0.1,0.05c0.03,0.03,0.07,0.08,0.1,0.15
			c0.1,0.2,0.07,0.38-0.1,0.55C67.7,50.33,67.62,50.37,67.55,50.4z"/>
		<path fill-rule="evenodd" clip-rule="evenodd" fill="#84868B" d="M62.75,33.35c0,0.13,0.08,0.23,0.25,0.3
			c0.07,0.07,0.18,0.1,0.35,0.1c-0.23,0.13-0.47,0.27-0.7,0.4c-0.23,0-0.47-0.08-0.7-0.25c-0.3-0.23-0.28-0.37,0.05-0.4
			C62.3,33.4,62.55,33.35,62.75,33.35z M60.85,32.2c0,0.13-0.27,0.37-0.8,0.7c-0.3,0-0.57-0.1-0.8-0.3c-0.27-0.2-0.25-0.33,0.05-0.4
			C60.33,32,60.85,32,60.85,32.2z M69.65,33.4c-0.2-0.2-0.13-0.3,0.2-0.3c1.93-0.27,2.12-0.03,0.55,0.7
			C70.03,33.8,69.78,33.67,69.65,33.4z M69.25,33c0.1,0.13,0.15,0.25,0.15,0.35c-0.03,0.37-0.35,0.57-0.95,0.6
			c-0.27,0-0.5-0.07-0.7-0.2c-0.23-0.13-0.28-0.33-0.15-0.6c0.07-0.03,0.12-0.05,0.15-0.05c0-0.07,0.02-0.1,0.05-0.1
			c0-0.03,0.02-0.05,0.05-0.05c0.2-0.1,0.4-0.15,0.6-0.15C68.82,32.8,69.08,32.87,69.25,33z M76.3,37.75
			c1.37-0.23,1.45,0.02,0.25,0.75c-0.23,0-0.43-0.05-0.6-0.15c-0.07,0.1-0.25,0.17-0.55,0.2c-0.27,0-0.5-0.08-0.7-0.25
			c-0.27-0.13-0.32-0.32-0.15-0.55c0.07-0.03,0.12-0.08,0.15-0.15v-0.05c0-0.03,0.02-0.05,0.05-0.05c0.23-0.1,0.45-0.15,0.65-0.15
			c0.33,0,0.58,0.07,0.75,0.2C76.18,37.65,76.23,37.72,76.3,37.75z M73.7,41.6c-0.27-0.2-0.25-0.35,0.05-0.45
			c1.83-0.3,2.05-0.05,0.65,0.75C74.13,41.9,73.9,41.8,73.7,41.6z M9.6,33.2c1.77-0.33,2-0.1,0.7,0.7c-0.3,0-0.57-0.08-0.8-0.25
			C9.27,33.42,9.3,33.27,9.6,33.2z M18.95,36.75c-0.27-0.17-0.25-0.3,0.05-0.4c1.8-0.33,2.03-0.1,0.7,0.7
			C19.4,37.05,19.15,36.95,18.95,36.75z M17.05,36c-0.23,0-0.48-0.08-0.75-0.25c-0.3-0.23-0.28-0.37,0.05-0.4
			C18.18,34.98,18.42,35.2,17.05,36z M10.15,36.8c-0.03-0.37,0.15-0.53,0.55-0.5c2.2,0.2,2.38,0.58,0.55,1.15
			C10.62,37.42,10.25,37.2,10.15,36.8z M31.9,34.8c-0.2-0.17-0.15-0.27,0.15-0.3c1.57-0.33,1.9-0.18,1,0.45
			c-0.2-0.13-0.45-0.2-0.75-0.2C32.13,34.75,32,34.77,31.9,34.8z M35,33.35c-0.1-0.23-0.02-0.37,0.25-0.4
			c1.87-0.27,2.08,0.02,0.65,0.85C35.47,33.77,35.17,33.62,35,33.35z M25.05,31.85c-0.1,0.03-0.22,0.1-0.35,0.2
			c-0.27,0-0.52-0.07-0.75-0.2C24.35,31.38,24.72,31.38,25.05,31.85z M22.35,33.8c-0.3,0-0.57-0.08-0.8-0.25
			c-0.27-0.23-0.23-0.37,0.1-0.4C23.42,32.78,23.65,33,22.35,33.8z M24.75,36.7c-0.3-0.23-0.28-0.38,0.05-0.45
			c1.77-0.33,2-0.1,0.7,0.7C25.23,36.95,24.98,36.87,24.75,36.7z M28.55,34.55c-0.27,0-0.52-0.07-0.75-0.2
			c-0.3-0.27-0.27-0.42,0.1-0.45C29.7,33.53,29.92,33.75,28.55,34.55z M35.55,38.35c1.03-0.17,1.5-0.17,1.4,0v0.1
			c-0.07,0-0.1,0.02-0.1,0.05l-0.05,0.05c-0.03,0.07-0.05,0.12-0.05,0.15c-0.17,0.1-0.35,0.22-0.55,0.35c-0.27,0-0.5-0.1-0.7-0.3
			C35.17,38.58,35.18,38.45,35.55,38.35z M31.8,38.45c-0.03-0.07-0.1-0.1-0.2-0.1c-0.03,0-0.05-0.02-0.05-0.05
			c-0.03,0-0.05-0.03-0.05-0.1c-0.07,0-0.1-0.02-0.1-0.05c-0.13-0.27-0.02-0.5,0.35-0.7l0.05-0.05c0,0.1,0.07,0.22,0.2,0.35
			c0.2,0.13,0.43,0.2,0.7,0.2c0.23,0,0.45-0.05,0.65-0.15c0.1,0.13,0.02,0.27-0.25,0.4c-0.07,0-0.15,0-0.25,0
			c-0.37-0.03-0.7,0.02-1,0.15C31.82,38.35,31.8,38.39,31.8,38.45z M51.25,35.65c-0.1-0.1-0.05-0.18,0.15-0.25
			c1.3-0.23,1.8-0.18,1.5,0.15c-0.17-0.03-0.33-0.05-0.5-0.05c-0.07,0-0.13,0-0.2,0c-0.17,0-0.28,0-0.35,0
			C51.58,35.5,51.38,35.55,51.25,35.65z M46,33.95c-0.23,0-0.45-0.07-0.65-0.2c-0.3-0.27-0.28-0.42,0.05-0.45
			C47.2,32.97,47.4,33.19,46,33.95z M48.5,35.7c-0.23,0-0.47,0-0.7,0c-0.13,0-0.23,0-0.3,0h-0.05C48.15,35.57,48.5,35.57,48.5,35.7z
			 M59.55,35.7c-0.27-0.23-0.25-0.37,0.05-0.4c1.8-0.37,2.03-0.15,0.7,0.65C60.03,35.95,59.78,35.87,59.55,35.7z"/>
		<path fill-rule="evenodd" clip-rule="evenodd" fill="#818588" d="M62.75,33.35c0-0.1,0.02-0.18,0.05-0.25
			c0.1-0.07,0.17-0.12,0.2-0.15h0.05c0-0.03,0.02-0.05,0.05-0.05c0.2-0.13,0.42-0.2,0.65-0.2c0.33,0,0.6,0.08,0.8,0.25
			c0.1,0.13,0.12,0.25,0.05,0.35c0,0.33-0.28,0.53-0.85,0.6c-0.13,0-0.27-0.05-0.4-0.15c-0.17,0-0.28-0.03-0.35-0.1
			C62.83,33.58,62.75,33.48,62.75,33.35z M52.4,32.2c0.33,0,0.58,0.07,0.75,0.2c0.13,0.13,0.18,0.27,0.15,0.4
			c-0.03,0.33-0.33,0.52-0.9,0.55c-0.3,0-0.55-0.07-0.75-0.2c-0.23-0.13-0.3-0.32-0.2-0.55c0.1-0.07,0.17-0.12,0.2-0.15
			c0-0.03,0.02-0.05,0.05-0.05l0.05-0.05C51.98,32.25,52.2,32.2,52.4,32.2z M51.25,35.65c0.13-0.1,0.33-0.15,0.6-0.15
			c0.07,0,0.18,0,0.35,0c0.07,0,0.13,0,0.2,0c0.17,0,0.33,0.02,0.5,0.05c0.07,0.07,0.15,0.12,0.25,0.15c0.13,0.17,0.18,0.3,0.15,0.4
			c-0.03,0.3-0.28,0.5-0.75,0.6c-0.17-0.1-0.4-0.15-0.7-0.15c-0.27-0.03-0.47-0.03-0.6,0c-0.1-0.03-0.18-0.08-0.25-0.15
			c-0.17-0.17-0.18-0.33-0.05-0.5c0-0.03,0.02-0.07,0.05-0.1l0.1-0.05C51.13,35.72,51.18,35.69,51.25,35.65z M56.5,40.4
			c0-0.03,0.03-0.05,0.1-0.05l0.05-0.05c0.3-0.13,0.62-0.13,0.95,0h0.1c0.97,0.43,0.85,0.82-0.35,1.15c-0.27,0-0.52-0.1-0.75-0.3
			c-0.3-0.17-0.37-0.37-0.2-0.6C56.4,40.48,56.43,40.44,56.5,40.4z M56.75,32.8c0-0.03,0.02-0.05,0.05-0.05
			c0-0.03,0.05-0.07,0.15-0.1c0.13-0.07,0.32-0.1,0.55-0.1c0.37,0,0.63,0.07,0.8,0.2c0.13,0.13,0.17,0.27,0.1,0.4
			c-0.03,0.33-0.33,0.53-0.9,0.6c-0.27,0-0.52-0.08-0.75-0.25c-0.23-0.13-0.27-0.32-0.1-0.55C56.68,32.92,56.72,32.87,56.75,32.8z
			 M42.85,33.2c-0.23,0.23-0.62,0.33-1.15,0.3c-0.43,0-0.72-0.13-0.85-0.4c-0.1-0.13-0.1-0.28,0-0.45c0-0.03,0.02-0.05,0.05-0.05
			l0.1-0.05c0-0.03,0.02-0.05,0.05-0.05c0-0.03,0.03-0.07,0.1-0.1c0.3-0.1,0.62-0.13,0.95-0.1c0.13,0,0.28,0.02,0.45,0.05L42.4,32.4
			c-0.07,0.03-0.1,0.07-0.1,0.1c-0.07,0.17-0.03,0.33,0.1,0.5C42.53,33.1,42.68,33.17,42.85,33.2z M55.35,37.5h0.1
			c0-0.03,0.02-0.07,0.05-0.1c0.33-0.13,0.63-0.13,0.9,0c0.97,0.5,0.88,0.88-0.25,1.15c-0.1,0-0.23-0.02-0.4-0.05
			c-0.13-0.03-0.23-0.08-0.3-0.15c-0.07,0-0.1-0.02-0.1-0.05v-0.1c-0.1,0-0.15-0.02-0.15-0.05c-0.03-0.03-0.05-0.07-0.05-0.1
			c0-0.07,0-0.15,0-0.25c0-0.03,0.02-0.07,0.05-0.1C55.3,37.6,55.35,37.53,55.35,37.5z M53.65,38.5c0.33-0.1,0.62-0.1,0.85,0
			c1.1,0.47,0.97,0.88-0.4,1.25c-0.07-0.03-0.15-0.05-0.25-0.05c-0.07,0-0.13,0-0.2,0C52.88,39.3,52.88,38.9,53.65,38.5z"/>
		<path fill-rule="evenodd" clip-rule="evenodd" fill="#54555C" d="M65.55,38.85c0.13,0.13,0.17,0.28,0.1,0.45
			c-0.17,0.4-0.62,0.58-1.35,0.55c-0.43,0-0.73-0.15-0.9-0.45c-0.03-0.1-0.03-0.23,0-0.4l0.15-0.05l0.05-0.05
			c0-0.03,0.02-0.05,0.05-0.05c0-0.07,0.02-0.1,0.05-0.1c0.33-0.13,0.67-0.17,1-0.1C65.07,38.65,65.35,38.72,65.55,38.85z
			 M67.5,39.95c-0.23,0-0.48-0.07-0.75-0.2c-0.23-0.13-0.3-0.32-0.2-0.55c0.1-0.07,0.17-0.12,0.2-0.15c0-0.03,0.02-0.05,0.05-0.05
			l0.05-0.05c0.23-0.13,0.45-0.2,0.65-0.2c0.33,0,0.6,0.08,0.8,0.25c0.1,0.17,0.13,0.3,0.1,0.4C68.37,39.73,68.07,39.92,67.5,39.95z
			 M67.15,41.65c0-0.03,0.02-0.07,0.05-0.1c0.17-0.07,0.37-0.1,0.6-0.1c0.27,0,0.48,0.03,0.65,0.1c0,0.03,0.03,0.07,0.1,0.1
			c0.1,0.17,0.13,0.3,0.1,0.4c-0.03,0.33-0.32,0.53-0.85,0.6c-0.27,0-0.5-0.1-0.7-0.3c-0.23-0.13-0.32-0.28-0.25-0.45v-0.1
			c0.03-0.07,0.12-0.1,0.25-0.1C67.1,41.67,67.12,41.65,67.15,41.65z M11.3,41.35c0-0.03,0.03-0.05,0.1-0.05l0.05-0.05
			c0.17-0.1,0.37-0.15,0.6-0.15c0.33,0,0.62,0.07,0.85,0.2c0.13,0.13,0.15,0.27,0.05,0.4c0,0.3-0.3,0.5-0.9,0.6
			c-0.27,0-0.52-0.08-0.75-0.25c-0.2-0.17-0.23-0.35-0.1-0.55C11.23,41.44,11.27,41.39,11.3,41.35z M25.5,43.85
			c-0.03,0.13-0.03,0.27,0,0.4c0,0.03,0.02,0.05,0.05,0.05c0,0.03,0.07,0.05,0.2,0.05c-0.17,0.23-0.48,0.38-0.95,0.45
			c-0.23,0-0.47-0.08-0.7-0.25c-0.3-0.13-0.37-0.3-0.2-0.5c0.07-0.1,0.13-0.15,0.2-0.15c0-0.03,0.03-0.05,0.1-0.05
			c0-0.03,0.02-0.07,0.05-0.1c0.17-0.1,0.35-0.15,0.55-0.15C25.13,43.6,25.37,43.69,25.5,43.85z M49.5,42.95c0-0.03,0-0.07,0-0.1
			c0.1-0.07,0.17-0.12,0.2-0.15c0-0.03,0.02-0.05,0.05-0.05l0.05-0.05c0.2-0.1,0.43-0.15,0.7-0.15c0.3,0,0.55,0.07,0.75,0.2
			c0.07,0.13,0.1,0.23,0.1,0.3c0,0.03,0,0.07,0,0.1c-0.03,0.33-0.32,0.52-0.85,0.55c-0.33,0-0.6-0.08-0.8-0.25
			C49.53,43.25,49.47,43.12,49.5,42.95z M42.6,46.7c0.1-0.03,0.17-0.08,0.2-0.15h0.05c0-0.03,0.03-0.07,0.1-0.1
			c0.17-0.07,0.35-0.1,0.55-0.1c0.33,0,0.6,0.07,0.8,0.2c0.1,0.13,0.13,0.25,0.1,0.35c-0.03,0.37-0.33,0.57-0.9,0.6
			c-0.23,0-0.47-0.07-0.7-0.2C42.53,47.14,42.47,46.94,42.6,46.7z M58.7,41.95c-0.13,0-0.28,0-0.45,0c-0.23,0-0.45,0.05-0.65,0.15
			c-0.07,0-0.1,0.02-0.1,0.05h-0.1c-0.03,0.07-0.07,0.12-0.1,0.15c-0.03,0.1-0.05,0.18-0.05,0.25c-0.13-0.03-0.28-0.12-0.45-0.25
			c-0.1-0.13-0.12-0.3-0.05-0.5c0-0.03,0.02-0.07,0.05-0.1h0.15c0.03-0.07,0.07-0.12,0.1-0.15c0.17-0.07,0.38-0.1,0.65-0.1
			c0.37,0,0.65,0.07,0.85,0.2C58.72,41.82,58.77,41.92,58.7,41.95z M59.05,49.95h0.1c0.07,0,0.1-0.02,0.1-0.05
			c0.07-0.13,0.07-0.28,0-0.45c0.17-0.13,0.4-0.2,0.7-0.2c0.23,0,0.43,0.05,0.6,0.15c0.03,0,0.05,0.02,0.05,0.05
			c0.07,0,0.1,0.02,0.1,0.05c0.03,0.03,0.08,0.08,0.15,0.15c0.17,0.2,0.12,0.37-0.15,0.5c-0.27,0.2-0.52,0.3-0.75,0.3
			C59.52,50.39,59.22,50.22,59.05,49.95z M41.9,52.2H42c0,0.03,0.07,0.08,0.2,0.15c0.1,0.23,0.03,0.42-0.2,0.55
			c-0.27,0.17-0.52,0.25-0.75,0.25c-0.57-0.07-0.87-0.27-0.9-0.6c0-0.1,0.03-0.22,0.1-0.35c0.2-0.17,0.47-0.25,0.8-0.25
			c0.23,0,0.43,0.05,0.6,0.15C41.88,52.14,41.9,52.17,41.9,52.2z M35.1,49c-0.23,0.17-0.5,0.25-0.8,0.25
			c-0.57-0.07-0.87-0.25-0.9-0.55c0-0.03,0-0.07,0-0.1c0.63-0.9,1.27-0.9,1.9,0C35.33,48.73,35.27,48.87,35.1,49z"/>
		<path fill-rule="evenodd" clip-rule="evenodd" fill="#818387" d="M61,36.7h0.05c0.03,0.03,0.1,0.05,0.2,0.05
			c0.2,0.1,0.35,0.15,0.45,0.15c0.4-0.1,0.65-0.22,0.75-0.35c0.17,0.03,0.28,0.1,0.35,0.2c0.17,0.13,0.23,0.28,0.2,0.45
			c-0.2,0.4-0.63,0.58-1.3,0.55c-0.47,0-0.77-0.15-0.9-0.45c-0.13-0.13-0.13-0.27,0-0.4v-0.1l0.05-0.05H61V36.7z M61.95,39.85
			c0.1,0.17,0.13,0.3,0.1,0.4c0,0.03,0,0.07,0,0.1c-0.07,0.27-0.38,0.43-0.95,0.5c-0.23,0-0.47-0.1-0.7-0.3
			c-0.17-0.07-0.25-0.13-0.25-0.2c0-0.1,0.03-0.2,0.1-0.3c0.03-0.07,0.08-0.12,0.15-0.15c0-0.03,0.02-0.05,0.05-0.05l0.05-0.1
			c0.2-0.07,0.4-0.1,0.6-0.1C61.47,39.65,61.75,39.72,61.95,39.85z M79.5,38.75c0.17-0.07,0.38-0.1,0.65-0.1
			c0.33,0,0.6,0.07,0.8,0.2c0.1,0.13,0.12,0.27,0.05,0.4c0,0.33-0.28,0.53-0.85,0.6c-0.3,0-0.57-0.1-0.8-0.3
			c-0.2-0.13-0.25-0.32-0.15-0.55c0.07-0.03,0.12-0.07,0.15-0.1c0-0.03,0.03-0.05,0.1-0.05C79.45,38.78,79.47,38.75,79.5,38.75z
			 M71.85,38.55c0.2-0.03,0.42-0.05,0.65-0.05c0.33,0,0.6,0.07,0.8,0.2c0.1,0.13,0.15,0.25,0.15,0.35c-0.07,0.33-0.38,0.53-0.95,0.6
			c-0.27,0-0.52-0.08-0.75-0.25c-0.23-0.13-0.28-0.32-0.15-0.55c0.03-0.07,0.08-0.12,0.15-0.15h0.05
			C71.8,38.67,71.82,38.62,71.85,38.55z M70.55,36.8c0-0.03,0.02-0.05,0.05-0.05c0.4-0.13,0.78-0.13,1.15,0
			c1.03,0.43,0.97,0.82-0.2,1.15c-0.27-0.03-0.57-0.1-0.9-0.2c-0.33-0.2-0.45-0.45-0.35-0.75c0.07-0.03,0.12-0.05,0.15-0.05
			C70.45,36.83,70.48,36.8,70.55,36.8z"/>
		<path fill-rule="evenodd" clip-rule="evenodd" fill="#5A5D63" d="M65.8,46.15c0.07-0.07,0.1-0.13,0.1-0.2H66
			c0-0.03,0.02-0.07,0.05-0.1c0.2-0.07,0.42-0.1,0.65-0.1c0.33,0,0.58,0.07,0.75,0.2c0.17,0.13,0.22,0.27,0.15,0.4
			c-0.07,0.33-0.37,0.52-0.9,0.55c-0.3,0-0.57-0.07-0.8-0.2C65.7,46.53,65.67,46.35,65.8,46.15z M68.7,42.95h-0.05
			c-0.2-0.13-0.23-0.33-0.1-0.6c0.03-0.03,0.07-0.05,0.1-0.05c0-0.03,0.02-0.05,0.05-0.05c0-0.07,0.02-0.1,0.05-0.1
			c0.23-0.07,0.45-0.1,0.65-0.1c0.33,0,0.6,0.07,0.8,0.2c0.13,0.13,0.17,0.27,0.1,0.4c0,0.13-0.05,0.23-0.15,0.3
			c-0.17,0.13-0.42,0.22-0.75,0.25C69.17,43.2,68.93,43.12,68.7,42.95z M63.9,46.25c0.33,0,0.57,0.07,0.7,0.2
			c0.17,0.17,0.25,0.3,0.25,0.4c-0.1,0.33-0.42,0.53-0.95,0.6c-0.23,0-0.5-0.1-0.8-0.3c-0.23-0.13-0.27-0.3-0.1-0.5
			c0.03-0.07,0.07-0.12,0.1-0.15c0-0.03,0.03-0.05,0.1-0.05l0.15-0.1C63.52,46.28,63.7,46.25,63.9,46.25z M64.7,44.45
			c-0.33-0.2-0.43-0.43-0.3-0.7c0.03-0.03,0.08-0.08,0.15-0.15c0-0.03,0.02-0.05,0.05-0.05V43.5c0.4-0.1,0.78-0.1,1.15,0
			c1.1,0.4,1.05,0.78-0.15,1.15C65.33,44.62,65.03,44.55,64.7,44.45z M71.85,45.35h0.1c0-0.03,0.03-0.05,0.1-0.05
			c0.13-0.1,0.35-0.15,0.65-0.15c0.3,0,0.55,0.07,0.75,0.2c0.13,0.13,0.15,0.27,0.05,0.4c0,0.1-0.02,0.2-0.05,0.3
			c0.2,0.07,0.4,0.15,0.6,0.25c0.17,0.13,0.23,0.27,0.2,0.4c-0.1,0.3-0.4,0.5-0.9,0.6c-0.33-0.1-0.7-0.17-1.1-0.2
			c-0.57-0.1-0.78-0.35-0.65-0.75c0.03-0.03,0.08-0.07,0.15-0.1c0-0.03,0.02-0.05,0.05-0.05c0-0.03,0.02-0.05,0.05-0.05h0.1
			l-0.1-0.05c-0.2-0.17-0.23-0.35-0.1-0.55C71.78,45.48,71.82,45.42,71.85,45.35z M74.05,44.1h0.05c0-0.03,0.05-0.05,0.15-0.05
			c0.2-0.1,0.42-0.15,0.65-0.15c0.3,0,0.53,0.07,0.7,0.2c0.17,0.13,0.22,0.25,0.15,0.35c-0.03,0.33-0.32,0.55-0.85,0.65
			c-0.33,0-0.62-0.1-0.85-0.3c-0.2-0.13-0.23-0.32-0.1-0.55C73.98,44.19,74.02,44.14,74.05,44.1z M78.7,43.8
			c0-0.03,0.02-0.05,0.05-0.05c0-0.03,0.02-0.05,0.05-0.05c0.2-0.1,0.42-0.15,0.65-0.15c0.33,0,0.6,0.07,0.8,0.2
			c0.1,0.13,0.13,0.25,0.1,0.35c-0.03,0.37-0.33,0.57-0.9,0.6c-0.27,0-0.52-0.08-0.75-0.25c-0.23-0.13-0.28-0.32-0.15-0.55
			C78.65,43.87,78.7,43.83,78.7,43.8z M6.1,45.75l0.1-0.05c0.27-0.13,0.53-0.13,0.8,0c0.97,0.5,0.9,0.88-0.2,1.15
			c-0.13,0-0.28-0.03-0.45-0.1c-0.07-0.03-0.15-0.07-0.25-0.1c-0.07,0-0.1-0.03-0.1-0.1V46.5c-0.03,0-0.05-0.02-0.05-0.05l-0.1-0.1
			c0-0.1,0-0.18,0-0.25c0-0.1,0.03-0.15,0.1-0.15L6,45.85C6,45.78,6.03,45.75,6.1,45.75z M4.4,43.35c0.13-0.03,0.33-0.17,0.6-0.4
			c0.03-0.07,0.08-0.12,0.15-0.15c0.23-0.27,0.5-0.22,0.8,0.15c0.1,0.13,0.22,0.3,0.35,0.5c-0.07,0.3-0.37,0.47-0.9,0.5
			c-0.27,0-0.52-0.08-0.75-0.25C4.48,43.6,4.4,43.48,4.4,43.35z M7.65,44.1c-0.07,0-0.1-0.02-0.1-0.05c-0.03,0-0.05-0.03-0.05-0.1
			c-0.03,0-0.05-0.02-0.05-0.05c-0.07-0.03-0.1-0.07-0.1-0.1c0-0.07,0-0.15,0-0.25c0-0.03,0.03-0.08,0.1-0.15c0.47,0,1,0,1.6,0
			c0.4,0.37,0.15,0.67-0.75,0.9c-0.13,0-0.27-0.02-0.4-0.05C7.83,44.19,7.75,44.14,7.65,44.1z M9.95,41.3c0.1,0.1,0.13,0.2,0.1,0.3
			c-0.07,0.33-0.37,0.52-0.9,0.55c-0.27,0-0.52-0.07-0.75-0.2c0.23,0,0.45,0.03,0.65,0.1c0.53-0.07,0.83-0.27,0.9-0.6
			C9.95,41.39,9.95,41.33,9.95,41.3z M11.9,38.45c0.17-0.1,0.37-0.15,0.6-0.15c0.3,0,0.55,0.07,0.75,0.2
			c0.13,0.13,0.18,0.27,0.15,0.4c-0.07,0.33-0.37,0.53-0.9,0.6c-0.3,0-0.57-0.08-0.8-0.25c-0.2-0.17-0.23-0.35-0.1-0.55
			c0.03-0.1,0.07-0.15,0.1-0.15c0-0.03,0.02-0.05,0.05-0.05L11.9,38.45z M11.8,46.55c-0.2-0.13-0.23-0.3-0.1-0.5
			c0.03-0.07,0.07-0.12,0.1-0.15c0-0.03,0.03-0.05,0.1-0.05l0.15-0.1c0.17-0.07,0.37-0.1,0.6-0.1c0.3,0,0.53,0.07,0.7,0.2
			c0.13,0.17,0.18,0.3,0.15,0.4c-0.07,0.33-0.35,0.53-0.85,0.6C12.38,46.85,12.1,46.75,11.8,46.55z M17.2,44.75
			c0.2,0.1,0.38,0.15,0.55,0.15c0.57-0.07,0.87-0.27,0.9-0.6c0-0.03,0.03-0.05,0.1-0.05c0.93,0.47,0.77,0.83-0.5,1.1
			c-0.03,0-0.1,0-0.2,0c-0.03,0-0.07,0-0.1,0c-0.3-0.07-0.52-0.2-0.65-0.4C17.23,44.92,17.2,44.85,17.2,44.75z M16.15,45.35
			c0.17,0.13,0.23,0.27,0.2,0.4c-0.07,0.33-0.38,0.53-0.95,0.6c-0.3,0-0.57-0.08-0.8-0.25c-0.2-0.17-0.23-0.35-0.1-0.55
			c0.07-0.07,0.1-0.13,0.1-0.2h0.05c0-0.03,0.03-0.05,0.1-0.05c0.2-0.1,0.42-0.15,0.65-0.15C15.73,45.15,15.98,45.22,16.15,45.35z
			 M27.75,44.65c0.37,0,0.62,0.08,0.75,0.25c0.13,0.13,0.18,0.25,0.15,0.35c-0.07,0.33-0.37,0.53-0.9,0.6c-0.3,0-0.55-0.1-0.75-0.3
			c-0.23-0.13-0.3-0.3-0.2-0.5c0.07-0.07,0.13-0.12,0.2-0.15c0-0.07,0.03-0.12,0.1-0.15C27.27,44.69,27.48,44.65,27.75,44.65z
			 M28.1,47.4c0.17-0.07,0.37-0.1,0.6-0.1c0.13,0,0.27,0,0.4,0c0.13,0.03,0.23,0.1,0.3,0.2h0.15c0.07,0.13,0.08,0.25,0.05,0.35
			c0,0.1-0.02,0.17-0.05,0.2H27.8c-0.1-0.1-0.1-0.23,0-0.4c0.07-0.07,0.12-0.12,0.15-0.15h0.1C28.05,47.47,28.07,47.44,28.1,47.4z
			 M39.2,45.85c0.13,0.17,0.18,0.3,0.15,0.4c-0.07,0.33-0.38,0.53-0.95,0.6c-0.27,0-0.5-0.1-0.7-0.3c-0.27-0.13-0.33-0.3-0.2-0.5
			c0.03-0.07,0.1-0.12,0.2-0.15c0-0.03,0.02-0.05,0.05-0.05l0.05-0.1c0.17-0.07,0.37-0.1,0.6-0.1C38.7,45.65,38.97,45.72,39.2,45.85
			z M29.8,43.4c0.13-0.07,0.32-0.1,0.55-0.1s0.42,0.02,0.55,0.05c0.1,0.03,0.17,0.08,0.2,0.15c0.07,0.13,0.1,0.23,0.1,0.3
			c0,0.03,0,0.07,0,0.1c0,0.33-0.28,0.52-0.85,0.55c-0.27,0-0.52-0.07-0.75-0.2s-0.3-0.32-0.2-0.55c0.1-0.1,0.17-0.15,0.2-0.15
			c0-0.03,0.02-0.05,0.05-0.05C29.65,43.47,29.7,43.44,29.8,43.4z M40.7,44.6c0-0.03,0.05-0.07,0.15-0.1s0.22-0.07,0.35-0.1
			c-0.1,0-0.17-0.03-0.2-0.1c-0.27-0.13-0.32-0.32-0.15-0.55c0.03-0.03,0.08-0.08,0.15-0.15c0-0.03,0.02-0.05,0.05-0.05l0.1-0.05
			l0.05-0.05c0.2-0.07,0.37-0.1,0.5-0.1c0.33,0,0.6,0.07,0.8,0.2c0.17,0.17,0.2,0.3,0.1,0.4c-0.03,0.27-0.2,0.43-0.5,0.5
			c0,0.07,0.03,0.12,0.1,0.15c0.13,0.13,0.17,0.25,0.1,0.35c-0.03,0.37-0.3,0.57-0.8,0.6c-0.3,0-0.57-0.08-0.8-0.25
			c-0.23-0.13-0.28-0.32-0.15-0.55c0.03-0.07,0.08-0.1,0.15-0.1V44.6z M45,47.6c0-0.03,0.03-0.05,0.1-0.05V47.5
			c0.2-0.1,0.4-0.15,0.6-0.15c0.33,0,0.62,0.07,0.85,0.2c0.13,0.13,0.17,0.27,0.1,0.4v0.1H44.8c-0.07-0.1-0.03-0.22,0.1-0.35
			C44.93,47.67,44.97,47.64,45,47.6z M46.95,45.75c0.03-0.03,0.07-0.07,0.1-0.1h0.1c0-0.07,0.02-0.1,0.05-0.1
			c0.2-0.13,0.4-0.2,0.6-0.2c0.33,0,0.6,0.1,0.8,0.3c0.13,0.13,0.18,0.23,0.15,0.3c-0.03,0.37-0.35,0.57-0.95,0.6
			c-0.23,0-0.48-0.07-0.75-0.2C46.85,46.22,46.82,46.02,46.95,45.75z M54.85,46.5c-0.23,0-0.47-0.08-0.7-0.25
			c-0.27-0.13-0.32-0.32-0.15-0.55c0.07-0.03,0.12-0.08,0.15-0.15h0.1c0-0.03,0.02-0.07,0.05-0.1c0.17-0.1,0.35-0.15,0.55-0.15
			c0.13,0,0.21,0,0.25,0c-0.04,0-0.09-0.02-0.15-0.05c-0.23-0.13-0.28-0.33-0.15-0.6c0.03-0.03,0.08-0.07,0.15-0.1
			c0-0.03,0.03-0.05,0.1-0.05c0-0.03,0.02-0.05,0.05-0.05c0.17-0.1,0.38-0.15,0.65-0.15c0.3,0,0.55,0.07,0.75,0.2
			c0.13,0.13,0.18,0.27,0.15,0.4c-0.03,0.3-0.33,0.5-0.9,0.6c-0.07,0-0.13,0-0.2,0l0.1,0.05c0.17,0.13,0.22,0.25,0.15,0.35
			C55.77,46.27,55.45,46.47,54.85,46.5z M57.95,50.65c0.13,0.23,0.07,0.42-0.2,0.55c-0.2,0.2-0.45,0.3-0.75,0.3
			c-0.53-0.1-0.82-0.3-0.85-0.6c-0.03-0.13,0-0.27,0.1-0.4c0.17-0.13,0.42-0.2,0.75-0.2c0.27,0,0.5,0.03,0.7,0.1
			c0.03,0.03,0.05,0.07,0.05,0.1C57.85,50.53,57.92,50.58,57.95,50.65z M55.15,49.85c-0.23,0.17-0.48,0.25-0.75,0.25
			c-0.53-0.07-0.82-0.27-0.85-0.6c0-0.03,0-0.07,0-0.1c0-0.07,0.03-0.15,0.1-0.25c0.03-0.07,0.12-0.12,0.25-0.15
			c0.13-0.07,0.3-0.1,0.5-0.1c0.23,0,0.43,0.05,0.6,0.15c0.07,0.03,0.1,0.07,0.1,0.1h0.05c0.07,0.03,0.13,0.08,0.2,0.15
			C55.45,49.53,55.38,49.72,55.15,49.85z M56.1,52.9c0.2,0,0.4,0.03,0.6,0.1c0,0.03,0,0.07,0,0.1c0.03,0,0.05,0.02,0.05,0.05
			c0.1,0,0.17,0.05,0.2,0.15c0.13,0.13,0.13,0.27,0,0.4c-0.7,0.33-1.27,0.33-1.7,0c-0.07-0.07-0.1-0.13-0.1-0.2
			c-0.03-0.1,0-0.22,0.1-0.35c0.07,0,0.1-0.02,0.1-0.05c0.07-0.1,0.18-0.15,0.35-0.15C55.83,52.92,55.97,52.9,56.1,52.9z
			 M47.1,51.55c0.07,0,0.13,0.05,0.2,0.15c0.13,0.17,0.07,0.33-0.2,0.5c-0.2,0.17-0.43,0.25-0.7,0.25c-0.6-0.03-0.93-0.22-1-0.55
			c-0.03-0.13,0.03-0.27,0.2-0.4c0.23-0.13,0.5-0.2,0.8-0.2c0.2,0,0.4,0.03,0.6,0.1l0.05,0.1C47.08,51.5,47.1,51.52,47.1,51.55z
			 M44.1,50.2v0.1c0.03,0,0.07,0.03,0.1,0.1c0.17,0.2,0.13,0.38-0.1,0.55c-0.23,0.17-0.52,0.25-0.85,0.25
			c-0.5-0.03-0.77-0.23-0.8-0.6c-0.07-0.1-0.02-0.23,0.15-0.4c0.03-0.03,0.07-0.07,0.1-0.1c-0.3-0.1-0.47-0.27-0.5-0.5
			c-0.13-0.13-0.1-0.27,0.1-0.4c0.2-0.13,0.45-0.2,0.75-0.2c0.13,0,0.3,0.03,0.5,0.1l0.05,0.05c0.1,0,0.15,0.02,0.15,0.05
			c0.03,0,0.05,0.02,0.05,0.05c0.03,0.03,0.07,0.08,0.1,0.15c0.17,0.23,0.13,0.42-0.1,0.55C43.77,49.98,43.68,50,43.55,50
			c0.17,0.03,0.28,0.08,0.35,0.15c0.1,0,0.15,0.02,0.15,0.05H44.1z M39.85,53.7c-0.6,0.43-1.23,0.43-1.9,0c0-0.03,0-0.08,0-0.15
			c-0.03-0.1,0.02-0.23,0.15-0.4c0.23-0.13,0.52-0.2,0.85-0.2c0.2,0,0.38,0.05,0.55,0.15l0.1,0.05c0.03,0,0.05,0.03,0.05,0.1
			c0.03,0.03,0.08,0.07,0.15,0.1C39.87,53.45,39.88,53.57,39.85,53.7z M36.2,51.25c0.17-0.17,0.42-0.25,0.75-0.25
			c0.23,0,0.43,0.05,0.6,0.15c0,0.03,0,0.07,0,0.1c0.13,0,0.2,0.02,0.2,0.05c0.03,0.03,0.05,0.07,0.05,0.1
			c0.17,0.23,0.15,0.42-0.05,0.55c-0.27,0.17-0.53,0.25-0.8,0.25c-0.6-0.03-0.92-0.23-0.95-0.6C35.97,51.53,36.03,51.42,36.2,51.25z
			 M29.9,50.95c0.23,0,0.43,0.05,0.6,0.15l0.05,0.05c0.03,0,0.05,0.02,0.05,0.05c0.07,0.03,0.12,0.08,0.15,0.15
			c0.17,0.23,0.12,0.42-0.15,0.55c-0.23,0.17-0.47,0.25-0.7,0.25c-0.57-0.07-0.88-0.27-0.95-0.6c-0.03-0.13,0.02-0.27,0.15-0.4
			h-0.05c-0.6-0.1-0.9-0.32-0.9-0.65c-0.03-0.1,0.02-0.22,0.15-0.35c0.17-0.13,0.42-0.2,0.75-0.2c0.23,0,0.43,0.03,0.6,0.1
			c0.03,0.03,0.05,0.07,0.05,0.1h0.1c0.07,0.03,0.12,0.08,0.15,0.15c0.17,0.23,0.12,0.43-0.15,0.6c-0.06,0.03-0.11,0.05-0.15,0.05
			C29.69,50.95,29.77,50.95,29.9,50.95z M20.4,49.4c0.13,0.27,0.02,0.48-0.35,0.65c-0.33,0.1-0.62,0.18-0.85,0.25
			c-1.2-0.37-1.27-0.75-0.2-1.15c0.37-0.13,0.75-0.13,1.15,0v0.05c0.03,0,0.05,0.02,0.05,0.05C20.27,49.28,20.33,49.33,20.4,49.4z
			 M21.65,52.15c0.03,0.03,0.08,0.07,0.15,0.1c0.13,0.23,0.08,0.42-0.15,0.55c-0.3,0.17-0.57,0.25-0.8,0.25
			c-0.53-0.07-0.83-0.27-0.9-0.6c-0.03-0.1,0.03-0.22,0.2-0.35c0.17-0.13,0.4-0.2,0.7-0.2c0.23,0,0.42,0.02,0.55,0.05
			c0.13,0.07,0.2,0.12,0.2,0.15C21.63,52.1,21.65,52.12,21.65,52.15z M15.6,48.9c-0.3,0.17-0.58,0.25-0.85,0.25
			c-0.5-0.03-0.8-0.22-0.9-0.55c-0.03-0.13,0.03-0.27,0.2-0.4c0.17-0.13,0.4-0.2,0.7-0.2c0.23,0,0.43,0.03,0.6,0.1
			c0.1,0.03,0.15,0.07,0.15,0.1c0.07,0,0.1,0.02,0.1,0.05c0.03,0,0.07,0.03,0.1,0.1C15.83,48.58,15.8,48.77,15.6,48.9z M18.8,51.55
			c0.07,0,0.1,0.02,0.1,0.05c0,0.07,0.02,0.12,0.05,0.15c0.17,0.23,0.15,0.42-0.05,0.55c-0.23,0.17-0.52,0.25-0.85,0.25
			c-0.53-0.07-0.83-0.27-0.9-0.6c-0.03-0.13,0.02-0.27,0.15-0.4c0.2-0.13,0.45-0.2,0.75-0.2c0.23,0,0.45,0.05,0.65,0.15L18.8,51.55z
			 M12.85,51h0.05c0.03,0.07,0.07,0.12,0.1,0.15c0.17,0.23,0.13,0.42-0.1,0.55l-0.05,0.05h0.05c0.03,0,0.05,0.03,0.05,0.1
			c0.03,0,0.05,0.02,0.05,0.05c0.07,0,0.13,0.02,0.2,0.05c0.1,0.43-0.12,0.7-0.65,0.8c-0.43,0.03-0.82,0.08-1.15,0.15
			c-0.5-0.07-0.8-0.27-0.9-0.6c0-0.1,0.07-0.23,0.2-0.4c0.23-0.1,0.45-0.17,0.65-0.2c-0.07-0.1-0.1-0.22-0.1-0.35
			c-0.1-0.1-0.07-0.22,0.1-0.35c0.17-0.17,0.4-0.25,0.7-0.25c0.33,0,0.57,0.07,0.7,0.2C12.82,50.95,12.85,50.97,12.85,51z
			 M10.8,49.9c0.17,0.2,0.13,0.38-0.1,0.55c-0.23,0.17-0.5,0.25-0.8,0.25c-0.53-0.07-0.83-0.27-0.9-0.6
			c-0.03-0.1,0.02-0.22,0.15-0.35c0.17-0.17,0.42-0.25,0.75-0.25c0.2,0,0.4,0.05,0.6,0.15c0.1,0.03,0.15,0.07,0.15,0.1h0.05
			C10.73,49.78,10.77,49.83,10.8,49.9z M6.1,49.4c0,0.03,0.05,0.08,0.15,0.15c0.07,0.23,0.02,0.42-0.15,0.55
			c-0.23,0.17-0.48,0.25-0.75,0.25c-0.6-0.03-0.92-0.23-0.95-0.6c-0.03-0.1,0-0.22,0.1-0.35c0.23-0.17,0.52-0.25,0.85-0.25
			c0.2,0,0.4,0.05,0.6,0.15C5.98,49.33,6,49.37,6,49.4H6.1z M79.35,49.6c-0.53-0.07-0.82-0.23-0.85-0.5c0.13-0.2,0.23-0.37,0.3-0.5
			h1c0.27,0.2,0.45,0.33,0.55,0.4c0,0.13-0.08,0.25-0.25,0.35C79.9,49.52,79.65,49.6,79.35,49.6z M77.4,49.15c0,0.1,0,0.18,0,0.25
			c0,0.03-0.03,0.08-0.1,0.15v0.05c0,0.03-0.03,0.07-0.1,0.1c0,0.03-0.02,0.05-0.05,0.05c-0.13,0.03-0.22,0.07-0.25,0.1
			c-0.17,0.07-0.32,0.1-0.45,0.1c-0.9-0.23-1.15-0.53-0.75-0.9c0.5-0.43,1.03-0.43,1.6,0L77.4,49.15z M78.75,51.5
			c0.03,0,0.07,0.02,0.1,0.05s0.05,0.08,0.05,0.15c0,0.1,0,0.18,0,0.25l-0.05,0.15c0,0.03-0.02,0.05-0.05,0.05
			c0,0.03-0.02,0.05-0.05,0.05c0,0.03-0.02,0.05-0.05,0.05c-0.1,0.07-0.2,0.12-0.3,0.15c-0.17,0.03-0.3,0.05-0.4,0.05
			c-1.13-0.27-1.22-0.63-0.25-1.1c0.27-0.13,0.53-0.13,0.8,0c0.1,0,0.15,0.02,0.15,0.05C78.73,51.4,78.75,51.44,78.75,51.5z
			 M72.1,51.85l0.05,0.05c0.07,0,0.1,0.02,0.1,0.05c0.03,0,0.08,0.05,0.15,0.15c0.1,0.2,0.05,0.38-0.15,0.55
			c-0.3,0.17-0.57,0.25-0.8,0.25c-0.1,0-0.18-0.02-0.25-0.05c-0.03,0.03-0.1,0.05-0.2,0.05c-0.13,0-0.28-0.03-0.45-0.1
			c-0.1-0.03-0.25-0.07-0.45-0.1c-1.1-0.57-1.17-1.05-0.2-1.45c0.27-0.1,0.53-0.1,0.8,0c0.33,0.17,0.62,0.32,0.85,0.45
			C71.72,51.7,71.9,51.75,72.1,51.85z M66,49.85c0.07,0.03,0.1,0.07,0.1,0.1c0.03,0.33,0.35,0.52,0.95,0.55c0.13,0,0.3-0.03,0.5-0.1
			c0,0.07-0.02,0.12-0.05,0.15c-0.17,0.23-0.4,0.38-0.7,0.45h-0.05c-0.13,0-0.22,0-0.25,0C65.23,50.73,65.07,50.35,66,49.85z"/>
		<path fill-rule="evenodd" clip-rule="evenodd" fill="#6B6D73" d="M17,39.9c-0.13-0.23-0.43-0.35-0.9-0.35
			c-0.07-0.13-0.07-0.28,0-0.45c0.03-0.07,0.1-0.1,0.2-0.1c0-0.03,0.02-0.05,0.05-0.05c0-0.03,0.02-0.07,0.05-0.1
			c0.2-0.1,0.42-0.15,0.65-0.15c0.33,0,0.58,0.08,0.75,0.25c0.13,0.13,0.18,0.25,0.15,0.35c-0.03,0.37-0.33,0.57-0.9,0.6H17z
			 M18.25,41.95c0.83,0.43,0.92,0.77,0.25,1c-0.13,0.07-0.3,0.13-0.5,0.2c-0.03-0.03-0.1-0.05-0.2-0.05c-0.03,0-0.08,0-0.15,0
			c-0.1-0.03-0.18-0.08-0.25-0.15c-0.17-0.07-0.3-0.17-0.4-0.3c-0.07-0.2-0.07-0.37,0-0.5c0.03-0.03,0.07-0.07,0.1-0.1
			c0-0.07,0.03-0.1,0.1-0.1l0.1-0.05C17.63,41.77,17.95,41.78,18.25,41.95z M31.9,34.8c0.1-0.03,0.23-0.05,0.4-0.05
			c0.3,0,0.55,0.07,0.75,0.2c0.13,0.13,0.17,0.27,0.1,0.4c-0.03,0.33-0.32,0.53-0.85,0.6c-0.27,0-0.52-0.08-0.75-0.25
			c-0.23-0.13-0.28-0.33-0.15-0.6c0.07-0.03,0.12-0.07,0.15-0.1c0-0.03,0.02-0.05,0.05-0.05c0-0.03,0.05-0.05,0.15-0.05
			C31.78,34.83,31.83,34.8,31.9,34.8z M25,37.15c0.2-0.07,0.38-0.1,0.55-0.1c0.4,0,0.7,0.07,0.9,0.2c0.13,0.13,0.17,0.25,0.1,0.35
			c-0.03,0.37-0.37,0.57-1,0.6c-0.23,0-0.45-0.08-0.65-0.25c-0.23-0.13-0.28-0.32-0.15-0.55c0.03-0.07,0.08-0.1,0.15-0.1
			c0-0.03,0.02-0.05,0.05-0.05C24.95,37.22,24.97,37.19,25,37.15z M26.55,40.65c0.07-0.07,0.12-0.12,0.15-0.15
			c0-0.03,0.02-0.05,0.05-0.05c0-0.03,0.02-0.07,0.05-0.1c0.33-0.13,0.65-0.13,0.95,0c0.9,0.5,0.78,0.88-0.35,1.15
			c-0.13,0-0.27-0.02-0.4-0.05c-0.07-0.03-0.15-0.08-0.25-0.15H26.7c-0.03-0.03-0.05-0.08-0.05-0.15c-0.07,0-0.1-0.02-0.1-0.05
			c-0.03-0.03-0.05-0.07-0.05-0.1c0-0.07,0-0.15,0-0.25C26.5,40.72,26.52,40.69,26.55,40.65z M36.65,36.05
			c0.13,0.13,0.18,0.28,0.15,0.45c-0.03,0.3-0.33,0.48-0.9,0.55c-0.23,0-0.5-0.1-0.8-0.3c-0.2-0.13-0.23-0.32-0.1-0.55
			c0.03-0.03,0.07-0.07,0.1-0.1c0-0.03,0.05-0.05,0.15-0.05c0-0.03,0.02-0.05,0.05-0.05c0.13-0.03,0.23-0.07,0.3-0.1
			c0.27,0.07,0.6,0.1,1,0.1C36.63,36,36.65,36.02,36.65,36.05z M38,40.3c0-0.07,0-0.13,0-0.2c0.03,0.03,0.08,0.07,0.15,0.1L38,40.3z
			 M39.7,39.85c0.17,0.17,0.22,0.3,0.15,0.4c0,0.03,0,0.07,0,0.1c-0.03-0.03-0.08-0.08-0.15-0.15c-0.03-0.03-0.1-0.07-0.2-0.1
			C39.6,40,39.67,39.92,39.7,39.85z M33.1,38.2c0.2,0.07,0.38,0.15,0.55,0.25c0.1,0.13,0.13,0.28,0.1,0.45
			c-0.17,0.4-0.6,0.57-1.3,0.5c-0.43,0-0.73-0.13-0.9-0.4c-0.1-0.17-0.1-0.32,0-0.45l0.05-0.05h0.15c0-0.03,0.02-0.05,0.05-0.05
			c0-0.07,0.02-0.1,0.05-0.1c0.3-0.13,0.63-0.18,1-0.15C32.95,38.2,33.03,38.2,33.1,38.2z M33.35,42.1c0.03-0.13-0.03-0.27-0.2-0.4
			c-0.1-0.1-0.25-0.17-0.45-0.2l0.05-0.1c-0.06,0.06-0.15,0.1-0.25,0.1h-0.05c-0.2,0-0.33,0.02-0.4,0.05c-0.1,0-0.18-0.02-0.25-0.05
			c-0.13,0-0.23-0.03-0.3-0.1c-0.07,0-0.1-0.02-0.1-0.05l-0.1-0.05c-0.07,0-0.1-0.02-0.1-0.05V41.1c0.13,0.03,0.27,0.05,0.4,0.05
			c0.2-0.03,0.37-0.08,0.5-0.15c0,0.07,0.02,0.1,0.05,0.1c0.2,0.17,0.4,0.27,0.6,0.3c0.07,0.03,0.15,0.05,0.25,0.05
			c0.43,0,0.75-0.1,0.95-0.3c-0.13,0.17-0.13,0.33,0,0.5v0.05l0.1,0.05c0,0.03,0.02,0.05,0.05,0.05c0.1,0.07,0.18,0.1,0.25,0.1
			c-0.17,0.13-0.38,0.2-0.65,0.2C33.63,42.1,33.52,42.1,33.35,42.1z M31.8,42.45c0.17,0.17,0.38,0.25,0.65,0.25
			c0.43-0.03,0.7-0.17,0.8-0.4h0.1c0.17,0.17,0.22,0.3,0.15,0.4c0,0.1-0.03,0.18-0.1,0.25c-0.2,0.13-0.42,0.23-0.65,0.3
			c0-0.07-0.03-0.15-0.1-0.25v-0.05h-0.1c-0.17-0.1-0.38-0.15-0.65-0.15c-0.07,0-0.17,0-0.3,0c-0.03-0.1,0.02-0.2,0.15-0.3
			L31.8,42.45z M34.05,40.9c0,0.03,0.02,0.05,0.05,0.05c-0.03,0.03-0.07,0.08-0.1,0.15C34.03,41.03,34.05,40.97,34.05,40.9z
			 M40.7,44.6c-0.2-0.03-0.4-0.1-0.6-0.2c-0.2-0.17-0.23-0.35-0.1-0.55c0.03-0.07,0.07-0.12,0.1-0.15h0.1
			c0-0.07,0.02-0.12,0.05-0.15c0.2-0.07,0.42-0.1,0.65-0.1c0.1,0,0.2,0,0.3,0l-0.05,0.05l-0.1,0.05c-0.03,0-0.05,0.02-0.05,0.05
			c-0.07,0.07-0.12,0.12-0.15,0.15c-0.17,0.23-0.12,0.42,0.15,0.55c0.03,0.07,0.1,0.1,0.2,0.1c-0.13,0.03-0.25,0.07-0.35,0.1
			S40.7,44.57,40.7,44.6z M43.55,49.1c0.13,0,0.23,0,0.3,0c0.23,0,0.45,0.03,0.65,0.1c0.03,0.03,0.05,0.07,0.05,0.1
			c0.07,0,0.1,0.02,0.1,0.05c0.03,0.03,0.07,0.07,0.1,0.1c0.17,0.23,0.13,0.42-0.1,0.55c-0.17,0.1-0.35,0.17-0.55,0.2h-0.05
			c0-0.03-0.05-0.05-0.15-0.05c-0.07-0.07-0.18-0.12-0.35-0.15c0.13,0,0.22-0.02,0.25-0.05c0.23-0.13,0.27-0.32,0.1-0.55
			c-0.03-0.07-0.07-0.12-0.1-0.15c0-0.03-0.02-0.05-0.05-0.05c0-0.03-0.05-0.05-0.15-0.05L43.55,49.1z"/>
		<path fill-rule="evenodd" clip-rule="evenodd" fill="#5B5C64" d="M26.3,35.6c-0.23-0.13-0.28-0.32-0.15-0.55
			c0.03-0.07,0.08-0.12,0.15-0.15h0.1c0-0.07,0.02-0.1,0.05-0.1c0.17-0.07,0.35-0.1,0.55-0.1c0.3,0,0.57,0.07,0.8,0.2
			c0.17,0.13,0.22,0.27,0.15,0.4c-0.03,0.3-0.35,0.48-0.95,0.55C26.77,35.85,26.53,35.77,26.3,35.6z M24.7,39.65
			c0.3,0,0.55,0.07,0.75,0.2c0.07,0.17,0.08,0.3,0.05,0.4c0,0.33-0.27,0.53-0.8,0.6c-0.3,0-0.57-0.1-0.8-0.3
			c-0.23-0.13-0.3-0.3-0.2-0.5c0.1-0.07,0.17-0.12,0.2-0.15c0-0.03,0.03-0.05,0.1-0.05l0.1-0.1C24.23,39.69,24.43,39.65,24.7,39.65z
			 M39.7,39.85c-0.03,0.07-0.1,0.15-0.2,0.25c-0.17-0.1-0.42-0.15-0.75-0.15c-0.2,0-0.4,0.05-0.6,0.15c0,0.03,0,0.07,0,0.1
			c-0.07-0.03-0.12-0.07-0.15-0.1c-0.07,0-0.12-0.02-0.15-0.05c-0.1-0.2-0.12-0.37-0.05-0.5c0-0.03,0.02-0.07,0.05-0.1l0.05-0.05
			c0.53-0.47,0.98-0.52,1.35-0.15h0.1c0.03,0,0.13,0.03,0.3,0.1c0.1,0.13,0.12,0.27,0.05,0.4V39.85z M32.5,41.5c0.04,0,0.11,0,0.2,0
			c0.2,0.03,0.35,0.1,0.45,0.2c0.17,0.13,0.23,0.27,0.2,0.4c0,0.03-0.03,0.1-0.1,0.2c-0.1,0.23-0.37,0.37-0.8,0.4
			c-0.27,0-0.48-0.08-0.65-0.25h-0.05c-0.3-0.13-0.37-0.32-0.2-0.55c0.03-0.07,0.1-0.12,0.2-0.15c0-0.03,0.02-0.05,0.05-0.05
			l0.05-0.05c0.03-0.03,0.1-0.07,0.2-0.1c0.07-0.03,0.2-0.05,0.4-0.05H32.5z"/>
		<path fill-rule="evenodd" clip-rule="evenodd" fill="#6B6C74" d="M32.75,41.4l-0.05,0.1c-0.09,0-0.16,0-0.2,0
			C32.6,41.5,32.69,41.47,32.75,41.4z"/>
	</g>
	<g>
		<path fill-rule="evenodd" clip-rule="evenodd" fill="#C61C1C" d="M92.65,32.65c0.27-0.17,0.47-0.33,0.6-0.5
			c0.6,0.17,1.13,0.3,1.6,0.4c-0.4,0.63-1.12,0.82-2.15,0.55v-0.05C92.37,33.02,92.35,32.89,92.65,32.65z M96.85,34.6
			c0.4-0.07,0.7-0.07,0.9,0c0.47,0.03,0.17,0.28-0.9,0.75c-0.27,0-0.5-0.07-0.7-0.2c-0.37-0.3-0.3-0.48,0.2-0.55
			C96.62,34.6,96.78,34.6,96.85,34.6z M98.7,32.65c0.07-0.1,0.15-0.18,0.25-0.25c0.7,0.37,0.47,0.6-0.7,0.7v-0.05
			C98.38,32.95,98.53,32.82,98.7,32.65z M86.6,32.65h0.05c0.73,0.3,0.67,0.68-0.2,1.15c-0.1,0.03-0.23,0.05-0.4,0.05
			C85.88,33.45,86.07,33.05,86.6,32.65z M88.85,33.4l0.05-0.1c-0.03,0.23-0.28,0.52-0.75,0.85C88.35,33.89,88.58,33.64,88.85,33.4z
			 M89.7,35.8c-0.53-0.4-0.4-0.85,0.4-1.35c0.53,0.37,0.42,0.82-0.35,1.35H89.7z M89.55,43.1c-0.9-0.33-0.8-0.5,0.3-0.5
			c2.73,0,3.35,0.37,1.85,1.1C90.9,43.6,90.18,43.4,89.55,43.1z M90.2,40.25c-0.33-0.17-0.45-0.42-0.35-0.75
			c0.13-0.23,0.3-0.33,0.5-0.3c1.87,0,2.17,0.38,0.9,1.15c-0.17,0.03-0.32,0.07-0.45,0.1C90.53,40.42,90.33,40.35,90.2,40.25z
			 M97.45,38.45c-0.87-0.17-1.3-0.53-1.3-1.1c-0.03-0.23,0.1-0.37,0.4-0.4C98.75,36.95,99.05,37.45,97.45,38.45z M100.85,40
			c0.23,0.13,0.27,0.28,0.1,0.45c-0.17,0.17-0.45,0.33-0.85,0.5H100c-0.4-0.07-0.7-0.22-0.9-0.45c-0.03-0.03-0.08-0.07-0.15-0.1
			v-0.05c-0.33-0.27-0.28-0.42,0.15-0.45C99.93,39.87,100.52,39.9,100.85,40z M114.95,33.55c-0.53-0.03-0.95-0.18-1.25-0.45
			c-0.23-0.23-0.2-0.37,0.1-0.4C115.93,32.4,116.32,32.69,114.95,33.55z M117.5,34.3c-0.3-0.23-0.25-0.38,0.15-0.45
			c1.8-0.3,2.02-0.08,0.65,0.65C118.03,34.5,117.77,34.44,117.5,34.3z M107.4,32.9c-0.2-0.23-0.1-0.38,0.3-0.45
			c2.4-0.23,2.67,0.05,0.8,0.85C108,33.27,107.63,33.14,107.4,32.9z M108.85,38.6c1.77-0.37,1.95-0.15,0.55,0.65
			c-0.27,0-0.48-0.07-0.65-0.2C108.42,38.78,108.45,38.64,108.85,38.6z M114.75,40.7c-0.1-0.17-0.02-0.27,0.25-0.3
			c1.53-0.3,1.93-0.2,1.2,0.3c-0.13,0.13-0.35,0.23-0.65,0.3c-0.2,0-0.4-0.05-0.6-0.15C114.82,40.78,114.75,40.73,114.75,40.7z
			 M137.65,34.85c-0.3-0.23-0.28-0.37,0.05-0.4c1.87-0.33,2.1-0.13,0.7,0.6C138.13,35.05,137.88,34.98,137.65,34.85z M120.35,46.55
			c-0.43-0.27-0.37-0.47,0.2-0.6c2.17-0.27,2.32-0.02,0.45,0.75C120.73,46.7,120.52,46.65,120.35,46.55z M116.4,42.85
			c-0.07-0.23-0.02-0.38,0.15-0.45c2-0.3,2.25,0,0.75,0.9C116.8,43.3,116.5,43.15,116.4,42.85z M129.65,47.45
			c0.23,0.07,0.32,0.17,0.25,0.3c0,0.03-0.07,0.08-0.2,0.15c-0.2,0.13-0.42,0.2-0.65,0.2c-0.27-0.07-0.48-0.17-0.65-0.3
			C127.7,47.3,128.12,47.19,129.65,47.45z M139.8,41.85c-0.07,0.07-0.22,0.17-0.45,0.3c-0.23,0.1-0.55,0.22-0.95,0.35
			c-1-0.23-1.25-0.62-0.75-1.15c0.13-0.17,0.28-0.25,0.45-0.25c0.03,0,0.12,0,0.25,0c0.13,0,0.22,0,0.25,0
			C139.73,41.3,140.13,41.55,139.8,41.85z M138.1,44.95c1.93-0.37,2.2-0.1,0.8,0.8c-0.53,0-0.85-0.13-0.95-0.4
			C137.82,45.12,137.87,44.98,138.1,44.95z M144.55,32.25c-0.3-0.2-0.27-0.33,0.1-0.4c1.77-0.33,2-0.12,0.7,0.65
			C145.05,32.5,144.78,32.42,144.55,32.25z M145.55,47.6c-0.23,0.2-0.53,0.33-0.9,0.4c-0.03,0.03-0.07,0.05-0.1,0.05
			c-0.4-0.2-0.68-0.37-0.85-0.5c-0.17-0.17-0.15-0.32,0.05-0.45c0.37-0.13,0.97-0.17,1.8-0.1c0.4,0.03,0.45,0.18,0.15,0.45v0.05
			C145.63,47.53,145.58,47.57,145.55,47.6z M153.15,37.25c-0.17-0.2-0.12-0.32,0.15-0.35c2.2-0.23,2.5,0.03,0.9,0.8
			C153.73,37.67,153.38,37.52,153.15,37.25z M153.85,47.55c-0.17-0.07-0.32-0.12-0.45-0.15c-1.27-0.73-0.98-1.12,0.85-1.15
			c0.23-0.03,0.4,0.07,0.5,0.3c0.13,0.37,0.03,0.63-0.3,0.8C154.32,47.45,154.12,47.52,153.85,47.55z M154.75,49.65
			c1.1,0,1.22,0.17,0.35,0.5c-0.6,0.33-1.32,0.53-2.15,0.6C151.45,50.02,152.05,49.65,154.75,49.65z M127.35,50.4
			c-1.53-0.93-1.3-1.23,0.7-0.9c0.2,0.03,0.27,0.18,0.2,0.45C128.12,50.22,127.82,50.37,127.35,50.4z M124.25,53.65
			c-0.1,0.1-0.3,0.15-0.6,0.15c-1.87-0.8-1.72-1.07,0.45-0.8C124.63,53.14,124.68,53.35,124.25,53.65z M105.25,49.2
			c-0.2-0.13-0.35-0.22-0.45-0.25c-0.3-0.33,0.1-0.58,1.2-0.75c0.1,0,0.2,0,0.3,0c0.1,0,0.18,0,0.25,0c0.17,0,0.3,0.07,0.4,0.2
			c0.53,0.57,0.28,0.97-0.75,1.2C105.83,49.47,105.52,49.33,105.25,49.2z M105.7,52.85c-1.4-0.93-1.12-1.22,0.85-0.85
			c0.2,0.07,0.25,0.22,0.15,0.45C106.6,52.72,106.27,52.85,105.7,52.85z"/>
		<path fill-rule="evenodd" clip-rule="evenodd" fill="#E43A3A" d="M99.65,31.6c0.7,0.23,0.57,0.52-0.4,0.85h-0.1
			c-0.27-0.13-0.13-0.38,0.4-0.75L99.65,31.6z M86.2,37.1c-0.03-0.37,0.17-0.7,0.6-1l0.1-0.05c0.33,0.3,0.13,0.62-0.6,0.95
			C86.3,37.07,86.27,37.1,86.2,37.1z M86,38.65c0.43,0.1,0.85,0.22,1.25,0.35c0.1,0.03,0.17,0.05,0.2,0.05
			c-0.2,0.27-0.47,0.52-0.8,0.75c-0.03,0.07-0.07,0.12-0.1,0.15c-0.5-0.1-0.97-0.27-1.4-0.5c0.27-0.23,0.52-0.47,0.75-0.7L86,38.65z
			 M100.95,40.45c0.17-0.17,0.13-0.32-0.1-0.45c0.1-0.03,0.22-0.05,0.35-0.05c2.1-0.13,2.85,0.05,2.25,0.55
			c-0.13,0.13-0.33,0.28-0.6,0.45c-0.73-0.03-1.37-0.18-1.9-0.45V40.45z M99.1,40.5c0.2,0.23,0.5,0.38,0.9,0.45
			c-0.2,0.1-0.43,0.22-0.7,0.35c-0.4,0-0.68-0.12-0.85-0.35c-0.2-0.23-0.12-0.37,0.25-0.4C98.87,40.52,99,40.5,99.1,40.5z
			 M94.15,40.35c-0.03,0.17-0.37,0.43-1,0.8c-0.57,0-0.92-0.15-1.05-0.45c-0.03-0.2,0.03-0.32,0.2-0.35l0.15-0.1
			C93.62,40.08,94.18,40.12,94.15,40.35z M93.5,45.7h2.3c0,0.4-0.33,0.65-1,0.75C94.17,46.15,93.73,45.9,93.5,45.7z M94.45,43.75
			c-0.33-0.23-0.32-0.38,0.05-0.45c1.97-0.3,2.27-0.05,0.9,0.75C95.03,44.05,94.72,43.95,94.45,43.75z M106,33.45
			c0.07,0.03,0.15,0.05,0.25,0.05c-0.27,0.23-0.55,0.48-0.85,0.75c-1.4-0.43-1.53-1.05-0.4-1.85C105.27,32.73,105.6,33.08,106,33.45
			z M108.6,43.35c0.1,0.03,0.2,0.05,0.3,0.05c3.27,0.3,3.48,0.68,0.65,1.15c-0.63,0-1.12-0.17-1.45-0.5
			c-0.7,0.9-1.45,1.02-2.25,0.35c0-0.1,0.03-0.15,0.1-0.15c0.9-0.07,1.47-0.45,1.7-1.15C108.28,43.23,108.6,43.32,108.6,43.35z
			 M121.1,33.15c-0.33-0.17-0.28-0.3,0.15-0.4c2.63-0.23,3.2,0.08,1.7,0.95C122.18,33.67,121.57,33.48,121.1,33.15z M139,34.15
			c-0.27,0-0.55-0.1-0.85-0.3c-0.27-0.2-0.22-0.32,0.15-0.35C140.1,33.17,140.33,33.39,139,34.15z M130.7,43.15
			c-0.3,0-0.55-0.08-0.75-0.25c-0.3-0.2-0.28-0.33,0.05-0.4C131.8,42.2,132.03,42.42,130.7,43.15z M139.3,38.6
			c-0.27,0-0.5-0.07-0.7-0.2c-0.33-0.23-0.32-0.38,0.05-0.45C140.45,37.62,140.67,37.83,139.3,38.6z M149.8,39.35
			c-0.8-0.1-1.1-0.45-0.9-1.05c0-0.23,0.2-0.35,0.6-0.35C151.83,37.95,151.93,38.42,149.8,39.35z M143.7,47.55v0.05
			c-0.57,0.27-1.2,0.42-1.9,0.45c-0.27-0.17-0.47-0.32-0.6-0.45c-0.6-0.5,0.15-0.68,2.25-0.55c0.1,0,0.2,0.02,0.3,0.05
			C143.55,47.23,143.53,47.39,143.7,47.55z M144.65,48c0.37-0.07,0.67-0.2,0.9-0.4c0.1,0,0.23,0.02,0.4,0.05
			c0.37,0.03,0.45,0.15,0.25,0.35c-0.17,0.23-0.45,0.35-0.85,0.35C145.05,48.25,144.82,48.14,144.65,48z M146.75,36.1
			c-0.27,0-0.53-0.1-0.8-0.3c-0.3-0.2-0.28-0.33,0.05-0.4C147.83,35.1,148.08,35.33,146.75,36.1z M151.55,47.28v0.02h0.25
			c0.13,0.01,0.26,0.03,0.4,0.05l0.15,0.05c0.17,0.07,0.23,0.2,0.2,0.4c-0.13,0.3-0.48,0.45-1.05,0.45c-0.63-0.37-0.97-0.63-1-0.8
			C150.45,47.27,150.8,47.21,151.55,47.28z M157.15,46.15c0.07,0,0.13-0.02,0.2-0.05c0.43-0.13,0.87-0.25,1.3-0.35l0.05,0.1
			c0.23,0.2,0.5,0.43,0.8,0.7c-0.47,0.23-0.95,0.4-1.45,0.5c-0.03-0.03-0.05-0.08-0.05-0.15C157.67,46.67,157.38,46.42,157.15,46.15
			z M157.6,42.85c0.33-0.23,0.68-0.27,1.05-0.1c1.6,0.67,1.17,1.28-1.3,1.85c-0.3,0-0.5-0.1-0.6-0.3
			C156.62,43.77,156.9,43.28,157.6,42.85z M150.1,50.4c0.37,0.07,0.4,0.22,0.1,0.45c-0.27,0.2-0.57,0.3-0.9,0.3
			C147.9,50.35,148.17,50.1,150.1,50.4z M138.65,51.3c0.1,0,0.15,0.07,0.15,0.2c-0.8,0.67-1.57,0.55-2.3-0.35
			c-0.33,0.33-0.82,0.5-1.45,0.5c-2.8-0.47-2.57-0.85,0.7-1.15c0.1,0,0.18-0.02,0.25-0.05c0-0.07,0.32-0.17,0.95-0.3
			C137.25,50.89,137.82,51.27,138.65,51.3z M113.95,50.2c-1.33-0.73-1.12-0.93,0.65-0.6c0.4,0.03,0.43,0.17,0.1,0.4
			C114.47,50.14,114.22,50.2,113.95,50.2z M86,49.85c0.33-0.17,0.67-0.13,1,0.1c0.73,0.43,1.03,0.9,0.9,1.4
			c-0.13,0.23-0.35,0.35-0.65,0.35C84.82,51.14,84.4,50.52,86,49.85z"/>
		<path fill-rule="evenodd" clip-rule="evenodd" fill="#E73F3F" d="M97.75,34.6c-0.2-0.07-0.5-0.07-0.9,0
			c-0.07-0.1-0.2-0.17-0.4-0.2c0.2-0.1,0.3-0.2,0.3-0.3v-0.15v-0.2c0.07,0.07,0.15,0.12,0.25,0.15c-0.1,0-0.18,0.02-0.25,0.05
			c0.07,0,0.15,0,0.25,0C97.33,34.19,97.58,34.4,97.75,34.6z"/>
		<path fill-rule="evenodd" clip-rule="evenodd" fill="#6B6C74" d="M86.3,34.05c0.13-0.03,0.23-0.07,0.3-0.1v0.1
			C86.53,34.05,86.43,34.05,86.3,34.05z"/>
		<path fill-rule="evenodd" clip-rule="evenodd" fill="#E03B3A" d="M98.7,36.3c0.17-0.1,0.25-0.2,0.25-0.3l0.1-0.6
			C100.75,35.37,100.63,35.67,98.7,36.3z"/>
		<path fill-rule="evenodd" clip-rule="evenodd" fill="#DD3233" d="M97.35,36.95V36.5C99.12,36.9,99.12,37.05,97.35,36.95z"/>
		<path fill-rule="evenodd" clip-rule="evenodd" fill="#E43234" d="M99.1,45.35c0.13-0.6,0.55-0.92,1.25-0.95l0.25,0.05
			c1.27,0.3,1.73,0.67,1.4,1.1C101.07,47.19,100.1,47.12,99.1,45.35z M145.55,52.45c-1,1.77-1.98,1.83-2.95,0.2
			c-0.3-0.47,0.18-0.83,1.45-1.1l0.25-0.05C145,51.53,145.42,51.85,145.55,52.45z"/>
		<path fill-rule="evenodd" clip-rule="evenodd" fill="#DF3333" d="M96.55,47.05c-0.13,0.03-0.03,0.12,0.3,0.25H95.1
			c0.33-0.77,1-1.53,2-2.3c0.13-0.07,0.33,0.12,0.6,0.55C98.1,46.08,97.72,46.58,96.55,47.05z M146.95,52.6
			c0.23-0.43,0.42-0.6,0.55-0.5c1.03,0.73,1.72,1.48,2.05,2.25h-1.8c0.33-0.1,0.47-0.17,0.4-0.2
			C146.95,53.69,146.55,53.17,146.95,52.6z"/>
		<path fill-rule="evenodd" clip-rule="evenodd" fill="#E84241" d="M100.25,47.3H99.1c0-0.13-0.05-0.22-0.15-0.25
			c-0.17-0.13-0.43-0.27-0.8-0.4C98.92,46.45,99.62,46.67,100.25,47.3z M145.55,54.35h-1.2c0.67-0.6,1.38-0.8,2.15-0.6
			c-0.37,0.13-0.63,0.27-0.8,0.4C145.6,54.19,145.55,54.25,145.55,54.35z"/>
		<path fill-rule="evenodd" clip-rule="evenodd" fill="#E33737" d="M109.25,36.65c-0.17-0.7,0.03-0.85,0.6-0.45
			c0.9,0.67,0.47,1.37-1.3,2.1C109.18,37.73,109.42,37.19,109.25,36.65z M153.3,42.4l-0.3,1.1c-0.07,0.17-0.13,0.3-0.2,0.4
			c-0.63,1.2-1.08,1.37-1.35,0.5C150.98,43.07,151.6,42.4,153.3,42.4z M91.3,49.5c1.7,0,2.33,0.67,1.9,2
			c-0.27,0.87-0.73,0.7-1.4-0.5c-0.03-0.1-0.08-0.23-0.15-0.4L91.3,49.5z"/>
		<path fill-rule="evenodd" clip-rule="evenodd" fill="#E03334" d="M100.85,35.95c1.93-0.23,2.3,0.03,1.1,0.8
			c-0.03,0-0.57-0.03-1.6-0.1C100.12,36.25,100.28,36.02,100.85,35.95z"/>
		<path fill-rule="evenodd" clip-rule="evenodd" fill="#E23032" d="M102.5,46c0.73-0.73,1.27-0.7,1.6,0.1l0.35,0.55
			C104.15,46.55,103.5,46.33,102.5,46z M140.5,53.15c0.33-0.8,0.88-0.83,1.65-0.1c-1,0.37-1.65,0.6-1.95,0.7L140.5,53.15z"/>
		<path fill-rule="evenodd" clip-rule="evenodd" fill="#E03233" d="M118.8,36.05c0-0.13,0.02-0.22,0.05-0.25
			C122.68,35.53,122.67,35.62,118.8,36.05z"/>
		<path fill-rule="evenodd" clip-rule="evenodd" fill="#DF3737" d="M120.1,40.25c0-0.13,0.03-0.25,0.1-0.35
			c0.53-0.97,1.23-1.83,2.1-2.6c0,0.1-0.05,0.22-0.15,0.35C121.92,38.72,121.23,39.58,120.1,40.25z"/>
		<path fill-rule="evenodd" clip-rule="evenodd" fill="#E13435" d="M113.15,37.1c1.87,0.27,1.77,0.45-0.3,0.55
			C112.58,37.22,112.68,37.03,113.15,37.1z M121.8,36.65c1.33-0.47,2.13-0.38,2.4,0.25C125.2,38.97,124.4,38.89,121.8,36.65z"/>
		<path fill-rule="evenodd" clip-rule="evenodd" fill="#E13B3B" d="M124.35,42.15c-0.3,0.57-1.28,0.78-2.95,0.65
			c0.23-0.87,0.98-1.15,2.25-0.85L124.35,42.15z M123.2,49.9c-1.63,0.1-2.62-0.13-2.95-0.7L121,49
			C122.3,48.73,123.03,49.03,123.2,49.9z"/>
		<path fill-rule="evenodd" clip-rule="evenodd" fill="#E13334" d="M139.8,41.85c0.43-0.23,0.03,0.08-1.2,0.95
			c0-0.1,0.05-0.18,0.15-0.25c0.23-0.17,0.43-0.3,0.6-0.4C139.58,42.02,139.73,41.92,139.8,41.85z M104.8,48.95
			c0.1,0.03,0.25,0.12,0.45,0.25c0.2,0.13,0.42,0.27,0.65,0.4c0.07,0.1,0.1,0.2,0.1,0.3C104.8,49.03,104.4,48.72,104.8,48.95z"/>
		<path fill-rule="evenodd" clip-rule="evenodd" fill="#E43637" d="M122.65,35.7c0.03-0.57,0.42-0.8,1.15-0.7
			C125.2,35.27,124.82,35.5,122.65,35.7z"/>
		<path fill-rule="evenodd" clip-rule="evenodd" fill="#E03837" d="M151.8,47.3h-0.25v-0.02c0.23-1.27,0.45-1.27,0.65,0.02H151.8z
			 M92.4,54.35c0.23-1.27,0.45-1.27,0.65,0H92.4z"/>
	</g>
	<g>
		<g>
			<g>
				<path fill-rule="evenodd" clip-rule="evenodd" fill-opacity="0.4706" d="M18.3,45.15c2.53-1.53,3.85-0.88,3.95,1.95
					c0.13,2.8,0,5.28-0.4,7.45c0,0.13,0,0.25,0,0.35h-4.1C17.28,53.07,17.47,49.82,18.3,45.15z"/>
			</g>
			<g>
				<path fill-rule="evenodd" clip-rule="evenodd" fill="#616161" d="M19.75,45.15c0.23-0.23,0.5-0.35,0.8-0.35
					c0.33,0,0.62,0.12,0.85,0.35c0.27,0.3,0.4,0.58,0.4,0.85v9.3c0,0.3,0,0.58,0,0.85c0.1-0.13,0.23-0.2,0.4-0.2h0.05l0.5-0.7
					l3.3-0.05c-2.2,2.5-3.37,3.77-3.5,3.8c-0.1,0.07-0.18,0.13-0.25,0.2c-0.87,0.6-1.58,0.57-2.15-0.1c-0.53-0.4-0.8-1.68-0.8-3.85
					V46C19.35,45.73,19.48,45.45,19.75,45.15z"/>
			</g>
			<g>
				<path fill-rule="evenodd" clip-rule="evenodd" fill="#FFFFFF" d="M21.05,46.5C21.02,46.53,21,46.57,21,46.6
					c-0.73-0.03-0.95-0.37-0.65-1c0.03-0.07,0.07-0.1,0.1-0.1C20.92,45.7,21.12,46.03,21.05,46.5z"/>
				
					<radialGradient id="SVGID_1_" cx="20.1499" cy="52.9517" r="4.7" gradientTransform="matrix(1 0 0 1.0106 0 -0.5633)" gradientUnits="userSpaceOnUse">
					<stop  offset="0" style="stop-color:#FFFFFF"/>
					<stop  offset="1" style="stop-color:#F9F9F9;stop-opacity:0"/>
				</radialGradient>
				<path fill-rule="evenodd" clip-rule="evenodd" fill="url(#SVGID_1_)" d="M20.15,48.15c0.03-0.03,0.08-0.03,0.15,0
					c0.03,0.03,0.05,0.07,0.05,0.1v9.5c0,0.03-0.02,0.07-0.05,0.1c-0.07,0.03-0.12,0.05-0.15,0.05c-0.03,0-0.07-0.02-0.1-0.05
					c-0.03-0.03-0.03-0.07,0-0.1v-9.5c-0.03-0.03-0.03-0.07,0-0.1C20.08,48.12,20.12,48.12,20.15,48.15z"/>
			</g>
		</g>
	</g>
	<g>
		<g>
			<g>
				<path fill-rule="evenodd" clip-rule="evenodd" fill-opacity="0.4706" d="M144.25,45.4c0.87,4.67,1.07,7.93,0.6,9.8h-4.15
					c0-0.13,0-0.27,0-0.4c-0.4-2.17-0.52-4.65-0.35-7.45C140.45,44.55,141.75,43.9,144.25,45.4z"/>
			</g>
			<g>
				<path fill-rule="evenodd" clip-rule="evenodd" fill="#616161" d="M142.35,45.4c0.27-0.2,0.55-0.3,0.85-0.3s0.58,0.1,0.85,0.3
					c0.23,0.3,0.35,0.6,0.35,0.9v9.2c0.03,2.17-0.23,3.45-0.8,3.85c-0.53,0.67-1.23,0.7-2.1,0.1c-0.2-0.13-0.42-0.33-0.65-0.6
					c-0.1-0.1-0.18-0.2-0.25-0.3l-1.5-2.3c-0.07-0.07-0.27-0.43-0.6-1.1h2.8v0.05l0.65,1.1c0-0.27,0-0.52,0-0.75V46.3
					C141.95,46,142.08,45.7,142.35,45.4z"/>
			</g>
			<g>
				<path fill-rule="evenodd" clip-rule="evenodd" fill="#FFFFFF" d="M142.8,46.9c0-0.03-0.02-0.07-0.05-0.1
					c-0.1-0.5,0.1-0.85,0.6-1.05c0.03,0,0.07,0.03,0.1,0.1C143.75,46.52,143.53,46.87,142.8,46.9z"/>
				
					<radialGradient id="SVGID_2_" cx="-681.6001" cy="-690.1987" r="4.7" gradientTransform="matrix(-1 0 0 1.0106 -538 750.7429)" gradientUnits="userSpaceOnUse">
					<stop  offset="0" style="stop-color:#FFFFFF"/>
					<stop  offset="1" style="stop-color:#F9F9F9;stop-opacity:0"/>
				</radialGradient>
				<path fill-rule="evenodd" clip-rule="evenodd" fill="url(#SVGID_2_)" d="M143.7,48.4c0.03,0.03,0.03,0.07,0,0.1V58
					c0.03,0.03,0.03,0.07,0,0.1c-0.03,0.03-0.07,0.05-0.1,0.05c-0.03,0-0.07-0.02-0.1-0.05c-0.03-0.03-0.05-0.07-0.05-0.1v-9.5
					c0-0.03,0.02-0.07,0.05-0.1c0.03-0.03,0.07-0.03,0.1,0C143.63,48.37,143.67,48.37,143.7,48.4z"/>
			</g>
		</g>
	</g>
</g>
</svg>
