<?xml version="1.0" encoding="utf-8"?>
<!-- Generator: Adobe Illustrator 16.0.0, SVG Export Plug-In . SVG Version: 6.00 Build 0)  -->
<!DOCTYPE svg PUBLIC "-//W3C//DTD SVG 1.1//EN" "http://www.w3.org/Graphics/SVG/1.1/DTD/svg11.dtd">
<svg version="1.1" id="Layer_3" xmlns="http://www.w3.org/2000/svg" xmlns:xlink="http://www.w3.org/1999/xlink" x="0px" y="0px"
	 width="163.67px" height="63.33px" viewBox="0 0 163.67 63.33" enable-background="new 0 0 163.67 63.33" xml:space="preserve">
<g>
	<g>
		<g>
			<path fill-rule="evenodd" clip-rule="evenodd" fill="#616161" d="M85.8,8.65l0.1,0.05c1.17,1.47,2.43,2.22,3.8,2.25h42.4
				c0.03,0,0.07,0,0.1,0c2.53,0.23,4.07,1.98,4.6,5.25c0,0.1,0,0.17,0,0.2v17.5c0,0.27-0.08,0.5-0.25,0.7
				c-0.17,0.23-0.38,0.38-0.65,0.45c-0.27,0.03-0.5,0-0.7-0.1c-0.33-0.1-0.53-0.28-0.6-0.55l-0.2-0.45l-0.35,21.2h-2.35l0.45-26.3
				c0-0.3,0.08-0.53,0.25-0.7c0.2-0.27,0.42-0.42,0.65-0.45c0.23-0.07,0.48-0.05,0.75,0.05c0.23,0.13,0.42,0.32,0.55,0.55l0.1,0.25
				V16.6c-0.27-1.97-1.1-3.05-2.5-3.25H89.7c-2.07,0-3.92-1.05-5.55-3.15L81.2,6.75c-0.53-0.57-1.03-0.95-1.5-1.15
				c-0.43-0.17-0.83-0.17-1.2,0c-0.57,0.2-1.12,0.63-1.65,1.3L74.7,9.55c-1.5,2.53-3.68,3.8-6.55,3.8h-45.6
				c-1.33,0.2-2.15,1.28-2.45,3.25v12l0.1-0.25c0.1-0.27,0.28-0.47,0.55-0.6c0.23-0.1,0.47-0.12,0.7-0.05
				c0.3,0.03,0.55,0.18,0.75,0.45c0.13,0.17,0.2,0.4,0.2,0.7l0.3,16h-2.3L20.2,33.9L20,34.4c-0.13,0.27-0.32,0.45-0.55,0.55
				c-0.27,0.1-0.52,0.13-0.75,0.1c-0.27-0.07-0.47-0.22-0.6-0.45c-0.2-0.2-0.3-0.43-0.3-0.7V16.4c0-0.03,0-0.1,0-0.2
				c0.5-3.27,2.03-5.02,4.6-5.25h45.75c2.07,0,3.6-0.9,4.6-2.7c0.03-0.07,0.08-0.12,0.15-0.15l2.25-2.8c0.87-1.03,1.75-1.7,2.65-2
				c0.83-0.33,1.7-0.33,2.6,0c0.87,0.3,1.73,0.9,2.6,1.8v0.1L85.8,8.65z"/>
		</g>
		<g>
			<line fill-rule="evenodd" clip-rule="evenodd" fill="none" x1="72.25" y1="10.7" x2="74.9" y2="7.25"/>
			<line fill-rule="evenodd" clip-rule="evenodd" fill="none" x1="82.9" y1="6.65" x2="86.85" y2="10.95"/>
			<path fill-rule="evenodd" clip-rule="evenodd" fill="none" d="M67.4,12.5c2.2-0.23,3.68-0.72,4.45-1.45"/>
			<path fill-rule="evenodd" clip-rule="evenodd" fill="none" d="M76.5,5.55c1.77-1.87,3.38-1.92,4.85-0.15"/>
			<line fill-rule="evenodd" clip-rule="evenodd" fill="none" x1="135.7" y1="16.3" x2="135.7" y2="28.55"/>
			<line fill-rule="evenodd" clip-rule="evenodd" fill="none" x1="89.75" y1="12.15" x2="133.5" y2="12.15"/>
			<line fill-rule="evenodd" clip-rule="evenodd" fill="none" x1="18.75" y1="17.5" x2="18.75" y2="25.9"/>
			<line fill-rule="evenodd" clip-rule="evenodd" fill="none" x1="20.3" y1="12.15" x2="64" y2="12.15"/>
		</g>
		<g>
			<path fill-rule="evenodd" clip-rule="evenodd" fill="#FFFFFF" d="M88.45,11.3c0,0.03,0,0.08,0,0.15
				c-0.8,0.37-1.08,0.18-0.85-0.55c0-0.1,0.05-0.15,0.15-0.15C88.08,10.85,88.32,11.03,88.45,11.3z M133.9,12
				c0.07,0,0.1-0.03,0.1-0.1c0.57,0.27,0.78,0.7,0.65,1.3c-0.03,0.03-0.05,0.07-0.05,0.1C133.7,13.03,133.47,12.6,133.9,12z
				 M135.8,15c0.47,0.6,0.5,1.27,0.1,2c-0.07,0.07-0.1,0.12-0.1,0.15C135.23,16.45,135.23,15.73,135.8,15z M24.2,12.4
				c-0.43,0.37-0.78,0.27-1.05-0.3c-0.03-0.17,0.03-0.25,0.2-0.25c0.13-0.03,0.23-0.05,0.3-0.05h0.1c0.2-0.13,2.57-0.15,7.1-0.05
				c4.57,0.07,7.03,0.1,7.4,0.1l-8.2,0.25C28.15,13,26.2,13.1,24.2,12.4z"/>
		</g>
	</g>
	<g>
		<polygon fill-rule="evenodd" clip-rule="evenodd" fill="#5A5D63" points="83.85,30.65 6.2,30.65 6.4,28.75 81.95,28.75 		"/>
		<polygon fill-rule="evenodd" clip-rule="evenodd" fill="#C61C1C" points="156.6,30.65 83.85,30.65 81.95,28.75 151.5,28.75 		"/>
		<rect x="83.85" y="30.65" fill-rule="evenodd" clip-rule="evenodd" fill="#D82B2B" width="72.75" height="24.35"/>
		<rect x="6.2" y="30.65" fill-rule="evenodd" clip-rule="evenodd" fill="#6B6C74" width="77.65" height="24.35"/>
	</g>
	<g>
		
			<rect x="6.2" y="30.65" fill-rule="evenodd" clip-rule="evenodd" fill="#FFFFFF" fill-opacity="0.3255" width="150.4" height="0.15"/>
	</g>
	<g>
		<path fill-rule="evenodd" clip-rule="evenodd" fill="#76787C" d="M65.7,34.7c0.07,0.13,0.08,0.27,0.05,0.4
			c-0.03,0.33-0.32,0.53-0.85,0.6c-0.23,0-0.43-0.1-0.6-0.3c-0.3-0.13-0.38-0.3-0.25-0.5c0.07-0.07,0.15-0.12,0.25-0.15V34.7
			l0.05-0.1c0.17-0.07,0.35-0.1,0.55-0.1C65.23,34.5,65.5,34.57,65.7,34.7z M69.25,31.85c-0.07,0.3-0.35,0.48-0.85,0.55
			c-0.3,0-0.57-0.1-0.8-0.3c-0.13-0.07-0.18-0.15-0.15-0.25C67.98,31.52,68.58,31.52,69.25,31.85z M70.05,35.65
			c0-0.03,0.03-0.07,0.1-0.1c0.2-0.1,0.4-0.15,0.6-0.15c0.27,0,0.52,0.08,0.75,0.25c0.13,0.13,0.18,0.25,0.15,0.35
			c-0.07,0.37-0.37,0.57-0.9,0.6c-0.27,0-0.52-0.08-0.75-0.25c-0.2-0.13-0.23-0.32-0.1-0.55c0.03-0.07,0.07-0.1,0.1-0.1
			C70,35.67,70.02,35.65,70.05,35.65z M62.1,36.7c-0.1,0-0.15-0.03-0.15-0.1l-0.05-0.05c-0.03,0-0.05-0.02-0.05-0.05v0.05
			c-0.07,0.37-0.38,0.55-0.95,0.55c-0.37,0-0.63-0.1-0.8-0.3c-0.17-0.17-0.2-0.33-0.1-0.5c0-0.03,0.03-0.07,0.1-0.1
			c0.07-0.07,0.13-0.12,0.2-0.15c0.13-0.07,0.33-0.1,0.6-0.1c0.33,0,0.58,0.07,0.75,0.2l0.1,0.05c0-0.03,0-0.07,0-0.1
			c0-0.07,0.03-0.1,0.1-0.1c0.03-0.07,0.07-0.12,0.1-0.15c0-0.03,0.05-0.05,0.15-0.05c0-0.03,0-0.07,0-0.1
			c0.33-0.13,0.63-0.13,0.9,0c0.53,0.33,0.67,0.62,0.4,0.85c-0.07,0.13-0.3,0.25-0.7,0.35c-0.07,0-0.22-0.05-0.45-0.15
			C62.18,36.75,62.13,36.73,62.1,36.7z M63.1,40.8c0-0.03,0.02-0.07,0.05-0.1c0.17-0.1,0.35-0.15,0.55-0.15
			c0.4,0,0.67,0.08,0.8,0.25c0.1,0.13,0.13,0.25,0.1,0.35c-0.03,0.3-0.27,0.48-0.7,0.55c-0.03,0.03-0.1,0.05-0.2,0.05
			c-0.23,0-0.43-0.08-0.6-0.25c-0.17-0.07-0.25-0.18-0.25-0.35c0-0.03,0.03-0.1,0.1-0.2c0.03-0.03,0.08-0.07,0.15-0.1V40.8z
			 M58.65,39.95c-0.03-0.17-0.03-0.33,0-0.5c0.07-0.07,0.12-0.12,0.15-0.15c0-0.03,0.03-0.05,0.1-0.05L59,39.2
			c0.33-0.13,0.62-0.12,0.85,0.05c0.77,0.43,0.77,0.78,0,1.05c-0.07,0.03-0.17,0.07-0.3,0.1c-0.03-0.03-0.1-0.05-0.2-0.05
			c-0.03,0-0.07,0-0.1,0c-0.07,0-0.12-0.02-0.15-0.05C58.87,40.23,58.72,40.12,58.65,39.95z M57.6,42.85
			c-0.03,0.03-0.08,0.07-0.15,0.1c-0.27,0.3-0.75,0.43-1.45,0.4c-0.43,0-0.72-0.13-0.85-0.4H55.1c-0.07-0.1-0.07-0.22,0-0.35
			c0-0.03,0.03-0.07,0.1-0.1l0.05-0.05c0-0.07,0.03-0.1,0.1-0.1l0.05-0.05c0.33-0.1,0.67-0.17,1-0.2c0.43-0.03,0.78,0.03,1.05,0.2
			C57.65,42.5,57.7,42.69,57.6,42.85z M59.85,41.95c0.1,0.1,0.18,0.17,0.25,0.2c0.13,0.13,0.2,0.27,0.2,0.4
			c-0.03,0.17-0.13,0.3-0.3,0.4c-0.17,0.1-0.35,0.17-0.55,0.2c-0.2,0-0.4-0.07-0.6-0.2c-0.07-0.03-0.13-0.07-0.2-0.1
			c-0.1-0.07-0.15-0.17-0.15-0.3c0-0.07,0.02-0.15,0.05-0.25c0.03-0.03,0.07-0.08,0.1-0.15h0.1c0-0.03,0.02-0.05,0.05-0.05
			c0.2-0.1,0.42-0.15,0.65-0.15C59.62,41.95,59.75,41.95,59.85,41.95z M71.35,38.95c0.13,0.13,0.18,0.25,0.15,0.35
			c-0.03,0.4-0.37,0.6-1,0.6c-0.33,0-0.6-0.1-0.8-0.3c-0.17-0.17-0.18-0.33-0.05-0.5c0-0.03,0.02-0.07,0.05-0.1h0.05
			c0.07-0.07,0.12-0.12,0.15-0.15c0.17-0.1,0.37-0.15,0.6-0.15C70.8,38.7,71.08,38.78,71.35,38.95z M78.75,42.95
			c-0.13,0.03-0.27,0.07-0.4,0.1c-0.13,0-0.27-0.03-0.4-0.1c-0.1-0.03-0.2-0.08-0.3-0.15c-0.2-0.13-0.25-0.32-0.15-0.55
			c0.03-0.07,0.08-0.12,0.15-0.15h0.05c0-0.03,0.02-0.08,0.05-0.15c0.17-0.03,0.37-0.05,0.6-0.05c0.07,0,0.15,0,0.25,0
			c0.2,0,0.37,0.07,0.5,0.2c0.1,0.13,0.13,0.25,0.1,0.35C79.2,42.69,79.05,42.85,78.75,42.95z M77.05,41.5
			c0.07,0.03,0.13,0.08,0.2,0.15c0.1,0.07,0.15,0.15,0.15,0.25c0,0.03,0,0.08,0,0.15c-0.03,0.33-0.33,0.53-0.9,0.6
			c-0.27,0-0.48-0.1-0.65-0.3c-0.23-0.13-0.3-0.32-0.2-0.55c0.03-0.07,0.1-0.1,0.2-0.1v-0.05c0-0.03,0.02-0.07,0.05-0.1
			c0.17-0.07,0.37-0.1,0.6-0.1S76.92,41.47,77.05,41.5z M13.6,41.3c0,0.03,0,0.08,0,0.15c-0.1,0.33-0.38,0.53-0.85,0.6
			c-0.2-0.07-0.42-0.1-0.65-0.1c-0.1,0-0.18-0.02-0.25-0.05c-0.57-0.13-0.77-0.4-0.6-0.8c0-0.03,0.02-0.07,0.05-0.1
			c0-0.03,0.02-0.05,0.05-0.05V40.9h0.15c0.63-0.23,1.2-0.23,1.7,0c0.07,0.03,0.15,0.08,0.25,0.15c0,0.03,0.05,0.07,0.15,0.1V41.3z
			 M13.95,39.75l0.1-0.1c0-0.03,0.02-0.05,0.05-0.05c0-0.03,0.03-0.05,0.1-0.05c0.1-0.03,0.23-0.07,0.4-0.1
			c0.47-0.03,0.87,0.05,1.2,0.25c0.13,0.13,0.17,0.27,0.1,0.4c-0.07,0.4-0.42,0.6-1.05,0.6c-0.17,0-0.33-0.05-0.5-0.15
			c-0.07,0-0.15-0.03-0.25-0.1c-0.03,0-0.05-0.02-0.05-0.05L14,40.35c-0.03,0-0.05-0.02-0.05-0.05c-0.03-0.07-0.05-0.13-0.05-0.2
			c0-0.1,0-0.17,0-0.2C13.9,39.87,13.92,39.82,13.95,39.75z M10.05,39.55c0.07,0.13,0.08,0.25,0.05,0.35
			c-0.03,0.43-0.42,0.63-1.15,0.6c-0.4,0-0.68-0.13-0.85-0.4v-0.75l0.1-0.05c0-0.03,0.02-0.05,0.05-0.05L8.3,39.2
			c0.23-0.13,0.5-0.17,0.8-0.1c0.2,0,0.35,0.05,0.45,0.15H9.6c0.07,0.07,0.15,0.12,0.25,0.15C9.85,39.47,9.92,39.52,10.05,39.55z
			 M25.6,31.85c0,0.03,0,0.07,0,0.1c-0.1,0.33-0.4,0.53-0.9,0.6c-0.3,0-0.55-0.08-0.75-0.25c-0.17-0.13-0.22-0.28-0.15-0.45
			C24.17,31.45,24.77,31.45,25.6,31.85z M31.45,32.3c-0.17-0.13-0.2-0.28-0.1-0.45c0.7-0.37,1.38-0.37,2.05,0
			c0.4,0.4,0.1,0.65-0.9,0.75C32.1,32.6,31.75,32.5,31.45,32.3z M19.45,39.55c0.43,0,0.7,0.12,0.8,0.35c0.07,0.03,0.1,0.1,0.1,0.2
			c0.1,0.13,0.12,0.27,0.05,0.4c-0.1,0.33-0.43,0.5-1,0.5c-0.03,0-0.1-0.02-0.2-0.05c-0.13,0-0.27-0.05-0.4-0.15
			c-0.07,0-0.1-0.02-0.1-0.05l-0.05-0.05c-0.07,0-0.1-0.02-0.1-0.05c-0.03-0.17-0.05-0.33-0.05-0.5c0-0.07,0.02-0.17,0.05-0.3
			l0.1-0.1h0.05c0.07-0.07,0.1-0.12,0.1-0.15c0.17-0.07,0.37-0.08,0.6-0.05H19.45z M24.75,40.95c0-0.03,0.02-0.05,0.05-0.05v-0.05
			c0-0.03,0.05-0.05,0.15-0.05c0-0.03,0.02-0.07,0.05-0.1c0.27-0.1,0.52-0.15,0.75-0.15c0.57,0,1.07,0.12,1.5,0.35
			c0.13,0.13,0.18,0.28,0.15,0.45l-0.05,0.15c0,0.13-0.07,0.28-0.2,0.45c-0.17,0.1-0.35,0.17-0.55,0.2c-0.17,0.1-0.35,0.17-0.55,0.2
			c-0.3,0-0.63-0.02-1-0.05c-0.07,0-0.15,0-0.25,0c-0.23,0-0.43-0.07-0.6-0.2c-0.23-0.13-0.35-0.28-0.35-0.45c0-0.03,0-0.08,0-0.15
			h0.1c0-0.03,0.03-0.07,0.1-0.1l0.05-0.05c0-0.03,0.03-0.05,0.1-0.05v-0.05c0.17-0.1,0.35-0.15,0.55-0.15
			C24.72,41.07,24.72,41.02,24.75,40.95z M20.5,44.75c-0.07-0.03-0.15-0.07-0.25-0.1c-0.17-0.13-0.18-0.32-0.05-0.55
			c0-0.03,0.02-0.08,0.05-0.15c0-0.03,0.03-0.05,0.1-0.05l0.05-0.05c0.17-0.1,0.35-0.15,0.55-0.15c0.3,0,0.57,0.07,0.8,0.2
			c0.07,0.13,0.15,0.25,0.25,0.35c-0.1,0-0.15,0.02-0.15,0.05c-0.03,0.33-0.33,0.53-0.9,0.6C20.82,44.9,20.67,44.85,20.5,44.75z
			 M34.05,36.4c0-0.03,0.02-0.07,0.05-0.1c0.2-0.07,0.38-0.1,0.55-0.1c0.33,0,0.57,0.07,0.7,0.2c0.13,0.13,0.2,0.25,0.2,0.35
			c-0.03,0.37-0.33,0.57-0.9,0.6c-0.07,0-0.17-0.02-0.3-0.05c-0.17-0.03-0.3-0.1-0.4-0.2c-0.23-0.13-0.28-0.32-0.15-0.55
			c0.03-0.03,0.08-0.05,0.15-0.05C33.95,36.44,33.98,36.4,34.05,36.4z M30.15,38.9c0,0.03,0,0.07,0,0.1
			c-0.03,0.33-0.32,0.52-0.85,0.55c-0.2,0-0.35-0.03-0.45-0.1c-0.1-0.03-0.2-0.08-0.3-0.15c-0.2-0.13-0.25-0.32-0.15-0.55
			c0.03-0.03,0.08-0.07,0.15-0.1c0-0.07,0.02-0.1,0.05-0.1l0.1-0.05c0.2-0.1,0.4-0.15,0.6-0.15c0.3,0,0.52,0.07,0.65,0.2
			C30.08,38.69,30.15,38.8,30.15,38.9z M36.45,40.9c0,0.06-0.02,0.13-0.05,0.2v0.05c-0.2,0.2-0.5,0.3-0.9,0.3
			c-0.13,0-0.22-0.02-0.25-0.05c-0.2-0.03-0.4-0.13-0.6-0.3c-0.03,0-0.05-0.03-0.05-0.1c-0.03-0.1-0.03-0.22,0-0.35
			c0-0.07,0.02-0.1,0.05-0.1l0.1-0.05c0.03-0.07,0.08-0.12,0.15-0.15c0.17-0.07,0.37-0.1,0.6-0.1c0.33,0,0.63,0.07,0.9,0.2
			c0.07,0.17,0.08,0.3,0.05,0.4V40.9z M28.55,44.35c-0.07,0-0.1-0.02-0.1-0.05c-0.03,0-0.05-0.02-0.05-0.05
			c-0.07-0.13-0.07-0.27,0-0.4c0.2-0.23,0.48-0.35,0.85-0.35c1.13-0.03,1.45,0.27,0.95,0.9c-0.07,0.03-0.18,0.07-0.35,0.1
			c-0.17,0.1-0.35,0.15-0.55,0.15c-0.1-0.03-0.23-0.07-0.4-0.1c-0.1-0.03-0.2-0.07-0.3-0.1c-0.03,0-0.05-0.02-0.05-0.05V44.35z
			 M49.15,35.7h0.05c0.07,0,0.17,0,0.3,0c0.27,0,0.48,0,0.65,0c0.07,0.07,0.15,0.13,0.25,0.2c0.13,0.13,0.17,0.25,0.1,0.35
			c0,0.43-0.33,0.65-1,0.65c-0.3,0-0.55-0.12-0.75-0.35c-0.03,0-0.12,0.02-0.25,0.05c-0.03-0.03-0.08-0.05-0.15-0.05
			c0,0.03,0,0.08,0,0.15c0,0.13-0.08,0.22-0.25,0.25c-0.77,0.33-1.65,0.55-2.65,0.65c-0.03,0-0.08-0.02-0.15-0.05
			c-0.23,0-0.42-0.05-0.55-0.15c-0.23-0.17-0.28-0.37-0.15-0.6c0.1-0.03,0.15-0.07,0.15-0.1h0.1c0-0.07,0.02-0.12,0.05-0.15
			c0.27-0.03,0.53-0.12,0.8-0.25c0.17-0.07,0.37-0.12,0.6-0.15c0.53-0.1,0.97-0.1,1.3,0c-0.03-0.17-0.03-0.33,0-0.5
			c0.1-0.07,0.15-0.12,0.15-0.15h0.05c0-0.07,0.02-0.1,0.05-0.1c0.4-0.17,0.72-0.17,0.95,0C48.93,35.5,49.05,35.6,49.15,35.7z
			 M44.85,33.2c-0.17-0.03-0.32-0.1-0.45-0.2c-0.13-0.17-0.17-0.33-0.1-0.5c0-0.03,0.03-0.07,0.1-0.1l0.15-0.05
			c0-0.03,0.02-0.07,0.05-0.1c0.2-0.1,0.4-0.15,0.6-0.15c0.37,0,0.65,0.08,0.85,0.25c0.13,0.13,0.17,0.25,0.1,0.35
			c-0.03,0.4-0.35,0.6-0.95,0.6C45.1,33.3,44.98,33.27,44.85,33.2z M49.05,39.55c0.3-0.07,0.55-0.07,0.75,0
			c0.53,0.27,0.8,0.52,0.8,0.75c0,0.27-0.32,0.5-0.95,0.7c-0.03,0-0.08-0.02-0.15-0.05c-0.07,0-0.13-0.02-0.2-0.05
			c-0.1,0-0.2-0.03-0.3-0.1c-0.03-0.07-0.12-0.15-0.25-0.25c-0.03-0.07-0.08-0.13-0.15-0.2c-0.1-0.1-0.15-0.18-0.15-0.25
			c-0.07-0.1-0.07-0.18,0-0.25c0.03-0.07,0.08-0.1,0.15-0.1c0-0.03,0.03-0.05,0.1-0.05c0-0.03,0.02-0.07,0.05-0.1
			C48.88,39.57,48.98,39.55,49.05,39.55z M46.55,38.3c0-0.1,0.02-0.15,0.05-0.15c0-0.03,0.02-0.05,0.05-0.05
			c0-0.03,0.03-0.07,0.1-0.1c0.37-0.17,0.72-0.13,1.05,0.1c0.9,0.57,0.88,1-0.05,1.3c0.13,0.13,0.22,0.25,0.25,0.35
			c0.07,0.27-0.22,0.48-0.85,0.65c-0.03-0.03-0.08-0.05-0.15-0.05c-0.03,0-0.07,0-0.1,0c-0.23-0.03-0.42-0.12-0.55-0.25
			c-0.03-0.03-0.05-0.08-0.05-0.15c-0.03-0.17-0.03-0.33,0-0.5c0.03-0.07,0.12-0.12,0.25-0.15v-0.05l0.1-0.1
			c-0.03-0.07-0.07-0.12-0.1-0.15C46.38,38.77,46.38,38.53,46.55,38.3z M54.05,36.7l0.05,0.05c0.13,0.13,0.17,0.28,0.1,0.45
			c-0.13,0.43-0.58,0.62-1.35,0.55c-0.5-0.03-0.78-0.22-0.85-0.55c-0.03-0.07-0.03-0.17,0-0.3l0.05-0.1l0.05-0.05h0.1
			c0-0.03,0.03-0.05,0.1-0.05c0.13-0.1,0.3-0.15,0.5-0.15c0.13-0.03,0.32-0.03,0.55,0C53.65,36.55,53.88,36.6,54.05,36.7z
			 M43.7,36.5c-0.03,0.3-0.33,0.48-0.9,0.55c-0.23,0-0.47-0.1-0.7-0.3c-0.2-0.13-0.23-0.32-0.1-0.55c0.03-0.03,0.07-0.07,0.1-0.1
			c0-0.03,0.02-0.05,0.05-0.05c0-0.03,0.02-0.05,0.05-0.05c0.2-0.1,0.4-0.15,0.6-0.15c0.33,0,0.58,0.07,0.75,0.2
			C43.68,36.19,43.73,36.33,43.7,36.5z M42,40.35c0.03,0.07,0.03,0.13,0,0.2c-0.07,0.4-0.42,0.6-1.05,0.6
			c-0.27,0-0.52-0.08-0.75-0.25c-0.13-0.17-0.17-0.35-0.1-0.55l0.1-0.05l0.15-0.1c0-0.03,0.02-0.07,0.05-0.1
			c0.17-0.1,0.35-0.15,0.55-0.15c0.33,0,0.57,0.05,0.7,0.15c0.1,0.03,0.17,0.07,0.2,0.1C41.88,40.27,41.93,40.32,42,40.35z
			 M68.25,50.4c-0.17,0.07-0.33,0.1-0.5,0.1c-0.53-0.03-0.82-0.22-0.85-0.55c0-0.03-0.03-0.07-0.1-0.1c0.07-0.07,0.13-0.17,0.2-0.3
			c0.23-0.13,0.48-0.2,0.75-0.2s0.47,0.03,0.6,0.1c0.03,0.03,0.05,0.07,0.05,0.1c0.07,0,0.1,0.02,0.1,0.05
			c0.03,0.03,0.07,0.08,0.1,0.15c0.1,0.2,0.07,0.38-0.1,0.55C68.4,50.33,68.32,50.37,68.25,50.4z M60.35,49.45
			c0.07,0.17,0.07,0.32,0,0.45c0,0.03-0.02,0.05-0.05,0.05h-0.1v0.1c-0.13,0.07-0.27,0.1-0.4,0.1c-0.13,0.03-0.23,0.08-0.3,0.15
			c-0.23,0-0.43-0.05-0.6-0.15c-0.17-0.07-0.28-0.12-0.35-0.15c-0.5-0.6-0.17-0.88,1-0.85C59.88,49.15,60.15,49.25,60.35,49.45z"/>
		<path fill-rule="evenodd" clip-rule="evenodd" fill="#84868B" d="M69.9,33c0.1,0.13,0.13,0.25,0.1,0.35
			c-0.03,0.37-0.32,0.57-0.85,0.6c-0.27,0-0.5-0.07-0.7-0.2c-0.2-0.13-0.23-0.33-0.1-0.6c0.03-0.03,0.07-0.05,0.1-0.05
			c0-0.07,0.02-0.1,0.05-0.1c0-0.03,0.02-0.05,0.05-0.05c0.17-0.1,0.37-0.15,0.6-0.15C69.48,32.8,69.73,32.87,69.9,33z M70.25,33.4
			c-0.2-0.2-0.13-0.3,0.2-0.3c1.83-0.27,2-0.03,0.5,0.7C70.62,33.8,70.38,33.67,70.25,33.4z M60.45,32.2c1-0.2,1.5-0.2,1.5,0
			c0,0.13-0.27,0.37-0.8,0.7c-0.27,0-0.53-0.1-0.8-0.3C60.12,32.4,60.15,32.27,60.45,32.2z M64.3,33.75c-0.27,0.13-0.5,0.27-0.7,0.4
			c-0.2,0-0.42-0.08-0.65-0.25c-0.3-0.23-0.28-0.37,0.05-0.4c0.27-0.1,0.5-0.15,0.7-0.15c0,0.13,0.07,0.23,0.2,0.3
			C64,33.72,64.13,33.75,64.3,33.75z M61.4,35.95c-0.27,0-0.5-0.08-0.7-0.25c-0.27-0.23-0.25-0.37,0.05-0.4
			C62.45,34.94,62.67,35.15,61.4,35.95z M74.9,37.75c0.03-0.03,0.08-0.08,0.15-0.15c0-0.03,0.02-0.05,0.05-0.05
			c0-0.03,0.02-0.05,0.05-0.05c0.17-0.1,0.35-0.15,0.55-0.15c0.3,0,0.55,0.07,0.75,0.2c0.03,0.1,0.07,0.17,0.1,0.2
			c1.33-0.23,1.42,0.02,0.25,0.75c-0.2,0-0.37-0.05-0.5-0.15c-0.13,0.1-0.33,0.17-0.6,0.2c-0.23,0-0.45-0.08-0.65-0.25
			C74.78,38.17,74.73,37.98,74.9,37.75z M74.1,41.6c-0.27-0.2-0.25-0.35,0.05-0.45c1.73-0.3,1.93-0.05,0.6,0.75
			C74.52,41.9,74.3,41.8,74.1,41.6z M13.8,36.8c-0.03-0.37,0.13-0.53,0.5-0.5c2.07,0.2,2.25,0.58,0.55,1.15
			C14.22,37.42,13.87,37.2,13.8,36.8z M13.2,33.2c1.73-0.33,1.97-0.1,0.7,0.7c-0.3,0-0.55-0.08-0.75-0.25
			C12.92,33.42,12.93,33.27,13.2,33.2z M27.9,31.85c-0.07,0.03-0.18,0.1-0.35,0.2c-0.2,0-0.43-0.07-0.7-0.2
			C27.22,31.38,27.57,31.38,27.9,31.85z M31.3,34.55c-0.3,0-0.55-0.07-0.75-0.2c-0.27-0.27-0.23-0.42,0.1-0.45
			C32.35,33.53,32.57,33.75,31.3,34.55z M22.1,36.75c-0.23-0.17-0.22-0.3,0.05-0.4c1.73-0.33,1.95-0.1,0.65,0.7
			C22.53,37.05,22.3,36.95,22.1,36.75z M24.55,33.55c-0.23-0.23-0.18-0.37,0.15-0.4c1.7-0.37,1.93-0.15,0.7,0.65
			C25.1,33.8,24.82,33.72,24.55,33.55z M34.4,34.8c-0.17-0.17-0.12-0.27,0.15-0.3c1.5-0.33,1.83-0.18,1,0.45
			c-0.2-0.13-0.45-0.2-0.75-0.2C34.63,34.75,34.5,34.77,34.4,34.8z M20.35,36c-0.23,0-0.48-0.08-0.75-0.25
			c-0.27-0.23-0.25-0.37,0.05-0.4C21.42,34.98,21.65,35.2,20.35,36z M35.55,38.2c-0.03,0-0.12,0-0.25,0
			c-0.33-0.03-0.63,0.02-0.9,0.15c-0.03,0-0.05,0.03-0.05,0.1c-0.03-0.07-0.1-0.1-0.2-0.1c-0.03,0-0.05-0.02-0.05-0.05
			c-0.03,0-0.05-0.03-0.05-0.1c-0.07,0-0.1-0.02-0.1-0.05c-0.13-0.27-0.02-0.5,0.35-0.7l0.05-0.05c0,0.1,0.07,0.22,0.2,0.35
			c0.17,0.13,0.38,0.2,0.65,0.2c0.23,0,0.43-0.05,0.6-0.15C35.9,37.94,35.82,38.07,35.55,38.2z M28.35,36.95
			c-0.23,0-0.47-0.08-0.7-0.25c-0.27-0.23-0.25-0.38,0.05-0.45C29.4,35.92,29.62,36.15,28.35,36.95z M47.25,33.3
			c1.7-0.33,1.88-0.12,0.55,0.65c-0.23,0-0.45-0.07-0.65-0.2C46.88,33.48,46.92,33.33,47.25,33.3z M49.15,35.7c0.67-0.13,1-0.13,1,0
			c-0.17,0-0.38,0-0.65,0c-0.13,0-0.23,0-0.3,0H49.15z M37.6,32.95c1.8-0.27,2,0.02,0.6,0.85c-0.4-0.03-0.67-0.18-0.8-0.45
			C37.27,33.12,37.33,32.98,37.6,32.95z M52.8,35.65c-0.13-0.1-0.08-0.18,0.15-0.25c1.23-0.23,1.7-0.18,1.4,0.15
			c-0.13-0.03-0.28-0.05-0.45-0.05c-0.07,0-0.12,0-0.15,0c-0.17,0-0.3,0-0.4,0C53.12,35.5,52.93,35.55,52.8,35.65z M39.2,38.45
			c-0.03,0-0.05,0.02-0.05,0.05l-0.05,0.05c-0.07,0.07-0.1,0.12-0.1,0.15c-0.13,0.1-0.3,0.22-0.5,0.35c-0.23,0-0.47-0.1-0.7-0.3
			c-0.27-0.17-0.23-0.3,0.1-0.4c1-0.17,1.43-0.17,1.3,0V38.45z"/>
		<path fill-rule="evenodd" clip-rule="evenodd" fill="#7E8089" d="M74.7,33.3c-0.2-0.13-0.22-0.32-0.05-0.55
			c0-0.07,0.02-0.12,0.05-0.15h0.05c0-0.03,0.05-0.07,0.15-0.1c0.17-0.07,0.37-0.1,0.6-0.1c0.27,0,0.48,0.07,0.65,0.2
			c0.13,0.13,0.18,0.25,0.15,0.35c-0.07,0.37-0.33,0.57-0.8,0.6C75.23,33.55,74.97,33.47,74.7,33.3z M81.55,31.9
			c0.3,0,0.53,0.07,0.7,0.2c0.13,0.1,0.2,0.2,0.2,0.3v0.05c-0.1,0.33-0.4,0.55-0.9,0.65c-0.3,0-0.55-0.1-0.75-0.3
			c-0.2-0.13-0.23-0.32-0.1-0.55c0.03-0.07,0.07-0.12,0.1-0.15h0.1c0-0.03,0.02-0.07,0.05-0.1C81.12,31.94,81.32,31.9,81.55,31.9z
			 M78.7,35.2c0.17-0.07,0.35-0.1,0.55-0.1c0.33,0,0.58,0.07,0.75,0.2c0.13,0.13,0.17,0.27,0.1,0.4c-0.03,0.33-0.32,0.52-0.85,0.55
			c-0.23,0-0.45-0.08-0.65-0.25c-0.23-0.13-0.28-0.3-0.15-0.5c0.07-0.07,0.12-0.12,0.15-0.15c0-0.03,0.02-0.05,0.05-0.05L78.7,35.2z
			 M13.35,31.55l0.05-0.05c0.53-0.13,1.02-0.13,1.45,0c0.03,0,0.1,0.02,0.2,0.05c0.1,0.17,0.13,0.3,0.1,0.4
			c-0.07,0.43-0.45,0.63-1.15,0.6c-0.4,0-0.68-0.13-0.85-0.4c-0.07-0.13-0.07-0.27,0-0.4c0-0.03,0.03-0.07,0.1-0.1l0.05-0.05
			C13.3,31.57,13.32,31.55,13.35,31.55z M43.95,32.15c-0.03,0-0.07,0-0.1,0c-0.27-0.07-0.43-0.17-0.5-0.3c0.63-0.4,1.2-0.4,1.7,0
			c-0.13,0.13-0.43,0.25-0.9,0.35C44.12,32.17,44.05,32.15,43.95,32.15z"/>
		<path fill-rule="evenodd" clip-rule="evenodd" fill="#818588" d="M59.6,33.15c-0.03,0.33-0.32,0.53-0.85,0.6
			c-0.27,0-0.5-0.08-0.7-0.25c-0.23-0.13-0.28-0.32-0.15-0.55c0.03-0.03,0.08-0.08,0.15-0.15c0-0.03,0.02-0.05,0.05-0.05
			c0-0.03,0.02-0.07,0.05-0.1c0.17-0.07,0.37-0.1,0.6-0.1c0.33,0,0.58,0.07,0.75,0.2C59.63,32.89,59.67,33.02,59.6,33.15z
			 M64.3,33.75c-0.17,0-0.3-0.03-0.4-0.1c-0.13-0.07-0.2-0.17-0.2-0.3c0-0.1,0.03-0.18,0.1-0.25c0.03-0.07,0.07-0.12,0.1-0.15H64
			c0-0.03,0.02-0.05,0.05-0.05c0.2-0.13,0.4-0.2,0.6-0.2c0.33,0,0.58,0.08,0.75,0.25c0.1,0.13,0.13,0.25,0.1,0.35
			c0,0.33-0.28,0.53-0.85,0.6C64.55,33.9,64.43,33.85,64.3,33.75z M57.65,40.55c0.03-0.07,0.07-0.12,0.1-0.15
			c0-0.03,0.05-0.05,0.15-0.05V40.3c0.3-0.13,0.6-0.13,0.9,0h0.1c0.93,0.43,0.83,0.82-0.3,1.15c-0.3,0-0.53-0.1-0.7-0.3
			C57.6,40.98,57.52,40.78,57.65,40.55z M56.55,38.15c-0.03-0.03-0.05-0.07-0.05-0.1c0-0.07,0-0.15,0-0.25
			c0-0.03,0.02-0.07,0.05-0.1c0.07-0.1,0.12-0.17,0.15-0.2h0.05c0-0.03,0.03-0.07,0.1-0.1c0.33-0.13,0.62-0.13,0.85,0
			c0.93,0.5,0.85,0.88-0.25,1.15c-0.07,0-0.2-0.02-0.4-0.05c-0.1-0.03-0.2-0.08-0.3-0.15c-0.03,0-0.05-0.02-0.05-0.05
			c-0.03,0-0.05-0.03-0.05-0.1C56.58,38.2,56.55,38.19,56.55,38.15z M55.9,38.5c1.03,0.47,0.9,0.88-0.4,1.25
			c-0.07-0.03-0.15-0.05-0.25-0.05c-0.03,0-0.08,0-0.15,0c-0.73-0.4-0.73-0.8,0-1.2C55.4,38.4,55.67,38.4,55.9,38.5z M44.85,33.2
			c-0.23,0.23-0.6,0.33-1.1,0.3c-0.43,0-0.7-0.13-0.8-0.4c-0.13-0.13-0.13-0.28,0-0.45c0-0.03,0.02-0.05,0.05-0.05l0.05-0.05
			c0-0.03,0.02-0.05,0.05-0.05c0-0.03,0.03-0.07,0.1-0.1c0.3-0.1,0.62-0.13,0.95-0.1c0.1,0,0.23,0.02,0.4,0.05L44.4,32.4
			c-0.07,0.03-0.1,0.07-0.1,0.1c-0.07,0.17-0.03,0.33,0.1,0.5C44.53,33.1,44.68,33.17,44.85,33.2z M53.25,32.35
			c0.2-0.1,0.42-0.15,0.65-0.15c0.3,0,0.53,0.07,0.7,0.2c0.13,0.13,0.18,0.27,0.15,0.4c-0.03,0.33-0.32,0.52-0.85,0.55
			c-0.27,0-0.52-0.07-0.75-0.2c-0.2-0.13-0.25-0.32-0.15-0.55c0.07-0.07,0.12-0.12,0.15-0.15c0-0.03,0.02-0.05,0.05-0.05
			L53.25,32.35z M54.35,35.55c0.07,0.07,0.15,0.12,0.25,0.15c0.13,0.17,0.18,0.3,0.15,0.4c-0.03,0.3-0.27,0.5-0.7,0.6
			c-0.17-0.1-0.4-0.15-0.7-0.15c-0.23-0.03-0.42-0.03-0.55,0c-0.13-0.03-0.22-0.08-0.25-0.15c-0.13-0.17-0.15-0.33-0.05-0.5
			c0-0.03,0.02-0.07,0.05-0.1l0.05-0.05c0.07-0.03,0.13-0.07,0.2-0.1c0.13-0.1,0.32-0.15,0.55-0.15c0.1,0,0.23,0,0.4,0
			c0.03,0,0.08,0,0.15,0C54.07,35.5,54.22,35.52,54.35,35.55z"/>
		<path fill-rule="evenodd" clip-rule="evenodd" fill="#818387" d="M62.1,36.7c0.03,0.03,0.08,0.05,0.15,0.05
			c0.23,0.1,0.38,0.15,0.45,0.15c0.4-0.1,0.63-0.22,0.7-0.35c0.2,0.03,0.33,0.1,0.4,0.2c0.13,0.13,0.17,0.28,0.1,0.45
			c-0.13,0.4-0.53,0.58-1.2,0.55c-0.4,0-0.68-0.15-0.85-0.45c-0.13-0.13-0.13-0.27,0-0.4l0.05-0.1l0.05-0.05h0.15V36.7z M61.3,40.35
			c0-0.1,0-0.2,0-0.3c0.07-0.07,0.13-0.12,0.2-0.15v-0.05l0.05-0.1c0.2-0.07,0.4-0.1,0.6-0.1c0.33,0,0.6,0.07,0.8,0.2
			c0.1,0.17,0.15,0.3,0.15,0.4c0,0.03,0,0.07,0,0.1c-0.1,0.27-0.42,0.43-0.95,0.5c-0.27,0-0.48-0.1-0.65-0.3
			C61.37,40.48,61.3,40.42,61.3,40.35z M72.25,38.7h0.05c0-0.03,0.02-0.08,0.05-0.15c0.2-0.03,0.4-0.05,0.6-0.05
			c0.33,0,0.58,0.07,0.75,0.2c0.13,0.13,0.18,0.25,0.15,0.35c-0.07,0.33-0.37,0.53-0.9,0.6c-0.27,0-0.5-0.08-0.7-0.25
			c-0.2-0.13-0.25-0.32-0.15-0.55C72.17,38.78,72.22,38.73,72.25,38.7z M71.1,36.8c0-0.03,0.02-0.05,0.05-0.05
			c0.4-0.13,0.77-0.13,1.1,0c0.97,0.43,0.9,0.82-0.2,1.15c-0.23-0.03-0.5-0.1-0.8-0.2c-0.33-0.2-0.45-0.45-0.35-0.75
			c0.03-0.03,0.08-0.05,0.15-0.05C71.05,36.83,71.07,36.8,71.1,36.8z M80.95,38.85c0.1,0.13,0.13,0.27,0.1,0.4
			c-0.03,0.33-0.32,0.53-0.85,0.6c-0.27,0-0.5-0.1-0.7-0.3c-0.23-0.13-0.3-0.32-0.2-0.55c0.1-0.03,0.17-0.07,0.2-0.1
			c0-0.03,0.02-0.05,0.05-0.05c0-0.07,0.02-0.1,0.05-0.1c0.17-0.07,0.37-0.1,0.6-0.1C80.53,38.65,80.78,38.72,80.95,38.85z"/>
		<path fill-rule="evenodd" clip-rule="evenodd" fill="#54555C" d="M64.5,38.95V38.9c0-0.03,0.02-0.05,0.05-0.05
			c0-0.07,0.02-0.1,0.05-0.1c0.33-0.13,0.65-0.17,0.95-0.1c0.37,0,0.63,0.07,0.8,0.2c0.13,0.13,0.17,0.28,0.1,0.45
			c-0.13,0.4-0.55,0.58-1.25,0.55c-0.43,0-0.72-0.15-0.85-0.45c-0.03-0.1-0.03-0.23,0-0.4L64.5,38.95z M59.85,41.95
			c-0.1,0-0.23,0-0.4,0c-0.23,0-0.45,0.05-0.65,0.15c-0.03,0-0.05,0.02-0.05,0.05h-0.1c-0.03,0.07-0.07,0.12-0.1,0.15
			c-0.03,0.1-0.05,0.18-0.05,0.25c-0.13-0.03-0.27-0.12-0.4-0.25c-0.13-0.13-0.15-0.3-0.05-0.5c0-0.03,0.02-0.07,0.05-0.1h0.05
			c0.07-0.07,0.12-0.12,0.15-0.15c0.17-0.07,0.37-0.1,0.6-0.1c0.37,0,0.65,0.07,0.85,0.2C59.88,41.82,59.92,41.92,59.85,41.95z
			 M67.9,41.65c0-0.03,0-0.07,0-0.1c0.2-0.07,0.4-0.1,0.6-0.1c0.23,0,0.45,0.03,0.65,0.1c0,0.03,0.03,0.07,0.1,0.1
			c0.1,0.17,0.13,0.3,0.1,0.4c-0.03,0.33-0.32,0.53-0.85,0.6c-0.23,0-0.47-0.1-0.7-0.3c-0.2-0.13-0.27-0.28-0.2-0.45v-0.1
			c0.03-0.07,0.1-0.1,0.2-0.1C67.8,41.67,67.83,41.65,67.9,41.65z M67.55,39l0.05-0.05c0.2-0.13,0.42-0.2,0.65-0.2
			c0.3,0,0.53,0.08,0.7,0.25c0.13,0.17,0.17,0.3,0.1,0.4c-0.03,0.33-0.3,0.52-0.8,0.55c-0.23,0-0.48-0.07-0.75-0.2
			c-0.2-0.13-0.25-0.32-0.15-0.55c0.07-0.07,0.12-0.12,0.15-0.15C67.5,39.02,67.52,39,67.55,39z M14.95,41.3L15,41.25
			c0.17-0.1,0.35-0.15,0.55-0.15c0.33,0,0.6,0.07,0.8,0.2c0.13,0.13,0.17,0.27,0.1,0.4c-0.03,0.3-0.33,0.5-0.9,0.6
			c-0.23,0-0.45-0.08-0.65-0.25c-0.2-0.17-0.23-0.35-0.1-0.55c0.03-0.07,0.07-0.12,0.1-0.15C14.9,41.32,14.92,41.3,14.95,41.3z
			 M28.55,44.35c-0.13,0.23-0.42,0.38-0.85,0.45c-0.23,0-0.45-0.08-0.65-0.25c-0.3-0.13-0.38-0.3-0.25-0.5
			c0.07-0.1,0.15-0.15,0.25-0.15c0-0.03,0.02-0.05,0.05-0.05c0-0.03,0.02-0.07,0.05-0.1c0.17-0.1,0.35-0.15,0.55-0.15
			c0.3,0,0.53,0.08,0.7,0.25c-0.07,0.13-0.07,0.27,0,0.4c0,0.03,0.02,0.05,0.05,0.05C28.45,44.33,28.48,44.35,28.55,44.35z
			 M44.75,46.55h0.1c0-0.03,0.02-0.07,0.05-0.1c0.17-0.07,0.35-0.1,0.55-0.1c0.33,0,0.57,0.07,0.7,0.2
			c0.13,0.13,0.18,0.25,0.15,0.35c-0.03,0.37-0.32,0.57-0.85,0.6c-0.23,0-0.47-0.07-0.7-0.2c-0.23-0.17-0.28-0.37-0.15-0.6
			C44.7,46.67,44.75,46.62,44.75,46.55z M52.9,42.95c0,0.03,0,0.07,0,0.1c-0.03,0.33-0.32,0.52-0.85,0.55
			c-0.27,0-0.52-0.08-0.75-0.25c-0.13-0.1-0.18-0.23-0.15-0.4c0-0.03,0-0.07,0-0.1c0.1-0.07,0.15-0.12,0.15-0.15
			s0.02-0.05,0.05-0.05l0.05-0.05c0.2-0.1,0.42-0.15,0.65-0.15c0.3,0,0.55,0.07,0.75,0.2C52.87,42.78,52.9,42.89,52.9,42.95z
			 M42.55,52.2c0.17-0.17,0.42-0.25,0.75-0.25c0.23,0,0.43,0.05,0.6,0.15c0.03,0.03,0.05,0.07,0.05,0.1H44
			c0,0.03,0.07,0.08,0.2,0.15c0.1,0.23,0.03,0.42-0.2,0.55c-0.23,0.17-0.47,0.25-0.7,0.25c-0.53-0.07-0.82-0.27-0.85-0.6
			C42.45,52.45,42.48,52.33,42.55,52.2z M35.85,48.6c0.6-0.9,1.2-0.9,1.8,0c0.03,0.13-0.03,0.27-0.2,0.4
			c-0.23,0.17-0.48,0.25-0.75,0.25c-0.53-0.07-0.82-0.25-0.85-0.55C35.85,48.67,35.85,48.64,35.85,48.6z M60.2,49.95h0.1
			c0.03,0,0.05-0.02,0.05-0.05c0.07-0.13,0.07-0.28,0-0.45c0.17-0.13,0.4-0.2,0.7-0.2c0.23,0,0.42,0.05,0.55,0.15
			c0.03,0,0.05,0.02,0.05,0.05c0.03,0,0.05,0.02,0.05,0.05c0.07,0.03,0.15,0.08,0.25,0.15c0.13,0.2,0.05,0.37-0.25,0.5
			c-0.2,0.2-0.42,0.3-0.65,0.3C60.62,50.39,60.33,50.22,60.2,49.95z"/>
		<path fill-rule="evenodd" clip-rule="evenodd" fill="#5A5D63" d="M65.25,43.75c0.07-0.03,0.12-0.08,0.15-0.15
			c0-0.03,0.03-0.05,0.1-0.05V43.5c0.37-0.1,0.72-0.1,1.05,0c1.07,0.4,1.02,0.78-0.15,1.15c-0.23-0.03-0.52-0.1-0.85-0.2
			C65.25,44.25,65.15,44.02,65.25,43.75z M64.8,47.45c-0.2,0-0.45-0.1-0.75-0.3c-0.23-0.13-0.28-0.3-0.15-0.5
			c0.07-0.07,0.12-0.12,0.15-0.15c0-0.03,0.03-0.05,0.1-0.05l0.15-0.1c0.13-0.07,0.3-0.1,0.5-0.1c0.3,0,0.53,0.07,0.7,0.2
			c0.13,0.17,0.2,0.3,0.2,0.4C65.6,47.19,65.3,47.39,64.8,47.45z M56.4,44.5c0-0.03,0.02-0.05,0.05-0.05
			c0.17-0.1,0.37-0.15,0.6-0.15c0.27,0,0.5,0.07,0.7,0.2c0.13,0.13,0.18,0.27,0.15,0.4c0,0.3-0.28,0.5-0.85,0.6
			c-0.07,0-0.12,0-0.15,0l0.05,0.05c0.17,0.13,0.23,0.25,0.2,0.35c-0.07,0.37-0.37,0.57-0.9,0.6c-0.23,0-0.47-0.08-0.7-0.25
			c-0.23-0.13-0.28-0.32-0.15-0.55c0.07-0.03,0.12-0.08,0.15-0.15h0.05c0-0.03,0.02-0.07,0.05-0.1c0.2-0.1,0.4-0.15,0.6-0.15
			c0.1,0,0.16,0,0.2,0c-0.04,0-0.09-0.02-0.15-0.05c-0.2-0.13-0.23-0.33-0.1-0.6c0.03-0.03,0.07-0.07,0.1-0.1
			C56.3,44.52,56.33,44.5,56.4,44.5z M72.45,45.35c0-0.03,0.02-0.05,0.05-0.05c0.17-0.1,0.38-0.15,0.65-0.15s0.5,0.07,0.7,0.2
			c0.13,0.13,0.17,0.27,0.1,0.4c0,0.1-0.03,0.2-0.1,0.3c0.2,0.07,0.4,0.15,0.6,0.25c0.13,0.13,0.2,0.27,0.2,0.4
			c-0.1,0.3-0.4,0.5-0.9,0.6c-0.3-0.1-0.63-0.17-1-0.2C72.22,47,72,46.75,72.1,46.35c0.07-0.03,0.12-0.07,0.15-0.1
			c0-0.03,0.02-0.05,0.05-0.05c0-0.03,0.02-0.05,0.05-0.05h0.1l-0.1-0.05c-0.2-0.17-0.23-0.35-0.1-0.55c0.03-0.07,0.07-0.13,0.1-0.2
			H72.45z M74.45,44.8c-0.2-0.13-0.23-0.32-0.1-0.55c0.03-0.07,0.07-0.12,0.1-0.15h0.05c0-0.03,0.05-0.05,0.15-0.05
			c0.17-0.1,0.35-0.15,0.55-0.15c0.3,0,0.53,0.07,0.7,0.2c0.13,0.13,0.18,0.25,0.15,0.35C75.98,44.78,75.7,45,75.2,45.1
			C74.9,45.1,74.65,45,74.45,44.8z M66.75,45.95c0-0.03,0.03-0.07,0.1-0.1c0.2-0.07,0.4-0.1,0.6-0.1c0.3,0,0.55,0.07,0.75,0.2
			c0.13,0.13,0.18,0.27,0.15,0.4c-0.07,0.33-0.37,0.52-0.9,0.55c-0.27,0-0.52-0.07-0.75-0.2c-0.2-0.17-0.23-0.35-0.1-0.55
			c0.07-0.07,0.1-0.13,0.1-0.2H66.75z M69.45,42.15c0.2-0.07,0.4-0.1,0.6-0.1c0.33,0,0.58,0.07,0.75,0.2c0.1,0.13,0.13,0.27,0.1,0.4
			c0,0.13-0.05,0.23-0.15,0.3c-0.13,0.13-0.37,0.22-0.7,0.25c-0.23,0-0.47-0.08-0.7-0.25c-0.23-0.13-0.27-0.33-0.1-0.6
			c0.03-0.03,0.07-0.05,0.1-0.05c0-0.03,0.02-0.05,0.05-0.05C69.4,42.19,69.42,42.15,69.45,42.15z M78.9,43.75
			c0-0.03,0.02-0.05,0.05-0.05c0.17-0.1,0.37-0.15,0.6-0.15c0.3,0,0.55,0.07,0.75,0.2c0.13,0.13,0.17,0.25,0.1,0.35
			c0,0.37-0.28,0.57-0.85,0.6c-0.27,0-0.5-0.08-0.7-0.25c-0.2-0.13-0.25-0.32-0.15-0.55c0.07-0.03,0.12-0.07,0.15-0.1
			C78.85,43.77,78.87,43.75,78.9,43.75z M11.35,44.1c-0.03,0-0.05-0.02-0.05-0.05c-0.03,0-0.05-0.03-0.05-0.1V43.9
			c-0.1-0.03-0.15-0.07-0.15-0.1c0-0.07,0-0.15,0-0.25c0-0.03,0.05-0.08,0.15-0.15c0.43,0,0.93,0,1.5,0
			c0.37,0.37,0.12,0.67-0.75,0.9c-0.1,0-0.22-0.02-0.35-0.05C11.58,44.19,11.48,44.14,11.35,44.1z M9.7,46.35c0-0.1,0-0.18,0-0.25
			c0-0.1,0.03-0.15,0.1-0.15l0.05-0.1c0-0.07,0.02-0.1,0.05-0.1l0.15-0.05c0.23-0.13,0.48-0.13,0.75,0c0.93,0.5,0.87,0.88-0.2,1.15
			c-0.13,0-0.28-0.03-0.45-0.1c-0.07-0.03-0.15-0.07-0.25-0.1c-0.03,0-0.05-0.03-0.05-0.1V46.5c-0.03,0-0.05-0.02-0.05-0.05
			L9.7,46.35z M8.35,43.35c0.1-0.03,0.27-0.17,0.5-0.4c0.07-0.07,0.13-0.12,0.2-0.15c0.2-0.27,0.45-0.22,0.75,0.15
			c0.1,0.13,0.2,0.3,0.3,0.5c-0.03,0.3-0.3,0.47-0.8,0.5c-0.3,0-0.53-0.08-0.7-0.25C8.43,43.6,8.35,43.48,8.35,43.35z M13.6,41.3
			c0.1,0.1,0.13,0.2,0.1,0.3c-0.07,0.33-0.35,0.52-0.85,0.55c-0.27,0-0.52-0.07-0.75-0.2c0.23,0,0.45,0.03,0.65,0.1
			c0.47-0.07,0.75-0.27,0.85-0.6C13.6,41.39,13.6,41.33,13.6,41.3z M15.25,38.55c0-0.03,0.02-0.05,0.05-0.05l0.1-0.05
			c0.17-0.1,0.37-0.15,0.6-0.15c0.3,0,0.55,0.07,0.75,0.2c0.13,0.13,0.18,0.27,0.15,0.4c-0.07,0.33-0.37,0.53-0.9,0.6
			c-0.3,0-0.55-0.08-0.75-0.25s-0.23-0.35-0.1-0.55C15.18,38.6,15.22,38.55,15.25,38.55z M18.8,45.15c0.27,0,0.5,0.07,0.7,0.2
			c0.13,0.13,0.18,0.27,0.15,0.4c-0.07,0.33-0.35,0.53-0.85,0.6c-0.3,0-0.57-0.08-0.8-0.25c-0.2-0.17-0.22-0.35-0.05-0.55
			c0.03-0.07,0.05-0.13,0.05-0.2h0.1c0-0.03,0.03-0.05,0.1-0.05C18.37,45.2,18.57,45.15,18.8,45.15z M16.15,45.65
			c0.27,0,0.48,0.07,0.65,0.2c0.17,0.17,0.23,0.3,0.2,0.4c-0.07,0.33-0.35,0.53-0.85,0.6c-0.23,0-0.5-0.1-0.8-0.3
			c-0.2-0.13-0.23-0.3-0.1-0.5c0.03-0.07,0.07-0.12,0.1-0.15c0-0.03,0.03-0.05,0.1-0.05l0.1-0.1
			C15.75,45.69,15.95,45.65,16.15,45.65z M22,44.25c0.83,0.47,0.65,0.83-0.55,1.1c-0.03,0-0.08,0-0.15,0h-0.1
			c-0.3-0.07-0.52-0.2-0.65-0.4c-0.03-0.03-0.05-0.1-0.05-0.2c0.17,0.1,0.32,0.15,0.45,0.15c0.57-0.07,0.87-0.27,0.9-0.6
			C21.85,44.27,21.9,44.25,22,44.25z M29.75,44.9h0.05c0-0.07,0.02-0.12,0.05-0.15c0.2-0.07,0.42-0.1,0.65-0.1
			c0.3,0,0.53,0.08,0.7,0.25c0.13,0.13,0.18,0.25,0.15,0.35c-0.03,0.33-0.32,0.53-0.85,0.6c-0.27,0-0.52-0.1-0.75-0.3
			c-0.2-0.13-0.25-0.3-0.15-0.5C29.63,44.98,29.68,44.94,29.75,44.9z M30.75,47.5c0-0.03,0.02-0.07,0.05-0.1
			c0.17-0.07,0.37-0.1,0.6-0.1c0.13,0,0.25,0,0.35,0c0.13,0.03,0.23,0.1,0.3,0.2h0.15c0.1,0.13,0.12,0.25,0.05,0.35
			c0,0.1-0.02,0.17-0.05,0.2h-1.65c-0.1-0.1-0.1-0.23,0-0.4c0.07-0.07,0.12-0.12,0.15-0.15H30.75z M32.95,43.3
			c0.23,0,0.4,0.02,0.5,0.05c0.1,0.03,0.18,0.08,0.25,0.15c0.07,0.13,0.1,0.23,0.1,0.3c0,0.03,0,0.07,0,0.1
			c-0.03,0.33-0.32,0.52-0.85,0.55c-0.23,0-0.47-0.07-0.7-0.2s-0.3-0.32-0.2-0.55c0.1-0.1,0.17-0.15,0.2-0.15
			c0-0.03,0.03-0.05,0.1-0.05c0-0.03,0.02-0.07,0.05-0.1C32.57,43.33,32.75,43.3,32.95,43.3z M39.75,46.05
			c0.03-0.07,0.08-0.12,0.15-0.15c0-0.03,0.02-0.05,0.05-0.05l0.05-0.1c0.2-0.07,0.4-0.1,0.6-0.1c0.27,0,0.5,0.07,0.7,0.2
			c0.17,0.17,0.23,0.3,0.2,0.4c-0.03,0.33-0.33,0.53-0.9,0.6c-0.27,0-0.5-0.1-0.7-0.3C39.67,46.42,39.62,46.25,39.75,46.05z
			 M43.25,43.45c0.2-0.07,0.37-0.1,0.5-0.1c0.3,0,0.55,0.07,0.75,0.2c0.17,0.17,0.2,0.3,0.1,0.4c-0.03,0.27-0.2,0.43-0.5,0.5
			c0.03,0.07,0.07,0.12,0.1,0.15c0.13,0.13,0.17,0.25,0.1,0.35c-0.03,0.37-0.28,0.57-0.75,0.6c-0.3,0-0.57-0.08-0.8-0.25
			c-0.2-0.13-0.23-0.32-0.1-0.55c0.03-0.07,0.07-0.1,0.1-0.1V44.6h0.05c0-0.03,0.05-0.07,0.15-0.1c0.07-0.03,0.17-0.07,0.3-0.1
			c-0.1,0-0.17-0.03-0.2-0.1c-0.23-0.13-0.27-0.32-0.1-0.55c0.03-0.03,0.07-0.08,0.1-0.15c0-0.03,0.02-0.05,0.05-0.05l0.1-0.05
			L43.25,43.45z M48.95,45.55c0.17-0.13,0.35-0.2,0.55-0.2c0.33,0,0.58,0.1,0.75,0.3c0.17,0.13,0.22,0.23,0.15,0.3
			c-0.03,0.37-0.33,0.57-0.9,0.6c-0.23,0-0.47-0.07-0.7-0.2c-0.2-0.13-0.22-0.33-0.05-0.6c0-0.03,0.02-0.07,0.05-0.1h0.15V45.55z
			 M46.75,47.7c0.03-0.03,0.08-0.07,0.15-0.1c0-0.03,0.02-0.05,0.05-0.05c0-0.03,0.02-0.05,0.05-0.05c0.17-0.1,0.35-0.15,0.55-0.15
			c0.3,0,0.55,0.07,0.75,0.2c0.13,0.13,0.18,0.27,0.15,0.4v0.1h-1.8C46.62,47.95,46.65,47.83,46.75,47.7z M55.3,49
			c0.13-0.07,0.3-0.1,0.5-0.1c0.23,0,0.42,0.05,0.55,0.15c0.03,0.03,0.05,0.07,0.05,0.1h0.1c0.07,0.03,0.13,0.08,0.2,0.15
			c0.1,0.23,0.03,0.42-0.2,0.55c-0.2,0.17-0.43,0.25-0.7,0.25c-0.53-0.07-0.8-0.27-0.8-0.6c0-0.03,0-0.07,0-0.1
			c0-0.07,0.02-0.15,0.05-0.25C55.12,49.08,55.2,49.03,55.3,49z M46,50.2v0.1c0.03,0,0.07,0.03,0.1,0.1c0.17,0.2,0.13,0.38-0.1,0.55
			c-0.23,0.17-0.5,0.25-0.8,0.25c-0.47-0.03-0.72-0.23-0.75-0.6c-0.07-0.1-0.02-0.23,0.15-0.4c0.03-0.03,0.05-0.07,0.05-0.1
			c-0.3-0.1-0.45-0.27-0.45-0.5c-0.13-0.13-0.12-0.27,0.05-0.4C44.48,49.07,44.73,49,45,49c0.13,0,0.3,0.03,0.5,0.1l0.05,0.05
			c0.07,0,0.1,0.02,0.1,0.05c0.03,0,0.05,0.02,0.05,0.05c0.07,0.03,0.12,0.08,0.15,0.15c0.13,0.23,0.08,0.42-0.15,0.55
			C45.67,49.98,45.6,50,45.5,50c0.13,0.03,0.25,0.08,0.35,0.15c0.07,0,0.1,0.02,0.1,0.05H46z M47.4,51.5c0.23-0.13,0.5-0.2,0.8-0.2
			c0.17,0,0.35,0.03,0.55,0.1l0.05,0.1c0.03,0,0.05,0.02,0.05,0.05c0.07,0,0.12,0.05,0.15,0.15c0.13,0.17,0.08,0.33-0.15,0.5
			c-0.23,0.17-0.45,0.25-0.65,0.25c-0.6-0.03-0.92-0.22-0.95-0.55C47.22,51.77,47.27,51.64,47.4,51.5z M41.1,52.95
			c0.2,0,0.4,0.05,0.6,0.15v0.05c0.03,0,0.05,0.03,0.05,0.1c0.03,0.03,0.08,0.07,0.15,0.1c0.07,0.1,0.08,0.22,0.05,0.35
			c-0.57,0.43-1.17,0.43-1.8,0c0-0.03,0-0.08,0-0.15c-0.03-0.1,0.02-0.23,0.15-0.4C40.5,53.02,40.77,52.95,41.1,52.95z M39.85,51.25
			c0.07,0,0.1,0.02,0.1,0.05c0.03,0.03,0.07,0.07,0.1,0.1c0.13,0.23,0.1,0.42-0.1,0.55c-0.23,0.17-0.48,0.25-0.75,0.25
			c-0.53-0.03-0.82-0.23-0.85-0.6c-0.07-0.07-0.02-0.18,0.15-0.35S38.9,51,39.2,51c0.23,0,0.43,0.05,0.6,0.15
			C39.83,51.19,39.85,51.22,39.85,51.25z M32.5,50.95c0.23,0,0.43,0.05,0.6,0.15l0.05,0.05c0.03,0,0.05,0.02,0.05,0.05
			c0.07,0.03,0.12,0.08,0.15,0.15c0.13,0.23,0.08,0.42-0.15,0.55c-0.23,0.17-0.47,0.25-0.7,0.25c-0.53-0.07-0.82-0.27-0.85-0.6
			c-0.03-0.13,0-0.27,0.1-0.4H31.7c-0.53-0.1-0.82-0.32-0.85-0.65c-0.03-0.1,0.02-0.22,0.15-0.35c0.2-0.13,0.43-0.2,0.7-0.2
			c0.23,0,0.43,0.03,0.6,0.1c0.03,0.03,0.05,0.07,0.05,0.1h0.1c0.03,0.03,0.08,0.08,0.15,0.15c0.13,0.23,0.08,0.43-0.15,0.6
			c-0.06,0.03-0.11,0.05-0.15,0.05C32.34,50.95,32.4,50.95,32.5,50.95z M23.2,50.05c-0.33,0.1-0.62,0.18-0.85,0.25
			c-1.13-0.37-1.18-0.75-0.15-1.15c0.33-0.13,0.68-0.13,1.05,0c0.03,0,0.05,0.02,0.05,0.05c0.03,0,0.05,0.02,0.05,0.05
			c0.03,0.03,0.08,0.08,0.15,0.15C23.63,49.67,23.53,49.89,23.2,50.05z M21.9,51.5l0.1,0.05c0.03,0,0.05,0.02,0.05,0.05
			c0.03,0.07,0.07,0.12,0.1,0.15c0.13,0.23,0.1,0.42-0.1,0.55c-0.23,0.17-0.48,0.25-0.75,0.25c-0.53-0.07-0.83-0.27-0.9-0.6
			c-0.03-0.13,0.03-0.27,0.2-0.4c0.17-0.13,0.4-0.2,0.7-0.2C21.5,51.35,21.7,51.4,21.9,51.5z M24.5,51.95
			c0.07,0.07,0.1,0.12,0.1,0.15c0.07,0,0.1,0.02,0.1,0.05c0.03,0.03,0.07,0.07,0.1,0.1c0.17,0.23,0.13,0.42-0.1,0.55
			c-0.27,0.17-0.52,0.25-0.75,0.25c-0.5-0.07-0.78-0.27-0.85-0.6c-0.03-0.1,0.02-0.22,0.15-0.35c0.17-0.13,0.4-0.2,0.7-0.2
			C24.15,51.9,24.33,51.92,24.5,51.95z M18.85,48.2c0.07,0,0.1,0.02,0.1,0.05c0.03,0,0.07,0.03,0.1,0.1c0.13,0.23,0.1,0.42-0.1,0.55
			c-0.3,0.17-0.57,0.25-0.8,0.25c-0.5-0.03-0.78-0.22-0.85-0.55c-0.03-0.13,0.03-0.27,0.2-0.4c0.13-0.13,0.35-0.2,0.65-0.2
			c0.2,0,0.38,0.03,0.55,0.1C18.8,48.14,18.85,48.17,18.85,48.2z M16.4,51c0.03,0.07,0.07,0.12,0.1,0.15
			c0.1,0.23,0.07,0.42-0.1,0.55l-0.05,0.05h0.05c0.03,0,0.05,0.03,0.05,0.1c0.03,0,0.05,0.02,0.05,0.05c0.07,0,0.12,0.02,0.15,0.05
			c0.1,0.43-0.1,0.7-0.6,0.8c-0.4,0.03-0.77,0.08-1.1,0.15c-0.47-0.07-0.73-0.27-0.8-0.6c-0.03-0.1,0.02-0.23,0.15-0.4
			c0.2-0.1,0.4-0.17,0.6-0.2c-0.03-0.1-0.05-0.22-0.05-0.35c-0.1-0.1-0.08-0.22,0.05-0.35c0.2-0.17,0.43-0.25,0.7-0.25
			c0.3,0,0.52,0.07,0.65,0.2c0.07,0,0.1,0.02,0.1,0.05H16.4z M12.75,50.1c-0.07-0.1-0.03-0.22,0.1-0.35
			c0.17-0.17,0.38-0.25,0.65-0.25c0.23,0,0.45,0.05,0.65,0.15c0.07,0.03,0.1,0.07,0.1,0.1h0.05c0.03,0.03,0.07,0.08,0.1,0.15
			c0.13,0.2,0.1,0.38-0.1,0.55c-0.2,0.17-0.47,0.25-0.8,0.25C13.03,50.64,12.78,50.44,12.75,50.1z M9.9,49.4
			c0.03,0.03,0.08,0.08,0.15,0.15c0.1,0.23,0.05,0.42-0.15,0.55c-0.2,0.17-0.43,0.25-0.7,0.25c-0.57-0.03-0.85-0.23-0.85-0.6
			c-0.03-0.1-0.02-0.22,0.05-0.35c0.23-0.17,0.5-0.25,0.8-0.25c0.2,0,0.4,0.05,0.6,0.15c0.03,0.03,0.05,0.07,0.05,0.1H9.9z
			 M79.9,48.6c0.23,0.2,0.4,0.33,0.5,0.4c0,0.13-0.07,0.25-0.2,0.35c-0.2,0.17-0.43,0.25-0.7,0.25c-0.5-0.07-0.78-0.23-0.85-0.5
			c0.1-0.2,0.2-0.37,0.3-0.5H79.9z M77.65,49.15c0,0.1,0,0.18,0,0.25c0,0.03-0.03,0.08-0.1,0.15c0,0.03-0.02,0.05-0.05,0.05
			c0,0.03-0.02,0.07-0.05,0.1c0,0.03-0.03,0.05-0.1,0.05c-0.1,0.03-0.18,0.07-0.25,0.1c-0.13,0.07-0.25,0.1-0.35,0.1
			c-0.87-0.23-1.12-0.53-0.75-0.9c0.5-0.43,1.02-0.43,1.55,0L77.65,49.15z M78.9,51.5c0.03,0,0.07,0.02,0.1,0.05
			s0.05,0.08,0.05,0.15c0,0.1,0,0.18,0,0.25L79,52.1c0,0.03-0.02,0.05-0.05,0.05c0,0.03-0.02,0.05-0.05,0.05
			c0,0.03-0.02,0.05-0.05,0.05c-0.1,0.07-0.2,0.12-0.3,0.15c-0.13,0.03-0.27,0.05-0.4,0.05c-1.03-0.27-1.1-0.63-0.2-1.1
			c0.27-0.13,0.53-0.13,0.8,0c0.07,0,0.1,0.02,0.1,0.05C78.88,51.4,78.9,51.44,78.9,51.5z M72.75,52.65
			c-0.27,0.17-0.53,0.25-0.8,0.25c-0.1,0-0.17-0.02-0.2-0.05c-0.03,0.03-0.1,0.05-0.2,0.05c-0.13,0-0.28-0.03-0.45-0.1
			c-0.1-0.03-0.25-0.07-0.45-0.1c-1-0.57-1.03-1.05-0.1-1.45c0.23-0.1,0.47-0.1,0.7,0c0.33,0.17,0.58,0.32,0.75,0.45
			c0.2,0,0.4,0.05,0.6,0.15l0.1,0.05c0.03,0,0.05,0.02,0.05,0.05l0.15,0.15C72.97,52.3,72.92,52.48,72.75,52.65z M66.8,49.85
			c0.07,0.03,0.1,0.07,0.1,0.1c0.03,0.33,0.32,0.52,0.85,0.55c0.17,0,0.33-0.03,0.5-0.1c0,0.07-0.02,0.12-0.05,0.15
			c-0.13,0.23-0.35,0.38-0.65,0.45H67.5c-0.1,0-0.17,0-0.2,0C66.1,50.73,65.93,50.35,66.8,49.85z M58.9,50.4
			c0.07,0.03,0.1,0.07,0.1,0.1c0.07,0.03,0.12,0.08,0.15,0.15c0.1,0.23,0.05,0.42-0.15,0.55c-0.23,0.2-0.47,0.3-0.7,0.3
			c-0.57-0.1-0.87-0.3-0.9-0.6c0-0.13,0.05-0.27,0.15-0.4c0.17-0.13,0.42-0.2,0.75-0.2C58.5,50.3,58.7,50.33,58.9,50.4z M57,52.95
			c0.13-0.03,0.27-0.05,0.4-0.05c0.2,0,0.38,0.03,0.55,0.1c0.03,0.03,0.05,0.07,0.05,0.1c0.03,0,0.05,0.02,0.05,0.05
			c0.03,0,0.08,0.05,0.15,0.15c0.13,0.13,0.13,0.27,0,0.4c-0.67,0.33-1.2,0.33-1.6,0c-0.07-0.07-0.1-0.13-0.1-0.2
			c-0.07-0.1-0.03-0.22,0.1-0.35c0.07,0,0.1-0.02,0.1-0.05C56.77,53,56.87,52.95,57,52.95z"/>
		<path fill-rule="evenodd" clip-rule="evenodd" fill="#5B5C64" d="M29.25,34.8c0.17-0.07,0.35-0.1,0.55-0.1
			c0.3,0,0.55,0.07,0.75,0.2c0.13,0.13,0.18,0.27,0.15,0.4c-0.03,0.3-0.33,0.48-0.9,0.55c-0.23,0-0.45-0.08-0.65-0.25
			c-0.27-0.13-0.32-0.32-0.15-0.55c0-0.07,0.05-0.12,0.15-0.15h0.05C29.2,34.83,29.22,34.8,29.25,34.8z M35,41.5
			c0.04,0,0.11,0,0.2,0c0.2,0.03,0.33,0.1,0.4,0.2c0.17,0.13,0.23,0.27,0.2,0.4c0,0.03-0.02,0.1-0.05,0.2
			c-0.13,0.23-0.4,0.37-0.8,0.4c-0.27,0-0.47-0.08-0.6-0.25H34.3c-0.3-0.13-0.37-0.32-0.2-0.55c0.03-0.07,0.1-0.12,0.2-0.15
			c0-0.03,0.02-0.05,0.05-0.05l0.05-0.05c0-0.03,0.05-0.07,0.15-0.1c0.07-0.03,0.2-0.05,0.4-0.05H35z M26.8,40.55
			c-0.2-0.13-0.25-0.3-0.15-0.5c0.1-0.07,0.15-0.12,0.15-0.15c0-0.03,0.03-0.05,0.1-0.05l0.15-0.1c0.13-0.07,0.3-0.1,0.5-0.1
			c0.33,0,0.58,0.07,0.75,0.2c0.1,0.17,0.13,0.3,0.1,0.4c-0.03,0.33-0.32,0.53-0.85,0.6C27.32,40.85,27.07,40.75,26.8,40.55z
			 M41.65,40.1c-0.13-0.1-0.37-0.15-0.7-0.15c-0.2,0-0.38,0.05-0.55,0.15c-0.03,0.03-0.05,0.07-0.05,0.1
			c-0.03-0.03-0.08-0.07-0.15-0.1c-0.07,0-0.12-0.02-0.15-0.05c-0.1-0.2-0.12-0.37-0.05-0.5c0-0.03,0.02-0.07,0.05-0.1l0.05-0.05
			c0.53-0.47,0.98-0.52,1.35-0.15h0.05c0.07,0,0.15,0.03,0.25,0.1c0.1,0.13,0.13,0.27,0.1,0.4v0.1C41.82,39.92,41.75,40,41.65,40.1z
			"/>
		<path fill-rule="evenodd" clip-rule="evenodd" fill="#6B6D73" d="M35.55,34.95c0.13,0.13,0.15,0.27,0.05,0.4
			c-0.03,0.33-0.3,0.53-0.8,0.6c-0.27,0-0.5-0.08-0.7-0.25c-0.23-0.13-0.28-0.33-0.15-0.6c0.07-0.03,0.12-0.07,0.15-0.1
			c0-0.03,0.02-0.05,0.05-0.05c0-0.03,0.05-0.05,0.15-0.05c0.03-0.07,0.07-0.1,0.1-0.1c0.1-0.03,0.23-0.05,0.4-0.05
			C35.1,34.75,35.35,34.82,35.55,34.95z M19.45,39.55c-0.07-0.13-0.07-0.28,0-0.45c0.03-0.07,0.08-0.1,0.15-0.1
			c0-0.03,0.02-0.05,0.05-0.05c0-0.03,0.02-0.07,0.05-0.1c0.2-0.1,0.42-0.15,0.65-0.15c0.33,0,0.58,0.08,0.75,0.25
			c0.07,0.13,0.1,0.25,0.1,0.35c-0.03,0.37-0.32,0.57-0.85,0.6h-0.1C20.15,39.67,19.88,39.55,19.45,39.55z M21.7,42.95
			c-0.13,0.07-0.3,0.13-0.5,0.2c0-0.03-0.03-0.05-0.1-0.05c-0.1,0-0.17,0-0.2,0c-0.1-0.03-0.18-0.08-0.25-0.15
			c-0.17-0.07-0.3-0.17-0.4-0.3c-0.03-0.2-0.03-0.37,0-0.5c0.07-0.03,0.12-0.07,0.15-0.1c0-0.07,0.03-0.1,0.1-0.1l0.05-0.05
			c0.37-0.13,0.67-0.12,0.9,0.05C22.25,42.39,22.33,42.72,21.7,42.95z M34.35,38.45c0-0.07,0.02-0.1,0.05-0.1
			c0.27-0.13,0.57-0.18,0.9-0.15c0.13,0,0.22,0,0.25,0c0.2,0.07,0.38,0.15,0.55,0.25c0.1,0.13,0.13,0.28,0.1,0.45
			c-0.17,0.4-0.58,0.57-1.25,0.5c-0.4,0-0.68-0.13-0.85-0.4c-0.1-0.17-0.1-0.32,0-0.45l0.05-0.05h0.15
			C34.3,38.47,34.32,38.45,34.35,38.45z M30.5,40.35c0.83,0.5,0.73,0.88-0.3,1.15c-0.17,0-0.3-0.02-0.4-0.05
			c-0.1-0.03-0.18-0.08-0.25-0.15H29.5c-0.03-0.03-0.05-0.08-0.05-0.15c-0.07,0-0.1-0.02-0.1-0.05c-0.03-0.03-0.05-0.07-0.05-0.1
			c0-0.07,0-0.15,0-0.25c0-0.03,0.02-0.07,0.05-0.1c0.07-0.07,0.12-0.12,0.15-0.15c0-0.03,0.02-0.05,0.05-0.05
			c0-0.03,0.02-0.07,0.05-0.1C29.93,40.22,30.23,40.22,30.5,40.35z M34.6,41c0,0.07,0.02,0.1,0.05,0.1c0.2,0.17,0.4,0.27,0.6,0.3
			c-0.06,0.06-0.15,0.1-0.25,0.1h-0.05c-0.2,0-0.33,0.02-0.4,0.05c-0.1,0-0.17-0.02-0.2-0.05c-0.13,0-0.23-0.03-0.3-0.1
			c-0.07,0-0.1-0.02-0.1-0.05l-0.1-0.05c-0.03,0-0.05-0.02-0.05-0.05l-0.05-0.15c0.13,0.03,0.27,0.05,0.4,0.05
			C34.32,41.12,34.47,41.07,34.6,41z M35.75,42.3h0.05c0.13,0.17,0.18,0.3,0.15,0.4c0,0.1-0.03,0.18-0.1,0.25
			c-0.17,0.13-0.37,0.23-0.6,0.3c0-0.07-0.03-0.15-0.1-0.25v-0.05c-0.03,0-0.07,0-0.1,0c-0.17-0.1-0.38-0.15-0.65-0.15
			c-0.03,0-0.12,0-0.25,0c-0.03-0.1,0.02-0.2,0.15-0.3l0.05-0.05c0.13,0.17,0.33,0.25,0.6,0.25C35.35,42.67,35.62,42.53,35.75,42.3z
			 M35.8,42.1c0.03-0.13-0.03-0.27-0.2-0.4c-0.07-0.1-0.2-0.17-0.4-0.2l0.05-0.1c0.03,0.03,0.12,0.05,0.25,0.05
			c0.4,0,0.7-0.1,0.9-0.3c-0.13,0.17-0.13,0.33,0,0.5v0.05l0.05,0.05c0,0.03,0.02,0.05,0.05,0.05c0.13,0.07,0.22,0.1,0.25,0.1
			c-0.17,0.13-0.37,0.2-0.6,0.2C36.05,42.1,35.93,42.1,35.8,42.1z M36.45,40.9c0,0.03,0.02,0.05,0.05,0.05
			c-0.03,0.03-0.07,0.08-0.1,0.15C36.43,41.03,36.45,40.97,36.45,40.9z M27.85,37.15c0.2-0.07,0.4-0.1,0.6-0.1
			c0.37,0,0.63,0.07,0.8,0.2c0.13,0.13,0.17,0.25,0.1,0.35c-0.03,0.37-0.33,0.57-0.9,0.6c-0.23,0-0.45-0.08-0.65-0.25
			c-0.23-0.13-0.28-0.32-0.15-0.55c0.03-0.07,0.08-0.1,0.15-0.1v-0.05C27.8,37.22,27.82,37.19,27.85,37.15z M40.2,40.1
			c0.07,0.03,0.12,0.07,0.15,0.1l-0.15,0.1C40.2,40.23,40.2,40.17,40.2,40.1z M41.85,39.85c0.13,0.17,0.18,0.3,0.15,0.4
			c0,0.03,0,0.07,0,0.1c-0.07-0.03-0.12-0.08-0.15-0.15c-0.03-0.03-0.1-0.07-0.2-0.1C41.75,40,41.82,39.92,41.85,39.85z M38.9,36.05
			c0.17,0.13,0.23,0.28,0.2,0.45c-0.07,0.3-0.37,0.48-0.9,0.55c-0.2,0-0.45-0.1-0.75-0.3c-0.2-0.13-0.22-0.32-0.05-0.55
			c0-0.03,0.02-0.07,0.05-0.1c0-0.03,0.05-0.05,0.15-0.05c0-0.03,0.02-0.05,0.05-0.05c0.1-0.03,0.2-0.07,0.3-0.1
			c0.23,0.07,0.53,0.1,0.9,0.1C38.88,36,38.9,36.02,38.9,36.05z M42.75,44.6c-0.17-0.03-0.35-0.1-0.55-0.2
			c-0.2-0.17-0.23-0.35-0.1-0.55c0.03-0.07,0.07-0.12,0.1-0.15h0.1c0-0.07,0.02-0.12,0.05-0.15c0.2-0.07,0.42-0.1,0.65-0.1
			c0.07,0,0.15,0,0.25,0L43.2,43.5l-0.1,0.05c-0.03,0-0.05,0.02-0.05,0.05c-0.03,0.07-0.07,0.12-0.1,0.15
			c-0.17,0.23-0.13,0.42,0.1,0.55c0.03,0.07,0.1,0.1,0.2,0.1c-0.13,0.03-0.23,0.07-0.3,0.1c-0.1,0.03-0.15,0.07-0.15,0.1H42.75z
			 M46,50.2h-0.05c0-0.03-0.03-0.05-0.1-0.05c-0.1-0.07-0.22-0.12-0.35-0.15c0.1,0,0.17-0.02,0.2-0.05
			c0.23-0.13,0.28-0.32,0.15-0.55c-0.03-0.07-0.08-0.12-0.15-0.15c0-0.03-0.02-0.05-0.05-0.05c0-0.03-0.03-0.05-0.1-0.05L45.5,49.1
			c0.1,0,0.2,0,0.3,0c0.2,0,0.4,0.03,0.6,0.1c0,0.03,0,0.07,0,0.1c0.1,0,0.15,0.02,0.15,0.05c0.03,0.03,0.07,0.07,0.1,0.1
			c0.13,0.23,0.1,0.42-0.1,0.55C46.38,50.1,46.2,50.17,46,50.2z"/>
		<path fill-rule="evenodd" clip-rule="evenodd" fill="#6B6C74" d="M35.25,41.4l-0.05,0.1c-0.09,0-0.16,0-0.2,0
			C35.1,41.5,35.19,41.47,35.25,41.4z"/>
	</g>
	<g>
		<path fill-rule="evenodd" clip-rule="evenodd" fill="#C61C1C" d="M86,34.15c-0.17-0.4,0-0.8,0.5-1.2h0.05
			c0.7,0.3,0.63,0.68-0.2,1.15C86.25,34.14,86.13,34.15,86,34.15z M87.9,34.4c0.2-0.27,0.43-0.5,0.7-0.7l0.05-0.05
			c-0.03,0.2-0.27,0.45-0.7,0.75H87.9z M94.2,32.85v0.05c-0.33,0.57-1,0.73-2,0.5c0-0.03,0-0.07,0-0.1
			c-0.3-0.03-0.32-0.15-0.05-0.35c0.27-0.17,0.47-0.33,0.6-0.5C93.32,32.58,93.8,32.72,94.2,32.85z M97,34.85
			c0.43,0.03,0.17,0.28-0.8,0.75c-0.3,0-0.53-0.07-0.7-0.2c-0.33-0.3-0.27-0.47,0.2-0.5c0.2-0.03,0.37-0.05,0.5-0.05
			C96.53,34.82,96.8,34.82,97,34.85z M89.35,36.1c-0.47-0.43-0.32-0.88,0.45-1.35c0.47,0.37,0.33,0.8-0.4,1.3
			C89.4,36.08,89.38,36.1,89.35,36.1z M89.25,43.25c-0.83-0.37-0.73-0.55,0.3-0.55c2.57,0,3.15,0.38,1.75,1.15
			C90.5,43.75,89.82,43.55,89.25,43.25z M90.45,40.65c-0.27-0.03-0.47-0.1-0.6-0.2c-0.33-0.13-0.43-0.38-0.3-0.75
			c0.1-0.23,0.25-0.33,0.45-0.3c1.77,0,2.05,0.37,0.85,1.1C90.75,40.53,90.62,40.58,90.45,40.65z M106.35,32.75
			c2.23-0.23,2.48,0.05,0.75,0.85c-0.47,0-0.82-0.13-1.05-0.4C105.88,32.97,105.98,32.82,106.35,32.75z M115.55,34.55
			c-0.27-0.2-0.23-0.33,0.1-0.4c1.77-0.3,1.98-0.08,0.65,0.65C116.07,34.8,115.82,34.72,115.55,34.55z M112.1,33
			c1.97-0.27,2.3,0.02,1,0.85c-0.47-0.07-0.83-0.23-1.1-0.5C111.77,33.15,111.8,33.03,112.1,33z M98.1,32.7
			c0.67,0.37,0.45,0.58-0.65,0.65V33.3c0.13-0.1,0.28-0.22,0.45-0.35C97.93,32.85,98,32.77,98.1,32.7z M99.1,41.1
			c-0.37-0.07-0.65-0.2-0.85-0.4c-0.07-0.03-0.12-0.07-0.15-0.1c0-0.03-0.02-0.05-0.05-0.05c-0.27-0.27-0.2-0.42,0.2-0.45
			c0.77-0.03,1.32,0.02,1.65,0.15c0.2,0.1,0.22,0.23,0.05,0.4c-0.17,0.17-0.42,0.33-0.75,0.5C99.17,41.15,99.13,41.14,99.1,41.1z
			 M95.85,37.2c2.07,0,2.35,0.48,0.85,1.45c-0.8-0.13-1.2-0.48-1.2-1.05C95.43,37.37,95.55,37.23,95.85,37.2z M107.3,39.25
			c-0.3-0.23-0.27-0.38,0.1-0.45c1.7-0.33,1.88-0.12,0.55,0.65C107.68,39.45,107.47,39.39,107.3,39.25z M114.35,40.9
			c-0.13,0.13-0.33,0.23-0.6,0.3c-0.23,0-0.45-0.07-0.65-0.2c-0.1-0.03-0.15-0.07-0.15-0.1c-0.1-0.17-0.03-0.28,0.2-0.35
			C114.62,40.32,115.02,40.44,114.35,40.9z M114.5,43c-0.07-0.23,0-0.37,0.2-0.4c1.87-0.33,2.08-0.05,0.65,0.85
			C114.92,43.42,114.63,43.27,114.5,43z M134.55,34.75c1.77-0.33,1.98-0.13,0.65,0.6c-0.23,0-0.47-0.08-0.7-0.25
			C134.2,34.9,134.22,34.78,134.55,34.75z M118.3,46.7c-0.47-0.3-0.43-0.5,0.1-0.6c2.03-0.3,2.17-0.05,0.4,0.75
			C118.57,46.85,118.4,46.8,118.3,46.7z M136.5,42.05c-0.07,0.03-0.2,0.12-0.4,0.25c-0.23,0.13-0.53,0.25-0.9,0.35
			c-0.97-0.2-1.2-0.58-0.7-1.15c0.13-0.13,0.27-0.2,0.4-0.2c0.07,0,0.15,0,0.25,0c0.1,0,0.18,0,0.25,0
			C136.43,41.47,136.8,41.72,136.5,42.05z M127.2,47.9c0,0.03-0.05,0.07-0.15,0.1c-0.2,0.13-0.42,0.2-0.65,0.2
			c-0.27-0.1-0.47-0.2-0.6-0.3c-0.67-0.5-0.28-0.62,1.15-0.35C127.22,47.62,127.3,47.73,127.2,47.9z M134.75,45.5
			c-0.07-0.27-0.02-0.4,0.15-0.4c1.83-0.4,2.1-0.15,0.8,0.75C135.17,45.85,134.85,45.73,134.75,45.5z M141,32.6
			c-0.3-0.23-0.27-0.38,0.1-0.45c1.67-0.3,1.88-0.08,0.65,0.65C141.48,32.8,141.23,32.73,141,32.6z M141.9,47.7
			c-0.2,0.2-0.47,0.33-0.8,0.4c-0.07,0-0.12,0-0.15,0c-0.33-0.13-0.58-0.28-0.75-0.45c-0.17-0.2-0.15-0.35,0.05-0.45
			c0.33-0.1,0.88-0.15,1.65-0.15c0.43,0.03,0.48,0.2,0.15,0.5v0.05C141.98,47.64,141.93,47.67,141.9,47.7z M150.05,37.95
			c-0.47-0.03-0.8-0.18-1-0.45c-0.13-0.2-0.07-0.32,0.2-0.35C151.28,36.89,151.55,37.15,150.05,37.95z M149.3,47.5
			c-1.2-0.73-0.92-1.12,0.85-1.15c0.2-0.03,0.35,0.08,0.45,0.35c0.1,0.33,0,0.58-0.3,0.75c-0.13,0.1-0.32,0.17-0.55,0.2
			C149.58,47.58,149.43,47.53,149.3,47.5z M148.9,50.85c-1.43-0.73-0.87-1.1,1.7-1.1c1.03,0,1.15,0.15,0.35,0.45
			C150.35,50.53,149.67,50.75,148.9,50.85z M125.65,50c-0.1,0.3-0.38,0.45-0.85,0.45c-1.43-0.9-1.2-1.18,0.7-0.85
			C125.67,49.6,125.72,49.73,125.65,50z M121.35,53.8c-1.77-0.8-1.63-1.05,0.4-0.75c0.53,0.1,0.58,0.3,0.15,0.6
			C121.77,53.75,121.58,53.8,121.35,53.8z M104.05,49.3c-0.2-0.13-0.33-0.23-0.4-0.3c-0.33-0.3,0.03-0.55,1.1-0.75
			c0.07,0,0.15,0,0.25,0s0.18,0,0.25,0c0.13,0.03,0.25,0.12,0.35,0.25c0.53,0.53,0.32,0.92-0.65,1.15
			C104.55,49.55,104.25,49.44,104.05,49.3z M105.4,52.45c-0.13,0.27-0.43,0.4-0.9,0.4c-1.33-0.9-1.1-1.17,0.7-0.8
			C105.43,52.08,105.5,52.22,105.4,52.45z"/>
		<path fill-rule="evenodd" clip-rule="evenodd" fill="#6B6C74" d="M86.22,34.3c0.09,0,0.18-0.02,0.28-0.05v0.05
			C86.41,34.3,86.31,34.3,86.22,34.3z"/>
		<path fill-rule="evenodd" clip-rule="evenodd" fill="#E43A3A" d="M91.8,40.5l0.2-0.05c1.1-0.13,1.63-0.1,1.6,0.1
			c-0.03,0.17-0.35,0.45-0.95,0.85c-0.57-0.03-0.9-0.2-1-0.5C91.62,40.7,91.67,40.57,91.8,40.5z M86.2,37.25
			c0,0.03-0.02,0.05-0.05,0.05c-0.07-0.37,0.12-0.68,0.55-0.95l0.05-0.1C87.05,36.58,86.87,36.92,86.2,37.25z M87.25,39.25
			c-0.2,0.27-0.43,0.52-0.7,0.75c-0.03,0.07-0.08,0.12-0.15,0.15c-0.43-0.1-0.87-0.27-1.3-0.5c0.27-0.23,0.52-0.45,0.75-0.65
			c0.03-0.07,0.05-0.12,0.05-0.15c0.43,0.1,0.85,0.22,1.25,0.35C87.18,39.23,87.22,39.25,87.25,39.25z M95.15,45.85
			c0,0.37-0.32,0.6-0.95,0.7c-0.6-0.27-1.02-0.5-1.25-0.7H95.15z M94.75,44.15c-0.37,0-0.67-0.08-0.9-0.25
			c-0.3-0.23-0.28-0.38,0.05-0.45C95.77,43.15,96.05,43.39,94.75,44.15z M98.75,31.9c0.67,0.23,0.55,0.52-0.35,0.85h-0.15
			c-0.2-0.1-0.07-0.35,0.4-0.75C98.72,31.97,98.75,31.94,98.75,31.9z M104.95,33.75c-0.23,0.27-0.48,0.52-0.75,0.75
			c-1.33-0.4-1.47-1-0.4-1.8c0.27,0.33,0.58,0.68,0.95,1.05C104.78,33.75,104.85,33.75,104.95,33.75z M99.9,40.25
			c0.1-0.03,0.2-0.05,0.3-0.05c1.97-0.17,2.67,0,2.1,0.5c-0.1,0.13-0.28,0.28-0.55,0.45c-0.67-0.03-1.27-0.18-1.8-0.45v-0.05
			C100.12,40.48,100.1,40.35,99.9,40.25z M98.25,40.7c0.2,0.2,0.48,0.33,0.85,0.4c-0.2,0.13-0.43,0.25-0.7,0.35
			c-0.33,0-0.6-0.12-0.8-0.35c-0.2-0.2-0.1-0.32,0.3-0.35C98,40.72,98.12,40.7,98.25,40.7z M104.6,44.55c0-0.1,0.03-0.15,0.1-0.15
			c0.8-0.03,1.33-0.42,1.6-1.15c0.57,0.1,0.85,0.18,0.85,0.25c0.1,0.03,0.22,0.05,0.35,0.05c3.07,0.3,3.27,0.67,0.6,1.1
			c-0.63,0-1.1-0.15-1.4-0.45C106.03,45.1,105.33,45.22,104.6,44.55z M135.75,34.4c-0.23,0-0.48-0.08-0.75-0.25
			c-0.23-0.2-0.2-0.33,0.1-0.4C136.8,33.42,137.02,33.64,135.75,34.4z M119.05,33.05c2.5-0.27,3.05,0.05,1.65,0.95
			c-0.73-0.03-1.33-0.22-1.8-0.55C118.6,33.25,118.65,33.12,119.05,33.05z M136.05,38.8c-0.23,0-0.45-0.05-0.65-0.15
			c-0.33-0.23-0.32-0.4,0.05-0.5C137.15,37.85,137.35,38.07,136.05,38.8z M127.25,43.05c-0.3-0.23-0.28-0.37,0.05-0.4
			c1.7-0.3,1.92-0.08,0.65,0.65C127.68,43.3,127.45,43.22,127.25,43.05z M142.3,36.1c-0.27-0.23-0.25-0.37,0.05-0.4
			c1.73-0.33,1.97-0.12,0.7,0.65C142.78,36.35,142.53,36.27,142.3,36.1z M145.05,38.55c0.03-0.27,0.23-0.4,0.6-0.4
			c2.2,0,2.3,0.47,0.3,1.4C145.18,39.45,144.88,39.12,145.05,38.55z M140.25,47.2c-0.2,0.1-0.22,0.25-0.05,0.45v0.05
			c-0.53,0.23-1.13,0.37-1.8,0.4c-0.27-0.13-0.47-0.27-0.6-0.4c-0.57-0.5,0.15-0.68,2.15-0.55
			C140.08,47.15,140.18,47.17,140.25,47.2z M141.1,48.1c0.33-0.07,0.6-0.2,0.8-0.4c0.1,0,0.23,0.02,0.4,0.05
			c0.33,0,0.42,0.12,0.25,0.35c-0.17,0.23-0.43,0.35-0.8,0.35C141.48,48.32,141.27,48.2,141.1,48.1z M148.5,47.9
			c-0.13,0.27-0.47,0.42-1,0.45c-0.6-0.37-0.92-0.63-0.95-0.8c-0.03-0.23,0.5-0.27,1.6-0.1l0.15,0.05
			C148.47,47.57,148.53,47.7,148.5,47.9z M153.6,47c-0.27-0.23-0.52-0.48-0.75-0.75c0.03,0,0.08-0.02,0.15-0.05
			c0.4-0.13,0.82-0.25,1.25-0.35l0.1,0.15c0.2,0.2,0.43,0.42,0.7,0.65c-0.43,0.23-0.88,0.38-1.35,0.45
			C153.67,47.07,153.63,47.03,153.6,47z M152.45,44.4c-0.13-0.5,0.13-0.97,0.8-1.4c0.33-0.23,0.67-0.27,1-0.1
			c1.5,0.67,1.1,1.28-1.2,1.85C152.78,44.75,152.58,44.64,152.45,44.4z M145.4,51.15c-1.3-0.77-1.03-1,0.8-0.7
			c0.37,0.07,0.4,0.22,0.1,0.45C146.07,51.07,145.77,51.15,145.4,51.15z M132.7,50.55c0.1,0,0.2-0.02,0.3-0.05
			c0-0.03,0.3-0.13,0.9-0.3c0.23,0.73,0.75,1.12,1.55,1.15c0.07,0,0.1,0.07,0.1,0.2c-0.73,0.67-1.43,0.55-2.1-0.35
			c-0.3,0.33-0.75,0.5-1.35,0.5C129.4,51.23,129.6,50.85,132.7,50.55z M112.85,49.65c0.33,0.07,0.35,0.2,0.05,0.4
			c-0.2,0.17-0.43,0.25-0.7,0.25C110.97,49.57,111.18,49.35,112.85,49.65z M86.85,50c0.7,0.43,0.98,0.9,0.85,1.4
			c-0.1,0.23-0.3,0.35-0.6,0.35c-2.3-0.57-2.7-1.18-1.2-1.85C86.23,49.73,86.55,49.77,86.85,50z"/>
		<path fill-rule="evenodd" clip-rule="evenodd" fill="#E73F3F" d="M97,34.85c-0.2-0.03-0.47-0.03-0.8,0
			c-0.13-0.07-0.28-0.12-0.45-0.15c0.17-0.13,0.25-0.25,0.25-0.35v-0.1V34c0.1,0.1,0.2,0.17,0.3,0.2c-0.1,0-0.2,0.02-0.3,0.05
			c0.1,0,0.2,0,0.3,0C96.6,34.48,96.83,34.69,97,34.85z"/>
		<path fill-rule="evenodd" clip-rule="evenodd" fill="#E03334" d="M99.4,36.9c-0.17-0.43,0-0.67,0.5-0.7c1.8-0.23,2.13,0.02,1,0.75
			C100.87,36.98,100.37,36.97,99.4,36.9z"/>
		<path fill-rule="evenodd" clip-rule="evenodd" fill="#E03B3A" d="M97.9,36.6c0.1-0.13,0.15-0.25,0.15-0.35l0.1-0.55
			C99.78,35.64,99.7,35.94,97.9,36.6z"/>
		<path fill-rule="evenodd" clip-rule="evenodd" fill="#DD3233" d="M96.6,37.2v-0.45C98.3,37.15,98.3,37.3,96.6,37.2z"/>
		<path fill-rule="evenodd" clip-rule="evenodd" fill="#E43234" d="M99.4,44.55l0.25,0.05c1.17,0.3,1.62,0.67,1.35,1.1
			c-0.9,1.6-1.82,1.53-2.75-0.2C98.35,44.9,98.73,44.58,99.4,44.55z M140.5,51.6l0.25-0.05c0.67,0.03,1.05,0.35,1.15,0.95
			c-0.93,1.73-1.83,1.8-2.7,0.2C138.87,52.23,139.3,51.87,140.5,51.6z"/>
		<path fill-rule="evenodd" clip-rule="evenodd" fill="#E84241" d="M97.3,46.8c0.73-0.23,1.42-0.05,2.05,0.55h-1.1
			c0-0.1-0.05-0.17-0.15-0.2C97.97,47.02,97.7,46.9,97.3,46.8z M142.8,53.75c-0.33,0.13-0.58,0.27-0.75,0.4
			c-0.1,0.03-0.15,0.1-0.15,0.2h-1.1C141.43,53.75,142.1,53.55,142.8,53.75z"/>
		<path fill-rule="evenodd" clip-rule="evenodd" fill="#DF3333" d="M96.9,45.65c0.4,0.53,0.03,1.03-1.1,1.5
			c-0.1,0.03,0.02,0.1,0.35,0.2H94.5c0.33-0.73,0.95-1.48,1.85-2.25C96.48,45.07,96.67,45.25,96.9,45.65z M143.25,52.6
			c0.23-0.4,0.42-0.57,0.55-0.5c0.93,0.73,1.55,1.48,1.85,2.25H144c0.33-0.1,0.45-0.17,0.35-0.2
			C143.22,53.69,142.85,53.17,143.25,52.6z"/>
		<path fill-rule="evenodd" clip-rule="evenodd" fill="#E23032" d="M102.95,46.2l0.3,0.6c-0.27-0.1-0.88-0.33-1.85-0.7
			C102.13,45.4,102.65,45.44,102.95,46.2z M136.9,53.75l0.3-0.55c0.3-0.8,0.8-0.83,1.5-0.1C137.77,53.44,137.17,53.65,136.9,53.75z"
			/>
		<path fill-rule="evenodd" clip-rule="evenodd" fill="#E13435" d="M111.15,37.85c-0.2-0.4-0.1-0.57,0.3-0.5
			C113.22,37.62,113.12,37.78,111.15,37.85z M119.6,36.9c1.23-0.47,2-0.38,2.3,0.25C122.8,39.22,122.03,39.14,119.6,36.9z"/>
		<path fill-rule="evenodd" clip-rule="evenodd" fill="#E33737" d="M108.35,36.45c0.83,0.63,0.43,1.32-1.2,2.05
			c0.57-0.57,0.78-1.1,0.65-1.6C107.63,36.2,107.82,36.05,108.35,36.45z M148.95,43.65c-0.07,0.17-0.12,0.3-0.15,0.4
			c-0.63,1.17-1.08,1.33-1.35,0.5c-0.4-1.3,0.2-1.95,1.8-1.95L148.95,43.65z M91.2,50.65l-0.3-1.05c1.63,0,2.23,0.65,1.8,1.95
			c-0.27,0.83-0.7,0.67-1.3-0.5C91.33,50.95,91.27,50.82,91.2,50.65z"/>
		<path fill-rule="evenodd" clip-rule="evenodd" fill="#E03233" d="M116.75,36.25c0-0.1,0.03-0.15,0.1-0.15
			C120.45,35.8,120.42,35.85,116.75,36.25z"/>
		<path fill-rule="evenodd" clip-rule="evenodd" fill="#DF3737" d="M118.1,40.1c0.47-0.93,1.12-1.78,1.95-2.55
			c0,0.1-0.05,0.2-0.15,0.3c-0.2,1.1-0.85,1.95-1.95,2.55C117.95,40.3,118,40.2,118.1,40.1z"/>
		<path fill-rule="evenodd" clip-rule="evenodd" fill="#E13B3B" d="M121.35,42.15L122,42.3c-0.3,0.57-1.22,0.78-2.75,0.65
			C119.45,42.08,120.15,41.82,121.35,42.15z M118.15,49.3l0.65-0.2c1.2-0.27,1.92,0.02,2.15,0.85
			C119.38,50.08,118.45,49.87,118.15,49.3z"/>
		<path fill-rule="evenodd" clip-rule="evenodd" fill="#E13334" d="M136.5,42.05c0.4-0.23,0.03,0.07-1.1,0.9
			c0-0.1,0.03-0.18,0.1-0.25c0.23-0.13,0.43-0.27,0.6-0.4C136.3,42.17,136.43,42.08,136.5,42.05z M103.65,49
			c0.07,0.07,0.2,0.17,0.4,0.3c0.17,0.13,0.37,0.27,0.6,0.4c0.07,0.07,0.1,0.15,0.1,0.25C103.62,49.12,103.25,48.8,103.65,49z"/>
		<path fill-rule="evenodd" clip-rule="evenodd" fill="#E43637" d="M120.4,36c0.03-0.6,0.38-0.83,1.05-0.7
			C122.78,35.53,122.43,35.77,120.4,36z"/>
		<path fill-rule="evenodd" clip-rule="evenodd" fill="#E03837" d="M147.6,47.35c0.2-1.23,0.4-1.23,0.6,0H147.6z M92.6,54.35h-0.65
			C92.15,53.12,92.37,53.12,92.6,54.35z"/>
	</g>
	<g>
		<linearGradient id="SVGID_1_" gradientUnits="userSpaceOnUse" x1="-29.1997" y1="42.895" x2="92.5003" y2="42.82">
			<stop  offset="0" style="stop-color:#000000;stop-opacity:0.498"/>
			<stop  offset="1" style="stop-color:#000000;stop-opacity:0"/>
		</linearGradient>
		<rect x="6.3" y="30.65" fill-rule="evenodd" clip-rule="evenodd" fill="url(#SVGID_1_)" width="150.45" height="24.35"/>
	</g>
	<g>
		<g>
			<g>
				<path fill-rule="evenodd" clip-rule="evenodd" fill-opacity="0.4706" d="M144.4,44.65c0.87,4.67,1.07,7.92,0.6,9.75h-4.15
					c0-0.1,0-0.22,0-0.35c-0.4-2.17-0.52-4.65-0.35-7.45C140.6,43.77,141.9,43.12,144.4,44.65z"/>
			</g>
			<g>
				<path fill-rule="evenodd" clip-rule="evenodd" fill="#616161" d="M143,44.65c0.23,0.3,0.35,0.6,0.35,0.9v9.2
					c0.03,2.17-0.23,3.45-0.8,3.85c-0.53,0.67-1.25,0.7-2.15,0.1c-0.07-0.07-0.13-0.13-0.2-0.2c-0.13-0.03-1.3-1.3-3.5-3.8l3.3,0.05
					l0.5,0.7h0.05c0.13,0,0.25,0.08,0.35,0.25c0-0.3,0-0.6,0-0.9v-9.25c0-0.3,0.13-0.6,0.4-0.9c0.27-0.2,0.55-0.3,0.85-0.3
					C142.45,44.35,142.73,44.45,143,44.65z"/>
			</g>
			<g>
				<path fill-rule="evenodd" clip-rule="evenodd" fill="#FFFFFF" d="M142.4,45.1c0.3,0.67,0.08,1.02-0.65,1.05
					c0-0.03-0.02-0.08-0.05-0.15c-0.1-0.47,0.1-0.8,0.6-1C142.33,45,142.37,45.03,142.4,45.1z"/>
				
					<radialGradient id="SVGID_2_" cx="-680.5498" cy="-689.4487" r="4.7" gradientTransform="matrix(-1 0 0 1.0106 -538 749.235)" gradientUnits="userSpaceOnUse">
					<stop  offset="0" style="stop-color:#FFFFFF"/>
					<stop  offset="1" style="stop-color:#F9F9F9;stop-opacity:0"/>
				</radialGradient>
				<path fill-rule="evenodd" clip-rule="evenodd" fill="url(#SVGID_2_)" d="M142.45,47.65c0.03-0.03,0.07-0.03,0.1,0
					c0.03-0.03,0.07-0.03,0.1,0c0.03,0.03,0.03,0.07,0,0.1v9.5c0.03,0.03,0.03,0.07,0,0.1c-0.03,0.03-0.07,0.05-0.1,0.05
					s-0.07-0.02-0.1-0.05c-0.03-0.03-0.05-0.07-0.05-0.1v-9.5C142.4,47.72,142.42,47.69,142.45,47.65z"/>
			</g>
		</g>
	</g>
	<g>
		<g>
			<g>
				<path fill-rule="evenodd" clip-rule="evenodd" fill-opacity="0.4706" d="M18.6,45.4c2.23-1.5,3.4-0.85,3.5,1.95
					c0.13,2.8,0.02,5.28-0.35,7.45c0,0.13,0,0.27,0,0.4H18.1C17.67,53.33,17.83,50.07,18.6,45.4z"/>
			</g>
			<g>
				<path fill-rule="evenodd" clip-rule="evenodd" fill="#616161" d="M20.05,45.1c0.3,0,0.55,0.1,0.75,0.3
					c0.23,0.3,0.35,0.6,0.35,0.9v9.25c0.07,0.3,0.13,0.92,0.2,1.85c0.1,0.97,0.12,1.7,0.05,2.2c-0.7,0.43-1.27,0.35-1.7-0.25
					c-0.5-0.4-0.75-1.68-0.75-3.85v-9.2c0-0.3,0.12-0.6,0.35-0.9C19.53,45.2,19.78,45.1,20.05,45.1z"/>
			</g>
			<g>
				<path fill-rule="evenodd" clip-rule="evenodd" fill="#FFFFFF" d="M19.45,45.75c0.4,0.2,0.57,0.55,0.5,1.05
					c-0.03,0.03-0.05,0.07-0.05,0.1c-0.67-0.03-0.87-0.38-0.6-1.05C19.37,45.78,19.42,45.75,19.45,45.75z"/>
				
					<radialGradient id="SVGID_3_" cx="19.1499" cy="53.2017" r="4.175" gradientTransform="matrix(1 0 0 1.1377 0 -7.3272)" gradientUnits="userSpaceOnUse">
					<stop  offset="0" style="stop-color:#FFFFFF"/>
					<stop  offset="1" style="stop-color:#F9F9F9;stop-opacity:0"/>
				</radialGradient>
				<path fill-rule="evenodd" clip-rule="evenodd" fill="url(#SVGID_3_)" d="M19.25,48.4c0.03,0.03,0.05,0.07,0.05,0.1V58
					c0,0.03-0.02,0.07-0.05,0.1c-0.03,0.03-0.07,0.05-0.1,0.05c-0.03,0-0.07-0.02-0.1-0.05c-0.03-0.03-0.03-0.07,0-0.1v-9.5
					c-0.03-0.03-0.03-0.07,0-0.1c0.03-0.03,0.07-0.03,0.1,0C19.18,48.37,19.22,48.37,19.25,48.4z"/>
			</g>
			<g>
				<path fill-rule="evenodd" clip-rule="evenodd" fill="#616161" d="M21.05,55.2L21,55.15h1.55c-0.1,0.67-0.17,1.03-0.2,1.1
					l-0.55,2.3c-0.03,0.1-0.07,0.2-0.1,0.3c-0.13,0.27-0.23,0.47-0.3,0.6c-0.07,0.1-0.13,0.18-0.2,0.25l-0.4-3.5L21.05,55.2z"/>
			</g>
		</g>
	</g>
</g>
</svg>
