<?xml version="1.0" encoding="utf-8"?>
<!-- Generator: Adobe Illustrator 16.0.0, SVG Export Plug-In . SVG Version: 6.00 Build 0)  -->
<!DOCTYPE svg PUBLIC "-//W3C//DTD SVG 1.1//EN" "http://www.w3.org/Graphics/SVG/1.1/DTD/svg11.dtd">
<svg version="1.1" id="Layer_1" xmlns="http://www.w3.org/2000/svg" xmlns:xlink="http://www.w3.org/1999/xlink" x="0px" y="0px"
	 width="163.67px" height="63.33px" viewBox="0 0 163.67 63.33" enable-background="new 0 0 163.67 63.33" xml:space="preserve">
<g>
	<g>
		<g>
			<path fill-rule="evenodd" clip-rule="evenodd" fill="#616161" d="M77.4,3.65c0.8-0.33,1.63-0.33,2.5,0c0.8,0.3,1.62,0.9,2.45,1.8
				v0.1L85.1,9l0.05,0.05c1.13,1.47,2.37,2.22,3.7,2.25h40.8c0.03,0,0.07,0,0.1,0c2.43,0.23,3.9,1.98,4.4,5.25c0,0.1,0,0.17,0,0.2
				v17.5c0,0.27-0.08,0.5-0.25,0.7c-0.17,0.23-0.37,0.38-0.6,0.45c-0.27,0.03-0.5,0-0.7-0.1c-0.3-0.1-0.48-0.28-0.55-0.55l-0.2-0.45
				l-0.35,21.2h-2.25l0.45-26.3c0-0.3,0.08-0.53,0.25-0.7c0.17-0.27,0.37-0.42,0.6-0.45c0.23-0.07,0.48-0.05,0.75,0.05
				c0.2,0.13,0.37,0.32,0.5,0.55l0.1,0.25V16.95c-0.27-1.97-1.07-3.05-2.4-3.25H88.85c-2,0-3.8-1.05-5.4-3.15l-2.8-3.45
				c-0.5-0.57-0.97-0.95-1.4-1.15c-0.43-0.17-0.82-0.17-1.15,0h-0.05c-0.53,0.2-1.07,0.63-1.6,1.3L74.4,9.9
				c-1.43,2.53-3.53,3.8-6.3,3.8H24.2c-1.3,0.2-2.1,1.28-2.4,3.25v12L22,28.7c0.1-0.27,0.25-0.47,0.45-0.6
				c0.23-0.1,0.48-0.12,0.75-0.05c0.27,0.03,0.5,0.18,0.7,0.45c0.13,0.17,0.2,0.4,0.2,0.7l0.3,16h-2.25L22,34.25l-0.25,0.5
				c-0.13,0.27-0.3,0.45-0.5,0.55c-0.27,0.1-0.52,0.13-0.75,0.1c-0.23-0.07-0.43-0.22-0.6-0.45c-0.17-0.2-0.25-0.43-0.25-0.7v-17.5
				c0-0.03,0-0.1,0-0.2c0.47-3.27,1.93-5.02,4.4-5.25c0.03,0,0.07,0,0.1,0H68.1c1.97,0,3.45-0.9,4.45-2.7c0-0.07,0.03-0.12,0.1-0.15
				l2.2-2.8C75.68,4.62,76.53,3.95,77.4,3.65z"/>
		</g>
		<g>
			<line fill-rule="evenodd" clip-rule="evenodd" fill="none" x1="72" y1="11.05" x2="74.6" y2="7.6"/>
			<line fill-rule="evenodd" clip-rule="evenodd" fill="none" x1="82.25" y1="7" x2="86.05" y2="11.3"/>
			<path fill-rule="evenodd" clip-rule="evenodd" fill="none" d="M67.35,12.85c2.17-0.23,3.6-0.72,4.3-1.45"/>
			<path fill-rule="evenodd" clip-rule="evenodd" fill="none" d="M76.15,5.9c1.7-1.87,3.27-1.92,4.7-0.15"/>
			<line fill-rule="evenodd" clip-rule="evenodd" fill="none" x1="133.1" y1="16.65" x2="133.1" y2="28.9"/>
			<line fill-rule="evenodd" clip-rule="evenodd" fill="none" x1="88.9" y1="12.5" x2="130.95" y2="12.5"/>
			<line fill-rule="evenodd" clip-rule="evenodd" fill="none" x1="20.55" y1="17.85" x2="20.55" y2="26.25"/>
			<line fill-rule="evenodd" clip-rule="evenodd" fill="none" x1="22.05" y1="12.5" x2="64.1" y2="12.5"/>
		</g>
		<g>
			<path fill-rule="evenodd" clip-rule="evenodd" fill="#FFFFFF" d="M87.65,11.65c0,0.03,0,0.08,0,0.15
				c-0.77,0.37-1.03,0.18-0.8-0.55c0-0.1,0.03-0.15,0.1-0.15C87.28,11.2,87.52,11.38,87.65,11.65z M133.15,15.35
				c0.47,0.6,0.52,1.27,0.15,2c-0.07,0.07-0.12,0.12-0.15,0.15C132.65,16.8,132.65,16.08,133.15,15.35z M131.35,12.35
				c0.07,0,0.1-0.03,0.1-0.1c0.57,0.27,0.77,0.7,0.6,1.3c-0.03,0.03-0.05,0.07-0.05,0.1C131.17,13.38,130.95,12.95,131.35,12.35z
				 M25.8,12.75c-0.4,0.37-0.73,0.27-1-0.3c-0.03-0.17,0.03-0.25,0.2-0.25c0.13-0.03,0.23-0.05,0.3-0.05h0.05
				c0.2-0.13,2.5-0.15,6.9-0.05c4.37,0.07,6.73,0.1,7.1,0.1l-7.95,0.25C29.6,13.35,27.73,13.45,25.8,12.75z"/>
		</g>
	</g>
	<g>
		<polygon fill-rule="evenodd" clip-rule="evenodd" fill="#5A5D63" points="85.85,31 12.35,31 8.4,29.1 81.55,29.1 		"/>
		<polygon fill-rule="evenodd" clip-rule="evenodd" fill="#C61C1C" points="154.55,31 85.85,31 81.55,29.1 147.1,29.1 		"/>
		<rect x="85.85" y="31" fill-rule="evenodd" clip-rule="evenodd" fill="#D82B2B" width="68.7" height="24.35"/>
		<polygon fill-rule="evenodd" clip-rule="evenodd" fill="#3C3D41" points="12.35,31 12.35,55.35 8.4,52.2 8.4,29.1 		"/>
		<rect x="12.35" y="31" fill-rule="evenodd" clip-rule="evenodd" fill="#6B6C74" width="73.5" height="24.35"/>
	</g>
	<g>
		<polygon fill-rule="evenodd" clip-rule="evenodd" fill="#FFFFFF" fill-opacity="0.3255" points="12.6,31.15 12.35,31.15 12.35,31 
			154.55,31 154.55,31.15 		"/>
		
			<rect x="12.35" y="31.15" fill-rule="evenodd" clip-rule="evenodd" fill="#FFFFFF" fill-opacity="0.3176" width="0.25" height="24.2"/>
	</g>
	<g>
		<path fill-rule="evenodd" clip-rule="evenodd" fill="#818588" d="M67.55,34.1c-0.17,0-0.28-0.03-0.35-0.1
			c-0.13-0.07-0.2-0.17-0.2-0.3c0-0.1,0.02-0.18,0.05-0.25c0.07-0.07,0.12-0.12,0.15-0.15h0.05c0-0.03,0.02-0.05,0.05-0.05
			c0.2-0.13,0.4-0.2,0.6-0.2c0.3,0,0.53,0.08,0.7,0.25c0.13,0.13,0.18,0.25,0.15,0.35c-0.03,0.33-0.32,0.53-0.85,0.6
			C67.8,34.25,67.68,34.2,67.55,34.1z M56.75,32.8c0-0.03,0.02-0.05,0.05-0.05l0.05-0.05c0.2-0.1,0.4-0.15,0.6-0.15
			c0.3,0,0.53,0.07,0.7,0.2c0.1,0.13,0.13,0.27,0.1,0.4c-0.03,0.33-0.3,0.52-0.8,0.55c-0.27,0-0.5-0.07-0.7-0.2s-0.27-0.32-0.2-0.55
			C56.65,32.89,56.72,32.83,56.75,32.8z M56.35,36c0.13-0.1,0.33-0.15,0.6-0.15c0.07,0,0.17,0,0.3,0c0.07,0,0.13,0,0.2,0
			c0.17,0,0.32,0.02,0.45,0.05c0.07,0.07,0.15,0.12,0.25,0.15c0.1,0.17,0.13,0.3,0.1,0.4c-0.03,0.3-0.25,0.5-0.65,0.6
			c-0.17-0.1-0.38-0.15-0.65-0.15c-0.27-0.03-0.47-0.03-0.6,0c-0.07-0.03-0.13-0.08-0.2-0.15c-0.13-0.17-0.15-0.33-0.05-0.5
			c0-0.03,0.02-0.07,0.05-0.1l0.1-0.05C56.28,36.07,56.32,36.03,56.35,36z M62.15,34.1c-0.27,0-0.5-0.08-0.7-0.25
			c-0.2-0.13-0.23-0.32-0.1-0.55c0.03-0.03,0.07-0.08,0.1-0.15c0-0.03,0.03-0.05,0.1-0.05c0-0.03,0.02-0.07,0.05-0.1
			c0.13-0.07,0.32-0.1,0.55-0.1c0.3,0,0.55,0.07,0.75,0.2c0.1,0.13,0.13,0.27,0.1,0.4C62.97,33.83,62.68,34.03,62.15,34.1z
			 M60.9,38.9c-0.07,0-0.2-0.02-0.4-0.05c-0.1-0.03-0.2-0.08-0.3-0.15c-0.03,0-0.05-0.02-0.05-0.05v-0.1c-0.07,0-0.1-0.02-0.1-0.05
			c-0.07-0.03-0.1-0.07-0.1-0.1c0-0.07,0-0.15,0-0.25c0-0.03,0.03-0.07,0.1-0.1c0.07-0.1,0.1-0.17,0.1-0.2h0.05
			c0-0.03,0.03-0.07,0.1-0.1c0.33-0.13,0.62-0.13,0.85,0C62.05,38.25,61.97,38.64,60.9,38.9z M61.35,40.65
			c0.27-0.13,0.57-0.13,0.9,0h0.05c0.9,0.43,0.8,0.82-0.3,1.15c-0.27,0-0.5-0.1-0.7-0.3c-0.27-0.17-0.33-0.37-0.2-0.6
			c0.03-0.07,0.07-0.12,0.1-0.15c0-0.03,0.03-0.05,0.1-0.05L61.35,40.65z M58.65,38.85c0.27-0.1,0.52-0.1,0.75,0
			c1,0.47,0.87,0.88-0.4,1.25c-0.07-0.03-0.15-0.05-0.25-0.05c-0.03,0-0.07,0-0.1,0C57.92,39.65,57.92,39.25,58.65,38.85z
			 M48.65,33.55c-0.23,0.23-0.58,0.33-1.05,0.3c-0.43,0-0.7-0.13-0.8-0.4c-0.1-0.13-0.1-0.28,0-0.45c0-0.03,0.02-0.05,0.05-0.05
			l0.05-0.05c0-0.03,0.02-0.05,0.05-0.05c0-0.03,0.03-0.07,0.1-0.1c0.27-0.1,0.57-0.13,0.9-0.1c0.13,0,0.27,0.02,0.4,0.05
			l-0.15,0.05c-0.03,0.03-0.05,0.07-0.05,0.1c-0.07,0.17-0.05,0.33,0.05,0.5C48.33,33.45,48.48,33.52,48.65,33.55z"/>
		<path fill-rule="evenodd" clip-rule="evenodd" fill="#84868B" d="M67.55,34.1c-0.23,0.13-0.45,0.27-0.65,0.4
			c-0.23,0-0.47-0.08-0.7-0.25c-0.23-0.23-0.2-0.37,0.1-0.4c0.27-0.1,0.5-0.15,0.7-0.15c0,0.13,0.07,0.23,0.2,0.3
			C67.27,34.07,67.38,34.1,67.55,34.1z M73.55,33.45c1.77-0.27,1.92-0.03,0.45,0.7c-0.3,0-0.53-0.13-0.7-0.4
			C73.13,33.55,73.22,33.45,73.55,33.45z M71.6,34.1c-0.23-0.13-0.28-0.33-0.15-0.6c0.03-0.03,0.08-0.05,0.15-0.05v-0.1
			c0-0.03,0.02-0.05,0.05-0.05c0.2-0.1,0.38-0.15,0.55-0.15c0.37,0,0.63,0.07,0.8,0.2c0.1,0.13,0.13,0.25,0.1,0.35
			c-0.03,0.37-0.33,0.57-0.9,0.6C72,34.3,71.8,34.23,71.6,34.1z M56.35,36c-0.07-0.1-0.02-0.18,0.15-0.25
			c1.2-0.23,1.67-0.18,1.4,0.15c-0.13-0.03-0.28-0.05-0.45-0.05c-0.07,0-0.13,0-0.2,0c-0.13,0-0.23,0-0.3,0
			C56.68,35.85,56.48,35.9,56.35,36z M64.7,36.3c-0.23,0-0.45-0.08-0.65-0.25c-0.27-0.23-0.25-0.37,0.05-0.4
			C65.77,35.28,65.97,35.5,64.7,36.3z M64.5,33.25c-0.27,0-0.52-0.1-0.75-0.3s-0.22-0.33,0.05-0.4c0.97-0.2,1.45-0.2,1.45,0
			C65.25,32.69,65,32.92,64.5,33.25z M77.9,38.1c0.03-0.03,0.07-0.08,0.1-0.15c0-0.03,0.02-0.05,0.05-0.05
			c0-0.03,0.02-0.05,0.05-0.05c0.17-0.1,0.35-0.15,0.55-0.15c0.3,0,0.53,0.07,0.7,0.2c0.03,0.1,0.07,0.17,0.1,0.2
			c1.3-0.23,1.4,0.02,0.3,0.75c-0.23,0-0.42-0.05-0.55-0.15c-0.1,0.1-0.28,0.17-0.55,0.2c-0.23,0-0.45-0.08-0.65-0.25
			C77.73,38.52,77.7,38.33,77.9,38.1z M77.05,41.95c-0.23-0.2-0.2-0.35,0.1-0.45c1.67-0.3,1.87-0.05,0.6,0.75
			C77.52,42.25,77.28,42.15,77.05,41.95z M31.85,32.4c-0.2,0-0.42-0.07-0.65-0.2c0.37-0.47,0.72-0.47,1.05,0
			C32.12,32.23,31.98,32.3,31.85,32.4z M28.95,33.9c-0.23-0.23-0.2-0.37,0.1-0.4c1.67-0.37,1.9-0.15,0.7,0.65
			C29.48,34.15,29.22,34.07,28.95,33.9z M17.95,33.55c1.67-0.33,1.88-0.1,0.65,0.7c-0.3,0-0.53-0.08-0.7-0.25
			C17.67,33.77,17.68,33.62,17.95,33.55z M18.5,37.15c-0.03-0.37,0.13-0.53,0.5-0.5c2,0.2,2.17,0.58,0.5,1.15
			C18.9,37.77,18.57,37.55,18.5,37.15z M31.95,37.05c-0.27-0.23-0.25-0.38,0.05-0.45c1.63-0.33,1.85-0.1,0.65,0.7
			C32.42,37.3,32.18,37.22,31.95,37.05z M26.55,37.1c-0.2-0.17-0.17-0.3,0.1-0.4c1.67-0.33,1.87-0.1,0.6,0.7
			C26.98,37.4,26.75,37.3,26.55,37.1z M24.85,36.35c-0.23,0-0.47-0.08-0.7-0.25c-0.27-0.23-0.27-0.37,0-0.4
			C25.88,35.33,26.12,35.55,24.85,36.35z M52.85,36.05c0.67-0.13,1-0.13,1,0c-0.2,0-0.42,0-0.65,0c-0.13,0-0.23,0-0.3,0H52.85z
			 M50.95,34.1c-0.3-0.27-0.28-0.42,0.05-0.45c1.63-0.33,1.82-0.12,0.55,0.65C51.32,34.3,51.12,34.23,50.95,34.1z M35.45,34.9
			c-0.27,0-0.5-0.07-0.7-0.2c-0.27-0.27-0.23-0.42,0.1-0.45C36.48,33.89,36.68,34.1,35.45,34.9z M42.2,34.15
			c-0.4-0.03-0.67-0.18-0.8-0.45c-0.1-0.23-0.03-0.37,0.2-0.4C43.37,33.03,43.57,33.32,42.2,34.15z M38.5,35.15
			c-0.13-0.17-0.08-0.27,0.15-0.3c1.47-0.33,1.78-0.18,0.95,0.45c-0.17-0.13-0.38-0.2-0.65-0.2C38.75,35.1,38.6,35.12,38.5,35.15z
			 M43.2,38.8c-0.03,0-0.05,0.02-0.05,0.05l-0.1,0.05C43.02,38.97,43,39.02,43,39.05c-0.13,0.1-0.3,0.22-0.5,0.35
			c-0.23,0-0.45-0.1-0.65-0.3c-0.3-0.17-0.28-0.3,0.05-0.4c0.97-0.17,1.4-0.17,1.3,0V38.8z M39.65,38.55c-0.07,0-0.15,0-0.25,0
			c-0.3-0.03-0.6,0.02-0.9,0.15c-0.03,0-0.05,0.03-0.05,0.1c-0.07-0.07-0.12-0.1-0.15-0.1c-0.03,0-0.05-0.02-0.05-0.05
			c-0.03,0-0.05-0.03-0.05-0.1c-0.1,0-0.15-0.02-0.15-0.05c-0.13-0.27-0.03-0.5,0.3-0.7l0.1-0.05c0,0.1,0.05,0.22,0.15,0.35
			c0.23,0.13,0.45,0.2,0.65,0.2c0.23,0,0.45-0.05,0.65-0.15C39.97,38.28,39.88,38.42,39.65,38.55z"/>
		<path fill-rule="evenodd" clip-rule="evenodd" fill="#76787C" d="M71.5,32.75c-0.23,0-0.48-0.1-0.75-0.3
			c-0.13-0.07-0.17-0.15-0.1-0.25c0.5-0.33,1.07-0.33,1.7,0C72.25,32.5,71.97,32.69,71.5,32.75z M67.55,35.05l0.05-0.1
			c0.17-0.07,0.35-0.1,0.55-0.1c0.3,0,0.55,0.07,0.75,0.2c0.1,0.13,0.13,0.27,0.1,0.4c-0.03,0.33-0.32,0.53-0.85,0.6
			c-0.23,0-0.43-0.1-0.6-0.3c-0.27-0.13-0.35-0.3-0.25-0.5c0.07-0.07,0.15-0.12,0.25-0.15V35.05z M73.25,35.9
			c0.2-0.1,0.38-0.15,0.55-0.15c0.3,0,0.53,0.08,0.7,0.25c0.17,0.13,0.23,0.25,0.2,0.35c-0.1,0.37-0.4,0.57-0.9,0.6
			c-0.27,0-0.5-0.08-0.7-0.25c-0.2-0.13-0.23-0.32-0.1-0.55c0.03-0.07,0.07-0.1,0.1-0.1c0-0.03,0.02-0.05,0.05-0.05
			C73.15,35.97,73.18,35.94,73.25,35.9z M66.7,36.9c-0.1,0.13-0.32,0.25-0.65,0.35c-0.1,0-0.25-0.05-0.45-0.15
			c-0.1,0-0.17-0.02-0.2-0.05c-0.1,0-0.15-0.03-0.15-0.1L65.2,36.9c-0.03,0.37-0.35,0.55-0.95,0.55c-0.33,0-0.6-0.1-0.8-0.3
			c-0.13-0.17-0.15-0.33-0.05-0.5c0-0.03,0.02-0.07,0.05-0.1h0.05c0.03-0.07,0.08-0.12,0.15-0.15c0.13-0.07,0.33-0.1,0.6-0.1
			c0.3,0,0.55,0.07,0.75,0.2l0.15,0.05c0-0.03,0-0.07,0-0.1c0-0.07,0.02-0.1,0.05-0.1c0-0.07,0.02-0.12,0.05-0.15
			c0-0.03,0.05-0.05,0.15-0.05c0-0.03,0-0.07,0-0.1c0.33-0.13,0.63-0.13,0.9,0C66.8,36.39,66.93,36.67,66.7,36.9z M62.05,40.3
			c-0.03-0.17-0.03-0.33,0-0.5c0.07-0.07,0.13-0.12,0.2-0.15c0-0.03,0.02-0.05,0.05-0.05l0.05-0.05c0.37-0.13,0.67-0.12,0.9,0.05
			c0.73,0.43,0.73,0.78,0,1.05c-0.07,0.03-0.17,0.07-0.3,0.1c-0.03-0.03-0.08-0.05-0.15-0.05c-0.07,0-0.13,0-0.2,0
			c-0.03,0-0.07-0.02-0.1-0.05C62.27,40.58,62.12,40.47,62.05,40.3z M63.25,42.3c0.1,0.1,0.18,0.17,0.25,0.2
			c0.13,0.13,0.18,0.27,0.15,0.4c-0.03,0.17-0.13,0.3-0.3,0.4c-0.13,0.1-0.3,0.17-0.5,0.2c-0.2,0-0.4-0.07-0.6-0.2
			c-0.07-0.03-0.13-0.07-0.2-0.1c-0.1-0.07-0.15-0.17-0.15-0.3c0-0.07,0.02-0.15,0.05-0.25c0.03-0.03,0.07-0.08,0.1-0.15h0.1
			c0-0.03,0.03-0.05,0.1-0.05c0.17-0.1,0.37-0.15,0.6-0.15C62.98,42.3,63.12,42.3,63.25,42.3z M56.35,36.9
			c0.13-0.03,0.33-0.03,0.6,0c0.27,0,0.48,0.05,0.65,0.15l0.05,0.05c0.1,0.13,0.13,0.28,0.1,0.45c-0.13,0.43-0.57,0.62-1.3,0.55
			c-0.47-0.03-0.75-0.22-0.85-0.55c-0.03-0.07-0.03-0.17,0-0.3l0.05-0.1l0.1-0.05h0.05c0-0.03,0.02-0.05,0.05-0.05
			C56.02,36.95,56.18,36.9,56.35,36.9z M58.9,42.65c0.33-0.1,0.67-0.17,1-0.2c0.4-0.03,0.75,0.03,1.05,0.2
			c0.17,0.2,0.2,0.38,0.1,0.55c-0.03,0.03-0.07,0.07-0.1,0.1c-0.3,0.3-0.8,0.43-1.5,0.4c-0.4,0-0.67-0.13-0.8-0.4
			c-0.1-0.1-0.1-0.22,0-0.35c0-0.03,0.02-0.07,0.05-0.1l0.05-0.05c0-0.07,0.03-0.1,0.1-0.1L58.9,42.65z M74.5,39.65
			c0,0.4-0.32,0.6-0.95,0.6c-0.3,0-0.55-0.1-0.75-0.3c-0.17-0.17-0.18-0.33-0.05-0.5c0-0.03,0.02-0.07,0.05-0.1h0.05
			c0.07-0.07,0.12-0.12,0.15-0.15c0.17-0.1,0.35-0.15,0.55-0.15c0.3,0,0.6,0.08,0.9,0.25C74.52,39.44,74.53,39.55,74.5,39.65z
			 M66.35,41.85c-0.13-0.07-0.2-0.18-0.2-0.35c0-0.03,0.02-0.1,0.05-0.2c0.07-0.03,0.12-0.07,0.15-0.1c0-0.03,0.02-0.05,0.05-0.05
			c0-0.03,0.02-0.07,0.05-0.1c0.17-0.1,0.35-0.15,0.55-0.15c0.37,0,0.62,0.08,0.75,0.25c0.1,0.13,0.13,0.25,0.1,0.35
			c-0.03,0.3-0.25,0.48-0.65,0.55c-0.03,0.03-0.1,0.05-0.2,0.05C66.77,42.1,66.55,42.02,66.35,41.85z M79.95,41.85
			c0.07,0.03,0.13,0.08,0.2,0.15c0.1,0.07,0.15,0.15,0.15,0.25c0,0.03,0,0.08,0,0.15c-0.03,0.33-0.33,0.53-0.9,0.6
			c-0.23,0-0.45-0.1-0.65-0.3c-0.2-0.13-0.25-0.32-0.15-0.55c0.03-0.07,0.08-0.1,0.15-0.1c0-0.03,0.02-0.05,0.05-0.05
			c0-0.03,0.02-0.07,0.05-0.1c0.17-0.07,0.35-0.1,0.55-0.1C79.63,41.8,79.82,41.82,79.95,41.85z M14.35,39.6h0.1
			c0.03,0.07,0.1,0.12,0.2,0.15c0,0.07,0.07,0.12,0.2,0.15c0.1,0.13,0.13,0.25,0.1,0.35c-0.07,0.43-0.45,0.63-1.15,0.6
			c-0.4,0-0.68-0.13-0.85-0.4V39.7l0.1-0.05c0-0.03,0.02-0.05,0.05-0.05l0.05-0.05c0.23-0.13,0.48-0.17,0.75-0.1
			C14.13,39.45,14.28,39.5,14.35,39.6z M81.95,42.45c0.1,0.13,0.13,0.25,0.1,0.35c0,0.23-0.17,0.4-0.5,0.5
			c-0.1,0.03-0.22,0.07-0.35,0.1c-0.13,0-0.25-0.03-0.35-0.1c-0.13-0.03-0.25-0.08-0.35-0.15c-0.17-0.13-0.22-0.32-0.15-0.55
			c0.07-0.07,0.12-0.12,0.15-0.15h0.05c0-0.03,0.02-0.08,0.05-0.15c0.2-0.03,0.4-0.05,0.6-0.05c0.03,0,0.12,0,0.25,0
			C81.65,42.25,81.82,42.32,81.95,42.45z M29.05,32.9c-0.27,0-0.5-0.08-0.7-0.25c-0.17-0.13-0.2-0.28-0.1-0.45
			c0.33-0.4,0.9-0.4,1.7,0c0,0.03,0,0.07,0,0.1C29.88,32.64,29.58,32.83,29.05,32.9z M20.45,40.05c0.13,0.13,0.15,0.27,0.05,0.4
			c-0.03,0.4-0.37,0.6-1,0.6c-0.13,0-0.28-0.05-0.45-0.15c-0.07,0-0.15-0.03-0.25-0.1c-0.03,0-0.05-0.02-0.05-0.05L18.7,40.7
			c-0.03,0-0.05-0.02-0.05-0.05c-0.03-0.07-0.05-0.13-0.05-0.2c0-0.1,0-0.17,0-0.2s0.02-0.08,0.05-0.15l0.1-0.1
			c0-0.03,0.02-0.05,0.05-0.05c0-0.03,0.03-0.05,0.1-0.05c0.1-0.03,0.23-0.07,0.4-0.1C19.73,39.77,20.12,39.85,20.45,40.05z
			 M24.8,40.25c0.03,0.03,0.05,0.1,0.05,0.2c0.1,0.13,0.12,0.27,0.05,0.4c-0.07,0.33-0.38,0.5-0.95,0.5c-0.03,0-0.1-0.02-0.2-0.05
			c-0.13,0-0.27-0.05-0.4-0.15c-0.07,0-0.1-0.02-0.1-0.05l-0.05-0.05c-0.03,0-0.05-0.02-0.05-0.05c-0.07-0.17-0.1-0.33-0.1-0.5
			c0-0.07,0.03-0.17,0.1-0.3l0.05-0.1h0.05c0.07-0.07,0.1-0.12,0.1-0.15c0.17-0.07,0.37-0.08,0.6-0.05
			C24.38,39.9,24.67,40.02,24.8,40.25z M18.35,41.65c0,0.03-0.02,0.08-0.05,0.15c-0.1,0.33-0.38,0.53-0.85,0.6
			c-0.17-0.07-0.37-0.1-0.6-0.1c-0.1,0-0.18-0.02-0.25-0.05c-0.57-0.13-0.77-0.4-0.6-0.8c0.03-0.03,0.07-0.07,0.1-0.1
			c0-0.03,0.02-0.05,0.05-0.05v-0.05h0.1c0.63-0.23,1.2-0.23,1.7,0c0.07,0.03,0.13,0.08,0.2,0.15c0,0.03,0.05,0.07,0.15,0.1v0.1
			L18.35,41.65z M32.65,39.1c0.07-0.03,0.13-0.07,0.2-0.1v-0.1L33,38.85c0.17-0.1,0.35-0.15,0.55-0.15c0.3,0,0.52,0.07,0.65,0.2
			c0.1,0.13,0.15,0.25,0.15,0.35c0,0.03,0,0.07,0,0.1c-0.03,0.33-0.3,0.52-0.8,0.55c-0.2,0-0.33-0.03-0.4-0.1
			c-0.1-0.03-0.2-0.08-0.3-0.15C32.62,39.52,32.55,39.33,32.65,39.1z M31.7,41.7l-0.05,0.15c0,0.13-0.07,0.28-0.2,0.45
			c-0.13,0.1-0.3,0.17-0.5,0.2c-0.17,0.1-0.35,0.17-0.55,0.2c-0.3,0-0.63-0.02-1-0.05c-0.03,0-0.1,0-0.2,0
			c-0.23,0-0.43-0.07-0.6-0.2c-0.2-0.13-0.3-0.28-0.3-0.45c0-0.03,0-0.08,0-0.15h0.05c0-0.03,0.03-0.07,0.1-0.1l0.05-0.05
			c0-0.03,0.03-0.05,0.1-0.05V41.6c0.17-0.1,0.35-0.15,0.55-0.15c-0.07-0.03-0.07-0.08,0-0.15c0-0.03,0.02-0.05,0.05-0.05V41.2
			c0-0.03,0.05-0.05,0.15-0.05c0-0.03,0.02-0.07,0.05-0.1c0.27-0.1,0.52-0.15,0.75-0.15c0.53,0,1,0.12,1.4,0.35
			C31.68,41.39,31.73,41.53,31.7,41.7z M25,45.1c-0.07-0.03-0.13-0.07-0.2-0.1c-0.2-0.13-0.23-0.32-0.1-0.55
			c0.03-0.03,0.07-0.08,0.1-0.15c0-0.03,0.02-0.05,0.05-0.05l0.05-0.05c0.17-0.1,0.35-0.15,0.55-0.15c0.3,0,0.57,0.07,0.8,0.2
			c0.03,0.13,0.1,0.25,0.2,0.35c-0.1,0-0.15,0.02-0.15,0.05c0,0.33-0.28,0.53-0.85,0.6C25.32,45.25,25.17,45.2,25,45.1z M32.65,44.2
			c0.23-0.23,0.52-0.35,0.85-0.35c1.13-0.03,1.43,0.27,0.9,0.9c-0.07,0.03-0.17,0.07-0.3,0.1c-0.2,0.1-0.38,0.15-0.55,0.15
			c-0.1-0.03-0.22-0.07-0.35-0.1c-0.1-0.03-0.22-0.07-0.35-0.1v-0.1c-0.07,0-0.1-0.02-0.1-0.05c-0.07,0-0.1-0.02-0.1-0.05
			C32.58,44.47,32.58,44.33,32.65,44.2z M48.65,33.55c-0.17-0.03-0.32-0.1-0.45-0.2c-0.1-0.17-0.12-0.33-0.05-0.5
			c0-0.03,0.02-0.07,0.05-0.1l0.15-0.05c0-0.03,0.02-0.07,0.05-0.1c0.2-0.1,0.4-0.15,0.6-0.15c0.37,0,0.63,0.08,0.8,0.25
			c0.13,0.13,0.18,0.25,0.15,0.35c-0.07,0.4-0.38,0.6-0.95,0.6C48.9,33.65,48.78,33.62,48.65,33.55z M52.85,36.05h0.05
			c0.07,0,0.17,0,0.3,0c0.23,0,0.45,0,0.65,0c0.07,0.07,0.15,0.13,0.25,0.2c0.07,0.13,0.08,0.25,0.05,0.35
			c0,0.43-0.32,0.65-0.95,0.65c-0.3,0-0.55-0.12-0.75-0.35c-0.07,0-0.15,0.02-0.25,0.05c-0.03-0.03-0.07-0.05-0.1-0.05
			c0,0.03,0,0.08,0,0.15c0,0.13-0.1,0.22-0.3,0.25c-0.73,0.33-1.58,0.55-2.55,0.65c-0.03,0-0.08-0.02-0.15-0.05
			c-0.2,0-0.37-0.05-0.5-0.15c-0.27-0.17-0.33-0.37-0.2-0.6c0.1-0.03,0.17-0.07,0.2-0.1h0.05c0-0.07,0.02-0.12,0.05-0.15
			c0.27-0.03,0.52-0.12,0.75-0.25c0.2-0.07,0.4-0.12,0.6-0.15c0.53-0.1,0.97-0.1,1.3,0c-0.07-0.17-0.07-0.33,0-0.5
			c0.07-0.07,0.12-0.12,0.15-0.15h0.05c0-0.07,0.02-0.1,0.05-0.1c0.37-0.17,0.67-0.17,0.9,0C52.63,35.85,52.75,35.95,52.85,36.05z
			 M35.6,32.65c-0.13-0.13-0.15-0.28-0.05-0.45c0.67-0.37,1.33-0.37,2,0c0.37,0.4,0.07,0.65-0.9,0.75
			C36.28,32.95,35.93,32.85,35.6,32.65z M40.5,41.25c0,0.06-0.02,0.13-0.05,0.2c-0.03,0-0.05,0.02-0.05,0.05
			c-0.17,0.2-0.45,0.3-0.85,0.3c-0.1,0-0.17-0.02-0.2-0.05c-0.2-0.03-0.38-0.13-0.55-0.3c-0.03,0-0.05-0.03-0.05-0.1
			c-0.1-0.1-0.1-0.22,0-0.35c0-0.07,0.02-0.1,0.05-0.1l0.05-0.05c0.07-0.07,0.12-0.12,0.15-0.15c0.17-0.07,0.35-0.1,0.55-0.1
			c0.37,0,0.65,0.07,0.85,0.2c0.13,0.17,0.17,0.3,0.1,0.4V41.25z M45.55,40.45c0.1,0.03,0.17,0.07,0.2,0.1
			c0.03,0.07,0.08,0.12,0.15,0.15c0.03,0.07,0.03,0.13,0,0.2c-0.07,0.4-0.42,0.6-1.05,0.6c-0.23,0-0.45-0.08-0.65-0.25
			c-0.17-0.17-0.22-0.35-0.15-0.55l0.15-0.05l0.1-0.1c0-0.03,0-0.07,0-0.1c0.17-0.1,0.35-0.15,0.55-0.15
			C45.18,40.3,45.42,40.35,45.55,40.45z M38.8,36.55c0.3,0,0.52,0.07,0.65,0.2S39.63,37,39.6,37.1c-0.03,0.37-0.3,0.57-0.8,0.6
			c-0.13,0-0.25-0.02-0.35-0.05c-0.13-0.03-0.27-0.1-0.4-0.2c-0.2-0.13-0.25-0.32-0.15-0.55c0.03-0.03,0.08-0.05,0.15-0.05
			c0-0.07,0.05-0.1,0.15-0.1c0-0.03,0.02-0.07,0.05-0.1C38.42,36.58,38.6,36.55,38.8,36.55z M46.65,37.4c-0.23,0-0.45-0.1-0.65-0.3
			c-0.2-0.13-0.23-0.32-0.1-0.55c0.03-0.03,0.07-0.07,0.1-0.1c0-0.03,0.02-0.05,0.05-0.05c0-0.03,0.02-0.05,0.05-0.05
			c0.17-0.1,0.35-0.15,0.55-0.15c0.37,0,0.62,0.07,0.75,0.2c0.13,0.13,0.18,0.28,0.15,0.45C47.48,37.15,47.18,37.33,46.65,37.4z
			 M52.35,40.05c0-0.03,0.02-0.07,0.05-0.1c0.17-0.03,0.28-0.05,0.35-0.05c0.3-0.07,0.53-0.07,0.7,0c0.5,0.27,0.75,0.52,0.75,0.75
			c0,0.27-0.28,0.5-0.85,0.7c-0.07,0-0.12-0.02-0.15-0.05c-0.1,0-0.18-0.02-0.25-0.05c-0.07,0-0.15-0.03-0.25-0.1
			c-0.03-0.07-0.12-0.15-0.25-0.25c-0.07-0.07-0.12-0.13-0.15-0.2c-0.1-0.1-0.15-0.18-0.15-0.25c-0.03-0.1-0.03-0.18,0-0.25
			s0.08-0.1,0.15-0.1C52.3,40.07,52.32,40.05,52.35,40.05z M50.3,38.65c0-0.1,0.02-0.15,0.05-0.15c0-0.03,0.03-0.05,0.1-0.05
			c0-0.03,0.02-0.07,0.05-0.1c0.37-0.17,0.72-0.13,1.05,0.1c0.87,0.57,0.85,1-0.05,1.3c0.1,0.13,0.18,0.25,0.25,0.35
			c0.03,0.27-0.23,0.48-0.8,0.65c-0.07-0.03-0.13-0.05-0.2-0.05c-0.03,0-0.08,0-0.15,0c-0.2-0.03-0.37-0.12-0.5-0.25
			c-0.03-0.03-0.05-0.08-0.05-0.15c-0.03-0.17-0.03-0.33,0-0.5c0.03-0.07,0.12-0.12,0.25-0.15V39.6l0.05-0.05l0.1-0.05
			c-0.07-0.07-0.12-0.12-0.15-0.15C50.13,39.12,50.13,38.89,50.3,38.65z M71.4,50.75c-0.17,0.07-0.32,0.1-0.45,0.1
			c-0.53-0.03-0.82-0.22-0.85-0.55c0-0.03-0.03-0.07-0.1-0.1c0.07-0.07,0.13-0.17,0.2-0.3c0.2-0.13,0.45-0.2,0.75-0.2
			c0.2,0,0.38,0.03,0.55,0.1c0.03,0.03,0.05,0.07,0.05,0.1c0.03,0,0.05,0.02,0.05,0.05c0.03,0.03,0.07,0.08,0.1,0.15
			c0.13,0.2,0.1,0.38-0.1,0.55C71.53,50.69,71.47,50.72,71.4,50.75z M63.75,49.8c0.03,0.17,0.03,0.32,0,0.45
			c0,0.03-0.02,0.05-0.05,0.05h-0.15v0.1c-0.13,0.07-0.25,0.1-0.35,0.1c-0.13,0.03-0.25,0.08-0.35,0.15c-0.2,0-0.38-0.05-0.55-0.15
			c-0.13-0.07-0.23-0.12-0.3-0.15c-0.5-0.6-0.18-0.88,0.95-0.85C63.28,49.5,63.55,49.6,63.75,49.8z"/>
		<path fill-rule="evenodd" clip-rule="evenodd" fill="#54555C" d="M63.25,42.3c-0.13,0-0.27,0-0.4,0c-0.23,0-0.43,0.05-0.6,0.15
			c-0.07,0-0.1,0.02-0.1,0.05h-0.1c-0.03,0.07-0.07,0.12-0.1,0.15c-0.03,0.1-0.05,0.18-0.05,0.25c-0.1-0.03-0.22-0.12-0.35-0.25
			c-0.13-0.13-0.17-0.3-0.1-0.5c0-0.03,0.03-0.07,0.1-0.1h0.05c0.03-0.07,0.08-0.12,0.15-0.15c0.13-0.07,0.32-0.1,0.55-0.1
			c0.37,0,0.65,0.07,0.85,0.2C63.28,42.17,63.32,42.27,63.25,42.3z M56.5,43.4c-0.03,0.33-0.32,0.52-0.85,0.55
			c-0.27,0-0.5-0.08-0.7-0.25c-0.17-0.1-0.23-0.23-0.2-0.4c0-0.03,0.02-0.07,0.05-0.1c0.07-0.07,0.12-0.12,0.15-0.15
			c0-0.03,0.02-0.05,0.05-0.05l0.05-0.05c0.17-0.1,0.37-0.15,0.6-0.15c0.3,0,0.53,0.07,0.7,0.2c0.1,0.13,0.15,0.23,0.15,0.3
			C56.5,43.33,56.5,43.37,56.5,43.4z M72.1,39.35c0.07,0.17,0.08,0.3,0.05,0.4c0,0.33-0.25,0.52-0.75,0.55
			c-0.27,0-0.52-0.07-0.75-0.2c-0.2-0.13-0.25-0.32-0.15-0.55c0.1-0.07,0.15-0.12,0.15-0.15c0-0.03,0.02-0.05,0.05-0.05l0.05-0.05
			c0.2-0.13,0.42-0.2,0.65-0.2C71.7,39.1,71.93,39.19,72.1,39.35z M71,42c0-0.03,0.02-0.07,0.05-0.1c0.2-0.07,0.38-0.1,0.55-0.1
			c0.27,0,0.47,0.03,0.6,0.1c0,0.03,0.05,0.07,0.15,0.1c0.1,0.17,0.13,0.3,0.1,0.4c-0.03,0.33-0.32,0.53-0.85,0.6
			c-0.23,0-0.45-0.1-0.65-0.3c-0.2-0.13-0.27-0.28-0.2-0.45v-0.1c0.07-0.07,0.13-0.1,0.2-0.1C70.95,42.02,70.97,42,71,42z
			 M67.85,39.1c0.3-0.13,0.62-0.17,0.95-0.1c0.3,0,0.55,0.07,0.75,0.2c0.13,0.13,0.17,0.28,0.1,0.45c-0.13,0.4-0.53,0.58-1.2,0.55
			c-0.43,0-0.72-0.15-0.85-0.45c-0.03-0.1-0.03-0.23,0-0.4l0.15-0.05v-0.05c0-0.03,0.02-0.05,0.05-0.05
			C67.8,39.14,67.82,39.1,67.85,39.1z M21,41.65c0.13,0.13,0.15,0.27,0.05,0.4c0,0.3-0.27,0.5-0.8,0.6c-0.27,0-0.5-0.08-0.7-0.25
			c-0.2-0.17-0.23-0.35-0.1-0.55c0.03-0.07,0.07-0.12,0.1-0.15c0-0.03,0.02-0.05,0.05-0.05l0.1-0.05c0.13-0.1,0.32-0.15,0.55-0.15
			C20.52,41.45,20.77,41.52,21,41.65z M32.85,44.7c-0.13,0.23-0.42,0.38-0.85,0.45c-0.23,0-0.45-0.08-0.65-0.25
			c-0.27-0.13-0.33-0.3-0.2-0.5c0.07-0.1,0.13-0.15,0.2-0.15c0-0.03,0.02-0.05,0.05-0.05c0-0.03,0.02-0.07,0.05-0.1
			c0.17-0.1,0.35-0.15,0.55-0.15c0.3,0,0.52,0.08,0.65,0.25c-0.07,0.13-0.07,0.27,0,0.4c0,0.03,0.03,0.05,0.1,0.05
			C32.75,44.69,32.78,44.7,32.85,44.7z M48.6,47.65c-0.27-0.17-0.33-0.37-0.2-0.6c0.1-0.03,0.17-0.08,0.2-0.15h0.05
			c0-0.03,0.02-0.07,0.05-0.1c0.17-0.07,0.35-0.1,0.55-0.1c0.33,0,0.57,0.07,0.7,0.2c0.1,0.13,0.13,0.25,0.1,0.35
			c-0.03,0.37-0.3,0.57-0.8,0.6C49.02,47.85,48.8,47.78,48.6,47.65z M46.35,52.9c-0.03-0.1,0-0.22,0.1-0.35
			c0.17-0.17,0.4-0.25,0.7-0.25c0.2,0,0.38,0.05,0.55,0.15c0.07,0.03,0.1,0.07,0.1,0.1h0.05c0,0.03,0.07,0.08,0.2,0.15
			c0.07,0.23,0,0.42-0.2,0.55c-0.23,0.17-0.47,0.25-0.7,0.25C46.65,53.44,46.38,53.23,46.35,52.9z M40.75,49.6
			c-0.5-0.07-0.77-0.25-0.8-0.55c0-0.03,0-0.07,0-0.1c0.57-0.9,1.13-0.9,1.7,0c0.03,0.13-0.03,0.27-0.2,0.4
			C41.25,49.52,41.02,49.6,40.75,49.6z M63.55,50.3h0.15c0.03,0,0.05-0.02,0.05-0.05c0.03-0.13,0.03-0.28,0-0.45
			c0.17-0.13,0.38-0.2,0.65-0.2c0.2,0,0.38,0.05,0.55,0.15c0.03,0,0.05,0.02,0.05,0.05c0.03,0,0.05,0.02,0.05,0.05
			c0.07,0.03,0.13,0.08,0.2,0.15c0.13,0.2,0.07,0.37-0.2,0.5c-0.2,0.2-0.42,0.3-0.65,0.3C63.97,50.73,63.68,50.57,63.55,50.3z"/>
		<path fill-rule="evenodd" clip-rule="evenodd" fill="#818387" d="M66.7,36.9c0.17,0.03,0.28,0.1,0.35,0.2
			c0.13,0.13,0.18,0.28,0.15,0.45c-0.17,0.4-0.55,0.58-1.15,0.55c-0.43,0-0.72-0.15-0.85-0.45c-0.13-0.13-0.13-0.27,0-0.4v-0.1
			l0.05-0.05h0.15v-0.05c0.03,0.03,0.1,0.05,0.2,0.05c0.2,0.1,0.35,0.15,0.45,0.15C66.38,37.15,66.6,37.03,66.7,36.9z M64.85,40.2
			l0.05-0.1c0.2-0.07,0.38-0.1,0.55-0.1c0.33,0,0.58,0.07,0.75,0.2c0.13,0.17,0.18,0.3,0.15,0.4c0,0.03,0,0.07,0,0.1
			c-0.1,0.27-0.4,0.43-0.9,0.5c-0.2,0-0.4-0.1-0.6-0.3c-0.13-0.07-0.2-0.13-0.2-0.2c0-0.1,0-0.2,0-0.3c0.03-0.07,0.1-0.12,0.2-0.15
			V40.2z M74.1,37.25c0-0.07,0.02-0.1,0.05-0.1c0-0.03,0.03-0.05,0.1-0.05c0.37-0.13,0.7-0.13,1,0c0.97,0.43,0.92,0.82-0.15,1.15
			c-0.23-0.03-0.5-0.1-0.8-0.2c-0.33-0.2-0.45-0.45-0.35-0.75C73.98,37.27,74.03,37.25,74.1,37.25z M82.3,39.25
			c0-0.03,0.02-0.05,0.05-0.05c0-0.07,0.02-0.1,0.05-0.1c0.17-0.07,0.37-0.1,0.6-0.1c0.3,0,0.55,0.07,0.75,0.2
			c0.1,0.13,0.13,0.27,0.1,0.4c-0.03,0.33-0.32,0.53-0.85,0.6c-0.23,0-0.47-0.1-0.7-0.3c-0.2-0.13-0.25-0.32-0.15-0.55
			C82.22,39.32,82.27,39.28,82.3,39.25z M75.95,38.85c0.33,0,0.58,0.07,0.75,0.2c0.1,0.13,0.15,0.25,0.15,0.35
			c-0.07,0.33-0.37,0.53-0.9,0.6c-0.23,0-0.47-0.08-0.7-0.25c-0.17-0.13-0.22-0.32-0.15-0.55c0.07-0.07,0.12-0.12,0.15-0.15h0.1
			c0-0.03,0.02-0.08,0.05-0.15C75.57,38.87,75.75,38.85,75.95,38.85z"/>
		<path fill-rule="evenodd" clip-rule="evenodd" fill="#5A5D63" d="M59.65,45c0.07-0.03,0.12-0.07,0.15-0.1
			c0-0.03,0.03-0.05,0.1-0.05c0-0.03,0.02-0.05,0.05-0.05c0.13-0.1,0.32-0.15,0.55-0.15c0.3,0,0.53,0.07,0.7,0.2
			c0.13,0.13,0.18,0.27,0.15,0.4c-0.03,0.3-0.32,0.5-0.85,0.6c-0.03,0-0.08,0-0.15,0l0.1,0.05c0.13,0.13,0.18,0.25,0.15,0.35
			c-0.07,0.37-0.35,0.57-0.85,0.6c-0.23,0-0.47-0.08-0.7-0.25c-0.23-0.13-0.28-0.32-0.15-0.55c0.07-0.03,0.12-0.08,0.15-0.15h0.1
			c0-0.03,0.02-0.07,0.05-0.1c0.13-0.1,0.32-0.15,0.55-0.15c0.1,0,0.16,0,0.2,0c-0.04,0-0.09-0.02-0.15-0.05
			C59.57,45.47,59.52,45.27,59.65,45z M73.95,43c0,0.13-0.05,0.23-0.15,0.3c-0.13,0.13-0.35,0.22-0.65,0.25
			c-0.23,0-0.47-0.08-0.7-0.25c-0.2-0.13-0.23-0.33-0.1-0.6c0.03-0.03,0.07-0.05,0.1-0.05c0-0.03,0.02-0.05,0.05-0.05
			c0-0.07,0.02-0.1,0.05-0.1c0.2-0.07,0.4-0.1,0.6-0.1c0.3,0,0.53,0.07,0.7,0.2C73.95,42.73,73.98,42.87,73.95,43z M69.95,46.3
			c0-0.03,0.03-0.07,0.1-0.1c0.17-0.07,0.37-0.1,0.6-0.1c0.27,0,0.5,0.07,0.7,0.2c0.1,0.13,0.13,0.27,0.1,0.4
			c-0.03,0.33-0.3,0.52-0.8,0.55c-0.3,0-0.55-0.07-0.75-0.2c-0.2-0.17-0.23-0.35-0.1-0.55c0.03-0.07,0.07-0.13,0.1-0.2H69.95z
			 M67.3,47.5c-0.2-0.13-0.23-0.3-0.1-0.5c0.03-0.07,0.07-0.12,0.1-0.15c0-0.03,0.03-0.05,0.1-0.05l0.15-0.1
			c0.13-0.07,0.3-0.1,0.5-0.1c0.3,0,0.53,0.07,0.7,0.2c0.13,0.17,0.18,0.3,0.15,0.4c-0.07,0.33-0.35,0.53-0.85,0.6
			C67.85,47.8,67.6,47.7,67.3,47.5z M68.6,43.95c0-0.03,0.03-0.05,0.1-0.05l0.05-0.05c0.33-0.1,0.67-0.1,1,0
			c1,0.4,0.95,0.78-0.15,1.15c-0.23-0.03-0.5-0.1-0.8-0.2c-0.33-0.2-0.43-0.43-0.3-0.7C68.53,44.07,68.57,44.02,68.6,43.95z
			 M83.15,44.1c0.07,0.13,0.08,0.25,0.05,0.35c0,0.37-0.28,0.57-0.85,0.6c-0.23,0-0.45-0.08-0.65-0.25
			c-0.2-0.13-0.25-0.32-0.15-0.55c0.07-0.03,0.12-0.07,0.15-0.1c0-0.03,0.02-0.05,0.05-0.05c0-0.03,0.02-0.05,0.05-0.05
			c0.17-0.1,0.35-0.15,0.55-0.15C82.68,43.9,82.95,43.97,83.15,44.1z M76.85,45.7c0.1,0.13,0.12,0.27,0.05,0.4
			c0,0.1-0.02,0.2-0.05,0.3c0.2,0.07,0.38,0.15,0.55,0.25c0.13,0.13,0.2,0.27,0.2,0.4c-0.1,0.3-0.38,0.5-0.85,0.6
			c-0.3-0.1-0.63-0.17-1-0.2c-0.5-0.1-0.72-0.35-0.65-0.75c0.07-0.03,0.12-0.07,0.15-0.1c0-0.03,0.03-0.05,0.1-0.05
			c0-0.03,0.02-0.05,0.05-0.05h0.05l-0.05-0.05c-0.2-0.17-0.25-0.35-0.15-0.55c0.07-0.07,0.12-0.13,0.15-0.2h0.05
			c0-0.03,0.03-0.05,0.1-0.05c0.13-0.1,0.33-0.15,0.6-0.15S76.65,45.57,76.85,45.7z M78.85,44.45c0.13,0.13,0.17,0.25,0.1,0.35
			c-0.03,0.33-0.3,0.55-0.8,0.65c-0.27,0-0.52-0.1-0.75-0.3c-0.17-0.13-0.18-0.32-0.05-0.55c0.03-0.07,0.05-0.12,0.05-0.15h0.05
			c0-0.03,0.05-0.05,0.15-0.05c0.2-0.1,0.38-0.15,0.55-0.15C78.45,44.25,78.68,44.32,78.85,44.45z M13.2,43.7
			c0.1-0.03,0.27-0.17,0.5-0.4c0.07-0.07,0.12-0.12,0.15-0.15c0.23-0.27,0.48-0.22,0.75,0.15c0.1,0.13,0.22,0.3,0.35,0.5
			c-0.07,0.3-0.35,0.47-0.85,0.5c-0.27,0-0.5-0.08-0.7-0.25C13.27,43.95,13.2,43.83,13.2,43.7z M19.95,38.85l0.1-0.05
			c0.17-0.1,0.37-0.15,0.6-0.15c0.27,0,0.5,0.07,0.7,0.2c0.13,0.13,0.18,0.27,0.15,0.4c-0.07,0.33-0.35,0.53-0.85,0.6
			c-0.27,0-0.52-0.08-0.75-0.25c-0.2-0.17-0.23-0.35-0.1-0.55c0.03-0.1,0.07-0.15,0.1-0.15C19.9,38.87,19.92,38.85,19.95,38.85z
			 M24.05,45.7c0.13,0.13,0.17,0.27,0.1,0.4c-0.03,0.33-0.3,0.53-0.8,0.6c-0.3,0-0.55-0.08-0.75-0.25c-0.2-0.17-0.23-0.35-0.1-0.55
			c0.07-0.07,0.1-0.13,0.1-0.2h0.05c0-0.03,0.03-0.05,0.1-0.05c0.17-0.1,0.37-0.15,0.6-0.15C23.65,45.5,23.88,45.57,24.05,45.7z
			 M21.45,46.2c0.13,0.17,0.18,0.3,0.15,0.4c-0.07,0.33-0.33,0.53-0.8,0.6c-0.23,0-0.5-0.1-0.8-0.3c-0.2-0.13-0.23-0.3-0.1-0.5
			c0.03-0.07,0.07-0.12,0.1-0.15c0-0.03,0.03-0.05,0.1-0.05l0.15-0.1c0.13-0.07,0.32-0.1,0.55-0.1C21.07,46,21.28,46.07,21.45,46.2z
			 M14.85,46.05c0.23-0.13,0.48-0.13,0.75,0c0.87,0.5,0.8,0.88-0.2,1.15c-0.13,0-0.27-0.03-0.4-0.1c-0.07-0.03-0.15-0.07-0.25-0.1
			c-0.07,0-0.1-0.03-0.1-0.1v-0.05c-0.07,0-0.1-0.02-0.1-0.05l-0.05-0.1c0-0.1,0-0.18,0-0.25c0-0.1,0.02-0.15,0.05-0.15l0.1-0.1
			c0-0.07,0.03-0.1,0.1-0.1L14.85,46.05z M16.05,44.3c-0.03,0-0.05-0.02-0.05-0.05c-0.07-0.03-0.1-0.07-0.1-0.1
			c0-0.07,0-0.15,0-0.25c0-0.03,0.03-0.08,0.1-0.15c0.43,0,0.92,0,1.45,0c0.4,0.37,0.17,0.67-0.7,0.9c-0.1,0-0.22-0.02-0.35-0.05
			c-0.07-0.07-0.15-0.12-0.25-0.15c-0.03,0-0.05-0.02-0.05-0.05C16.07,44.4,16.05,44.37,16.05,44.3z M18.35,41.65
			c0.07,0.1,0.08,0.2,0.05,0.3c-0.03,0.33-0.32,0.52-0.85,0.55c-0.23,0-0.47-0.07-0.7-0.2c0.23,0,0.43,0.03,0.6,0.1
			c0.47-0.07,0.75-0.27,0.85-0.6C18.33,41.73,18.35,41.69,18.35,41.65z M26.45,44.6c0.83,0.47,0.67,0.83-0.5,1.1
			c-0.03,0-0.1,0-0.2,0c-0.03,0-0.07,0-0.1,0c-0.27-0.07-0.47-0.2-0.6-0.4C25.02,45.27,25,45.2,25,45.1
			c0.17,0.1,0.32,0.15,0.45,0.15c0.57-0.07,0.85-0.27,0.85-0.6C26.3,44.62,26.35,44.6,26.45,44.6z M34.1,45.1
			c0.17-0.07,0.37-0.1,0.6-0.1c0.33,0,0.57,0.08,0.7,0.25c0.1,0.13,0.15,0.25,0.15,0.35c-0.07,0.33-0.35,0.53-0.85,0.6
			c-0.27,0-0.5-0.1-0.7-0.3c-0.2-0.13-0.27-0.3-0.2-0.5c0.07-0.07,0.13-0.12,0.2-0.15h0.05C34.05,45.19,34.07,45.14,34.1,45.1z
			 M43.95,46.1c0.2-0.07,0.38-0.1,0.55-0.1c0.3,0,0.55,0.07,0.75,0.2c0.13,0.17,0.18,0.3,0.15,0.4c-0.03,0.33-0.33,0.53-0.9,0.6
			c-0.2,0-0.42-0.1-0.65-0.3c-0.2-0.13-0.25-0.3-0.15-0.5c0.03-0.07,0.08-0.12,0.15-0.15c0-0.03,0.02-0.05,0.05-0.05L43.95,46.1z
			 M34.9,47.85h0.05c0-0.03,0.02-0.07,0.05-0.1c0.17-0.07,0.35-0.1,0.55-0.1c0.17,0,0.3,0,0.4,0c0.13,0.03,0.22,0.1,0.25,0.2h0.15
			c0.1,0.13,0.13,0.25,0.1,0.35c0,0.1-0.03,0.17-0.1,0.2h-1.6c-0.1-0.1-0.1-0.23,0-0.4C34.82,47.94,34.87,47.89,34.9,47.85z
			 M37.9,44.15c0,0.03,0,0.07,0,0.1c-0.03,0.33-0.3,0.52-0.8,0.55c-0.23,0-0.45-0.07-0.65-0.2c-0.23-0.13-0.32-0.32-0.25-0.55
			c0.1-0.1,0.18-0.15,0.25-0.15c0-0.03,0.02-0.05,0.05-0.05c0-0.03,0.03-0.07,0.1-0.1c0.13-0.07,0.3-0.1,0.5-0.1
			c0.2,0,0.37,0.02,0.5,0.05c0.1,0.03,0.17,0.08,0.2,0.15C37.87,43.98,37.9,44.08,37.9,44.15z M46.65,44.95
			c0-0.03,0.05-0.07,0.15-0.1c0.07-0.03,0.18-0.07,0.35-0.1c-0.13,0-0.22-0.03-0.25-0.1c-0.2-0.13-0.23-0.32-0.1-0.55
			c0.03-0.03,0.07-0.08,0.1-0.15c0-0.03,0.02-0.05,0.05-0.05l0.2-0.1c0.17-0.07,0.32-0.1,0.45-0.1c0.3,0,0.53,0.07,0.7,0.2
			c0.17,0.17,0.2,0.3,0.1,0.4c-0.03,0.27-0.18,0.43-0.45,0.5c0,0.07,0.03,0.12,0.1,0.15c0.1,0.13,0.13,0.25,0.1,0.35
			c-0.03,0.37-0.28,0.57-0.75,0.6c-0.3,0-0.55-0.08-0.75-0.25c-0.23-0.13-0.28-0.32-0.15-0.55c0.07-0.07,0.12-0.1,0.15-0.1V44.95z
			 M53.2,45.7c0.3,0,0.55,0.1,0.75,0.3c0.13,0.13,0.18,0.23,0.15,0.3c-0.03,0.37-0.33,0.57-0.9,0.6c-0.23,0-0.47-0.07-0.7-0.2
			c-0.2-0.13-0.23-0.33-0.1-0.6c0.03-0.03,0.07-0.07,0.1-0.1h0.15v-0.1C52.82,45.77,53,45.7,53.2,45.7z M50.6,47.95
			c0-0.03,0.03-0.05,0.1-0.05c0-0.03,0.02-0.05,0.05-0.05c0.17-0.1,0.33-0.15,0.5-0.15c0.33,0,0.6,0.07,0.8,0.2
			c0.1,0.13,0.13,0.27,0.1,0.4v0.1h-1.7c-0.07-0.1-0.05-0.22,0.05-0.35C50.53,48.02,50.57,47.98,50.6,47.95z M49.8,50.55v0.1
			c0.03,0,0.07,0.03,0.1,0.1c0.13,0.2,0.1,0.38-0.1,0.55c-0.27,0.17-0.52,0.25-0.75,0.25c-0.47-0.03-0.73-0.23-0.8-0.6
			c-0.07-0.1-0.02-0.23,0.15-0.4c0.03-0.03,0.05-0.07,0.05-0.1c-0.27-0.1-0.4-0.27-0.4-0.5c-0.13-0.13-0.12-0.27,0.05-0.4
			c0.2-0.13,0.43-0.2,0.7-0.2c0.17,0,0.33,0.03,0.5,0.1l0.05,0.05c0.03,0,0.05,0.02,0.05,0.05c0.07,0,0.1,0.02,0.1,0.05
			c0.03,0.03,0.07,0.08,0.1,0.15c0.17,0.23,0.13,0.42-0.1,0.55c-0.07,0.03-0.13,0.05-0.2,0.05c0.13,0.03,0.23,0.08,0.3,0.15
			c0.1,0,0.15,0.02,0.15,0.05H49.8z M52.45,51.75l0.05,0.1c0.03,0,0.05,0.02,0.05,0.05c0.07,0,0.12,0.05,0.15,0.15
			c0.13,0.17,0.08,0.33-0.15,0.5c-0.2,0.17-0.42,0.25-0.65,0.25c-0.57-0.03-0.87-0.22-0.9-0.55c-0.03-0.13,0.02-0.27,0.15-0.4
			c0.23-0.13,0.48-0.2,0.75-0.2C52.1,51.65,52.28,51.69,52.45,51.75z M45.55,53.45l0.05,0.05c0.03,0,0.05,0.03,0.05,0.1
			c0.03,0.03,0.08,0.07,0.15,0.1c0.1,0.1,0.12,0.22,0.05,0.35c-0.57,0.43-1.13,0.43-1.7,0c0-0.03,0-0.08,0-0.15
			c-0.07-0.1-0.03-0.23,0.1-0.4c0.2-0.13,0.45-0.2,0.75-0.2C45.2,53.3,45.38,53.35,45.55,53.45z M43.2,52.55
			c-0.53-0.03-0.82-0.23-0.85-0.6c-0.07-0.07-0.03-0.18,0.1-0.35c0.2-0.17,0.45-0.25,0.75-0.25c0.2,0,0.38,0.05,0.55,0.15
			c0.03,0.03,0.05,0.07,0.05,0.1c0.07,0,0.1,0.02,0.1,0.05c0.03,0.03,0.07,0.07,0.1,0.1c0.13,0.23,0.1,0.42-0.1,0.55
			C43.67,52.47,43.43,52.55,43.2,52.55z M35.9,50.3c0.2,0,0.38,0.03,0.55,0.1c0.07,0.03,0.1,0.07,0.1,0.1h0.05
			c0.03,0.03,0.08,0.08,0.15,0.15c0.13,0.23,0.08,0.43-0.15,0.6c-0.03,0.03-0.08,0.05-0.15,0.05c0.07,0,0.14,0,0.2,0
			c0.23,0,0.43,0.05,0.6,0.15l0.05,0.05c0.03,0,0.05,0.02,0.05,0.05c0.03,0.03,0.08,0.08,0.15,0.15c0.13,0.23,0.08,0.42-0.15,0.55
			c-0.2,0.17-0.43,0.25-0.7,0.25c-0.5-0.07-0.77-0.27-0.8-0.6c-0.03-0.13,0-0.27,0.1-0.4H35.9c-0.53-0.1-0.82-0.32-0.85-0.65
			c-0.03-0.1,0.02-0.22,0.15-0.35C35.37,50.37,35.6,50.3,35.9,50.3z M27.95,49.75c0.1,0.27,0,0.48-0.3,0.65
			c-0.33,0.1-0.62,0.18-0.85,0.25c-1.1-0.37-1.15-0.75-0.15-1.15c0.33-0.13,0.68-0.13,1.05,0v0.05c0.03,0,0.05,0.02,0.05,0.05
			C27.82,49.64,27.88,49.69,27.95,49.75z M26.5,52.65c-0.2,0.17-0.43,0.25-0.7,0.25c-0.5-0.07-0.78-0.27-0.85-0.6
			c-0.07-0.13-0.02-0.27,0.15-0.4c0.17-0.13,0.4-0.2,0.7-0.2c0.2,0,0.38,0.05,0.55,0.15l0.1,0.05c0.03,0,0.05,0.02,0.05,0.05
			c0.03,0.07,0.07,0.12,0.1,0.15C26.73,52.33,26.7,52.52,26.5,52.65z M29.2,52.6c0.13,0.23,0.1,0.42-0.1,0.55
			c-0.27,0.17-0.52,0.25-0.75,0.25c-0.47-0.07-0.75-0.27-0.85-0.6c0-0.1,0.07-0.22,0.2-0.35c0.17-0.13,0.38-0.2,0.65-0.2
			c0.2,0,0.38,0.02,0.55,0.05c0.07,0.07,0.1,0.12,0.1,0.15c0.07,0,0.1,0.02,0.1,0.05C29.13,52.53,29.17,52.57,29.2,52.6z
			 M23.45,48.6c0.07,0,0.12,0.03,0.15,0.1c0.13,0.23,0.08,0.42-0.15,0.55c-0.27,0.17-0.52,0.25-0.75,0.25
			c-0.47-0.03-0.73-0.22-0.8-0.55c-0.03-0.13,0.02-0.27,0.15-0.4c0.17-0.13,0.38-0.2,0.65-0.2c0.23,0,0.42,0.03,0.55,0.1
			c0.1,0.03,0.15,0.07,0.15,0.1C23.43,48.55,23.45,48.57,23.45,48.6z M20.95,51.35H21c0.03,0.07,0.08,0.12,0.15,0.15
			c0.1,0.23,0.05,0.42-0.15,0.55l-0.05,0.05H21c0.03,0,0.05,0.03,0.05,0.1c0.07,0,0.1,0.02,0.1,0.05c0.03,0,0.07,0.02,0.1,0.05
			c0.13,0.43-0.07,0.7-0.6,0.8c-0.37,0.03-0.7,0.08-1,0.15c-0.47-0.07-0.75-0.27-0.85-0.6c0-0.1,0.07-0.23,0.2-0.4
			c0.2-0.1,0.4-0.17,0.6-0.2c-0.07-0.1-0.1-0.22-0.1-0.35c-0.1-0.1-0.07-0.22,0.1-0.35c0.17-0.17,0.38-0.25,0.65-0.25
			s0.48,0.07,0.65,0.2C20.93,51.3,20.95,51.32,20.95,51.35z M17.45,50.45c-0.07-0.1-0.03-0.22,0.1-0.35c0.2-0.17,0.43-0.25,0.7-0.25
			c0.2,0,0.38,0.05,0.55,0.15c0.1,0.03,0.15,0.07,0.15,0.1H19c0.03,0.03,0.07,0.08,0.1,0.15c0.13,0.2,0.1,0.38-0.1,0.55
			c-0.23,0.17-0.48,0.25-0.75,0.25C17.75,50.98,17.48,50.78,17.45,50.45z M14.75,50.45c-0.23,0.17-0.47,0.25-0.7,0.25
			c-0.53-0.03-0.82-0.23-0.85-0.6c-0.03-0.1,0-0.22,0.1-0.35c0.2-0.17,0.45-0.25,0.75-0.25c0.2,0,0.38,0.05,0.55,0.15
			c0.03,0.03,0.05,0.07,0.05,0.1h0.1c0,0.03,0.05,0.08,0.15,0.15C14.97,50.14,14.92,50.32,14.75,50.45z M83,49.7
			c-0.2,0.17-0.43,0.25-0.7,0.25c-0.5-0.07-0.77-0.23-0.8-0.5c0.1-0.2,0.2-0.37,0.3-0.5h0.9c0.23,0.2,0.4,0.33,0.5,0.4
			C83.2,49.48,83.13,49.6,83,49.7z M80.5,49.5c0,0.1,0,0.18,0,0.25c0,0.03-0.03,0.08-0.1,0.15c0,0.03-0.02,0.05-0.05,0.05
			c0,0.03-0.02,0.07-0.05,0.1c0,0.03-0.02,0.05-0.05,0.05c-0.1,0.03-0.18,0.07-0.25,0.1c-0.13,0.07-0.25,0.1-0.35,0.1
			c-0.83-0.23-1.07-0.53-0.7-0.9c0.47-0.43,0.95-0.43,1.45,0L80.5,49.5z M81.7,52.6c-0.1,0.07-0.18,0.12-0.25,0.15
			c-0.17,0.03-0.32,0.05-0.45,0.05c-1-0.27-1.07-0.63-0.2-1.1c0.27-0.13,0.52-0.13,0.75,0c0.1,0,0.15,0.02,0.15,0.05
			c0.03,0,0.05,0.03,0.05,0.1l0.05,0.05c0.07,0.03,0.1,0.08,0.1,0.15c0,0.1,0,0.18,0,0.25l-0.1,0.15c0,0.03-0.02,0.05-0.05,0.05
			v0.05C81.75,52.58,81.73,52.6,81.7,52.6z M75.7,52.25c0.03,0,0.05,0.02,0.05,0.05l0.15,0.15c0.1,0.2,0.05,0.38-0.15,0.55
			c-0.27,0.17-0.52,0.25-0.75,0.25c-0.1,0-0.17-0.02-0.2-0.05c-0.03,0.03-0.1,0.05-0.2,0.05c-0.13,0-0.28-0.03-0.45-0.1
			c-0.1-0.03-0.23-0.07-0.4-0.1c-1.03-0.57-1.08-1.05-0.15-1.45c0.23-0.1,0.47-0.1,0.7,0c0.33,0.17,0.58,0.32,0.75,0.45
			c0.2,0,0.4,0.05,0.6,0.15L75.7,52.25z M70,50.2c0.07,0.03,0.1,0.07,0.1,0.1c0.03,0.33,0.32,0.52,0.85,0.55
			c0.13,0,0.28-0.03,0.45-0.1c0,0.07-0.02,0.12-0.05,0.15c-0.13,0.23-0.33,0.38-0.6,0.45c-0.03,0-0.07,0-0.1,0c-0.1,0-0.17,0-0.2,0
			C69.32,51.08,69.17,50.7,70,50.2z M62.3,50.75c0.03,0.03,0.05,0.07,0.05,0.1h0.05c0.07,0.03,0.12,0.08,0.15,0.15
			c0.13,0.23,0.08,0.42-0.15,0.55c-0.2,0.2-0.43,0.3-0.7,0.3c-0.5-0.1-0.78-0.3-0.85-0.6c0-0.13,0.05-0.27,0.15-0.4
			c0.17-0.13,0.4-0.2,0.7-0.2C61.93,50.65,62.13,50.69,62.3,50.75z M61.5,53.5c0.03,0,0.08,0.05,0.15,0.15c0.1,0.13,0.1,0.27,0,0.4
			c-0.67,0.33-1.2,0.33-1.6,0c-0.07-0.07-0.1-0.13-0.1-0.2c-0.03-0.1,0-0.22,0.1-0.35c0.07,0,0.1-0.02,0.1-0.05
			c0.07-0.1,0.17-0.15,0.3-0.15c0.13-0.03,0.27-0.05,0.4-0.05c0.2,0,0.38,0.03,0.55,0.1c0,0.03,0,0.07,0,0.1
			C61.47,53.45,61.5,53.47,61.5,53.5z M59.3,49.25c0.2,0,0.38,0.05,0.55,0.15c0.03,0.03,0.05,0.07,0.05,0.1h0.05
			c0.07,0.03,0.13,0.08,0.2,0.15c0.13,0.23,0.07,0.42-0.2,0.55c-0.2,0.17-0.42,0.25-0.65,0.25c-0.5-0.07-0.77-0.27-0.8-0.6
			c0-0.03,0-0.07,0-0.1c0-0.07,0.03-0.15,0.1-0.25c0.03-0.07,0.1-0.12,0.2-0.15C58.93,49.28,59.1,49.25,59.3,49.25z"/>
		<path fill-rule="evenodd" clip-rule="evenodd" fill="#7E8089" d="M81.25,35.85c0.1-0.07,0.17-0.12,0.2-0.15
			c0-0.03,0.02-0.05,0.05-0.05l0.05-0.1c0.17-0.07,0.35-0.1,0.55-0.1c0.3,0,0.55,0.07,0.75,0.2c0.1,0.13,0.12,0.27,0.05,0.4
			c-0.03,0.33-0.3,0.52-0.8,0.55c-0.23,0-0.45-0.08-0.65-0.25C81.22,36.22,81.15,36.05,81.25,35.85z M83.6,32.45h0.05
			c0-0.03,0.03-0.07,0.1-0.1c0.17-0.07,0.35-0.1,0.55-0.1c0.3,0,0.53,0.07,0.7,0.2c0.1,0.1,0.15,0.2,0.15,0.3v0.05
			c-0.07,0.33-0.35,0.55-0.85,0.65c-0.27,0-0.5-0.1-0.7-0.3c-0.23-0.13-0.28-0.32-0.15-0.55C83.48,32.53,83.53,32.48,83.6,32.45z
			 M77.9,32.85c0.13-0.07,0.32-0.1,0.55-0.1c0.27,0,0.48,0.07,0.65,0.2c0.1,0.13,0.13,0.25,0.1,0.35c-0.03,0.37-0.28,0.57-0.75,0.6
			c-0.27,0-0.53-0.08-0.8-0.25c-0.17-0.13-0.18-0.32-0.05-0.55c0-0.07,0.02-0.12,0.05-0.15h0.1C77.75,32.92,77.8,32.89,77.9,32.85z
			 M18.05,31.9l0.05-0.05c0.53-0.13,1-0.13,1.4,0c0.07,0,0.13,0.02,0.2,0.05c0.1,0.17,0.13,0.3,0.1,0.4
			c-0.07,0.43-0.45,0.63-1.15,0.6c-0.37,0-0.63-0.13-0.8-0.4c-0.03-0.13-0.03-0.27,0-0.4c0-0.03,0.03-0.07,0.1-0.1L18,31.95
			C18,31.92,18.02,31.9,18.05,31.9z M47.8,32.5c-0.03,0-0.08,0-0.15,0c-0.27-0.07-0.42-0.17-0.45-0.3c0.63-0.4,1.18-0.4,1.65,0
			c-0.13,0.13-0.43,0.25-0.9,0.35C47.95,32.52,47.9,32.5,47.8,32.5z"/>
		<path fill-rule="evenodd" clip-rule="evenodd" fill="#5B5C64" d="M33.25,35.4c0-0.07,0.05-0.12,0.15-0.15h0.05
			c0-0.07,0.02-0.1,0.05-0.1c0.17-0.07,0.35-0.1,0.55-0.1c0.27,0,0.5,0.07,0.7,0.2c0.13,0.13,0.18,0.27,0.15,0.4
			c-0.03,0.3-0.32,0.48-0.85,0.55c-0.23,0-0.45-0.08-0.65-0.25C33.17,35.82,33.12,35.64,33.25,35.4z M31.35,40.1
			c0.13-0.07,0.3-0.1,0.5-0.1c0.3,0,0.53,0.07,0.7,0.2c0.13,0.17,0.17,0.3,0.1,0.4c0,0.33-0.27,0.53-0.8,0.6
			c-0.23,0-0.47-0.1-0.7-0.3c-0.2-0.13-0.25-0.3-0.15-0.5c0.07-0.07,0.12-0.12,0.15-0.15c0-0.03,0.03-0.05,0.1-0.05L31.35,40.1z
			 M45.75,40.2c-0.03,0.07-0.1,0.15-0.2,0.25c-0.13-0.1-0.37-0.15-0.7-0.15c-0.2,0-0.38,0.05-0.55,0.15c0,0.03,0,0.07,0,0.1
			c-0.03-0.03-0.07-0.07-0.1-0.1c-0.1,0-0.17-0.02-0.2-0.05c-0.1-0.2-0.12-0.37-0.05-0.5c0-0.03,0.02-0.07,0.05-0.1l0.05-0.05
			c0.53-0.47,0.97-0.52,1.3-0.15h0.05c0.07,0,0.15,0.03,0.25,0.1c0.1,0.13,0.13,0.27,0.1,0.4V40.2z M39.08,41.85
			c0.06,0,0.12,0,0.17,0c0.2,0.03,0.35,0.1,0.45,0.2c0.17,0.13,0.23,0.27,0.2,0.4c0,0.03-0.03,0.1-0.1,0.2
			c-0.1,0.23-0.35,0.37-0.75,0.4c-0.27,0-0.47-0.08-0.6-0.25h-0.1c-0.27-0.13-0.3-0.32-0.1-0.55c0.03-0.07,0.07-0.12,0.1-0.15
			c0-0.03,0.03-0.05,0.1-0.05L38.5,42c0-0.03,0.05-0.07,0.15-0.1c0.1-0.03,0.23-0.05,0.4-0.05H39.08z"/>
		<path fill-rule="evenodd" clip-rule="evenodd" fill="#6B6D73" d="M24.8,40.25c-0.13-0.23-0.42-0.35-0.85-0.35
			c-0.03-0.13-0.03-0.28,0-0.45c0.07-0.07,0.13-0.1,0.2-0.1V39.3c0-0.03,0.03-0.07,0.1-0.1c0.2-0.1,0.4-0.15,0.6-0.15
			c0.3,0,0.53,0.08,0.7,0.25c0.1,0.13,0.13,0.25,0.1,0.35c-0.03,0.37-0.3,0.57-0.8,0.6H24.8z M32.75,37.4c0.33,0,0.58,0.07,0.75,0.2
			c0.13,0.13,0.17,0.25,0.1,0.35c-0.03,0.37-0.32,0.57-0.85,0.6c-0.27,0-0.5-0.08-0.7-0.25c-0.2-0.13-0.23-0.32-0.1-0.55
			c0.03-0.07,0.07-0.1,0.1-0.1c0-0.03,0.02-0.05,0.05-0.05c0-0.03,0.03-0.07,0.1-0.1C32.37,37.44,32.55,37.4,32.75,37.4z
			 M33.75,40.85c0-0.03,0.02-0.05,0.05-0.05c0-0.03,0-0.07,0-0.1c0.33-0.13,0.63-0.13,0.9,0c0.83,0.5,0.73,0.88-0.3,1.15
			c-0.13,0-0.25-0.02-0.35-0.05c-0.1-0.03-0.18-0.08-0.25-0.15h-0.05c-0.03-0.03-0.05-0.08-0.05-0.15c-0.07,0-0.1-0.02-0.1-0.05
			c-0.03-0.03-0.05-0.07-0.05-0.1c0-0.07,0-0.15,0-0.25c0-0.03,0.02-0.07,0.05-0.1C33.67,40.94,33.72,40.89,33.75,40.85z
			 M25.95,42.3c0.77,0.43,0.85,0.77,0.25,1c-0.13,0.07-0.3,0.13-0.5,0.2c-0.03-0.03-0.08-0.05-0.15-0.05c-0.07,0-0.12,0-0.15,0
			c-0.1-0.03-0.18-0.08-0.25-0.15c-0.13-0.07-0.25-0.17-0.35-0.3c-0.07-0.2-0.07-0.37,0-0.5c0.03-0.03,0.07-0.07,0.1-0.1
			c0-0.07,0.03-0.1,0.1-0.1l0.05-0.05C25.38,42.12,25.68,42.14,25.95,42.3z M38.5,35.15c0.1-0.03,0.25-0.05,0.45-0.05
			c0.27,0,0.48,0.07,0.65,0.2c0.13,0.13,0.17,0.27,0.1,0.4c-0.03,0.33-0.28,0.53-0.75,0.6c-0.3,0-0.53-0.08-0.7-0.25
			c-0.27-0.13-0.33-0.33-0.2-0.6c0.1-0.03,0.17-0.07,0.2-0.1c0-0.03,0.02-0.05,0.05-0.05c0-0.03,0.02-0.05,0.05-0.05
			C38.42,35.19,38.47,35.15,38.5,35.15z M42.9,36.4c0.13,0.13,0.18,0.28,0.15,0.45c-0.03,0.3-0.32,0.48-0.85,0.55
			c-0.2,0-0.45-0.1-0.75-0.3c-0.17-0.13-0.18-0.32-0.05-0.55c0-0.03,0.02-0.07,0.05-0.1c0-0.03,0.05-0.05,0.15-0.05
			c0-0.03,0.02-0.05,0.05-0.05c0.13-0.03,0.23-0.07,0.3-0.1c0.23,0.07,0.53,0.1,0.9,0.1C42.88,36.35,42.9,36.37,42.9,36.4z
			 M39.9,42.45c0.03-0.13-0.03-0.27-0.2-0.4c-0.1-0.1-0.25-0.17-0.45-0.2l0.1-0.1c-0.07,0.06-0.16,0.1-0.27,0.1h-0.03
			c-0.17,0-0.3,0.02-0.4,0.05c-0.1,0-0.17-0.02-0.2-0.05c-0.1,0-0.18-0.03-0.25-0.1c-0.1,0-0.15-0.02-0.15-0.05l-0.1-0.05
			c-0.03,0-0.05-0.02-0.05-0.05l-0.05-0.15c0.13,0.03,0.28,0.05,0.45,0.05c0.13-0.03,0.28-0.08,0.45-0.15c0,0.07,0.02,0.1,0.05,0.1
			c0.17,0.17,0.35,0.27,0.55,0.3c0.03,0.03,0.1,0.05,0.2,0.05c0.4,0,0.68-0.1,0.85-0.3c-0.1,0.17-0.1,0.33,0,0.5
			c0,0.03,0.02,0.05,0.05,0.05l0.05,0.05c0,0.03,0.03,0.05,0.1,0.05c0.07,0.07,0.12,0.1,0.15,0.1c-0.1,0.13-0.28,0.2-0.55,0.2
			C40.13,42.45,40.03,42.45,39.9,42.45z M40.5,41.25c0,0.03,0.03,0.05,0.1,0.05c-0.06,0.03-0.11,0.08-0.15,0.15
			C40.48,41.38,40.5,41.32,40.5,41.25z M44.3,40.55l-0.1,0.1c0-0.07,0-0.13,0-0.2C44.23,40.48,44.27,40.52,44.3,40.55z M45.75,40.2
			c0.13,0.17,0.18,0.3,0.15,0.4c0,0.03,0,0.07,0,0.1c-0.07-0.03-0.12-0.08-0.15-0.15c-0.03-0.03-0.1-0.07-0.2-0.1
			C45.65,40.35,45.72,40.27,45.75,40.2z M38.45,38.8c0-0.07,0.02-0.1,0.05-0.1c0.3-0.13,0.6-0.18,0.9-0.15c0.1,0,0.18,0,0.25,0
			c0.2,0.07,0.37,0.15,0.5,0.25c0.1,0.13,0.13,0.28,0.1,0.45c-0.17,0.4-0.57,0.57-1.2,0.5c-0.4,0-0.67-0.13-0.8-0.4
			c-0.13-0.17-0.13-0.32,0-0.45l0.05-0.05h0.05C38.35,38.82,38.38,38.8,38.45,38.8z M39.8,42.65h0.1c0.13,0.17,0.17,0.3,0.1,0.4
			c0,0.1-0.02,0.18-0.05,0.25c-0.2,0.13-0.4,0.23-0.6,0.3c0-0.07-0.03-0.15-0.1-0.25V43.3c-0.03,0-0.07,0-0.1,0
			c-0.13-0.1-0.35-0.15-0.65-0.15c-0.03,0-0.1,0-0.2,0c-0.03-0.1-0.02-0.2,0.05-0.3l0.1-0.05c0.13,0.17,0.33,0.25,0.6,0.25
			C39.45,43.02,39.7,42.89,39.8,42.65z M47.15,43.8l-0.2,0.1c-0.03,0-0.05,0.02-0.05,0.05c-0.03,0.07-0.07,0.12-0.1,0.15
			c-0.13,0.23-0.1,0.42,0.1,0.55c0.03,0.07,0.12,0.1,0.25,0.1c-0.17,0.03-0.28,0.07-0.35,0.1c-0.1,0.03-0.15,0.07-0.15,0.1
			c-0.2-0.03-0.38-0.1-0.55-0.2c-0.2-0.17-0.23-0.35-0.1-0.55c0.03-0.07,0.07-0.12,0.1-0.15h0.1c0-0.07,0.02-0.12,0.05-0.15
			c0.17-0.07,0.37-0.1,0.6-0.1C46.92,43.8,47.02,43.8,47.15,43.8z M49.8,50.55h-0.05c0-0.03-0.05-0.05-0.15-0.05
			c-0.07-0.07-0.17-0.12-0.3-0.15c0.07,0,0.13-0.02,0.2-0.05c0.23-0.13,0.27-0.32,0.1-0.55c-0.03-0.07-0.07-0.12-0.1-0.15
			c0-0.03-0.03-0.05-0.1-0.05c0-0.03-0.02-0.05-0.05-0.05l-0.05-0.05c0.07,0,0.15,0,0.25,0c0.23,0,0.45,0.03,0.65,0.1
			c0,0.03,0,0.07,0,0.1c0.07,0,0.1,0.02,0.1,0.05c0.03,0.03,0.07,0.07,0.1,0.1c0.13,0.23,0.1,0.42-0.1,0.55
			C50.13,50.45,49.97,50.52,49.8,50.55z"/>
		<path fill-rule="evenodd" clip-rule="evenodd" fill="#6B6C74" d="M39.35,41.75l-0.1,0.1c-0.06,0-0.12,0-0.17,0
			C39.19,41.85,39.28,41.81,39.35,41.75z"/>
	</g>
	<g>
		<path fill-rule="evenodd" clip-rule="evenodd" fill="#C61C1C" d="M88.6,33.1c0.67,0.3,0.6,0.68-0.2,1.15
			c-0.1,0.03-0.2,0.05-0.3,0.05c-0.17-0.43-0.02-0.83,0.45-1.2H88.6z M89.9,34.55c0.2-0.23,0.42-0.47,0.65-0.7l0.05-0.1
			c-0.03,0.23-0.25,0.5-0.65,0.8H89.9z M94,33.45c-0.3-0.03-0.32-0.15-0.05-0.35c0.2-0.17,0.37-0.33,0.5-0.5
			c0.53,0.13,1.02,0.27,1.45,0.4c-0.33,0.6-0.97,0.78-1.9,0.55C94,33.52,94,33.48,94,33.45z M91.3,36.25
			c-0.47-0.4-0.33-0.85,0.4-1.35c0.43,0.37,0.32,0.82-0.35,1.35H91.3z M92.3,40.85c-0.27-0.03-0.45-0.08-0.55-0.15
			c-0.3-0.17-0.4-0.43-0.3-0.8c0.1-0.23,0.25-0.33,0.45-0.3c1.63,0,1.88,0.38,0.75,1.15C92.55,40.78,92.43,40.82,92.3,40.85z
			 M113.75,34c-0.5-0.07-0.87-0.23-1.1-0.5c-0.23-0.2-0.2-0.32,0.1-0.35C114.65,32.85,114.98,33.14,113.75,34z M91.15,43.5
			c-0.77-0.33-0.67-0.5,0.3-0.5c2.43,0,2.98,0.37,1.65,1.1C92.37,44,91.72,43.8,91.15,43.5z M107.05,33.35
			c-0.2-0.23-0.12-0.38,0.25-0.45c2.13-0.23,2.37,0.05,0.7,0.85C107.57,33.72,107.25,33.58,107.05,33.35z M97.7,35.05
			c0.33-0.07,0.58-0.07,0.75,0c0.43,0.03,0.18,0.28-0.75,0.75c-0.27,0-0.47-0.08-0.6-0.25c-0.37-0.27-0.32-0.43,0.15-0.5
			C97.45,35.05,97.6,35.05,97.7,35.05z M98.95,33.45c0.1-0.1,0.22-0.22,0.35-0.35c0.07-0.1,0.15-0.18,0.25-0.25
			c0.6,0.37,0.4,0.58-0.6,0.65V33.45z M100.45,41.35c-0.33-0.07-0.6-0.22-0.8-0.45c-0.03-0.03-0.07-0.07-0.1-0.1l-0.05-0.05
			c-0.27-0.27-0.22-0.42,0.15-0.45c0.73-0.03,1.27,0.02,1.6,0.15c0.17,0.1,0.18,0.23,0.05,0.4c-0.17,0.17-0.42,0.33-0.75,0.5
			C100.52,41.35,100.48,41.35,100.45,41.35z M97.1,37.8c-0.03-0.23,0.07-0.37,0.3-0.4c1.93-0.03,2.2,0.45,0.8,1.45
			C97.47,38.72,97.1,38.37,97.1,37.8z M113.6,41.1c-0.1-0.17-0.03-0.27,0.2-0.3c1.37-0.27,1.72-0.15,1.05,0.35
			c-0.13,0.1-0.3,0.2-0.5,0.3c-0.23,0-0.43-0.07-0.6-0.2C113.65,41.19,113.6,41.14,113.6,41.1z M108.8,39.65
			c-0.23,0-0.43-0.07-0.6-0.2c-0.23-0.27-0.18-0.42,0.15-0.45C109.92,38.67,110.07,38.89,108.8,39.65z M133.95,35.25
			c-0.27-0.2-0.25-0.32,0.05-0.35c1.63-0.3,1.83-0.1,0.6,0.6C134.37,35.5,134.15,35.42,133.95,35.25z M115.05,43.25
			c-0.07-0.27-0.02-0.4,0.15-0.4c1.77-0.33,1.98-0.05,0.65,0.85C115.42,43.7,115.15,43.55,115.05,43.25z M116.15,34.3
			c1.6-0.3,1.8-0.08,0.6,0.65c-0.27,0-0.52-0.08-0.75-0.25C115.77,34.53,115.82,34.4,116.15,34.3z M119.15,47.1
			c-0.27,0-0.47-0.05-0.6-0.15c-0.37-0.3-0.32-0.5,0.15-0.6C120.63,46.05,120.78,46.3,119.15,47.1z M135.8,42.25
			c-0.03,0.07-0.15,0.17-0.35,0.3c-0.23,0.1-0.52,0.22-0.85,0.35c-0.93-0.23-1.15-0.62-0.65-1.15c0.1-0.17,0.22-0.25,0.35-0.25
			c0.07,0,0.15,0,0.25,0c0.1,0,0.18,0,0.25,0C135.77,41.7,136.1,41.95,135.8,42.25z M126.85,48.3c-0.17,0.13-0.35,0.2-0.55,0.2
			c-0.27-0.1-0.47-0.22-0.6-0.35c-0.63-0.47-0.27-0.57,1.1-0.3c0.23,0.03,0.32,0.13,0.25,0.3C127.05,48.22,126.98,48.27,126.85,48.3
			z M134.2,45.75c-0.1-0.23-0.05-0.37,0.15-0.4c1.7-0.4,1.93-0.13,0.7,0.8C134.58,46.15,134.3,46.02,134.2,45.75z M140.05,32.7
			c-0.27-0.2-0.23-0.33,0.1-0.4c1.6-0.33,1.8-0.12,0.6,0.65C140.48,32.95,140.25,32.87,140.05,32.7z M140.95,48
			c-0.23,0.2-0.5,0.33-0.8,0.4c-0.03,0-0.07,0-0.1,0c-0.33-0.17-0.58-0.33-0.75-0.5c-0.17-0.17-0.15-0.3,0.05-0.4
			c0.33-0.13,0.87-0.18,1.6-0.15c0.37,0.03,0.42,0.2,0.15,0.5c-0.03,0-0.05,0.02-0.05,0.05C141.02,47.9,140.98,47.94,140.95,48z
			 M147.7,37.7c-0.13-0.23-0.08-0.37,0.15-0.4c1.93-0.23,2.2,0.05,0.8,0.85C148.22,38.12,147.9,37.97,147.7,37.7z M147.95,47.8
			c-1.13-0.73-0.88-1.12,0.75-1.15c0.2-0.03,0.35,0.07,0.45,0.3c0.1,0.37,0,0.63-0.3,0.8c-0.1,0.1-0.28,0.15-0.55,0.15
			C148.17,47.87,148.05,47.83,147.95,47.8z M147.5,51.15c-1.3-0.73-0.75-1.1,1.65-1.1c0.97,0,1.07,0.17,0.3,0.5
			C148.92,50.85,148.27,51.05,147.5,51.15z M125.55,50.3c-0.1,0.3-0.37,0.47-0.8,0.5c-1.33-0.93-1.12-1.23,0.65-0.9
			C125.57,49.94,125.62,50.07,125.55,50.3z M122,54c-0.1,0.1-0.27,0.15-0.5,0.15c-1.67-0.8-1.55-1.05,0.35-0.75
			C122.35,53.5,122.4,53.7,122,54z M105.15,49.6c-0.2-0.13-0.32-0.23-0.35-0.3c-0.3-0.3,0.03-0.55,1-0.75c0.07,0,0.15,0,0.25,0
			c0.1,0,0.18,0,0.25,0c0.13,0.03,0.25,0.12,0.35,0.25c0.47,0.57,0.25,0.95-0.65,1.15C105.63,49.85,105.35,49.73,105.15,49.6z
			 M106.4,52.8c-0.1,0.27-0.38,0.4-0.85,0.4c-1.27-0.9-1.03-1.17,0.7-0.8C106.45,52.44,106.5,52.57,106.4,52.8z"/>
		<path fill-rule="evenodd" clip-rule="evenodd" fill="#6B6C74" d="M88.55,34.45v0.05c-0.07,0-0.15,0-0.25,0
			C88.4,34.47,88.48,34.45,88.55,34.45z"/>
		<path fill-rule="evenodd" clip-rule="evenodd" fill="#E43A3A" d="M95.25,40.75c0,0.2-0.3,0.48-0.9,0.85
			c-0.47-0.03-0.77-0.18-0.9-0.45c-0.03-0.23,0.03-0.37,0.2-0.4l0.1-0.05C94.82,40.53,95.32,40.55,95.25,40.75z M88.8,36.45
			c0.3,0.33,0.13,0.67-0.5,1c-0.03,0.03-0.07,0.05-0.1,0.05c-0.03-0.37,0.15-0.7,0.55-1L88.8,36.45z M89.3,39.45
			c-0.2,0.3-0.43,0.55-0.7,0.75c-0.03,0.07-0.07,0.12-0.1,0.15c-0.43-0.1-0.85-0.25-1.25-0.45c0.27-0.27,0.5-0.5,0.7-0.7L88,39.05
			c0.4,0.13,0.78,0.25,1.15,0.35C89.22,39.44,89.27,39.45,89.3,39.45z M106.05,33.9c-0.3,0.27-0.57,0.52-0.8,0.75
			c-1.27-0.4-1.37-1-0.3-1.8c0.2,0.33,0.48,0.68,0.85,1.05C105.83,33.9,105.92,33.9,106.05,33.9z M99.7,32.9
			c-0.23-0.13-0.12-0.38,0.35-0.75c0.07-0.03,0.1-0.07,0.1-0.1c0.63,0.23,0.52,0.52-0.35,0.85H99.7z M101.3,40.85
			c0.13-0.17,0.12-0.3-0.05-0.4c0.07-0.03,0.15-0.05,0.25-0.05c1.9-0.17,2.58,0,2.05,0.5c-0.13,0.17-0.32,0.32-0.55,0.45
			c-0.67-0.03-1.23-0.18-1.7-0.45V40.85z M99.65,40.9c0.2,0.23,0.47,0.38,0.8,0.45c-0.17,0.1-0.38,0.22-0.65,0.35
			c-0.33,0-0.58-0.12-0.75-0.35c-0.17-0.23-0.08-0.37,0.25-0.4C99.43,40.92,99.55,40.9,99.65,40.9z M95.6,43.7
			c1.73-0.3,1.98-0.05,0.75,0.75c-0.3,0-0.58-0.1-0.85-0.3C95.27,43.92,95.3,43.77,95.6,43.7z M95.85,46.85
			c-0.57-0.3-0.95-0.55-1.15-0.75h2C96.7,46.5,96.42,46.75,95.85,46.85z M107.25,43.5c0.57,0.13,0.85,0.22,0.85,0.25
			c0.07,0.03,0.17,0.05,0.3,0.05c2.9,0.3,3.08,0.68,0.55,1.15c-0.57,0-1-0.17-1.3-0.5c-0.63,0.9-1.3,1.02-2,0.35
			c0-0.1,0.03-0.15,0.1-0.15C106.52,44.58,107.02,44.2,107.25,43.5z M134.5,33.9c1.6-0.33,1.8-0.12,0.6,0.65
			c-0.2,0-0.43-0.08-0.7-0.25C134.17,34.1,134.2,33.97,134.5,33.9z M119.2,33.6c-0.3-0.2-0.25-0.33,0.15-0.4
			c2.37-0.27,2.87,0.05,1.5,0.95C120.18,34.12,119.63,33.94,119.2,33.6z M135.35,39c-0.2,0-0.38-0.05-0.55-0.15
			c-0.33-0.27-0.32-0.43,0.05-0.5C136.42,38.05,136.58,38.27,135.35,39z M127.75,43.55c-0.27,0-0.48-0.08-0.65-0.25
			c-0.3-0.2-0.28-0.33,0.05-0.4C128.72,42.6,128.92,42.82,127.75,43.55z M142,36.5c-0.23,0-0.47-0.08-0.7-0.25
			c-0.27-0.2-0.25-0.33,0.05-0.4C142.98,35.55,143.2,35.77,142,36.5z M144.75,39.75c-0.73-0.1-1.02-0.43-0.85-1
			c0.03-0.27,0.22-0.4,0.55-0.4C146.52,38.35,146.62,38.82,144.75,39.75z M140.15,48.4c0.3-0.07,0.57-0.2,0.8-0.4
			c0.1,0,0.22,0.02,0.35,0.05c0.33,0,0.42,0.12,0.25,0.35c-0.17,0.23-0.43,0.35-0.8,0.35C140.52,48.62,140.32,48.5,140.15,48.4z
			 M139.35,47.5c-0.2,0.1-0.22,0.23-0.05,0.4V48c-0.5,0.23-1.07,0.37-1.7,0.4c-0.23-0.17-0.42-0.3-0.55-0.4
			c-0.53-0.53,0.13-0.72,2-0.55C139.18,47.45,139.28,47.47,139.35,47.5z M147,47.8c0.13,0.07,0.18,0.18,0.15,0.35
			c-0.1,0.33-0.4,0.5-0.9,0.5c-0.6-0.37-0.9-0.63-0.9-0.8c-0.03-0.23,0.47-0.27,1.5-0.1L147,47.8z M151.3,46.5c0.03,0,0.07,0,0.1,0
			c0.4-0.13,0.8-0.25,1.2-0.35l0.05,0.1c0.2,0.2,0.43,0.42,0.7,0.65c-0.4,0.23-0.82,0.4-1.25,0.5c-0.03-0.03-0.07-0.08-0.1-0.15
			C151.73,47.02,151.5,46.77,151.3,46.5z M152.6,43.15c1.4,0.67,1.02,1.28-1.15,1.85c-0.27,0-0.45-0.1-0.55-0.3
			c-0.13-0.53,0.12-1.02,0.75-1.45C151.98,43.02,152.3,42.98,152.6,43.15z M145.05,50.8c0.27,0.03,0.28,0.18,0.05,0.45
			c-0.27,0.17-0.57,0.25-0.9,0.25C143,50.7,143.28,50.47,145.05,50.8z M133.3,50.55c0.27,0.7,0.77,1.08,1.5,1.15
			c0.07,0,0.1,0.07,0.1,0.2c-0.67,0.63-1.32,0.52-1.95-0.35c-0.3,0.3-0.75,0.45-1.35,0.45c-2.5-0.47-2.3-0.85,0.6-1.15
			c0.13,0,0.23,0,0.3,0C132.5,50.78,132.77,50.69,133.3,50.55z M113.5,50.35c-0.2,0.17-0.42,0.25-0.65,0.25
			c-1.2-0.73-1-0.95,0.6-0.65C113.78,50.02,113.8,50.15,113.5,50.35z M88,50.2c0.3-0.17,0.6-0.13,0.9,0.1
			c0.67,0.43,0.93,0.9,0.8,1.4c-0.1,0.23-0.28,0.35-0.55,0.35C86.98,51.52,86.6,50.9,88,50.2z"/>
		<path fill-rule="evenodd" clip-rule="evenodd" fill="#E73F3F" d="M98.45,35.05c-0.17-0.07-0.42-0.07-0.75,0
			c-0.1-0.1-0.23-0.17-0.4-0.2c0.17-0.13,0.25-0.25,0.25-0.35v-0.05V34.2c0.07,0.07,0.15,0.12,0.25,0.15c-0.1,0-0.18,0.03-0.25,0.1
			c0.07,0,0.15,0,0.25,0C98.1,34.65,98.32,34.85,98.45,35.05z"/>
		<path fill-rule="evenodd" clip-rule="evenodd" fill="#E03334" d="M100.75,37.1c-0.17-0.43-0.02-0.67,0.45-0.7
			c1.73-0.23,2.05,0.02,0.95,0.75C102.12,37.15,101.65,37.14,100.75,37.1z"/>
		<path fill-rule="evenodd" clip-rule="evenodd" fill="#E03B3A" d="M99.3,36.75c0.13-0.1,0.2-0.22,0.2-0.35l0.1-0.55
			C101.13,35.82,101.03,36.12,99.3,36.75z"/>
		<path fill-rule="evenodd" clip-rule="evenodd" fill="#DD3233" d="M98.1,36.95c1.6,0.4,1.6,0.55,0,0.45V36.95z"/>
		<path fill-rule="evenodd" clip-rule="evenodd" fill="#DF3333" d="M97.9,45.4c0.1-0.07,0.27,0.1,0.5,0.5
			c0.37,0.57,0.02,1.08-1.05,1.55c-0.07,0.03,0.03,0.1,0.3,0.2H96.1C96.4,46.89,97,46.14,97.9,45.4z M142.2,52.95
			c0.23-0.4,0.4-0.57,0.5-0.5c0.87,0.73,1.45,1.48,1.75,2.25h-1.5c0.3-0.1,0.4-0.17,0.3-0.2C142.18,54.03,141.83,53.52,142.2,52.95z
			"/>
		<path fill-rule="evenodd" clip-rule="evenodd" fill="#E84241" d="M98.8,47.05c0.67-0.2,1.3,0,1.9,0.6h-1.05
			c0-0.1-0.03-0.17-0.1-0.2C99.38,47.28,99.13,47.15,98.8,47.05z M140.95,54.7h-1.05c0.57-0.6,1.2-0.8,1.9-0.6
			c-0.33,0.13-0.58,0.27-0.75,0.4C140.98,54.53,140.95,54.6,140.95,54.7z"/>
		<path fill-rule="evenodd" clip-rule="evenodd" fill="#E43234" d="M101,44.85c1.13,0.3,1.53,0.67,1.2,1.1
			c-0.8,1.63-1.65,1.57-2.55-0.2c0.1-0.57,0.47-0.88,1.1-0.95L101,44.85z M140.95,52.8c-0.9,1.77-1.77,1.85-2.6,0.25
			c-0.3-0.47,0.12-0.85,1.25-1.15h0.25C140.45,51.94,140.82,52.23,140.95,52.8z"/>
		<path fill-rule="evenodd" clip-rule="evenodd" fill="#E23032" d="M104.1,46.5l0.3,0.55c-0.27-0.1-0.83-0.33-1.7-0.7
			C103.33,45.65,103.8,45.7,104.1,46.5z M136.2,54.1l0.25-0.6c0.3-0.77,0.78-0.78,1.45-0.05C137,53.78,136.43,54,136.2,54.1z"/>
		<path fill-rule="evenodd" clip-rule="evenodd" fill="#E13435" d="M112.15,37.55c1.63,0.27,1.53,0.45-0.3,0.55
			C111.65,37.67,111.75,37.48,112.15,37.55z M122,37.3c0.87,2.1,0.15,2.03-2.15-0.2C121.02,36.64,121.73,36.7,122,37.3z"/>
		<path fill-rule="evenodd" clip-rule="evenodd" fill="#E33737" d="M108.1,38.7c0.53-0.57,0.73-1.1,0.6-1.6
			c-0.17-0.7,0-0.87,0.5-0.5C110,37.27,109.63,37.97,108.1,38.7z M147.85,42.85l-0.3,1.05c-0.03,0.17-0.07,0.3-0.1,0.4
			c-0.6,1.2-1.03,1.37-1.3,0.5C145.78,43.5,146.35,42.85,147.85,42.85z M92.75,49.9c1.5,0,2.05,0.67,1.65,2
			c-0.23,0.83-0.63,0.65-1.2-0.55c-0.07-0.07-0.13-0.2-0.2-0.4L92.75,49.9z"/>
		<path fill-rule="evenodd" clip-rule="evenodd" fill="#E03233" d="M117.2,36.45c0-0.1,0.02-0.17,0.05-0.2
			C120.65,35.95,120.63,36.02,117.2,36.45z"/>
		<path fill-rule="evenodd" clip-rule="evenodd" fill="#DF3737" d="M118.3,40.65c0-0.13,0.03-0.25,0.1-0.35
			c0.5-0.93,1.12-1.78,1.85-2.55c0,0.1-0.03,0.22-0.1,0.35C119.95,39.17,119.33,40.02,118.3,40.65z"/>
		<path fill-rule="evenodd" clip-rule="evenodd" fill="#E13B3B" d="M121.5,42.35l0.6,0.2c-0.27,0.57-1.13,0.78-2.6,0.65
			C119.67,42.33,120.33,42.05,121.5,42.35z M119.15,49.45c1.13-0.33,1.78-0.07,1.95,0.8c-1.47,0.13-2.35-0.08-2.65-0.65
			L119.15,49.45z"/>
		<path fill-rule="evenodd" clip-rule="evenodd" fill="#E13334" d="M135.8,42.25c0.4-0.2,0.07,0.12-1,0.95c0-0.1,0.03-0.18,0.1-0.25
			c0.2-0.17,0.38-0.3,0.55-0.4C135.65,42.42,135.77,42.32,135.8,42.25z M104.8,49.3c0.03,0.07,0.15,0.17,0.35,0.3
			c0.17,0.13,0.35,0.27,0.55,0.4c0.07,0.07,0.1,0.15,0.1,0.25C104.77,49.42,104.43,49.1,104.8,49.3z"/>
		<path fill-rule="evenodd" clip-rule="evenodd" fill="#E43637" d="M120.6,36.15c0.03-0.6,0.37-0.83,1-0.7
			C122.87,35.69,122.53,35.92,120.6,36.15z"/>
		<path fill-rule="evenodd" clip-rule="evenodd" fill="#E03837" d="M146.3,47.65c0.2-1.27,0.4-1.27,0.6,0H146.3z M94.3,54.7h-0.6
			C93.9,53.44,94.1,53.44,94.3,54.7z"/>
	</g>
	<g>
		<linearGradient id="SVGID_1_" gradientUnits="userSpaceOnUse" x1="29.7002" y1="43.1763" x2="131.3002" y2="43.1763">
			<stop  offset="0" style="stop-color:#000000;stop-opacity:0.498"/>
			<stop  offset="1" style="stop-color:#000000;stop-opacity:0"/>
		</linearGradient>
		<rect x="12.35" y="31" fill-rule="evenodd" clip-rule="evenodd" fill="url(#SVGID_1_)" width="142.2" height="24.35"/>
	</g>
	<g>
		<g>
			<g>
				<path fill-rule="evenodd" clip-rule="evenodd" fill-opacity="0.4706" d="M144.5,45c0.83,4.67,1.02,7.92,0.55,9.75h-4.1
					c0-0.1,0-0.22,0-0.35c-0.4-2.17-0.53-4.65-0.4-7.45C140.65,44.12,141.97,43.47,144.5,45z"/>
			</g>
			<g>
				<path fill-rule="evenodd" clip-rule="evenodd" fill="#616161" d="M143.05,45c0.27,0.3,0.4,0.6,0.4,0.9v9.2
					c0,2.17-0.27,3.45-0.8,3.85c-0.57,0.67-1.28,0.7-2.15,0.1c-0.07-0.07-0.15-0.13-0.25-0.2c-0.13-0.03-1.3-1.3-3.5-3.8l3.3,0.05
					l0.5,0.7h0.05c0.17,0,0.3,0.08,0.4,0.25c0-0.3,0-0.6,0-0.9V45.9c0-0.3,0.13-0.6,0.4-0.9c0.23-0.2,0.52-0.3,0.85-0.3
					C142.55,44.7,142.82,44.8,143.05,45z"/>
			</g>
			<g>
				<path fill-rule="evenodd" clip-rule="evenodd" fill="#FFFFFF" d="M142.45,45.45c0.3,0.67,0.08,1.02-0.65,1.05
					c0-0.03-0.02-0.08-0.05-0.15c-0.07-0.47,0.13-0.8,0.6-1C142.38,45.35,142.42,45.39,142.45,45.45z"/>
				
					<radialGradient id="SVGID_2_" cx="-680.6499" cy="-689.7983" r="4.7" gradientTransform="matrix(-1 0 0 1.0106 -538 749.9379)" gradientUnits="userSpaceOnUse">
					<stop  offset="0" style="stop-color:#FFFFFF"/>
					<stop  offset="1" style="stop-color:#F9F9F9;stop-opacity:0"/>
				</radialGradient>
				<path fill-rule="evenodd" clip-rule="evenodd" fill="url(#SVGID_2_)" d="M142.55,48c0.03-0.03,0.07-0.03,0.1,0
					c0.03-0.03,0.07-0.03,0.1,0s0.03,0.07,0,0.1v9.5c0.03,0.03,0.03,0.07,0,0.1s-0.07,0.05-0.1,0.05c-0.03,0-0.07-0.02-0.1-0.05
					c-0.07-0.03-0.1-0.07-0.1-0.1v-9.5C142.45,48.07,142.48,48.03,142.55,48z"/>
			</g>
		</g>
	</g>
	<g>
		<g>
			<g>
				<path fill-rule="evenodd" clip-rule="evenodd" fill-opacity="0.4706" d="M30.25,45c0.87,4.67,1.07,7.92,0.6,9.75h-4.1
					c0-0.1,0-0.22,0-0.35c-0.4-2.17-0.53-4.65-0.4-7.45C26.45,44.12,27.75,43.47,30.25,45z"/>
			</g>
			<g>
				<path fill-rule="evenodd" clip-rule="evenodd" fill="#616161" d="M28.05,44.7c0.27,0,0.53,0.1,0.8,0.3c0.27,0.3,0.4,0.6,0.4,0.9
					v9.2c0,2.17-0.28,3.45-0.85,3.85c-0.53,0.67-1.23,0.7-2.1,0.1c-0.07-0.07-0.15-0.13-0.25-0.2c-0.13-0.03-1.3-1.3-3.5-3.8
					l3.3,0.05l0.5,0.7h0.05c0.13,0,0.27,0.08,0.4,0.25c0-0.3,0-0.6,0-0.9V45.9c0-0.3,0.12-0.6,0.35-0.9
					C27.42,44.8,27.72,44.7,28.05,44.7z"/>
			</g>
			<g>
				<path fill-rule="evenodd" clip-rule="evenodd" fill="#FFFFFF" d="M28.15,45.35c0.03,0,0.07,0.03,0.1,0.1
					c0.3,0.67,0.08,1.02-0.65,1.05c0-0.03-0.02-0.08-0.05-0.15C27.48,45.89,27.68,45.55,28.15,45.35z"/>
				
					<radialGradient id="SVGID_3_" cx="-566.3999" cy="-689.7983" r="4.7" gradientTransform="matrix(-1 0 0 1.0106 -538 749.9379)" gradientUnits="userSpaceOnUse">
					<stop  offset="0" style="stop-color:#FFFFFF"/>
					<stop  offset="1" style="stop-color:#F9F9F9;stop-opacity:0"/>
				</radialGradient>
				<path fill-rule="evenodd" clip-rule="evenodd" fill="url(#SVGID_3_)" d="M28.4,48c0.03-0.03,0.08-0.03,0.15,0
					c0.03,0.03,0.03,0.07,0,0.1v9.5c0.03,0.03,0.03,0.07,0,0.1c-0.07,0.03-0.12,0.05-0.15,0.05s-0.07-0.02-0.1-0.05
					c-0.03-0.03-0.05-0.07-0.05-0.1v-9.5c0-0.03,0.02-0.07,0.05-0.1C28.33,47.97,28.37,47.97,28.4,48z"/>
			</g>
		</g>
	</g>
</g>
</svg>
