<?xml version="1.0" encoding="utf-8"?>
<!-- Generator: Adobe Illustrator 16.0.0, SVG Export Plug-In . SVG Version: 6.00 Build 0)  -->
<!DOCTYPE svg PUBLIC "-//W3C//DTD SVG 1.1//EN" "http://www.w3.org/Graphics/SVG/1.1/DTD/svg11.dtd">
<svg version="1.1" id="Layer_7" xmlns="http://www.w3.org/2000/svg" xmlns:xlink="http://www.w3.org/1999/xlink" x="0px" y="0px"
	 width="163.67px" height="63.33px" viewBox="0 0 163.67 63.33" enable-background="new 0 0 163.67 63.33" xml:space="preserve">
<g>
	<g>
		<g>
			<path fill-rule="evenodd" clip-rule="evenodd" fill="#616161" d="M90.8,8.65l0.1,0.05c1.17,1.47,2.43,2.22,3.8,2.25h42.4
				c0.03,0,0.07,0,0.1,0c2.53,0.23,4.07,1.98,4.6,5.25c0,0.1,0,0.17,0,0.2v17.5c0,0.27-0.08,0.5-0.25,0.7
				c-0.17,0.23-0.38,0.38-0.65,0.45c-0.27,0.03-0.5,0-0.7-0.1c-0.33-0.1-0.53-0.28-0.6-0.55l-0.2-0.45l-0.35,21.2h-2.35l0.45-26.3
				c0-0.3,0.08-0.53,0.25-0.7c0.2-0.27,0.42-0.42,0.65-0.45c0.23-0.07,0.48-0.05,0.75,0.05c0.23,0.13,0.42,0.32,0.55,0.55l0.1,0.25
				V16.6c-0.27-1.97-1.1-3.05-2.5-3.25H94.7c-2.07,0-3.92-1.05-5.55-3.15L86.2,6.75c-0.53-0.57-1.03-0.95-1.5-1.15
				c-0.43-0.17-0.83-0.17-1.2,0c-0.57,0.2-1.12,0.63-1.65,1.3L79.7,9.55c-1.5,2.53-3.68,3.8-6.55,3.8h-45.6
				c-1.33,0.2-2.15,1.28-2.45,3.25v12l0.1-0.25c0.1-0.27,0.28-0.47,0.55-0.6c0.23-0.1,0.47-0.12,0.7-0.05
				c0.3,0.03,0.55,0.18,0.75,0.45c0.13,0.17,0.2,0.4,0.2,0.7l0.3,16h-2.3L25.2,33.9L25,34.4c-0.13,0.27-0.32,0.45-0.55,0.55
				c-0.27,0.1-0.52,0.13-0.75,0.1c-0.27-0.07-0.47-0.22-0.6-0.45c-0.2-0.2-0.3-0.43-0.3-0.7V16.4c0-0.03,0-0.1,0-0.2
				c0.5-3.27,2.03-5.02,4.6-5.25h45.75c2.07,0,3.6-0.9,4.6-2.7c0.03-0.07,0.08-0.12,0.15-0.15l2.25-2.8c0.87-1.03,1.75-1.7,2.65-2
				c0.83-0.33,1.7-0.33,2.6,0c0.87,0.3,1.73,0.9,2.6,1.8v0.1L90.8,8.65z"/>
		</g>
		<g>
			<line fill-rule="evenodd" clip-rule="evenodd" fill="none" x1="77.25" y1="10.7" x2="79.9" y2="7.25"/>
			<line fill-rule="evenodd" clip-rule="evenodd" fill="none" x1="87.9" y1="6.65" x2="91.85" y2="10.95"/>
			<path fill-rule="evenodd" clip-rule="evenodd" fill="none" d="M72.4,12.5c2.2-0.23,3.68-0.72,4.45-1.45"/>
			<path fill-rule="evenodd" clip-rule="evenodd" fill="none" d="M81.5,5.55c1.77-1.87,3.38-1.92,4.85-0.15"/>
			<line fill-rule="evenodd" clip-rule="evenodd" fill="none" x1="140.7" y1="16.3" x2="140.7" y2="28.55"/>
			<line fill-rule="evenodd" clip-rule="evenodd" fill="none" x1="94.75" y1="12.15" x2="138.5" y2="12.15"/>
			<line fill-rule="evenodd" clip-rule="evenodd" fill="none" x1="23.75" y1="17.5" x2="23.75" y2="25.9"/>
			<line fill-rule="evenodd" clip-rule="evenodd" fill="none" x1="25.3" y1="12.15" x2="69" y2="12.15"/>
		</g>
		<g>
			<path fill-rule="evenodd" clip-rule="evenodd" fill="#FFFFFF" d="M92.75,10.75c0.33,0.1,0.57,0.28,0.7,0.55c0,0.03,0,0.08,0,0.15
				c-0.8,0.37-1.08,0.18-0.85-0.55C92.6,10.8,92.65,10.75,92.75,10.75z M139.6,13.3c-0.9-0.27-1.13-0.7-0.7-1.3
				c0.07,0,0.1-0.03,0.1-0.1c0.57,0.27,0.78,0.7,0.65,1.3C139.62,13.23,139.6,13.27,139.6,13.3z M140.8,17.15
				c-0.57-0.7-0.57-1.42,0-2.15c0.47,0.6,0.5,1.27,0.1,2C140.83,17.07,140.8,17.12,140.8,17.15z M29.2,12.4
				c-0.43,0.37-0.78,0.27-1.05-0.3c-0.03-0.17,0.03-0.25,0.2-0.25c0.13-0.03,0.23-0.05,0.3-0.05h0.1c0.2-0.13,2.57-0.15,7.1-0.05
				c4.57,0.07,7.03,0.1,7.4,0.1l-8.2,0.25C33.15,13,31.2,13.1,29.2,12.4z"/>
		</g>
	</g>
	<g>
		<polygon fill-rule="evenodd" clip-rule="evenodd" fill="#5A5D63" points="83.8,30.65 6.15,30.65 11.65,28.75 86.15,28.75 		"/>
		<polygon fill-rule="evenodd" clip-rule="evenodd" fill="#C61C1C" points="156.55,30.65 83.8,30.65 86.15,28.75 156.75,28.75 		"/>
		<rect x="83.8" y="30.65" fill-rule="evenodd" clip-rule="evenodd" fill="#D82B2B" width="72.75" height="24.35"/>
		<rect x="6.15" y="30.65" fill-rule="evenodd" clip-rule="evenodd" fill="#6B6C74" width="77.65" height="24.35"/>
	</g>
	<g>
		
			<rect x="6.15" y="30.65" fill-rule="evenodd" clip-rule="evenodd" fill="#FFFFFF" fill-opacity="0.3216" width="150.4" height="0.15"/>
	</g>
	<g>
		<path fill-rule="evenodd" clip-rule="evenodd" fill="#7E8089" d="M74.7,32.6c0-0.03,0.05-0.07,0.15-0.1
			c0.13-0.07,0.32-0.1,0.55-0.1c0.27,0,0.5,0.07,0.7,0.2c0.1,0.13,0.13,0.25,0.1,0.35c-0.07,0.37-0.33,0.57-0.8,0.6
			c-0.27,0-0.53-0.08-0.8-0.25c-0.2-0.13-0.23-0.32-0.1-0.55c0.03-0.07,0.07-0.12,0.1-0.15H74.7z M78.5,35.35
			c0-0.03,0.02-0.05,0.05-0.05l0.05-0.1c0.2-0.07,0.4-0.1,0.6-0.1c0.33,0,0.58,0.07,0.75,0.2c0.13,0.13,0.17,0.27,0.1,0.4
			c-0.07,0.33-0.35,0.52-0.85,0.55c-0.23,0-0.47-0.08-0.7-0.25c-0.23-0.13-0.28-0.3-0.15-0.5C78.42,35.44,78.47,35.39,78.5,35.35z
			 M13.5,32.55c-0.4,0-0.68-0.13-0.85-0.4c-0.07-0.13-0.07-0.27,0-0.4c0-0.03,0.03-0.07,0.1-0.1l0.05-0.05
			c0-0.03,0.02-0.05,0.05-0.05l0.05-0.05c0.53-0.13,1.02-0.13,1.45,0c0.03,0,0.1,0.02,0.2,0.05c0.1,0.17,0.12,0.3,0.05,0.4
			C14.57,32.39,14.2,32.58,13.5,32.55z M80.9,32c0.17-0.07,0.37-0.1,0.6-0.1c0.3,0,0.53,0.07,0.7,0.2c0.1,0.1,0.15,0.2,0.15,0.3
			v0.05C82.28,32.78,82,33,81.5,33.1c-0.3,0-0.55-0.1-0.75-0.3c-0.23-0.13-0.28-0.32-0.15-0.55c0.07-0.07,0.12-0.12,0.15-0.15h0.1
			C80.85,32.07,80.87,32.03,80.9,32z M43.65,32.15c-0.03,0-0.07,0-0.1,0c-0.3-0.07-0.47-0.17-0.5-0.3c0.63-0.4,1.2-0.4,1.7,0
			c-0.13,0.13-0.43,0.25-0.9,0.35C43.82,32.17,43.75,32.15,43.65,32.15z"/>
		<path fill-rule="evenodd" clip-rule="evenodd" fill="#76787C" d="M70.6,35.4c0.27,0,0.52,0.08,0.75,0.25
			c0.13,0.13,0.18,0.25,0.15,0.35c-0.07,0.37-0.37,0.57-0.9,0.6c-0.27,0-0.5-0.08-0.7-0.25c-0.23-0.13-0.28-0.32-0.15-0.55
			c0.03-0.07,0.08-0.1,0.15-0.1v-0.05c0-0.03,0.05-0.07,0.15-0.1C70.22,35.45,70.4,35.4,70.6,35.4z M64.1,34.75V34.7l0.1-0.1
			c0.17-0.07,0.35-0.1,0.55-0.1c0.33,0,0.58,0.07,0.75,0.2c0.13,0.13,0.17,0.27,0.1,0.4c-0.03,0.33-0.32,0.53-0.85,0.6
			c-0.27,0-0.48-0.1-0.65-0.3c-0.27-0.13-0.33-0.3-0.2-0.5C63.97,34.83,64.03,34.78,64.1,34.75z M69.1,31.85
			c-0.07,0.3-0.35,0.48-0.85,0.55c-0.3,0-0.57-0.1-0.8-0.3c-0.13-0.07-0.18-0.15-0.15-0.25C67.83,31.52,68.43,31.52,69.1,31.85z
			 M70.3,39.9c-0.27,0-0.52-0.1-0.75-0.3c-0.17-0.17-0.18-0.33-0.05-0.5c0-0.03,0.02-0.07,0.05-0.1h0.05
			c0.1-0.07,0.15-0.12,0.15-0.15c0.2-0.1,0.38-0.15,0.55-0.15c0.33,0,0.65,0.08,0.95,0.25c0.1,0.13,0.13,0.25,0.1,0.35
			C71.32,39.7,70.97,39.9,70.3,39.9z M61.85,36.7c-0.07,0-0.1-0.03-0.1-0.1l-0.05-0.05c-0.03,0-0.05-0.02-0.05-0.05v0.05
			c-0.03,0.37-0.35,0.55-0.95,0.55c-0.37,0-0.63-0.1-0.8-0.3c-0.13-0.17-0.17-0.33-0.1-0.5c0-0.03,0.03-0.07,0.1-0.1
			c0.03-0.07,0.08-0.12,0.15-0.15c0.17-0.07,0.38-0.1,0.65-0.1c0.33,0,0.6,0.07,0.8,0.2l0.1,0.05c0-0.03,0-0.07,0-0.1
			c0-0.07,0.02-0.1,0.05-0.1c0.03-0.07,0.07-0.12,0.1-0.15c0-0.03,0.03-0.05,0.1-0.05c0-0.03,0.02-0.07,0.05-0.1
			c0.33-0.13,0.63-0.13,0.9,0c0.53,0.33,0.68,0.62,0.45,0.85c-0.1,0.13-0.33,0.25-0.7,0.35c-0.1,0-0.25-0.05-0.45-0.15
			c-0.1,0-0.17-0.02-0.2-0.05H61.85z M62.65,41.15c0-0.03,0.03-0.1,0.1-0.2c0.03-0.03,0.08-0.07,0.15-0.1V40.8
			c0-0.03,0.03-0.07,0.1-0.1c0.17-0.1,0.35-0.15,0.55-0.15c0.37,0,0.62,0.08,0.75,0.25c0.13,0.13,0.18,0.25,0.15,0.35
			c-0.07,0.3-0.3,0.48-0.7,0.55c-0.03,0.03-0.1,0.05-0.2,0.05c-0.27,0-0.48-0.08-0.65-0.25C62.73,41.44,62.65,41.32,62.65,41.15z
			 M76.95,41.5c0.1,0.03,0.18,0.08,0.25,0.15c0.07,0.07,0.1,0.15,0.1,0.25c0,0.03,0,0.08,0,0.15c-0.03,0.33-0.33,0.53-0.9,0.6
			c-0.23,0-0.45-0.1-0.65-0.3c-0.23-0.13-0.3-0.32-0.2-0.55c0.03-0.07,0.1-0.1,0.2-0.1v-0.05c0-0.03,0.02-0.07,0.05-0.1
			c0.2-0.07,0.4-0.1,0.6-0.1C76.63,41.45,76.82,41.47,76.95,41.5z M78.65,42.95c-0.13,0.03-0.27,0.07-0.4,0.1
			c-0.13,0-0.25-0.03-0.35-0.1c-0.13-0.03-0.25-0.08-0.35-0.15c-0.2-0.13-0.25-0.32-0.15-0.55c0.03-0.07,0.08-0.12,0.15-0.15h0.05
			c0-0.03,0.03-0.08,0.1-0.15c0.17-0.03,0.35-0.05,0.55-0.05c0.07,0,0.15,0,0.25,0c0.23,0,0.42,0.07,0.55,0.2
			c0.1,0.13,0.13,0.25,0.1,0.35C79.15,42.69,78.98,42.85,78.65,42.95z M9.1,39.25c0.07,0.07,0.13,0.12,0.2,0.15
			c0.03,0.07,0.1,0.12,0.2,0.15c0.1,0.13,0.13,0.25,0.1,0.35c-0.07,0.43-0.45,0.63-1.15,0.6c-0.43,0-0.73-0.13-0.9-0.4v-0.75
			l0.1-0.05c0-0.03,0.02-0.05,0.05-0.05l0.05-0.05c0.23-0.13,0.5-0.17,0.8-0.1c0.2,0,0.37,0.05,0.5,0.15H9.1z M15.3,39.7
			c0.13,0.13,0.17,0.27,0.1,0.4c-0.07,0.4-0.42,0.6-1.05,0.6c-0.13,0-0.3-0.05-0.5-0.15c-0.07,0-0.15-0.03-0.25-0.1
			c-0.03,0-0.05-0.02-0.05-0.05v-0.05c-0.07,0-0.1-0.02-0.1-0.05c-0.03-0.07-0.05-0.13-0.05-0.2c0-0.1,0-0.17,0-0.2
			c0-0.03,0.02-0.08,0.05-0.15l0.1-0.05v-0.05c0-0.03,0.02-0.05,0.05-0.05c0-0.03,0.03-0.05,0.1-0.05c0.1-0.03,0.25-0.07,0.45-0.1
			C14.58,39.42,14.97,39.5,15.3,39.7z M19.8,39.9c0.03,0.03,0.05,0.1,0.05,0.2c0.13,0.13,0.15,0.27,0.05,0.4
			c-0.07,0.33-0.38,0.5-0.95,0.5c-0.03,0-0.12-0.02-0.25-0.05c-0.13,0-0.25-0.05-0.35-0.15c-0.1,0-0.15-0.02-0.15-0.05l-0.05-0.05
			c-0.03,0-0.05-0.02-0.05-0.05c-0.07-0.17-0.1-0.33-0.1-0.5c0-0.07,0.03-0.17,0.1-0.3l0.05-0.1h0.05c0.1-0.07,0.15-0.12,0.15-0.15
			c0.17-0.07,0.37-0.08,0.6-0.05C19.38,39.55,19.67,39.67,19.8,39.9z M13.1,41.3c0,0.03,0,0.08,0,0.15c-0.1,0.33-0.4,0.53-0.9,0.6
			c-0.17-0.07-0.37-0.1-0.6-0.1c-0.1,0-0.2-0.02-0.3-0.05c-0.57-0.13-0.75-0.4-0.55-0.8c0-0.03,0.02-0.07,0.05-0.1
			c0-0.03,0.03-0.05,0.1-0.05V40.9h0.05c0.67-0.23,1.25-0.23,1.75,0c0.07,0.03,0.15,0.08,0.25,0.15c0,0.03,0.05,0.07,0.15,0.1V41.3z
			 M21.5,44.25c-0.07,0-0.1,0.02-0.1,0.05c-0.03,0.33-0.33,0.53-0.9,0.6c-0.13,0-0.28-0.05-0.45-0.15c-0.1-0.03-0.18-0.07-0.25-0.1
			c-0.17-0.13-0.2-0.32-0.1-0.55c0.03-0.03,0.07-0.08,0.1-0.15c0-0.03,0.02-0.05,0.05-0.05l0.05-0.05c0.2-0.1,0.4-0.15,0.6-0.15
			c0.33,0,0.6,0.07,0.8,0.2C21.37,44.03,21.43,44.15,21.5,44.25z M31.05,32.3c-0.2-0.13-0.23-0.28-0.1-0.45c0.7-0.37,1.4-0.37,2.1,0
			c0.37,0.4,0.05,0.65-0.95,0.75C31.73,32.6,31.38,32.5,31.05,32.3z M24.25,32.55c-0.3,0-0.55-0.08-0.75-0.25
			c-0.17-0.13-0.2-0.28-0.1-0.45c0.33-0.4,0.92-0.4,1.75,0c0,0.03,0,0.07,0,0.1C25.08,32.28,24.78,32.48,24.25,32.55z M28.15,38.65
			c0-0.07,0.02-0.1,0.05-0.1l0.1-0.05c0.2-0.1,0.4-0.15,0.6-0.15c0.33,0,0.55,0.07,0.65,0.2c0.13,0.13,0.2,0.25,0.2,0.35
			c0,0.03,0,0.07,0,0.1c-0.03,0.33-0.32,0.52-0.85,0.55c-0.2,0-0.33-0.03-0.4-0.1c-0.13-0.03-0.25-0.08-0.35-0.15
			c-0.23-0.13-0.28-0.32-0.15-0.55C28.03,38.72,28.08,38.69,28.15,38.65z M27,41.35l-0.05,0.15c0,0.13-0.07,0.28-0.2,0.45
			c-0.17,0.1-0.35,0.17-0.55,0.2c-0.17,0.1-0.37,0.17-0.6,0.2c-0.27,0-0.6-0.02-1-0.05c-0.07,0-0.13,0-0.2,0
			c-0.27,0-0.48-0.07-0.65-0.2c-0.2-0.13-0.3-0.28-0.3-0.45c0-0.03,0-0.08,0-0.15h0.05c0-0.03,0.03-0.07,0.1-0.1l0.1-0.05
			c0-0.03,0.02-0.05,0.05-0.05v-0.05c0.17-0.1,0.37-0.15,0.6-0.15c-0.07-0.03-0.07-0.08,0-0.15c0-0.03,0.02-0.05,0.05-0.05v-0.05
			c0-0.03,0.03-0.05,0.1-0.05c0-0.03,0.03-0.07,0.1-0.1c0.23-0.1,0.48-0.15,0.75-0.15c0.57,0,1.07,0.12,1.5,0.35
			C26.98,41.03,27.03,41.19,27,41.35z M28,43.85c0.2-0.23,0.47-0.35,0.8-0.35c1.2-0.03,1.53,0.27,1,0.9
			c-0.07,0.03-0.18,0.07-0.35,0.1c-0.17,0.1-0.35,0.15-0.55,0.15c-0.1-0.03-0.22-0.07-0.35-0.1c-0.13-0.03-0.25-0.07-0.35-0.1
			c-0.03,0-0.05-0.02-0.05-0.05v-0.05c-0.07,0-0.1-0.02-0.1-0.05c-0.03,0-0.05-0.02-0.05-0.05C27.93,44.12,27.93,43.98,28,43.85z
			 M36.1,40.9c0,0.06-0.02,0.13-0.05,0.2c-0.03,0-0.05,0.02-0.05,0.05c-0.17,0.2-0.45,0.3-0.85,0.3c-0.13,0-0.22-0.02-0.25-0.05
			c-0.2-0.03-0.4-0.13-0.6-0.3c-0.03,0-0.05-0.03-0.05-0.1c-0.07-0.1-0.07-0.22,0-0.35c0-0.07,0.02-0.1,0.05-0.1l0.05-0.05
			c0.1-0.07,0.17-0.12,0.2-0.15c0.17-0.07,0.37-0.1,0.6-0.1c0.37,0,0.65,0.07,0.85,0.2c0.1,0.17,0.13,0.3,0.1,0.4V40.9z M41.3,40.1
			c0.1,0.03,0.17,0.07,0.2,0.1c0.03,0.07,0.1,0.12,0.2,0.15c0.03,0.07,0.03,0.13,0,0.2c-0.1,0.4-0.47,0.6-1.1,0.6
			c-0.23,0-0.47-0.08-0.7-0.25c-0.13-0.17-0.17-0.35-0.1-0.55l0.1-0.05l0.1-0.1c0-0.03,0.02-0.07,0.05-0.1
			c0.17-0.1,0.35-0.15,0.55-0.15C40.97,39.95,41.2,40,41.3,40.1z M34.3,36.2c0.33,0,0.57,0.07,0.7,0.2c0.13,0.13,0.2,0.25,0.2,0.35
			c-0.03,0.37-0.33,0.57-0.9,0.6c-0.1,0-0.22-0.02-0.35-0.05s-0.25-0.1-0.35-0.2c-0.23-0.13-0.3-0.32-0.2-0.55
			c0.07-0.03,0.13-0.05,0.2-0.05c0-0.07,0.03-0.1,0.1-0.1c0-0.03,0.02-0.07,0.05-0.1C33.92,36.23,34.1,36.2,34.3,36.2z M44.2,32.35
			c0-0.03,0.02-0.07,0.05-0.1c0.23-0.1,0.45-0.15,0.65-0.15c0.37,0,0.65,0.08,0.85,0.25c0.13,0.13,0.18,0.25,0.15,0.35
			c-0.07,0.4-0.4,0.6-1,0.6c-0.1,0-0.22-0.03-0.35-0.1c-0.2-0.03-0.35-0.1-0.45-0.2c-0.13-0.17-0.17-0.33-0.1-0.5
			c0-0.03,0.03-0.07,0.1-0.1L44.2,32.35z M48.9,35.7h0.05c0.07,0,0.17,0,0.3,0c0.23,0,0.45,0,0.65,0c0.07,0.07,0.15,0.13,0.25,0.2
			c0.13,0.13,0.18,0.25,0.15,0.35c-0.03,0.43-0.38,0.65-1.05,0.65c-0.3,0-0.57-0.12-0.8-0.35c-0.03,0-0.12,0.02-0.25,0.05
			c-0.03-0.03-0.07-0.05-0.1-0.05c0,0.03,0,0.08,0,0.15c0,0.13-0.1,0.22-0.3,0.25c-0.77,0.33-1.65,0.55-2.65,0.65
			c-0.03,0-0.08-0.02-0.15-0.05c-0.2,0-0.37-0.05-0.5-0.15c-0.27-0.17-0.35-0.37-0.25-0.6c0.13-0.03,0.22-0.07,0.25-0.1h0.05
			c0-0.07,0.02-0.12,0.05-0.15c0.27-0.03,0.53-0.12,0.8-0.25c0.2-0.07,0.4-0.12,0.6-0.15c0.53-0.1,0.97-0.1,1.3,0
			c-0.03-0.17-0.03-0.33,0-0.5c0.1-0.07,0.15-0.12,0.15-0.15h0.05c0-0.07,0.02-0.1,0.05-0.1c0.4-0.17,0.72-0.17,0.95,0
			C48.67,35.5,48.8,35.6,48.9,35.7z M43.25,36.05c0.1,0.13,0.13,0.28,0.1,0.45c-0.03,0.3-0.33,0.48-0.9,0.55
			c-0.23,0-0.45-0.1-0.65-0.3c-0.23-0.13-0.27-0.32-0.1-0.55c0.03-0.03,0.07-0.07,0.1-0.1c0-0.03,0.02-0.05,0.05-0.05
			c0-0.03,0.02-0.05,0.05-0.05c0.17-0.1,0.35-0.15,0.55-0.15C42.82,35.85,43.08,35.92,43.25,36.05z M48.15,40.1
			c-0.03-0.1-0.03-0.18,0-0.25c0.03-0.07,0.08-0.1,0.15-0.1c0-0.03,0.03-0.05,0.1-0.05c0-0.03,0.02-0.07,0.05-0.1
			c0.13-0.03,0.25-0.05,0.35-0.05c0.27-0.07,0.52-0.07,0.75,0c0.53,0.27,0.8,0.52,0.8,0.75c0,0.27-0.33,0.5-1,0.7
			c-0.03,0-0.08-0.02-0.15-0.05c-0.07,0-0.13-0.02-0.2-0.05c-0.07,0-0.15-0.03-0.25-0.1c-0.07-0.07-0.17-0.15-0.3-0.25
			c-0.03-0.07-0.08-0.13-0.15-0.2C48.2,40.25,48.15,40.17,48.15,40.1z M46.45,38c0.37-0.17,0.72-0.13,1.05,0.1
			c0.93,0.57,0.92,1-0.05,1.3c0.13,0.13,0.23,0.25,0.3,0.35c0.07,0.27-0.22,0.48-0.85,0.65c-0.07-0.03-0.13-0.05-0.2-0.05
			c-0.03,0-0.07,0-0.1,0c-0.23-0.03-0.42-0.12-0.55-0.25C46.02,40.07,46,40.02,46,39.95c-0.03-0.17-0.03-0.33,0-0.5
			c0.03-0.07,0.12-0.12,0.25-0.15v-0.05l0.1-0.1c-0.03-0.07-0.07-0.12-0.1-0.15c-0.17-0.23-0.17-0.47,0-0.7
			c0-0.1,0.02-0.15,0.05-0.15c0-0.03,0.02-0.05,0.05-0.05C46.35,38.07,46.38,38.03,46.45,38z M59.7,39.25
			c0.73,0.43,0.73,0.78,0,1.05c-0.1,0.03-0.23,0.07-0.4,0.1c0-0.03-0.03-0.05-0.1-0.05c-0.07,0-0.13,0-0.2,0
			c-0.03,0-0.07-0.02-0.1-0.05c-0.23-0.07-0.38-0.18-0.45-0.35c-0.07-0.17-0.07-0.33,0-0.5c0.07-0.07,0.12-0.12,0.15-0.15
			c0-0.03,0.03-0.05,0.1-0.05l0.05-0.05C59.12,39.07,59.43,39.08,59.7,39.25z M59.7,41.95c0.07,0.1,0.13,0.17,0.2,0.2
			c0.13,0.13,0.18,0.27,0.15,0.4c-0.03,0.17-0.12,0.3-0.25,0.4c-0.17,0.1-0.35,0.17-0.55,0.2c-0.2,0-0.42-0.07-0.65-0.2
			c-0.03-0.03-0.08-0.07-0.15-0.1c-0.13-0.07-0.2-0.17-0.2-0.3c0-0.07,0.02-0.15,0.05-0.25c0.03-0.03,0.08-0.08,0.15-0.15h0.1
			c0-0.03,0.02-0.05,0.05-0.05c0.2-0.1,0.42-0.15,0.65-0.15C59.42,41.95,59.57,41.95,59.7,41.95z M52.55,36.55
			c0.13-0.03,0.32-0.03,0.55,0c0.27,0,0.5,0.05,0.7,0.15l0.1,0.05c0.1,0.13,0.12,0.28,0.05,0.45c-0.13,0.43-0.58,0.62-1.35,0.55
			c-0.5-0.03-0.78-0.22-0.85-0.55c-0.03-0.07-0.03-0.17,0-0.3l0.05-0.1l0.05-0.05H52c0-0.03,0.02-0.05,0.05-0.05
			C52.18,36.6,52.35,36.55,52.55,36.55z M54.9,42.6c0-0.03,0.02-0.07,0.05-0.1L55,42.45c0-0.07,0.03-0.1,0.1-0.1l0.05-0.05
			c0.33-0.1,0.68-0.17,1.05-0.2c0.4-0.03,0.77,0.03,1.1,0.2c0.17,0.2,0.2,0.38,0.1,0.55c-0.03,0.03-0.07,0.07-0.1,0.1
			c-0.33,0.3-0.85,0.43-1.55,0.4c-0.43,0-0.72-0.13-0.85-0.4C54.8,42.85,54.8,42.73,54.9,42.6z M60.15,49.45
			c0.07,0.17,0.07,0.32,0,0.45c0,0.03-0.02,0.05-0.05,0.05H60V50c0,0.03-0.02,0.05-0.05,0.05c-0.1,0.07-0.2,0.1-0.3,0.1
			c-0.17,0.03-0.3,0.08-0.4,0.15c-0.2,0-0.38-0.05-0.55-0.15c-0.13-0.07-0.25-0.12-0.35-0.15c-0.53-0.6-0.22-0.88,0.95-0.85
			C59.67,49.15,59.95,49.25,60.15,49.45z M68.15,50.4c-0.2,0.07-0.37,0.1-0.5,0.1c-0.6-0.03-0.9-0.22-0.9-0.55
			c0-0.03-0.03-0.07-0.1-0.1c0.07-0.07,0.13-0.17,0.2-0.3c0.23-0.13,0.5-0.2,0.8-0.2c0.2,0,0.38,0.03,0.55,0.1
			c0.07,0.03,0.1,0.07,0.1,0.1c0.03,0,0.05,0.02,0.05,0.05c0.03,0.03,0.05,0.08,0.05,0.15c0.13,0.2,0.12,0.38-0.05,0.55
			C68.25,50.33,68.18,50.37,68.15,50.4z"/>
		<path fill-rule="evenodd" clip-rule="evenodd" fill="#84868B" d="M63.55,33.35c0,0.13,0.07,0.23,0.2,0.3
			c0.1,0.07,0.22,0.1,0.35,0.1c-0.23,0.13-0.45,0.27-0.65,0.4c-0.23,0-0.47-0.08-0.7-0.25c-0.27-0.23-0.25-0.37,0.05-0.4
			C63.1,33.4,63.35,33.35,63.55,33.35z M61.75,32.2c0,0.13-0.27,0.37-0.8,0.7c-0.27,0-0.53-0.1-0.8-0.3
			c-0.23-0.2-0.22-0.33,0.05-0.4C61.23,32,61.75,32,61.75,32.2z M70.1,33.4c-0.2-0.2-0.13-0.3,0.2-0.3c1.87-0.27,2.03-0.03,0.5,0.7
			C70.47,33.8,70.23,33.67,70.1,33.4z M69.75,33c0.1,0.13,0.15,0.25,0.15,0.35c-0.07,0.37-0.37,0.57-0.9,0.6
			c-0.27,0-0.5-0.07-0.7-0.2c-0.23-0.13-0.27-0.33-0.1-0.6c0.03-0.03,0.07-0.05,0.1-0.05c0-0.07,0.02-0.1,0.05-0.1
			c0-0.03,0.02-0.05,0.05-0.05c0.17-0.1,0.37-0.15,0.6-0.15C69.33,32.8,69.58,32.87,69.75,33z M61.2,35.95
			c-0.27,0-0.5-0.08-0.7-0.25c-0.3-0.23-0.28-0.37,0.05-0.4C62.25,34.94,62.47,35.15,61.2,35.95z M76.5,37.75
			c1.3-0.23,1.38,0.02,0.25,0.75c-0.23,0-0.42-0.05-0.55-0.15c-0.1,0.1-0.3,0.17-0.6,0.2c-0.23,0-0.45-0.08-0.65-0.25
			c-0.27-0.13-0.3-0.32-0.1-0.55c0.03-0.03,0.07-0.08,0.1-0.15c0-0.03,0.02-0.05,0.05-0.05c0-0.03,0.02-0.05,0.05-0.05
			c0.17-0.1,0.35-0.15,0.55-0.15c0.33,0,0.58,0.07,0.75,0.2C76.38,37.65,76.43,37.72,76.5,37.75z M73.95,41.6
			c-0.23-0.2-0.2-0.35,0.1-0.45c1.77-0.3,1.98-0.05,0.65,0.75C74.43,41.9,74.18,41.8,73.95,41.6z M12.7,33.2
			c1.73-0.33,1.97-0.1,0.7,0.7c-0.3,0-0.55-0.08-0.75-0.25C12.42,33.42,12.43,33.27,12.7,33.2z M13.3,36.8
			c-0.03-0.37,0.13-0.53,0.5-0.5c2.1,0.2,2.28,0.58,0.55,1.15C13.72,37.42,13.37,37.2,13.3,36.8z M19.15,35.75
			c-0.3-0.23-0.28-0.37,0.05-0.4c1.73-0.37,1.95-0.15,0.65,0.65C19.65,36,19.42,35.92,19.15,35.75z M30.9,34.55
			c-0.3,0-0.55-0.07-0.75-0.2c-0.27-0.27-0.23-0.42,0.1-0.45C31.95,33.53,32.17,33.75,30.9,34.55z M37.9,33.8
			c-0.43-0.03-0.73-0.18-0.9-0.45c-0.07-0.23,0.02-0.37,0.25-0.4C39.05,32.69,39.27,32.97,37.9,33.8z M34.05,34.8
			c-0.17-0.17-0.12-0.27,0.15-0.3c1.5-0.33,1.83-0.18,1,0.45c-0.2-0.13-0.43-0.2-0.7-0.2C34.3,34.75,34.15,34.77,34.05,34.8z
			 M27.15,32.05c-0.2,0-0.43-0.07-0.7-0.2c0.37-0.47,0.72-0.47,1.05,0C27.4,31.89,27.28,31.95,27.15,32.05z M24.15,33.55
			c-0.27-0.23-0.23-0.37,0.1-0.4c1.73-0.37,1.97-0.15,0.7,0.65C24.65,33.8,24.38,33.72,24.15,33.55z M27.25,36.7
			c-0.27-0.23-0.25-0.38,0.05-0.45c1.67-0.33,1.88-0.1,0.65,0.7C27.72,36.95,27.48,36.87,27.25,36.7z M22.35,37.05
			c-0.23,0-0.45-0.1-0.65-0.3c-0.27-0.17-0.25-0.3,0.05-0.4C23.48,36.02,23.68,36.25,22.35,37.05z M38.75,38.55
			c-0.03,0.07-0.05,0.12-0.05,0.15c-0.13,0.1-0.32,0.22-0.55,0.35c-0.23,0-0.47-0.1-0.7-0.3c-0.3-0.17-0.27-0.3,0.1-0.4
			c1-0.17,1.45-0.17,1.35,0v0.1c-0.03,0-0.05,0.02-0.05,0.05L38.75,38.55z M35.2,38.2c-0.03,0-0.12,0-0.25,0
			c-0.3-0.03-0.62,0.02-0.95,0.15c-0.03,0-0.05,0.03-0.05,0.1c-0.03-0.07-0.08-0.1-0.15-0.1c-0.03,0-0.05-0.02-0.05-0.05
			c-0.03,0-0.05-0.03-0.05-0.1c-0.07,0-0.1-0.02-0.1-0.05c-0.17-0.27-0.07-0.5,0.3-0.7l0.05-0.05c0,0.1,0.07,0.22,0.2,0.35
			c0.23,0.13,0.45,0.2,0.65,0.2c0.27,0,0.48-0.05,0.65-0.15C35.52,37.94,35.43,38.07,35.2,38.2z M54.1,35.55
			c-0.13-0.03-0.27-0.05-0.4-0.05s-0.22,0-0.25,0c-0.13,0-0.25,0-0.35,0c-0.23,0-0.42,0.05-0.55,0.15c-0.13-0.1-0.08-0.18,0.15-0.25
			C53.93,35.17,54.4,35.22,54.1,35.55z M46.95,33.3c1.73-0.33,1.92-0.12,0.55,0.65c-0.2,0-0.4-0.07-0.6-0.2
			C46.6,33.48,46.62,33.33,46.95,33.3z M48.9,35.7c0.67-0.13,1-0.13,1,0c-0.2,0-0.42,0-0.65,0c-0.13,0-0.23,0-0.3,0H48.9z"/>
		<path fill-rule="evenodd" clip-rule="evenodd" fill="#818588" d="M63.55,33.35c0-0.1,0.02-0.18,0.05-0.25
			c0.07-0.07,0.12-0.12,0.15-0.15h0.05c0-0.03,0.03-0.05,0.1-0.05c0.2-0.13,0.4-0.2,0.6-0.2c0.3,0,0.55,0.08,0.75,0.25
			c0.1,0.13,0.12,0.25,0.05,0.35c0,0.33-0.27,0.53-0.8,0.6c-0.13,0-0.27-0.05-0.4-0.15c-0.13,0-0.25-0.03-0.35-0.1
			C63.62,33.58,63.55,33.48,63.55,33.35z M52.9,32.45c0-0.03,0.02-0.05,0.05-0.05L53,32.35c0.2-0.1,0.43-0.15,0.7-0.15
			s0.5,0.07,0.7,0.2c0.1,0.13,0.13,0.27,0.1,0.4c-0.03,0.33-0.3,0.52-0.8,0.55c-0.3,0-0.57-0.07-0.8-0.2
			c-0.2-0.13-0.25-0.32-0.15-0.55C52.85,32.53,52.9,32.48,52.9,32.45z M52.55,35.65c0.13-0.1,0.32-0.15,0.55-0.15
			c0.1,0,0.22,0,0.35,0c0.03,0,0.12,0,0.25,0s0.27,0.02,0.4,0.05c0.07,0.07,0.17,0.12,0.3,0.15c0.1,0.17,0.13,0.3,0.1,0.4
			c-0.03,0.3-0.27,0.5-0.7,0.6c-0.2-0.1-0.43-0.15-0.7-0.15c-0.23-0.03-0.42-0.03-0.55,0c-0.13-0.03-0.22-0.08-0.25-0.15
			c-0.13-0.17-0.15-0.33-0.05-0.5c0-0.03,0.02-0.07,0.05-0.1l0.05-0.05C52.42,35.72,52.48,35.69,52.55,35.65z M57.8,33.5
			c-0.2-0.13-0.25-0.32-0.15-0.55c0.07-0.03,0.12-0.08,0.15-0.15c0-0.03,0.03-0.05,0.1-0.05c0-0.03,0.03-0.07,0.1-0.1
			c0.13-0.07,0.32-0.1,0.55-0.1c0.3,0,0.55,0.07,0.75,0.2c0.13,0.13,0.17,0.27,0.1,0.4c-0.07,0.33-0.35,0.53-0.85,0.6
			C58.25,33.75,58,33.67,57.8,33.5z M44.2,32.35l-0.1,0.05c-0.07,0.03-0.1,0.07-0.1,0.1c-0.07,0.17-0.03,0.33,0.1,0.5
			c0.1,0.1,0.25,0.17,0.45,0.2c-0.27,0.23-0.65,0.33-1.15,0.3c-0.4,0-0.67-0.13-0.8-0.4c-0.1-0.13-0.1-0.28,0-0.45
			c0-0.03,0.03-0.05,0.1-0.05l0.05-0.05c0-0.03,0.02-0.05,0.05-0.05c0-0.03,0.03-0.07,0.1-0.1c0.27-0.1,0.58-0.13,0.95-0.1
			C43.95,32.3,44.07,32.32,44.2,32.35z M57.65,41.15c-0.27-0.17-0.33-0.37-0.2-0.6c0.03-0.07,0.07-0.12,0.1-0.15
			c0-0.03,0.03-0.05,0.1-0.05V40.3c0.3-0.13,0.62-0.13,0.95,0h0.1c0.9,0.43,0.78,0.82-0.35,1.15
			C58.12,41.45,57.88,41.35,57.65,41.15z M56.45,37.5h0.1c0-0.03,0.02-0.07,0.05-0.1c0.33-0.13,0.63-0.13,0.9,0
			c0.9,0.5,0.82,0.88-0.25,1.15c-0.1,0-0.25-0.02-0.45-0.05c-0.1-0.03-0.18-0.08-0.25-0.15c-0.07,0-0.1-0.02-0.1-0.05v-0.1
			c-0.07,0-0.1-0.02-0.1-0.05c-0.03-0.03-0.05-0.07-0.05-0.1c0-0.07,0-0.15,0-0.25c0-0.03,0.02-0.07,0.05-0.1
			C56.42,37.6,56.45,37.53,56.45,37.5z M55.25,39.75C55.18,39.72,55.1,39.7,55,39.7c-0.03,0-0.07,0-0.1,0c-0.77-0.4-0.77-0.8,0-1.2
			c0.3-0.1,0.55-0.1,0.75,0C56.72,38.97,56.58,39.39,55.25,39.75z"/>
		<path fill-rule="evenodd" clip-rule="evenodd" fill="#54555C" d="M67.65,41.7c0-0.03,0.02-0.05,0.05-0.05
			c0-0.03,0.02-0.07,0.05-0.1c0.2-0.07,0.4-0.1,0.6-0.1c0.23,0,0.45,0.03,0.65,0.1c0,0.03,0.03,0.07,0.1,0.1
			c0.1,0.17,0.12,0.3,0.05,0.4c-0.03,0.33-0.3,0.53-0.8,0.6c-0.27,0-0.5-0.1-0.7-0.3c-0.2-0.13-0.27-0.28-0.2-0.45v-0.1
			C67.48,41.73,67.55,41.7,67.65,41.7z M66.15,38.85c0.17,0.13,0.22,0.28,0.15,0.45c-0.17,0.4-0.6,0.58-1.3,0.55
			c-0.43,0-0.7-0.15-0.8-0.45c-0.07-0.1-0.07-0.23,0-0.4l0.1-0.05V38.9c0-0.03,0.02-0.05,0.05-0.05c0-0.07,0.03-0.1,0.1-0.1
			c0.3-0.13,0.62-0.17,0.95-0.1C65.73,38.65,65.98,38.72,66.15,38.85z M67.2,39.2c0.07-0.07,0.12-0.12,0.15-0.15
			c0-0.03,0.02-0.05,0.05-0.05l0.05-0.05c0.2-0.13,0.42-0.2,0.65-0.2c0.3,0,0.55,0.08,0.75,0.25c0.1,0.17,0.12,0.3,0.05,0.4
			c0,0.33-0.27,0.52-0.8,0.55c-0.27,0-0.52-0.07-0.75-0.2S67.07,39.44,67.2,39.2z M15.1,41.1c0.3,0,0.57,0.07,0.8,0.2
			c0.13,0.13,0.17,0.27,0.1,0.4c-0.03,0.3-0.33,0.5-0.9,0.6c-0.23,0-0.47-0.08-0.7-0.25c-0.2-0.17-0.23-0.35-0.1-0.55
			c0.03-0.07,0.07-0.12,0.1-0.15c0-0.03,0.02-0.05,0.05-0.05l0.05-0.05C14.67,41.15,14.87,41.1,15.1,41.1z M28.15,44.35
			c-0.13,0.23-0.42,0.38-0.85,0.45c-0.23,0-0.47-0.08-0.7-0.25c-0.27-0.13-0.33-0.3-0.2-0.5c0.07-0.1,0.13-0.15,0.2-0.15
			c0-0.03,0.02-0.05,0.05-0.05c0-0.03,0.03-0.07,0.1-0.1c0.17-0.1,0.35-0.15,0.55-0.15c0.3,0,0.53,0.08,0.7,0.25
			c-0.07,0.13-0.07,0.27,0,0.4c0,0.03,0.02,0.05,0.05,0.05C28.05,44.33,28.08,44.35,28.15,44.35z M44.25,46.7
			c0.13-0.03,0.22-0.08,0.25-0.15h0.05c0-0.03,0.02-0.07,0.05-0.1c0.17-0.07,0.35-0.1,0.55-0.1c0.33,0,0.58,0.07,0.75,0.2
			c0.1,0.13,0.13,0.25,0.1,0.35c-0.03,0.37-0.32,0.57-0.85,0.6c-0.23,0-0.45-0.07-0.65-0.2C44.23,47.14,44.15,46.94,44.25,46.7z
			 M59.7,41.95c-0.13,0-0.28,0-0.45,0c-0.23,0-0.45,0.05-0.65,0.15c-0.03,0-0.05,0.02-0.05,0.05h-0.1
			c-0.07,0.07-0.12,0.12-0.15,0.15c-0.03,0.1-0.05,0.18-0.05,0.25c-0.1-0.03-0.22-0.12-0.35-0.25c-0.17-0.13-0.2-0.3-0.1-0.5
			c0-0.03,0.03-0.07,0.1-0.1H58c0.03-0.07,0.07-0.12,0.1-0.15c0.13-0.07,0.33-0.1,0.6-0.1c0.37,0,0.65,0.07,0.85,0.2
			C59.68,41.82,59.73,41.92,59.7,41.95z M51.8,42.45c0.3,0,0.55,0.07,0.75,0.2c0.07,0.13,0.1,0.23,0.1,0.3c0,0.03,0,0.07,0,0.1
			c-0.03,0.33-0.32,0.52-0.85,0.55c-0.27,0-0.52-0.08-0.75-0.25c-0.17-0.1-0.23-0.23-0.2-0.4c0-0.03,0.02-0.07,0.05-0.1
			c0.07-0.07,0.12-0.12,0.15-0.15c0-0.03,0.02-0.05,0.05-0.05l0.05-0.05C51.35,42.5,51.57,42.45,51.8,42.45z M60,49.95h0.1
			c0.03,0,0.05-0.02,0.05-0.05c0.07-0.13,0.07-0.28,0-0.45c0.2-0.13,0.43-0.2,0.7-0.2c0.23,0,0.42,0.05,0.55,0.15
			c0.07,0,0.1,0.02,0.1,0.05c0.03,0,0.05,0.02,0.05,0.05c0.07,0.03,0.13,0.08,0.2,0.15c0.13,0.2,0.07,0.37-0.2,0.5
			c-0.23,0.2-0.47,0.3-0.7,0.3C60.42,50.39,60.13,50.22,60,49.95z M42.25,52.2c0.17-0.17,0.42-0.25,0.75-0.25
			c0.2,0,0.4,0.05,0.6,0.15c0.03,0.03,0.05,0.07,0.05,0.1h0.05c0,0.03,0.07,0.08,0.2,0.15c0.1,0.23,0.03,0.42-0.2,0.55
			c-0.23,0.17-0.47,0.25-0.7,0.25c-0.53-0.07-0.82-0.27-0.85-0.6C42.12,52.45,42.15,52.33,42.25,52.2z M37.1,49
			c-0.23,0.17-0.48,0.25-0.75,0.25c-0.53-0.07-0.82-0.25-0.85-0.55c0-0.03,0-0.07,0-0.1c0.6-0.9,1.2-0.9,1.8,0
			C37.33,48.73,37.27,48.87,37.1,49z"/>
		<path fill-rule="evenodd" clip-rule="evenodd" fill="#818387" d="M61.85,36.7h0.05c0.03,0.03,0.1,0.05,0.2,0.05
			c0.2,0.1,0.35,0.15,0.45,0.15c0.37-0.1,0.6-0.22,0.7-0.35c0.17,0.03,0.28,0.1,0.35,0.2c0.13,0.13,0.18,0.28,0.15,0.45
			c-0.17,0.4-0.57,0.58-1.2,0.55c-0.47,0-0.77-0.15-0.9-0.45c-0.1-0.13-0.1-0.27,0-0.4l0.05-0.1l0.05-0.05h0.1V36.7z M61.95,39.65
			c0.33,0,0.6,0.07,0.8,0.2c0.1,0.17,0.15,0.3,0.15,0.4c0,0.03,0,0.07,0,0.1c-0.1,0.27-0.42,0.43-0.95,0.5
			c-0.23,0-0.45-0.1-0.65-0.3c-0.13-0.07-0.2-0.13-0.2-0.2c0-0.1,0-0.2,0-0.3c0.07-0.07,0.13-0.12,0.2-0.15
			c0-0.03,0.02-0.05,0.05-0.05l0.05-0.1C61.57,39.69,61.75,39.65,61.95,39.65z M79.5,38.75c0.2-0.07,0.42-0.1,0.65-0.1
			c0.3,0,0.55,0.07,0.75,0.2c0.1,0.13,0.13,0.27,0.1,0.4c-0.03,0.33-0.32,0.53-0.85,0.6c-0.27,0-0.52-0.1-0.75-0.3
			c-0.2-0.13-0.25-0.32-0.15-0.55c0.07-0.03,0.12-0.07,0.15-0.1c0-0.03,0.02-0.05,0.05-0.05C79.45,38.78,79.47,38.75,79.5,38.75z
			 M72.2,38.7c0-0.03,0.02-0.08,0.05-0.15c0.17-0.03,0.35-0.05,0.55-0.05c0.37,0,0.63,0.07,0.8,0.2c0.1,0.13,0.13,0.25,0.1,0.35
			c-0.03,0.33-0.33,0.53-0.9,0.6c-0.23,0-0.45-0.08-0.65-0.25c-0.23-0.13-0.3-0.32-0.2-0.55c0.03-0.07,0.1-0.12,0.2-0.15H72.2z
			 M70.75,36.95c0.03-0.03,0.08-0.05,0.15-0.05c0-0.07,0.02-0.1,0.05-0.1c0-0.03,0.02-0.05,0.05-0.05c0.4-0.13,0.78-0.13,1.15,0
			c0.97,0.43,0.9,0.82-0.2,1.15c-0.27-0.03-0.55-0.1-0.85-0.2C70.77,37.5,70.65,37.25,70.75,36.95z"/>
		<path fill-rule="evenodd" clip-rule="evenodd" fill="#5A5D63" d="M66.45,46.15c0.03-0.07,0.07-0.13,0.1-0.2h0.05
			c0-0.03,0.03-0.07,0.1-0.1c0.17-0.07,0.37-0.1,0.6-0.1c0.3,0,0.55,0.07,0.75,0.2c0.13,0.13,0.18,0.27,0.15,0.4
			c-0.07,0.33-0.37,0.52-0.9,0.55c-0.27,0-0.52-0.07-0.75-0.2C66.35,46.53,66.32,46.35,66.45,46.15z M69.15,42.3
			c0-0.03,0.03-0.05,0.1-0.05c0-0.07,0.02-0.1,0.05-0.1c0.2-0.07,0.4-0.1,0.6-0.1c0.3,0,0.57,0.07,0.8,0.2
			c0.07,0.13,0.08,0.27,0.05,0.4c0,0.13-0.05,0.23-0.15,0.3c-0.17,0.13-0.4,0.22-0.7,0.25c-0.23,0-0.47-0.08-0.7-0.25h-0.05
			c-0.17-0.13-0.18-0.33-0.05-0.6C69.1,42.32,69.12,42.3,69.15,42.3z M63.9,47.15c-0.23-0.13-0.28-0.3-0.15-0.5
			c0.03-0.07,0.08-0.12,0.15-0.15c0-0.03,0.03-0.05,0.1-0.05l0.1-0.1c0.13-0.07,0.33-0.1,0.6-0.1s0.47,0.07,0.6,0.2
			c0.17,0.17,0.23,0.3,0.2,0.4c-0.07,0.33-0.33,0.53-0.8,0.6C64.43,47.45,64.17,47.35,63.9,47.15z M65.4,44.45
			c-0.33-0.2-0.43-0.43-0.3-0.7c0.07-0.03,0.12-0.08,0.15-0.15c0-0.03,0.02-0.05,0.05-0.05V43.5c0.4-0.1,0.77-0.1,1.1,0
			c1.03,0.4,0.98,0.78-0.15,1.15C66.02,44.62,65.73,44.55,65.4,44.45z M72.15,45.55c0.03-0.07,0.07-0.13,0.1-0.2h0.05
			c0-0.03,0.03-0.05,0.1-0.05c0.13-0.1,0.35-0.15,0.65-0.15c0.27,0,0.48,0.07,0.65,0.2c0.17,0.13,0.22,0.27,0.15,0.4
			c0,0.1-0.05,0.2-0.15,0.3c0.23,0.07,0.45,0.15,0.65,0.25c0.13,0.13,0.18,0.27,0.15,0.4c-0.07,0.3-0.35,0.5-0.85,0.6
			c-0.3-0.1-0.65-0.17-1.05-0.2c-0.53-0.1-0.75-0.35-0.65-0.75c0.03-0.03,0.1-0.07,0.2-0.1c0-0.03,0.02-0.05,0.05-0.05
			c0-0.03,0.02-0.05,0.05-0.05h0.05l-0.05-0.05C72.05,45.94,72.02,45.75,72.15,45.55z M74.35,44.1h0.05c0-0.03,0.03-0.05,0.1-0.05
			c0.23-0.1,0.43-0.15,0.6-0.15c0.3,0,0.53,0.07,0.7,0.2c0.17,0.13,0.22,0.25,0.15,0.35c-0.03,0.33-0.32,0.55-0.85,0.65
			c-0.27,0-0.52-0.1-0.75-0.3c-0.2-0.13-0.23-0.32-0.1-0.55C74.28,44.19,74.32,44.14,74.35,44.1z M78.75,44.45
			c-0.2-0.13-0.25-0.32-0.15-0.55c0.07-0.03,0.12-0.07,0.15-0.1c0-0.03,0.03-0.05,0.1-0.05c0-0.03,0.02-0.05,0.05-0.05
			c0.17-0.1,0.35-0.15,0.55-0.15c0.33,0,0.6,0.07,0.8,0.2c0.1,0.13,0.13,0.25,0.1,0.35c-0.03,0.37-0.33,0.57-0.9,0.6
			C79.22,44.7,78.98,44.62,78.75,44.45z M15.5,38.3c0.33,0,0.58,0.07,0.75,0.2c0.13,0.13,0.18,0.27,0.15,0.4
			c-0.07,0.33-0.37,0.53-0.9,0.6c-0.27,0-0.52-0.08-0.75-0.25c-0.2-0.17-0.23-0.35-0.1-0.55l0.1-0.15c0-0.03,0.02-0.05,0.05-0.05
			l0.15-0.05C15.12,38.35,15.3,38.3,15.5,38.3z M9.4,45.75l0.1-0.05c0.3-0.13,0.57-0.13,0.8,0c0.93,0.5,0.87,0.88-0.2,1.15
			c-0.13,0-0.28-0.03-0.45-0.1c-0.07-0.03-0.15-0.07-0.25-0.1c-0.03,0-0.05-0.03-0.05-0.1c-0.03,0-0.05-0.02-0.05-0.05
			c-0.03,0-0.05-0.02-0.05-0.05l-0.05-0.1c0-0.1,0-0.18,0-0.25c0-0.1,0.02-0.15,0.05-0.15c0.03-0.07,0.07-0.1,0.1-0.1
			C9.35,45.78,9.37,45.75,9.4,45.75z M8.35,42.95c0.03-0.07,0.08-0.12,0.15-0.15c0.2-0.27,0.47-0.22,0.8,0.15
			c0.07,0.13,0.17,0.3,0.3,0.5c-0.07,0.3-0.35,0.47-0.85,0.5c-0.27,0-0.52-0.08-0.75-0.25c-0.13-0.1-0.2-0.22-0.2-0.35
			C7.9,43.32,8.08,43.19,8.35,42.95z M10.6,43.8c0-0.07,0-0.15,0-0.25c0-0.03,0.05-0.08,0.15-0.15c0.43,0,0.92,0,1.45,0
			c0.4,0.37,0.17,0.67-0.7,0.9c-0.13,0-0.25-0.02-0.35-0.05c-0.1-0.07-0.18-0.12-0.25-0.15c-0.07,0-0.1-0.02-0.1-0.05
			c-0.03,0-0.05-0.03-0.05-0.1V43.9C10.65,43.87,10.6,43.83,10.6,43.8z M13.1,41.3c0.1,0.1,0.12,0.2,0.05,0.3
			c-0.03,0.33-0.3,0.52-0.8,0.55c-0.27,0-0.52-0.07-0.75-0.2c0.23,0,0.43,0.03,0.6,0.1c0.5-0.07,0.8-0.27,0.9-0.6
			C13.1,41.39,13.1,41.33,13.1,41.3z M21.5,44.25c0.87,0.47,0.72,0.83-0.45,1.1c-0.03,0-0.1,0-0.2,0h-0.1
			c-0.3-0.07-0.52-0.2-0.65-0.4c-0.03-0.03-0.05-0.1-0.05-0.2c0.17,0.1,0.32,0.15,0.45,0.15c0.57-0.07,0.87-0.27,0.9-0.6
			C21.4,44.27,21.43,44.25,21.5,44.25z M19,45.35c0.17,0.13,0.23,0.27,0.2,0.4c-0.07,0.33-0.35,0.53-0.85,0.6
			c-0.3,0-0.57-0.08-0.8-0.25c-0.2-0.17-0.23-0.35-0.1-0.55c0.03-0.07,0.07-0.13,0.1-0.2h0.05c0-0.03,0.03-0.05,0.1-0.05
			c0.17-0.1,0.38-0.15,0.65-0.15S18.83,45.22,19,45.35z M16.3,45.85c0.17,0.17,0.23,0.3,0.2,0.4c-0.07,0.33-0.35,0.53-0.85,0.6
			c-0.23,0-0.5-0.1-0.8-0.3c-0.2-0.13-0.23-0.3-0.1-0.5c0.03-0.07,0.07-0.12,0.1-0.15c0-0.03,0.05-0.05,0.15-0.05l0.1-0.1
			c0.17-0.07,0.35-0.1,0.55-0.1C15.95,45.65,16.17,45.72,16.3,45.85z M29.4,44.9c0-0.07,0.02-0.12,0.05-0.15
			c0.2-0.07,0.42-0.1,0.65-0.1c0.33,0,0.57,0.08,0.7,0.25c0.13,0.13,0.18,0.25,0.15,0.35c-0.03,0.33-0.32,0.53-0.85,0.6
			c-0.27,0-0.5-0.1-0.7-0.3c-0.27-0.13-0.33-0.3-0.2-0.5C29.23,44.98,29.3,44.94,29.4,44.9z M39.6,45.85l0.1-0.1
			c0.17-0.07,0.35-0.1,0.55-0.1c0.3,0,0.55,0.07,0.75,0.2c0.17,0.17,0.23,0.3,0.2,0.4c-0.03,0.33-0.35,0.53-0.95,0.6
			c-0.23,0-0.45-0.1-0.65-0.3c-0.27-0.13-0.33-0.3-0.2-0.5c0.07-0.07,0.13-0.12,0.2-0.15V45.85z M30.15,47.65
			c0.07-0.07,0.13-0.12,0.2-0.15h0.05c0-0.03,0-0.07,0-0.1c0.17-0.07,0.37-0.1,0.6-0.1c0.13,0,0.25,0,0.35,0
			c0.17,0.03,0.27,0.1,0.3,0.2h0.15c0.1,0.13,0.13,0.25,0.1,0.35c0,0.1-0.03,0.17-0.1,0.2h-1.65
			C30.02,47.95,30.02,47.82,30.15,47.65z M32.6,43.3c0.2,0,0.37,0.02,0.5,0.05c0.1,0.03,0.17,0.08,0.2,0.15
			c0.07,0.13,0.1,0.23,0.1,0.3c0,0.03,0,0.07,0,0.1c-0.03,0.33-0.3,0.52-0.8,0.55c-0.27,0-0.5-0.07-0.7-0.2
			c-0.23-0.13-0.32-0.32-0.25-0.55c0.1-0.1,0.18-0.15,0.25-0.15c0-0.03,0.02-0.05,0.05-0.05c0-0.03,0.03-0.07,0.1-0.1
			C32.18,43.33,32.37,43.3,32.6,43.3z M42.45,44.6c0-0.03,0.05-0.07,0.15-0.1s0.22-0.07,0.35-0.1c-0.1,0-0.17-0.03-0.2-0.1
			c-0.23-0.13-0.28-0.32-0.15-0.55c0.07-0.03,0.12-0.08,0.15-0.15c0-0.03,0.02-0.05,0.05-0.05l0.1-0.05l0.05-0.05
			c0.17-0.07,0.32-0.1,0.45-0.1c0.33,0,0.58,0.07,0.75,0.2c0.2,0.17,0.23,0.3,0.1,0.4c-0.03,0.27-0.18,0.43-0.45,0.5
			c0.03,0.07,0.07,0.12,0.1,0.15c0.13,0.13,0.17,0.25,0.1,0.35c-0.03,0.37-0.3,0.57-0.8,0.6c-0.27,0-0.52-0.08-0.75-0.25
			c-0.23-0.13-0.28-0.32-0.15-0.55c0.07-0.07,0.12-0.1,0.15-0.1V44.6z M49.25,45.35c0.33,0,0.58,0.1,0.75,0.3
			c0.17,0.13,0.22,0.23,0.15,0.3c-0.03,0.37-0.33,0.57-0.9,0.6c-0.23,0-0.48-0.07-0.75-0.2c-0.2-0.13-0.22-0.33-0.05-0.6
			c0-0.03,0.02-0.07,0.05-0.1h0.15c0-0.07,0.02-0.1,0.05-0.1C48.87,45.42,49.05,45.35,49.25,45.35z M46.6,47.6
			c0-0.03,0.02-0.05,0.05-0.05c0-0.03,0.02-0.05,0.05-0.05c0.17-0.1,0.35-0.15,0.55-0.15c0.33,0,0.6,0.07,0.8,0.2
			c0.1,0.13,0.13,0.27,0.1,0.4v0.1h-1.8c-0.03-0.1,0-0.22,0.1-0.35C46.52,47.67,46.57,47.64,46.6,47.6z M56.2,44.5
			c0-0.03,0.02-0.05,0.05-0.05c0.13-0.1,0.32-0.15,0.55-0.15c0.33,0,0.58,0.07,0.75,0.2c0.13,0.13,0.17,0.27,0.1,0.4
			c0,0.3-0.28,0.5-0.85,0.6c-0.03,0-0.08,0-0.15,0l0.1,0.05c0.17,0.13,0.22,0.25,0.15,0.35c-0.07,0.37-0.37,0.57-0.9,0.6
			c-0.23,0-0.45-0.08-0.65-0.25c-0.27-0.13-0.33-0.32-0.2-0.55c0.07-0.03,0.13-0.08,0.2-0.15h0.05c0-0.03,0.02-0.07,0.05-0.1
			c0.17-0.1,0.35-0.15,0.55-0.15c0.13,0,0.21,0,0.25,0c-0.04,0-0.09-0.02-0.15-0.05c-0.23-0.13-0.28-0.33-0.15-0.6
			c0.03-0.03,0.08-0.07,0.15-0.1C56.1,44.52,56.13,44.5,56.2,44.5z M58.8,50.5c0.07,0.03,0.12,0.08,0.15,0.15
			c0.1,0.23,0.05,0.42-0.15,0.55c-0.2,0.2-0.45,0.3-0.75,0.3c-0.5-0.1-0.78-0.3-0.85-0.6c-0.03-0.13,0.02-0.27,0.15-0.4
			s0.37-0.2,0.7-0.2c0.23,0,0.45,0.03,0.65,0.1c0.03,0.03,0.05,0.07,0.05,0.1H58.8z M56.3,49.85c-0.23,0.17-0.47,0.25-0.7,0.25
			c-0.57-0.07-0.85-0.27-0.85-0.6c0-0.03,0-0.07,0-0.1c0-0.07,0.03-0.15,0.1-0.25c0.03-0.07,0.1-0.12,0.2-0.15
			c0.13-0.07,0.32-0.1,0.55-0.1c0.2,0,0.37,0.05,0.5,0.15c0.07,0.03,0.1,0.07,0.1,0.1h0.1c0.03,0.03,0.08,0.08,0.15,0.15
			C56.55,49.53,56.5,49.72,56.3,49.85z M57.75,53.1c0.07,0,0.1,0.02,0.1,0.05c0.03,0,0.08,0.05,0.15,0.15c0.13,0.13,0.13,0.27,0,0.4
			c-0.67,0.33-1.22,0.33-1.65,0c-0.03-0.07-0.05-0.13-0.05-0.2c-0.07-0.1-0.05-0.22,0.05-0.35c0.07,0,0.1-0.02,0.1-0.05
			c0.07-0.1,0.18-0.15,0.35-0.15c0.13-0.03,0.25-0.05,0.35-0.05c0.23,0,0.43,0.03,0.6,0.1C57.75,53.03,57.75,53.07,57.75,53.1z
			 M45.7,50.2v0.1c0.03,0,0.07,0.03,0.1,0.1c0.17,0.2,0.13,0.38-0.1,0.55c-0.23,0.17-0.5,0.25-0.8,0.25
			c-0.47-0.03-0.72-0.23-0.75-0.6c-0.07-0.1-0.03-0.23,0.1-0.4c0.03-0.03,0.07-0.07,0.1-0.1c-0.3-0.1-0.45-0.27-0.45-0.5
			c-0.13-0.13-0.12-0.27,0.05-0.4c0.2-0.13,0.45-0.2,0.75-0.2c0.13,0,0.3,0.03,0.5,0.1l0.1,0.05c0.03,0,0.05,0.02,0.05,0.05
			c0.03,0,0.05,0.02,0.05,0.05c0.07,0.03,0.12,0.08,0.15,0.15c0.13,0.23,0.08,0.42-0.15,0.55C45.37,49.98,45.3,50,45.2,50
			c0.13,0.03,0.25,0.08,0.35,0.15C45.65,50.15,45.7,50.17,45.7,50.2z M47.15,51.5c0.2-0.13,0.45-0.2,0.75-0.2
			c0.2,0,0.38,0.03,0.55,0.1l0.05,0.1c0.07,0,0.1,0.02,0.1,0.05c0.07,0,0.12,0.05,0.15,0.15c0.13,0.17,0.08,0.33-0.15,0.5
			c-0.23,0.17-0.47,0.25-0.7,0.25c-0.57-0.03-0.87-0.22-0.9-0.55C46.97,51.77,47.02,51.64,47.15,51.5z M41.35,53.1l0.05,0.05
			c0.03,0,0.05,0.03,0.05,0.1c0.03,0.03,0.07,0.07,0.1,0.1c0.1,0.1,0.13,0.22,0.1,0.35c-0.6,0.43-1.2,0.43-1.8,0
			c0-0.03,0-0.08,0-0.15c-0.03-0.1,0.02-0.23,0.15-0.4c0.2-0.13,0.45-0.2,0.75-0.2C40.98,52.95,41.18,53,41.35,53.1z M38.9,52.2
			c-0.57-0.03-0.88-0.23-0.95-0.6c-0.03-0.07,0.03-0.18,0.2-0.35C38.32,51.08,38.57,51,38.9,51c0.17,0,0.37,0.05,0.6,0.15
			c0,0.03,0,0.07,0,0.1c0.07,0,0.1,0.02,0.1,0.05c0.07,0.03,0.1,0.07,0.1,0.1c0.17,0.23,0.13,0.42-0.1,0.55
			C39.37,52.12,39.13,52.2,38.9,52.2z M30.6,50.15c0.2-0.13,0.45-0.2,0.75-0.2c0.2,0,0.38,0.03,0.55,0.1
			c0.03,0.03,0.05,0.07,0.05,0.1h0.15c0.03,0.03,0.07,0.08,0.1,0.15c0.13,0.23,0.1,0.43-0.1,0.6c-0.1,0.03-0.16,0.05-0.2,0.05
			c0.04,0,0.12,0,0.25,0c0.2,0,0.4,0.05,0.6,0.15l0.05,0.05c0.03,0,0.05,0.02,0.05,0.05c0.03,0.03,0.08,0.08,0.15,0.15
			c0.1,0.23,0.05,0.42-0.15,0.55c-0.23,0.17-0.47,0.25-0.7,0.25c-0.53-0.07-0.83-0.27-0.9-0.6c-0.03-0.13,0.02-0.27,0.15-0.4h-0.05
			c-0.57-0.1-0.87-0.32-0.9-0.65C30.42,50.4,30.47,50.28,30.6,50.15z M22.75,50.05c-0.33,0.1-0.6,0.18-0.8,0.25
			c-1.17-0.37-1.23-0.75-0.2-1.15c0.33-0.13,0.68-0.13,1.05,0c0.03,0,0.05,0.02,0.05,0.05c0.03,0,0.05,0.02,0.05,0.05
			c0.03,0.03,0.08,0.08,0.15,0.15C23.18,49.67,23.08,49.89,22.75,50.05z M21.55,51.55c0.03,0,0.05,0.02,0.05,0.05
			c0.03,0.07,0.07,0.12,0.1,0.15c0.17,0.23,0.13,0.42-0.1,0.55c-0.2,0.17-0.45,0.25-0.75,0.25c-0.5-0.07-0.8-0.27-0.9-0.6
			c-0.03-0.13,0.03-0.27,0.2-0.4c0.17-0.13,0.4-0.2,0.7-0.2c0.2,0,0.4,0.05,0.6,0.15L21.55,51.55z M24.2,52.1
			c0.07,0,0.1,0.02,0.1,0.05c0.03,0.03,0.07,0.07,0.1,0.1c0.13,0.23,0.1,0.42-0.1,0.55c-0.3,0.17-0.57,0.25-0.8,0.25
			c-0.5-0.07-0.78-0.27-0.85-0.6c-0.03-0.1,0.02-0.22,0.15-0.35c0.17-0.13,0.4-0.2,0.7-0.2c0.2,0,0.38,0.02,0.55,0.05
			C24.15,52.02,24.2,52.07,24.2,52.1z M18.45,48.25c0.03,0,0.08,0.03,0.15,0.1c0.13,0.23,0.08,0.42-0.15,0.55
			c-0.3,0.17-0.55,0.25-0.75,0.25c-0.5-0.03-0.8-0.22-0.9-0.55c0-0.13,0.07-0.27,0.2-0.4c0.17-0.13,0.4-0.2,0.7-0.2
			c0.2,0,0.37,0.03,0.5,0.1c0.13,0.03,0.2,0.07,0.2,0.1C18.43,48.2,18.45,48.22,18.45,48.25z M15.75,50.95c0.07,0,0.1,0.02,0.1,0.05
			h0.1c0.03,0.07,0.07,0.12,0.1,0.15c0.1,0.23,0.07,0.42-0.1,0.55l-0.1,0.05h0.1c0.03,0,0.05,0.03,0.05,0.1
			c0.03,0,0.05,0.02,0.05,0.05c0.03,0,0.08,0.02,0.15,0.05c0.07,0.43-0.15,0.7-0.65,0.8c-0.37,0.03-0.72,0.08-1.05,0.15
			c-0.5-0.07-0.78-0.27-0.85-0.6c-0.03-0.1,0.02-0.23,0.15-0.4c0.23-0.1,0.43-0.17,0.6-0.2c-0.03-0.1-0.05-0.22-0.05-0.35
			c-0.1-0.1-0.08-0.22,0.05-0.35c0.2-0.17,0.43-0.25,0.7-0.25C15.4,50.75,15.62,50.82,15.75,50.95z M13.75,49.75h0.05
			c0.03,0.03,0.07,0.08,0.1,0.15c0.17,0.2,0.13,0.38-0.1,0.55c-0.2,0.17-0.47,0.25-0.8,0.25c-0.5-0.07-0.77-0.27-0.8-0.6
			c-0.07-0.1-0.02-0.22,0.15-0.35c0.17-0.17,0.38-0.25,0.65-0.25c0.23,0,0.45,0.05,0.65,0.15C13.72,49.69,13.75,49.72,13.75,49.75z
			 M9.3,49.3c0.03,0.03,0.05,0.07,0.05,0.1H9.4c0,0.03,0.05,0.08,0.15,0.15c0.1,0.23,0.05,0.42-0.15,0.55
			c-0.23,0.17-0.47,0.25-0.7,0.25c-0.57-0.03-0.87-0.23-0.9-0.6c-0.03-0.1,0-0.22,0.1-0.35c0.23-0.17,0.5-0.25,0.8-0.25
			C8.9,49.15,9.1,49.2,9.3,49.3z M79.85,48.6c0.23,0.2,0.4,0.33,0.5,0.4c0,0.13-0.07,0.25-0.2,0.35c-0.2,0.17-0.45,0.25-0.75,0.25
			c-0.5-0.07-0.78-0.23-0.85-0.5c0.1-0.2,0.22-0.37,0.35-0.5H79.85z M77.55,49.15c0,0.1,0,0.18,0,0.25c0,0.03-0.03,0.08-0.1,0.15
			c0,0.03-0.02,0.05-0.05,0.05c0,0.03-0.02,0.07-0.05,0.1c0,0.03-0.02,0.05-0.05,0.05c-0.13,0.03-0.23,0.07-0.3,0.1
			c-0.13,0.07-0.25,0.1-0.35,0.1c-0.87-0.23-1.12-0.53-0.75-0.9c0.5-0.43,1.02-0.43,1.55,0L77.55,49.15z M77.85,51.35
			c0.27-0.13,0.53-0.13,0.8,0c0.07,0,0.1,0.02,0.1,0.05c0.07,0,0.1,0.03,0.1,0.1c0.03,0,0.07,0.02,0.1,0.05
			C78.98,51.58,79,51.64,79,51.7c0,0.1,0,0.18,0,0.25l-0.05,0.15c0,0.03-0.02,0.05-0.05,0.05c0,0.03-0.02,0.05-0.05,0.05
			c0,0.03-0.03,0.05-0.1,0.05c-0.1,0.07-0.18,0.12-0.25,0.15c-0.13,0.03-0.28,0.05-0.45,0.05C77.02,52.19,76.95,51.82,77.85,51.35z
			 M72.5,51.85l0.05,0.05c0.03,0,0.05,0.02,0.05,0.05c0.03,0,0.08,0.05,0.15,0.15c0.1,0.2,0.05,0.38-0.15,0.55
			c-0.27,0.17-0.52,0.25-0.75,0.25c-0.1,0-0.18-0.02-0.25-0.05c-0.03,0.03-0.08,0.05-0.15,0.05c-0.17,0-0.33-0.03-0.5-0.1
			c-0.1-0.03-0.23-0.07-0.4-0.1c-1.03-0.57-1.1-1.05-0.2-1.45c0.27-0.1,0.52-0.1,0.75,0c0.33,0.17,0.6,0.32,0.8,0.45
			C72.1,51.7,72.3,51.75,72.5,51.85z M66.65,49.85c0.07,0.03,0.1,0.07,0.1,0.1c0,0.33,0.3,0.52,0.9,0.55c0.13,0,0.3-0.03,0.5-0.1
			c0,0.07-0.02,0.12-0.05,0.15c-0.17,0.23-0.4,0.38-0.7,0.45h-0.05c-0.1,0-0.17,0-0.2,0C65.92,50.73,65.75,50.35,66.65,49.85z"/>
		<path fill-rule="evenodd" clip-rule="evenodd" fill="#6B6D73" d="M19.8,39.9c-0.13-0.23-0.42-0.35-0.85-0.35
			c-0.03-0.13-0.03-0.28,0-0.45c0.03-0.07,0.1-0.1,0.2-0.1c0-0.03,0.02-0.05,0.05-0.05c0-0.03,0.02-0.07,0.05-0.1
			c0.2-0.1,0.4-0.15,0.6-0.15c0.33,0,0.58,0.08,0.75,0.25c0.1,0.13,0.15,0.25,0.15,0.35c-0.07,0.37-0.37,0.57-0.9,0.6H19.8z
			 M19.8,42.65c-0.07-0.2-0.07-0.37,0-0.5c0.03-0.03,0.07-0.07,0.1-0.1c0-0.07,0.05-0.1,0.15-0.1l0.05-0.05
			c0.33-0.13,0.65-0.12,0.95,0.05c0.77,0.43,0.83,0.77,0.2,1c-0.13,0.07-0.3,0.13-0.5,0.2c0-0.03-0.05-0.05-0.15-0.05
			c-0.07,0-0.12,0-0.15,0c-0.1-0.03-0.18-0.08-0.25-0.15C20.03,42.89,19.9,42.78,19.8,42.65z M34.05,34.8
			c0.1-0.03,0.25-0.05,0.45-0.05c0.27,0,0.5,0.07,0.7,0.2c0.13,0.13,0.15,0.27,0.05,0.4c-0.03,0.33-0.28,0.53-0.75,0.6
			c-0.3,0-0.55-0.08-0.75-0.25c-0.27-0.13-0.32-0.33-0.15-0.6c0.07-0.03,0.12-0.07,0.15-0.1c0-0.03,0.02-0.05,0.05-0.05
			c0-0.03,0.03-0.05,0.1-0.05C33.93,34.83,33.98,34.8,34.05,34.8z M27.45,37.15c0.2-0.07,0.4-0.1,0.6-0.1c0.37,0,0.62,0.07,0.75,0.2
			c0.13,0.13,0.18,0.25,0.15,0.35c-0.03,0.37-0.33,0.57-0.9,0.6c-0.23,0-0.47-0.08-0.7-0.25c-0.2-0.13-0.23-0.32-0.1-0.55
			c0.03-0.07,0.07-0.1,0.1-0.1c0-0.03,0.02-0.05,0.05-0.05C27.4,37.22,27.42,37.19,27.45,37.15z M29.15,40.45
			c0-0.03,0.02-0.07,0.05-0.1c0.33-0.13,0.63-0.13,0.9,0c0.83,0.5,0.73,0.88-0.3,1.15c-0.17,0-0.3-0.02-0.4-0.05
			s-0.18-0.08-0.25-0.15H29.1c-0.07-0.03-0.1-0.08-0.1-0.15c-0.03,0-0.05-0.02-0.05-0.05c-0.03-0.03-0.05-0.07-0.05-0.1
			c0-0.07,0-0.15,0-0.25c0-0.03,0.02-0.07,0.05-0.1c0.03-0.07,0.08-0.12,0.15-0.15C29.1,40.47,29.12,40.45,29.15,40.45z M38.75,36.5
			c-0.03,0.3-0.32,0.48-0.85,0.55c-0.23,0-0.5-0.1-0.8-0.3c-0.2-0.13-0.23-0.32-0.1-0.55c0.03-0.03,0.07-0.07,0.1-0.1
			c0-0.03,0.05-0.05,0.15-0.05c0-0.03,0.02-0.05,0.05-0.05c0.1-0.03,0.2-0.07,0.3-0.1c0.23,0.07,0.55,0.1,0.95,0.1
			c0.03,0,0.05,0.02,0.05,0.05C38.73,36.19,38.78,36.33,38.75,36.5z M33.95,38.45c0-0.07,0.02-0.1,0.05-0.1
			c0.33-0.13,0.65-0.18,0.95-0.15c0.13,0,0.22,0,0.25,0c0.2,0.07,0.38,0.15,0.55,0.25c0.1,0.13,0.12,0.28,0.05,0.45
			c-0.17,0.4-0.57,0.57-1.2,0.5c-0.43,0-0.72-0.13-0.85-0.4c-0.1-0.17-0.1-0.32,0-0.45l0.05-0.05h0.1
			C33.9,38.47,33.92,38.45,33.95,38.45z M35.45,42.1c0.03-0.13-0.03-0.27-0.2-0.4c-0.07-0.1-0.22-0.17-0.45-0.2l0.1-0.1
			c-0.07,0.06-0.16,0.1-0.27,0.1H34.6c-0.2,0-0.33,0.02-0.4,0.05c-0.1,0-0.18-0.02-0.25-0.05c-0.1,0-0.18-0.03-0.25-0.1
			c-0.07,0-0.1-0.02-0.1-0.05l-0.1-0.05c-0.07,0-0.1-0.02-0.1-0.05l-0.05-0.15c0.17,0.03,0.32,0.05,0.45,0.05
			c0.17-0.03,0.32-0.08,0.45-0.15c0,0.07,0.02,0.1,0.05,0.1c0.2,0.17,0.4,0.27,0.6,0.3c0.03,0.03,0.12,0.05,0.25,0.05
			c0.4,0,0.68-0.1,0.85-0.3c-0.13,0.17-0.13,0.33,0,0.5c0,0.03,0.02,0.05,0.05,0.05l0.05,0.05c0,0.03,0.02,0.05,0.05,0.05
			c0.13,0.07,0.22,0.1,0.25,0.1c-0.17,0.13-0.37,0.2-0.6,0.2C35.73,42.1,35.62,42.1,35.45,42.1z M36.1,40.9
			c0,0.03,0.02,0.05,0.05,0.05c-0.03,0.03-0.07,0.08-0.1,0.15C36.08,41.03,36.1,40.97,36.1,40.9z M40,40.2l-0.1,0.1
			c0-0.07,0-0.13,0-0.2C39.93,40.14,39.97,40.17,40,40.2z M41.5,39.85c0.17,0.17,0.23,0.3,0.2,0.4c0,0.03,0,0.07,0,0.1
			c-0.1-0.03-0.17-0.08-0.2-0.15c-0.03-0.03-0.1-0.07-0.2-0.1C41.4,40,41.47,39.92,41.5,39.85z M35.4,42.3h0.05
			c0.17,0.17,0.2,0.3,0.1,0.4c0,0.1-0.02,0.18-0.05,0.25c-0.17,0.13-0.37,0.23-0.6,0.3c0-0.07-0.03-0.15-0.1-0.25v-0.05
			c-0.03,0-0.07,0-0.1,0c-0.13-0.1-0.35-0.15-0.65-0.15c-0.07,0-0.15,0-0.25,0c-0.03-0.1,0-0.2,0.1-0.3l0.05-0.05
			c0.17,0.17,0.38,0.25,0.65,0.25C35,42.67,35.27,42.53,35.4,42.3z M42.95,43.45L42.9,43.5l-0.1,0.05c-0.03,0-0.05,0.02-0.05,0.05
			c-0.03,0.07-0.08,0.12-0.15,0.15c-0.13,0.23-0.08,0.42,0.15,0.55c0.03,0.07,0.1,0.1,0.2,0.1c-0.13,0.03-0.25,0.07-0.35,0.1
			s-0.15,0.07-0.15,0.1c-0.2-0.03-0.38-0.1-0.55-0.2c-0.23-0.17-0.27-0.35-0.1-0.55c0.03-0.07,0.07-0.12,0.1-0.15H42
			c0-0.07,0.02-0.12,0.05-0.15c0.17-0.07,0.38-0.1,0.65-0.1C42.77,43.45,42.85,43.45,42.95,43.45z M45.7,50.2
			c0-0.03-0.05-0.05-0.15-0.05c-0.1-0.07-0.22-0.12-0.35-0.15c0.1,0,0.17-0.02,0.2-0.05c0.23-0.13,0.28-0.32,0.15-0.55
			c-0.03-0.07-0.08-0.12-0.15-0.15c0-0.03-0.02-0.05-0.05-0.05c0-0.03-0.02-0.05-0.05-0.05l-0.1-0.05c0.1,0,0.2,0,0.3,0
			c0.2,0,0.4,0.03,0.6,0.1c0.03,0.03,0.05,0.07,0.05,0.1c0.07,0,0.1,0.02,0.1,0.05c0.03,0.03,0.07,0.07,0.1,0.1
			c0.13,0.23,0.1,0.42-0.1,0.55C46.08,50.1,45.9,50.17,45.7,50.2z"/>
		<path fill-rule="evenodd" clip-rule="evenodd" fill="#5B5C64" d="M30.15,34.9c0.17,0.13,0.23,0.27,0.2,0.4
			c-0.07,0.3-0.38,0.48-0.95,0.55c-0.27,0-0.48-0.08-0.65-0.25c-0.27-0.13-0.32-0.32-0.15-0.55c0-0.07,0.05-0.12,0.15-0.15h0.05
			v-0.1c0.2-0.07,0.4-0.1,0.6-0.1C29.67,34.7,29.92,34.77,30.15,34.9z M26.4,39.9c0-0.03,0.03-0.05,0.1-0.05l0.1-0.1
			c0.17-0.07,0.35-0.1,0.55-0.1c0.3,0,0.55,0.07,0.75,0.2c0.1,0.17,0.13,0.3,0.1,0.4c-0.03,0.33-0.32,0.53-0.85,0.6
			c-0.23,0-0.48-0.1-0.75-0.3c-0.2-0.13-0.25-0.3-0.15-0.5C26.32,39.98,26.37,39.94,26.4,39.9z M41.5,39.85
			c-0.03,0.07-0.1,0.15-0.2,0.25c-0.1-0.1-0.33-0.15-0.7-0.15c-0.2,0-0.38,0.05-0.55,0.15C40.02,40.14,40,40.17,40,40.2
			c-0.03-0.03-0.07-0.07-0.1-0.1c-0.07,0-0.12-0.02-0.15-0.05c-0.1-0.2-0.12-0.37-0.05-0.5c0-0.03,0.02-0.07,0.05-0.1l0.05-0.05
			c0.53-0.47,0.98-0.52,1.35-0.15h0.05c0.03,0,0.12,0.03,0.25,0.1c0.07,0.13,0.08,0.27,0.05,0.4V39.85z M34.63,41.5
			c0.05,0,0.11,0,0.17,0c0.23,0.03,0.38,0.1,0.45,0.2c0.17,0.13,0.23,0.27,0.2,0.4c0,0.03-0.02,0.1-0.05,0.2
			c-0.13,0.23-0.4,0.37-0.8,0.4c-0.27,0-0.48-0.08-0.65-0.25H33.9c-0.27-0.13-0.32-0.32-0.15-0.55c0.03-0.07,0.08-0.12,0.15-0.15
			c0-0.03,0.02-0.05,0.05-0.05L34,41.65c0.03-0.03,0.1-0.07,0.2-0.1c0.07-0.03,0.2-0.05,0.4-0.05H34.63z"/>
		<path fill-rule="evenodd" clip-rule="evenodd" fill="#6B6C74" d="M34.9,41.4l-0.1,0.1c-0.06,0-0.12,0-0.17,0
			C34.74,41.5,34.83,41.47,34.9,41.4z"/>
	</g>
	<g>
		<path fill-rule="evenodd" clip-rule="evenodd" fill="#C61C1C" d="M92.2,33.05c-0.33-0.03-0.35-0.17-0.05-0.4
			c0.2-0.17,0.38-0.33,0.55-0.5c0.57,0.17,1.05,0.3,1.45,0.4c-0.33,0.63-0.98,0.82-1.95,0.55V33.05z M96.95,34.6
			c0.43,0.03,0.15,0.28-0.85,0.75c-0.27,0-0.48-0.07-0.65-0.2c-0.37-0.3-0.3-0.48,0.2-0.55c0.2,0,0.35,0,0.45,0
			C96.47,34.53,96.75,34.53,96.95,34.6z M97.8,32.65c0.07-0.1,0.17-0.18,0.3-0.25c0.63,0.37,0.4,0.6-0.7,0.7v-0.05
			C97.53,32.95,97.67,32.82,97.8,32.65z M86.45,32.65c0.73,0.3,0.68,0.68-0.15,1.15c-0.1,0.03-0.22,0.05-0.35,0.05
			C85.78,33.45,85.95,33.05,86.45,32.65z M87.85,34.15c0.2-0.27,0.43-0.52,0.7-0.75l0.05-0.1c-0.03,0.23-0.27,0.52-0.7,0.85H87.85z
			 M89.2,43.1c-0.8-0.33-0.7-0.5,0.3-0.5c2.57,0,3.13,0.37,1.7,1.1C90.43,43.6,89.77,43.4,89.2,43.1z M89.8,40.25
			c-0.3-0.17-0.4-0.42-0.3-0.75c0.13-0.23,0.28-0.33,0.45-0.3c1.77,0,2.03,0.38,0.8,1.15c-0.1,0.03-0.22,0.07-0.35,0.1
			C90.13,40.42,89.93,40.35,89.8,40.25z M95.8,36.95c2.07,0,2.35,0.5,0.85,1.5c-0.8-0.17-1.2-0.53-1.2-1.1
			C95.38,37.12,95.5,36.98,95.8,36.95z M99.05,40.95c-0.37-0.07-0.65-0.22-0.85-0.45c-0.03-0.03-0.07-0.07-0.1-0.1l-0.05-0.05
			c-0.3-0.27-0.25-0.42,0.15-0.45c0.77-0.03,1.32,0,1.65,0.1c0.2,0.13,0.22,0.28,0.05,0.45c-0.17,0.17-0.43,0.33-0.8,0.5H99.05z
			 M89.35,35.8c-0.5-0.4-0.37-0.85,0.4-1.35C90.25,34.82,90.12,35.27,89.35,35.8z M107,33.3c-0.47-0.03-0.78-0.17-0.95-0.4
			c-0.23-0.23-0.17-0.38,0.2-0.45C108.52,32.22,108.77,32.5,107,33.3z M115.5,34.3c-0.27-0.23-0.22-0.38,0.15-0.45
			c1.7-0.3,1.9-0.08,0.6,0.65C115.98,34.5,115.73,34.44,115.5,34.3z M113.05,33.55c-0.47-0.03-0.83-0.18-1.1-0.45
			c-0.23-0.23-0.2-0.37,0.1-0.4C114.02,32.4,114.35,32.69,113.05,33.55z M107.35,38.6c1.67-0.37,1.85-0.15,0.55,0.65
			c-0.27,0-0.48-0.07-0.65-0.2C106.95,38.78,106.98,38.64,107.35,38.6z M113.15,40.4c1.43-0.3,1.82-0.2,1.15,0.3
			c-0.17,0.13-0.37,0.23-0.6,0.3c-0.23,0-0.45-0.05-0.65-0.15c-0.1-0.07-0.15-0.12-0.15-0.15C112.8,40.53,112.88,40.44,113.15,40.4z
			 M118.2,46.55c-0.43-0.27-0.38-0.47,0.15-0.6c2.03-0.27,2.17-0.02,0.4,0.75C118.48,46.7,118.3,46.65,118.2,46.55z M115.3,43.3
			c-0.47,0-0.75-0.15-0.85-0.45c-0.03-0.23,0.02-0.38,0.15-0.45C116.5,42.1,116.73,42.4,115.3,43.3z M140.95,32.25
			c-0.3-0.2-0.27-0.33,0.1-0.4c1.67-0.33,1.87-0.12,0.6,0.65C141.42,32.5,141.18,32.42,140.95,32.25z M135.15,35.05
			c-0.23,0-0.47-0.07-0.7-0.2c-0.3-0.23-0.28-0.37,0.05-0.4C136.27,34.12,136.48,34.32,135.15,35.05z M127,47.9
			c-0.2,0.13-0.42,0.2-0.65,0.2c-0.27-0.07-0.47-0.17-0.6-0.3c-0.67-0.5-0.28-0.62,1.15-0.35c0.23,0.07,0.32,0.17,0.25,0.3
			C127.15,47.78,127.1,47.83,127,47.9z M136.4,41.85c-0.03,0.07-0.15,0.17-0.35,0.3c-0.23,0.1-0.53,0.22-0.9,0.35
			c-0.97-0.23-1.2-0.62-0.7-1.15c0.1-0.17,0.23-0.25,0.4-0.25c0.07,0,0.15,0,0.25,0c0.07,0,0.15,0,0.25,0
			C136.38,41.3,136.73,41.55,136.4,41.85z M135.6,45.75c-0.5,0-0.8-0.13-0.9-0.4c-0.1-0.23-0.05-0.37,0.15-0.4
			C136.68,44.58,136.93,44.85,135.6,45.75z M140.15,47.55c-0.2-0.17-0.18-0.32,0.05-0.45c0.33-0.13,0.88-0.17,1.65-0.1
			c0.43,0.03,0.48,0.18,0.15,0.45v0.05c-0.07,0.03-0.12,0.07-0.15,0.1c-0.2,0.2-0.48,0.33-0.85,0.4c-0.03,0.03-0.07,0.05-0.1,0.05
			C140.57,47.85,140.32,47.69,140.15,47.55z M149.2,36.9c2.03-0.23,2.28,0.03,0.75,0.8c-0.43-0.03-0.75-0.18-0.95-0.45
			C148.87,37.05,148.93,36.94,149.2,36.9z M150.55,46.55c0.1,0.37-0.02,0.63-0.35,0.8c-0.1,0.1-0.27,0.17-0.5,0.2
			c-0.17-0.07-0.32-0.12-0.45-0.15c-1.2-0.73-0.93-1.12,0.8-1.15C150.28,46.22,150.45,46.32,150.55,46.55z M148.8,50.75
			c-1.4-0.73-0.82-1.1,1.75-1.1c1.03,0,1.15,0.17,0.35,0.5C150.27,50.48,149.57,50.69,148.8,50.75z M125.45,49.5
			c0.17,0.03,0.2,0.18,0.1,0.45c-0.07,0.27-0.33,0.42-0.8,0.45C123.32,49.47,123.55,49.17,125.45,49.5z M121.25,53.8
			c-1.73-0.8-1.58-1.07,0.45-0.8c0.5,0.13,0.55,0.35,0.15,0.65C121.72,53.75,121.52,53.8,121.25,53.8z M104,49.2
			c-0.2-0.13-0.33-0.22-0.4-0.25c-0.3-0.33,0.07-0.58,1.1-0.75c0.07,0,0.15,0,0.25,0c0.1,0,0.18,0,0.25,0c0.13,0,0.27,0.07,0.4,0.2
			c0.47,0.57,0.23,0.97-0.7,1.2C104.53,49.47,104.23,49.33,104,49.2z M105.15,52c0.23,0.07,0.3,0.22,0.2,0.45
			c-0.13,0.27-0.45,0.4-0.95,0.4C103.1,51.92,103.35,51.64,105.15,52z"/>
		<path fill-rule="evenodd" clip-rule="evenodd" fill="#E43A3A" d="M98.35,32.45H98.2c-0.23-0.13-0.1-0.38,0.4-0.75l0.1-0.1
			C99.37,31.83,99.25,32.12,98.35,32.45z M86.1,37.1c-0.07-0.37,0.1-0.7,0.5-1l0.1-0.05c0.3,0.3,0.12,0.62-0.55,0.95
			C86.15,37.07,86.13,37.1,86.1,37.1z M85.85,38.65c0.4,0.1,0.82,0.22,1.25,0.35c0.03,0.03,0.08,0.05,0.15,0.05
			c-0.23,0.27-0.5,0.52-0.8,0.75c0,0.07-0.02,0.12-0.05,0.15c-0.47-0.1-0.9-0.27-1.3-0.5c0.27-0.23,0.5-0.47,0.7-0.7L85.85,38.65z
			 M99.9,40.45c0.17-0.17,0.15-0.32-0.05-0.45c0.1-0.03,0.2-0.05,0.3-0.05c2-0.13,2.72,0.05,2.15,0.55
			c-0.17,0.13-0.37,0.28-0.6,0.45c-0.67-0.03-1.27-0.18-1.8-0.45V40.45z M98.2,40.5c0.2,0.23,0.48,0.38,0.85,0.45
			c-0.2,0.1-0.43,0.22-0.7,0.35c-0.37,0-0.63-0.12-0.8-0.35c-0.2-0.23-0.12-0.37,0.25-0.4C97.97,40.52,98.1,40.5,98.2,40.5z
			 M91.6,40.7c-0.03-0.2,0.03-0.32,0.2-0.35l0.1-0.1c1.13-0.17,1.68-0.13,1.65,0.1c-0.03,0.17-0.35,0.43-0.95,0.8
			C92.07,41.15,91.73,41,91.6,40.7z M94.15,46.45c-0.6-0.3-1.02-0.55-1.25-0.75h2.2C95.1,46.1,94.78,46.35,94.15,46.45z M94.7,44.05
			c-0.37,0-0.67-0.1-0.9-0.3c-0.27-0.23-0.23-0.38,0.1-0.45C95.73,43,96,43.25,94.7,44.05z M118.85,33.15
			c-0.33-0.17-0.28-0.3,0.15-0.4c2.53-0.23,3.07,0.08,1.6,0.95C119.9,33.67,119.32,33.48,118.85,33.15z M104.7,33.45
			c0.07,0.03,0.13,0.05,0.2,0.05c-0.27,0.23-0.52,0.48-0.75,0.75c-1.37-0.43-1.5-1.05-0.4-1.85
			C104.02,32.73,104.33,33.08,104.7,33.45z M104.55,44.4c0-0.1,0.03-0.15,0.1-0.15c0.8-0.07,1.33-0.45,1.6-1.15
			c0.57,0.13,0.85,0.22,0.85,0.25c0.1,0.03,0.2,0.05,0.3,0.05c3.1,0.3,3.3,0.68,0.6,1.15c-0.6,0-1.05-0.17-1.35-0.5
			C105.98,44.95,105.28,45.07,104.55,44.4z M135.7,34.15c-0.23,0-0.48-0.1-0.75-0.3c-0.27-0.2-0.23-0.32,0.1-0.35
			C136.75,33.17,136.97,33.39,135.7,34.15z M127.25,42.5c1.67-0.3,1.88-0.08,0.65,0.65c-0.27,0-0.5-0.08-0.7-0.25
			C126.9,42.7,126.92,42.57,127.25,42.5z M135.35,38.4c-0.33-0.23-0.32-0.38,0.05-0.45c1.7-0.33,1.9-0.12,0.6,0.65
			C135.73,38.6,135.52,38.53,135.35,38.4z M140.15,47.55v0.05c-0.53,0.27-1.13,0.42-1.8,0.45c-0.27-0.17-0.47-0.32-0.6-0.45
			c-0.57-0.5,0.13-0.68,2.1-0.55c0.17,0,0.28,0.02,0.35,0.05C139.97,47.23,139.95,47.39,140.15,47.55z M145.9,39.35
			c-0.8-0.1-1.1-0.45-0.9-1.05c0.03-0.23,0.23-0.35,0.6-0.35C147.77,37.95,147.87,38.42,145.9,39.35z M143,36.1
			c-0.27,0-0.52-0.1-0.75-0.3c-0.3-0.2-0.28-0.33,0.05-0.4C144.03,35.1,144.27,35.33,143,36.1z M141,48c0.37-0.07,0.65-0.2,0.85-0.4
			c0.1,0,0.23,0.02,0.4,0.05c0.33,0.03,0.42,0.15,0.25,0.35c-0.17,0.23-0.45,0.35-0.85,0.35C141.42,48.25,141.2,48.14,141,48z
			 M147.75,47.3c0.11,0.01,0.23,0.03,0.35,0.05l0.15,0.05c0.17,0.07,0.22,0.2,0.15,0.4c-0.1,0.3-0.42,0.45-0.95,0.45
			c-0.6-0.37-0.92-0.63-0.95-0.8c-0.03-0.19,0.32-0.25,1.05-0.17v0.02H147.75z M153.55,46.9c-0.3-0.23-0.55-0.48-0.75-0.75
			c0.03,0,0.08-0.02,0.15-0.05c0.4-0.13,0.82-0.25,1.25-0.35l0.05,0.1c0.2,0.2,0.43,0.43,0.7,0.7c-0.4,0.23-0.83,0.4-1.3,0.5
			C153.62,47.02,153.58,46.97,153.55,46.9z M152.4,44.3c-0.13-0.53,0.13-1.02,0.8-1.45c0.3-0.23,0.63-0.27,1-0.1
			c1.5,0.67,1.1,1.28-1.2,1.85C152.7,44.6,152.5,44.5,152.4,44.3z M145.35,51.15c-1.3-0.8-1.03-1.05,0.8-0.75
			c0.37,0.07,0.4,0.22,0.1,0.45C145.98,51.05,145.68,51.15,145.35,51.15z M135.4,51.3c0.07,0,0.1,0.07,0.1,0.2
			c-0.73,0.67-1.43,0.55-2.1-0.35c-0.3,0.33-0.77,0.5-1.4,0.5c-2.67-0.47-2.45-0.85,0.65-1.15c0.07,0,0.17-0.02,0.3-0.05
			c0-0.07,0.28-0.17,0.85-0.3C134.07,50.89,134.6,51.27,135.4,51.3z M112.15,50.2c-1.23-0.73-1.02-0.93,0.65-0.6
			c0.33,0.03,0.35,0.17,0.05,0.4C112.65,50.14,112.42,50.2,112.15,50.2z M85.85,49.85c0.33-0.17,0.67-0.13,1,0.1
			c0.63,0.43,0.9,0.9,0.8,1.4c-0.1,0.23-0.3,0.35-0.6,0.35C84.75,51.14,84.35,50.52,85.85,49.85z"/>
		<path fill-rule="evenodd" clip-rule="evenodd" fill="#E73F3F" d="M96.95,34.6c-0.2-0.07-0.48-0.07-0.85,0
			c-0.1-0.1-0.23-0.17-0.4-0.2c0.17-0.1,0.25-0.2,0.25-0.3v-0.15v-0.2c0.07,0.07,0.15,0.12,0.25,0.15c-0.1,0-0.18,0.02-0.25,0.05
			c0.07,0,0.15,0,0.25,0C96.53,34.19,96.78,34.4,96.95,34.6z"/>
		<path fill-rule="evenodd" clip-rule="evenodd" fill="#6B6C74" d="M86.45,34.05c-0.07,0-0.17,0-0.3,0c0.13-0.03,0.23-0.07,0.3-0.1
			V34.05z"/>
		<path fill-rule="evenodd" clip-rule="evenodd" fill="#E03334" d="M99.35,36.65c-0.2-0.4-0.05-0.63,0.45-0.7
			c1.83-0.23,2.18,0.03,1.05,0.8C100.82,36.75,100.32,36.72,99.35,36.65z"/>
		<path fill-rule="evenodd" clip-rule="evenodd" fill="#E03B3A" d="M97.8,36.3c0.17-0.1,0.25-0.2,0.25-0.3l0.1-0.6
			C99.75,35.37,99.63,35.67,97.8,36.3z"/>
		<path fill-rule="evenodd" clip-rule="evenodd" fill="#DD3233" d="M96.55,36.95V36.5C98.22,36.9,98.22,37.05,96.55,36.95z"/>
		<path fill-rule="evenodd" clip-rule="evenodd" fill="#E43234" d="M98.2,45.35c0.1-0.6,0.48-0.92,1.15-0.95l0.25,0.05
			c1.2,0.3,1.65,0.67,1.35,1.1C100.05,47.19,99.13,47.12,98.2,45.35z M140.7,51.5c0.63,0.03,1.02,0.35,1.15,0.95
			c-0.93,1.77-1.83,1.83-2.7,0.2c-0.33-0.47,0.1-0.83,1.3-1.1L140.7,51.5z"/>
		<path fill-rule="evenodd" clip-rule="evenodd" fill="#DF3333" d="M96.9,45.55c0.33,0.53-0.05,1.03-1.15,1.5
			c-0.1,0.03,0,0.12,0.3,0.25h-1.6c0.3-0.77,0.93-1.53,1.9-2.3C96.45,44.94,96.63,45.12,96.9,45.55z M143.2,52.6
			c0.23-0.43,0.42-0.6,0.55-0.5c0.93,0.73,1.55,1.48,1.85,2.25h-1.65c0.33-0.1,0.45-0.17,0.35-0.2
			C143.17,53.69,142.8,53.17,143.2,52.6z"/>
		<path fill-rule="evenodd" clip-rule="evenodd" fill="#E84241" d="M98.2,47.3c0-0.13-0.03-0.22-0.1-0.25
			c-0.2-0.13-0.48-0.27-0.85-0.4c0.73-0.2,1.42,0.02,2.05,0.65H98.2z M142.75,53.75c-0.33,0.13-0.58,0.27-0.75,0.4
			c-0.1,0.03-0.15,0.1-0.15,0.2h-1.1C141.35,53.75,142.02,53.55,142.75,53.75z"/>
		<path fill-rule="evenodd" clip-rule="evenodd" fill="#E33737" d="M107.75,36.65c-0.17-0.7,0.02-0.85,0.55-0.45
			c0.83,0.67,0.43,1.37-1.2,2.1C107.67,37.73,107.88,37.19,107.75,36.65z M148.85,43.5c-0.03,0.17-0.08,0.3-0.15,0.4
			c-0.63,1.2-1.07,1.37-1.3,0.5c-0.4-1.33,0.2-2,1.8-2L148.85,43.5z M90.9,49.5c1.6,0,2.18,0.67,1.75,2c-0.23,0.87-0.67,0.7-1.3-0.5
			c-0.07-0.1-0.13-0.23-0.2-0.4L90.9,49.5z"/>
		<path fill-rule="evenodd" clip-rule="evenodd" fill="#E23032" d="M102.9,46.1l0.3,0.55c-0.27-0.1-0.87-0.32-1.8-0.65
			C102.1,45.27,102.6,45.3,102.9,46.1z M137.15,53.15c0.3-0.8,0.8-0.83,1.5-0.1c-0.93,0.37-1.53,0.6-1.8,0.7L137.15,53.15z"/>
		<path fill-rule="evenodd" clip-rule="evenodd" fill="#E03233" d="M116.7,36.05c0-0.13,0.03-0.22,0.1-0.25
			C120.4,35.53,120.37,35.62,116.7,36.05z"/>
		<path fill-rule="evenodd" clip-rule="evenodd" fill="#DF3737" d="M118.05,39.9c0.47-0.97,1.12-1.83,1.95-2.6
			c0,0.1-0.03,0.22-0.1,0.35c-0.23,1.07-0.9,1.93-2,2.6C117.9,40.12,117.95,40,118.05,39.9z"/>
		<path fill-rule="evenodd" clip-rule="evenodd" fill="#E13435" d="M111.4,37.1c1.73,0.27,1.63,0.45-0.3,0.55
			C110.9,37.22,111,37.03,111.4,37.1z M121.8,36.9c0.93,2.07,0.18,1.98-2.25-0.25C120.78,36.19,121.53,36.27,121.8,36.9z"/>
		<path fill-rule="evenodd" clip-rule="evenodd" fill="#E13B3B" d="M121.25,41.95l0.7,0.2c-0.3,0.57-1.22,0.78-2.75,0.65
			C119.37,41.94,120.05,41.65,121.25,41.95z M118.1,49.2l0.65-0.2c1.2-0.27,1.92,0.03,2.15,0.9C119.33,50,118.4,49.77,118.1,49.2z"
			/>
		<path fill-rule="evenodd" clip-rule="evenodd" fill="#E13334" d="M136.4,41.85c0.43-0.23,0.08,0.08-1.05,0.95
			c0-0.1,0.03-0.18,0.1-0.25c0.23-0.17,0.43-0.3,0.6-0.4C136.25,42.02,136.37,41.92,136.4,41.85z M103.6,48.95
			c0.07,0.03,0.2,0.12,0.4,0.25c0.17,0.13,0.35,0.27,0.55,0.4c0.1,0.1,0.15,0.2,0.15,0.3C103.57,49.03,103.2,48.72,103.6,48.95z"/>
		<path fill-rule="evenodd" clip-rule="evenodd" fill="#E43637" d="M120.35,35.7c0.03-0.57,0.38-0.8,1.05-0.7
			C122.73,35.27,122.38,35.5,120.35,35.7z"/>
		<path fill-rule="evenodd" clip-rule="evenodd" fill="#E03837" d="M147.55,47.28c0.17-1.28,0.37-1.27,0.6,0.02h-0.4h-0.2V47.28z
			 M91.9,54.35c0.2-1.27,0.4-1.27,0.6,0H91.9z"/>
	</g>
	<g>
		<linearGradient id="SVGID_1_" gradientUnits="userSpaceOnUse" x1="-48.4751" y1="42.8267" x2="93.8749" y2="42.8267">
			<stop  offset="0" style="stop-color:#000000;stop-opacity:0.498"/>
			<stop  offset="1" style="stop-color:#000000;stop-opacity:0"/>
		</linearGradient>
		<rect x="6.25" y="30.65" fill-rule="evenodd" clip-rule="evenodd" fill="url(#SVGID_1_)" width="150.45" height="24.35"/>
	</g>
	<g>
		<g>
			<g>
				<path fill-rule="evenodd" clip-rule="evenodd" fill-opacity="0.4706" d="M17.75,44.65c2.5-1.53,3.8-0.88,3.9,1.95
					c0.17,2.8,0.05,5.28-0.35,7.45c0,0.13,0,0.25,0,0.35h-4.15C16.68,52.57,16.88,49.32,17.75,44.65z"/>
			</g>
			<g>
				<path fill-rule="evenodd" clip-rule="evenodd" fill="#616161" d="M18.75,45.55c0-0.3,0.13-0.6,0.4-0.9
					c0.27-0.2,0.53-0.3,0.8-0.3c0.33,0,0.63,0.1,0.9,0.3c0.23,0.3,0.35,0.6,0.35,0.9v9.25c0,0.3,0,0.6,0,0.9
					c0.13-0.17,0.27-0.25,0.4-0.25h0.05l0.5-0.7l3.3-0.05c-2.2,2.5-3.37,3.77-3.5,3.8c-0.1,0.07-0.18,0.13-0.25,0.2
					c-0.87,0.6-1.57,0.57-2.1-0.1c-0.57-0.4-0.85-1.68-0.85-3.85V45.55z"/>
			</g>
			<g>
				
					<radialGradient id="SVGID_2_" cx="19.6001" cy="52.4517" r="4.7" gradientTransform="matrix(1 0 0 1.0106 0 -0.558)" gradientUnits="userSpaceOnUse">
					<stop  offset="0" style="stop-color:#FFFFFF"/>
					<stop  offset="1" style="stop-color:#F9F9F9;stop-opacity:0"/>
				</radialGradient>
				<path fill-rule="evenodd" clip-rule="evenodd" fill="url(#SVGID_2_)" d="M19.5,47.75c-0.07-0.03-0.07-0.07,0-0.1
					c0.03-0.03,0.07-0.03,0.1,0c0.03-0.03,0.07-0.03,0.1,0c0.03,0.03,0.05,0.07,0.05,0.1v9.5c0,0.03-0.02,0.07-0.05,0.1
					c-0.03,0.03-0.07,0.05-0.1,0.05s-0.07-0.02-0.1-0.05c-0.07-0.03-0.07-0.07,0-0.1V47.75z"/>
				<path fill-rule="evenodd" clip-rule="evenodd" fill="#FFFFFF" d="M20.4,46.15c-0.73-0.03-0.95-0.38-0.65-1.05
					c0.03-0.07,0.07-0.1,0.1-0.1c0.47,0.2,0.67,0.53,0.6,1C20.42,46.07,20.4,46.12,20.4,46.15z"/>
			</g>
		</g>
	</g>
	<g>
		<g>
			<g>
				<path fill-rule="evenodd" clip-rule="evenodd" fill-opacity="0.4706" d="M143.55,45.4c0.77,4.67,0.93,7.93,0.5,9.8h-3.65
					c0-0.13,0-0.27,0-0.4c-0.37-2.17-0.48-4.65-0.35-7.45C140.15,44.55,141.32,43.9,143.55,45.4z"/>
			</g>
			<g>
				<path fill-rule="evenodd" clip-rule="evenodd" fill="#616161" d="M142.1,45.1c0.27,0,0.52,0.1,0.75,0.3
					c0.23,0.3,0.35,0.6,0.35,0.9v9.2c0,2.17-0.25,3.45-0.75,3.85c-0.47,0.6-1.03,0.68-1.7,0.25c-0.07-0.5-0.05-1.23,0.05-2.2
					c0.07-0.93,0.13-1.55,0.2-1.85V46.3c0-0.3,0.12-0.6,0.35-0.9C141.55,45.2,141.8,45.1,142.1,45.1z"/>
			</g>
			<g>
				<path fill-rule="evenodd" clip-rule="evenodd" fill="#FFFFFF" d="M142.85,45.85c0.27,0.67,0.07,1.02-0.6,1.05
					c0-0.03-0.02-0.07-0.05-0.1c-0.07-0.5,0.1-0.85,0.5-1.05C142.73,45.75,142.78,45.78,142.85,45.85z"/>
				
					<radialGradient id="SVGID_3_" cx="-680.9502" cy="-690.1987" r="4.175" gradientTransform="matrix(-1 0 0 1.1377 -538 838.4578)" gradientUnits="userSpaceOnUse">
					<stop  offset="0" style="stop-color:#FFFFFF"/>
					<stop  offset="1" style="stop-color:#F9F9F9;stop-opacity:0"/>
				</radialGradient>
				<path fill-rule="evenodd" clip-rule="evenodd" fill="url(#SVGID_3_)" d="M143.1,48.5V58c0.03,0.03,0.03,0.07,0,0.1
					c-0.07,0.03-0.12,0.05-0.15,0.05s-0.05-0.02-0.05-0.05c-0.03-0.03-0.05-0.07-0.05-0.1v-9.5c0-0.03,0.02-0.07,0.05-0.1
					c0-0.03,0.02-0.03,0.05,0c0.03-0.03,0.08-0.03,0.15,0C143.13,48.44,143.13,48.47,143.1,48.5z"/>
			</g>
			<g>
				<path fill-rule="evenodd" clip-rule="evenodd" fill="#616161" d="M139.6,55.15h1.5v0.05l0.25,1l-0.4,3.5
					c-0.07-0.07-0.13-0.15-0.2-0.25c-0.1-0.13-0.2-0.33-0.3-0.6c-0.03-0.1-0.07-0.2-0.1-0.3l-0.55-2.3
					C139.77,56.19,139.7,55.82,139.6,55.15z"/>
			</g>
		</g>
	</g>
</g>
</svg>
