<?xml version="1.0" encoding="utf-8"?>
<!-- Generator: Adobe Illustrator 16.0.0, SVG Export Plug-In . SVG Version: 6.00 Build 0)  -->
<!DOCTYPE svg PUBLIC "-//W3C//DTD SVG 1.1//EN" "http://www.w3.org/Graphics/SVG/1.1/DTD/svg11.dtd">
<svg version="1.1" xmlns="http://www.w3.org/2000/svg" xmlns:xlink="http://www.w3.org/1999/xlink" x="0px" y="0px" width="203px"
	 height="90.75px" viewBox="0 0 203 90.75" enable-background="new 0 0 203 90.75" xml:space="preserve">
<g id="Layer_1">
	<g>
		<g>
			<g>
				<g>
					<g>
						
							<linearGradient id="SVGID_1_" gradientUnits="userSpaceOnUse" x1="85.4868" y1="111.2119" x2="106.1618" y2="111.2119" gradientTransform="matrix(1 0 0 -1 5.8101 134.3789)">
							<stop  offset="0" style="stop-color:#010101"/>
							<stop  offset="0.4431" style="stop-color:#454545"/>
							<stop  offset="0.9804" style="stop-color:#010101"/>
						</linearGradient>
						<path fill="url(#SVGID_1_)" d="M116.19,45.08l-9.6-35.2c-1.03-4.13-2.95-5.97-5.75-5.5c-1.73,0.43-3.03,1.98-3.9,4.65
							c-0.07,0.27-0.13,0.53-0.2,0.8v0.05l-9.6,35.2h-1.7L96.19,7.23V7.18c0.07-0.33,0.13-0.62,0.2-0.85c0.97-2.9,2.42-4.57,4.35-5
							c3.13-0.53,5.27,1.43,6.4,5.9l10.75,37.85H116.19z"/>
						
							<linearGradient id="SVGID_2_" gradientUnits="userSpaceOnUse" x1="85.4868" y1="111.2119" x2="106.1618" y2="111.2119" gradientTransform="matrix(1 0 0 -1 5.8101 134.3789)">
							<stop  offset="0" style="stop-color:#010101"/>
							<stop  offset="0.4431" style="stop-color:#454545"/>
							<stop  offset="0.9804" style="stop-color:#010101"/>
						</linearGradient>
						<path fill="url(#SVGID_2_)" d="M116.19,45.08l-9.6-35.2c-1.03-4.13-2.95-5.97-5.75-5.5c-1.73,0.43-3.03,1.98-3.9,4.65
							c-0.07,0.27-0.13,0.53-0.2,0.8v0.05l-9.6,35.2h-1.7L96.19,7.23V7.18c0.07-0.33,0.13-0.62,0.2-0.85c0.97-2.9,2.42-4.57,4.35-5
							c3.13-0.53,5.27,1.43,6.4,5.9l10.75,37.85H116.19z"/>
						
							<linearGradient id="SVGID_3_" gradientUnits="userSpaceOnUse" x1="88.1992" y1="67.252" x2="103.4492" y2="67.252" gradientTransform="matrix(1 0 0 -1 5.8101 134.3789)">
							<stop  offset="0" style="stop-color:#010101"/>
							<stop  offset="0.4431" style="stop-color:#454545"/>
							<stop  offset="0.9804" style="stop-color:#010101"/>
						</linearGradient>
						<path fill="url(#SVGID_3_)" d="M87.14,45.08l-0.05,0.2l9.65,35.45v0.05c0.07,0.3,0.13,0.57,0.2,0.8
							c0.87,2.67,2.17,4.23,3.9,4.7c2.8,0.47,4.72-1.38,5.75-5.55l9.65-35.45l-0.05-0.2h1.7v0.1l-10.75,38
							c-1.13,4.47-3.27,6.43-6.4,5.9c-1.93-0.47-3.38-2.13-4.35-5c-0.07-0.27-0.13-0.55-0.2-0.85v-0.05l-10.8-38l0.05-0.1H87.14z"/>
						
							<linearGradient id="SVGID_4_" gradientUnits="userSpaceOnUse" x1="88.1992" y1="67.252" x2="103.4492" y2="67.252" gradientTransform="matrix(1 0 0 -1 5.8101 134.3789)">
							<stop  offset="0" style="stop-color:#010101"/>
							<stop  offset="0.4431" style="stop-color:#454545"/>
							<stop  offset="0.9804" style="stop-color:#010101"/>
						</linearGradient>
						<path fill="url(#SVGID_4_)" d="M87.14,45.08l-0.05,0.2l9.65,35.45v0.05c0.07,0.3,0.13,0.57,0.2,0.8
							c0.87,2.67,2.17,4.23,3.9,4.7c2.8,0.47,4.72-1.38,5.75-5.55l9.65-35.45l-0.05-0.2h1.7v0.1l-10.75,38
							c-1.13,4.47-3.27,6.43-6.4,5.9c-1.93-0.47-3.38-2.13-4.35-5c-0.07-0.27-0.13-0.55-0.2-0.85v-0.05l-10.8-38l0.05-0.1H87.14z"/>
						<path fill="#262722" d="M116.19,45.08l0.05,0.2l-9.65,35.45c-1.03,4.17-2.95,6.02-5.75,5.55c-1.73-0.47-3.03-2.03-3.9-4.7
							c-0.07-0.23-0.13-0.5-0.2-0.8v-0.05l-9.65-35.45l0.05-0.2l9.6-35.2V9.83c0.07-0.27,0.13-0.53,0.2-0.8
							c0.87-2.67,2.17-4.22,3.9-4.65c2.8-0.47,4.72,1.37,5.75,5.5L116.19,45.08z"/>
						<path fill="#262722" d="M116.19,45.08l0.05,0.2l-9.65,35.45c-1.03,4.17-2.95,6.02-5.75,5.55c-1.73-0.47-3.03-2.03-3.9-4.7
							c-0.07-0.23-0.13-0.5-0.2-0.8v-0.05l-9.65-35.45l0.05-0.2l9.6-35.2V9.83c0.07-0.27,0.13-0.53,0.2-0.8
							c0.87-2.67,2.17-4.22,3.9-4.65c2.8-0.47,4.72,1.37,5.75,5.5L116.19,45.08z"/>
					</g>
				</g>
				
					<radialGradient id="SVGID_5_" cx="134.293" cy="200.832" r="4.2485" gradientTransform="matrix(1.2121 0 0 -1.2121 -61.059 256.2476)" gradientUnits="userSpaceOnUse">
					<stop  offset="0" style="stop-color:#010101"/>
					<stop  offset="0.7647" style="stop-color:#0E0E0E"/>
					<stop  offset="0.8824" style="stop-color:#22231F"/>
					<stop  offset="1" style="stop-color:#262722"/>
				</radialGradient>
				<path fill="url(#SVGID_5_)" d="M101.72,7.84c1.37,0,2.54,0.48,3.52,1.46c0.97,0.97,1.45,2.14,1.45,3.52
					c0,1.37-0.48,2.54-1.45,3.51s-2.14,1.46-3.52,1.46c-1.38,0-2.54-0.48-3.52-1.46c-0.97-0.97-1.45-2.14-1.45-3.51
					c0-1.38,0.48-2.55,1.45-3.52C99.17,8.33,100.34,7.84,101.72,7.84z"/>
				
					<radialGradient id="SVGID_6_" cx="134.293" cy="200.832" r="4.2485" gradientTransform="matrix(1.2121 0 0 -1.2121 -61.059 256.2476)" gradientUnits="userSpaceOnUse">
					<stop  offset="0" style="stop-color:#010101"/>
					<stop  offset="0.7647" style="stop-color:#0E0E0E"/>
					<stop  offset="0.8824" style="stop-color:#22231F"/>
					<stop  offset="1" style="stop-color:#262722"/>
				</radialGradient>
				<path fill="url(#SVGID_6_)" d="M101.72,7.84c1.37,0,2.54,0.48,3.52,1.46c0.97,0.97,1.45,2.14,1.45,3.52
					c0,1.37-0.48,2.54-1.45,3.51s-2.14,1.46-3.52,1.46c-1.38,0-2.54-0.48-3.52-1.46c-0.97-0.97-1.45-2.14-1.45-3.51
					c0-1.38,0.48-2.55,1.45-3.52C99.17,8.33,100.34,7.84,101.72,7.84z"/>
				<path fill="#702A1C" d="M101.91,9.1c1.01,0,1.87,0.36,2.59,1.07c0.71,0.71,1.07,1.58,1.07,2.59c0,1.01-0.36,1.87-1.07,2.59
					c-0.71,0.71-1.58,1.07-2.59,1.07s-1.87-0.36-2.59-1.07c-0.72-0.71-1.07-1.58-1.07-2.59c0-1.01,0.36-1.87,1.07-2.59
					C100.04,9.45,100.9,9.1,101.91,9.1z"/>
				<path fill="#702A1C" d="M101.91,9.1c1.01,0,1.87,0.36,2.59,1.07c0.71,0.71,1.07,1.58,1.07,2.59c0,1.01-0.36,1.87-1.07,2.59
					c-0.71,0.71-1.58,1.07-2.59,1.07s-1.87-0.36-2.59-1.07c-0.72-0.71-1.07-1.58-1.07-2.59c0-1.01,0.36-1.87,1.07-2.59
					C100.04,9.45,100.9,9.1,101.91,9.1z"/>
			</g>
			<g>
				
					<radialGradient id="SVGID_7_" cx="-5.2183" cy="1216.7148" r="1.99" gradientTransform="matrix(-0.4771 0.8789 1.3246 0.3578 -1512.5413 -426.533)" gradientUnits="userSpaceOnUse">
					<stop  offset="0" style="stop-color:#FFFFFF"/>
					<stop  offset="0.1765" style="stop-color:#FFFFFF"/>
					<stop  offset="0.3059" style="stop-color:#FFFFFF;stop-opacity:0.4235"/>
					<stop  offset="0.4902" style="stop-color:#FFFFFF;stop-opacity:0.2314"/>
					<stop  offset="0.651" style="stop-color:#FFFFFF;stop-opacity:0.0824"/>
					<stop  offset="1" style="stop-color:#FFFFFF;stop-opacity:0"/>
				</radialGradient>
				<path fill="url(#SVGID_7_)" d="M104.09,3.53c0.3,0.47,0.33,0.93,0.1,1.4c-0.27,0.47-0.73,0.82-1.4,1.05
					c-0.73,0.17-1.45,0.17-2.15,0c-0.7-0.2-1.22-0.55-1.55-1.05c-0.3-0.47-0.33-0.92-0.1-1.35c0.27-0.5,0.73-0.83,1.4-1
					c0.7-0.23,1.42-0.25,2.15-0.05C103.24,2.73,103.75,3.06,104.09,3.53z"/>
			</g>
			<g>
				
					<radialGradient id="SVGID_8_" cx="152.1787" cy="1247.6572" r="1.9325" gradientTransform="matrix(-0.5886 0.8085 1.6428 0.3299 -1858.5397 -448.3256)" gradientUnits="userSpaceOnUse">
					<stop  offset="0" style="stop-color:#FFFFFF"/>
					<stop  offset="0.1765" style="stop-color:#FFFFFF"/>
					<stop  offset="0.3059" style="stop-color:#FFFFFF;stop-opacity:0.4235"/>
					<stop  offset="0.4902" style="stop-color:#FFFFFF;stop-opacity:0.2314"/>
					<stop  offset="0.651" style="stop-color:#FFFFFF;stop-opacity:0.0824"/>
					<stop  offset="1" style="stop-color:#FFFFFF;stop-opacity:0"/>
				</radialGradient>
				<path fill="url(#SVGID_8_)" d="M104.69,86.94c-0.3,0.4-0.87,0.7-1.7,0.9c-0.87,0.17-1.73,0.17-2.6,0
					c-0.83-0.13-1.43-0.43-1.8-0.9c-0.37-0.43-0.42-0.83-0.15-1.2c0.3-0.4,0.87-0.7,1.7-0.9c0.83-0.17,1.68-0.2,2.55-0.1
					c0.87,0.2,1.5,0.5,1.9,0.9C104.92,86.06,104.95,86.51,104.69,86.94z"/>
			</g>
		</g>
		<g>
			<g>
				<path fill="#010101" fill-opacity="0.251" d="M143.29,46.88c-0.13,0.3-0.3,0.6-0.5,0.9c-0.53,0.73-1.17,1.1-1.9,1.1H62.14
					c-0.9,0-1.62-0.37-2.15-1.1l-0.5-0.9H4.59h-0.5l-0.1-0.1l-2.5-1.3l1.1-1.25l1.5-0.85h55.1c0.33-0.77,0.9-1.33,1.7-1.7
					c0.7-0.33,1.53-0.43,2.5-0.3h76.5c2.53,0.2,3.93,0.97,4.2,2.3c0.07-0.03,0.12-0.07,0.15-0.1h54.6l1.7,1.05l1,0.85l-2.6,1.3
					l-0.1,0.1h-0.5h-36.65H143.29z"/>
			</g>
			<g>
				<g>
					<g>
						
							<linearGradient id="SVGID_9_" gradientUnits="userSpaceOnUse" x1="166.3008" y1="1118.0674" x2="168.4267" y2="1118.0674" gradientTransform="matrix(4.705882e-004 1 1 1.000001e-003 -1016.6343 -123.3851)">
							<stop  offset="0" style="stop-color:#82837C"/>
							<stop  offset="0.1176" style="stop-color:#FFFFFF"/>
							<stop  offset="0.4588" style="stop-color:#9E9E99"/>
							<stop  offset="0.6431" style="stop-color:#DAD9D8"/>
							<stop  offset="1" style="stop-color:#FFFFFF"/>
						</linearGradient>
						<path fill="url(#SVGID_9_)" d="M4.59,46.13h-0.5l-0.1-0.05l-2.5-0.95l1.1-0.4l1.5-0.6h138.1h19.5h37.15l1.6,0.6l1.1,0.4
							l-2.6,0.95l-0.1,0.05h-0.5l1.8-0.6h-38.15c0.4,0.03-0.1,0.03-1.5,0c-0.43-0.03-0.85-0.03-1.25,0c-2.43-0.03-4.88-0.03-7.35,0
							c-2.4-0.03-4.82-0.03-7.25,0c-0.4-0.03-0.8-0.03-1.2,0H2.84L4.59,46.13z"/>
						
							<linearGradient id="SVGID_10_" gradientUnits="userSpaceOnUse" x1="-934.9712" y1="160.7373" x2="-934.1934" y2="160.7373" gradientTransform="matrix(1.290322e-003 -1 -1 9.808750e-004 263.429 -888.8729)">
							<stop  offset="0" style="stop-color:#A5A59E"/>
							<stop  offset="0.251" style="stop-color:#BEBFBA"/>
							<stop  offset="0.3451" style="stop-color:#EDEEEC"/>
							<stop  offset="1" style="stop-color:#FFFFFF"/>
						</linearGradient>
						<path fill="url(#SVGID_10_)" d="M198.34,46.13h-36.65h-19.5H4.59l-1.75-0.6h140.6c0.4-0.03,0.8-0.03,1.2,0
							c2.43-0.03,4.85-0.03,7.25,0c2.47-0.03,4.92-0.03,7.35,0c0.4-0.03,0.82-0.03,1.25,0c1.4,0.03,1.9,0.03,1.5,0h38.15
							L198.34,46.13z"/>
					</g>
				</g>
				<g>
					
						<linearGradient id="SVGID_11_" gradientUnits="userSpaceOnUse" x1="95.7261" y1="92.1943" x2="95.7261" y2="86.793" gradientTransform="matrix(1 0 0 -1 5.8101 134.3789)">
						<stop  offset="0" style="stop-color:#FFFFFF"/>
						<stop  offset="0.149" style="stop-color:#FFFFFF"/>
						<stop  offset="0.2039" style="stop-color:#A09F9A"/>
						<stop  offset="0.7804" style="stop-color:#A09F9A"/>
						<stop  offset="0.8549" style="stop-color:#F7F8F8"/>
						<stop  offset="1" style="stop-color:#F9F9FA"/>
					</linearGradient>
					<path fill="url(#SVGID_11_)" d="M143.59,44.88c0,0.73-0.27,1.37-0.8,1.9c-0.53,0.53-1.17,0.8-1.9,0.8H62.14
						c-0.7,0-1.32-0.27-1.85-0.8c-0.53-0.54-0.8-1.17-0.8-1.9s0.27-1.37,0.8-1.9c0.53-0.53,1.15-0.8,1.85-0.8h78.75
						c0.73,0,1.37,0.27,1.9,0.8C143.32,43.51,143.59,44.14,143.59,44.88z"/>
				</g>
			</g>
		</g>
	</g>
</g>
<g id="Layer_2" display="none">
	<rect display="inline" fill="#4D76B2" width="101.52" height="90.75"/>
	<rect x="101.48" display="inline" fill="#28547F" width="101.52" height="90.75"/>
</g>
<g id="Layer_4" display="none">
	<rect x="0" y="-0.04" display="inline" fill="#4D76B2" width="203" height="45.4"/>
	<rect x="0" y="45.35" display="inline" fill="#28547F" width="203" height="45.4"/>
</g>
<g id="Layer_3">
</g>
</svg>
