<?xml version="1.0" encoding="utf-8"?>
<!-- Generator: Adobe Illustrator 16.0.0, SVG Export Plug-In . SVG Version: 6.00 Build 0)  -->
<!DOCTYPE svg PUBLIC "-//W3C//DTD SVG 1.1//EN" "http://www.w3.org/Graphics/SVG/1.1/DTD/svg11.dtd">
<svg version="1.1" id="Layer_1" xmlns="http://www.w3.org/2000/svg" xmlns:xlink="http://www.w3.org/1999/xlink" x="0px" y="0px"
	 width="14px" height="65.33px" viewBox="0 0 14 65.33" enable-background="new 0 0 14 65.33" xml:space="preserve">
<g>
	
		<path fill-rule="evenodd" clip-rule="evenodd" fill="none" stroke="#FFFFFF" stroke-width="1.5" stroke-linecap="round" stroke-linejoin="round" stroke-miterlimit="3" d="
		M5.08,58.8c0-0.03,0.05-0.05,0.15-0.05c0.07-0.07,0.17-0.15,0.3-0.25c0.03-0.03,0.1-0.07,0.2-0.1c-0.2,0-0.42,0.02-0.65,0.05V58.8z
		 M5.23,58.75c-0.1,0.1-0.15,0.17-0.15,0.2V59H5.03l0.05-0.05V58.8c-0.23,0.13-0.43,0.22-0.6,0.25 M5.63,57.35
		c-0.2-0.27-0.38-0.5-0.55-0.7v1.8 M5.73,58.4c0.63-0.57,1.43-1.23,2.4-2c0.97-0.77,1.78-0.93,2.45-0.5
		c0.63,0.47,1.15,0.37,1.55-0.3 M2.43,54.45c-0.03,1.13,0.07,1.7,0.3,1.7c0.13,0,0.25-0.05,0.35-0.15c0.1-0.17,0.23-0.25,0.4-0.25
		c0.57,0,1.1,0.3,1.6,0.9L5.23,1.8 M8.18,60.05c-0.67-1.07-1.48-1.62-2.45-1.65 M6.28,63.05c-0.8,0.73-2.07,0.32-3.8-1.25
		c-0.13-0.7-0.2-1.37-0.2-2c0-0.23,0.03-0.43,0.1-0.6c0.07-0.2,0.1-0.33,0.1-0.4c0.63,0.07,1.5-0.05,2.6-0.35"/>
</g>
</svg>
