<?xml version="1.0" encoding="utf-8"?>
<!-- Generator: Adobe Illustrator 16.0.0, SVG Export Plug-In . SVG Version: 6.00 Build 0)  -->
<!DOCTYPE svg PUBLIC "-//W3C//DTD SVG 1.1//EN" "http://www.w3.org/Graphics/SVG/1.1/DTD/svg11.dtd">
<svg version="1.1" id="Layer_1" xmlns="http://www.w3.org/2000/svg" xmlns:xlink="http://www.w3.org/1999/xlink" x="0px" y="0px"
	 width="18.08px" height="16.08px" viewBox="0 0 18.08 16.08" enable-background="new 0 0 18.08 16.08" xml:space="preserve">
<g>
	<g>
		<path fill-rule="evenodd" clip-rule="evenodd" fill="#E5E5E5" d="M15.56,4.24c1.33,1.33,2,2.9,2,4.7s-0.67,3.33-2,4.6
			c-1.27,1.33-2.8,2-4.6,2s-3.36-0.67-4.7-2c-1.26-1.27-1.9-2.8-1.9-4.6S5,5.57,6.27,4.24c1.33-1.26,2.9-1.9,4.7-1.9
			S14.29,2.97,15.56,4.24z"/>
	</g>
	<g>
		<path fill-rule="evenodd" clip-rule="evenodd" fill="#010101" d="M13.76,7.03c0,1.8-0.67,3.33-2,4.59c-1.26,1.33-2.8,2-4.59,2
			s-3.36-0.67-4.7-2c-1.26-1.26-1.9-2.8-1.9-4.59c0-1.8,0.63-3.36,1.9-4.7c1.33-1.26,2.9-1.9,4.7-1.9s3.33,0.63,4.59,1.9
			C13.1,3.67,13.76,5.24,13.76,7.03z"/>
	</g>
	<g>
		<path fill-rule="evenodd" clip-rule="evenodd" fill="#43B649" d="M13.76,3.44c1.33,1.33,2,2.9,2,4.7s-0.67,3.33-2,4.59
			c-1.27,1.33-2.8,2-4.59,2s-3.36-0.67-4.7-2c-1.26-1.27-1.9-2.8-1.9-4.59s0.63-3.36,1.9-4.7c1.33-1.26,2.9-1.9,4.7-1.9
			S12.5,2.17,13.76,3.44z"/>
		<path fill-rule="evenodd" clip-rule="evenodd" fill="#43B649" d="M13.76,3.44c1.33,1.33,2,2.9,2,4.7s-0.67,3.33-2,4.59
			c-1.27,1.33-2.8,2-4.59,2s-3.36-0.67-4.7-2c-1.26-1.27-1.9-2.8-1.9-4.59s0.63-3.36,1.9-4.7c1.33-1.26,2.9-1.9,4.7-1.9
			S12.5,2.17,13.76,3.44z"/>
	</g>
	<g>
		<path fill-rule="evenodd" clip-rule="evenodd" fill="#FFFFFF" d="M10.56,4.94c0,0.6-0.27,1.1-0.8,1.5c-0.46,0.4-1.07,0.6-1.8,0.6
			s-1.36-0.2-1.9-0.6c-0.47-0.4-0.7-0.9-0.7-1.5s0.23-1.1,0.7-1.5c0.53-0.4,1.17-0.6,1.9-0.6s1.33,0.2,1.8,0.6
			C10.3,3.84,10.56,4.34,10.56,4.94z M13.66,5.44c0.2,0.2,0.3,0.43,0.3,0.7s-0.1,0.47-0.3,0.6c-0.13,0.2-0.33,0.3-0.6,0.3
			c-0.27,0-0.5-0.1-0.7-0.3c-0.13-0.13-0.2-0.33-0.2-0.6s0.07-0.5,0.2-0.7c0.2-0.13,0.43-0.2,0.7-0.2
			C13.33,5.24,13.53,5.3,13.66,5.44z"/>
	</g>
</g>
</svg>
