<?xml version="1.0" encoding="utf-8"?>
<!-- Generator: Adobe Illustrator 16.0.0, SVG Export Plug-In . SVG Version: 6.00 Build 0)  -->
<!DOCTYPE svg PUBLIC "-//W3C//DTD SVG 1.1//EN" "http://www.w3.org/Graphics/SVG/1.1/DTD/svg11.dtd">
<svg version="1.1" id="Layer_1" xmlns="http://www.w3.org/2000/svg" xmlns:xlink="http://www.w3.org/1999/xlink" x="0px" y="0px"
	 width="225.33px" height="158.67px" viewBox="0 0 225.33 158.67" enable-background="new 0 0 225.33 158.67" xml:space="preserve">
<g>
	<g>
		<linearGradient id="SVGID_1_" gradientUnits="userSpaceOnUse" x1="118.1665" y1="127.2485" x2="118.2694" y2="147.2485">
			<stop  offset="0" style="stop-color:#000000"/>
			<stop  offset="1" style="stop-color:#000000;stop-opacity:0"/>
		</linearGradient>
		<path fill-rule="evenodd" clip-rule="evenodd" fill="url(#SVGID_1_)" d="M214.08,161.28H31.03c-15.6-15.57-23.77-27.4-24.5-35.5
			h193.55l26.1,31.85C233.87,161.45,229.83,162.67,214.08,161.28z"/>
	</g>
	<g>
		<path fill-rule="evenodd" clip-rule="evenodd" fill="#595E62" d="M213.33,70.53l-0.75-45.25c-0.07-1.73-0.25-3.3-0.55-4.7
			c-0.33-1.57-0.87-3.12-1.6-4.65c-2.67-5.27-7.83-7.9-15.5-7.9h-54.35c0-0.07,0-0.13,0-0.2v-0.2c0-0.3-0.03-0.6-0.1-0.9l55.1-0.1
			c7.8,0,13.03,2.63,15.7,7.9l0.45,0.85c0.57,1.33,0.97,2.6,1.2,3.8c0.37,1.8,0.55,3.8,0.55,6L213.33,70.53z M4.73,39.53V26.58
			c0.13-4.2,0.5-7.28,1.1-9.25c2.3-7.13,8.22-10.7,17.75-10.7h53.5c0.93,0.5,0.9,0.87-0.1,1.1v0.1c0,0.07,0,0.13,0,0.2H24.03
			c-8.83,0-14.48,3.1-16.95,9.3c-1,2.4-1.53,5.12-1.6,8.15L4.73,39.53z"/>
		<path fill-rule="evenodd" clip-rule="evenodd" fill="#595E62" d="M213.33,70.53l-0.75-45.25c-0.07-1.73-0.25-3.3-0.55-4.7
			c-0.33-1.57-0.87-3.12-1.6-4.65c-2.67-5.27-7.83-7.9-15.5-7.9h-54.35c0-0.07,0-0.13,0-0.2v-0.2c0-0.3-0.03-0.6-0.1-0.9l55.1-0.1
			c7.8,0,13.03,2.63,15.7,7.9l0.45,0.85c0.57,1.33,0.97,2.6,1.2,3.8c0.37,1.8,0.55,3.8,0.55,6L213.33,70.53z M4.73,39.53V26.58
			c0.13-4.2,0.5-7.28,1.1-9.25c2.3-7.13,8.22-10.7,17.75-10.7h53.5c0.93,0.5,0.9,0.87-0.1,1.1v0.1c0,0.07,0,0.13,0,0.2H24.03
			c-8.83,0-14.48,3.1-16.95,9.3c-1,2.4-1.53,5.12-1.6,8.15L4.73,39.53z"/>
		<linearGradient id="SVGID_2_" gradientUnits="userSpaceOnUse" x1="109.1226" y1="145.4829" x2="109.1226" y2="2.4829">
			<stop  offset="0" style="stop-color:#080A09"/>
			<stop  offset="1" style="stop-color:#949BA1"/>
		</linearGradient>
		<path fill-rule="evenodd" clip-rule="evenodd" fill="url(#SVGID_2_)" d="M4.73,39.53l0.75-14.05c0.07-3.03,0.6-5.75,1.6-8.15
			c2.47-6.2,8.12-9.3,16.95-9.3h52.95h63.6h54.35c7.67,0,12.83,2.63,15.5,7.9c0.73,1.53,1.27,3.08,1.6,4.65
			c0.3,1.4,0.48,2.97,0.55,4.7l0.75,45.25l0.15,45.15c0.5,14.17-3.65,22.15-12.45,23.95H19.58c-10.2-0.87-15.15-7.8-14.85-20.8
			V39.53z M13.38,112.33v2.95c0,2,0.18,3.77,0.55,5.3c0.5,2.47,1.43,4.48,2.8,6.05c2.7,3.27,7.03,4.9,13,4.9h160.1
			c5.3-0.07,9.23-1.7,11.8-4.9c2.03-2.67,3.08-6.45,3.15-11.35v-3.25v-23.5c1.8-0.73,1.8-0.8,0-0.2v-59.9
			c-0.07-9.33-3.92-14.65-11.55-15.95l-0.55-0.1l-162.95-0.2c-10.9,0-16.35,5.42-16.35,16.25V112.33z M14.58,139.63h-0.2
			c-0.07-0.17-0.13-0.3-0.2-0.4C14.28,139.33,14.42,139.47,14.58,139.63z"/>
		<linearGradient id="SVGID_3_" gradientUnits="userSpaceOnUse" x1="109.1226" y1="145.4829" x2="109.1226" y2="2.4829">
			<stop  offset="0" style="stop-color:#080A09"/>
			<stop  offset="1" style="stop-color:#949BA1"/>
		</linearGradient>
		<path fill-rule="evenodd" clip-rule="evenodd" fill="url(#SVGID_3_)" d="M4.73,39.53l0.75-14.05c0.07-3.03,0.6-5.75,1.6-8.15
			c2.47-6.2,8.12-9.3,16.95-9.3h52.95h63.6h54.35c7.67,0,12.83,2.63,15.5,7.9c0.73,1.53,1.27,3.08,1.6,4.65
			c0.3,1.4,0.48,2.97,0.55,4.7l0.75,45.25l0.15,45.15c0.5,14.17-3.65,22.15-12.45,23.95H19.58c-10.2-0.87-15.15-7.8-14.85-20.8
			V39.53z M13.38,112.33v2.95c0,2,0.18,3.77,0.55,5.3c0.5,2.47,1.43,4.48,2.8,6.05c2.7,3.27,7.03,4.9,13,4.9h160.1
			c5.3-0.07,9.23-1.7,11.8-4.9c2.03-2.67,3.08-6.45,3.15-11.35v-3.25v-23.5c1.8-0.73,1.8-0.8,0-0.2v-59.9
			c-0.07-9.33-3.92-14.65-11.55-15.95l-0.55-0.1l-162.95-0.2c-10.9,0-16.35,5.42-16.35,16.25V112.33z M14.58,139.63h-0.2
			c-0.07-0.17-0.13-0.3-0.2-0.4C14.28,139.33,14.42,139.47,14.58,139.63z"/>
		<linearGradient id="SVGID_4_" gradientUnits="userSpaceOnUse" x1="109.7588" y1="114.5571" x2="109.7588" y2="17.6071">
			<stop  offset="0" style="stop-color:#54595D"/>
			<stop  offset="1" style="stop-color:#0B0B09"/>
		</linearGradient>
		<path fill-rule="evenodd" clip-rule="evenodd" fill="url(#SVGID_4_)" d="M204.78,112.03c-0.13,4.63-1.18,8.25-3.15,10.85
			c-2.57,3.23-6.5,4.88-11.8,4.95H29.73c-5.97,0-10.3-1.65-13-4.95c-1.37-1.53-2.3-3.53-2.8-6c-0.3-1.37-0.48-2.88-0.55-4.55v-83.9
			c0-10.83,5.45-16.25,16.35-16.25l162.95,0.2l0.55,0.1c7.63,1.3,11.48,6.62,11.55,15.95v59.9c1.8-0.6,1.8-0.53,0,0.2V112.03z
			 M192.98,35.03v-1.3c0.6-7.6-3.92-11.22-13.55-10.85H36.03c-8.37,0.2-12.52,3.38-12.45,9.55v3.25v0.2c0,0.07,0,0.17,0,0.3v46.4
			c0.07,0.63,0.2,1.35,0.4,2.15c1.23,4.2,5.32,6.33,12.25,6.4h92.1c23.03,0.2,40.87,0.3,53.5,0.3c6.93,0.17,10.65-2.53,11.15-8.1
			c0.07-0.8,0.07-1.7,0-2.7V37.48C193.05,36.62,193.05,35.8,192.98,35.03z"/>
		<linearGradient id="SVGID_5_" gradientUnits="userSpaceOnUse" x1="109.7588" y1="114.5571" x2="109.7588" y2="17.6071">
			<stop  offset="0" style="stop-color:#54595D"/>
			<stop  offset="1" style="stop-color:#0B0B09"/>
		</linearGradient>
		<path fill-rule="evenodd" clip-rule="evenodd" fill="url(#SVGID_5_)" d="M204.78,112.03c-0.13,4.63-1.18,8.25-3.15,10.85
			c-2.57,3.23-6.5,4.88-11.8,4.95H29.73c-5.97,0-10.3-1.65-13-4.95c-1.37-1.53-2.3-3.53-2.8-6c-0.3-1.37-0.48-2.88-0.55-4.55v-83.9
			c0-10.83,5.45-16.25,16.35-16.25l162.95,0.2l0.55,0.1c7.63,1.3,11.48,6.62,11.55,15.95v59.9c1.8-0.6,1.8-0.53,0,0.2V112.03z
			 M192.98,35.03v-1.3c0.6-7.6-3.92-11.22-13.55-10.85H36.03c-8.37,0.2-12.52,3.38-12.45,9.55v3.25v0.2c0,0.07,0,0.17,0,0.3v46.4
			c0.07,0.63,0.2,1.35,0.4,2.15c1.23,4.2,5.32,6.33,12.25,6.4h92.1c23.03,0.2,40.87,0.3,53.5,0.3c6.93,0.17,10.65-2.53,11.15-8.1
			c0.07-0.8,0.07-1.7,0-2.7V37.48C193.05,36.62,193.05,35.8,192.98,35.03z"/>
		<linearGradient id="SVGID_6_" gradientUnits="userSpaceOnUse" x1="31.1597" y1="25.9766" x2="186.9264" y2="92.2186">
			<stop  offset="0" style="stop-color:#E7E9E2"/>
			<stop  offset="1" style="stop-color:#66AA8E"/>
		</linearGradient>
		<path fill-rule="evenodd" clip-rule="evenodd" fill="url(#SVGID_6_)" d="M23.58,35.68c0.2-5.87,4.35-8.9,12.45-9.1h143.4
			c8.53-0.37,13.05,2.45,13.55,8.45c0.07,0.77,0.07,1.58,0,2.45v43.15c0.07,1,0.07,1.9,0,2.7c-0.5,5.57-4.22,8.27-11.15,8.1
			c-12.63,0-30.47-0.1-53.5-0.3h-92.1c-6.93-0.07-11.02-2.2-12.25-6.4c-0.2-0.8-0.33-1.52-0.4-2.15v-46.4c0-0.13,0-0.23,0-0.3V35.68
			z"/>
		<linearGradient id="SVGID_7_" gradientUnits="userSpaceOnUse" x1="31.1597" y1="25.9766" x2="186.9264" y2="92.2186">
			<stop  offset="0" style="stop-color:#E7E9E2"/>
			<stop  offset="1" style="stop-color:#66AA8E"/>
		</linearGradient>
		<path fill-rule="evenodd" clip-rule="evenodd" fill="url(#SVGID_7_)" d="M23.58,35.68c0.2-5.87,4.35-8.9,12.45-9.1h143.4
			c8.53-0.37,13.05,2.45,13.55,8.45c0.07,0.77,0.07,1.58,0,2.45v43.15c0.07,1,0.07,1.9,0,2.7c-0.5,5.57-4.22,8.27-11.15,8.1
			c-12.63,0-30.47-0.1-53.5-0.3h-92.1c-6.93-0.07-11.02-2.2-12.25-6.4c-0.2-0.8-0.33-1.52-0.4-2.15v-46.4c0-0.13,0-0.23,0-0.3V35.68
			z"/>
		<path fill-rule="evenodd" clip-rule="evenodd" fill="#343738" d="M23.58,35.68v-3.25c-0.07-6.17,4.08-9.35,12.45-9.55h143.4
			c9.63-0.37,14.15,3.25,13.55,10.85v1.3c-0.5-6-5.02-8.82-13.55-8.45H36.03C27.93,26.78,23.78,29.82,23.58,35.68z"/>
		<path fill-rule="evenodd" clip-rule="evenodd" fill="#343738" d="M23.58,35.68v-3.25c-0.07-6.17,4.08-9.35,12.45-9.55h143.4
			c9.63-0.37,14.15,3.25,13.55,10.85v1.3c-0.5-6-5.02-8.82-13.55-8.45H36.03C27.93,26.78,23.78,29.82,23.58,35.68z"/>
		<linearGradient id="SVGID_8_" gradientUnits="userSpaceOnUse" x1="13.3833" y1="121.7827" x2="204.7837" y2="121.7827">
			<stop  offset="0" style="stop-color:#797E83"/>
			<stop  offset="1" style="stop-color:#484C4E"/>
		</linearGradient>
		<path fill-rule="evenodd" clip-rule="evenodd" fill="url(#SVGID_8_)" d="M204.78,112.03v3.25c-0.07,4.9-1.12,8.68-3.15,11.35
			c-2.57,3.2-6.5,4.83-11.8,4.9H29.73c-5.97,0-10.3-1.63-13-4.9c-1.37-1.57-2.3-3.58-2.8-6.05c-0.37-1.53-0.55-3.3-0.55-5.3v-2.95
			c0.07,1.67,0.25,3.18,0.55,4.55c0.5,2.47,1.43,4.47,2.8,6c2.7,3.3,7.03,4.95,13,4.95h160.1c5.3-0.07,9.23-1.72,11.8-4.95
			C203.6,120.28,204.65,116.67,204.78,112.03z"/>
		<linearGradient id="SVGID_9_" gradientUnits="userSpaceOnUse" x1="13.3833" y1="121.7827" x2="204.7837" y2="121.7827">
			<stop  offset="0" style="stop-color:#797E83"/>
			<stop  offset="1" style="stop-color:#484C4E"/>
		</linearGradient>
		<path fill-rule="evenodd" clip-rule="evenodd" fill="url(#SVGID_9_)" d="M204.78,112.03v3.25c-0.07,4.9-1.12,8.68-3.15,11.35
			c-2.57,3.2-6.5,4.83-11.8,4.9H29.73c-5.97,0-10.3-1.63-13-4.9c-1.37-1.57-2.3-3.58-2.8-6.05c-0.37-1.53-0.55-3.3-0.55-5.3v-2.95
			c0.07,1.67,0.25,3.18,0.55,4.55c0.5,2.47,1.43,4.47,2.8,6c2.7,3.3,7.03,4.95,13,4.95h160.1c5.3-0.07,9.23-1.72,11.8-4.95
			C203.6,120.28,204.65,116.67,204.78,112.03z"/>
		<linearGradient id="SVGID_10_" gradientUnits="userSpaceOnUse" x1="108.7832" y1="0.4326" x2="108.7832" y2="10.8326">
			<stop  offset="0" style="stop-color:#080A09"/>
			<stop  offset="1" style="stop-color:#949BA1"/>
		</linearGradient>
		<path fill-rule="evenodd" clip-rule="evenodd" fill="url(#SVGID_10_)" d="M140.58,8.03h-63.6c0-0.07,0-0.13,0-0.2v-0.1
			c1-0.23,1.03-0.6,0.1-1.1c0.13-0.5,0.28-0.97,0.45-1.4c0.07-0.17,0.17-0.32,0.3-0.45c0.17-0.3,0.38-0.58,0.65-0.85
			c1.03-1,2.3-1.5,3.8-1.5h53c1.5,0,2.75,0.5,3.75,1.5c0.23,0.27,0.48,0.55,0.75,0.85c0.03,0.13,0.12,0.28,0.25,0.45
			c0.2,0.43,0.35,0.9,0.45,1.4v0.1c0.07,0.3,0.1,0.6,0.1,0.9v0.2C140.58,7.9,140.58,7.97,140.58,8.03z"/>
		<linearGradient id="SVGID_11_" gradientUnits="userSpaceOnUse" x1="108.7832" y1="0.4326" x2="108.7832" y2="10.8326">
			<stop  offset="0" style="stop-color:#080A09"/>
			<stop  offset="1" style="stop-color:#949BA1"/>
		</linearGradient>
		<path fill-rule="evenodd" clip-rule="evenodd" fill="url(#SVGID_11_)" d="M140.58,8.03h-63.6c0-0.07,0-0.13,0-0.2v-0.1
			c1-0.23,1.03-0.6,0.1-1.1c0.13-0.5,0.28-0.97,0.45-1.4c0.07-0.17,0.17-0.32,0.3-0.45c0.17-0.3,0.38-0.58,0.65-0.85
			c1.03-1,2.3-1.5,3.8-1.5h53c1.5,0,2.75,0.5,3.75,1.5c0.23,0.27,0.48,0.55,0.75,0.85c0.03,0.13,0.12,0.28,0.25,0.45
			c0.2,0.43,0.35,0.9,0.45,1.4v0.1c0.07,0.3,0.1,0.6,0.1,0.9v0.2C140.58,7.9,140.58,7.97,140.58,8.03z"/>
	</g>
	<g>
		<path fill-rule="evenodd" clip-rule="evenodd" d="M137.28,79.63h-4.15v-4.9h4.15V79.63z M137.28,65.28h-4.15v-4.9h4.15V65.28z
			 M80.58,79.63h-4.15v-4.9h4.15V79.63z M80.58,65.28h-4.15v-4.9h4.15V65.28z"/>
	</g>
</g>
</svg>
