<?xml version="1.0" encoding="utf-8"?>
<!-- Generator: Adobe Illustrator 16.0.0, SVG Export Plug-In . SVG Version: 6.00 Build 0)  -->
<!DOCTYPE svg PUBLIC "-//W3C//DTD SVG 1.1//EN" "http://www.w3.org/Graphics/SVG/1.1/DTD/svg11.dtd">
<svg version="1.1" xmlns="http://www.w3.org/2000/svg" xmlns:xlink="http://www.w3.org/1999/xlink" x="0px" y="0px" width="500px"
	 height="392px" viewBox="0 0 500 392" enable-background="new 0 0 500 392" xml:space="preserve">
<g id="Layer_1">
	<g>
		<g>
			<g>
				<path fill="#FFFFFF" d="M123.8,35.25c0.27,0,0.5,0.1,0.7,0.3c0.2,0.2,0.3,0.43,0.3,0.7s-0.1,0.5-0.3,0.7
					c-0.2,0.2-0.43,0.3-0.7,0.3c-0.27,0-0.5-0.1-0.7-0.3c-0.2-0.2-0.3-0.43-0.3-0.7s0.1-0.5,0.3-0.7
					C123.3,35.35,123.53,35.25,123.8,35.25z M121.3,41.05c0-0.27,0.1-0.5,0.3-0.7c0.2-0.2,0.43-0.3,0.7-0.3c0.27,0,0.5,0.1,0.7,0.3
					c0.2,0.2,0.3,0.43,0.3,0.7c0,0.27-0.1,0.5-0.3,0.7s-0.43,0.3-0.7,0.3c-0.27,0-0.5-0.1-0.7-0.3S121.3,41.32,121.3,41.05z
					 M127.5,25.95c0.2,0.2,0.3,0.43,0.3,0.7s-0.1,0.5-0.3,0.7c-0.2,0.2-0.43,0.3-0.7,0.3c-0.27,0-0.5-0.1-0.7-0.3
					c-0.2-0.2-0.3-0.43-0.3-0.7s0.1-0.5,0.3-0.7c0.2-0.2,0.43-0.3,0.7-0.3C127.07,25.65,127.3,25.75,127.5,25.95z M126,30.75
					c0.2,0.2,0.3,0.43,0.3,0.7c0,0.27-0.1,0.5-0.3,0.7c-0.2,0.2-0.43,0.3-0.7,0.3c-0.27,0-0.5-0.1-0.7-0.3
					c-0.2-0.2-0.3-0.43-0.3-0.7c0-0.27,0.1-0.5,0.3-0.7s0.43-0.3,0.7-0.3C125.57,30.45,125.8,30.55,126,30.75z M121.5,45.15
					c0.2,0.2,0.3,0.43,0.3,0.7s-0.1,0.5-0.3,0.7c-0.2,0.2-0.43,0.3-0.7,0.3c-0.27,0-0.5-0.1-0.7-0.3c-0.2-0.2-0.3-0.43-0.3-0.7
					s0.1-0.5,0.3-0.7c0.2-0.2,0.43-0.3,0.7-0.3C121.07,44.85,121.3,44.95,121.5,45.15z M118.3,50.65c0-0.27,0.1-0.5,0.3-0.7
					c0.2-0.2,0.43-0.3,0.7-0.3c0.27,0,0.5,0.1,0.7,0.3c0.2,0.2,0.3,0.43,0.3,0.7s-0.1,0.5-0.3,0.7c-0.2,0.2-0.43,0.3-0.7,0.3
					c-0.27,0-0.5-0.1-0.7-0.3C118.4,51.15,118.3,50.92,118.3,50.65z M118.5,54.75c0.2,0.2,0.3,0.43,0.3,0.7c0,0.27-0.1,0.5-0.3,0.7
					c-0.2,0.2-0.43,0.3-0.7,0.3c-0.27,0-0.5-0.1-0.7-0.3c-0.2-0.2-0.3-0.43-0.3-0.7c0-0.27,0.1-0.5,0.3-0.7s0.43-0.3,0.7-0.3
					C118.07,54.45,118.3,54.55,118.5,54.75z M116.3,59.25c0.27,0,0.5,0.1,0.7,0.3c0.2,0.2,0.3,0.43,0.3,0.7s-0.1,0.5-0.3,0.7
					c-0.2,0.2-0.43,0.3-0.7,0.3c-0.27,0-0.5-0.1-0.7-0.3c-0.2-0.2-0.3-0.43-0.3-0.7s0.1-0.5,0.3-0.7
					C115.8,59.35,116.03,59.25,116.3,59.25z M115.5,64.35c0.2,0.2,0.3,0.43,0.3,0.7c0,0.27-0.1,0.5-0.3,0.7s-0.43,0.3-0.7,0.3
					c-0.27,0-0.5-0.1-0.7-0.3s-0.3-0.43-0.3-0.7c0-0.27,0.1-0.5,0.3-0.7c0.2-0.2,0.43-0.3,0.7-0.3
					C115.07,64.05,115.3,64.15,115.5,64.35z M111.8,73.65c0.27,0,0.5,0.1,0.7,0.3c0.2,0.2,0.3,0.43,0.3,0.7s-0.1,0.5-0.3,0.7
					c-0.2,0.2-0.43,0.3-0.7,0.3c-0.27,0-0.5-0.1-0.7-0.3c-0.2-0.2-0.3-0.43-0.3-0.7s0.1-0.5,0.3-0.7
					C111.3,73.75,111.53,73.65,111.8,73.65z M114,69.15c0.2,0.2,0.3,0.43,0.3,0.7s-0.1,0.5-0.3,0.7c-0.2,0.2-0.43,0.3-0.7,0.3
					c-0.27,0-0.5-0.1-0.7-0.3c-0.2-0.2-0.3-0.43-0.3-0.7s0.1-0.5,0.3-0.7c0.2-0.2,0.43-0.3,0.7-0.3
					C113.57,68.85,113.8,68.95,114,69.15z M109.3,79.45c0-0.27,0.1-0.5,0.3-0.7s0.43-0.3,0.7-0.3c0.27,0,0.5,0.1,0.7,0.3
					s0.3,0.43,0.3,0.7c0,0.27-0.1,0.5-0.3,0.7c-0.2,0.2-0.43,0.3-0.7,0.3c-0.27,0-0.5-0.1-0.7-0.3
					C109.4,79.95,109.3,79.72,109.3,79.45z M109.5,84.95c-0.2,0.2-0.43,0.3-0.7,0.3c-0.27,0-0.5-0.1-0.7-0.3
					c-0.2-0.2-0.3-0.43-0.3-0.7s0.1-0.5,0.3-0.7c0.2-0.2,0.43-0.3,0.7-0.3c0.27,0,0.5,0.1,0.7,0.3c0.2,0.2,0.3,0.43,0.3,0.7
					S109.7,84.75,109.5,84.95z M108,88.35c0.2,0.2,0.3,0.43,0.3,0.7c0,0.27-0.1,0.5-0.3,0.7s-0.43,0.3-0.7,0.3
					c-0.27,0-0.5-0.1-0.7-0.3s-0.3-0.43-0.3-0.7c0-0.27,0.1-0.5,0.3-0.7c0.2-0.2,0.43-0.3,0.7-0.3
					C107.57,88.05,107.8,88.15,108,88.35z M105.3,98.65c0,0.27-0.1,0.5-0.3,0.7c-0.2,0.2-0.43,0.3-0.7,0.3c-0.27,0-0.5-0.1-0.7-0.3
					c-0.2-0.2-0.3-0.43-0.3-0.7s0.1-0.5,0.3-0.7c0.2-0.2,0.43-0.3,0.7-0.3c0.27,0,0.5,0.1,0.7,0.3
					C105.2,98.15,105.3,98.38,105.3,98.65z M105.8,94.85c-0.27,0-0.5-0.1-0.7-0.3c-0.2-0.2-0.3-0.43-0.3-0.7s0.1-0.5,0.3-0.7
					c0.2-0.2,0.43-0.3,0.7-0.3c0.27,0,0.5,0.1,0.7,0.3c0.2,0.2,0.3,0.43,0.3,0.7s-0.1,0.5-0.3,0.7
					C106.3,94.75,106.07,94.85,105.8,94.85z M103.5,102.75c0.2,0.2,0.3,0.43,0.3,0.7c0,0.27-0.1,0.5-0.3,0.7
					c-0.2,0.2-0.43,0.3-0.7,0.3c-0.27,0-0.5-0.1-0.7-0.3c-0.2-0.2-0.3-0.43-0.3-0.7c0-0.27,0.1-0.5,0.3-0.7s0.43-0.3,0.7-0.3
					C103.07,102.45,103.3,102.55,103.5,102.75z M101.9,107.55c0.2,0.2,0.3,0.43,0.3,0.7s-0.1,0.5-0.3,0.7c-0.2,0.2-0.43,0.3-0.7,0.3
					c-0.27,0-0.5-0.1-0.7-0.3c-0.2-0.2-0.3-0.43-0.3-0.7s0.1-0.5,0.3-0.7c0.2-0.2,0.43-0.3,0.7-0.3
					C101.47,107.25,101.7,107.35,101.9,107.55z M98.8,117.15c0.2,0.2,0.3,0.43,0.3,0.7s-0.1,0.5-0.3,0.7c-0.2,0.2-0.43,0.3-0.7,0.3
					c-0.27,0-0.5-0.1-0.7-0.3c-0.2-0.2-0.3-0.43-0.3-0.7s0.1-0.5,0.3-0.7c0.2-0.2,0.43-0.3,0.7-0.3
					C98.37,116.85,98.6,116.95,98.8,117.15z M100.3,112.35c0.2,0.2,0.3,0.43,0.3,0.7c0,0.27-0.1,0.5-0.3,0.7s-0.43,0.3-0.7,0.3
					c-0.27,0-0.5-0.1-0.7-0.3c-0.2-0.2-0.3-0.43-0.3-0.7c0-0.27,0.1-0.5,0.3-0.7c0.2-0.2,0.43-0.3,0.7-0.3
					C99.87,112.05,100.1,112.15,100.3,112.35z M95.8,121.95c0.2-0.2,0.43-0.3,0.7-0.3c0.27,0,0.5,0.1,0.7,0.3
					c0.2,0.2,0.3,0.43,0.3,0.7s-0.1,0.5-0.3,0.7c-0.2,0.2-0.43,0.3-0.7,0.3c-0.27,0-0.5-0.1-0.7-0.3c-0.2-0.2-0.3-0.43-0.3-0.7
					S95.6,122.15,95.8,121.95z M95.6,126.75c0.2,0.2,0.3,0.43,0.3,0.7c0,0.27-0.1,0.5-0.3,0.7c-0.2,0.2-0.43,0.3-0.7,0.3
					c-0.27,0-0.5-0.1-0.7-0.3c-0.2-0.2-0.3-0.43-0.3-0.7c0-0.27,0.1-0.5,0.3-0.7c0.2-0.2,0.43-0.3,0.7-0.3
					C95.17,126.45,95.4,126.55,95.6,126.75z M93.4,131.25c0.27,0,0.5,0.1,0.7,0.3c0.2,0.2,0.3,0.43,0.3,0.7s-0.1,0.5-0.3,0.7
					c-0.2,0.2-0.43,0.3-0.7,0.3c-0.27,0-0.5-0.1-0.7-0.3c-0.2-0.2-0.3-0.43-0.3-0.7s0.1-0.5,0.3-0.7
					C92.9,131.35,93.13,131.25,93.4,131.25z M92.5,136.35c0.2,0.2,0.3,0.43,0.3,0.7c0,0.27-0.1,0.5-0.3,0.7s-0.43,0.3-0.7,0.3
					c-0.27,0-0.5-0.1-0.7-0.3s-0.3-0.43-0.3-0.7c0-0.27,0.1-0.5,0.3-0.7c0.2-0.2,0.43-0.3,0.7-0.3
					C92.07,136.05,92.3,136.15,92.5,136.35z M89.5,141.15c0.2-0.2,0.43-0.3,0.7-0.3c0.27,0,0.5,0.1,0.7,0.3
					c0.2,0.2,0.3,0.43,0.3,0.7s-0.1,0.5-0.3,0.7c-0.2,0.2-0.43,0.3-0.7,0.3c-0.27,0-0.5-0.1-0.7-0.3c-0.2-0.2-0.3-0.43-0.3-0.7
					S89.3,141.35,89.5,141.15z M89.4,147.35c-0.2,0.2-0.43,0.3-0.7,0.3c-0.27,0-0.5-0.1-0.7-0.3c-0.2-0.2-0.3-0.43-0.3-0.7
					s0.1-0.5,0.3-0.7c0.2-0.2,0.43-0.3,0.7-0.3c0.27,0,0.5,0.1,0.7,0.3c0.2,0.2,0.3,0.43,0.3,0.7S89.6,147.15,89.4,147.35z
					 M87.8,150.75c0.2,0.2,0.3,0.43,0.3,0.7c0,0.27-0.1,0.5-0.3,0.7c-0.2,0.2-0.43,0.3-0.7,0.3c-0.27,0-0.5-0.1-0.7-0.3
					c-0.2-0.2-0.3-0.43-0.3-0.7c0-0.27,0.1-0.5,0.3-0.7c0.2-0.2,0.43-0.3,0.7-0.3C87.37,150.45,87.6,150.55,87.8,150.75z
					 M86.2,155.55c0.2,0.2,0.3,0.43,0.3,0.7s-0.1,0.5-0.3,0.7c-0.2,0.2-0.43,0.3-0.7,0.3c-0.27,0-0.5-0.1-0.7-0.3
					c-0.2-0.2-0.3-0.43-0.3-0.7s0.1-0.5,0.3-0.7c0.2-0.2,0.43-0.3,0.7-0.3C85.77,155.25,86,155.35,86.2,155.55z M84.7,160.35
					c0.2,0.2,0.3,0.43,0.3,0.7c0,0.27-0.1,0.5-0.3,0.7c-0.2,0.2-0.43,0.3-0.7,0.3c-0.27,0-0.5-0.1-0.7-0.3s-0.3-0.43-0.3-0.7
					c0-0.27,0.1-0.5,0.3-0.7c0.2-0.2,0.43-0.3,0.7-0.3C84.27,160.05,84.5,160.15,84.7,160.35z M81.7,165.15
					c0.2-0.2,0.43-0.3,0.7-0.3c0.27,0,0.5,0.1,0.7,0.3c0.2,0.2,0.3,0.43,0.3,0.7s-0.1,0.5-0.3,0.7c-0.2,0.2-0.43,0.3-0.7,0.3
					c-0.27,0-0.5-0.1-0.7-0.3c-0.2-0.2-0.3-0.43-0.3-0.7S81.5,165.35,81.7,165.15z M81.6,169.95c0.2,0.2,0.3,0.43,0.3,0.7
					s-0.1,0.5-0.3,0.7c-0.2,0.2-0.43,0.3-0.7,0.3c-0.27,0-0.5-0.1-0.7-0.3c-0.2-0.2-0.3-0.43-0.3-0.7s0.1-0.5,0.3-0.7
					c0.2-0.2,0.43-0.3,0.7-0.3C81.17,169.65,81.4,169.75,81.6,169.95z M78.3,175.45c0-0.27,0.1-0.5,0.3-0.7s0.43-0.3,0.7-0.3
					c0.27,0,0.5,0.1,0.7,0.3s0.3,0.43,0.3,0.7c0,0.27-0.1,0.5-0.3,0.7c-0.2,0.2-0.43,0.3-0.7,0.3c-0.27,0-0.5-0.1-0.7-0.3
					C78.4,175.95,78.3,175.72,78.3,175.45z M78.4,179.55c0.2,0.2,0.3,0.43,0.3,0.7s-0.1,0.5-0.3,0.7c-0.2,0.2-0.43,0.3-0.7,0.3
					c-0.27,0-0.5-0.1-0.7-0.3c-0.2-0.2-0.3-0.43-0.3-0.7s0.1-0.5,0.3-0.7c0.2-0.2,0.43-0.3,0.7-0.3
					C77.97,179.25,78.2,179.35,78.4,179.55z M75.5,184.35c0.2-0.2,0.43-0.3,0.7-0.3c0.27,0,0.5,0.1,0.7,0.3
					c0.2,0.2,0.3,0.43,0.3,0.7c0,0.27-0.1,0.5-0.3,0.7c-0.2,0.2-0.43,0.3-0.7,0.3c-0.27,0-0.5-0.1-0.7-0.3s-0.3-0.43-0.3-0.7
					C75.2,184.78,75.3,184.55,75.5,184.35z M75.3,189.15c0.2,0.2,0.3,0.43,0.3,0.7s-0.1,0.5-0.3,0.7c-0.2,0.2-0.43,0.3-0.7,0.3
					c-0.27,0-0.5-0.1-0.7-0.3c-0.2-0.2-0.3-0.43-0.3-0.7s0.1-0.5,0.3-0.7c0.2-0.2,0.43-0.3,0.7-0.3
					C74.87,188.85,75.1,188.95,75.3,189.15z M73.7,195.35c-0.2,0.2-0.43,0.3-0.7,0.3c-0.27,0-0.5-0.1-0.7-0.3
					c-0.2-0.2-0.3-0.43-0.3-0.7s0.1-0.5,0.3-0.7c0.2-0.2,0.43-0.3,0.7-0.3c0.27,0,0.5,0.1,0.7,0.3c0.2,0.2,0.3,0.43,0.3,0.7
					S73.9,195.15,73.7,195.35z M72.5,199.45c0,0.27-0.1,0.5-0.3,0.7c-0.2,0.2-0.43,0.3-0.7,0.3c-0.27,0-0.5-0.1-0.7-0.3
					c-0.2-0.2-0.3-0.43-0.3-0.7c0-0.27,0.1-0.5,0.3-0.7s0.43-0.3,0.7-0.3c0.27,0,0.5,0.1,0.7,0.3
					C72.4,198.95,72.5,199.18,72.5,199.45z M70.6,203.55c0.2,0.2,0.3,0.43,0.3,0.7s-0.1,0.5-0.3,0.7s-0.43,0.3-0.7,0.3
					c-0.27,0-0.5-0.1-0.7-0.3c-0.2-0.2-0.3-0.43-0.3-0.7s0.1-0.5,0.3-0.7c0.2-0.2,0.43-0.3,0.7-0.3
					C70.17,203.25,70.4,203.35,70.6,203.55z M69,209.75c-0.2,0.2-0.43,0.3-0.7,0.3c-0.27,0-0.5-0.1-0.7-0.3s-0.3-0.43-0.3-0.7
					c0-0.27,0.1-0.5,0.3-0.7c0.2-0.2,0.43-0.3,0.7-0.3c0.27,0,0.5,0.1,0.7,0.3c0.2,0.2,0.3,0.43,0.3,0.7
					C69.3,209.32,69.2,209.55,69,209.75z M67.5,213.15c0.2,0.2,0.3,0.43,0.3,0.7c0,0.27-0.1,0.5-0.3,0.7s-0.43,0.3-0.7,0.3
					c-0.27,0-0.5-0.1-0.7-0.3s-0.3-0.43-0.3-0.7c0-0.27,0.1-0.5,0.3-0.7c0.2-0.2,0.43-0.3,0.7-0.3
					C67.07,212.85,67.3,212.95,67.5,213.15z M62.6,223.45c0-0.27,0.1-0.5,0.3-0.7c0.2-0.2,0.43-0.3,0.7-0.3c0.27,0,0.5,0.1,0.7,0.3
					s0.3,0.43,0.3,0.7c0,0.27-0.1,0.5-0.3,0.7c-0.2,0.2-0.43,0.3-0.7,0.3c-0.27,0-0.5-0.1-0.7-0.3
					C62.7,223.95,62.6,223.72,62.6,223.45z M62.8,227.55c0.2,0.2,0.3,0.43,0.3,0.7s-0.1,0.5-0.3,0.7s-0.43,0.3-0.7,0.3
					c-0.27,0-0.5-0.1-0.7-0.3c-0.2-0.2-0.3-0.43-0.3-0.7s0.1-0.5,0.3-0.7c0.2-0.2,0.43-0.3,0.7-0.3
					C62.37,227.25,62.6,227.35,62.8,227.55z M61.2,232.35c0.2,0.2,0.3,0.43,0.3,0.7c0,0.27-0.1,0.5-0.3,0.7
					c-0.2,0.2-0.43,0.3-0.7,0.3c-0.27,0-0.5-0.1-0.7-0.3s-0.3-0.43-0.3-0.7c0-0.27,0.1-0.5,0.3-0.7c0.2-0.2,0.43-0.3,0.7-0.3
					C60.77,232.05,61,232.15,61.2,232.35z M57.9,237.85c0-0.27,0.1-0.5,0.3-0.7c0.2-0.2,0.43-0.3,0.7-0.3c0.27,0,0.5,0.1,0.7,0.3
					c0.2,0.2,0.3,0.43,0.3,0.7c0,0.27-0.1,0.5-0.3,0.7s-0.43,0.3-0.7,0.3c-0.27,0-0.5-0.1-0.7-0.3
					C58,238.35,57.9,238.12,57.9,237.85z M65.9,217.95c0.2,0.2,0.3,0.43,0.3,0.7c0,0.27-0.1,0.5-0.3,0.7c-0.2,0.2-0.43,0.3-0.7,0.3
					c-0.27,0-0.5-0.1-0.7-0.3c-0.2-0.2-0.3-0.43-0.3-0.7c0-0.27,0.1-0.5,0.3-0.7s0.43-0.3,0.7-0.3
					C65.47,217.65,65.7,217.75,65.9,217.95z M58.1,241.95c0.2,0.2,0.3,0.43,0.3,0.7c0,0.27-0.1,0.5-0.3,0.7
					c-0.2,0.2-0.43,0.3-0.7,0.3c-0.27,0-0.5-0.1-0.7-0.3c-0.2-0.2-0.3-0.43-0.3-0.7c0-0.27,0.1-0.5,0.3-0.7
					c0.2-0.2,0.43-0.3,0.7-0.3C57.67,241.65,57.9,241.75,58.1,241.95z M55.8,246.45c0.27,0,0.5,0.1,0.7,0.3s0.3,0.43,0.3,0.7
					c0,0.27-0.1,0.5-0.3,0.7c-0.2,0.2-0.43,0.3-0.7,0.3c-0.27,0-0.5-0.1-0.7-0.3c-0.2-0.2-0.3-0.43-0.3-0.7c0-0.27,0.1-0.5,0.3-0.7
					S55.53,246.45,55.8,246.45z M55,251.55c0.2,0.2,0.3,0.43,0.3,0.7s-0.1,0.5-0.3,0.7s-0.43,0.3-0.7,0.3c-0.27,0-0.5-0.1-0.7-0.3
					s-0.3-0.43-0.3-0.7s0.1-0.5,0.3-0.7s0.43-0.3,0.7-0.3C54.57,251.25,54.8,251.35,55,251.55z M52.7,256.05c0.27,0,0.5,0.1,0.7,0.3
					c0.2,0.2,0.3,0.43,0.3,0.7s-0.1,0.5-0.3,0.7c-0.2,0.2-0.43,0.3-0.7,0.3c-0.27,0-0.5-0.1-0.7-0.3s-0.3-0.43-0.3-0.7
					s0.1-0.5,0.3-0.7C52.2,256.15,52.43,256.05,52.7,256.05z M52.1,261.85c0,0.27-0.1,0.5-0.3,0.7s-0.43,0.3-0.7,0.3
					c-0.27,0-0.5-0.1-0.7-0.3c-0.2-0.2-0.3-0.43-0.3-0.7c0-0.27,0.1-0.5,0.3-0.7c0.2-0.2,0.43-0.3,0.7-0.3c0.27,0,0.5,0.1,0.7,0.3
					C52,261.35,52.1,261.58,52.1,261.85z M49.6,265.65c0.27,0,0.5,0.1,0.7,0.3s0.3,0.43,0.3,0.7c0,0.27-0.1,0.5-0.3,0.7
					c-0.2,0.2-0.43,0.3-0.7,0.3c-0.27,0-0.5-0.1-0.7-0.3c-0.2-0.2-0.3-0.43-0.3-0.7c0-0.27,0.1-0.5,0.3-0.7
					C49.1,265.75,49.33,265.65,49.6,265.65z M48.7,272.15c-0.2,0.2-0.43,0.3-0.7,0.3c-0.27,0-0.5-0.1-0.7-0.3
					c-0.2-0.2-0.3-0.43-0.3-0.7c0-0.27,0.1-0.5,0.3-0.7s0.43-0.3,0.7-0.3c0.27,0,0.5,0.1,0.7,0.3c0.2,0.2,0.3,0.43,0.3,0.7
					C49,271.72,48.9,271.95,48.7,272.15z M47.1,275.55c0.2,0.2,0.3,0.43,0.3,0.7s-0.1,0.5-0.3,0.7s-0.43,0.3-0.7,0.3
					c-0.27,0-0.5-0.1-0.7-0.3c-0.2-0.2-0.3-0.43-0.3-0.7s0.1-0.5,0.3-0.7c0.2-0.2,0.43-0.3,0.7-0.3
					C46.67,275.25,46.9,275.35,47.1,275.55z M45.6,280.35c0.2,0.2,0.3,0.43,0.3,0.7c0,0.27-0.1,0.5-0.3,0.7s-0.43,0.3-0.7,0.3
					c-0.27,0-0.5-0.1-0.7-0.3c-0.2-0.2-0.3-0.43-0.3-0.7c0-0.27,0.1-0.5,0.3-0.7c0.2-0.2,0.43-0.3,0.7-0.3
					C45.17,280.05,45.4,280.15,45.6,280.35z M43.3,286.85c-0.27,0-0.5-0.1-0.7-0.3s-0.3-0.43-0.3-0.7c0-0.27,0.1-0.5,0.3-0.7
					c0.2-0.2,0.43-0.3,0.7-0.3c0.27,0,0.5,0.1,0.7,0.3c0.2,0.2,0.3,0.43,0.3,0.7c0,0.27-0.1,0.5-0.3,0.7S43.57,286.85,43.3,286.85z
					 M42.4,289.95c0.2,0.2,0.3,0.43,0.3,0.7c0,0.27-0.1,0.5-0.3,0.7c-0.2,0.2-0.43,0.3-0.7,0.3c-0.27,0-0.5-0.1-0.7-0.3
					c-0.2-0.2-0.3-0.43-0.3-0.7c0-0.27,0.1-0.5,0.3-0.7s0.43-0.3,0.7-0.3C41.97,289.65,42.2,289.75,42.4,289.95z M40.2,294.45
					c0.27,0,0.5,0.1,0.7,0.3c0.2,0.2,0.3,0.43,0.3,0.7s-0.1,0.5-0.3,0.7c-0.2,0.2-0.43,0.3-0.7,0.3c-0.27,0-0.5-0.1-0.7-0.3
					c-0.2-0.2-0.3-0.43-0.3-0.7s0.1-0.5,0.3-0.7S39.93,294.45,40.2,294.45z M37.6,300.25c0-0.27,0.1-0.5,0.3-0.7
					c0.2-0.2,0.43-0.3,0.7-0.3c0.27,0,0.5,0.1,0.7,0.3s0.3,0.43,0.3,0.7s-0.1,0.5-0.3,0.7s-0.43,0.3-0.7,0.3
					c-0.27,0-0.5-0.1-0.7-0.3C37.7,300.75,37.6,300.52,37.6,300.25z M37.7,304.35c0.2,0.2,0.3,0.43,0.3,0.7c0,0.27-0.1,0.5-0.3,0.7
					c-0.2,0.2-0.43,0.3-0.7,0.3c-0.27,0-0.5-0.1-0.7-0.3s-0.3-0.43-0.3-0.7c0-0.27,0.1-0.5,0.3-0.7c0.2-0.2,0.43-0.3,0.7-0.3
					C37.27,304.05,37.5,304.15,37.7,304.35z M35.5,308.85c0.27,0,0.5,0.1,0.7,0.3c0.2,0.2,0.3,0.43,0.3,0.7c0,0.27-0.1,0.5-0.3,0.7
					c-0.2,0.2-0.43,0.3-0.7,0.3c-0.27,0-0.5-0.1-0.7-0.3s-0.3-0.43-0.3-0.7c0-0.27,0.1-0.5,0.3-0.7
					C35,308.95,35.23,308.85,35.5,308.85z M34.9,314.65c0,0.27-0.1,0.5-0.3,0.7c-0.2,0.2-0.43,0.3-0.7,0.3c-0.27,0-0.5-0.1-0.7-0.3
					c-0.2-0.2-0.3-0.43-0.3-0.7c0-0.27,0.1-0.5,0.3-0.7c0.2-0.2,0.43-0.3,0.7-0.3c0.27,0,0.5,0.1,0.7,0.3S34.9,314.38,34.9,314.65z
					 M33,318.75c0.2,0.2,0.3,0.43,0.3,0.7s-0.1,0.5-0.3,0.7c-0.2,0.2-0.43,0.3-0.7,0.3c-0.27,0-0.5-0.1-0.7-0.3
					c-0.2-0.2-0.3-0.43-0.3-0.7s0.1-0.5,0.3-0.7s0.43-0.3,0.7-0.3C32.57,318.45,32.8,318.55,33,318.75z M30.8,325.25
					c-0.27,0-0.5-0.1-0.7-0.3s-0.3-0.43-0.3-0.7s0.1-0.5,0.3-0.7s0.43-0.3,0.7-0.3c0.27,0,0.5,0.1,0.7,0.3s0.3,0.43,0.3,0.7
					s-0.1,0.5-0.3,0.7S31.07,325.25,30.8,325.25z M28.6,333.85c0,0.27-0.1,0.5-0.3,0.7s-0.43,0.3-0.7,0.3c-0.27,0-0.5-0.1-0.7-0.3
					c-0.2-0.2-0.3-0.43-0.3-0.7c0-0.27,0.1-0.5,0.3-0.7c0.2-0.2,0.43-0.3,0.7-0.3c0.27,0,0.5,0.1,0.7,0.3
					C28.5,333.35,28.6,333.58,28.6,333.85z M29.2,330.05c-0.27,0-0.5-0.1-0.7-0.3s-0.3-0.43-0.3-0.7s0.1-0.5,0.3-0.7
					c0.2-0.2,0.43-0.3,0.7-0.3c0.27,0,0.5,0.1,0.7,0.3c0.2,0.2,0.3,0.43,0.3,0.7s-0.1,0.5-0.3,0.7
					C29.7,329.95,29.47,330.05,29.2,330.05z M25.1,338.65c0-0.27,0.1-0.5,0.3-0.7c0.2-0.2,0.43-0.3,0.7-0.3c0.27,0,0.5,0.1,0.7,0.3
					s0.3,0.43,0.3,0.7c0,0.27-0.1,0.5-0.3,0.7c-0.2,0.2-0.43,0.3-0.7,0.3c-0.27,0-0.5-0.1-0.7-0.3
					C25.2,339.15,25.1,338.92,25.1,338.65z M158.35,342.95c0.2,0.2,0.3,0.43,0.3,0.7c0,0.27-0.1,0.5-0.3,0.7
					c-0.2,0.2-0.43,0.3-0.7,0.3c-0.27,0-0.5-0.1-0.7-0.3c-0.2-0.2-0.3-0.43-0.3-0.7c0-0.27,0.1-0.5,0.3-0.7
					c0.2-0.2,0.43-0.3,0.7-0.3C157.92,342.65,158.15,342.75,158.35,342.95z M153.55,344.45c0.2,0.2,0.3,0.43,0.3,0.7
					c0,0.27-0.1,0.5-0.3,0.7c-0.2,0.2-0.43,0.3-0.7,0.3c-0.27,0-0.5-0.1-0.7-0.3c-0.2-0.2-0.3-0.43-0.3-0.7c0-0.27,0.1-0.5,0.3-0.7
					c0.2-0.2,0.43-0.3,0.7-0.3C153.12,344.15,153.35,344.25,153.55,344.45z M148.75,345.95c0.2,0.2,0.3,0.43,0.3,0.7
					c0,0.27-0.1,0.5-0.3,0.7c-0.2,0.2-0.43,0.3-0.7,0.3c-0.27,0-0.5-0.1-0.7-0.3c-0.2-0.2-0.3-0.43-0.3-0.7c0-0.27,0.1-0.5,0.3-0.7
					s0.43-0.3,0.7-0.3C148.32,345.65,148.55,345.75,148.75,345.95z M139.15,348.95c0.2,0.2,0.3,0.43,0.3,0.7c0,0.27-0.1,0.5-0.3,0.7
					c-0.2,0.2-0.43,0.3-0.7,0.3c-0.27,0-0.5-0.1-0.7-0.3c-0.2-0.2-0.3-0.43-0.3-0.7c0-0.27,0.1-0.5,0.3-0.7s0.43-0.3,0.7-0.3
					C138.72,348.65,138.95,348.75,139.15,348.95z M134.35,351.85c-0.2,0.2-0.43,0.3-0.7,0.3c-0.27,0-0.5-0.1-0.7-0.3
					c-0.2-0.2-0.3-0.43-0.3-0.7c0-0.27,0.1-0.5,0.3-0.7c0.2-0.2,0.43-0.3,0.7-0.3c0.27,0,0.5,0.1,0.7,0.3s0.3,0.43,0.3,0.7
					C134.65,351.42,134.55,351.65,134.35,351.85z M143.95,347.45c0.2,0.2,0.3,0.43,0.3,0.7c0,0.27-0.1,0.5-0.3,0.7
					c-0.2,0.2-0.43,0.3-0.7,0.3c-0.27,0-0.5-0.1-0.7-0.3c-0.2-0.2-0.3-0.43-0.3-0.7c0-0.27,0.1-0.5,0.3-0.7s0.43-0.3,0.7-0.3
					C143.52,347.15,143.75,347.25,143.95,347.45z M129.55,351.95c0.2,0.2,0.3,0.43,0.3,0.7c0,0.27-0.1,0.5-0.3,0.7
					c-0.2,0.2-0.43,0.3-0.7,0.3c-0.27,0-0.5-0.1-0.7-0.3c-0.2-0.2-0.3-0.43-0.3-0.7c0-0.27,0.1-0.5,0.3-0.7
					c0.2-0.2,0.43-0.3,0.7-0.3C129.12,351.65,129.35,351.75,129.55,351.95z M124.75,354.85c-0.2,0.2-0.43,0.3-0.7,0.3
					c-0.27,0-0.5-0.1-0.7-0.3c-0.2-0.2-0.3-0.43-0.3-0.7c0-0.27,0.1-0.5,0.3-0.7s0.43-0.3,0.7-0.3c0.27,0,0.5,0.1,0.7,0.3
					s0.3,0.43,0.3,0.7C125.05,354.42,124.95,354.65,124.75,354.85z M113.45,357.15c0-0.27,0.1-0.5,0.3-0.7s0.43-0.3,0.7-0.3
					c0.27,0,0.5,0.1,0.7,0.3c0.2,0.2,0.3,0.43,0.3,0.7c0,0.27-0.1,0.5-0.3,0.7c-0.2,0.2-0.43,0.3-0.7,0.3c-0.27,0-0.5-0.1-0.7-0.3
					C113.55,357.65,113.45,357.42,113.45,357.15z M110.35,357.95c0.2,0.2,0.3,0.43,0.3,0.7c0,0.27-0.1,0.5-0.3,0.7
					c-0.2,0.2-0.43,0.3-0.7,0.3c-0.27,0-0.5-0.1-0.7-0.3c-0.2-0.2-0.3-0.43-0.3-0.7c0-0.27,0.1-0.5,0.3-0.7
					c0.2-0.2,0.43-0.3,0.7-0.3C109.92,357.65,110.15,357.75,110.35,357.95z M105.85,360.15c0,0.27-0.1,0.5-0.3,0.7
					c-0.2,0.2-0.43,0.3-0.7,0.3c-0.27,0-0.5-0.1-0.7-0.3c-0.2-0.2-0.3-0.43-0.3-0.7c0-0.27,0.1-0.5,0.3-0.7
					c0.2-0.2,0.43-0.3,0.7-0.3c0.27,0,0.5,0.1,0.7,0.3S105.85,359.88,105.85,360.15z M120.25,355.65c0,0.27-0.1,0.5-0.3,0.7
					c-0.2,0.2-0.43,0.3-0.7,0.3c-0.27,0-0.5-0.1-0.7-0.3c-0.2-0.2-0.3-0.43-0.3-0.7c0-0.27,0.1-0.5,0.3-0.7s0.43-0.3,0.7-0.3
					c0.27,0,0.5,0.1,0.7,0.3C120.15,355.15,120.25,355.38,120.25,355.65z M85.65,365.05c0.27,0,0.5,0.1,0.7,0.3
					c0.2,0.2,0.3,0.43,0.3,0.7s-0.1,0.5-0.3,0.7s-0.43,0.3-0.7,0.3c-0.27,0-0.5-0.1-0.7-0.3c-0.2-0.2-0.3-0.43-0.3-0.7
					s0.1-0.5,0.3-0.7C85.15,365.15,85.38,365.05,85.65,365.05z M89.75,363.95c0.2-0.2,0.43-0.3,0.7-0.3c0.27,0,0.5,0.1,0.7,0.3
					c0.2,0.2,0.3,0.43,0.3,0.7c0,0.27-0.1,0.5-0.3,0.7c-0.2,0.2-0.43,0.3-0.7,0.3c-0.27,0-0.5-0.1-0.7-0.3
					c-0.2-0.2-0.3-0.43-0.3-0.7C89.45,364.38,89.55,364.15,89.75,363.95z M94.55,362.45c0.2-0.2,0.43-0.3,0.7-0.3
					c0.27,0,0.5,0.1,0.7,0.3c0.2,0.2,0.3,0.43,0.3,0.7c0,0.27-0.1,0.5-0.3,0.7c-0.2,0.2-0.43,0.3-0.7,0.3c-0.27,0-0.5-0.1-0.7-0.3
					c-0.2-0.2-0.3-0.43-0.3-0.7C94.25,362.88,94.35,362.65,94.55,362.45z M100.75,360.95c0.2,0.2,0.3,0.43,0.3,0.7
					c0,0.27-0.1,0.5-0.3,0.7c-0.2,0.2-0.43,0.3-0.7,0.3c-0.27,0-0.5-0.1-0.7-0.3c-0.2-0.2-0.3-0.43-0.3-0.7c0-0.27,0.1-0.5,0.3-0.7
					s0.43-0.3,0.7-0.3C100.32,360.65,100.55,360.75,100.75,360.95z M56.15,374.15c0.2-0.2,0.43-0.3,0.7-0.3c0.27,0,0.5,0.1,0.7,0.3
					c0.2,0.2,0.3,0.43,0.3,0.7c0,0.27-0.1,0.5-0.3,0.7s-0.43,0.3-0.7,0.3c-0.27,0-0.5-0.1-0.7-0.3c-0.2-0.2-0.3-0.43-0.3-0.7
					C55.85,374.58,55.95,374.35,56.15,374.15z M62.35,372.65c0.2,0.2,0.3,0.43,0.3,0.7c0,0.27-0.1,0.5-0.3,0.7s-0.43,0.3-0.7,0.3
					c-0.27,0-0.5-0.1-0.7-0.3c-0.2-0.2-0.3-0.43-0.3-0.7c0-0.27,0.1-0.5,0.3-0.7c0.2-0.2,0.43-0.3,0.7-0.3
					C61.92,372.35,62.15,372.45,62.35,372.65z M46.55,377.05c0.2-0.2,0.43-0.3,0.7-0.3c0.27,0,0.5,0.1,0.7,0.3
					c0.2,0.2,0.3,0.43,0.3,0.7s-0.1,0.5-0.3,0.7c-0.2,0.2-0.43,0.3-0.7,0.3c-0.27,0-0.5-0.1-0.7-0.3s-0.3-0.43-0.3-0.7
					S46.35,377.25,46.55,377.05z M51.35,375.55c0.2-0.2,0.43-0.3,0.7-0.3c0.27,0,0.5,0.1,0.7,0.3s0.3,0.43,0.3,0.7s-0.1,0.5-0.3,0.7
					s-0.43,0.3-0.7,0.3c-0.27,0-0.5-0.1-0.7-0.3s-0.3-0.43-0.3-0.7S51.15,375.75,51.35,375.55z M80.15,366.85
					c0.2-0.2,0.43-0.3,0.7-0.3c0.27,0,0.5,0.1,0.7,0.3c0.2,0.2,0.3,0.43,0.3,0.7s-0.1,0.5-0.3,0.7s-0.43,0.3-0.7,0.3
					c-0.27,0-0.5-0.1-0.7-0.3c-0.2-0.2-0.3-0.43-0.3-0.7S79.95,367.05,80.15,366.85z M76.75,368.35c0.2,0.2,0.3,0.43,0.3,0.7
					s-0.1,0.5-0.3,0.7s-0.43,0.3-0.7,0.3c-0.27,0-0.5-0.1-0.7-0.3s-0.3-0.43-0.3-0.7s0.1-0.5,0.3-0.7c0.2-0.2,0.43-0.3,0.7-0.3
					C76.32,368.05,76.55,368.15,76.75,368.35z M71.95,369.75c0.2,0.2,0.3,0.43,0.3,0.7s-0.1,0.5-0.3,0.7c-0.2,0.2-0.43,0.3-0.7,0.3
					c-0.27,0-0.5-0.1-0.7-0.3c-0.2-0.2-0.3-0.43-0.3-0.7s0.1-0.5,0.3-0.7s0.43-0.3,0.7-0.3C71.52,369.45,71.75,369.55,71.95,369.75z
					 M67.15,371.25c0.2,0.2,0.3,0.43,0.3,0.7s-0.1,0.5-0.3,0.7c-0.2,0.2-0.43,0.3-0.7,0.3c-0.27,0-0.5-0.1-0.7-0.3
					c-0.2-0.2-0.3-0.43-0.3-0.7s0.1-0.5,0.3-0.7s0.43-0.3,0.7-0.3C66.72,370.95,66.95,371.05,67.15,371.25z M23.8,342.75
					c0.2-0.2,0.43-0.3,0.7-0.3c0.27,0,0.5,0.1,0.7,0.3c0.2,0.2,0.3,0.43,0.3,0.7s-0.1,0.5-0.3,0.7c-0.2,0.2-0.43,0.3-0.7,0.3
					c-0.27,0-0.5-0.1-0.7-0.3c-0.2-0.2-0.3-0.43-0.3-0.7S23.6,342.95,23.8,342.75z M23.6,348.95c-0.2,0.2-0.43,0.3-0.7,0.3
					c-0.27,0-0.5-0.1-0.7-0.3c-0.2-0.2-0.3-0.43-0.3-0.7s0.1-0.5,0.3-0.7c0.2-0.2,0.43-0.3,0.7-0.3c0.27,0,0.5,0.1,0.7,0.3
					s0.3,0.43,0.3,0.7S23.8,348.75,23.6,348.95z M22.1,352.35c0.2,0.2,0.3,0.43,0.3,0.7s-0.1,0.5-0.3,0.7s-0.43,0.3-0.7,0.3
					c-0.27,0-0.5-0.1-0.7-0.3c-0.2-0.2-0.3-0.43-0.3-0.7s0.1-0.5,0.3-0.7c0.2-0.2,0.43-0.3,0.7-0.3
					C21.67,352.05,21.9,352.15,22.1,352.35z M19.8,356.75c0.27,0,0.5,0.1,0.7,0.3s0.3,0.43,0.3,0.7s-0.1,0.5-0.3,0.7
					s-0.43,0.3-0.7,0.3c-0.27,0-0.5-0.1-0.7-0.3s-0.3-0.43-0.3-0.7s0.1-0.5,0.3-0.7S19.53,356.75,19.8,356.75z M17.3,362.55
					c0-0.27,0.1-0.5,0.3-0.7c0.2-0.2,0.43-0.3,0.7-0.3c0.27,0,0.5,0.1,0.7,0.3c0.2,0.2,0.3,0.43,0.3,0.7s-0.1,0.5-0.3,0.7
					s-0.43,0.3-0.7,0.3c-0.27,0-0.5-0.1-0.7-0.3S17.3,362.82,17.3,362.55z M16,366.65c0.2-0.2,0.43-0.3,0.7-0.3
					c0.27,0,0.5,0.1,0.7,0.3c0.2,0.2,0.3,0.43,0.3,0.7c0,0.27-0.1,0.5-0.3,0.7c-0.2,0.2-0.43,0.3-0.7,0.3c-0.27,0-0.5-0.1-0.7-0.3
					s-0.3-0.43-0.3-0.7C15.7,367.08,15.8,366.85,16,366.65z M15.2,371.05c0.27,0,0.5,0.1,0.7,0.3c0.2,0.2,0.3,0.43,0.3,0.7
					s-0.1,0.5-0.3,0.7c-0.2,0.2-0.43,0.3-0.7,0.3c-0.27,0-0.5-0.1-0.7-0.3s-0.3-0.43-0.3-0.7s0.1-0.5,0.3-0.7
					C14.7,371.15,14.93,371.05,15.2,371.05z M14.6,376.75c0,0.27-0.1,0.5-0.3,0.7s-0.43,0.3-0.7,0.3c-0.27,0-0.5-0.1-0.7-0.3
					c-0.2-0.2-0.3-0.43-0.3-0.7s0.1-0.5,0.3-0.7c0.2-0.2,0.43-0.3,0.7-0.3c0.27,0,0.5,0.1,0.7,0.3S14.6,376.48,14.6,376.75z
					 M12.8,380.85c0.2,0.2,0.3,0.43,0.3,0.7s-0.1,0.5-0.3,0.7s-0.43,0.3-0.7,0.3c-0.27,0-0.5-0.1-0.7-0.3c-0.2-0.2-0.3-0.43-0.3-0.7
					s0.1-0.5,0.3-0.7c0.2-0.2,0.43-0.3,0.7-0.3C12.37,380.55,12.6,380.65,12.8,380.85z M11.5,386.35c0,0.27-0.1,0.5-0.3,0.7
					c-0.2,0.2-0.43,0.3-0.7,0.3c-0.27,0-0.5-0.1-0.7-0.3s-0.3-0.43-0.3-0.7c0-0.27,0.1-0.5,0.3-0.7c0.2-0.2,0.43-0.3,0.7-0.3
					c0.27,0,0.5,0.1,0.7,0.3C11.4,385.85,11.5,386.08,11.5,386.35z M8.9,388.45c0.2-0.2,0.43-0.3,0.7-0.3c0.27,0,0.5,0.1,0.7,0.3
					s0.3,0.43,0.3,0.7c0,0.27-0.1,0.5-0.3,0.7c-0.2,0.2-0.43,0.3-0.7,0.3c-0.27,0-0.5-0.1-0.7-0.3c-0.2-0.2-0.3-0.43-0.3-0.7
					C8.6,388.88,8.7,388.65,8.9,388.45z M14.65,387.95c0,0.27-0.1,0.5-0.3,0.7c-0.2,0.2-0.43,0.3-0.7,0.3c-0.27,0-0.5-0.1-0.7-0.3
					c-0.2-0.2-0.3-0.43-0.3-0.7s0.1-0.5,0.3-0.7c0.2-0.2,0.43-0.3,0.7-0.3c0.27,0,0.5,0.1,0.7,0.3S14.65,387.68,14.65,387.95z
					 M17.75,385.75c0.2-0.2,0.43-0.3,0.7-0.3c0.27,0,0.5,0.1,0.7,0.3c0.2,0.2,0.3,0.43,0.3,0.7s-0.1,0.5-0.3,0.7
					c-0.2,0.2-0.43,0.3-0.7,0.3c-0.27,0-0.5-0.1-0.7-0.3c-0.2-0.2-0.3-0.43-0.3-0.7S17.55,385.95,17.75,385.75z M22.25,385.05
					c0-0.27,0.1-0.5,0.3-0.7c0.2-0.2,0.43-0.3,0.7-0.3c0.27,0,0.5,0.1,0.7,0.3c0.2,0.2,0.3,0.43,0.3,0.7s-0.1,0.5-0.3,0.7
					c-0.2,0.2-0.43,0.3-0.7,0.3c-0.27,0-0.5-0.1-0.7-0.3S22.25,385.32,22.25,385.05z M28.75,382.85c0.2,0.2,0.3,0.43,0.3,0.7
					s-0.1,0.5-0.3,0.7s-0.43,0.3-0.7,0.3c-0.27,0-0.5-0.1-0.7-0.3s-0.3-0.43-0.3-0.7s0.1-0.5,0.3-0.7c0.2-0.2,0.43-0.3,0.7-0.3
					C28.32,382.55,28.55,382.65,28.75,382.85z M32.15,381.45c0.2-0.2,0.43-0.3,0.7-0.3c0.27,0,0.5,0.1,0.7,0.3s0.3,0.43,0.3,0.7
					c0,0.27-0.1,0.5-0.3,0.7c-0.2,0.2-0.43,0.3-0.7,0.3c-0.27,0-0.5-0.1-0.7-0.3c-0.2-0.2-0.3-0.43-0.3-0.7
					C31.85,381.88,31.95,381.65,32.15,381.45z M38.65,380.65c0,0.27-0.1,0.5-0.3,0.7c-0.2,0.2-0.43,0.3-0.7,0.3
					c-0.27,0-0.5-0.1-0.7-0.3c-0.2-0.2-0.3-0.43-0.3-0.7c0-0.27,0.1-0.5,0.3-0.7c0.2-0.2,0.43-0.3,0.7-0.3c0.27,0,0.5,0.1,0.7,0.3
					S38.65,380.38,38.65,380.65z M43.15,378.45c0.2,0.2,0.3,0.43,0.3,0.7c0,0.27-0.1,0.5-0.3,0.7c-0.2,0.2-0.43,0.3-0.7,0.3
					c-0.27,0-0.5-0.1-0.7-0.3c-0.2-0.2-0.3-0.43-0.3-0.7c0-0.27,0.1-0.5,0.3-0.7s0.43-0.3,0.7-0.3
					C42.72,378.15,42.95,378.25,43.15,378.45z"/>
			</g>
		</g>
		<g>
			<g>
				<path fill="#D6D6D6" stroke="#000000" stroke-width="0.75" stroke-miterlimit="10" d="M464.3,10.55c8.83,0,16.37,2.97,22.6,8.9
					c6.3,5.93,9.45,13.08,9.45,21.45v271.7c0,8.4-3.15,15.55-9.45,21.45c-6.23,5.97-13.77,8.95-22.6,8.95H155.75
					c-8.8,0-16.33-2.98-22.6-8.95c-6.3-5.9-9.45-13.05-9.45-21.45V40.9c0-8.37,3.15-15.52,9.45-21.45c6.27-5.93,13.8-8.9,22.6-8.9
					H464.3z"/>
				
					<path fill="none" stroke="#EAEAEA" stroke-width="5.25" stroke-linecap="round" stroke-linejoin="round" stroke-miterlimit="3" d="
					M464.3,10.55H155.75c-8.8,0-16.33,2.97-22.6,8.9c-6.3,5.93-9.45,13.08-9.45,21.45v271.7c0,8.4,3.15,15.55,9.45,21.45
					c6.27,5.97,13.8,8.95,22.6,8.95H464.3c8.83,0,16.37-2.98,22.6-8.95c6.3-5.9,9.45-13.05,9.45-21.45V40.9
					c0-8.37-3.15-15.52-9.45-21.45C480.67,13.52,473.13,10.55,464.3,10.55z"/>
			</g>
		</g>
	</g>
</g>
<g id="Layer_2">
	
		<line fill="none" stroke="#999999" stroke-width="0.75" stroke-linecap="round" stroke-linejoin="round" stroke-miterlimit="3" x1="128.75" y1="171.9" x2="491.4" y2="171.9"/>
</g>
</svg>
